<?xml version="1.0" encoding="utf-8" standalone="no"?>
<!DOCTYPE svg PUBLIC "-//W3C//DTD SVG 1.1//EN"
  "http://www.w3.org/Graphics/SVG/1.1/DTD/svg11.dtd">
<svg xmlns:xlink="http://www.w3.org/1999/xlink" width="398.827812pt" height="311.146375pt" viewBox="0 0 398.827812 311.146375" xmlns="http://www.w3.org/2000/svg" version="1.1">
 <metadata>
  <rdf:RDF xmlns:dc="http://purl.org/dc/elements/1.1/" xmlns:cc="http://creativecommons.org/ns#" xmlns:rdf="http://www.w3.org/1999/02/22-rdf-syntax-ns#">
   <cc:Work>
    <dc:type rdf:resource="http://purl.org/dc/dcmitype/StillImage"/>
    <dc:date>2025-12-11T12:21:06.068904</dc:date>
    <dc:format>image/svg+xml</dc:format>
    <dc:creator>
     <cc:Agent>
      <dc:title>Matplotlib v3.10.5, https://matplotlib.org/</dc:title>
     </cc:Agent>
    </dc:creator>
   </cc:Work>
  </rdf:RDF>
 </metadata>
 <defs>
  <style type="text/css">*{stroke-linejoin: round; stroke-linecap: butt}</style>
 </defs>
 <g id="figure_1">
  <g id="patch_1">
   <path d="M 0 311.146375 
L 398.827812 311.146375 
L 398.827812 0 
L 0 0 
z
" style="fill: #ffffff"/>
  </g>
  <g id="axes_1">
   <g id="patch_2">
    <path d="M 34.507813 273.312 
L 391.627813 273.312 
L 391.627813 7.2 
L 34.507813 7.2 
z
" style="fill: #ffffff"/>
   </g>
   <g id="FillBetweenPolyCollection_1">
    <defs>
     <path id="m58363441cf" d="M 50.74054 -49.930375 
L 50.74054 -49.930375 
L 52.574746 -49.930375 
L 54.408953 -49.930375 
L 56.243159 -49.930375 
L 58.077366 -49.930375 
L 59.911572 -49.930375 
L 61.745779 -49.930375 
L 63.579985 -49.930375 
L 65.414192 -49.930375 
L 67.248398 -49.930375 
L 69.082604 -49.930375 
L 70.916811 -49.930375 
L 72.751017 -49.930375 
L 74.585224 -49.930375 
L 76.41943 -49.930375 
L 78.253637 -49.930375 
L 80.087843 -49.930375 
L 81.92205 -49.930375 
L 83.756256 -49.930375 
L 85.590463 -49.930375 
L 87.424669 -49.930375 
L 89.258876 -49.930375 
L 91.093082 -49.930375 
L 92.927289 -49.930375 
L 94.761495 -49.930375 
L 96.595702 -49.930375 
L 98.429908 -49.930375 
L 100.264115 -49.930375 
L 102.098321 -49.930375 
L 103.932527 -49.930375 
L 105.766734 -49.930375 
L 107.60094 -49.930375 
L 109.435147 -49.930375 
L 111.269353 -49.930375 
L 113.10356 -49.930375 
L 114.937766 -49.930375 
L 116.771973 -49.930375 
L 118.606179 -49.930375 
L 120.440386 -49.930375 
L 122.274592 -49.930375 
L 124.108799 -49.930375 
L 125.943005 -49.930375 
L 127.777212 -49.930375 
L 129.611418 -49.930375 
L 131.445625 -49.930375 
L 133.279831 -49.930375 
L 135.114037 -49.930375 
L 136.948244 -49.930375 
L 138.78245 -49.930375 
L 140.616657 -49.930375 
L 142.450863 -49.930375 
L 144.28507 -49.930375 
L 146.119276 -49.930375 
L 147.953483 -49.930375 
L 149.787689 -49.930375 
L 151.621896 -49.930375 
L 153.456102 -49.930375 
L 155.290309 -91.658949 
L 157.124515 -49.930375 
L 158.958722 -67.816298 
L 160.792928 -62.667594 
L 162.627135 -49.930375 
L 164.461341 -100.570662 
L 166.295547 -49.930375 
L 168.129754 -100.649525 
L 169.96396 -49.930375 
L 171.798167 -49.930375 
L 173.632373 -49.930375 
L 175.46658 -49.930375 
L 177.300786 -49.930375 
L 179.134993 -49.930375 
L 180.969199 -49.930375 
L 182.803406 -49.930375 
L 184.637612 -49.930375 
L 186.471819 -49.930375 
L 188.306025 -49.930375 
L 190.140232 -49.930375 
L 191.974438 -49.930375 
L 193.808645 -49.930375 
L 195.642851 -49.930375 
L 197.477057 -49.930375 
L 199.311264 -49.930375 
L 201.14547 -49.930375 
L 202.979677 -49.930375 
L 204.813883 -49.930375 
L 206.64809 -49.930375 
L 208.482296 -49.930375 
L 210.316503 -49.930375 
L 212.150709 -49.930375 
L 213.984916 -49.930375 
L 215.819122 -49.930375 
L 217.653329 -49.930375 
L 219.487535 -49.930375 
L 221.321742 -49.930375 
L 223.155948 -49.930375 
L 224.990155 -49.930375 
L 226.824361 -49.930375 
L 228.658568 -49.930375 
L 230.492774 -68.728811 
L 232.32698 -49.930375 
L 234.161187 -49.930375 
L 235.995393 -49.930375 
L 237.8296 -49.930375 
L 239.663806 -49.930375 
L 241.498013 -49.930375 
L 243.332219 -49.930375 
L 245.166426 -49.930375 
L 247.000632 -49.930375 
L 248.834839 -49.930375 
L 250.669045 -49.930375 
L 252.503252 -49.930375 
L 254.337458 -49.930375 
L 256.171665 -49.930375 
L 258.005871 -49.930375 
L 259.840078 -49.930375 
L 261.674284 -49.930375 
L 263.50849 -49.930375 
L 265.342697 -49.930375 
L 267.176903 -49.930375 
L 269.01111 -49.930375 
L 270.845316 -65.296731 
L 272.679523 -49.930375 
L 274.513729 -49.930375 
L 276.347936 -49.930375 
L 278.182142 -49.930375 
L 280.016349 -56.070628 
L 281.850555 -49.930375 
L 283.684762 -49.930375 
L 285.518968 -78.749767 
L 287.353175 -49.930375 
L 289.187381 -49.930375 
L 291.021588 -49.930375 
L 292.855794 -49.930375 
L 294.69 -49.930375 
L 296.524207 -49.930375 
L 298.358413 -49.930375 
L 300.19262 -49.930375 
L 302.026826 -49.930375 
L 303.861033 -49.930375 
L 305.695239 -49.930375 
L 307.529446 -49.930375 
L 309.363652 -49.930375 
L 311.197859 -49.930375 
L 313.032065 -49.930375 
L 314.866272 -49.930375 
L 316.700478 -49.930375 
L 318.534685 -49.930375 
L 320.368891 -49.930375 
L 322.203098 -49.930375 
L 324.037304 -49.930375 
L 325.87151 -49.930375 
L 327.705717 -49.930375 
L 329.539923 -49.930375 
L 331.37413 -49.930375 
L 333.208336 -49.930375 
L 335.042543 -49.930375 
L 336.876749 -49.930375 
L 338.710956 -49.930375 
L 340.545162 -49.930375 
L 342.379369 -49.930375 
L 344.213575 -49.930375 
L 346.047782 -49.930375 
L 347.881988 -49.930375 
L 349.716195 -49.930375 
L 351.550401 -49.930375 
L 353.384608 -49.930375 
L 355.218814 -49.930375 
L 357.053021 -54.350464 
L 358.887227 -57.982193 
L 360.721433 -49.930375 
L 362.55564 -49.930375 
L 364.389846 -49.930375 
L 366.224053 -49.930375 
L 368.058259 -49.930375 
L 369.892466 -49.930375 
L 371.726672 -49.930375 
L 373.560879 -49.930375 
L 375.395085 -49.930375 
L 375.395085 -87.779955 
L 375.395085 -87.779955 
L 373.560879 -49.930375 
L 371.726672 -49.930375 
L 369.892466 -82.930623 
L 368.058259 -60.993859 
L 366.224053 -75.894821 
L 364.389846 -64.853714 
L 362.55564 -49.930375 
L 360.721433 -65.0298 
L 358.887227 -96.938813 
L 357.053021 -93.259401 
L 355.218814 -57.616118 
L 353.384608 -90.524336 
L 351.550401 -96.605498 
L 349.716195 -91.020898 
L 347.881988 -49.930375 
L 346.047782 -49.930375 
L 344.213575 -49.930375 
L 342.379369 -49.930375 
L 340.545162 -49.930375 
L 338.710956 -49.930375 
L 336.876749 -178.715688 
L 335.042543 -49.930375 
L 333.208336 -93.41452 
L 331.37413 -49.930375 
L 329.539923 -49.930375 
L 327.705717 -49.930375 
L 325.87151 -49.930375 
L 324.037304 -49.930375 
L 322.203098 -49.930375 
L 320.368891 -49.930375 
L 318.534685 -141.647788 
L 316.700478 -49.930375 
L 314.866272 -96.423804 
L 313.032065 -49.930375 
L 311.197859 -97.076343 
L 309.363652 -49.930375 
L 307.529446 -49.930375 
L 305.695239 -49.930375 
L 303.861033 -49.930375 
L 302.026826 -49.930375 
L 300.19262 -49.930375 
L 298.358413 -49.930375 
L 296.524207 -49.930375 
L 294.69 -100.254723 
L 292.855794 -49.930375 
L 291.021588 -101.020112 
L 289.187381 -64.639298 
L 287.353175 -64.75288 
L 285.518968 -185.427393 
L 283.684762 -59.967052 
L 281.850555 -49.930375 
L 280.016349 -161.051295 
L 278.182142 -49.930375 
L 276.347936 -65.473002 
L 274.513729 -104.773644 
L 272.679523 -49.930375 
L 270.845316 -122.17671 
L 269.01111 -82.056139 
L 267.176903 -125.523067 
L 265.342697 -93.493823 
L 263.50849 -77.391239 
L 261.674284 -66.549547 
L 259.840078 -77.870905 
L 258.005871 -61.205056 
L 256.171665 -49.930375 
L 254.337458 -72.88421 
L 252.503252 -49.930375 
L 250.669045 -61.616916 
L 248.834839 -49.930375 
L 247.000632 -79.690289 
L 245.166426 -85.977594 
L 243.332219 -68.124825 
L 241.498013 -117.281758 
L 239.663806 -49.930375 
L 237.8296 -93.626638 
L 235.995393 -163.399208 
L 234.161187 -126.328959 
L 232.32698 -49.930375 
L 230.492774 -138.312947 
L 228.658568 -118.836021 
L 226.824361 -189.169763 
L 224.990155 -49.930375 
L 223.155948 -49.930375 
L 221.321742 -49.930375 
L 219.487535 -49.930375 
L 217.653329 -49.930375 
L 215.819122 -78.210514 
L 213.984916 -78.526493 
L 212.150709 -71.619804 
L 210.316503 -108.429862 
L 208.482296 -116.50313 
L 206.64809 -72.380836 
L 204.813883 -72.646522 
L 202.979677 -72.918572 
L 201.14547 -49.930375 
L 199.311264 -49.930375 
L 197.477057 -49.930375 
L 195.642851 -49.930375 
L 193.808645 -49.930375 
L 191.974438 -49.930375 
L 190.140232 -49.930375 
L 188.306025 -49.930375 
L 186.471819 -49.930375 
L 184.637612 -49.930375 
L 182.803406 -49.930375 
L 180.969199 -49.930375 
L 179.134993 -49.930375 
L 177.300786 -68.342983 
L 175.46658 -49.930375 
L 173.632373 -49.930375 
L 171.798167 -78.795254 
L 169.96396 -206.226715 
L 168.129754 -291.850375 
L 166.295547 -70.082757 
L 164.461341 -280.81887 
L 162.627135 -91.545864 
L 160.792928 -280.437408 
L 158.958722 -177.217812 
L 157.124515 -104.617396 
L 155.290309 -225.190388 
L 153.456102 -72.579513 
L 151.621896 -170.980834 
L 149.787689 -49.930375 
L 147.953483 -49.930375 
L 146.119276 -49.930375 
L 144.28507 -49.930375 
L 142.450863 -182.966028 
L 140.616657 -49.930375 
L 138.78245 -49.930375 
L 136.948244 -49.930375 
L 135.114037 -49.930375 
L 133.279831 -49.930375 
L 131.445625 -49.930375 
L 129.611418 -49.930375 
L 127.777212 -49.930375 
L 125.943005 -49.930375 
L 124.108799 -49.930375 
L 122.274592 -49.930375 
L 120.440386 -49.930375 
L 118.606179 -49.930375 
L 116.771973 -49.930375 
L 114.937766 -49.930375 
L 113.10356 -49.930375 
L 111.269353 -49.930375 
L 109.435147 -49.930375 
L 107.60094 -49.930375 
L 105.766734 -49.930375 
L 103.932527 -49.930375 
L 102.098321 -49.930375 
L 100.264115 -49.930375 
L 98.429908 -49.930375 
L 96.595702 -49.930375 
L 94.761495 -49.930375 
L 92.927289 -49.930375 
L 91.093082 -49.930375 
L 89.258876 -49.930375 
L 87.424669 -49.930375 
L 85.590463 -49.930375 
L 83.756256 -49.930375 
L 81.92205 -49.930375 
L 80.087843 -49.930375 
L 78.253637 -49.930375 
L 76.41943 -49.930375 
L 74.585224 -49.930375 
L 72.751017 -49.930375 
L 70.916811 -49.930375 
L 69.082604 -49.930375 
L 67.248398 -49.930375 
L 65.414192 -49.930375 
L 63.579985 -49.930375 
L 61.745779 -49.930375 
L 59.911572 -49.930375 
L 58.077366 -49.930375 
L 56.243159 -49.930375 
L 54.408953 -49.930375 
L 52.574746 -49.930375 
L 50.74054 -49.930375 
z
" style="stroke: #ff7f0e; stroke-opacity: 0.3"/>
    </defs>
    <g clip-path="url(#p78bf9dacc9)">
     <use xlink:href="#m58363441cf" x="0" y="311.146375" style="fill: #ff7f0e; fill-opacity: 0.3; stroke: #ff7f0e; stroke-opacity: 0.3"/>
    </g>
   </g>
   <g id="matplotlib.axis_1">
    <g id="xtick_1">
     <g id="line2d_1">
      <defs>
       <path id="m126612caec" d="M 0 0 
L 0 3.5 
" style="stroke: #000000; stroke-width: 0.8"/>
      </defs>
      <g>
       <use xlink:href="#m126612caec" x="49.823437" y="273.312" style="stroke: #000000; stroke-width: 0.8"/>
      </g>
     </g>
     <g id="text_1">
      <!-- 0.0 -->
      <g transform="translate(41.871874 287.910437) scale(0.1 -0.1)">
       <defs>
        <path id="DejaVuSans-30" d="M 2034 4250 
Q 1547 4250 1301 3770 
Q 1056 3291 1056 2328 
Q 1056 1369 1301 889 
Q 1547 409 2034 409 
Q 2525 409 2770 889 
Q 3016 1369 3016 2328 
Q 3016 3291 2770 3770 
Q 2525 4250 2034 4250 
z
M 2034 4750 
Q 2819 4750 3233 4129 
Q 3647 3509 3647 2328 
Q 3647 1150 3233 529 
Q 2819 -91 2034 -91 
Q 1250 -91 836 529 
Q 422 1150 422 2328 
Q 422 3509 836 4129 
Q 1250 4750 2034 4750 
z
" transform="scale(0.015625)"/>
        <path id="DejaVuSans-2e" d="M 684 794 
L 1344 794 
L 1344 0 
L 684 0 
L 684 794 
z
" transform="scale(0.015625)"/>
       </defs>
       <use xlink:href="#DejaVuSans-30"/>
       <use xlink:href="#DejaVuSans-2e" transform="translate(63.623047 0)"/>
       <use xlink:href="#DejaVuSans-30" transform="translate(95.410156 0)"/>
      </g>
     </g>
    </g>
    <g id="xtick_2">
     <g id="line2d_2">
      <g>
       <use xlink:href="#m126612caec" x="95.678598" y="273.312" style="stroke: #000000; stroke-width: 0.8"/>
      </g>
     </g>
     <g id="text_2">
      <!-- 0.5 -->
      <g transform="translate(87.727036 287.910437) scale(0.1 -0.1)">
       <defs>
        <path id="DejaVuSans-35" d="M 691 4666 
L 3169 4666 
L 3169 4134 
L 1269 4134 
L 1269 2991 
Q 1406 3038 1543 3061 
Q 1681 3084 1819 3084 
Q 2600 3084 3056 2656 
Q 3513 2228 3513 1497 
Q 3513 744 3044 326 
Q 2575 -91 1722 -91 
Q 1428 -91 1123 -41 
Q 819 9 494 109 
L 494 744 
Q 775 591 1075 516 
Q 1375 441 1709 441 
Q 2250 441 2565 725 
Q 2881 1009 2881 1497 
Q 2881 1984 2565 2268 
Q 2250 2553 1709 2553 
Q 1456 2553 1204 2497 
Q 953 2441 691 2322 
L 691 4666 
z
" transform="scale(0.015625)"/>
       </defs>
       <use xlink:href="#DejaVuSans-30"/>
       <use xlink:href="#DejaVuSans-2e" transform="translate(63.623047 0)"/>
       <use xlink:href="#DejaVuSans-35" transform="translate(95.410156 0)"/>
      </g>
     </g>
    </g>
    <g id="xtick_3">
     <g id="line2d_3">
      <g>
       <use xlink:href="#m126612caec" x="141.53376" y="273.312" style="stroke: #000000; stroke-width: 0.8"/>
      </g>
     </g>
     <g id="text_3">
      <!-- 1.0 -->
      <g transform="translate(133.582198 287.910437) scale(0.1 -0.1)">
       <defs>
        <path id="DejaVuSans-31" d="M 794 531 
L 1825 531 
L 1825 4091 
L 703 3866 
L 703 4441 
L 1819 4666 
L 2450 4666 
L 2450 531 
L 3481 531 
L 3481 0 
L 794 0 
L 794 531 
z
" transform="scale(0.015625)"/>
       </defs>
       <use xlink:href="#DejaVuSans-31"/>
       <use xlink:href="#DejaVuSans-2e" transform="translate(63.623047 0)"/>
       <use xlink:href="#DejaVuSans-30" transform="translate(95.410156 0)"/>
      </g>
     </g>
    </g>
    <g id="xtick_4">
     <g id="line2d_4">
      <g>
       <use xlink:href="#m126612caec" x="187.388922" y="273.312" style="stroke: #000000; stroke-width: 0.8"/>
      </g>
     </g>
     <g id="text_4">
      <!-- 1.5 -->
      <g transform="translate(179.437359 287.910437) scale(0.1 -0.1)">
       <use xlink:href="#DejaVuSans-31"/>
       <use xlink:href="#DejaVuSans-2e" transform="translate(63.623047 0)"/>
       <use xlink:href="#DejaVuSans-35" transform="translate(95.410156 0)"/>
      </g>
     </g>
    </g>
    <g id="xtick_5">
     <g id="line2d_5">
      <g>
       <use xlink:href="#m126612caec" x="233.244084" y="273.312" style="stroke: #000000; stroke-width: 0.8"/>
      </g>
     </g>
     <g id="text_5">
      <!-- 2.0 -->
      <g transform="translate(225.292521 287.910437) scale(0.1 -0.1)">
       <defs>
        <path id="DejaVuSans-32" d="M 1228 531 
L 3431 531 
L 3431 0 
L 469 0 
L 469 531 
Q 828 903 1448 1529 
Q 2069 2156 2228 2338 
Q 2531 2678 2651 2914 
Q 2772 3150 2772 3378 
Q 2772 3750 2511 3984 
Q 2250 4219 1831 4219 
Q 1534 4219 1204 4116 
Q 875 4013 500 3803 
L 500 4441 
Q 881 4594 1212 4672 
Q 1544 4750 1819 4750 
Q 2544 4750 2975 4387 
Q 3406 4025 3406 3419 
Q 3406 3131 3298 2873 
Q 3191 2616 2906 2266 
Q 2828 2175 2409 1742 
Q 1991 1309 1228 531 
z
" transform="scale(0.015625)"/>
       </defs>
       <use xlink:href="#DejaVuSans-32"/>
       <use xlink:href="#DejaVuSans-2e" transform="translate(63.623047 0)"/>
       <use xlink:href="#DejaVuSans-30" transform="translate(95.410156 0)"/>
      </g>
     </g>
    </g>
    <g id="xtick_6">
     <g id="line2d_6">
      <g>
       <use xlink:href="#m126612caec" x="279.099245" y="273.312" style="stroke: #000000; stroke-width: 0.8"/>
      </g>
     </g>
     <g id="text_6">
      <!-- 2.5 -->
      <g transform="translate(271.147683 287.910437) scale(0.1 -0.1)">
       <use xlink:href="#DejaVuSans-32"/>
       <use xlink:href="#DejaVuSans-2e" transform="translate(63.623047 0)"/>
       <use xlink:href="#DejaVuSans-35" transform="translate(95.410156 0)"/>
      </g>
     </g>
    </g>
    <g id="xtick_7">
     <g id="line2d_7">
      <g>
       <use xlink:href="#m126612caec" x="324.954407" y="273.312" style="stroke: #000000; stroke-width: 0.8"/>
      </g>
     </g>
     <g id="text_7">
      <!-- 3.0 -->
      <g transform="translate(317.002845 287.910437) scale(0.1 -0.1)">
       <defs>
        <path id="DejaVuSans-33" d="M 2597 2516 
Q 3050 2419 3304 2112 
Q 3559 1806 3559 1356 
Q 3559 666 3084 287 
Q 2609 -91 1734 -91 
Q 1441 -91 1130 -33 
Q 819 25 488 141 
L 488 750 
Q 750 597 1062 519 
Q 1375 441 1716 441 
Q 2309 441 2620 675 
Q 2931 909 2931 1356 
Q 2931 1769 2642 2001 
Q 2353 2234 1838 2234 
L 1294 2234 
L 1294 2753 
L 1863 2753 
Q 2328 2753 2575 2939 
Q 2822 3125 2822 3475 
Q 2822 3834 2567 4026 
Q 2313 4219 1838 4219 
Q 1578 4219 1281 4162 
Q 984 4106 628 3988 
L 628 4550 
Q 988 4650 1302 4700 
Q 1616 4750 1894 4750 
Q 2613 4750 3031 4423 
Q 3450 4097 3450 3541 
Q 3450 3153 3228 2886 
Q 3006 2619 2597 2516 
z
" transform="scale(0.015625)"/>
       </defs>
       <use xlink:href="#DejaVuSans-33"/>
       <use xlink:href="#DejaVuSans-2e" transform="translate(63.623047 0)"/>
       <use xlink:href="#DejaVuSans-30" transform="translate(95.410156 0)"/>
      </g>
     </g>
    </g>
    <g id="xtick_8">
     <g id="line2d_8">
      <g>
       <use xlink:href="#m126612caec" x="370.809569" y="273.312" style="stroke: #000000; stroke-width: 0.8"/>
      </g>
     </g>
     <g id="text_8">
      <!-- 3.5 -->
      <g transform="translate(362.858007 287.910437) scale(0.1 -0.1)">
       <use xlink:href="#DejaVuSans-33"/>
       <use xlink:href="#DejaVuSans-2e" transform="translate(63.623047 0)"/>
       <use xlink:href="#DejaVuSans-35" transform="translate(95.410156 0)"/>
      </g>
     </g>
    </g>
    <g id="text_9">
     <!-- r_xy (reduced units) -->
     <g transform="translate(162.86 301.588562) scale(0.1 -0.1)">
      <defs>
       <path id="DejaVuSans-72" d="M 2631 2963 
Q 2534 3019 2420 3045 
Q 2306 3072 2169 3072 
Q 1681 3072 1420 2755 
Q 1159 2438 1159 1844 
L 1159 0 
L 581 0 
L 581 3500 
L 1159 3500 
L 1159 2956 
Q 1341 3275 1631 3429 
Q 1922 3584 2338 3584 
Q 2397 3584 2469 3576 
Q 2541 3569 2628 3553 
L 2631 2963 
z
" transform="scale(0.015625)"/>
       <path id="DejaVuSans-5f" d="M 3263 -1063 
L 3263 -1509 
L -63 -1509 
L -63 -1063 
L 3263 -1063 
z
" transform="scale(0.015625)"/>
       <path id="DejaVuSans-78" d="M 3513 3500 
L 2247 1797 
L 3578 0 
L 2900 0 
L 1881 1375 
L 863 0 
L 184 0 
L 1544 1831 
L 300 3500 
L 978 3500 
L 1906 2253 
L 2834 3500 
L 3513 3500 
z
" transform="scale(0.015625)"/>
       <path id="DejaVuSans-79" d="M 2059 -325 
Q 1816 -950 1584 -1140 
Q 1353 -1331 966 -1331 
L 506 -1331 
L 506 -850 
L 844 -850 
Q 1081 -850 1212 -737 
Q 1344 -625 1503 -206 
L 1606 56 
L 191 3500 
L 800 3500 
L 1894 763 
L 2988 3500 
L 3597 3500 
L 2059 -325 
z
" transform="scale(0.015625)"/>
       <path id="DejaVuSans-20" transform="scale(0.015625)"/>
       <path id="DejaVuSans-28" d="M 1984 4856 
Q 1566 4138 1362 3434 
Q 1159 2731 1159 2009 
Q 1159 1288 1364 580 
Q 1569 -128 1984 -844 
L 1484 -844 
Q 1016 -109 783 600 
Q 550 1309 550 2009 
Q 550 2706 781 3412 
Q 1013 4119 1484 4856 
L 1984 4856 
z
" transform="scale(0.015625)"/>
       <path id="DejaVuSans-65" d="M 3597 1894 
L 3597 1613 
L 953 1613 
Q 991 1019 1311 708 
Q 1631 397 2203 397 
Q 2534 397 2845 478 
Q 3156 559 3463 722 
L 3463 178 
Q 3153 47 2828 -22 
Q 2503 -91 2169 -91 
Q 1331 -91 842 396 
Q 353 884 353 1716 
Q 353 2575 817 3079 
Q 1281 3584 2069 3584 
Q 2775 3584 3186 3129 
Q 3597 2675 3597 1894 
z
M 3022 2063 
Q 3016 2534 2758 2815 
Q 2500 3097 2075 3097 
Q 1594 3097 1305 2825 
Q 1016 2553 972 2059 
L 3022 2063 
z
" transform="scale(0.015625)"/>
       <path id="DejaVuSans-64" d="M 2906 2969 
L 2906 4863 
L 3481 4863 
L 3481 0 
L 2906 0 
L 2906 525 
Q 2725 213 2448 61 
Q 2172 -91 1784 -91 
Q 1150 -91 751 415 
Q 353 922 353 1747 
Q 353 2572 751 3078 
Q 1150 3584 1784 3584 
Q 2172 3584 2448 3432 
Q 2725 3281 2906 2969 
z
M 947 1747 
Q 947 1113 1208 752 
Q 1469 391 1925 391 
Q 2381 391 2643 752 
Q 2906 1113 2906 1747 
Q 2906 2381 2643 2742 
Q 2381 3103 1925 3103 
Q 1469 3103 1208 2742 
Q 947 2381 947 1747 
z
" transform="scale(0.015625)"/>
       <path id="DejaVuSans-75" d="M 544 1381 
L 544 3500 
L 1119 3500 
L 1119 1403 
Q 1119 906 1312 657 
Q 1506 409 1894 409 
Q 2359 409 2629 706 
Q 2900 1003 2900 1516 
L 2900 3500 
L 3475 3500 
L 3475 0 
L 2900 0 
L 2900 538 
Q 2691 219 2414 64 
Q 2138 -91 1772 -91 
Q 1169 -91 856 284 
Q 544 659 544 1381 
z
M 1991 3584 
L 1991 3584 
z
" transform="scale(0.015625)"/>
       <path id="DejaVuSans-63" d="M 3122 3366 
L 3122 2828 
Q 2878 2963 2633 3030 
Q 2388 3097 2138 3097 
Q 1578 3097 1268 2742 
Q 959 2388 959 1747 
Q 959 1106 1268 751 
Q 1578 397 2138 397 
Q 2388 397 2633 464 
Q 2878 531 3122 666 
L 3122 134 
Q 2881 22 2623 -34 
Q 2366 -91 2075 -91 
Q 1284 -91 818 406 
Q 353 903 353 1747 
Q 353 2603 823 3093 
Q 1294 3584 2113 3584 
Q 2378 3584 2631 3529 
Q 2884 3475 3122 3366 
z
" transform="scale(0.015625)"/>
       <path id="DejaVuSans-6e" d="M 3513 2113 
L 3513 0 
L 2938 0 
L 2938 2094 
Q 2938 2591 2744 2837 
Q 2550 3084 2163 3084 
Q 1697 3084 1428 2787 
Q 1159 2491 1159 1978 
L 1159 0 
L 581 0 
L 581 3500 
L 1159 3500 
L 1159 2956 
Q 1366 3272 1645 3428 
Q 1925 3584 2291 3584 
Q 2894 3584 3203 3211 
Q 3513 2838 3513 2113 
z
" transform="scale(0.015625)"/>
       <path id="DejaVuSans-69" d="M 603 3500 
L 1178 3500 
L 1178 0 
L 603 0 
L 603 3500 
z
M 603 4863 
L 1178 4863 
L 1178 4134 
L 603 4134 
L 603 4863 
z
" transform="scale(0.015625)"/>
       <path id="DejaVuSans-74" d="M 1172 4494 
L 1172 3500 
L 2356 3500 
L 2356 3053 
L 1172 3053 
L 1172 1153 
Q 1172 725 1289 603 
Q 1406 481 1766 481 
L 2356 481 
L 2356 0 
L 1766 0 
Q 1100 0 847 248 
Q 594 497 594 1153 
L 594 3053 
L 172 3053 
L 172 3500 
L 594 3500 
L 594 4494 
L 1172 4494 
z
" transform="scale(0.015625)"/>
       <path id="DejaVuSans-73" d="M 2834 3397 
L 2834 2853 
Q 2591 2978 2328 3040 
Q 2066 3103 1784 3103 
Q 1356 3103 1142 2972 
Q 928 2841 928 2578 
Q 928 2378 1081 2264 
Q 1234 2150 1697 2047 
L 1894 2003 
Q 2506 1872 2764 1633 
Q 3022 1394 3022 966 
Q 3022 478 2636 193 
Q 2250 -91 1575 -91 
Q 1294 -91 989 -36 
Q 684 19 347 128 
L 347 722 
Q 666 556 975 473 
Q 1284 391 1588 391 
Q 1994 391 2212 530 
Q 2431 669 2431 922 
Q 2431 1156 2273 1281 
Q 2116 1406 1581 1522 
L 1381 1569 
Q 847 1681 609 1914 
Q 372 2147 372 2553 
Q 372 3047 722 3315 
Q 1072 3584 1716 3584 
Q 2034 3584 2315 3537 
Q 2597 3491 2834 3397 
z
" transform="scale(0.015625)"/>
       <path id="DejaVuSans-29" d="M 513 4856 
L 1013 4856 
Q 1481 4119 1714 3412 
Q 1947 2706 1947 2009 
Q 1947 1309 1714 600 
Q 1481 -109 1013 -844 
L 513 -844 
Q 928 -128 1133 580 
Q 1338 1288 1338 2009 
Q 1338 2731 1133 3434 
Q 928 4138 513 4856 
z
" transform="scale(0.015625)"/>
      </defs>
      <use xlink:href="#DejaVuSans-72"/>
      <use xlink:href="#DejaVuSans-5f" transform="translate(41.113281 0)"/>
      <use xlink:href="#DejaVuSans-78" transform="translate(91.113281 0)"/>
      <use xlink:href="#DejaVuSans-79" transform="translate(150.292969 0)"/>
      <use xlink:href="#DejaVuSans-20" transform="translate(209.472656 0)"/>
      <use xlink:href="#DejaVuSans-28" transform="translate(241.259766 0)"/>
      <use xlink:href="#DejaVuSans-72" transform="translate(280.273438 0)"/>
      <use xlink:href="#DejaVuSans-65" transform="translate(319.136719 0)"/>
      <use xlink:href="#DejaVuSans-64" transform="translate(380.660156 0)"/>
      <use xlink:href="#DejaVuSans-75" transform="translate(444.136719 0)"/>
      <use xlink:href="#DejaVuSans-63" transform="translate(507.515625 0)"/>
      <use xlink:href="#DejaVuSans-65" transform="translate(562.496094 0)"/>
      <use xlink:href="#DejaVuSans-64" transform="translate(624.019531 0)"/>
      <use xlink:href="#DejaVuSans-20" transform="translate(687.496094 0)"/>
      <use xlink:href="#DejaVuSans-75" transform="translate(719.283203 0)"/>
      <use xlink:href="#DejaVuSans-6e" transform="translate(782.662109 0)"/>
      <use xlink:href="#DejaVuSans-69" transform="translate(846.041016 0)"/>
      <use xlink:href="#DejaVuSans-74" transform="translate(873.824219 0)"/>
      <use xlink:href="#DejaVuSans-73" transform="translate(913.033203 0)"/>
      <use xlink:href="#DejaVuSans-29" transform="translate(965.132812 0)"/>
     </g>
    </g>
   </g>
   <g id="matplotlib.axis_2">
    <g id="ytick_1">
     <g id="line2d_9">
      <defs>
       <path id="md19658b306" d="M 0 0 
L -3.5 0 
" style="stroke: #000000; stroke-width: 0.8"/>
      </defs>
      <g>
       <use xlink:href="#md19658b306" x="34.507813" y="261.216" style="stroke: #000000; stroke-width: 0.8"/>
      </g>
     </g>
     <g id="text_10">
      <!-- 0 -->
      <g transform="translate(21.145313 265.015219) scale(0.1 -0.1)">
       <use xlink:href="#DejaVuSans-30"/>
      </g>
     </g>
    </g>
    <g id="ytick_2">
     <g id="line2d_10">
      <g>
       <use xlink:href="#md19658b306" x="34.507813" y="227.90871" style="stroke: #000000; stroke-width: 0.8"/>
      </g>
     </g>
     <g id="text_11">
      <!-- 1 -->
      <g transform="translate(21.145313 231.707929) scale(0.1 -0.1)">
       <use xlink:href="#DejaVuSans-31"/>
      </g>
     </g>
    </g>
    <g id="ytick_3">
     <g id="line2d_11">
      <g>
       <use xlink:href="#md19658b306" x="34.507813" y="194.60142" style="stroke: #000000; stroke-width: 0.8"/>
      </g>
     </g>
     <g id="text_12">
      <!-- 2 -->
      <g transform="translate(21.145313 198.400639) scale(0.1 -0.1)">
       <use xlink:href="#DejaVuSans-32"/>
      </g>
     </g>
    </g>
    <g id="ytick_4">
     <g id="line2d_12">
      <g>
       <use xlink:href="#md19658b306" x="34.507813" y="161.29413" style="stroke: #000000; stroke-width: 0.8"/>
      </g>
     </g>
     <g id="text_13">
      <!-- 3 -->
      <g transform="translate(21.145313 165.093349) scale(0.1 -0.1)">
       <use xlink:href="#DejaVuSans-33"/>
      </g>
     </g>
    </g>
    <g id="ytick_5">
     <g id="line2d_13">
      <g>
       <use xlink:href="#md19658b306" x="34.507813" y="127.986841" style="stroke: #000000; stroke-width: 0.8"/>
      </g>
     </g>
     <g id="text_14">
      <!-- 4 -->
      <g transform="translate(21.145313 131.786059) scale(0.1 -0.1)">
       <defs>
        <path id="DejaVuSans-34" d="M 2419 4116 
L 825 1625 
L 2419 1625 
L 2419 4116 
z
M 2253 4666 
L 3047 4666 
L 3047 1625 
L 3713 1625 
L 3713 1100 
L 3047 1100 
L 3047 0 
L 2419 0 
L 2419 1100 
L 313 1100 
L 313 1709 
L 2253 4666 
z
" transform="scale(0.015625)"/>
       </defs>
       <use xlink:href="#DejaVuSans-34"/>
      </g>
     </g>
    </g>
    <g id="ytick_6">
     <g id="line2d_14">
      <g>
       <use xlink:href="#md19658b306" x="34.507813" y="94.679551" style="stroke: #000000; stroke-width: 0.8"/>
      </g>
     </g>
     <g id="text_15">
      <!-- 5 -->
      <g transform="translate(21.145313 98.47877) scale(0.1 -0.1)">
       <use xlink:href="#DejaVuSans-35"/>
      </g>
     </g>
    </g>
    <g id="ytick_7">
     <g id="line2d_15">
      <g>
       <use xlink:href="#md19658b306" x="34.507813" y="61.372261" style="stroke: #000000; stroke-width: 0.8"/>
      </g>
     </g>
     <g id="text_16">
      <!-- 6 -->
      <g transform="translate(21.145313 65.17148) scale(0.1 -0.1)">
       <defs>
        <path id="DejaVuSans-36" d="M 2113 2584 
Q 1688 2584 1439 2293 
Q 1191 2003 1191 1497 
Q 1191 994 1439 701 
Q 1688 409 2113 409 
Q 2538 409 2786 701 
Q 3034 994 3034 1497 
Q 3034 2003 2786 2293 
Q 2538 2584 2113 2584 
z
M 3366 4563 
L 3366 3988 
Q 3128 4100 2886 4159 
Q 2644 4219 2406 4219 
Q 1781 4219 1451 3797 
Q 1122 3375 1075 2522 
Q 1259 2794 1537 2939 
Q 1816 3084 2150 3084 
Q 2853 3084 3261 2657 
Q 3669 2231 3669 1497 
Q 3669 778 3244 343 
Q 2819 -91 2113 -91 
Q 1303 -91 875 529 
Q 447 1150 447 2328 
Q 447 3434 972 4092 
Q 1497 4750 2381 4750 
Q 2619 4750 2861 4703 
Q 3103 4656 3366 4563 
z
" transform="scale(0.015625)"/>
       </defs>
       <use xlink:href="#DejaVuSans-36"/>
      </g>
     </g>
    </g>
    <g id="ytick_8">
     <g id="line2d_16">
      <g>
       <use xlink:href="#md19658b306" x="34.507813" y="28.064971" style="stroke: #000000; stroke-width: 0.8"/>
      </g>
     </g>
     <g id="text_17">
      <!-- 7 -->
      <g transform="translate(21.145313 31.86419) scale(0.1 -0.1)">
       <defs>
        <path id="DejaVuSans-37" d="M 525 4666 
L 3525 4666 
L 3525 4397 
L 1831 0 
L 1172 0 
L 2766 4134 
L 525 4134 
L 525 4666 
z
" transform="scale(0.015625)"/>
       </defs>
       <use xlink:href="#DejaVuSans-37"/>
      </g>
     </g>
    </g>
    <g id="text_18">
     <!-- g_xy(r) -->
     <g transform="translate(14.7875 157.806) rotate(-90) scale(0.1 -0.1)">
      <defs>
       <path id="DejaVuSans-67" d="M 2906 1791 
Q 2906 2416 2648 2759 
Q 2391 3103 1925 3103 
Q 1463 3103 1205 2759 
Q 947 2416 947 1791 
Q 947 1169 1205 825 
Q 1463 481 1925 481 
Q 2391 481 2648 825 
Q 2906 1169 2906 1791 
z
M 3481 434 
Q 3481 -459 3084 -895 
Q 2688 -1331 1869 -1331 
Q 1566 -1331 1297 -1286 
Q 1028 -1241 775 -1147 
L 775 -588 
Q 1028 -725 1275 -790 
Q 1522 -856 1778 -856 
Q 2344 -856 2625 -561 
Q 2906 -266 2906 331 
L 2906 616 
Q 2728 306 2450 153 
Q 2172 0 1784 0 
Q 1141 0 747 490 
Q 353 981 353 1791 
Q 353 2603 747 3093 
Q 1141 3584 1784 3584 
Q 2172 3584 2450 3431 
Q 2728 3278 2906 2969 
L 2906 3500 
L 3481 3500 
L 3481 434 
z
" transform="scale(0.015625)"/>
      </defs>
      <use xlink:href="#DejaVuSans-67"/>
      <use xlink:href="#DejaVuSans-5f" transform="translate(63.476562 0)"/>
      <use xlink:href="#DejaVuSans-78" transform="translate(113.476562 0)"/>
      <use xlink:href="#DejaVuSans-79" transform="translate(172.65625 0)"/>
      <use xlink:href="#DejaVuSans-28" transform="translate(231.835938 0)"/>
      <use xlink:href="#DejaVuSans-72" transform="translate(270.849609 0)"/>
      <use xlink:href="#DejaVuSans-29" transform="translate(311.962891 0)"/>
     </g>
    </g>
   </g>
   <g id="line2d_17">
    <path d="M 50.74054 261.216 
L 140.616657 261.216 
L 142.450863 194.698173 
L 144.28507 261.216 
L 149.787689 261.216 
L 151.621896 200.69077 
L 153.456102 249.891431 
L 155.290309 152.721707 
L 157.124515 233.87249 
L 158.958722 188.62932 
L 160.792928 139.593874 
L 162.627135 240.408256 
L 164.461341 120.451609 
L 166.295547 251.139809 
L 168.129754 114.896425 
L 169.96396 183.06783 
L 171.798167 246.783561 
L 173.632373 261.216 
L 175.46658 261.216 
L 177.300786 252.009696 
L 179.134993 261.216 
L 201.14547 261.216 
L 202.979677 249.721902 
L 206.64809 249.990769 
L 208.482296 227.929623 
L 210.316503 231.966256 
L 212.150709 250.371286 
L 213.984916 246.917941 
L 215.819122 247.075931 
L 217.653329 261.216 
L 224.990155 261.216 
L 226.824361 191.596306 
L 228.658568 226.763177 
L 230.492774 207.625496 
L 232.32698 261.216 
L 234.161187 223.016708 
L 235.995393 204.481584 
L 237.8296 239.367868 
L 239.663806 261.216 
L 241.498013 227.540308 
L 243.332219 252.118775 
L 245.166426 243.19239 
L 247.000632 246.336043 
L 248.834839 261.216 
L 250.669045 255.372729 
L 252.503252 261.216 
L 254.337458 249.739083 
L 256.171665 261.216 
L 258.005871 255.57866 
L 259.840078 247.245735 
L 261.674284 252.906414 
L 263.50849 247.485568 
L 265.342697 239.434276 
L 267.176903 223.419654 
L 269.01111 245.153118 
L 270.845316 217.409654 
L 272.679523 261.216 
L 274.513729 233.794365 
L 276.347936 253.444687 
L 278.182142 261.216 
L 280.016349 202.585413 
L 281.850555 261.216 
L 283.684762 256.197662 
L 285.518968 179.057795 
L 287.353175 253.804747 
L 289.187381 253.861539 
L 291.021588 235.671131 
L 292.855794 261.216 
L 294.69 236.053826 
L 296.524207 261.216 
L 309.363652 261.216 
L 311.197859 237.643016 
L 313.032065 261.216 
L 314.866272 237.969286 
L 316.700478 261.216 
L 318.534685 215.357294 
L 320.368891 261.216 
L 331.37413 261.216 
L 333.208336 239.473927 
L 335.042543 261.216 
L 336.876749 196.823344 
L 338.710956 261.216 
L 347.881988 261.216 
L 349.716195 240.670739 
L 351.550401 237.878439 
L 353.384608 240.91902 
L 355.218814 257.373128 
L 357.053021 237.341443 
L 358.887227 233.685872 
L 360.721433 253.666287 
L 362.55564 261.216 
L 364.389846 253.754331 
L 366.224053 248.233777 
L 368.058259 255.684258 
L 369.892466 244.715876 
L 371.726672 261.216 
L 373.560879 261.216 
L 375.395085 242.29121 
L 375.395085 242.29121 
" clip-path="url(#p78bf9dacc9)" style="fill: none; stroke: #ff7f0e; stroke-width: 1.5; stroke-linecap: square"/>
   </g>
   <g id="line2d_18">
    <path d="M 34.507813 227.90871 
L 391.627813 227.90871 
" clip-path="url(#p78bf9dacc9)" style="fill: none; stroke-dasharray: 5.55,2.4; stroke-dashoffset: 0; stroke: #000000; stroke-opacity: 0.4; stroke-width: 1.5"/>
   </g>
   <g id="patch_3">
    <path d="M 34.507813 273.312 
L 34.507813 7.2 
" style="fill: none; stroke: #000000; stroke-width: 0.8; stroke-linejoin: miter; stroke-linecap: square"/>
   </g>
   <g id="patch_4">
    <path d="M 391.627813 273.312 
L 391.627813 7.2 
" style="fill: none; stroke: #000000; stroke-width: 0.8; stroke-linejoin: miter; stroke-linecap: square"/>
   </g>
   <g id="patch_5">
    <path d="M 34.507813 273.312 
L 391.627813 273.312 
" style="fill: none; stroke: #000000; stroke-width: 0.8; stroke-linejoin: miter; stroke-linecap: square"/>
   </g>
   <g id="patch_6">
    <path d="M 34.507813 7.2 
L 391.627813 7.2 
" style="fill: none; stroke: #000000; stroke-width: 0.8; stroke-linejoin: miter; stroke-linecap: square"/>
   </g>
   <g id="legend_1">
    <g id="patch_7">
     <path d="M 318.466875 44.55625 
L 384.627813 44.55625 
Q 386.627813 44.55625 386.627813 42.55625 
L 386.627813 14.2 
Q 386.627813 12.2 384.627813 12.2 
L 318.466875 12.2 
Q 316.466875 12.2 316.466875 14.2 
L 316.466875 42.55625 
Q 316.466875 44.55625 318.466875 44.55625 
z
" style="fill: #ffffff; opacity: 0.8; stroke: #cccccc; stroke-linejoin: miter"/>
    </g>
    <g id="line2d_19">
     <path d="M 320.466875 20.298437 
L 330.466875 20.298437 
L 340.466875 20.298437 
" style="fill: none; stroke: #ff7f0e; stroke-width: 1.5; stroke-linecap: square"/>
    </g>
    <g id="text_19">
     <!-- Mean -->
     <g transform="translate(348.466875 23.798437) scale(0.1 -0.1)">
      <defs>
       <path id="DejaVuSans-4d" d="M 628 4666 
L 1569 4666 
L 2759 1491 
L 3956 4666 
L 4897 4666 
L 4897 0 
L 4281 0 
L 4281 4097 
L 3078 897 
L 2444 897 
L 1241 4097 
L 1241 0 
L 628 0 
L 628 4666 
z
" transform="scale(0.015625)"/>
       <path id="DejaVuSans-61" d="M 2194 1759 
Q 1497 1759 1228 1600 
Q 959 1441 959 1056 
Q 959 750 1161 570 
Q 1363 391 1709 391 
Q 2188 391 2477 730 
Q 2766 1069 2766 1631 
L 2766 1759 
L 2194 1759 
z
M 3341 1997 
L 3341 0 
L 2766 0 
L 2766 531 
Q 2569 213 2275 61 
Q 1981 -91 1556 -91 
Q 1019 -91 701 211 
Q 384 513 384 1019 
Q 384 1609 779 1909 
Q 1175 2209 1959 2209 
L 2766 2209 
L 2766 2266 
Q 2766 2663 2505 2880 
Q 2244 3097 1772 3097 
Q 1472 3097 1187 3025 
Q 903 2953 641 2809 
L 641 3341 
Q 956 3463 1253 3523 
Q 1550 3584 1831 3584 
Q 2591 3584 2966 3190 
Q 3341 2797 3341 1997 
z
" transform="scale(0.015625)"/>
      </defs>
      <use xlink:href="#DejaVuSans-4d"/>
      <use xlink:href="#DejaVuSans-65" transform="translate(86.279297 0)"/>
      <use xlink:href="#DejaVuSans-61" transform="translate(147.802734 0)"/>
      <use xlink:href="#DejaVuSans-6e" transform="translate(209.082031 0)"/>
     </g>
    </g>
    <g id="patch_8">
     <path d="M 320.466875 38.476562 
L 340.466875 38.476562 
L 340.466875 31.476562 
L 320.466875 31.476562 
z
" style="fill: #ff7f0e; fill-opacity: 0.3; stroke: #ff7f0e; stroke-opacity: 0.3; stroke-linejoin: miter"/>
    </g>
    <g id="text_20">
     <!-- Std Err -->
     <g transform="translate(348.466875 38.476562) scale(0.1 -0.1)">
      <defs>
       <path id="DejaVuSans-53" d="M 3425 4513 
L 3425 3897 
Q 3066 4069 2747 4153 
Q 2428 4238 2131 4238 
Q 1616 4238 1336 4038 
Q 1056 3838 1056 3469 
Q 1056 3159 1242 3001 
Q 1428 2844 1947 2747 
L 2328 2669 
Q 3034 2534 3370 2195 
Q 3706 1856 3706 1288 
Q 3706 609 3251 259 
Q 2797 -91 1919 -91 
Q 1588 -91 1214 -16 
Q 841 59 441 206 
L 441 856 
Q 825 641 1194 531 
Q 1563 422 1919 422 
Q 2459 422 2753 634 
Q 3047 847 3047 1241 
Q 3047 1584 2836 1778 
Q 2625 1972 2144 2069 
L 1759 2144 
Q 1053 2284 737 2584 
Q 422 2884 422 3419 
Q 422 4038 858 4394 
Q 1294 4750 2059 4750 
Q 2388 4750 2728 4690 
Q 3069 4631 3425 4513 
z
" transform="scale(0.015625)"/>
       <path id="DejaVuSans-45" d="M 628 4666 
L 3578 4666 
L 3578 4134 
L 1259 4134 
L 1259 2753 
L 3481 2753 
L 3481 2222 
L 1259 2222 
L 1259 531 
L 3634 531 
L 3634 0 
L 628 0 
L 628 4666 
z
" transform="scale(0.015625)"/>
      </defs>
      <use xlink:href="#DejaVuSans-53"/>
      <use xlink:href="#DejaVuSans-74" transform="translate(63.476562 0)"/>
      <use xlink:href="#DejaVuSans-64" transform="translate(102.685547 0)"/>
      <use xlink:href="#DejaVuSans-20" transform="translate(166.162109 0)"/>
      <use xlink:href="#DejaVuSans-45" transform="translate(197.949219 0)"/>
      <use xlink:href="#DejaVuSans-72" transform="translate(261.132812 0)"/>
      <use xlink:href="#DejaVuSans-72" transform="translate(300.496094 0)"/>
     </g>
    </g>
   </g>
  </g>
 </g>
 <defs>
  <clipPath id="p78bf9dacc9">
   <rect x="34.507813" y="7.2" width="357.12" height="266.112"/>
  </clipPath>
 </defs>
</svg>
