<?xml version="1.0" encoding="utf-8" standalone="no"?>
<!DOCTYPE svg PUBLIC "-//W3C//DTD SVG 1.1//EN"
  "http://www.w3.org/Graphics/SVG/1.1/DTD/svg11.dtd">
<svg xmlns:xlink="http://www.w3.org/1999/xlink" width="408.379375pt" height="312.818317pt" viewBox="0 0 408.379375 312.818317" xmlns="http://www.w3.org/2000/svg" version="1.1">
 <metadata>
  <rdf:RDF xmlns:dc="http://purl.org/dc/elements/1.1/" xmlns:cc="http://creativecommons.org/ns#" xmlns:rdf="http://www.w3.org/1999/02/22-rdf-syntax-ns#">
   <cc:Work>
    <dc:type rdf:resource="http://purl.org/dc/dcmitype/StillImage"/>
    <dc:date>2025-12-11T12:21:07.322784</dc:date>
    <dc:format>image/svg+xml</dc:format>
    <dc:creator>
     <cc:Agent>
      <dc:title>Matplotlib v3.10.5, https://matplotlib.org/</dc:title>
     </cc:Agent>
    </dc:creator>
   </cc:Work>
  </rdf:RDF>
 </metadata>
 <defs>
  <style type="text/css">*{stroke-linejoin: round; stroke-linecap: butt}</style>
 </defs>
 <g id="figure_1">
  <g id="patch_1">
   <path d="M 0 312.818317 
L 408.379375 312.818317 
L 408.379375 0 
L 0 0 
z
" style="fill: #ffffff"/>
  </g>
  <g id="axes_1">
   <g id="patch_2">
    <path d="M 44.059375 274.940192 
L 401.179375 274.940192 
L 401.179375 8.828192 
L 44.059375 8.828192 
z
" style="fill: #ffffff"/>
   </g>
   <g id="FillBetweenPolyCollection_1">
    <defs>
     <path id="m2d7917025a" d="M 8.445816 -178.730325 
L 8.445816 -71.699723 
L 16.493801 -68.197701 
L 27.875371 -55.723133 
L 32.462067 -54.78313 
L 43.971342 -53.521673 
L 47.304927 -42.945862 
L 50.45791 -63.945226 
L 59.070519 -67.860058 
L 66.734483 -60.474487 
L 69.12637 -49.71664 
L 71.448883 -73.666112 
L 75.907874 -62.297775 
L 86.164038 -69.429403 
L 88.087943 -51.803439 
L 93.647619 -65.840423 
L 98.926424 -86.200973 
L 102.309064 -64.040851 
L 105.593594 -58.532037 
L 107.201633 -66.53219 
L 111.899559 -70.018354 
L 113.426118 -90.233438 
L 119.353681 -59.372177 
L 125.023149 -69.320102 
L 126.403965 -85.556341 
L 129.124778 -69.470665 
L 130.46556 -58.127019 
L 136.987347 -68.02276 
L 140.76594 -52.965568 
L 144.452705 -64.593937 
L 145.662345 -71.209697 
L 149.23648 -63.965856 
L 153.881506 -61.232633 
L 155.022456 -63.916333 
L 156.155617 -61.420598 
L 162.799488 -53.764739 
L 163.88226 -59.935132 
L 164.958369 -61.992871 
L 168.147912 -68.637978 
L 172.314321 -60.548194 
L 173.341209 -54.76151 
L 180.37519 -55.457033 
L 181.359047 -50.11202 
L 183.311816 -63.183902 
L 184.280877 -66.559465 
L 187.159626 -59.066097 
L 189.055778 -50.007595 
L 191.866776 -61.915981 
L 195.555269 -70.693717 
L 198.278978 -65.710702 
L 199.179037 -64.360189 
L 202.741371 -66.712944 
L 203.622716 -68.246923 
L 206.245295 -70.771609 
L 208.836588 -66.084322 
L 210.547278 -67.085142 
L 215.601868 -69.518268 
L 216.433377 -72.676361 
L 222.170927 -47.659779 
L 222.979091 -74.875713 
L 223.784473 -74.157951 
L 225.387005 -64.043019 
L 226.184211 -71.830492 
L 229.34659 -59.062938 
L 232.467894 -92.232912 
L 234.782858 -63.779219 
L 236.314129 -70.050433 
L 237.835977 -78.721058 
L 241.600482 -71.17083 
L 242.346671 -58.686788 
L 244.572164 -58.771727 
L 248.238864 -70.69111 
L 249.691102 -68.16421 
L 250.414196 -64.825795 
L 253.286787 -56.447426 
L 258.940273 -69.107202 
L 259.638654 -78.083115 
L 261.030038 -67.07308 
L 261.723068 -63.249339 
L 263.79167 -74.586149 
L 265.16213 -56.924727 
L 267.20516 -64.58017 
L 269.233296 -57.807622 
L 271.914859 -71.180032 
L 275.89021 -60.392257 
L 277.857369 -62.941286 
L 280.459594 -64.187683 
L 281.106528 -63.017817 
L 283.038789 -72.575513 
L 284.958434 -52.756965 
L 285.595554 -66.872279 
L 286.231309 -62.373037 
L 290.644075 -70.052599 
L 291.269211 -60.974744 
L 292.51562 -62.229891 
L 293.136909 -56.18787 
L 296.224508 -66.919415 
L 302.30843 -54.592957 
L 302.910337 -69.322828 
L 305.306509 -64.784874 
L 307.684665 -69.789725 
L 310.632632 -59.003064 
L 312.388512 -62.157548 
L 318.746752 -73.401629 
L 319.318705 -64.388434 
L 319.889669 -74.29754 
L 323.294974 -66.217515 
L 328.894672 -90.396684 
L 332.760188 -75.418341 
L 334.949662 -73.343482 
L 339.287554 -68.610178 
L 346.224293 -57.128937 
L 347.279563 -64.460956 
L 350.426885 -64.367295 
L 360.217398 -70.26885 
L 362.245835 -56.239485 
L 373.701834 -59.978594 
L 374.681926 -60.303601 
L 387.67741 -56.733837 
L 401.179375 -52.822703 
L 401.179375 -125.109206 
L 401.179375 -125.109206 
L 387.67741 -116.924792 
L 374.681926 -148.65179 
L 373.701834 -153.949881 
L 362.245835 -127.261769 
L 360.217398 -190.947255 
L 350.426885 -149.219047 
L 347.279563 -153.289418 
L 346.224293 -123.051016 
L 339.287554 -172.297348 
L 334.949662 -192.159569 
L 332.760188 -200.136491 
L 328.894672 -279.798125 
L 323.294974 -174.501327 
L 319.889669 -194.275297 
L 319.318705 -148.946647 
L 318.746752 -193.364163 
L 312.388512 -176.520743 
L 310.632632 -126.362742 
L 307.684665 -172.119233 
L 305.306509 -158.93429 
L 302.910337 -185.289475 
L 302.30843 -135.190986 
L 296.224508 -158.68517 
L 293.136909 -115.552349 
L 292.51562 -139.191741 
L 291.269211 -137.529763 
L 290.644075 -171.717196 
L 286.231309 -140.071389 
L 285.595554 -164.091219 
L 284.958434 -102.25447 
L 283.038789 -183.108198 
L 281.106528 -152.058543 
L 280.459594 -159.16402 
L 277.857369 -143.000128 
L 275.89021 -131.682563 
L 271.914859 -194.143603 
L 269.233296 -158.899707 
L 267.20516 -149.403886 
L 265.16213 -127.370103 
L 263.79167 -201.716039 
L 261.723068 -147.784453 
L 261.030038 -160.152826 
L 259.638654 -213.363236 
L 258.940273 -173.32371 
L 253.286787 -118.650671 
L 250.414196 -149.971137 
L 249.691102 -163.999098 
L 248.238864 -200.532098 
L 244.572164 -130.967254 
L 242.346671 -124.735675 
L 241.600482 -179.437216 
L 237.835977 -218.357943 
L 236.314129 -172.538989 
L 234.782858 -151.793684 
L 232.467894 -268.583279 
L 229.34659 -126.010956 
L 226.184211 -186.010495 
L 225.387005 -151.612234 
L 223.784473 -190.277928 
L 222.979091 -202.360577 
L 222.170927 -111.866933 
L 216.433377 -192.321316 
L 215.601868 -173.606489 
L 210.547278 -161.486757 
L 208.836588 -158.668722 
L 206.245295 -176.032771 
L 203.622716 -172.644242 
L 202.741371 -167.715617 
L 199.179037 -149.366738 
L 198.278978 -165.788761 
L 195.555269 -193.869664 
L 191.866776 -147.553324 
L 189.055778 -89.401497 
L 187.159626 -151.396417 
L 184.280877 -157.351841 
L 183.311816 -145.434323 
L 181.359047 -93.663658 
L 180.37519 -114.81397 
L 173.341209 -112.041493 
L 172.314321 -132.616402 
L 168.147912 -167.226761 
L 164.958369 -141.10184 
L 163.88226 -191.374754 
L 162.799488 -113.190005 
L 156.155617 -160.806663 
L 155.022456 -173.45928 
L 153.881506 -138.753486 
L 149.23648 -146.642359 
L 145.662345 -182.238827 
L 144.452705 -149.642798 
L 140.76594 -131.391245 
L 136.987347 -195.133519 
L 130.46556 -142.939718 
L 129.124778 -172.738035 
L 126.403965 -238.711172 
L 125.023149 -171.079566 
L 119.353681 -131.954337 
L 113.426118 -256.037777 
L 111.899559 -172.06906 
L 107.201633 -158.644133 
L 105.593594 -170.710237 
L 102.309064 -146.990371 
L 98.926424 -239.076291 
L 93.647619 -162.443064 
L 88.087943 -101.437596 
L 86.164038 -169.118563 
L 75.907874 -139.461685 
L 71.448883 -236.756165 
L 69.12637 -90.300976 
L 66.734483 -142.341886 
L 59.070519 -164.394981 
L 50.45791 -147.361475 
L 47.304927 -122.929221 
L 43.971342 -123.966364 
L 32.462067 -135.939475 
L 27.875371 -127.455296 
L 16.493801 -202.014184 
L 8.445816 -178.730325 
z
" style="stroke: #ff7f0e; stroke-opacity: 0.3"/>
    </defs>
    <g clip-path="url(#pafdf458f42)">
     <use xlink:href="#m2d7917025a" x="0" y="312.818317" style="fill: #ff7f0e; fill-opacity: 0.3; stroke: #ff7f0e; stroke-opacity: 0.3"/>
    </g>
   </g>
   <g id="matplotlib.axis_1">
    <g id="xtick_1">
     <g id="line2d_1">
      <defs>
       <path id="m6952b4b1fc" d="M 0 0 
L 0 3.5 
" style="stroke: #000000; stroke-width: 0.8"/>
      </defs>
      <g>
       <use xlink:href="#m6952b4b1fc" x="77.085244" y="274.940192" style="stroke: #000000; stroke-width: 0.8"/>
      </g>
     </g>
     <g id="text_1">
      <!-- 4 -->
      <g transform="translate(73.903994 289.538629) scale(0.1 -0.1)">
       <defs>
        <path id="DejaVuSans-34" d="M 2419 4116 
L 825 1625 
L 2419 1625 
L 2419 4116 
z
M 2253 4666 
L 3047 4666 
L 3047 1625 
L 3713 1625 
L 3713 1100 
L 3047 1100 
L 3047 0 
L 2419 0 
L 2419 1100 
L 313 1100 
L 313 1709 
L 2253 4666 
z
" transform="scale(0.015625)"/>
       </defs>
       <use xlink:href="#DejaVuSans-34"/>
      </g>
     </g>
    </g>
    <g id="xtick_2">
     <g id="line2d_2">
      <g>
       <use xlink:href="#m6952b4b1fc" x="121.119735" y="274.940192" style="stroke: #000000; stroke-width: 0.8"/>
      </g>
     </g>
     <g id="text_2">
      <!-- 6 -->
      <g transform="translate(117.938485 289.538629) scale(0.1 -0.1)">
       <defs>
        <path id="DejaVuSans-36" d="M 2113 2584 
Q 1688 2584 1439 2293 
Q 1191 2003 1191 1497 
Q 1191 994 1439 701 
Q 1688 409 2113 409 
Q 2538 409 2786 701 
Q 3034 994 3034 1497 
Q 3034 2003 2786 2293 
Q 2538 2584 2113 2584 
z
M 3366 4563 
L 3366 3988 
Q 3128 4100 2886 4159 
Q 2644 4219 2406 4219 
Q 1781 4219 1451 3797 
Q 1122 3375 1075 2522 
Q 1259 2794 1537 2939 
Q 1816 3084 2150 3084 
Q 2853 3084 3261 2657 
Q 3669 2231 3669 1497 
Q 3669 778 3244 343 
Q 2819 -91 2113 -91 
Q 1303 -91 875 529 
Q 447 1150 447 2328 
Q 447 3434 972 4092 
Q 1497 4750 2381 4750 
Q 2619 4750 2861 4703 
Q 3103 4656 3366 4563 
z
" transform="scale(0.015625)"/>
       </defs>
       <use xlink:href="#DejaVuSans-36"/>
      </g>
     </g>
    </g>
    <g id="xtick_3">
     <g id="line2d_3">
      <g>
       <use xlink:href="#m6952b4b1fc" x="165.154227" y="274.940192" style="stroke: #000000; stroke-width: 0.8"/>
      </g>
     </g>
     <g id="text_3">
      <!-- 8 -->
      <g transform="translate(161.972977 289.538629) scale(0.1 -0.1)">
       <defs>
        <path id="DejaVuSans-38" d="M 2034 2216 
Q 1584 2216 1326 1975 
Q 1069 1734 1069 1313 
Q 1069 891 1326 650 
Q 1584 409 2034 409 
Q 2484 409 2743 651 
Q 3003 894 3003 1313 
Q 3003 1734 2745 1975 
Q 2488 2216 2034 2216 
z
M 1403 2484 
Q 997 2584 770 2862 
Q 544 3141 544 3541 
Q 544 4100 942 4425 
Q 1341 4750 2034 4750 
Q 2731 4750 3128 4425 
Q 3525 4100 3525 3541 
Q 3525 3141 3298 2862 
Q 3072 2584 2669 2484 
Q 3125 2378 3379 2068 
Q 3634 1759 3634 1313 
Q 3634 634 3220 271 
Q 2806 -91 2034 -91 
Q 1263 -91 848 271 
Q 434 634 434 1313 
Q 434 1759 690 2068 
Q 947 2378 1403 2484 
z
M 1172 3481 
Q 1172 3119 1398 2916 
Q 1625 2713 2034 2713 
Q 2441 2713 2670 2916 
Q 2900 3119 2900 3481 
Q 2900 3844 2670 4047 
Q 2441 4250 2034 4250 
Q 1625 4250 1398 4047 
Q 1172 3844 1172 3481 
z
" transform="scale(0.015625)"/>
       </defs>
       <use xlink:href="#DejaVuSans-38"/>
      </g>
     </g>
    </g>
    <g id="xtick_4">
     <g id="line2d_4">
      <g>
       <use xlink:href="#m6952b4b1fc" x="209.188719" y="274.940192" style="stroke: #000000; stroke-width: 0.8"/>
      </g>
     </g>
     <g id="text_4">
      <!-- 10 -->
      <g transform="translate(202.826219 289.538629) scale(0.1 -0.1)">
       <defs>
        <path id="DejaVuSans-31" d="M 794 531 
L 1825 531 
L 1825 4091 
L 703 3866 
L 703 4441 
L 1819 4666 
L 2450 4666 
L 2450 531 
L 3481 531 
L 3481 0 
L 794 0 
L 794 531 
z
" transform="scale(0.015625)"/>
        <path id="DejaVuSans-30" d="M 2034 4250 
Q 1547 4250 1301 3770 
Q 1056 3291 1056 2328 
Q 1056 1369 1301 889 
Q 1547 409 2034 409 
Q 2525 409 2770 889 
Q 3016 1369 3016 2328 
Q 3016 3291 2770 3770 
Q 2525 4250 2034 4250 
z
M 2034 4750 
Q 2819 4750 3233 4129 
Q 3647 3509 3647 2328 
Q 3647 1150 3233 529 
Q 2819 -91 2034 -91 
Q 1250 -91 836 529 
Q 422 1150 422 2328 
Q 422 3509 836 4129 
Q 1250 4750 2034 4750 
z
" transform="scale(0.015625)"/>
       </defs>
       <use xlink:href="#DejaVuSans-31"/>
       <use xlink:href="#DejaVuSans-30" transform="translate(63.623047 0)"/>
      </g>
     </g>
    </g>
    <g id="xtick_5">
     <g id="line2d_5">
      <g>
       <use xlink:href="#m6952b4b1fc" x="253.22321" y="274.940192" style="stroke: #000000; stroke-width: 0.8"/>
      </g>
     </g>
     <g id="text_5">
      <!-- 12 -->
      <g transform="translate(246.86071 289.538629) scale(0.1 -0.1)">
       <defs>
        <path id="DejaVuSans-32" d="M 1228 531 
L 3431 531 
L 3431 0 
L 469 0 
L 469 531 
Q 828 903 1448 1529 
Q 2069 2156 2228 2338 
Q 2531 2678 2651 2914 
Q 2772 3150 2772 3378 
Q 2772 3750 2511 3984 
Q 2250 4219 1831 4219 
Q 1534 4219 1204 4116 
Q 875 4013 500 3803 
L 500 4441 
Q 881 4594 1212 4672 
Q 1544 4750 1819 4750 
Q 2544 4750 2975 4387 
Q 3406 4025 3406 3419 
Q 3406 3131 3298 2873 
Q 3191 2616 2906 2266 
Q 2828 2175 2409 1742 
Q 1991 1309 1228 531 
z
" transform="scale(0.015625)"/>
       </defs>
       <use xlink:href="#DejaVuSans-31"/>
       <use xlink:href="#DejaVuSans-32" transform="translate(63.623047 0)"/>
      </g>
     </g>
    </g>
    <g id="xtick_6">
     <g id="line2d_6">
      <g>
       <use xlink:href="#m6952b4b1fc" x="297.257702" y="274.940192" style="stroke: #000000; stroke-width: 0.8"/>
      </g>
     </g>
     <g id="text_6">
      <!-- 14 -->
      <g transform="translate(290.895202 289.538629) scale(0.1 -0.1)">
       <use xlink:href="#DejaVuSans-31"/>
       <use xlink:href="#DejaVuSans-34" transform="translate(63.623047 0)"/>
      </g>
     </g>
    </g>
    <g id="xtick_7">
     <g id="line2d_7">
      <g>
       <use xlink:href="#m6952b4b1fc" x="341.292194" y="274.940192" style="stroke: #000000; stroke-width: 0.8"/>
      </g>
     </g>
     <g id="text_7">
      <!-- 16 -->
      <g transform="translate(334.929694 289.538629) scale(0.1 -0.1)">
       <use xlink:href="#DejaVuSans-31"/>
       <use xlink:href="#DejaVuSans-36" transform="translate(63.623047 0)"/>
      </g>
     </g>
    </g>
    <g id="xtick_8">
     <g id="line2d_8">
      <g>
       <use xlink:href="#m6952b4b1fc" x="385.326685" y="274.940192" style="stroke: #000000; stroke-width: 0.8"/>
      </g>
     </g>
     <g id="text_8">
      <!-- 18 -->
      <g transform="translate(378.964185 289.538629) scale(0.1 -0.1)">
       <use xlink:href="#DejaVuSans-31"/>
       <use xlink:href="#DejaVuSans-38" transform="translate(63.623047 0)"/>
      </g>
     </g>
    </g>
    <g id="text_9">
     <!-- |k_xy| (reduced units) -->
     <g transform="translate(168.202969 303.260504) scale(0.1 -0.1)">
      <defs>
       <path id="DejaVuSans-7c" d="M 1344 4891 
L 1344 -1509 
L 813 -1509 
L 813 4891 
L 1344 4891 
z
" transform="scale(0.015625)"/>
       <path id="DejaVuSans-6b" d="M 581 4863 
L 1159 4863 
L 1159 1991 
L 2875 3500 
L 3609 3500 
L 1753 1863 
L 3688 0 
L 2938 0 
L 1159 1709 
L 1159 0 
L 581 0 
L 581 4863 
z
" transform="scale(0.015625)"/>
       <path id="DejaVuSans-5f" d="M 3263 -1063 
L 3263 -1509 
L -63 -1509 
L -63 -1063 
L 3263 -1063 
z
" transform="scale(0.015625)"/>
       <path id="DejaVuSans-78" d="M 3513 3500 
L 2247 1797 
L 3578 0 
L 2900 0 
L 1881 1375 
L 863 0 
L 184 0 
L 1544 1831 
L 300 3500 
L 978 3500 
L 1906 2253 
L 2834 3500 
L 3513 3500 
z
" transform="scale(0.015625)"/>
       <path id="DejaVuSans-79" d="M 2059 -325 
Q 1816 -950 1584 -1140 
Q 1353 -1331 966 -1331 
L 506 -1331 
L 506 -850 
L 844 -850 
Q 1081 -850 1212 -737 
Q 1344 -625 1503 -206 
L 1606 56 
L 191 3500 
L 800 3500 
L 1894 763 
L 2988 3500 
L 3597 3500 
L 2059 -325 
z
" transform="scale(0.015625)"/>
       <path id="DejaVuSans-20" transform="scale(0.015625)"/>
       <path id="DejaVuSans-28" d="M 1984 4856 
Q 1566 4138 1362 3434 
Q 1159 2731 1159 2009 
Q 1159 1288 1364 580 
Q 1569 -128 1984 -844 
L 1484 -844 
Q 1016 -109 783 600 
Q 550 1309 550 2009 
Q 550 2706 781 3412 
Q 1013 4119 1484 4856 
L 1984 4856 
z
" transform="scale(0.015625)"/>
       <path id="DejaVuSans-72" d="M 2631 2963 
Q 2534 3019 2420 3045 
Q 2306 3072 2169 3072 
Q 1681 3072 1420 2755 
Q 1159 2438 1159 1844 
L 1159 0 
L 581 0 
L 581 3500 
L 1159 3500 
L 1159 2956 
Q 1341 3275 1631 3429 
Q 1922 3584 2338 3584 
Q 2397 3584 2469 3576 
Q 2541 3569 2628 3553 
L 2631 2963 
z
" transform="scale(0.015625)"/>
       <path id="DejaVuSans-65" d="M 3597 1894 
L 3597 1613 
L 953 1613 
Q 991 1019 1311 708 
Q 1631 397 2203 397 
Q 2534 397 2845 478 
Q 3156 559 3463 722 
L 3463 178 
Q 3153 47 2828 -22 
Q 2503 -91 2169 -91 
Q 1331 -91 842 396 
Q 353 884 353 1716 
Q 353 2575 817 3079 
Q 1281 3584 2069 3584 
Q 2775 3584 3186 3129 
Q 3597 2675 3597 1894 
z
M 3022 2063 
Q 3016 2534 2758 2815 
Q 2500 3097 2075 3097 
Q 1594 3097 1305 2825 
Q 1016 2553 972 2059 
L 3022 2063 
z
" transform="scale(0.015625)"/>
       <path id="DejaVuSans-64" d="M 2906 2969 
L 2906 4863 
L 3481 4863 
L 3481 0 
L 2906 0 
L 2906 525 
Q 2725 213 2448 61 
Q 2172 -91 1784 -91 
Q 1150 -91 751 415 
Q 353 922 353 1747 
Q 353 2572 751 3078 
Q 1150 3584 1784 3584 
Q 2172 3584 2448 3432 
Q 2725 3281 2906 2969 
z
M 947 1747 
Q 947 1113 1208 752 
Q 1469 391 1925 391 
Q 2381 391 2643 752 
Q 2906 1113 2906 1747 
Q 2906 2381 2643 2742 
Q 2381 3103 1925 3103 
Q 1469 3103 1208 2742 
Q 947 2381 947 1747 
z
" transform="scale(0.015625)"/>
       <path id="DejaVuSans-75" d="M 544 1381 
L 544 3500 
L 1119 3500 
L 1119 1403 
Q 1119 906 1312 657 
Q 1506 409 1894 409 
Q 2359 409 2629 706 
Q 2900 1003 2900 1516 
L 2900 3500 
L 3475 3500 
L 3475 0 
L 2900 0 
L 2900 538 
Q 2691 219 2414 64 
Q 2138 -91 1772 -91 
Q 1169 -91 856 284 
Q 544 659 544 1381 
z
M 1991 3584 
L 1991 3584 
z
" transform="scale(0.015625)"/>
       <path id="DejaVuSans-63" d="M 3122 3366 
L 3122 2828 
Q 2878 2963 2633 3030 
Q 2388 3097 2138 3097 
Q 1578 3097 1268 2742 
Q 959 2388 959 1747 
Q 959 1106 1268 751 
Q 1578 397 2138 397 
Q 2388 397 2633 464 
Q 2878 531 3122 666 
L 3122 134 
Q 2881 22 2623 -34 
Q 2366 -91 2075 -91 
Q 1284 -91 818 406 
Q 353 903 353 1747 
Q 353 2603 823 3093 
Q 1294 3584 2113 3584 
Q 2378 3584 2631 3529 
Q 2884 3475 3122 3366 
z
" transform="scale(0.015625)"/>
       <path id="DejaVuSans-6e" d="M 3513 2113 
L 3513 0 
L 2938 0 
L 2938 2094 
Q 2938 2591 2744 2837 
Q 2550 3084 2163 3084 
Q 1697 3084 1428 2787 
Q 1159 2491 1159 1978 
L 1159 0 
L 581 0 
L 581 3500 
L 1159 3500 
L 1159 2956 
Q 1366 3272 1645 3428 
Q 1925 3584 2291 3584 
Q 2894 3584 3203 3211 
Q 3513 2838 3513 2113 
z
" transform="scale(0.015625)"/>
       <path id="DejaVuSans-69" d="M 603 3500 
L 1178 3500 
L 1178 0 
L 603 0 
L 603 3500 
z
M 603 4863 
L 1178 4863 
L 1178 4134 
L 603 4134 
L 603 4863 
z
" transform="scale(0.015625)"/>
       <path id="DejaVuSans-74" d="M 1172 4494 
L 1172 3500 
L 2356 3500 
L 2356 3053 
L 1172 3053 
L 1172 1153 
Q 1172 725 1289 603 
Q 1406 481 1766 481 
L 2356 481 
L 2356 0 
L 1766 0 
Q 1100 0 847 248 
Q 594 497 594 1153 
L 594 3053 
L 172 3053 
L 172 3500 
L 594 3500 
L 594 4494 
L 1172 4494 
z
" transform="scale(0.015625)"/>
       <path id="DejaVuSans-73" d="M 2834 3397 
L 2834 2853 
Q 2591 2978 2328 3040 
Q 2066 3103 1784 3103 
Q 1356 3103 1142 2972 
Q 928 2841 928 2578 
Q 928 2378 1081 2264 
Q 1234 2150 1697 2047 
L 1894 2003 
Q 2506 1872 2764 1633 
Q 3022 1394 3022 966 
Q 3022 478 2636 193 
Q 2250 -91 1575 -91 
Q 1294 -91 989 -36 
Q 684 19 347 128 
L 347 722 
Q 666 556 975 473 
Q 1284 391 1588 391 
Q 1994 391 2212 530 
Q 2431 669 2431 922 
Q 2431 1156 2273 1281 
Q 2116 1406 1581 1522 
L 1381 1569 
Q 847 1681 609 1914 
Q 372 2147 372 2553 
Q 372 3047 722 3315 
Q 1072 3584 1716 3584 
Q 2034 3584 2315 3537 
Q 2597 3491 2834 3397 
z
" transform="scale(0.015625)"/>
       <path id="DejaVuSans-29" d="M 513 4856 
L 1013 4856 
Q 1481 4119 1714 3412 
Q 1947 2706 1947 2009 
Q 1947 1309 1714 600 
Q 1481 -109 1013 -844 
L 513 -844 
Q 928 -128 1133 580 
Q 1338 1288 1338 2009 
Q 1338 2731 1133 3434 
Q 928 4138 513 4856 
z
" transform="scale(0.015625)"/>
      </defs>
      <use xlink:href="#DejaVuSans-7c"/>
      <use xlink:href="#DejaVuSans-6b" transform="translate(33.691406 0)"/>
      <use xlink:href="#DejaVuSans-5f" transform="translate(91.601562 0)"/>
      <use xlink:href="#DejaVuSans-78" transform="translate(141.601562 0)"/>
      <use xlink:href="#DejaVuSans-79" transform="translate(200.78125 0)"/>
      <use xlink:href="#DejaVuSans-7c" transform="translate(259.960938 0)"/>
      <use xlink:href="#DejaVuSans-20" transform="translate(293.652344 0)"/>
      <use xlink:href="#DejaVuSans-28" transform="translate(325.439453 0)"/>
      <use xlink:href="#DejaVuSans-72" transform="translate(364.453125 0)"/>
      <use xlink:href="#DejaVuSans-65" transform="translate(403.316406 0)"/>
      <use xlink:href="#DejaVuSans-64" transform="translate(464.839844 0)"/>
      <use xlink:href="#DejaVuSans-75" transform="translate(528.316406 0)"/>
      <use xlink:href="#DejaVuSans-63" transform="translate(591.695312 0)"/>
      <use xlink:href="#DejaVuSans-65" transform="translate(646.675781 0)"/>
      <use xlink:href="#DejaVuSans-64" transform="translate(708.199219 0)"/>
      <use xlink:href="#DejaVuSans-20" transform="translate(771.675781 0)"/>
      <use xlink:href="#DejaVuSans-75" transform="translate(803.462891 0)"/>
      <use xlink:href="#DejaVuSans-6e" transform="translate(866.841797 0)"/>
      <use xlink:href="#DejaVuSans-69" transform="translate(930.220703 0)"/>
      <use xlink:href="#DejaVuSans-74" transform="translate(958.003906 0)"/>
      <use xlink:href="#DejaVuSans-73" transform="translate(997.212891 0)"/>
      <use xlink:href="#DejaVuSans-29" transform="translate(1049.3125 0)"/>
     </g>
    </g>
   </g>
   <g id="matplotlib.axis_2">
    <g id="ytick_1">
     <g id="line2d_9">
      <defs>
       <path id="m09c83729fe" d="M 0 0 
L -3.5 0 
" style="stroke: #000000; stroke-width: 0.8"/>
      </defs>
      <g>
       <use xlink:href="#m09c83729fe" x="44.059375" y="274.940192" style="stroke: #000000; stroke-width: 0.8"/>
      </g>
     </g>
     <g id="text_10">
      <!-- 0.0 -->
      <g transform="translate(21.15625 278.73941) scale(0.1 -0.1)">
       <defs>
        <path id="DejaVuSans-2e" d="M 684 794 
L 1344 794 
L 1344 0 
L 684 0 
L 684 794 
z
" transform="scale(0.015625)"/>
       </defs>
       <use xlink:href="#DejaVuSans-30"/>
       <use xlink:href="#DejaVuSans-2e" transform="translate(63.623047 0)"/>
       <use xlink:href="#DejaVuSans-30" transform="translate(95.410156 0)"/>
      </g>
     </g>
    </g>
    <g id="ytick_2">
     <g id="line2d_10">
      <g>
       <use xlink:href="#m09c83729fe" x="44.059375" y="237.234338" style="stroke: #000000; stroke-width: 0.8"/>
      </g>
     </g>
     <g id="text_11">
      <!-- 0.2 -->
      <g transform="translate(21.15625 241.033557) scale(0.1 -0.1)">
       <use xlink:href="#DejaVuSans-30"/>
       <use xlink:href="#DejaVuSans-2e" transform="translate(63.623047 0)"/>
       <use xlink:href="#DejaVuSans-32" transform="translate(95.410156 0)"/>
      </g>
     </g>
    </g>
    <g id="ytick_3">
     <g id="line2d_11">
      <g>
       <use xlink:href="#m09c83729fe" x="44.059375" y="199.528485" style="stroke: #000000; stroke-width: 0.8"/>
      </g>
     </g>
     <g id="text_12">
      <!-- 0.4 -->
      <g transform="translate(21.15625 203.327704) scale(0.1 -0.1)">
       <use xlink:href="#DejaVuSans-30"/>
       <use xlink:href="#DejaVuSans-2e" transform="translate(63.623047 0)"/>
       <use xlink:href="#DejaVuSans-34" transform="translate(95.410156 0)"/>
      </g>
     </g>
    </g>
    <g id="ytick_4">
     <g id="line2d_12">
      <g>
       <use xlink:href="#m09c83729fe" x="44.059375" y="161.822632" style="stroke: #000000; stroke-width: 0.8"/>
      </g>
     </g>
     <g id="text_13">
      <!-- 0.6 -->
      <g transform="translate(21.15625 165.621851) scale(0.1 -0.1)">
       <use xlink:href="#DejaVuSans-30"/>
       <use xlink:href="#DejaVuSans-2e" transform="translate(63.623047 0)"/>
       <use xlink:href="#DejaVuSans-36" transform="translate(95.410156 0)"/>
      </g>
     </g>
    </g>
    <g id="ytick_5">
     <g id="line2d_13">
      <g>
       <use xlink:href="#m09c83729fe" x="44.059375" y="124.116779" style="stroke: #000000; stroke-width: 0.8"/>
      </g>
     </g>
     <g id="text_14">
      <!-- 0.8 -->
      <g transform="translate(21.15625 127.915997) scale(0.1 -0.1)">
       <use xlink:href="#DejaVuSans-30"/>
       <use xlink:href="#DejaVuSans-2e" transform="translate(63.623047 0)"/>
       <use xlink:href="#DejaVuSans-38" transform="translate(95.410156 0)"/>
      </g>
     </g>
    </g>
    <g id="ytick_6">
     <g id="line2d_14">
      <g>
       <use xlink:href="#m09c83729fe" x="44.059375" y="86.410925" style="stroke: #000000; stroke-width: 0.8"/>
      </g>
     </g>
     <g id="text_15">
      <!-- 1.0 -->
      <g transform="translate(21.15625 90.210144) scale(0.1 -0.1)">
       <use xlink:href="#DejaVuSans-31"/>
       <use xlink:href="#DejaVuSans-2e" transform="translate(63.623047 0)"/>
       <use xlink:href="#DejaVuSans-30" transform="translate(95.410156 0)"/>
      </g>
     </g>
    </g>
    <g id="ytick_7">
     <g id="line2d_15">
      <g>
       <use xlink:href="#m09c83729fe" x="44.059375" y="48.705072" style="stroke: #000000; stroke-width: 0.8"/>
      </g>
     </g>
     <g id="text_16">
      <!-- 1.2 -->
      <g transform="translate(21.15625 52.504291) scale(0.1 -0.1)">
       <use xlink:href="#DejaVuSans-31"/>
       <use xlink:href="#DejaVuSans-2e" transform="translate(63.623047 0)"/>
       <use xlink:href="#DejaVuSans-32" transform="translate(95.410156 0)"/>
      </g>
     </g>
    </g>
    <g id="ytick_8">
     <g id="line2d_16">
      <g>
       <use xlink:href="#m09c83729fe" x="44.059375" y="10.999219" style="stroke: #000000; stroke-width: 0.8"/>
      </g>
     </g>
     <g id="text_17">
      <!-- 1.4 -->
      <g transform="translate(21.15625 14.798437) scale(0.1 -0.1)">
       <use xlink:href="#DejaVuSans-31"/>
       <use xlink:href="#DejaVuSans-2e" transform="translate(63.623047 0)"/>
       <use xlink:href="#DejaVuSans-34" transform="translate(95.410156 0)"/>
      </g>
     </g>
    </g>
    <g id="text_18">
     <!-- S_xy(k) -->
     <g transform="translate(14.798437 160.274035) rotate(-90) scale(0.1 -0.1)">
      <defs>
       <path id="DejaVuSans-53" d="M 3425 4513 
L 3425 3897 
Q 3066 4069 2747 4153 
Q 2428 4238 2131 4238 
Q 1616 4238 1336 4038 
Q 1056 3838 1056 3469 
Q 1056 3159 1242 3001 
Q 1428 2844 1947 2747 
L 2328 2669 
Q 3034 2534 3370 2195 
Q 3706 1856 3706 1288 
Q 3706 609 3251 259 
Q 2797 -91 1919 -91 
Q 1588 -91 1214 -16 
Q 841 59 441 206 
L 441 856 
Q 825 641 1194 531 
Q 1563 422 1919 422 
Q 2459 422 2753 634 
Q 3047 847 3047 1241 
Q 3047 1584 2836 1778 
Q 2625 1972 2144 2069 
L 1759 2144 
Q 1053 2284 737 2584 
Q 422 2884 422 3419 
Q 422 4038 858 4394 
Q 1294 4750 2059 4750 
Q 2388 4750 2728 4690 
Q 3069 4631 3425 4513 
z
" transform="scale(0.015625)"/>
      </defs>
      <use xlink:href="#DejaVuSans-53"/>
      <use xlink:href="#DejaVuSans-5f" transform="translate(63.476562 0)"/>
      <use xlink:href="#DejaVuSans-78" transform="translate(113.476562 0)"/>
      <use xlink:href="#DejaVuSans-79" transform="translate(172.65625 0)"/>
      <use xlink:href="#DejaVuSans-28" transform="translate(231.835938 0)"/>
      <use xlink:href="#DejaVuSans-6b" transform="translate(270.849609 0)"/>
      <use xlink:href="#DejaVuSans-29" transform="translate(328.759766 0)"/>
     </g>
    </g>
   </g>
   <g id="line2d_17">
    <path d="M 8.445816 187.603293 
L 16.493801 177.712374 
L 27.875371 221.229102 
L 32.462067 217.457014 
L 43.971342 224.074298 
L 47.304927 229.880775 
L 50.45791 207.164966 
L 59.070519 196.690797 
L 66.734483 211.41013 
L 69.12637 242.809509 
L 71.448883 157.607178 
L 75.907874 211.938587 
L 86.164038 193.544334 
L 88.087943 236.197799 
L 93.647619 198.676573 
L 98.926424 150.179684 
L 102.309064 207.302706 
L 105.593594 198.19718 
L 107.201633 200.230155 
L 111.899559 191.774609 
L 113.426118 139.682709 
L 119.353681 217.15506 
L 125.023149 192.618482 
L 126.403965 150.68456 
L 129.124778 191.713966 
L 130.46556 212.284948 
L 136.987347 181.240177 
L 140.76594 220.63991 
L 144.452705 205.699949 
L 145.662345 186.094055 
L 149.23648 207.514209 
L 153.881506 212.825257 
L 155.022456 194.13051 
L 156.155617 201.704686 
L 162.799488 229.340945 
L 163.88226 187.163373 
L 164.958369 211.270961 
L 168.147912 194.885947 
L 172.314321 216.236019 
L 173.341209 229.416815 
L 180.37519 227.682815 
L 181.359047 240.930477 
L 183.311816 208.509204 
L 184.280877 200.862664 
L 187.159626 207.58706 
L 189.055778 243.11377 
L 191.866776 208.083665 
L 195.555269 180.536626 
L 198.278978 197.068586 
L 199.179037 205.954853 
L 202.741371 195.604036 
L 203.622716 192.372734 
L 206.245295 189.416126 
L 208.836588 200.441795 
L 210.547278 198.532367 
L 215.601868 191.255938 
L 216.433377 180.319478 
L 222.170927 233.054961 
L 222.979091 174.200171 
L 223.784473 180.600377 
L 225.387005 204.99069 
L 226.184211 183.897823 
L 229.34659 220.281369 
L 232.467894 132.410221 
L 234.782858 205.031865 
L 236.314129 191.523605 
L 237.835977 164.278817 
L 241.600482 187.514294 
L 242.346671 221.107085 
L 244.572164 217.948826 
L 248.238864 177.206712 
L 249.691102 196.736663 
L 250.414196 205.419851 
L 253.286787 225.269268 
L 258.940273 191.60286 
L 259.638654 167.095141 
L 261.030038 199.205364 
L 261.723068 207.30142 
L 263.79167 174.667223 
L 265.16213 220.670902 
L 267.20516 205.826289 
L 269.233296 204.464652 
L 271.914859 180.156499 
L 275.89021 216.780907 
L 277.857369 209.84761 
L 280.459594 201.142465 
L 281.106528 205.280136 
L 283.038789 184.976461 
L 284.958434 235.312599 
L 285.595554 197.336567 
L 286.231309 211.596103 
L 290.644075 191.933419 
L 291.269211 213.566063 
L 292.51562 212.107501 
L 293.136909 226.948207 
L 296.224508 200.016024 
L 302.30843 217.926345 
L 302.910337 185.512165 
L 305.306509 200.958735 
L 307.684665 191.863838 
L 310.632632 220.135413 
L 312.388512 193.479171 
L 318.746752 179.43542 
L 319.318705 206.150776 
L 319.889669 178.531898 
L 323.294974 192.458896 
L 328.894672 127.720912 
L 332.760188 175.040901 
L 334.949662 180.066791 
L 339.287554 192.364553 
L 346.224293 222.72834 
L 347.279563 203.943129 
L 350.426885 206.025146 
L 360.217398 182.210264 
L 362.245835 221.06769 
L 373.701834 205.854079 
L 374.681926 208.340622 
L 387.67741 225.989002 
L 401.179375 223.852362 
" clip-path="url(#pafdf458f42)" style="fill: none; stroke: #ff7f0e; stroke-width: 1.5; stroke-linecap: square"/>
   </g>
   <g id="line2d_18">
    <path d="M 44.059375 86.410925 
L 401.179375 86.410925 
" clip-path="url(#pafdf458f42)" style="fill: none; stroke-dasharray: 5.55,2.4; stroke-dashoffset: 0; stroke: #000000; stroke-opacity: 0.4; stroke-width: 1.5"/>
   </g>
   <g id="patch_3">
    <path d="M 44.059375 274.940192 
L 44.059375 8.828192 
" style="fill: none; stroke: #000000; stroke-width: 0.8; stroke-linejoin: miter; stroke-linecap: square"/>
   </g>
   <g id="patch_4">
    <path d="M 401.179375 274.940192 
L 401.179375 8.828192 
" style="fill: none; stroke: #000000; stroke-width: 0.8; stroke-linejoin: miter; stroke-linecap: square"/>
   </g>
   <g id="patch_5">
    <path d="M 44.059375 274.940192 
L 401.179375 274.940192 
" style="fill: none; stroke: #000000; stroke-width: 0.8; stroke-linejoin: miter; stroke-linecap: square"/>
   </g>
   <g id="patch_6">
    <path d="M 44.059375 8.828192 
L 401.179375 8.828192 
" style="fill: none; stroke: #000000; stroke-width: 0.8; stroke-linejoin: miter; stroke-linecap: square"/>
   </g>
   <g id="legend_1">
    <g id="patch_7">
     <path d="M 51.059375 46.184442 
L 117.220313 46.184442 
Q 119.220313 46.184442 119.220313 44.184442 
L 119.220313 15.828192 
Q 119.220313 13.828192 117.220313 13.828192 
L 51.059375 13.828192 
Q 49.059375 13.828192 49.059375 15.828192 
L 49.059375 44.184442 
Q 49.059375 46.184442 51.059375 46.184442 
z
" style="fill: #ffffff; opacity: 0.8; stroke: #cccccc; stroke-linejoin: miter"/>
    </g>
    <g id="line2d_19">
     <path d="M 53.059375 21.926629 
L 63.059375 21.926629 
L 73.059375 21.926629 
" style="fill: none; stroke: #ff7f0e; stroke-width: 1.5; stroke-linecap: square"/>
    </g>
    <g id="text_19">
     <!-- Mean -->
     <g transform="translate(81.059375 25.426629) scale(0.1 -0.1)">
      <defs>
       <path id="DejaVuSans-4d" d="M 628 4666 
L 1569 4666 
L 2759 1491 
L 3956 4666 
L 4897 4666 
L 4897 0 
L 4281 0 
L 4281 4097 
L 3078 897 
L 2444 897 
L 1241 4097 
L 1241 0 
L 628 0 
L 628 4666 
z
" transform="scale(0.015625)"/>
       <path id="DejaVuSans-61" d="M 2194 1759 
Q 1497 1759 1228 1600 
Q 959 1441 959 1056 
Q 959 750 1161 570 
Q 1363 391 1709 391 
Q 2188 391 2477 730 
Q 2766 1069 2766 1631 
L 2766 1759 
L 2194 1759 
z
M 3341 1997 
L 3341 0 
L 2766 0 
L 2766 531 
Q 2569 213 2275 61 
Q 1981 -91 1556 -91 
Q 1019 -91 701 211 
Q 384 513 384 1019 
Q 384 1609 779 1909 
Q 1175 2209 1959 2209 
L 2766 2209 
L 2766 2266 
Q 2766 2663 2505 2880 
Q 2244 3097 1772 3097 
Q 1472 3097 1187 3025 
Q 903 2953 641 2809 
L 641 3341 
Q 956 3463 1253 3523 
Q 1550 3584 1831 3584 
Q 2591 3584 2966 3190 
Q 3341 2797 3341 1997 
z
" transform="scale(0.015625)"/>
      </defs>
      <use xlink:href="#DejaVuSans-4d"/>
      <use xlink:href="#DejaVuSans-65" transform="translate(86.279297 0)"/>
      <use xlink:href="#DejaVuSans-61" transform="translate(147.802734 0)"/>
      <use xlink:href="#DejaVuSans-6e" transform="translate(209.082031 0)"/>
     </g>
    </g>
    <g id="patch_8">
     <path d="M 53.059375 40.104754 
L 73.059375 40.104754 
L 73.059375 33.104754 
L 53.059375 33.104754 
z
" style="fill: #ff7f0e; fill-opacity: 0.3; stroke: #ff7f0e; stroke-opacity: 0.3; stroke-linejoin: miter"/>
    </g>
    <g id="text_20">
     <!-- Std Err -->
     <g transform="translate(81.059375 40.104754) scale(0.1 -0.1)">
      <defs>
       <path id="DejaVuSans-45" d="M 628 4666 
L 3578 4666 
L 3578 4134 
L 1259 4134 
L 1259 2753 
L 3481 2753 
L 3481 2222 
L 1259 2222 
L 1259 531 
L 3634 531 
L 3634 0 
L 628 0 
L 628 4666 
z
" transform="scale(0.015625)"/>
      </defs>
      <use xlink:href="#DejaVuSans-53"/>
      <use xlink:href="#DejaVuSans-74" transform="translate(63.476562 0)"/>
      <use xlink:href="#DejaVuSans-64" transform="translate(102.685547 0)"/>
      <use xlink:href="#DejaVuSans-20" transform="translate(166.162109 0)"/>
      <use xlink:href="#DejaVuSans-45" transform="translate(197.949219 0)"/>
      <use xlink:href="#DejaVuSans-72" transform="translate(261.132812 0)"/>
      <use xlink:href="#DejaVuSans-72" transform="translate(300.496094 0)"/>
     </g>
    </g>
   </g>
  </g>
 </g>
 <defs>
  <clipPath id="pafdf458f42">
   <rect x="44.059375" y="8.828192" width="357.12" height="266.112"/>
  </clipPath>
 </defs>
</svg>
