<?xml version="1.0" encoding="utf-8" standalone="no"?>
<!DOCTYPE svg PUBLIC "-//W3C//DTD SVG 1.1//EN"
  "http://www.w3.org/Graphics/SVG/1.1/DTD/svg11.dtd">
<svg xmlns:xlink="http://www.w3.org/1999/xlink" width="408.368437pt" height="311.146375pt" viewBox="0 0 408.368437 311.146375" xmlns="http://www.w3.org/2000/svg" version="1.1">
 <metadata>
  <rdf:RDF xmlns:dc="http://purl.org/dc/elements/1.1/" xmlns:cc="http://creativecommons.org/ns#" xmlns:rdf="http://www.w3.org/1999/02/22-rdf-syntax-ns#">
   <cc:Work>
    <dc:type rdf:resource="http://purl.org/dc/dcmitype/StillImage"/>
    <dc:date>2025-12-11T12:21:04.619677</dc:date>
    <dc:format>image/svg+xml</dc:format>
    <dc:creator>
     <cc:Agent>
      <dc:title>Matplotlib v3.10.5, https://matplotlib.org/</dc:title>
     </cc:Agent>
    </dc:creator>
   </cc:Work>
  </rdf:RDF>
 </metadata>
 <defs>
  <style type="text/css">*{stroke-linejoin: round; stroke-linecap: butt}</style>
 </defs>
 <g id="figure_1">
  <g id="patch_1">
   <path d="M 0 311.146375 
L 408.368437 311.146375 
L 408.368437 0 
L 0 0 
z
" style="fill: #ffffff"/>
  </g>
  <g id="axes_1">
   <g id="patch_2">
    <path d="M 44.048438 273.312 
L 401.168437 273.312 
L 401.168437 7.2 
L 44.048438 7.2 
z
" style="fill: #ffffff"/>
   </g>
   <g id="FillBetweenPolyCollection_1">
    <defs>
     <path id="m2d4759514c" d="M 60.281165 -49.930375 
L 60.281165 -49.930375 
L 62.115371 -49.930375 
L 63.949578 -49.930375 
L 65.783784 -49.930375 
L 67.617991 -49.930375 
L 69.452197 -49.930375 
L 71.286404 -49.930375 
L 73.12061 -49.930375 
L 74.954817 -49.930375 
L 76.789023 -49.930375 
L 78.623229 -49.930375 
L 80.457436 -49.930375 
L 82.291642 -49.930375 
L 84.125849 -49.930375 
L 85.960055 -49.930375 
L 87.794262 -49.930375 
L 89.628468 -49.930375 
L 91.462675 -49.930375 
L 93.296881 -49.930375 
L 95.131088 -49.930375 
L 96.965294 -49.930375 
L 98.799501 -49.930375 
L 100.633707 -49.930375 
L 102.467914 -49.930375 
L 104.30212 -49.930375 
L 106.136327 -49.930375 
L 107.970533 -49.930375 
L 109.80474 -49.930375 
L 111.638946 -49.930375 
L 113.473152 -49.930375 
L 115.307359 -49.930375 
L 117.141565 -49.930375 
L 118.975772 -49.930375 
L 120.809978 -49.930375 
L 122.644185 -49.930375 
L 124.478391 -49.930375 
L 126.312598 -49.930375 
L 128.146804 -49.930375 
L 129.981011 -49.930375 
L 131.815217 -49.930375 
L 133.649424 -49.930375 
L 135.48363 -49.930375 
L 137.317837 -49.930375 
L 139.152043 -49.930375 
L 140.98625 -55.570728 
L 142.820456 -54.684523 
L 144.654662 -80.677045 
L 146.488869 -89.565541 
L 148.323075 -111.229056 
L 150.157282 -151.260983 
L 151.991488 -181.500026 
L 153.825695 -201.663958 
L 155.659901 -257.587051 
L 157.494108 -239.964 
L 159.328314 -228.63431 
L 161.162521 -209.714879 
L 162.996727 -231.913446 
L 164.830934 -198.476181 
L 166.66514 -195.097795 
L 168.499347 -187.044487 
L 170.333553 -164.075947 
L 172.16776 -135.270144 
L 174.001966 -127.707557 
L 175.836172 -120.860565 
L 177.670379 -116.823413 
L 179.504585 -110.136142 
L 181.338792 -88.145619 
L 183.172998 -98.788933 
L 185.007205 -89.797763 
L 186.841411 -83.515104 
L 188.675618 -83.179268 
L 190.509824 -76.232553 
L 192.344031 -76.58743 
L 194.178237 -73.653736 
L 196.012444 -73.91343 
L 197.84665 -74.324345 
L 199.680857 -72.260617 
L 201.515063 -68.456996 
L 203.34927 -68.496857 
L 205.183476 -73.777307 
L 207.017682 -73.216695 
L 208.851889 -67.158447 
L 210.686095 -77.419471 
L 212.520302 -76.601123 
L 214.354508 -85.873374 
L 216.188715 -86.435695 
L 218.022921 -94.926078 
L 219.857128 -103.965147 
L 221.691334 -93.199879 
L 223.525541 -122.286121 
L 225.359747 -117.442567 
L 227.193954 -129.753726 
L 229.02816 -131.191262 
L 230.862367 -135.498761 
L 232.696573 -132.78557 
L 234.53078 -148.009801 
L 236.364986 -144.663646 
L 238.199193 -149.653519 
L 240.033399 -141.963533 
L 241.867605 -129.869875 
L 243.701812 -135.471671 
L 245.536018 -129.334402 
L 247.370225 -127.916132 
L 249.204431 -108.142773 
L 251.038638 -120.799053 
L 252.872844 -113.180469 
L 254.707051 -108.41869 
L 256.541257 -96.0317 
L 258.375464 -90.490048 
L 260.20967 -87.727897 
L 262.043877 -88.202005 
L 263.878083 -97.485374 
L 265.71229 -92.296649 
L 267.546496 -86.097125 
L 269.380703 -84.172372 
L 271.214909 -86.97774 
L 273.049115 -80.314456 
L 274.883322 -84.082061 
L 276.717528 -92.45938 
L 278.551735 -88.500722 
L 280.385941 -94.245821 
L 282.220148 -101.053018 
L 284.054354 -101.008519 
L 285.888561 -99.291422 
L 287.722767 -95.614756 
L 289.556974 -114.108605 
L 291.39118 -117.807478 
L 293.225387 -116.334907 
L 295.059593 -117.020688 
L 296.8938 -129.011971 
L 298.728006 -122.498074 
L 300.562213 -139.26645 
L 302.396419 -135.665745 
L 304.230625 -130.498284 
L 306.064832 -124.703978 
L 307.899038 -136.446222 
L 309.733245 -134.28344 
L 311.567451 -132.724458 
L 313.401658 -126.572386 
L 315.235864 -128.842209 
L 317.070071 -133.596415 
L 318.904277 -123.883815 
L 320.738484 -114.480842 
L 322.57269 -114.290041 
L 324.406897 -101.915178 
L 326.241103 -100.983889 
L 328.07531 -100.682233 
L 329.909516 -101.816872 
L 331.743723 -97.671813 
L 333.577929 -102.519313 
L 335.412135 -102.671672 
L 337.246342 -97.195332 
L 339.080548 -98.90437 
L 340.914755 -97.937612 
L 342.748961 -100.619565 
L 344.583168 -93.461719 
L 346.417374 -91.740918 
L 348.251581 -92.211602 
L 350.085787 -93.613768 
L 351.919994 -101.476507 
L 353.7542 -87.197621 
L 355.588407 -99.140532 
L 357.422613 -106.118457 
L 359.25682 -104.501816 
L 361.091026 -98.475999 
L 362.925233 -102.212571 
L 364.759439 -106.323227 
L 366.593646 -99.52156 
L 368.427852 -103.903488 
L 370.262058 -98.838347 
L 372.096265 -102.086869 
L 373.930471 -98.836087 
L 375.764678 -99.497229 
L 377.598884 -112.213119 
L 379.433091 -118.697172 
L 381.267297 -113.480453 
L 383.101504 -123.412589 
L 384.93571 -127.577931 
L 384.93571 -137.084297 
L 384.93571 -137.084297 
L 383.101504 -129.36183 
L 381.267297 -128.309329 
L 379.433091 -129.201733 
L 377.598884 -126.077023 
L 375.764678 -111.69683 
L 373.930471 -110.803211 
L 372.096265 -113.964991 
L 370.262058 -111.638911 
L 368.427852 -115.726103 
L 366.593646 -105.823939 
L 364.759439 -111.463907 
L 362.925233 -117.185111 
L 361.091026 -106.932377 
L 359.25682 -109.821297 
L 357.422613 -113.822034 
L 355.588407 -107.769889 
L 353.7542 -97.502984 
L 351.919994 -107.959901 
L 350.085787 -101.316061 
L 348.251581 -100.90627 
L 346.417374 -101.40008 
L 344.583168 -108.824076 
L 342.748961 -103.18048 
L 340.914755 -113.123437 
L 339.080548 -110.963094 
L 337.246342 -107.424498 
L 335.412135 -110.402881 
L 333.577929 -113.4383 
L 331.743723 -113.06175 
L 329.909516 -118.859372 
L 328.07531 -114.768555 
L 326.241103 -115.693767 
L 324.406897 -119.086587 
L 322.57269 -127.67949 
L 320.738484 -123.202947 
L 318.904277 -134.892778 
L 317.070071 -139.382987 
L 315.235864 -141.570923 
L 313.401658 -139.163388 
L 311.567451 -143.519912 
L 309.733245 -141.076655 
L 307.899038 -153.601977 
L 306.064832 -137.757773 
L 304.230625 -150.590415 
L 302.396419 -154.510762 
L 300.562213 -151.88358 
L 298.728006 -133.584113 
L 296.8938 -137.546985 
L 295.059593 -148.512323 
L 293.225387 -129.085012 
L 291.39118 -136.479742 
L 289.556974 -123.103069 
L 287.722767 -108.472027 
L 285.888561 -115.140797 
L 284.054354 -106.128632 
L 282.220148 -108.461293 
L 280.385941 -103.159445 
L 278.551735 -94.41311 
L 276.717528 -101.599126 
L 274.883322 -101.511032 
L 273.049115 -100.311638 
L 271.214909 -107.976565 
L 269.380703 -102.122043 
L 267.546496 -100.400216 
L 265.71229 -99.946452 
L 263.878083 -104.089571 
L 262.043877 -100.589726 
L 260.20967 -99.87883 
L 258.375464 -104.182705 
L 256.541257 -104.169044 
L 254.707051 -116.990015 
L 252.872844 -129.369525 
L 251.038638 -137.938901 
L 249.204431 -126.049798 
L 247.370225 -132.592793 
L 245.536018 -138.119185 
L 243.701812 -141.894267 
L 241.867605 -141.73437 
L 240.033399 -151.625081 
L 238.199193 -167.634432 
L 236.364986 -161.210148 
L 234.53078 -175.379519 
L 232.696573 -150.31893 
L 230.862367 -149.596993 
L 229.02816 -154.025573 
L 227.193954 -139.335601 
L 225.359747 -126.531129 
L 223.525541 -133.477908 
L 221.691334 -109.979729 
L 219.857128 -113.959604 
L 218.022921 -98.149027 
L 216.188715 -94.39795 
L 214.354508 -94.81393 
L 212.520302 -88.684691 
L 210.686095 -88.342263 
L 208.851889 -80.943582 
L 207.017682 -84.570138 
L 205.183476 -82.568007 
L 203.34927 -80.98345 
L 201.515063 -82.265154 
L 199.680857 -90.006508 
L 197.84665 -79.824923 
L 196.012444 -88.627675 
L 194.178237 -79.712925 
L 192.344031 -84.055927 
L 190.509824 -86.42249 
L 188.675618 -92.126275 
L 186.841411 -100.95258 
L 185.007205 -102.000593 
L 183.172998 -123.565832 
L 181.338792 -120.264605 
L 179.504585 -150.21229 
L 177.670379 -139.398104 
L 175.836172 -153.476937 
L 174.001966 -153.592874 
L 172.16776 -159.720846 
L 170.333553 -177.600486 
L 168.499347 -204.406726 
L 166.66514 -222.350557 
L 164.830934 -228.668289 
L 162.996727 -273.471078 
L 161.162521 -240.905126 
L 159.328314 -270.164075 
L 157.494108 -291.850375 
L 155.659901 -285.030501 
L 153.825695 -236.59013 
L 151.991488 -192.38147 
L 150.157282 -171.957155 
L 148.323075 -132.550962 
L 146.488869 -107.796763 
L 144.654662 -92.110001 
L 142.820456 -60.071502 
L 140.98625 -57.749191 
L 139.152043 -51.51756 
L 137.317837 -49.930375 
L 135.48363 -49.930375 
L 133.649424 -49.930375 
L 131.815217 -49.930375 
L 129.981011 -49.930375 
L 128.146804 -49.930375 
L 126.312598 -49.930375 
L 124.478391 -49.930375 
L 122.644185 -49.930375 
L 120.809978 -49.930375 
L 118.975772 -49.930375 
L 117.141565 -49.930375 
L 115.307359 -49.930375 
L 113.473152 -49.930375 
L 111.638946 -49.930375 
L 109.80474 -49.930375 
L 107.970533 -49.930375 
L 106.136327 -49.930375 
L 104.30212 -49.930375 
L 102.467914 -49.930375 
L 100.633707 -49.930375 
L 98.799501 -49.930375 
L 96.965294 -49.930375 
L 95.131088 -49.930375 
L 93.296881 -49.930375 
L 91.462675 -49.930375 
L 89.628468 -49.930375 
L 87.794262 -49.930375 
L 85.960055 -49.930375 
L 84.125849 -49.930375 
L 82.291642 -49.930375 
L 80.457436 -49.930375 
L 78.623229 -49.930375 
L 76.789023 -49.930375 
L 74.954817 -49.930375 
L 73.12061 -49.930375 
L 71.286404 -49.930375 
L 69.452197 -49.930375 
L 67.617991 -49.930375 
L 65.783784 -49.930375 
L 63.949578 -49.930375 
L 62.115371 -49.930375 
L 60.281165 -49.930375 
z
" style="stroke: #ff7f0e; stroke-opacity: 0.3"/>
    </defs>
    <g clip-path="url(#p6edd4dae1d)">
     <use xlink:href="#m2d4759514c" x="0" y="311.146375" style="fill: #ff7f0e; fill-opacity: 0.3; stroke: #ff7f0e; stroke-opacity: 0.3"/>
    </g>
   </g>
   <g id="matplotlib.axis_1">
    <g id="xtick_1">
     <g id="line2d_1">
      <defs>
       <path id="m71c450d274" d="M 0 0 
L 0 3.5 
" style="stroke: #000000; stroke-width: 0.8"/>
      </defs>
      <g>
       <use xlink:href="#m71c450d274" x="59.364062" y="273.312" style="stroke: #000000; stroke-width: 0.8"/>
      </g>
     </g>
     <g id="text_1">
      <!-- 0.0 -->
      <g transform="translate(51.412499 287.910437) scale(0.1 -0.1)">
       <defs>
        <path id="DejaVuSans-30" d="M 2034 4250 
Q 1547 4250 1301 3770 
Q 1056 3291 1056 2328 
Q 1056 1369 1301 889 
Q 1547 409 2034 409 
Q 2525 409 2770 889 
Q 3016 1369 3016 2328 
Q 3016 3291 2770 3770 
Q 2525 4250 2034 4250 
z
M 2034 4750 
Q 2819 4750 3233 4129 
Q 3647 3509 3647 2328 
Q 3647 1150 3233 529 
Q 2819 -91 2034 -91 
Q 1250 -91 836 529 
Q 422 1150 422 2328 
Q 422 3509 836 4129 
Q 1250 4750 2034 4750 
z
" transform="scale(0.015625)"/>
        <path id="DejaVuSans-2e" d="M 684 794 
L 1344 794 
L 1344 0 
L 684 0 
L 684 794 
z
" transform="scale(0.015625)"/>
       </defs>
       <use xlink:href="#DejaVuSans-30"/>
       <use xlink:href="#DejaVuSans-2e" transform="translate(63.623047 0)"/>
       <use xlink:href="#DejaVuSans-30" transform="translate(95.410156 0)"/>
      </g>
     </g>
    </g>
    <g id="xtick_2">
     <g id="line2d_2">
      <g>
       <use xlink:href="#m71c450d274" x="105.219223" y="273.312" style="stroke: #000000; stroke-width: 0.8"/>
      </g>
     </g>
     <g id="text_2">
      <!-- 0.5 -->
      <g transform="translate(97.267661 287.910437) scale(0.1 -0.1)">
       <defs>
        <path id="DejaVuSans-35" d="M 691 4666 
L 3169 4666 
L 3169 4134 
L 1269 4134 
L 1269 2991 
Q 1406 3038 1543 3061 
Q 1681 3084 1819 3084 
Q 2600 3084 3056 2656 
Q 3513 2228 3513 1497 
Q 3513 744 3044 326 
Q 2575 -91 1722 -91 
Q 1428 -91 1123 -41 
Q 819 9 494 109 
L 494 744 
Q 775 591 1075 516 
Q 1375 441 1709 441 
Q 2250 441 2565 725 
Q 2881 1009 2881 1497 
Q 2881 1984 2565 2268 
Q 2250 2553 1709 2553 
Q 1456 2553 1204 2497 
Q 953 2441 691 2322 
L 691 4666 
z
" transform="scale(0.015625)"/>
       </defs>
       <use xlink:href="#DejaVuSans-30"/>
       <use xlink:href="#DejaVuSans-2e" transform="translate(63.623047 0)"/>
       <use xlink:href="#DejaVuSans-35" transform="translate(95.410156 0)"/>
      </g>
     </g>
    </g>
    <g id="xtick_3">
     <g id="line2d_3">
      <g>
       <use xlink:href="#m71c450d274" x="151.074385" y="273.312" style="stroke: #000000; stroke-width: 0.8"/>
      </g>
     </g>
     <g id="text_3">
      <!-- 1.0 -->
      <g transform="translate(143.122823 287.910437) scale(0.1 -0.1)">
       <defs>
        <path id="DejaVuSans-31" d="M 794 531 
L 1825 531 
L 1825 4091 
L 703 3866 
L 703 4441 
L 1819 4666 
L 2450 4666 
L 2450 531 
L 3481 531 
L 3481 0 
L 794 0 
L 794 531 
z
" transform="scale(0.015625)"/>
       </defs>
       <use xlink:href="#DejaVuSans-31"/>
       <use xlink:href="#DejaVuSans-2e" transform="translate(63.623047 0)"/>
       <use xlink:href="#DejaVuSans-30" transform="translate(95.410156 0)"/>
      </g>
     </g>
    </g>
    <g id="xtick_4">
     <g id="line2d_4">
      <g>
       <use xlink:href="#m71c450d274" x="196.929547" y="273.312" style="stroke: #000000; stroke-width: 0.8"/>
      </g>
     </g>
     <g id="text_4">
      <!-- 1.5 -->
      <g transform="translate(188.977984 287.910437) scale(0.1 -0.1)">
       <use xlink:href="#DejaVuSans-31"/>
       <use xlink:href="#DejaVuSans-2e" transform="translate(63.623047 0)"/>
       <use xlink:href="#DejaVuSans-35" transform="translate(95.410156 0)"/>
      </g>
     </g>
    </g>
    <g id="xtick_5">
     <g id="line2d_5">
      <g>
       <use xlink:href="#m71c450d274" x="242.784709" y="273.312" style="stroke: #000000; stroke-width: 0.8"/>
      </g>
     </g>
     <g id="text_5">
      <!-- 2.0 -->
      <g transform="translate(234.833146 287.910437) scale(0.1 -0.1)">
       <defs>
        <path id="DejaVuSans-32" d="M 1228 531 
L 3431 531 
L 3431 0 
L 469 0 
L 469 531 
Q 828 903 1448 1529 
Q 2069 2156 2228 2338 
Q 2531 2678 2651 2914 
Q 2772 3150 2772 3378 
Q 2772 3750 2511 3984 
Q 2250 4219 1831 4219 
Q 1534 4219 1204 4116 
Q 875 4013 500 3803 
L 500 4441 
Q 881 4594 1212 4672 
Q 1544 4750 1819 4750 
Q 2544 4750 2975 4387 
Q 3406 4025 3406 3419 
Q 3406 3131 3298 2873 
Q 3191 2616 2906 2266 
Q 2828 2175 2409 1742 
Q 1991 1309 1228 531 
z
" transform="scale(0.015625)"/>
       </defs>
       <use xlink:href="#DejaVuSans-32"/>
       <use xlink:href="#DejaVuSans-2e" transform="translate(63.623047 0)"/>
       <use xlink:href="#DejaVuSans-30" transform="translate(95.410156 0)"/>
      </g>
     </g>
    </g>
    <g id="xtick_6">
     <g id="line2d_6">
      <g>
       <use xlink:href="#m71c450d274" x="288.63987" y="273.312" style="stroke: #000000; stroke-width: 0.8"/>
      </g>
     </g>
     <g id="text_6">
      <!-- 2.5 -->
      <g transform="translate(280.688308 287.910437) scale(0.1 -0.1)">
       <use xlink:href="#DejaVuSans-32"/>
       <use xlink:href="#DejaVuSans-2e" transform="translate(63.623047 0)"/>
       <use xlink:href="#DejaVuSans-35" transform="translate(95.410156 0)"/>
      </g>
     </g>
    </g>
    <g id="xtick_7">
     <g id="line2d_7">
      <g>
       <use xlink:href="#m71c450d274" x="334.495032" y="273.312" style="stroke: #000000; stroke-width: 0.8"/>
      </g>
     </g>
     <g id="text_7">
      <!-- 3.0 -->
      <g transform="translate(326.54347 287.910437) scale(0.1 -0.1)">
       <defs>
        <path id="DejaVuSans-33" d="M 2597 2516 
Q 3050 2419 3304 2112 
Q 3559 1806 3559 1356 
Q 3559 666 3084 287 
Q 2609 -91 1734 -91 
Q 1441 -91 1130 -33 
Q 819 25 488 141 
L 488 750 
Q 750 597 1062 519 
Q 1375 441 1716 441 
Q 2309 441 2620 675 
Q 2931 909 2931 1356 
Q 2931 1769 2642 2001 
Q 2353 2234 1838 2234 
L 1294 2234 
L 1294 2753 
L 1863 2753 
Q 2328 2753 2575 2939 
Q 2822 3125 2822 3475 
Q 2822 3834 2567 4026 
Q 2313 4219 1838 4219 
Q 1578 4219 1281 4162 
Q 984 4106 628 3988 
L 628 4550 
Q 988 4650 1302 4700 
Q 1616 4750 1894 4750 
Q 2613 4750 3031 4423 
Q 3450 4097 3450 3541 
Q 3450 3153 3228 2886 
Q 3006 2619 2597 2516 
z
" transform="scale(0.015625)"/>
       </defs>
       <use xlink:href="#DejaVuSans-33"/>
       <use xlink:href="#DejaVuSans-2e" transform="translate(63.623047 0)"/>
       <use xlink:href="#DejaVuSans-30" transform="translate(95.410156 0)"/>
      </g>
     </g>
    </g>
    <g id="xtick_8">
     <g id="line2d_8">
      <g>
       <use xlink:href="#m71c450d274" x="380.350194" y="273.312" style="stroke: #000000; stroke-width: 0.8"/>
      </g>
     </g>
     <g id="text_8">
      <!-- 3.5 -->
      <g transform="translate(372.398632 287.910437) scale(0.1 -0.1)">
       <use xlink:href="#DejaVuSans-33"/>
       <use xlink:href="#DejaVuSans-2e" transform="translate(63.623047 0)"/>
       <use xlink:href="#DejaVuSans-35" transform="translate(95.410156 0)"/>
      </g>
     </g>
    </g>
    <g id="text_9">
     <!-- r_xy (reduced units) -->
     <g transform="translate(172.400625 301.588562) scale(0.1 -0.1)">
      <defs>
       <path id="DejaVuSans-72" d="M 2631 2963 
Q 2534 3019 2420 3045 
Q 2306 3072 2169 3072 
Q 1681 3072 1420 2755 
Q 1159 2438 1159 1844 
L 1159 0 
L 581 0 
L 581 3500 
L 1159 3500 
L 1159 2956 
Q 1341 3275 1631 3429 
Q 1922 3584 2338 3584 
Q 2397 3584 2469 3576 
Q 2541 3569 2628 3553 
L 2631 2963 
z
" transform="scale(0.015625)"/>
       <path id="DejaVuSans-5f" d="M 3263 -1063 
L 3263 -1509 
L -63 -1509 
L -63 -1063 
L 3263 -1063 
z
" transform="scale(0.015625)"/>
       <path id="DejaVuSans-78" d="M 3513 3500 
L 2247 1797 
L 3578 0 
L 2900 0 
L 1881 1375 
L 863 0 
L 184 0 
L 1544 1831 
L 300 3500 
L 978 3500 
L 1906 2253 
L 2834 3500 
L 3513 3500 
z
" transform="scale(0.015625)"/>
       <path id="DejaVuSans-79" d="M 2059 -325 
Q 1816 -950 1584 -1140 
Q 1353 -1331 966 -1331 
L 506 -1331 
L 506 -850 
L 844 -850 
Q 1081 -850 1212 -737 
Q 1344 -625 1503 -206 
L 1606 56 
L 191 3500 
L 800 3500 
L 1894 763 
L 2988 3500 
L 3597 3500 
L 2059 -325 
z
" transform="scale(0.015625)"/>
       <path id="DejaVuSans-20" transform="scale(0.015625)"/>
       <path id="DejaVuSans-28" d="M 1984 4856 
Q 1566 4138 1362 3434 
Q 1159 2731 1159 2009 
Q 1159 1288 1364 580 
Q 1569 -128 1984 -844 
L 1484 -844 
Q 1016 -109 783 600 
Q 550 1309 550 2009 
Q 550 2706 781 3412 
Q 1013 4119 1484 4856 
L 1984 4856 
z
" transform="scale(0.015625)"/>
       <path id="DejaVuSans-65" d="M 3597 1894 
L 3597 1613 
L 953 1613 
Q 991 1019 1311 708 
Q 1631 397 2203 397 
Q 2534 397 2845 478 
Q 3156 559 3463 722 
L 3463 178 
Q 3153 47 2828 -22 
Q 2503 -91 2169 -91 
Q 1331 -91 842 396 
Q 353 884 353 1716 
Q 353 2575 817 3079 
Q 1281 3584 2069 3584 
Q 2775 3584 3186 3129 
Q 3597 2675 3597 1894 
z
M 3022 2063 
Q 3016 2534 2758 2815 
Q 2500 3097 2075 3097 
Q 1594 3097 1305 2825 
Q 1016 2553 972 2059 
L 3022 2063 
z
" transform="scale(0.015625)"/>
       <path id="DejaVuSans-64" d="M 2906 2969 
L 2906 4863 
L 3481 4863 
L 3481 0 
L 2906 0 
L 2906 525 
Q 2725 213 2448 61 
Q 2172 -91 1784 -91 
Q 1150 -91 751 415 
Q 353 922 353 1747 
Q 353 2572 751 3078 
Q 1150 3584 1784 3584 
Q 2172 3584 2448 3432 
Q 2725 3281 2906 2969 
z
M 947 1747 
Q 947 1113 1208 752 
Q 1469 391 1925 391 
Q 2381 391 2643 752 
Q 2906 1113 2906 1747 
Q 2906 2381 2643 2742 
Q 2381 3103 1925 3103 
Q 1469 3103 1208 2742 
Q 947 2381 947 1747 
z
" transform="scale(0.015625)"/>
       <path id="DejaVuSans-75" d="M 544 1381 
L 544 3500 
L 1119 3500 
L 1119 1403 
Q 1119 906 1312 657 
Q 1506 409 1894 409 
Q 2359 409 2629 706 
Q 2900 1003 2900 1516 
L 2900 3500 
L 3475 3500 
L 3475 0 
L 2900 0 
L 2900 538 
Q 2691 219 2414 64 
Q 2138 -91 1772 -91 
Q 1169 -91 856 284 
Q 544 659 544 1381 
z
M 1991 3584 
L 1991 3584 
z
" transform="scale(0.015625)"/>
       <path id="DejaVuSans-63" d="M 3122 3366 
L 3122 2828 
Q 2878 2963 2633 3030 
Q 2388 3097 2138 3097 
Q 1578 3097 1268 2742 
Q 959 2388 959 1747 
Q 959 1106 1268 751 
Q 1578 397 2138 397 
Q 2388 397 2633 464 
Q 2878 531 3122 666 
L 3122 134 
Q 2881 22 2623 -34 
Q 2366 -91 2075 -91 
Q 1284 -91 818 406 
Q 353 903 353 1747 
Q 353 2603 823 3093 
Q 1294 3584 2113 3584 
Q 2378 3584 2631 3529 
Q 2884 3475 3122 3366 
z
" transform="scale(0.015625)"/>
       <path id="DejaVuSans-6e" d="M 3513 2113 
L 3513 0 
L 2938 0 
L 2938 2094 
Q 2938 2591 2744 2837 
Q 2550 3084 2163 3084 
Q 1697 3084 1428 2787 
Q 1159 2491 1159 1978 
L 1159 0 
L 581 0 
L 581 3500 
L 1159 3500 
L 1159 2956 
Q 1366 3272 1645 3428 
Q 1925 3584 2291 3584 
Q 2894 3584 3203 3211 
Q 3513 2838 3513 2113 
z
" transform="scale(0.015625)"/>
       <path id="DejaVuSans-69" d="M 603 3500 
L 1178 3500 
L 1178 0 
L 603 0 
L 603 3500 
z
M 603 4863 
L 1178 4863 
L 1178 4134 
L 603 4134 
L 603 4863 
z
" transform="scale(0.015625)"/>
       <path id="DejaVuSans-74" d="M 1172 4494 
L 1172 3500 
L 2356 3500 
L 2356 3053 
L 1172 3053 
L 1172 1153 
Q 1172 725 1289 603 
Q 1406 481 1766 481 
L 2356 481 
L 2356 0 
L 1766 0 
Q 1100 0 847 248 
Q 594 497 594 1153 
L 594 3053 
L 172 3053 
L 172 3500 
L 594 3500 
L 594 4494 
L 1172 4494 
z
" transform="scale(0.015625)"/>
       <path id="DejaVuSans-73" d="M 2834 3397 
L 2834 2853 
Q 2591 2978 2328 3040 
Q 2066 3103 1784 3103 
Q 1356 3103 1142 2972 
Q 928 2841 928 2578 
Q 928 2378 1081 2264 
Q 1234 2150 1697 2047 
L 1894 2003 
Q 2506 1872 2764 1633 
Q 3022 1394 3022 966 
Q 3022 478 2636 193 
Q 2250 -91 1575 -91 
Q 1294 -91 989 -36 
Q 684 19 347 128 
L 347 722 
Q 666 556 975 473 
Q 1284 391 1588 391 
Q 1994 391 2212 530 
Q 2431 669 2431 922 
Q 2431 1156 2273 1281 
Q 2116 1406 1581 1522 
L 1381 1569 
Q 847 1681 609 1914 
Q 372 2147 372 2553 
Q 372 3047 722 3315 
Q 1072 3584 1716 3584 
Q 2034 3584 2315 3537 
Q 2597 3491 2834 3397 
z
" transform="scale(0.015625)"/>
       <path id="DejaVuSans-29" d="M 513 4856 
L 1013 4856 
Q 1481 4119 1714 3412 
Q 1947 2706 1947 2009 
Q 1947 1309 1714 600 
Q 1481 -109 1013 -844 
L 513 -844 
Q 928 -128 1133 580 
Q 1338 1288 1338 2009 
Q 1338 2731 1133 3434 
Q 928 4138 513 4856 
z
" transform="scale(0.015625)"/>
      </defs>
      <use xlink:href="#DejaVuSans-72"/>
      <use xlink:href="#DejaVuSans-5f" transform="translate(41.113281 0)"/>
      <use xlink:href="#DejaVuSans-78" transform="translate(91.113281 0)"/>
      <use xlink:href="#DejaVuSans-79" transform="translate(150.292969 0)"/>
      <use xlink:href="#DejaVuSans-20" transform="translate(209.472656 0)"/>
      <use xlink:href="#DejaVuSans-28" transform="translate(241.259766 0)"/>
      <use xlink:href="#DejaVuSans-72" transform="translate(280.273438 0)"/>
      <use xlink:href="#DejaVuSans-65" transform="translate(319.136719 0)"/>
      <use xlink:href="#DejaVuSans-64" transform="translate(380.660156 0)"/>
      <use xlink:href="#DejaVuSans-75" transform="translate(444.136719 0)"/>
      <use xlink:href="#DejaVuSans-63" transform="translate(507.515625 0)"/>
      <use xlink:href="#DejaVuSans-65" transform="translate(562.496094 0)"/>
      <use xlink:href="#DejaVuSans-64" transform="translate(624.019531 0)"/>
      <use xlink:href="#DejaVuSans-20" transform="translate(687.496094 0)"/>
      <use xlink:href="#DejaVuSans-75" transform="translate(719.283203 0)"/>
      <use xlink:href="#DejaVuSans-6e" transform="translate(782.662109 0)"/>
      <use xlink:href="#DejaVuSans-69" transform="translate(846.041016 0)"/>
      <use xlink:href="#DejaVuSans-74" transform="translate(873.824219 0)"/>
      <use xlink:href="#DejaVuSans-73" transform="translate(913.033203 0)"/>
      <use xlink:href="#DejaVuSans-29" transform="translate(965.132812 0)"/>
     </g>
    </g>
   </g>
   <g id="matplotlib.axis_2">
    <g id="ytick_1">
     <g id="line2d_9">
      <defs>
       <path id="m9cd0b9b16d" d="M 0 0 
L -3.5 0 
" style="stroke: #000000; stroke-width: 0.8"/>
      </defs>
      <g>
       <use xlink:href="#m9cd0b9b16d" x="44.048438" y="261.216" style="stroke: #000000; stroke-width: 0.8"/>
      </g>
     </g>
     <g id="text_10">
      <!-- 0.0 -->
      <g transform="translate(21.145313 265.015219) scale(0.1 -0.1)">
       <use xlink:href="#DejaVuSans-30"/>
       <use xlink:href="#DejaVuSans-2e" transform="translate(63.623047 0)"/>
       <use xlink:href="#DejaVuSans-30" transform="translate(95.410156 0)"/>
      </g>
     </g>
    </g>
    <g id="ytick_2">
     <g id="line2d_10">
      <g>
       <use xlink:href="#m9cd0b9b16d" x="44.048438" y="228.698268" style="stroke: #000000; stroke-width: 0.8"/>
      </g>
     </g>
     <g id="text_11">
      <!-- 0.5 -->
      <g transform="translate(21.145313 232.497487) scale(0.1 -0.1)">
       <use xlink:href="#DejaVuSans-30"/>
       <use xlink:href="#DejaVuSans-2e" transform="translate(63.623047 0)"/>
       <use xlink:href="#DejaVuSans-35" transform="translate(95.410156 0)"/>
      </g>
     </g>
    </g>
    <g id="ytick_3">
     <g id="line2d_11">
      <g>
       <use xlink:href="#m9cd0b9b16d" x="44.048438" y="196.180536" style="stroke: #000000; stroke-width: 0.8"/>
      </g>
     </g>
     <g id="text_12">
      <!-- 1.0 -->
      <g transform="translate(21.145313 199.979754) scale(0.1 -0.1)">
       <use xlink:href="#DejaVuSans-31"/>
       <use xlink:href="#DejaVuSans-2e" transform="translate(63.623047 0)"/>
       <use xlink:href="#DejaVuSans-30" transform="translate(95.410156 0)"/>
      </g>
     </g>
    </g>
    <g id="ytick_4">
     <g id="line2d_12">
      <g>
       <use xlink:href="#m9cd0b9b16d" x="44.048438" y="163.662803" style="stroke: #000000; stroke-width: 0.8"/>
      </g>
     </g>
     <g id="text_13">
      <!-- 1.5 -->
      <g transform="translate(21.145313 167.462022) scale(0.1 -0.1)">
       <use xlink:href="#DejaVuSans-31"/>
       <use xlink:href="#DejaVuSans-2e" transform="translate(63.623047 0)"/>
       <use xlink:href="#DejaVuSans-35" transform="translate(95.410156 0)"/>
      </g>
     </g>
    </g>
    <g id="ytick_5">
     <g id="line2d_13">
      <g>
       <use xlink:href="#m9cd0b9b16d" x="44.048438" y="131.145071" style="stroke: #000000; stroke-width: 0.8"/>
      </g>
     </g>
     <g id="text_14">
      <!-- 2.0 -->
      <g transform="translate(21.145313 134.94429) scale(0.1 -0.1)">
       <use xlink:href="#DejaVuSans-32"/>
       <use xlink:href="#DejaVuSans-2e" transform="translate(63.623047 0)"/>
       <use xlink:href="#DejaVuSans-30" transform="translate(95.410156 0)"/>
      </g>
     </g>
    </g>
    <g id="ytick_6">
     <g id="line2d_14">
      <g>
       <use xlink:href="#m9cd0b9b16d" x="44.048438" y="98.627339" style="stroke: #000000; stroke-width: 0.8"/>
      </g>
     </g>
     <g id="text_15">
      <!-- 2.5 -->
      <g transform="translate(21.145313 102.426558) scale(0.1 -0.1)">
       <use xlink:href="#DejaVuSans-32"/>
       <use xlink:href="#DejaVuSans-2e" transform="translate(63.623047 0)"/>
       <use xlink:href="#DejaVuSans-35" transform="translate(95.410156 0)"/>
      </g>
     </g>
    </g>
    <g id="ytick_7">
     <g id="line2d_15">
      <g>
       <use xlink:href="#m9cd0b9b16d" x="44.048438" y="66.109607" style="stroke: #000000; stroke-width: 0.8"/>
      </g>
     </g>
     <g id="text_16">
      <!-- 3.0 -->
      <g transform="translate(21.145313 69.908825) scale(0.1 -0.1)">
       <use xlink:href="#DejaVuSans-33"/>
       <use xlink:href="#DejaVuSans-2e" transform="translate(63.623047 0)"/>
       <use xlink:href="#DejaVuSans-30" transform="translate(95.410156 0)"/>
      </g>
     </g>
    </g>
    <g id="ytick_8">
     <g id="line2d_16">
      <g>
       <use xlink:href="#m9cd0b9b16d" x="44.048438" y="33.591874" style="stroke: #000000; stroke-width: 0.8"/>
      </g>
     </g>
     <g id="text_17">
      <!-- 3.5 -->
      <g transform="translate(21.145313 37.391093) scale(0.1 -0.1)">
       <use xlink:href="#DejaVuSans-33"/>
       <use xlink:href="#DejaVuSans-2e" transform="translate(63.623047 0)"/>
       <use xlink:href="#DejaVuSans-35" transform="translate(95.410156 0)"/>
      </g>
     </g>
    </g>
    <g id="text_18">
     <!-- g_xy(r) -->
     <g transform="translate(14.7875 157.806) rotate(-90) scale(0.1 -0.1)">
      <defs>
       <path id="DejaVuSans-67" d="M 2906 1791 
Q 2906 2416 2648 2759 
Q 2391 3103 1925 3103 
Q 1463 3103 1205 2759 
Q 947 2416 947 1791 
Q 947 1169 1205 825 
Q 1463 481 1925 481 
Q 2391 481 2648 825 
Q 2906 1169 2906 1791 
z
M 3481 434 
Q 3481 -459 3084 -895 
Q 2688 -1331 1869 -1331 
Q 1566 -1331 1297 -1286 
Q 1028 -1241 775 -1147 
L 775 -588 
Q 1028 -725 1275 -790 
Q 1522 -856 1778 -856 
Q 2344 -856 2625 -561 
Q 2906 -266 2906 331 
L 2906 616 
Q 2728 306 2450 153 
Q 2172 0 1784 0 
Q 1141 0 747 490 
Q 353 981 353 1791 
Q 353 2603 747 3093 
Q 1141 3584 1784 3584 
Q 2172 3584 2450 3431 
Q 2728 3278 2906 2969 
L 2906 3500 
L 3481 3500 
L 3481 434 
z
" transform="scale(0.015625)"/>
      </defs>
      <use xlink:href="#DejaVuSans-67"/>
      <use xlink:href="#DejaVuSans-5f" transform="translate(63.476562 0)"/>
      <use xlink:href="#DejaVuSans-78" transform="translate(113.476562 0)"/>
      <use xlink:href="#DejaVuSans-79" transform="translate(172.65625 0)"/>
      <use xlink:href="#DejaVuSans-28" transform="translate(231.835938 0)"/>
      <use xlink:href="#DejaVuSans-72" transform="translate(270.849609 0)"/>
      <use xlink:href="#DejaVuSans-29" transform="translate(311.962891 0)"/>
     </g>
    </g>
   </g>
   <g id="line2d_17">
    <path d="M 60.281165 261.216 
L 137.317837 261.216 
L 139.152043 260.422408 
L 140.98625 254.486415 
L 142.820456 253.768362 
L 144.654662 224.752852 
L 146.488869 212.465223 
L 148.323075 189.256366 
L 150.157282 149.537306 
L 151.991488 124.205627 
L 153.825695 92.019331 
L 155.659901 39.837599 
L 157.494108 45.239187 
L 159.328314 61.747182 
L 161.162521 85.836373 
L 162.996727 58.454113 
L 164.830934 97.57414 
L 166.66514 102.422199 
L 168.499347 115.420768 
L 170.333553 140.308159 
L 172.16776 163.65088 
L 174.001966 170.496159 
L 175.836172 173.977624 
L 177.670379 183.035617 
L 179.504585 180.972159 
L 181.338792 206.941263 
L 183.172998 199.968992 
L 185.007205 215.247197 
L 186.841411 218.912533 
L 188.675618 223.493604 
L 190.509824 229.818854 
L 192.344031 230.824697 
L 194.178237 234.463045 
L 196.012444 229.875823 
L 197.84665 234.071741 
L 199.680857 230.012813 
L 201.515063 235.7853 
L 203.34927 236.406221 
L 205.183476 232.973718 
L 207.017682 232.252958 
L 208.851889 237.095361 
L 210.686095 228.265508 
L 212.520302 228.503468 
L 214.354508 220.802723 
L 216.188715 220.729553 
L 218.022921 214.608822 
L 219.857128 202.183999 
L 221.691334 209.556571 
L 223.525541 183.264361 
L 225.359747 189.159527 
L 227.193954 176.601712 
L 229.02816 168.537958 
L 230.862367 168.598498 
L 232.696573 169.594125 
L 234.53078 149.451715 
L 236.364986 158.209478 
L 238.199193 152.502399 
L 240.033399 164.352068 
L 241.867605 175.344252 
L 243.701812 172.463406 
L 245.536018 177.419582 
L 247.370225 180.891913 
L 249.204431 194.05009 
L 251.038638 181.777398 
L 254.707051 198.442022 
L 256.541257 211.046003 
L 258.375464 213.809999 
L 260.20967 217.343011 
L 262.043877 216.750509 
L 263.878083 210.358902 
L 265.71229 215.024824 
L 267.546496 217.897705 
L 269.380703 217.999167 
L 271.214909 213.669223 
L 273.049115 220.833328 
L 274.883322 218.349829 
L 276.717528 214.117122 
L 278.551735 219.689459 
L 280.385941 212.443742 
L 282.220148 206.38922 
L 284.054354 207.577799 
L 285.888561 203.930266 
L 287.722767 209.102983 
L 289.556974 192.540538 
L 291.39118 184.002765 
L 293.225387 188.436416 
L 295.059593 178.37987 
L 296.8938 177.866897 
L 298.728006 183.105281 
L 300.562213 165.57136 
L 302.396419 166.058121 
L 304.230625 170.602025 
L 306.064832 179.9155 
L 307.899038 166.122276 
L 309.733245 173.466328 
L 311.567451 173.02419 
L 313.401658 178.278488 
L 315.235864 175.939809 
L 317.070071 174.656674 
L 318.904277 181.758079 
L 320.738484 192.30448 
L 322.57269 190.161609 
L 324.406897 200.645493 
L 326.241103 202.807547 
L 328.07531 203.420981 
L 329.909516 200.808253 
L 331.743723 205.779593 
L 333.577929 203.167569 
L 335.412135 204.609099 
L 337.246342 208.83646 
L 339.080548 206.212643 
L 340.914755 205.615851 
L 342.748961 209.246353 
L 344.583168 210.003478 
L 346.417374 214.575876 
L 348.251581 214.587439 
L 350.085787 213.681461 
L 351.919994 206.428171 
L 353.7542 218.796073 
L 355.588407 207.691164 
L 357.422613 201.17613 
L 359.25682 203.984819 
L 361.091026 208.442187 
L 362.925233 201.447534 
L 364.759439 202.252808 
L 366.593646 208.473625 
L 368.427852 201.331579 
L 370.262058 205.907746 
L 372.096265 203.120445 
L 373.930471 206.326726 
L 375.764678 205.549345 
L 377.598884 192.001304 
L 379.433091 187.196922 
L 381.267297 190.251484 
L 383.101504 184.759166 
L 384.93571 178.815261 
L 384.93571 178.815261 
" clip-path="url(#p6edd4dae1d)" style="fill: none; stroke: #ff7f0e; stroke-width: 1.5; stroke-linecap: square"/>
   </g>
   <g id="line2d_18">
    <path d="M 44.048438 196.180536 
L 401.168437 196.180536 
" clip-path="url(#p6edd4dae1d)" style="fill: none; stroke-dasharray: 5.55,2.4; stroke-dashoffset: 0; stroke: #000000; stroke-opacity: 0.4; stroke-width: 1.5"/>
   </g>
   <g id="patch_3">
    <path d="M 44.048438 273.312 
L 44.048438 7.2 
" style="fill: none; stroke: #000000; stroke-width: 0.8; stroke-linejoin: miter; stroke-linecap: square"/>
   </g>
   <g id="patch_4">
    <path d="M 401.168437 273.312 
L 401.168437 7.2 
" style="fill: none; stroke: #000000; stroke-width: 0.8; stroke-linejoin: miter; stroke-linecap: square"/>
   </g>
   <g id="patch_5">
    <path d="M 44.048438 273.312 
L 401.168438 273.312 
" style="fill: none; stroke: #000000; stroke-width: 0.8; stroke-linejoin: miter; stroke-linecap: square"/>
   </g>
   <g id="patch_6">
    <path d="M 44.048438 7.2 
L 401.168438 7.2 
" style="fill: none; stroke: #000000; stroke-width: 0.8; stroke-linejoin: miter; stroke-linecap: square"/>
   </g>
   <g id="legend_1">
    <g id="patch_7">
     <path d="M 328.0075 44.55625 
L 394.168438 44.55625 
Q 396.168438 44.55625 396.168438 42.55625 
L 396.168438 14.2 
Q 396.168438 12.2 394.168438 12.2 
L 328.0075 12.2 
Q 326.0075 12.2 326.0075 14.2 
L 326.0075 42.55625 
Q 326.0075 44.55625 328.0075 44.55625 
z
" style="fill: #ffffff; opacity: 0.8; stroke: #cccccc; stroke-linejoin: miter"/>
    </g>
    <g id="line2d_19">
     <path d="M 330.0075 20.298437 
L 340.0075 20.298437 
L 350.0075 20.298437 
" style="fill: none; stroke: #ff7f0e; stroke-width: 1.5; stroke-linecap: square"/>
    </g>
    <g id="text_19">
     <!-- Mean -->
     <g transform="translate(358.0075 23.798437) scale(0.1 -0.1)">
      <defs>
       <path id="DejaVuSans-4d" d="M 628 4666 
L 1569 4666 
L 2759 1491 
L 3956 4666 
L 4897 4666 
L 4897 0 
L 4281 0 
L 4281 4097 
L 3078 897 
L 2444 897 
L 1241 4097 
L 1241 0 
L 628 0 
L 628 4666 
z
" transform="scale(0.015625)"/>
       <path id="DejaVuSans-61" d="M 2194 1759 
Q 1497 1759 1228 1600 
Q 959 1441 959 1056 
Q 959 750 1161 570 
Q 1363 391 1709 391 
Q 2188 391 2477 730 
Q 2766 1069 2766 1631 
L 2766 1759 
L 2194 1759 
z
M 3341 1997 
L 3341 0 
L 2766 0 
L 2766 531 
Q 2569 213 2275 61 
Q 1981 -91 1556 -91 
Q 1019 -91 701 211 
Q 384 513 384 1019 
Q 384 1609 779 1909 
Q 1175 2209 1959 2209 
L 2766 2209 
L 2766 2266 
Q 2766 2663 2505 2880 
Q 2244 3097 1772 3097 
Q 1472 3097 1187 3025 
Q 903 2953 641 2809 
L 641 3341 
Q 956 3463 1253 3523 
Q 1550 3584 1831 3584 
Q 2591 3584 2966 3190 
Q 3341 2797 3341 1997 
z
" transform="scale(0.015625)"/>
      </defs>
      <use xlink:href="#DejaVuSans-4d"/>
      <use xlink:href="#DejaVuSans-65" transform="translate(86.279297 0)"/>
      <use xlink:href="#DejaVuSans-61" transform="translate(147.802734 0)"/>
      <use xlink:href="#DejaVuSans-6e" transform="translate(209.082031 0)"/>
     </g>
    </g>
    <g id="patch_8">
     <path d="M 330.0075 38.476562 
L 350.0075 38.476562 
L 350.0075 31.476562 
L 330.0075 31.476562 
z
" style="fill: #ff7f0e; fill-opacity: 0.3; stroke: #ff7f0e; stroke-opacity: 0.3; stroke-linejoin: miter"/>
    </g>
    <g id="text_20">
     <!-- Std Err -->
     <g transform="translate(358.0075 38.476562) scale(0.1 -0.1)">
      <defs>
       <path id="DejaVuSans-53" d="M 3425 4513 
L 3425 3897 
Q 3066 4069 2747 4153 
Q 2428 4238 2131 4238 
Q 1616 4238 1336 4038 
Q 1056 3838 1056 3469 
Q 1056 3159 1242 3001 
Q 1428 2844 1947 2747 
L 2328 2669 
Q 3034 2534 3370 2195 
Q 3706 1856 3706 1288 
Q 3706 609 3251 259 
Q 2797 -91 1919 -91 
Q 1588 -91 1214 -16 
Q 841 59 441 206 
L 441 856 
Q 825 641 1194 531 
Q 1563 422 1919 422 
Q 2459 422 2753 634 
Q 3047 847 3047 1241 
Q 3047 1584 2836 1778 
Q 2625 1972 2144 2069 
L 1759 2144 
Q 1053 2284 737 2584 
Q 422 2884 422 3419 
Q 422 4038 858 4394 
Q 1294 4750 2059 4750 
Q 2388 4750 2728 4690 
Q 3069 4631 3425 4513 
z
" transform="scale(0.015625)"/>
       <path id="DejaVuSans-45" d="M 628 4666 
L 3578 4666 
L 3578 4134 
L 1259 4134 
L 1259 2753 
L 3481 2753 
L 3481 2222 
L 1259 2222 
L 1259 531 
L 3634 531 
L 3634 0 
L 628 0 
L 628 4666 
z
" transform="scale(0.015625)"/>
      </defs>
      <use xlink:href="#DejaVuSans-53"/>
      <use xlink:href="#DejaVuSans-74" transform="translate(63.476562 0)"/>
      <use xlink:href="#DejaVuSans-64" transform="translate(102.685547 0)"/>
      <use xlink:href="#DejaVuSans-20" transform="translate(166.162109 0)"/>
      <use xlink:href="#DejaVuSans-45" transform="translate(197.949219 0)"/>
      <use xlink:href="#DejaVuSans-72" transform="translate(261.132812 0)"/>
      <use xlink:href="#DejaVuSans-72" transform="translate(300.496094 0)"/>
     </g>
    </g>
   </g>
  </g>
 </g>
 <defs>
  <clipPath id="p6edd4dae1d">
   <rect x="44.048438" y="7.2" width="357.12" height="266.112"/>
  </clipPath>
 </defs>
</svg>
