<?xml version="1.0" encoding="utf-8" standalone="no"?>
<!DOCTYPE svg PUBLIC "-//W3C//DTD SVG 1.1//EN"
  "http://www.w3.org/Graphics/SVG/1.1/DTD/svg11.dtd">
<svg xmlns:xlink="http://www.w3.org/1999/xlink" width="408.379375pt" height="312.252432pt" viewBox="0 0 408.379375 312.252432" xmlns="http://www.w3.org/2000/svg" version="1.1">
 <metadata>
  <rdf:RDF xmlns:dc="http://purl.org/dc/elements/1.1/" xmlns:cc="http://creativecommons.org/ns#" xmlns:rdf="http://www.w3.org/1999/02/22-rdf-syntax-ns#">
   <cc:Work>
    <dc:type rdf:resource="http://purl.org/dc/dcmitype/StillImage"/>
    <dc:date>2025-12-11T12:55:36.913026</dc:date>
    <dc:format>image/svg+xml</dc:format>
    <dc:creator>
     <cc:Agent>
      <dc:title>Matplotlib v3.10.5, https://matplotlib.org/</dc:title>
     </cc:Agent>
    </dc:creator>
   </cc:Work>
  </rdf:RDF>
 </metadata>
 <defs>
  <style type="text/css">*{stroke-linejoin: round; stroke-linecap: butt}</style>
 </defs>
 <g id="figure_1">
  <g id="patch_1">
   <path d="M 0 312.252432 
L 408.379375 312.252432 
L 408.379375 0 
L 0 0 
z
" style="fill: #ffffff"/>
  </g>
  <g id="axes_1">
   <g id="patch_2">
    <path d="M 44.059375 274.374307 
L 401.179375 274.374307 
L 401.179375 8.262307 
L 44.059375 8.262307 
z
" style="fill: #ffffff"/>
   </g>
   <g id="FillBetweenPolyCollection_1">
    <defs>
     <path id="mbd0c689601" d="M 8.445816 -261.945802 
L 8.445816 -227.646583 
L 16.493801 -188.055476 
L 27.875371 -130.342804 
L 32.462067 -137.749027 
L 43.971342 -142.12532 
L 47.304927 -147.150152 
L 50.45791 -168.667236 
L 59.070519 -159.787587 
L 66.734483 -112.314189 
L 69.12637 -141.627518 
L 71.448883 -174.688351 
L 75.907874 -187.96128 
L 86.164038 -190.336068 
L 88.087943 -153.991299 
L 93.647619 -179.376746 
L 98.926424 -213.058491 
L 102.309064 -212.751307 
L 105.593594 -178.336334 
L 107.201633 -220.042707 
L 111.899559 -233.301751 
L 113.426118 -241.360478 
L 119.353681 -189.629299 
L 125.023149 -189.713085 
L 126.403965 -221.49544 
L 129.124778 -178.48294 
L 130.46556 -175.558779 
L 136.987347 -201.962181 
L 140.76594 -199.669994 
L 144.452705 -186.961802 
L 145.662345 -192.503577 
L 149.23648 -176.544761 
L 153.881506 -163.604517 
L 155.022456 -173.204031 
L 156.155617 -168.797015 
L 162.799488 -176.31701 
L 163.88226 -198.943635 
L 164.958369 -199.795548 
L 168.147912 -170.575307 
L 172.314321 -171.292907 
L 173.341209 -207.238428 
L 180.37519 -169.9312 
L 181.359047 -147.480264 
L 183.311816 -188.551446 
L 184.280877 -196.377267 
L 187.159626 -166.534657 
L 189.055778 -185.615427 
L 191.866776 -175.165504 
L 195.555269 -202.556903 
L 198.278978 -180.4069 
L 199.179037 -175.175625 
L 202.741371 -188.499787 
L 203.622716 -184.736987 
L 206.245295 -192.527566 
L 208.836588 -188.383772 
L 210.547278 -195.326472 
L 215.601868 -188.308031 
L 216.433377 -174.890336 
L 222.170927 -189.028137 
L 222.979091 -189.592818 
L 223.784473 -209.246527 
L 225.387005 -189.766654 
L 226.184211 -187.537118 
L 229.34659 -189.419495 
L 232.467894 -190.622749 
L 234.782858 -204.256072 
L 236.314129 -167.505605 
L 237.835977 -179.801659 
L 241.600482 -201.695485 
L 242.346671 -197.382878 
L 244.572164 -195.517147 
L 248.238864 -177.487558 
L 249.691102 -199.398488 
L 250.414196 -188.946027 
L 253.286787 -186.275099 
L 258.940273 -201.310035 
L 259.638654 -189.434838 
L 261.030038 -180.120467 
L 261.723068 -187.114742 
L 263.79167 -200.733059 
L 265.16213 -191.664989 
L 267.20516 -192.575006 
L 269.233296 -186.039625 
L 271.914859 -199.175506 
L 275.89021 -172.322818 
L 277.857369 -196.870549 
L 280.459594 -194.806102 
L 281.106528 -190.386692 
L 283.038789 -210.498802 
L 284.958434 -211.118277 
L 285.595554 -196.112104 
L 286.231309 -191.669178 
L 290.644075 -182.01103 
L 291.269211 -206.320952 
L 292.51562 -176.415885 
L 293.136909 -207.688726 
L 296.224508 -195.911044 
L 302.30843 -211.592627 
L 302.910337 -191.505867 
L 305.306509 -192.796937 
L 307.684665 -174.625839 
L 310.632632 -173.25488 
L 312.388512 -195.575064 
L 318.746752 -196.79369 
L 319.318705 -189.041185 
L 319.889669 -190.739755 
L 323.294974 -188.315192 
L 328.894672 -180.36322 
L 332.760188 -174.49769 
L 334.949662 -182.167094 
L 339.287554 -187.93597 
L 346.224293 -181.83928 
L 347.279563 -198.930803 
L 350.426885 -188.626163 
L 360.217398 -187.647483 
L 362.245835 -184.947858 
L 373.701834 -192.316172 
L 374.681926 -203.102888 
L 387.67741 -208.310012 
L 401.179375 -190.514738 
L 401.179375 -219.560095 
L 401.179375 -219.560095 
L 387.67741 -240.792755 
L 374.681926 -234.634076 
L 373.701834 -211.50133 
L 362.245835 -202.510223 
L 360.217398 -216.175597 
L 350.426885 -202.467951 
L 347.279563 -211.061932 
L 346.224293 -207.968207 
L 339.287554 -199.495886 
L 334.949662 -197.013302 
L 332.760188 -193.102774 
L 328.894672 -200.042183 
L 323.294974 -213.050621 
L 319.889669 -217.125038 
L 319.318705 -202.278023 
L 318.746752 -223.016834 
L 312.388512 -226.901335 
L 310.632632 -192.500579 
L 307.684665 -210.032424 
L 305.306509 -211.87869 
L 302.910337 -201.133774 
L 302.30843 -230.242713 
L 296.224508 -220.588708 
L 293.136909 -240.930122 
L 292.51562 -201.53041 
L 291.269211 -218.494441 
L 290.644075 -197.374505 
L 286.231309 -215.897358 
L 285.595554 -212.927473 
L 284.958434 -219.441053 
L 283.038789 -238.583391 
L 281.106528 -198.267889 
L 280.459594 -228.466533 
L 277.857369 -234.952422 
L 275.89021 -204.816105 
L 271.914859 -221.663846 
L 269.233296 -205.996553 
L 267.20516 -218.118665 
L 265.16213 -208.91714 
L 263.79167 -211.749977 
L 261.723068 -200.130676 
L 261.030038 -197.085296 
L 259.638654 -204.902408 
L 258.940273 -230.37852 
L 253.286787 -207.24205 
L 250.414196 -216.750557 
L 249.691102 -225.384801 
L 248.238864 -212.783021 
L 244.572164 -216.315514 
L 242.346671 -215.010247 
L 241.600482 -218.944208 
L 237.835977 -212.806345 
L 236.314129 -204.814525 
L 234.782858 -236.020456 
L 232.467894 -238.027694 
L 229.34659 -217.93336 
L 226.184211 -227.93511 
L 225.387005 -203.004587 
L 223.784473 -230.668293 
L 222.979091 -219.529433 
L 222.170927 -216.714726 
L 216.433377 -196.599816 
L 215.601868 -218.984631 
L 210.547278 -214.1138 
L 208.836588 -225.390664 
L 206.245295 -210.817994 
L 203.622716 -196.475516 
L 202.741371 -215.082911 
L 199.179037 -204.05304 
L 198.278978 -194.902194 
L 195.555269 -239.137953 
L 191.866776 -216.733074 
L 189.055778 -207.424857 
L 187.159626 -192.037283 
L 184.280877 -218.13086 
L 183.311816 -219.748789 
L 181.359047 -177.412933 
L 180.37519 -229.03587 
L 173.341209 -246.716309 
L 172.314321 -182.472362 
L 168.147912 -192.60319 
L 164.958369 -243.661556 
L 163.88226 -236.171896 
L 162.799488 -209.856824 
L 156.155617 -177.948258 
L 155.022456 -216.825871 
L 153.881506 -193.83597 
L 149.23648 -186.852249 
L 145.662345 -223.992432 
L 144.452705 -216.728906 
L 140.76594 -236.667287 
L 136.987347 -217.277957 
L 130.46556 -201.865442 
L 129.124778 -209.519992 
L 126.403965 -250.728168 
L 125.023149 -204.167835 
L 119.353681 -231.361222 
L 113.426118 -279.798125 
L 111.899559 -273.515474 
L 107.201633 -266.304123 
L 105.593594 -215.408454 
L 102.309064 -273.904235 
L 98.926424 -243.724221 
L 93.647619 -188.92702 
L 88.087943 -187.546588 
L 86.164038 -230.775222 
L 75.907874 -216.696364 
L 71.448883 -219.315911 
L 69.12637 -164.175894 
L 66.734483 -150.326736 
L 59.070519 -194.297131 
L 50.45791 -183.034802 
L 47.304927 -163.800265 
L 43.971342 -180.583833 
L 32.462067 -160.726582 
L 27.875371 -213.40389 
L 16.493801 -259.125885 
L 8.445816 -261.945802 
z
" style="stroke: #ff7f0e; stroke-opacity: 0.3"/>
    </defs>
    <g clip-path="url(#p009af77a61)">
     <use xlink:href="#mbd0c689601" x="0" y="312.252432" style="fill: #ff7f0e; fill-opacity: 0.3; stroke: #ff7f0e; stroke-opacity: 0.3"/>
    </g>
   </g>
   <g id="matplotlib.axis_1">
    <g id="xtick_1">
     <g id="line2d_1">
      <defs>
       <path id="mf4d4a1bfdf" d="M 0 0 
L 0 3.5 
" style="stroke: #000000; stroke-width: 0.8"/>
      </defs>
      <g>
       <use xlink:href="#mf4d4a1bfdf" x="77.085244" y="274.374307" style="stroke: #000000; stroke-width: 0.8"/>
      </g>
     </g>
     <g id="text_1">
      <!-- 4 -->
      <g transform="translate(73.903994 288.972745) scale(0.1 -0.1)">
       <defs>
        <path id="DejaVuSans-34" d="M 2419 4116 
L 825 1625 
L 2419 1625 
L 2419 4116 
z
M 2253 4666 
L 3047 4666 
L 3047 1625 
L 3713 1625 
L 3713 1100 
L 3047 1100 
L 3047 0 
L 2419 0 
L 2419 1100 
L 313 1100 
L 313 1709 
L 2253 4666 
z
" transform="scale(0.015625)"/>
       </defs>
       <use xlink:href="#DejaVuSans-34"/>
      </g>
     </g>
    </g>
    <g id="xtick_2">
     <g id="line2d_2">
      <g>
       <use xlink:href="#mf4d4a1bfdf" x="121.119735" y="274.374307" style="stroke: #000000; stroke-width: 0.8"/>
      </g>
     </g>
     <g id="text_2">
      <!-- 6 -->
      <g transform="translate(117.938485 288.972745) scale(0.1 -0.1)">
       <defs>
        <path id="DejaVuSans-36" d="M 2113 2584 
Q 1688 2584 1439 2293 
Q 1191 2003 1191 1497 
Q 1191 994 1439 701 
Q 1688 409 2113 409 
Q 2538 409 2786 701 
Q 3034 994 3034 1497 
Q 3034 2003 2786 2293 
Q 2538 2584 2113 2584 
z
M 3366 4563 
L 3366 3988 
Q 3128 4100 2886 4159 
Q 2644 4219 2406 4219 
Q 1781 4219 1451 3797 
Q 1122 3375 1075 2522 
Q 1259 2794 1537 2939 
Q 1816 3084 2150 3084 
Q 2853 3084 3261 2657 
Q 3669 2231 3669 1497 
Q 3669 778 3244 343 
Q 2819 -91 2113 -91 
Q 1303 -91 875 529 
Q 447 1150 447 2328 
Q 447 3434 972 4092 
Q 1497 4750 2381 4750 
Q 2619 4750 2861 4703 
Q 3103 4656 3366 4563 
z
" transform="scale(0.015625)"/>
       </defs>
       <use xlink:href="#DejaVuSans-36"/>
      </g>
     </g>
    </g>
    <g id="xtick_3">
     <g id="line2d_3">
      <g>
       <use xlink:href="#mf4d4a1bfdf" x="165.154227" y="274.374307" style="stroke: #000000; stroke-width: 0.8"/>
      </g>
     </g>
     <g id="text_3">
      <!-- 8 -->
      <g transform="translate(161.972977 288.972745) scale(0.1 -0.1)">
       <defs>
        <path id="DejaVuSans-38" d="M 2034 2216 
Q 1584 2216 1326 1975 
Q 1069 1734 1069 1313 
Q 1069 891 1326 650 
Q 1584 409 2034 409 
Q 2484 409 2743 651 
Q 3003 894 3003 1313 
Q 3003 1734 2745 1975 
Q 2488 2216 2034 2216 
z
M 1403 2484 
Q 997 2584 770 2862 
Q 544 3141 544 3541 
Q 544 4100 942 4425 
Q 1341 4750 2034 4750 
Q 2731 4750 3128 4425 
Q 3525 4100 3525 3541 
Q 3525 3141 3298 2862 
Q 3072 2584 2669 2484 
Q 3125 2378 3379 2068 
Q 3634 1759 3634 1313 
Q 3634 634 3220 271 
Q 2806 -91 2034 -91 
Q 1263 -91 848 271 
Q 434 634 434 1313 
Q 434 1759 690 2068 
Q 947 2378 1403 2484 
z
M 1172 3481 
Q 1172 3119 1398 2916 
Q 1625 2713 2034 2713 
Q 2441 2713 2670 2916 
Q 2900 3119 2900 3481 
Q 2900 3844 2670 4047 
Q 2441 4250 2034 4250 
Q 1625 4250 1398 4047 
Q 1172 3844 1172 3481 
z
" transform="scale(0.015625)"/>
       </defs>
       <use xlink:href="#DejaVuSans-38"/>
      </g>
     </g>
    </g>
    <g id="xtick_4">
     <g id="line2d_4">
      <g>
       <use xlink:href="#mf4d4a1bfdf" x="209.188719" y="274.374307" style="stroke: #000000; stroke-width: 0.8"/>
      </g>
     </g>
     <g id="text_4">
      <!-- 10 -->
      <g transform="translate(202.826219 288.972745) scale(0.1 -0.1)">
       <defs>
        <path id="DejaVuSans-31" d="M 794 531 
L 1825 531 
L 1825 4091 
L 703 3866 
L 703 4441 
L 1819 4666 
L 2450 4666 
L 2450 531 
L 3481 531 
L 3481 0 
L 794 0 
L 794 531 
z
" transform="scale(0.015625)"/>
        <path id="DejaVuSans-30" d="M 2034 4250 
Q 1547 4250 1301 3770 
Q 1056 3291 1056 2328 
Q 1056 1369 1301 889 
Q 1547 409 2034 409 
Q 2525 409 2770 889 
Q 3016 1369 3016 2328 
Q 3016 3291 2770 3770 
Q 2525 4250 2034 4250 
z
M 2034 4750 
Q 2819 4750 3233 4129 
Q 3647 3509 3647 2328 
Q 3647 1150 3233 529 
Q 2819 -91 2034 -91 
Q 1250 -91 836 529 
Q 422 1150 422 2328 
Q 422 3509 836 4129 
Q 1250 4750 2034 4750 
z
" transform="scale(0.015625)"/>
       </defs>
       <use xlink:href="#DejaVuSans-31"/>
       <use xlink:href="#DejaVuSans-30" transform="translate(63.623047 0)"/>
      </g>
     </g>
    </g>
    <g id="xtick_5">
     <g id="line2d_5">
      <g>
       <use xlink:href="#mf4d4a1bfdf" x="253.22321" y="274.374307" style="stroke: #000000; stroke-width: 0.8"/>
      </g>
     </g>
     <g id="text_5">
      <!-- 12 -->
      <g transform="translate(246.86071 288.972745) scale(0.1 -0.1)">
       <defs>
        <path id="DejaVuSans-32" d="M 1228 531 
L 3431 531 
L 3431 0 
L 469 0 
L 469 531 
Q 828 903 1448 1529 
Q 2069 2156 2228 2338 
Q 2531 2678 2651 2914 
Q 2772 3150 2772 3378 
Q 2772 3750 2511 3984 
Q 2250 4219 1831 4219 
Q 1534 4219 1204 4116 
Q 875 4013 500 3803 
L 500 4441 
Q 881 4594 1212 4672 
Q 1544 4750 1819 4750 
Q 2544 4750 2975 4387 
Q 3406 4025 3406 3419 
Q 3406 3131 3298 2873 
Q 3191 2616 2906 2266 
Q 2828 2175 2409 1742 
Q 1991 1309 1228 531 
z
" transform="scale(0.015625)"/>
       </defs>
       <use xlink:href="#DejaVuSans-31"/>
       <use xlink:href="#DejaVuSans-32" transform="translate(63.623047 0)"/>
      </g>
     </g>
    </g>
    <g id="xtick_6">
     <g id="line2d_6">
      <g>
       <use xlink:href="#mf4d4a1bfdf" x="297.257702" y="274.374307" style="stroke: #000000; stroke-width: 0.8"/>
      </g>
     </g>
     <g id="text_6">
      <!-- 14 -->
      <g transform="translate(290.895202 288.972745) scale(0.1 -0.1)">
       <use xlink:href="#DejaVuSans-31"/>
       <use xlink:href="#DejaVuSans-34" transform="translate(63.623047 0)"/>
      </g>
     </g>
    </g>
    <g id="xtick_7">
     <g id="line2d_7">
      <g>
       <use xlink:href="#mf4d4a1bfdf" x="341.292194" y="274.374307" style="stroke: #000000; stroke-width: 0.8"/>
      </g>
     </g>
     <g id="text_7">
      <!-- 16 -->
      <g transform="translate(334.929694 288.972745) scale(0.1 -0.1)">
       <use xlink:href="#DejaVuSans-31"/>
       <use xlink:href="#DejaVuSans-36" transform="translate(63.623047 0)"/>
      </g>
     </g>
    </g>
    <g id="xtick_8">
     <g id="line2d_8">
      <g>
       <use xlink:href="#mf4d4a1bfdf" x="385.326685" y="274.374307" style="stroke: #000000; stroke-width: 0.8"/>
      </g>
     </g>
     <g id="text_8">
      <!-- 18 -->
      <g transform="translate(378.964185 288.972745) scale(0.1 -0.1)">
       <use xlink:href="#DejaVuSans-31"/>
       <use xlink:href="#DejaVuSans-38" transform="translate(63.623047 0)"/>
      </g>
     </g>
    </g>
    <g id="text_9">
     <!-- |k_xy| (reduced units) -->
     <g transform="translate(168.202969 302.69462) scale(0.1 -0.1)">
      <defs>
       <path id="DejaVuSans-7c" d="M 1344 4891 
L 1344 -1509 
L 813 -1509 
L 813 4891 
L 1344 4891 
z
" transform="scale(0.015625)"/>
       <path id="DejaVuSans-6b" d="M 581 4863 
L 1159 4863 
L 1159 1991 
L 2875 3500 
L 3609 3500 
L 1753 1863 
L 3688 0 
L 2938 0 
L 1159 1709 
L 1159 0 
L 581 0 
L 581 4863 
z
" transform="scale(0.015625)"/>
       <path id="DejaVuSans-5f" d="M 3263 -1063 
L 3263 -1509 
L -63 -1509 
L -63 -1063 
L 3263 -1063 
z
" transform="scale(0.015625)"/>
       <path id="DejaVuSans-78" d="M 3513 3500 
L 2247 1797 
L 3578 0 
L 2900 0 
L 1881 1375 
L 863 0 
L 184 0 
L 1544 1831 
L 300 3500 
L 978 3500 
L 1906 2253 
L 2834 3500 
L 3513 3500 
z
" transform="scale(0.015625)"/>
       <path id="DejaVuSans-79" d="M 2059 -325 
Q 1816 -950 1584 -1140 
Q 1353 -1331 966 -1331 
L 506 -1331 
L 506 -850 
L 844 -850 
Q 1081 -850 1212 -737 
Q 1344 -625 1503 -206 
L 1606 56 
L 191 3500 
L 800 3500 
L 1894 763 
L 2988 3500 
L 3597 3500 
L 2059 -325 
z
" transform="scale(0.015625)"/>
       <path id="DejaVuSans-20" transform="scale(0.015625)"/>
       <path id="DejaVuSans-28" d="M 1984 4856 
Q 1566 4138 1362 3434 
Q 1159 2731 1159 2009 
Q 1159 1288 1364 580 
Q 1569 -128 1984 -844 
L 1484 -844 
Q 1016 -109 783 600 
Q 550 1309 550 2009 
Q 550 2706 781 3412 
Q 1013 4119 1484 4856 
L 1984 4856 
z
" transform="scale(0.015625)"/>
       <path id="DejaVuSans-72" d="M 2631 2963 
Q 2534 3019 2420 3045 
Q 2306 3072 2169 3072 
Q 1681 3072 1420 2755 
Q 1159 2438 1159 1844 
L 1159 0 
L 581 0 
L 581 3500 
L 1159 3500 
L 1159 2956 
Q 1341 3275 1631 3429 
Q 1922 3584 2338 3584 
Q 2397 3584 2469 3576 
Q 2541 3569 2628 3553 
L 2631 2963 
z
" transform="scale(0.015625)"/>
       <path id="DejaVuSans-65" d="M 3597 1894 
L 3597 1613 
L 953 1613 
Q 991 1019 1311 708 
Q 1631 397 2203 397 
Q 2534 397 2845 478 
Q 3156 559 3463 722 
L 3463 178 
Q 3153 47 2828 -22 
Q 2503 -91 2169 -91 
Q 1331 -91 842 396 
Q 353 884 353 1716 
Q 353 2575 817 3079 
Q 1281 3584 2069 3584 
Q 2775 3584 3186 3129 
Q 3597 2675 3597 1894 
z
M 3022 2063 
Q 3016 2534 2758 2815 
Q 2500 3097 2075 3097 
Q 1594 3097 1305 2825 
Q 1016 2553 972 2059 
L 3022 2063 
z
" transform="scale(0.015625)"/>
       <path id="DejaVuSans-64" d="M 2906 2969 
L 2906 4863 
L 3481 4863 
L 3481 0 
L 2906 0 
L 2906 525 
Q 2725 213 2448 61 
Q 2172 -91 1784 -91 
Q 1150 -91 751 415 
Q 353 922 353 1747 
Q 353 2572 751 3078 
Q 1150 3584 1784 3584 
Q 2172 3584 2448 3432 
Q 2725 3281 2906 2969 
z
M 947 1747 
Q 947 1113 1208 752 
Q 1469 391 1925 391 
Q 2381 391 2643 752 
Q 2906 1113 2906 1747 
Q 2906 2381 2643 2742 
Q 2381 3103 1925 3103 
Q 1469 3103 1208 2742 
Q 947 2381 947 1747 
z
" transform="scale(0.015625)"/>
       <path id="DejaVuSans-75" d="M 544 1381 
L 544 3500 
L 1119 3500 
L 1119 1403 
Q 1119 906 1312 657 
Q 1506 409 1894 409 
Q 2359 409 2629 706 
Q 2900 1003 2900 1516 
L 2900 3500 
L 3475 3500 
L 3475 0 
L 2900 0 
L 2900 538 
Q 2691 219 2414 64 
Q 2138 -91 1772 -91 
Q 1169 -91 856 284 
Q 544 659 544 1381 
z
M 1991 3584 
L 1991 3584 
z
" transform="scale(0.015625)"/>
       <path id="DejaVuSans-63" d="M 3122 3366 
L 3122 2828 
Q 2878 2963 2633 3030 
Q 2388 3097 2138 3097 
Q 1578 3097 1268 2742 
Q 959 2388 959 1747 
Q 959 1106 1268 751 
Q 1578 397 2138 397 
Q 2388 397 2633 464 
Q 2878 531 3122 666 
L 3122 134 
Q 2881 22 2623 -34 
Q 2366 -91 2075 -91 
Q 1284 -91 818 406 
Q 353 903 353 1747 
Q 353 2603 823 3093 
Q 1294 3584 2113 3584 
Q 2378 3584 2631 3529 
Q 2884 3475 3122 3366 
z
" transform="scale(0.015625)"/>
       <path id="DejaVuSans-6e" d="M 3513 2113 
L 3513 0 
L 2938 0 
L 2938 2094 
Q 2938 2591 2744 2837 
Q 2550 3084 2163 3084 
Q 1697 3084 1428 2787 
Q 1159 2491 1159 1978 
L 1159 0 
L 581 0 
L 581 3500 
L 1159 3500 
L 1159 2956 
Q 1366 3272 1645 3428 
Q 1925 3584 2291 3584 
Q 2894 3584 3203 3211 
Q 3513 2838 3513 2113 
z
" transform="scale(0.015625)"/>
       <path id="DejaVuSans-69" d="M 603 3500 
L 1178 3500 
L 1178 0 
L 603 0 
L 603 3500 
z
M 603 4863 
L 1178 4863 
L 1178 4134 
L 603 4134 
L 603 4863 
z
" transform="scale(0.015625)"/>
       <path id="DejaVuSans-74" d="M 1172 4494 
L 1172 3500 
L 2356 3500 
L 2356 3053 
L 1172 3053 
L 1172 1153 
Q 1172 725 1289 603 
Q 1406 481 1766 481 
L 2356 481 
L 2356 0 
L 1766 0 
Q 1100 0 847 248 
Q 594 497 594 1153 
L 594 3053 
L 172 3053 
L 172 3500 
L 594 3500 
L 594 4494 
L 1172 4494 
z
" transform="scale(0.015625)"/>
       <path id="DejaVuSans-73" d="M 2834 3397 
L 2834 2853 
Q 2591 2978 2328 3040 
Q 2066 3103 1784 3103 
Q 1356 3103 1142 2972 
Q 928 2841 928 2578 
Q 928 2378 1081 2264 
Q 1234 2150 1697 2047 
L 1894 2003 
Q 2506 1872 2764 1633 
Q 3022 1394 3022 966 
Q 3022 478 2636 193 
Q 2250 -91 1575 -91 
Q 1294 -91 989 -36 
Q 684 19 347 128 
L 347 722 
Q 666 556 975 473 
Q 1284 391 1588 391 
Q 1994 391 2212 530 
Q 2431 669 2431 922 
Q 2431 1156 2273 1281 
Q 2116 1406 1581 1522 
L 1381 1569 
Q 847 1681 609 1914 
Q 372 2147 372 2553 
Q 372 3047 722 3315 
Q 1072 3584 1716 3584 
Q 2034 3584 2315 3537 
Q 2597 3491 2834 3397 
z
" transform="scale(0.015625)"/>
       <path id="DejaVuSans-29" d="M 513 4856 
L 1013 4856 
Q 1481 4119 1714 3412 
Q 1947 2706 1947 2009 
Q 1947 1309 1714 600 
Q 1481 -109 1013 -844 
L 513 -844 
Q 928 -128 1133 580 
Q 1338 1288 1338 2009 
Q 1338 2731 1133 3434 
Q 928 4138 513 4856 
z
" transform="scale(0.015625)"/>
      </defs>
      <use xlink:href="#DejaVuSans-7c"/>
      <use xlink:href="#DejaVuSans-6b" transform="translate(33.691406 0)"/>
      <use xlink:href="#DejaVuSans-5f" transform="translate(91.601562 0)"/>
      <use xlink:href="#DejaVuSans-78" transform="translate(141.601562 0)"/>
      <use xlink:href="#DejaVuSans-79" transform="translate(200.78125 0)"/>
      <use xlink:href="#DejaVuSans-7c" transform="translate(259.960938 0)"/>
      <use xlink:href="#DejaVuSans-20" transform="translate(293.652344 0)"/>
      <use xlink:href="#DejaVuSans-28" transform="translate(325.439453 0)"/>
      <use xlink:href="#DejaVuSans-72" transform="translate(364.453125 0)"/>
      <use xlink:href="#DejaVuSans-65" transform="translate(403.316406 0)"/>
      <use xlink:href="#DejaVuSans-64" transform="translate(464.839844 0)"/>
      <use xlink:href="#DejaVuSans-75" transform="translate(528.316406 0)"/>
      <use xlink:href="#DejaVuSans-63" transform="translate(591.695312 0)"/>
      <use xlink:href="#DejaVuSans-65" transform="translate(646.675781 0)"/>
      <use xlink:href="#DejaVuSans-64" transform="translate(708.199219 0)"/>
      <use xlink:href="#DejaVuSans-20" transform="translate(771.675781 0)"/>
      <use xlink:href="#DejaVuSans-75" transform="translate(803.462891 0)"/>
      <use xlink:href="#DejaVuSans-6e" transform="translate(866.841797 0)"/>
      <use xlink:href="#DejaVuSans-69" transform="translate(930.220703 0)"/>
      <use xlink:href="#DejaVuSans-74" transform="translate(958.003906 0)"/>
      <use xlink:href="#DejaVuSans-73" transform="translate(997.212891 0)"/>
      <use xlink:href="#DejaVuSans-29" transform="translate(1049.3125 0)"/>
     </g>
    </g>
   </g>
   <g id="matplotlib.axis_2">
    <g id="ytick_1">
     <g id="line2d_9">
      <defs>
       <path id="m29104af884" d="M 0 0 
L -3.5 0 
" style="stroke: #000000; stroke-width: 0.8"/>
      </defs>
      <g>
       <use xlink:href="#m29104af884" x="44.059375" y="274.374307" style="stroke: #000000; stroke-width: 0.8"/>
      </g>
     </g>
     <g id="text_10">
      <!-- 0.0 -->
      <g transform="translate(21.15625 278.173526) scale(0.1 -0.1)">
       <defs>
        <path id="DejaVuSans-2e" d="M 684 794 
L 1344 794 
L 1344 0 
L 684 0 
L 684 794 
z
" transform="scale(0.015625)"/>
       </defs>
       <use xlink:href="#DejaVuSans-30"/>
       <use xlink:href="#DejaVuSans-2e" transform="translate(63.623047 0)"/>
       <use xlink:href="#DejaVuSans-30" transform="translate(95.410156 0)"/>
      </g>
     </g>
    </g>
    <g id="ytick_2">
     <g id="line2d_10">
      <g>
       <use xlink:href="#m29104af884" x="44.059375" y="241.452421" style="stroke: #000000; stroke-width: 0.8"/>
      </g>
     </g>
     <g id="text_11">
      <!-- 0.2 -->
      <g transform="translate(21.15625 245.25164) scale(0.1 -0.1)">
       <use xlink:href="#DejaVuSans-30"/>
       <use xlink:href="#DejaVuSans-2e" transform="translate(63.623047 0)"/>
       <use xlink:href="#DejaVuSans-32" transform="translate(95.410156 0)"/>
      </g>
     </g>
    </g>
    <g id="ytick_3">
     <g id="line2d_11">
      <g>
       <use xlink:href="#m29104af884" x="44.059375" y="208.530535" style="stroke: #000000; stroke-width: 0.8"/>
      </g>
     </g>
     <g id="text_12">
      <!-- 0.4 -->
      <g transform="translate(21.15625 212.329754) scale(0.1 -0.1)">
       <use xlink:href="#DejaVuSans-30"/>
       <use xlink:href="#DejaVuSans-2e" transform="translate(63.623047 0)"/>
       <use xlink:href="#DejaVuSans-34" transform="translate(95.410156 0)"/>
      </g>
     </g>
    </g>
    <g id="ytick_4">
     <g id="line2d_12">
      <g>
       <use xlink:href="#m29104af884" x="44.059375" y="175.608649" style="stroke: #000000; stroke-width: 0.8"/>
      </g>
     </g>
     <g id="text_13">
      <!-- 0.6 -->
      <g transform="translate(21.15625 179.407868) scale(0.1 -0.1)">
       <use xlink:href="#DejaVuSans-30"/>
       <use xlink:href="#DejaVuSans-2e" transform="translate(63.623047 0)"/>
       <use xlink:href="#DejaVuSans-36" transform="translate(95.410156 0)"/>
      </g>
     </g>
    </g>
    <g id="ytick_5">
     <g id="line2d_13">
      <g>
       <use xlink:href="#m29104af884" x="44.059375" y="142.686763" style="stroke: #000000; stroke-width: 0.8"/>
      </g>
     </g>
     <g id="text_14">
      <!-- 0.8 -->
      <g transform="translate(21.15625 146.485982) scale(0.1 -0.1)">
       <use xlink:href="#DejaVuSans-30"/>
       <use xlink:href="#DejaVuSans-2e" transform="translate(63.623047 0)"/>
       <use xlink:href="#DejaVuSans-38" transform="translate(95.410156 0)"/>
      </g>
     </g>
    </g>
    <g id="ytick_6">
     <g id="line2d_14">
      <g>
       <use xlink:href="#m29104af884" x="44.059375" y="109.764877" style="stroke: #000000; stroke-width: 0.8"/>
      </g>
     </g>
     <g id="text_15">
      <!-- 1.0 -->
      <g transform="translate(21.15625 113.564096) scale(0.1 -0.1)">
       <use xlink:href="#DejaVuSans-31"/>
       <use xlink:href="#DejaVuSans-2e" transform="translate(63.623047 0)"/>
       <use xlink:href="#DejaVuSans-30" transform="translate(95.410156 0)"/>
      </g>
     </g>
    </g>
    <g id="ytick_7">
     <g id="line2d_15">
      <g>
       <use xlink:href="#m29104af884" x="44.059375" y="76.842991" style="stroke: #000000; stroke-width: 0.8"/>
      </g>
     </g>
     <g id="text_16">
      <!-- 1.2 -->
      <g transform="translate(21.15625 80.64221) scale(0.1 -0.1)">
       <use xlink:href="#DejaVuSans-31"/>
       <use xlink:href="#DejaVuSans-2e" transform="translate(63.623047 0)"/>
       <use xlink:href="#DejaVuSans-32" transform="translate(95.410156 0)"/>
      </g>
     </g>
    </g>
    <g id="ytick_8">
     <g id="line2d_16">
      <g>
       <use xlink:href="#m29104af884" x="44.059375" y="43.921105" style="stroke: #000000; stroke-width: 0.8"/>
      </g>
     </g>
     <g id="text_17">
      <!-- 1.4 -->
      <g transform="translate(21.15625 47.720324) scale(0.1 -0.1)">
       <use xlink:href="#DejaVuSans-31"/>
       <use xlink:href="#DejaVuSans-2e" transform="translate(63.623047 0)"/>
       <use xlink:href="#DejaVuSans-34" transform="translate(95.410156 0)"/>
      </g>
     </g>
    </g>
    <g id="ytick_9">
     <g id="line2d_17">
      <g>
       <use xlink:href="#m29104af884" x="44.059375" y="10.999219" style="stroke: #000000; stroke-width: 0.8"/>
      </g>
     </g>
     <g id="text_18">
      <!-- 1.6 -->
      <g transform="translate(21.15625 14.798438) scale(0.1 -0.1)">
       <use xlink:href="#DejaVuSans-31"/>
       <use xlink:href="#DejaVuSans-2e" transform="translate(63.623047 0)"/>
       <use xlink:href="#DejaVuSans-36" transform="translate(95.410156 0)"/>
      </g>
     </g>
    </g>
    <g id="text_19">
     <!-- S_xy(k) -->
     <g transform="translate(14.798437 159.708151) rotate(-90) scale(0.1 -0.1)">
      <defs>
       <path id="DejaVuSans-53" d="M 3425 4513 
L 3425 3897 
Q 3066 4069 2747 4153 
Q 2428 4238 2131 4238 
Q 1616 4238 1336 4038 
Q 1056 3838 1056 3469 
Q 1056 3159 1242 3001 
Q 1428 2844 1947 2747 
L 2328 2669 
Q 3034 2534 3370 2195 
Q 3706 1856 3706 1288 
Q 3706 609 3251 259 
Q 2797 -91 1919 -91 
Q 1588 -91 1214 -16 
Q 841 59 441 206 
L 441 856 
Q 825 641 1194 531 
Q 1563 422 1919 422 
Q 2459 422 2753 634 
Q 3047 847 3047 1241 
Q 3047 1584 2836 1778 
Q 2625 1972 2144 2069 
L 1759 2144 
Q 1053 2284 737 2584 
Q 422 2884 422 3419 
Q 422 4038 858 4394 
Q 1294 4750 2059 4750 
Q 2388 4750 2728 4690 
Q 3069 4631 3425 4513 
z
" transform="scale(0.015625)"/>
      </defs>
      <use xlink:href="#DejaVuSans-53"/>
      <use xlink:href="#DejaVuSans-5f" transform="translate(63.476562 0)"/>
      <use xlink:href="#DejaVuSans-78" transform="translate(113.476562 0)"/>
      <use xlink:href="#DejaVuSans-79" transform="translate(172.65625 0)"/>
      <use xlink:href="#DejaVuSans-28" transform="translate(231.835938 0)"/>
      <use xlink:href="#DejaVuSans-6b" transform="translate(270.849609 0)"/>
      <use xlink:href="#DejaVuSans-29" transform="translate(328.759766 0)"/>
     </g>
    </g>
   </g>
   <g id="line2d_18">
    <path d="M 8.445816 67.45624 
L 16.493801 88.661752 
L 27.875371 140.379085 
L 32.462067 163.014628 
L 43.971342 150.897856 
L 47.304927 156.777224 
L 50.45791 136.401413 
L 59.070519 135.210073 
L 66.734483 180.93197 
L 69.12637 159.350726 
L 71.448883 115.250301 
L 75.907874 109.92361 
L 86.164038 101.696788 
L 88.087943 141.483489 
L 93.647619 128.10055 
L 98.926424 83.861077 
L 102.309064 68.924662 
L 105.593594 115.380038 
L 107.201633 69.079017 
L 111.899559 58.84382 
L 113.426118 51.673131 
L 119.353681 101.757172 
L 125.023149 115.311973 
L 126.403965 76.140629 
L 129.124778 118.250966 
L 130.46556 123.540322 
L 136.987347 102.632364 
L 140.76594 94.083792 
L 144.452705 110.407078 
L 145.662345 104.004428 
L 149.23648 130.553928 
L 153.881506 133.532189 
L 155.022456 117.237481 
L 156.155617 138.879796 
L 162.799488 119.165515 
L 163.88226 94.694667 
L 164.958369 90.523881 
L 168.147912 130.663184 
L 172.314321 135.369798 
L 173.341209 85.275064 
L 180.37519 112.768897 
L 181.359047 149.805834 
L 183.311816 108.102315 
L 184.280877 104.998369 
L 187.159626 132.966462 
L 189.055778 115.73229 
L 191.866776 116.303143 
L 195.555269 91.405005 
L 198.278978 124.597885 
L 199.179037 122.6381 
L 202.741371 110.461084 
L 203.622716 121.646181 
L 206.245295 110.579653 
L 208.836588 105.365215 
L 210.547278 107.532296 
L 215.601868 108.606102 
L 216.433377 126.507356 
L 222.170927 109.381001 
L 222.979091 107.691307 
L 223.784473 92.295022 
L 225.387005 115.866812 
L 226.184211 104.516318 
L 229.34659 108.576005 
L 232.467894 97.927211 
L 234.782858 92.114169 
L 236.314129 126.092367 
L 237.835977 115.94843 
L 241.600482 101.932586 
L 242.346671 106.05587 
L 244.572164 106.336102 
L 248.238864 117.117143 
L 249.691102 99.860788 
L 250.414196 109.404141 
L 253.286787 115.493858 
L 258.940273 96.408155 
L 259.638654 115.083809 
L 261.030038 123.649551 
L 261.723068 118.629724 
L 263.79167 106.010914 
L 265.16213 111.961368 
L 267.20516 106.905597 
L 269.233296 116.234343 
L 271.914859 101.832757 
L 275.89021 123.682971 
L 277.857369 96.340947 
L 280.459594 100.616115 
L 281.106528 117.925142 
L 283.038789 87.711336 
L 284.958434 96.972767 
L 285.595554 107.732644 
L 286.231309 108.469164 
L 290.644075 122.559665 
L 291.269211 99.844736 
L 292.51562 123.279285 
L 293.136909 87.943009 
L 296.224508 104.002556 
L 302.30843 91.334762 
L 302.910337 115.932612 
L 305.306509 109.914619 
L 307.684665 119.923301 
L 310.632632 129.374703 
L 312.388512 101.014233 
L 318.746752 102.34717 
L 319.318705 116.592829 
L 319.889669 108.320036 
L 323.294974 111.569526 
L 328.894672 122.049731 
L 332.760188 128.4522 
L 334.949662 122.662235 
L 339.287554 118.536505 
L 346.224293 117.348689 
L 347.279563 107.256065 
L 350.426885 116.705375 
L 360.217398 110.340893 
L 362.245835 118.523392 
L 373.701834 110.343681 
L 374.681926 93.38395 
L 387.67741 87.701049 
L 401.179375 107.215016 
" clip-path="url(#p009af77a61)" style="fill: none; stroke: #ff7f0e; stroke-width: 1.5; stroke-linecap: square"/>
   </g>
   <g id="line2d_19">
    <path d="M 44.059375 109.764877 
L 401.179375 109.764877 
" clip-path="url(#p009af77a61)" style="fill: none; stroke-dasharray: 5.55,2.4; stroke-dashoffset: 0; stroke: #000000; stroke-opacity: 0.4; stroke-width: 1.5"/>
   </g>
   <g id="patch_3">
    <path d="M 44.059375 274.374307 
L 44.059375 8.262307 
" style="fill: none; stroke: #000000; stroke-width: 0.8; stroke-linejoin: miter; stroke-linecap: square"/>
   </g>
   <g id="patch_4">
    <path d="M 401.179375 274.374307 
L 401.179375 8.262307 
" style="fill: none; stroke: #000000; stroke-width: 0.8; stroke-linejoin: miter; stroke-linecap: square"/>
   </g>
   <g id="patch_5">
    <path d="M 44.059375 274.374307 
L 401.179375 274.374307 
" style="fill: none; stroke: #000000; stroke-width: 0.8; stroke-linejoin: miter; stroke-linecap: square"/>
   </g>
   <g id="patch_6">
    <path d="M 44.059375 8.262307 
L 401.179375 8.262307 
" style="fill: none; stroke: #000000; stroke-width: 0.8; stroke-linejoin: miter; stroke-linecap: square"/>
   </g>
   <g id="legend_1">
    <g id="patch_7">
     <path d="M 328.018438 45.618557 
L 394.179375 45.618557 
Q 396.179375 45.618557 396.179375 43.618557 
L 396.179375 15.262307 
Q 396.179375 13.262307 394.179375 13.262307 
L 328.018438 13.262307 
Q 326.018438 13.262307 326.018438 15.262307 
L 326.018438 43.618557 
Q 326.018438 45.618557 328.018438 45.618557 
z
" style="fill: #ffffff; opacity: 0.8; stroke: #cccccc; stroke-linejoin: miter"/>
    </g>
    <g id="line2d_20">
     <path d="M 330.018438 21.360745 
L 340.018438 21.360745 
L 350.018438 21.360745 
" style="fill: none; stroke: #ff7f0e; stroke-width: 1.5; stroke-linecap: square"/>
    </g>
    <g id="text_20">
     <!-- Mean -->
     <g transform="translate(358.018438 24.860745) scale(0.1 -0.1)">
      <defs>
       <path id="DejaVuSans-4d" d="M 628 4666 
L 1569 4666 
L 2759 1491 
L 3956 4666 
L 4897 4666 
L 4897 0 
L 4281 0 
L 4281 4097 
L 3078 897 
L 2444 897 
L 1241 4097 
L 1241 0 
L 628 0 
L 628 4666 
z
" transform="scale(0.015625)"/>
       <path id="DejaVuSans-61" d="M 2194 1759 
Q 1497 1759 1228 1600 
Q 959 1441 959 1056 
Q 959 750 1161 570 
Q 1363 391 1709 391 
Q 2188 391 2477 730 
Q 2766 1069 2766 1631 
L 2766 1759 
L 2194 1759 
z
M 3341 1997 
L 3341 0 
L 2766 0 
L 2766 531 
Q 2569 213 2275 61 
Q 1981 -91 1556 -91 
Q 1019 -91 701 211 
Q 384 513 384 1019 
Q 384 1609 779 1909 
Q 1175 2209 1959 2209 
L 2766 2209 
L 2766 2266 
Q 2766 2663 2505 2880 
Q 2244 3097 1772 3097 
Q 1472 3097 1187 3025 
Q 903 2953 641 2809 
L 641 3341 
Q 956 3463 1253 3523 
Q 1550 3584 1831 3584 
Q 2591 3584 2966 3190 
Q 3341 2797 3341 1997 
z
" transform="scale(0.015625)"/>
      </defs>
      <use xlink:href="#DejaVuSans-4d"/>
      <use xlink:href="#DejaVuSans-65" transform="translate(86.279297 0)"/>
      <use xlink:href="#DejaVuSans-61" transform="translate(147.802734 0)"/>
      <use xlink:href="#DejaVuSans-6e" transform="translate(209.082031 0)"/>
     </g>
    </g>
    <g id="patch_8">
     <path d="M 330.018438 39.53887 
L 350.018438 39.53887 
L 350.018438 32.53887 
L 330.018438 32.53887 
z
" style="fill: #ff7f0e; fill-opacity: 0.3; stroke: #ff7f0e; stroke-opacity: 0.3; stroke-linejoin: miter"/>
    </g>
    <g id="text_21">
     <!-- Std Err -->
     <g transform="translate(358.018438 39.53887) scale(0.1 -0.1)">
      <defs>
       <path id="DejaVuSans-45" d="M 628 4666 
L 3578 4666 
L 3578 4134 
L 1259 4134 
L 1259 2753 
L 3481 2753 
L 3481 2222 
L 1259 2222 
L 1259 531 
L 3634 531 
L 3634 0 
L 628 0 
L 628 4666 
z
" transform="scale(0.015625)"/>
      </defs>
      <use xlink:href="#DejaVuSans-53"/>
      <use xlink:href="#DejaVuSans-74" transform="translate(63.476562 0)"/>
      <use xlink:href="#DejaVuSans-64" transform="translate(102.685547 0)"/>
      <use xlink:href="#DejaVuSans-20" transform="translate(166.162109 0)"/>
      <use xlink:href="#DejaVuSans-45" transform="translate(197.949219 0)"/>
      <use xlink:href="#DejaVuSans-72" transform="translate(261.132812 0)"/>
      <use xlink:href="#DejaVuSans-72" transform="translate(300.496094 0)"/>
     </g>
    </g>
   </g>
  </g>
 </g>
 <defs>
  <clipPath id="p009af77a61">
   <rect x="44.059375" y="8.262307" width="357.12" height="266.112"/>
  </clipPath>
 </defs>
</svg>
