<?xml version="1.0" encoding="utf-8" standalone="no"?>
<!DOCTYPE svg PUBLIC "-//W3C//DTD SVG 1.1//EN"
  "http://www.w3.org/Graphics/SVG/1.1/DTD/svg11.dtd">
<svg xmlns:xlink="http://www.w3.org/1999/xlink" width="398.560625pt" height="310.86825pt" viewBox="0 0 398.560625 310.86825" xmlns="http://www.w3.org/2000/svg" version="1.1">
 <metadata>
  <rdf:RDF xmlns:dc="http://purl.org/dc/elements/1.1/" xmlns:cc="http://creativecommons.org/ns#" xmlns:rdf="http://www.w3.org/1999/02/22-rdf-syntax-ns#">
   <cc:Work>
    <dc:type rdf:resource="http://purl.org/dc/dcmitype/StillImage"/>
    <dc:date>2025-12-11T12:55:23.497262</dc:date>
    <dc:format>image/svg+xml</dc:format>
    <dc:creator>
     <cc:Agent>
      <dc:title>Matplotlib v3.10.5, https://matplotlib.org/</dc:title>
     </cc:Agent>
    </dc:creator>
   </cc:Work>
  </rdf:RDF>
 </metadata>
 <defs>
  <style type="text/css">*{stroke-linejoin: round; stroke-linecap: butt}</style>
 </defs>
 <g id="figure_1">
  <g id="patch_1">
   <path d="M 0 310.86825 
L 398.560625 310.86825 
L 398.560625 0 
L 0 0 
z
" style="fill: #ffffff"/>
  </g>
  <g id="axes_1">
   <g id="patch_2">
    <path d="M 34.240625 273.312 
L 391.360625 273.312 
L 391.360625 7.2 
L 34.240625 7.2 
z
" style="fill: #ffffff"/>
   </g>
   <g id="FillBetweenPolyCollection_1">
    <defs>
     <path id="mc6f4ce49a3" d="M 50.473352 -49.65225 
L 50.473352 -49.65225 
L 52.104782 -49.65225 
L 53.736212 -49.65225 
L 55.367642 -49.65225 
L 56.999072 -49.65225 
L 58.630502 -49.65225 
L 60.261932 -49.65225 
L 61.893361 -49.65225 
L 63.524791 -49.65225 
L 65.156221 -49.65225 
L 66.787651 -49.65225 
L 68.419081 -49.65225 
L 70.050511 -49.65225 
L 71.681941 -49.65225 
L 73.313371 -49.65225 
L 74.9448 -49.65225 
L 76.57623 -49.65225 
L 78.20766 -49.65225 
L 79.83909 -49.65225 
L 81.47052 -49.65225 
L 83.10195 -49.65225 
L 84.73338 -49.65225 
L 86.36481 -49.65225 
L 87.996239 -49.65225 
L 89.627669 -49.65225 
L 91.259099 -49.65225 
L 92.890529 -49.65225 
L 94.521959 -49.65225 
L 96.153389 -49.65225 
L 97.784819 -49.65225 
L 99.416249 -49.65225 
L 101.047678 -49.65225 
L 102.679108 -49.65225 
L 104.310538 -49.65225 
L 105.941968 -49.65225 
L 107.573398 -49.65225 
L 109.204828 -49.65225 
L 110.836258 -49.65225 
L 112.467688 -49.65225 
L 114.099117 -49.65225 
L 115.730547 -49.65225 
L 117.361977 -49.65225 
L 118.993407 -49.65225 
L 120.624837 -49.65225 
L 122.256267 -49.65225 
L 123.887697 -49.777745 
L 125.519127 -50.671427 
L 127.150556 -55.962274 
L 128.781986 -73.259749 
L 130.413416 -106.929089 
L 132.044846 -156.200944 
L 133.676276 -207.002977 
L 135.307706 -249.287767 
L 136.939136 -272.926388 
L 138.570566 -284.720323 
L 140.201995 -283.46273 
L 141.833425 -270.860923 
L 143.464855 -257.77453 
L 145.096285 -237.688412 
L 146.727715 -221.445191 
L 148.359145 -202.388651 
L 149.990575 -189.824522 
L 151.622005 -175.58392 
L 153.253435 -163.120549 
L 154.884864 -153.219466 
L 156.516294 -143.834521 
L 158.147724 -137.677907 
L 159.779154 -131.256211 
L 161.410584 -125.168362 
L 163.042014 -122.303808 
L 164.673444 -116.40595 
L 166.304874 -114.364169 
L 167.936303 -111.44452 
L 169.567733 -108.771994 
L 171.199163 -108.394311 
L 172.830593 -105.945227 
L 174.462023 -105.006719 
L 176.093453 -104.611051 
L 177.724883 -103.771486 
L 179.356313 -103.630518 
L 180.987742 -104.738948 
L 182.619172 -104.108445 
L 184.250602 -105.030393 
L 185.882032 -106.528137 
L 187.513462 -107.27957 
L 189.144892 -108.574884 
L 190.776322 -110.749003 
L 192.407752 -112.873607 
L 194.039181 -115.652585 
L 195.670611 -117.523755 
L 197.302041 -121.110031 
L 198.933471 -123.773694 
L 200.564901 -125.827211 
L 202.196331 -129.212908 
L 203.827761 -131.689229 
L 205.459191 -133.982528 
L 207.09062 -136.368441 
L 208.72205 -138.234772 
L 210.35348 -139.995021 
L 211.98491 -142.278079 
L 213.61634 -144.671263 
L 215.24777 -145.298149 
L 216.8792 -146.648293 
L 218.51063 -146.334492 
L 220.142059 -148.4625 
L 221.773489 -147.675159 
L 223.404919 -147.455666 
L 225.036349 -148.199761 
L 226.667779 -146.053179 
L 228.299209 -144.358687 
L 229.930639 -142.206546 
L 231.562069 -139.411876 
L 233.193498 -139.012321 
L 234.824928 -136.902569 
L 236.456358 -134.607659 
L 238.087788 -132.125734 
L 239.719218 -129.389609 
L 241.350648 -128.457112 
L 242.982078 -125.883381 
L 244.613508 -124.796003 
L 246.244937 -123.684936 
L 247.876367 -121.482418 
L 249.507797 -121.28402 
L 251.139227 -119.998654 
L 252.770657 -118.748226 
L 254.402087 -118.022094 
L 256.033517 -117.329421 
L 257.664947 -116.897839 
L 259.296376 -117.557274 
L 260.927806 -116.742276 
L 262.559236 -117.029048 
L 264.190666 -116.647633 
L 265.822096 -116.998018 
L 267.453526 -117.657949 
L 269.084956 -119.329191 
L 270.716386 -118.238421 
L 272.347815 -119.641428 
L 273.979245 -120.271563 
L 275.610675 -121.660804 
L 277.242105 -122.507428 
L 278.873535 -123.228064 
L 280.504965 -124.057638 
L 282.136395 -125.583372 
L 283.767825 -126.463604 
L 285.399255 -126.885571 
L 287.030684 -126.759634 
L 288.662114 -127.481528 
L 290.293544 -127.769172 
L 291.924974 -128.883462 
L 293.556404 -128.576333 
L 295.187834 -128.78658 
L 296.819264 -128.57504 
L 298.450694 -128.494446 
L 300.082123 -128.537178 
L 301.713553 -128.005369 
L 303.344983 -128.076296 
L 304.976413 -127.628266 
L 306.607843 -127.447646 
L 308.239273 -126.344131 
L 309.870703 -125.821682 
L 311.502133 -124.940395 
L 313.133562 -124.920341 
L 314.764992 -124.113011 
L 316.396422 -123.047213 
L 318.027852 -122.333344 
L 319.659282 -120.992903 
L 321.290712 -120.84947 
L 322.922142 -120.780753 
L 324.553572 -120.376479 
L 326.185001 -119.666316 
L 327.816431 -118.655243 
L 329.447861 -118.671288 
L 331.079291 -118.484393 
L 332.710721 -117.280121 
L 334.342151 -116.985329 
L 335.973581 -117.380412 
L 337.605011 -116.38474 
L 339.23644 -116.092554 
L 340.86787 -115.525136 
L 342.4993 -114.587438 
L 344.13073 -113.408668 
L 345.76216 -112.720534 
L 347.39359 -112.208641 
L 349.02502 -111.720064 
L 350.65645 -110.613268 
L 352.287879 -110.057905 
L 353.919309 -109.17658 
L 355.550739 -108.947557 
L 357.182169 -108.379128 
L 358.813599 -107.786964 
L 360.445029 -107.276732 
L 362.076459 -105.969351 
L 363.707889 -105.744441 
L 365.339318 -104.748365 
L 366.970748 -103.727212 
L 368.602178 -103.443038 
L 370.233608 -102.499884 
L 371.865038 -101.280735 
L 373.496468 -100.917205 
L 375.127898 -100.099002 
L 375.127898 -100.4624 
L 375.127898 -100.4624 
L 373.496468 -101.155523 
L 371.865038 -101.827725 
L 370.233608 -103.031725 
L 368.602178 -103.747577 
L 366.970748 -104.402095 
L 365.339318 -105.499961 
L 363.707889 -106.611895 
L 362.076459 -106.927416 
L 360.445029 -107.814031 
L 358.813599 -108.401213 
L 357.182169 -108.989971 
L 355.550739 -109.757259 
L 353.919309 -110.02027 
L 352.287879 -111.094885 
L 350.65645 -111.346304 
L 349.02502 -112.666164 
L 347.39359 -113.141602 
L 345.76216 -114.016473 
L 344.13073 -114.354897 
L 342.4993 -115.982443 
L 340.86787 -116.587781 
L 339.23644 -117.165391 
L 337.605011 -117.569914 
L 335.973581 -117.768545 
L 334.342151 -118.039279 
L 332.710721 -118.070622 
L 331.079291 -118.871242 
L 329.447861 -119.216568 
L 327.816431 -119.458846 
L 326.185001 -120.288038 
L 324.553572 -121.30441 
L 322.922142 -121.29635 
L 321.290712 -121.309767 
L 319.659282 -121.710359 
L 318.027852 -122.73517 
L 316.396422 -123.554995 
L 314.764992 -124.640375 
L 313.133562 -125.362148 
L 311.502133 -125.658145 
L 309.870703 -126.51499 
L 308.239273 -126.91192 
L 306.607843 -127.992394 
L 304.976413 -128.281908 
L 303.344983 -128.98092 
L 301.713553 -128.600653 
L 300.082123 -129.287135 
L 298.450694 -129.187173 
L 296.819264 -129.389283 
L 295.187834 -129.534629 
L 293.556404 -129.520761 
L 291.924974 -129.539782 
L 290.293544 -128.68542 
L 288.662114 -128.149912 
L 287.030684 -127.983122 
L 285.399255 -127.872014 
L 283.767825 -127.563075 
L 282.136395 -126.147617 
L 280.504965 -124.929778 
L 278.873535 -124.092111 
L 277.242105 -123.05171 
L 275.610675 -122.533976 
L 273.979245 -121.678589 
L 272.347815 -121.259361 
L 270.716386 -120.16847 
L 269.084956 -120.63542 
L 267.453526 -120.065497 
L 265.822096 -118.445307 
L 264.190666 -118.616347 
L 262.559236 -118.332597 
L 260.927806 -118.171136 
L 259.296376 -118.742644 
L 257.664947 -117.882587 
L 256.033517 -118.821017 
L 254.402087 -119.205348 
L 252.770657 -120.124189 
L 251.139227 -121.592923 
L 249.507797 -122.52825 
L 247.876367 -122.872749 
L 246.244937 -124.603737 
L 244.613508 -125.63363 
L 242.982078 -127.002187 
L 241.350648 -129.230889 
L 239.719218 -130.625407 
L 238.087788 -133.551591 
L 236.456358 -134.861846 
L 234.824928 -137.655262 
L 233.193498 -139.880003 
L 231.562069 -140.63187 
L 229.930639 -143.140381 
L 228.299209 -145.179779 
L 226.667779 -146.974498 
L 225.036349 -148.824657 
L 223.404919 -148.525461 
L 221.773489 -149.027732 
L 220.142059 -148.732423 
L 218.51063 -147.736213 
L 216.8792 -147.905725 
L 215.24777 -146.266254 
L 213.61634 -145.846583 
L 211.98491 -144.016114 
L 210.35348 -141.685664 
L 208.72205 -139.921614 
L 207.09062 -137.992833 
L 205.459191 -135.578262 
L 203.827761 -132.976831 
L 202.196331 -130.771914 
L 200.564901 -127.780518 
L 198.933471 -124.830219 
L 197.302041 -122.18782 
L 195.670611 -118.762766 
L 194.039181 -116.449556 
L 192.407752 -113.707172 
L 190.776322 -112.254358 
L 189.144892 -110.573626 
L 187.513462 -108.770553 
L 185.882032 -107.910572 
L 184.250602 -106.190138 
L 182.619172 -106.724655 
L 180.987742 -106.498246 
L 179.356313 -104.973716 
L 177.724883 -106.17741 
L 176.093453 -106.568043 
L 174.462023 -107.210224 
L 172.830593 -107.35164 
L 171.199163 -110.322039 
L 169.567733 -110.593572 
L 167.936303 -113.61279 
L 166.304874 -115.693094 
L 164.673444 -117.575534 
L 163.042014 -122.590831 
L 161.410584 -126.585143 
L 159.779154 -132.056481 
L 158.147724 -138.662609 
L 156.516294 -145.534236 
L 154.884864 -155.304694 
L 153.253435 -165.68086 
L 151.622005 -178.031439 
L 149.990575 -191.741628 
L 148.359145 -203.849806 
L 146.727715 -224.711086 
L 145.096285 -240.387492 
L 143.464855 -258.938406 
L 141.833425 -275.508011 
L 140.201995 -286.099509 
L 138.570566 -291.57225 
L 136.939136 -280.702574 
L 135.307706 -252.566636 
L 133.676276 -212.863123 
L 132.044846 -161.08137 
L 130.413416 -109.045235 
L 128.781986 -74.24145 
L 127.150556 -56.642343 
L 125.519127 -50.801556 
L 123.887697 -49.884362 
L 122.256267 -49.65225 
L 120.624837 -49.65225 
L 118.993407 -49.65225 
L 117.361977 -49.65225 
L 115.730547 -49.65225 
L 114.099117 -49.65225 
L 112.467688 -49.65225 
L 110.836258 -49.65225 
L 109.204828 -49.65225 
L 107.573398 -49.65225 
L 105.941968 -49.65225 
L 104.310538 -49.65225 
L 102.679108 -49.65225 
L 101.047678 -49.65225 
L 99.416249 -49.65225 
L 97.784819 -49.65225 
L 96.153389 -49.65225 
L 94.521959 -49.65225 
L 92.890529 -49.65225 
L 91.259099 -49.65225 
L 89.627669 -49.65225 
L 87.996239 -49.65225 
L 86.36481 -49.65225 
L 84.73338 -49.65225 
L 83.10195 -49.65225 
L 81.47052 -49.65225 
L 79.83909 -49.65225 
L 78.20766 -49.65225 
L 76.57623 -49.65225 
L 74.9448 -49.65225 
L 73.313371 -49.65225 
L 71.681941 -49.65225 
L 70.050511 -49.65225 
L 68.419081 -49.65225 
L 66.787651 -49.65225 
L 65.156221 -49.65225 
L 63.524791 -49.65225 
L 61.893361 -49.65225 
L 60.261932 -49.65225 
L 58.630502 -49.65225 
L 56.999072 -49.65225 
L 55.367642 -49.65225 
L 53.736212 -49.65225 
L 52.104782 -49.65225 
L 50.473352 -49.65225 
z
" style="stroke: #1f77b4; stroke-opacity: 0.3"/>
    </defs>
    <g clip-path="url(#pd942319012)">
     <use xlink:href="#mc6f4ce49a3" x="0" y="310.86825" style="fill: #1f77b4; fill-opacity: 0.3; stroke: #1f77b4; stroke-opacity: 0.3"/>
    </g>
   </g>
   <g id="matplotlib.axis_1">
    <g id="xtick_1">
     <g id="line2d_1">
      <defs>
       <path id="m441b390c64" d="M 0 0 
L 0 3.5 
" style="stroke: #000000; stroke-width: 0.8"/>
      </defs>
      <g>
       <use xlink:href="#m441b390c64" x="49.657637" y="273.312" style="stroke: #000000; stroke-width: 0.8"/>
      </g>
     </g>
     <g id="text_1">
      <!-- 0.0 -->
      <g transform="translate(41.706075 287.910437) scale(0.1 -0.1)">
       <defs>
        <path id="DejaVuSans-30" d="M 2034 4250 
Q 1547 4250 1301 3770 
Q 1056 3291 1056 2328 
Q 1056 1369 1301 889 
Q 1547 409 2034 409 
Q 2525 409 2770 889 
Q 3016 1369 3016 2328 
Q 3016 3291 2770 3770 
Q 2525 4250 2034 4250 
z
M 2034 4750 
Q 2819 4750 3233 4129 
Q 3647 3509 3647 2328 
Q 3647 1150 3233 529 
Q 2819 -91 2034 -91 
Q 1250 -91 836 529 
Q 422 1150 422 2328 
Q 422 3509 836 4129 
Q 1250 4750 2034 4750 
z
" transform="scale(0.015625)"/>
        <path id="DejaVuSans-2e" d="M 684 794 
L 1344 794 
L 1344 0 
L 684 0 
L 684 794 
z
" transform="scale(0.015625)"/>
       </defs>
       <use xlink:href="#DejaVuSans-30"/>
       <use xlink:href="#DejaVuSans-2e" transform="translate(63.623047 0)"/>
       <use xlink:href="#DejaVuSans-30" transform="translate(95.410156 0)"/>
      </g>
     </g>
    </g>
    <g id="xtick_2">
     <g id="line2d_2">
      <g>
       <use xlink:href="#m441b390c64" x="90.443384" y="273.312" style="stroke: #000000; stroke-width: 0.8"/>
      </g>
     </g>
     <g id="text_2">
      <!-- 0.5 -->
      <g transform="translate(82.491822 287.910437) scale(0.1 -0.1)">
       <defs>
        <path id="DejaVuSans-35" d="M 691 4666 
L 3169 4666 
L 3169 4134 
L 1269 4134 
L 1269 2991 
Q 1406 3038 1543 3061 
Q 1681 3084 1819 3084 
Q 2600 3084 3056 2656 
Q 3513 2228 3513 1497 
Q 3513 744 3044 326 
Q 2575 -91 1722 -91 
Q 1428 -91 1123 -41 
Q 819 9 494 109 
L 494 744 
Q 775 591 1075 516 
Q 1375 441 1709 441 
Q 2250 441 2565 725 
Q 2881 1009 2881 1497 
Q 2881 1984 2565 2268 
Q 2250 2553 1709 2553 
Q 1456 2553 1204 2497 
Q 953 2441 691 2322 
L 691 4666 
z
" transform="scale(0.015625)"/>
       </defs>
       <use xlink:href="#DejaVuSans-30"/>
       <use xlink:href="#DejaVuSans-2e" transform="translate(63.623047 0)"/>
       <use xlink:href="#DejaVuSans-35" transform="translate(95.410156 0)"/>
      </g>
     </g>
    </g>
    <g id="xtick_3">
     <g id="line2d_3">
      <g>
       <use xlink:href="#m441b390c64" x="131.229131" y="273.312" style="stroke: #000000; stroke-width: 0.8"/>
      </g>
     </g>
     <g id="text_3">
      <!-- 1.0 -->
      <g transform="translate(123.277569 287.910437) scale(0.1 -0.1)">
       <defs>
        <path id="DejaVuSans-31" d="M 794 531 
L 1825 531 
L 1825 4091 
L 703 3866 
L 703 4441 
L 1819 4666 
L 2450 4666 
L 2450 531 
L 3481 531 
L 3481 0 
L 794 0 
L 794 531 
z
" transform="scale(0.015625)"/>
       </defs>
       <use xlink:href="#DejaVuSans-31"/>
       <use xlink:href="#DejaVuSans-2e" transform="translate(63.623047 0)"/>
       <use xlink:href="#DejaVuSans-30" transform="translate(95.410156 0)"/>
      </g>
     </g>
    </g>
    <g id="xtick_4">
     <g id="line2d_4">
      <g>
       <use xlink:href="#m441b390c64" x="172.014878" y="273.312" style="stroke: #000000; stroke-width: 0.8"/>
      </g>
     </g>
     <g id="text_4">
      <!-- 1.5 -->
      <g transform="translate(164.063316 287.910437) scale(0.1 -0.1)">
       <use xlink:href="#DejaVuSans-31"/>
       <use xlink:href="#DejaVuSans-2e" transform="translate(63.623047 0)"/>
       <use xlink:href="#DejaVuSans-35" transform="translate(95.410156 0)"/>
      </g>
     </g>
    </g>
    <g id="xtick_5">
     <g id="line2d_5">
      <g>
       <use xlink:href="#m441b390c64" x="212.800625" y="273.312" style="stroke: #000000; stroke-width: 0.8"/>
      </g>
     </g>
     <g id="text_5">
      <!-- 2.0 -->
      <g transform="translate(204.849063 287.910437) scale(0.1 -0.1)">
       <defs>
        <path id="DejaVuSans-32" d="M 1228 531 
L 3431 531 
L 3431 0 
L 469 0 
L 469 531 
Q 828 903 1448 1529 
Q 2069 2156 2228 2338 
Q 2531 2678 2651 2914 
Q 2772 3150 2772 3378 
Q 2772 3750 2511 3984 
Q 2250 4219 1831 4219 
Q 1534 4219 1204 4116 
Q 875 4013 500 3803 
L 500 4441 
Q 881 4594 1212 4672 
Q 1544 4750 1819 4750 
Q 2544 4750 2975 4387 
Q 3406 4025 3406 3419 
Q 3406 3131 3298 2873 
Q 3191 2616 2906 2266 
Q 2828 2175 2409 1742 
Q 1991 1309 1228 531 
z
" transform="scale(0.015625)"/>
       </defs>
       <use xlink:href="#DejaVuSans-32"/>
       <use xlink:href="#DejaVuSans-2e" transform="translate(63.623047 0)"/>
       <use xlink:href="#DejaVuSans-30" transform="translate(95.410156 0)"/>
      </g>
     </g>
    </g>
    <g id="xtick_6">
     <g id="line2d_6">
      <g>
       <use xlink:href="#m441b390c64" x="253.586372" y="273.312" style="stroke: #000000; stroke-width: 0.8"/>
      </g>
     </g>
     <g id="text_6">
      <!-- 2.5 -->
      <g transform="translate(245.634809 287.910437) scale(0.1 -0.1)">
       <use xlink:href="#DejaVuSans-32"/>
       <use xlink:href="#DejaVuSans-2e" transform="translate(63.623047 0)"/>
       <use xlink:href="#DejaVuSans-35" transform="translate(95.410156 0)"/>
      </g>
     </g>
    </g>
    <g id="xtick_7">
     <g id="line2d_7">
      <g>
       <use xlink:href="#m441b390c64" x="294.372119" y="273.312" style="stroke: #000000; stroke-width: 0.8"/>
      </g>
     </g>
     <g id="text_7">
      <!-- 3.0 -->
      <g transform="translate(286.420556 287.910437) scale(0.1 -0.1)">
       <defs>
        <path id="DejaVuSans-33" d="M 2597 2516 
Q 3050 2419 3304 2112 
Q 3559 1806 3559 1356 
Q 3559 666 3084 287 
Q 2609 -91 1734 -91 
Q 1441 -91 1130 -33 
Q 819 25 488 141 
L 488 750 
Q 750 597 1062 519 
Q 1375 441 1716 441 
Q 2309 441 2620 675 
Q 2931 909 2931 1356 
Q 2931 1769 2642 2001 
Q 2353 2234 1838 2234 
L 1294 2234 
L 1294 2753 
L 1863 2753 
Q 2328 2753 2575 2939 
Q 2822 3125 2822 3475 
Q 2822 3834 2567 4026 
Q 2313 4219 1838 4219 
Q 1578 4219 1281 4162 
Q 984 4106 628 3988 
L 628 4550 
Q 988 4650 1302 4700 
Q 1616 4750 1894 4750 
Q 2613 4750 3031 4423 
Q 3450 4097 3450 3541 
Q 3450 3153 3228 2886 
Q 3006 2619 2597 2516 
z
" transform="scale(0.015625)"/>
       </defs>
       <use xlink:href="#DejaVuSans-33"/>
       <use xlink:href="#DejaVuSans-2e" transform="translate(63.623047 0)"/>
       <use xlink:href="#DejaVuSans-30" transform="translate(95.410156 0)"/>
      </g>
     </g>
    </g>
    <g id="xtick_8">
     <g id="line2d_8">
      <g>
       <use xlink:href="#m441b390c64" x="335.157866" y="273.312" style="stroke: #000000; stroke-width: 0.8"/>
      </g>
     </g>
     <g id="text_8">
      <!-- 3.5 -->
      <g transform="translate(327.206303 287.910437) scale(0.1 -0.1)">
       <use xlink:href="#DejaVuSans-33"/>
       <use xlink:href="#DejaVuSans-2e" transform="translate(63.623047 0)"/>
       <use xlink:href="#DejaVuSans-35" transform="translate(95.410156 0)"/>
      </g>
     </g>
    </g>
    <g id="xtick_9">
     <g id="line2d_9">
      <g>
       <use xlink:href="#m441b390c64" x="375.943613" y="273.312" style="stroke: #000000; stroke-width: 0.8"/>
      </g>
     </g>
     <g id="text_9">
      <!-- 4.0 -->
      <g transform="translate(367.99205 287.910437) scale(0.1 -0.1)">
       <defs>
        <path id="DejaVuSans-34" d="M 2419 4116 
L 825 1625 
L 2419 1625 
L 2419 4116 
z
M 2253 4666 
L 3047 4666 
L 3047 1625 
L 3713 1625 
L 3713 1100 
L 3047 1100 
L 3047 0 
L 2419 0 
L 2419 1100 
L 313 1100 
L 313 1709 
L 2253 4666 
z
" transform="scale(0.015625)"/>
       </defs>
       <use xlink:href="#DejaVuSans-34"/>
       <use xlink:href="#DejaVuSans-2e" transform="translate(63.623047 0)"/>
       <use xlink:href="#DejaVuSans-30" transform="translate(95.410156 0)"/>
      </g>
     </g>
    </g>
    <g id="text_10">
     <!-- r (reduced units) -->
     <g transform="translate(171.011563 301.588562) scale(0.1 -0.1)">
      <defs>
       <path id="DejaVuSans-72" d="M 2631 2963 
Q 2534 3019 2420 3045 
Q 2306 3072 2169 3072 
Q 1681 3072 1420 2755 
Q 1159 2438 1159 1844 
L 1159 0 
L 581 0 
L 581 3500 
L 1159 3500 
L 1159 2956 
Q 1341 3275 1631 3429 
Q 1922 3584 2338 3584 
Q 2397 3584 2469 3576 
Q 2541 3569 2628 3553 
L 2631 2963 
z
" transform="scale(0.015625)"/>
       <path id="DejaVuSans-20" transform="scale(0.015625)"/>
       <path id="DejaVuSans-28" d="M 1984 4856 
Q 1566 4138 1362 3434 
Q 1159 2731 1159 2009 
Q 1159 1288 1364 580 
Q 1569 -128 1984 -844 
L 1484 -844 
Q 1016 -109 783 600 
Q 550 1309 550 2009 
Q 550 2706 781 3412 
Q 1013 4119 1484 4856 
L 1984 4856 
z
" transform="scale(0.015625)"/>
       <path id="DejaVuSans-65" d="M 3597 1894 
L 3597 1613 
L 953 1613 
Q 991 1019 1311 708 
Q 1631 397 2203 397 
Q 2534 397 2845 478 
Q 3156 559 3463 722 
L 3463 178 
Q 3153 47 2828 -22 
Q 2503 -91 2169 -91 
Q 1331 -91 842 396 
Q 353 884 353 1716 
Q 353 2575 817 3079 
Q 1281 3584 2069 3584 
Q 2775 3584 3186 3129 
Q 3597 2675 3597 1894 
z
M 3022 2063 
Q 3016 2534 2758 2815 
Q 2500 3097 2075 3097 
Q 1594 3097 1305 2825 
Q 1016 2553 972 2059 
L 3022 2063 
z
" transform="scale(0.015625)"/>
       <path id="DejaVuSans-64" d="M 2906 2969 
L 2906 4863 
L 3481 4863 
L 3481 0 
L 2906 0 
L 2906 525 
Q 2725 213 2448 61 
Q 2172 -91 1784 -91 
Q 1150 -91 751 415 
Q 353 922 353 1747 
Q 353 2572 751 3078 
Q 1150 3584 1784 3584 
Q 2172 3584 2448 3432 
Q 2725 3281 2906 2969 
z
M 947 1747 
Q 947 1113 1208 752 
Q 1469 391 1925 391 
Q 2381 391 2643 752 
Q 2906 1113 2906 1747 
Q 2906 2381 2643 2742 
Q 2381 3103 1925 3103 
Q 1469 3103 1208 2742 
Q 947 2381 947 1747 
z
" transform="scale(0.015625)"/>
       <path id="DejaVuSans-75" d="M 544 1381 
L 544 3500 
L 1119 3500 
L 1119 1403 
Q 1119 906 1312 657 
Q 1506 409 1894 409 
Q 2359 409 2629 706 
Q 2900 1003 2900 1516 
L 2900 3500 
L 3475 3500 
L 3475 0 
L 2900 0 
L 2900 538 
Q 2691 219 2414 64 
Q 2138 -91 1772 -91 
Q 1169 -91 856 284 
Q 544 659 544 1381 
z
M 1991 3584 
L 1991 3584 
z
" transform="scale(0.015625)"/>
       <path id="DejaVuSans-63" d="M 3122 3366 
L 3122 2828 
Q 2878 2963 2633 3030 
Q 2388 3097 2138 3097 
Q 1578 3097 1268 2742 
Q 959 2388 959 1747 
Q 959 1106 1268 751 
Q 1578 397 2138 397 
Q 2388 397 2633 464 
Q 2878 531 3122 666 
L 3122 134 
Q 2881 22 2623 -34 
Q 2366 -91 2075 -91 
Q 1284 -91 818 406 
Q 353 903 353 1747 
Q 353 2603 823 3093 
Q 1294 3584 2113 3584 
Q 2378 3584 2631 3529 
Q 2884 3475 3122 3366 
z
" transform="scale(0.015625)"/>
       <path id="DejaVuSans-6e" d="M 3513 2113 
L 3513 0 
L 2938 0 
L 2938 2094 
Q 2938 2591 2744 2837 
Q 2550 3084 2163 3084 
Q 1697 3084 1428 2787 
Q 1159 2491 1159 1978 
L 1159 0 
L 581 0 
L 581 3500 
L 1159 3500 
L 1159 2956 
Q 1366 3272 1645 3428 
Q 1925 3584 2291 3584 
Q 2894 3584 3203 3211 
Q 3513 2838 3513 2113 
z
" transform="scale(0.015625)"/>
       <path id="DejaVuSans-69" d="M 603 3500 
L 1178 3500 
L 1178 0 
L 603 0 
L 603 3500 
z
M 603 4863 
L 1178 4863 
L 1178 4134 
L 603 4134 
L 603 4863 
z
" transform="scale(0.015625)"/>
       <path id="DejaVuSans-74" d="M 1172 4494 
L 1172 3500 
L 2356 3500 
L 2356 3053 
L 1172 3053 
L 1172 1153 
Q 1172 725 1289 603 
Q 1406 481 1766 481 
L 2356 481 
L 2356 0 
L 1766 0 
Q 1100 0 847 248 
Q 594 497 594 1153 
L 594 3053 
L 172 3053 
L 172 3500 
L 594 3500 
L 594 4494 
L 1172 4494 
z
" transform="scale(0.015625)"/>
       <path id="DejaVuSans-73" d="M 2834 3397 
L 2834 2853 
Q 2591 2978 2328 3040 
Q 2066 3103 1784 3103 
Q 1356 3103 1142 2972 
Q 928 2841 928 2578 
Q 928 2378 1081 2264 
Q 1234 2150 1697 2047 
L 1894 2003 
Q 2506 1872 2764 1633 
Q 3022 1394 3022 966 
Q 3022 478 2636 193 
Q 2250 -91 1575 -91 
Q 1294 -91 989 -36 
Q 684 19 347 128 
L 347 722 
Q 666 556 975 473 
Q 1284 391 1588 391 
Q 1994 391 2212 530 
Q 2431 669 2431 922 
Q 2431 1156 2273 1281 
Q 2116 1406 1581 1522 
L 1381 1569 
Q 847 1681 609 1914 
Q 372 2147 372 2553 
Q 372 3047 722 3315 
Q 1072 3584 1716 3584 
Q 2034 3584 2315 3537 
Q 2597 3491 2834 3397 
z
" transform="scale(0.015625)"/>
       <path id="DejaVuSans-29" d="M 513 4856 
L 1013 4856 
Q 1481 4119 1714 3412 
Q 1947 2706 1947 2009 
Q 1947 1309 1714 600 
Q 1481 -109 1013 -844 
L 513 -844 
Q 928 -128 1133 580 
Q 1338 1288 1338 2009 
Q 1338 2731 1133 3434 
Q 928 4138 513 4856 
z
" transform="scale(0.015625)"/>
      </defs>
      <use xlink:href="#DejaVuSans-72"/>
      <use xlink:href="#DejaVuSans-20" transform="translate(41.113281 0)"/>
      <use xlink:href="#DejaVuSans-28" transform="translate(72.900391 0)"/>
      <use xlink:href="#DejaVuSans-72" transform="translate(111.914062 0)"/>
      <use xlink:href="#DejaVuSans-65" transform="translate(150.777344 0)"/>
      <use xlink:href="#DejaVuSans-64" transform="translate(212.300781 0)"/>
      <use xlink:href="#DejaVuSans-75" transform="translate(275.777344 0)"/>
      <use xlink:href="#DejaVuSans-63" transform="translate(339.15625 0)"/>
      <use xlink:href="#DejaVuSans-65" transform="translate(394.136719 0)"/>
      <use xlink:href="#DejaVuSans-64" transform="translate(455.660156 0)"/>
      <use xlink:href="#DejaVuSans-20" transform="translate(519.136719 0)"/>
      <use xlink:href="#DejaVuSans-75" transform="translate(550.923828 0)"/>
      <use xlink:href="#DejaVuSans-6e" transform="translate(614.302734 0)"/>
      <use xlink:href="#DejaVuSans-69" transform="translate(677.681641 0)"/>
      <use xlink:href="#DejaVuSans-74" transform="translate(705.464844 0)"/>
      <use xlink:href="#DejaVuSans-73" transform="translate(744.673828 0)"/>
      <use xlink:href="#DejaVuSans-29" transform="translate(796.773438 0)"/>
     </g>
    </g>
   </g>
   <g id="matplotlib.axis_2">
    <g id="ytick_1">
     <g id="line2d_10">
      <defs>
       <path id="m4e661622eb" d="M 0 0 
L -3.5 0 
" style="stroke: #000000; stroke-width: 0.8"/>
      </defs>
      <g>
       <use xlink:href="#m4e661622eb" x="34.240625" y="261.216" style="stroke: #000000; stroke-width: 0.8"/>
      </g>
     </g>
     <g id="text_11">
      <!-- 0 -->
      <g transform="translate(20.878125 265.015219) scale(0.1 -0.1)">
       <use xlink:href="#DejaVuSans-30"/>
      </g>
     </g>
    </g>
    <g id="ytick_2">
     <g id="line2d_11">
      <g>
       <use xlink:href="#m4e661622eb" x="34.240625" y="207.96915" style="stroke: #000000; stroke-width: 0.8"/>
      </g>
     </g>
     <g id="text_12">
      <!-- 1 -->
      <g transform="translate(20.878125 211.768369) scale(0.1 -0.1)">
       <use xlink:href="#DejaVuSans-31"/>
      </g>
     </g>
    </g>
    <g id="ytick_3">
     <g id="line2d_12">
      <g>
       <use xlink:href="#m4e661622eb" x="34.240625" y="154.7223" style="stroke: #000000; stroke-width: 0.8"/>
      </g>
     </g>
     <g id="text_13">
      <!-- 2 -->
      <g transform="translate(20.878125 158.521519) scale(0.1 -0.1)">
       <use xlink:href="#DejaVuSans-32"/>
      </g>
     </g>
    </g>
    <g id="ytick_4">
     <g id="line2d_13">
      <g>
       <use xlink:href="#m4e661622eb" x="34.240625" y="101.47545" style="stroke: #000000; stroke-width: 0.8"/>
      </g>
     </g>
     <g id="text_14">
      <!-- 3 -->
      <g transform="translate(20.878125 105.274669) scale(0.1 -0.1)">
       <use xlink:href="#DejaVuSans-33"/>
      </g>
     </g>
    </g>
    <g id="ytick_5">
     <g id="line2d_14">
      <g>
       <use xlink:href="#m4e661622eb" x="34.240625" y="48.2286" style="stroke: #000000; stroke-width: 0.8"/>
      </g>
     </g>
     <g id="text_15">
      <!-- 4 -->
      <g transform="translate(20.878125 52.027819) scale(0.1 -0.1)">
       <use xlink:href="#DejaVuSans-34"/>
      </g>
     </g>
    </g>
    <g id="text_16">
     <!-- g(r) -->
     <g transform="translate(14.798438 149.38725) rotate(-90) scale(0.1 -0.1)">
      <defs>
       <path id="DejaVuSans-67" d="M 2906 1791 
Q 2906 2416 2648 2759 
Q 2391 3103 1925 3103 
Q 1463 3103 1205 2759 
Q 947 2416 947 1791 
Q 947 1169 1205 825 
Q 1463 481 1925 481 
Q 2391 481 2648 825 
Q 2906 1169 2906 1791 
z
M 3481 434 
Q 3481 -459 3084 -895 
Q 2688 -1331 1869 -1331 
Q 1566 -1331 1297 -1286 
Q 1028 -1241 775 -1147 
L 775 -588 
Q 1028 -725 1275 -790 
Q 1522 -856 1778 -856 
Q 2344 -856 2625 -561 
Q 2906 -266 2906 331 
L 2906 616 
Q 2728 306 2450 153 
Q 2172 0 1784 0 
Q 1141 0 747 490 
Q 353 981 353 1791 
Q 353 2603 747 3093 
Q 1141 3584 1784 3584 
Q 2172 3584 2450 3431 
Q 2728 3278 2906 2969 
L 2906 3500 
L 3481 3500 
L 3481 434 
z
" transform="scale(0.015625)"/>
      </defs>
      <use xlink:href="#DejaVuSans-67"/>
      <use xlink:href="#DejaVuSans-28" transform="translate(63.476562 0)"/>
      <use xlink:href="#DejaVuSans-72" transform="translate(102.490234 0)"/>
      <use xlink:href="#DejaVuSans-29" transform="translate(143.603516 0)"/>
     </g>
    </g>
   </g>
   <g id="line2d_15">
    <path d="M 50.473352 261.216 
L 122.256267 261.216 
L 123.887697 261.037196 
L 125.519127 260.131758 
L 127.150556 254.565941 
L 128.781986 237.117651 
L 130.413416 202.881088 
L 133.676276 100.9352 
L 135.307706 59.941048 
L 136.939136 34.053769 
L 138.570566 22.721964 
L 140.201995 26.08713 
L 141.833425 37.683783 
L 143.464855 52.511782 
L 145.096285 71.830298 
L 146.727715 87.790112 
L 148.359145 107.749021 
L 149.990575 120.085175 
L 151.622005 134.060571 
L 153.253435 146.467546 
L 156.516294 166.183871 
L 159.779154 179.211904 
L 161.410584 184.991498 
L 163.042014 188.42093 
L 164.673444 193.877508 
L 166.304874 195.839619 
L 167.936303 198.339595 
L 169.567733 201.185467 
L 171.199163 201.510075 
L 172.830593 204.219817 
L 177.724883 205.893802 
L 179.356313 206.566133 
L 180.987742 205.249653 
L 182.619172 205.4517 
L 184.250602 205.257985 
L 185.882032 203.648896 
L 187.513462 202.843189 
L 189.144892 201.293995 
L 192.407752 197.577861 
L 194.039181 194.817179 
L 195.670611 192.72499 
L 197.302041 189.219324 
L 200.564901 184.064386 
L 202.196331 180.875839 
L 207.09062 173.687613 
L 210.35348 170.027908 
L 211.98491 167.721153 
L 213.61634 165.609327 
L 215.24777 165.086048 
L 216.8792 163.591241 
L 218.51063 163.832898 
L 220.142059 162.270788 
L 221.773489 162.516805 
L 223.404919 162.877687 
L 225.036349 162.356041 
L 226.667779 164.354412 
L 228.299209 166.099017 
L 229.930639 168.194786 
L 231.562069 170.846377 
L 233.193498 171.422088 
L 234.824928 173.589335 
L 236.456358 176.133498 
L 238.087788 178.029588 
L 239.719218 180.860742 
L 241.350648 182.02425 
L 242.982078 184.425466 
L 244.613508 185.653433 
L 246.244937 186.723914 
L 247.876367 188.690666 
L 249.507797 188.962115 
L 251.139227 190.072462 
L 252.770657 191.432043 
L 254.402087 192.254529 
L 256.033517 192.793031 
L 257.664947 193.478037 
L 259.296376 192.718291 
L 260.927806 193.411544 
L 262.559236 193.187428 
L 264.190666 193.23626 
L 265.822096 193.146587 
L 269.084956 190.885945 
L 270.716386 191.664805 
L 272.347815 190.417855 
L 273.979245 189.893174 
L 275.610675 188.77086 
L 277.242105 188.088681 
L 280.504965 186.374542 
L 282.136395 185.002755 
L 283.767825 183.854911 
L 285.399255 183.489457 
L 287.030684 183.496872 
L 290.293544 182.640954 
L 291.924974 181.656628 
L 293.556404 181.819703 
L 295.187834 181.707646 
L 298.450694 182.027441 
L 300.082123 181.956093 
L 301.713553 182.565239 
L 303.344983 182.339642 
L 304.976413 182.913163 
L 306.607843 183.14823 
L 308.239273 184.240225 
L 309.870703 184.699914 
L 311.502133 185.56898 
L 313.133562 185.727006 
L 314.764992 186.491557 
L 316.396422 187.567146 
L 318.027852 188.333993 
L 319.659282 189.516619 
L 321.290712 189.788632 
L 322.922142 189.829698 
L 324.553572 190.027806 
L 327.816431 191.811205 
L 329.447861 191.924322 
L 331.079291 192.190432 
L 332.710721 193.192878 
L 334.342151 193.355946 
L 335.973581 193.293771 
L 337.605011 193.890923 
L 339.23644 194.239278 
L 340.86787 194.811791 
L 342.4993 195.58331 
L 344.13073 196.986467 
L 345.76216 197.499747 
L 347.39359 198.193129 
L 349.02502 198.675136 
L 350.65645 199.888464 
L 352.287879 200.291855 
L 353.919309 201.269825 
L 355.550739 201.515842 
L 358.813599 202.774162 
L 360.445029 203.322869 
L 362.076459 204.419866 
L 363.707889 204.690082 
L 366.970748 206.803597 
L 368.602178 207.272942 
L 370.233608 208.102446 
L 371.865038 209.31402 
L 373.496468 209.831886 
L 375.127898 210.587549 
L 375.127898 210.587549 
" clip-path="url(#pd942319012)" style="fill: none; stroke: #1f77b4; stroke-width: 1.5; stroke-linecap: square"/>
   </g>
   <g id="line2d_16">
    <path d="M 34.240625 207.96915 
L 391.360625 207.96915 
" clip-path="url(#pd942319012)" style="fill: none; stroke-dasharray: 5.55,2.4; stroke-dashoffset: 0; stroke: #000000; stroke-opacity: 0.4; stroke-width: 1.5"/>
   </g>
   <g id="patch_3">
    <path d="M 34.240625 273.312 
L 34.240625 7.2 
" style="fill: none; stroke: #000000; stroke-width: 0.8; stroke-linejoin: miter; stroke-linecap: square"/>
   </g>
   <g id="patch_4">
    <path d="M 391.360625 273.312 
L 391.360625 7.2 
" style="fill: none; stroke: #000000; stroke-width: 0.8; stroke-linejoin: miter; stroke-linecap: square"/>
   </g>
   <g id="patch_5">
    <path d="M 34.240625 273.312 
L 391.360625 273.312 
" style="fill: none; stroke: #000000; stroke-width: 0.8; stroke-linejoin: miter; stroke-linecap: square"/>
   </g>
   <g id="patch_6">
    <path d="M 34.240625 7.2 
L 391.360625 7.2 
" style="fill: none; stroke: #000000; stroke-width: 0.8; stroke-linejoin: miter; stroke-linecap: square"/>
   </g>
   <g id="legend_1">
    <g id="patch_7">
     <path d="M 318.199688 44.55625 
L 384.360625 44.55625 
Q 386.360625 44.55625 386.360625 42.55625 
L 386.360625 14.2 
Q 386.360625 12.2 384.360625 12.2 
L 318.199688 12.2 
Q 316.199688 12.2 316.199688 14.2 
L 316.199688 42.55625 
Q 316.199688 44.55625 318.199688 44.55625 
z
" style="fill: #ffffff; opacity: 0.8; stroke: #cccccc; stroke-linejoin: miter"/>
    </g>
    <g id="line2d_17">
     <path d="M 320.199688 20.298437 
L 330.199688 20.298437 
L 340.199688 20.298437 
" style="fill: none; stroke: #1f77b4; stroke-width: 1.5; stroke-linecap: square"/>
    </g>
    <g id="text_17">
     <!-- Mean -->
     <g transform="translate(348.199688 23.798437) scale(0.1 -0.1)">
      <defs>
       <path id="DejaVuSans-4d" d="M 628 4666 
L 1569 4666 
L 2759 1491 
L 3956 4666 
L 4897 4666 
L 4897 0 
L 4281 0 
L 4281 4097 
L 3078 897 
L 2444 897 
L 1241 4097 
L 1241 0 
L 628 0 
L 628 4666 
z
" transform="scale(0.015625)"/>
       <path id="DejaVuSans-61" d="M 2194 1759 
Q 1497 1759 1228 1600 
Q 959 1441 959 1056 
Q 959 750 1161 570 
Q 1363 391 1709 391 
Q 2188 391 2477 730 
Q 2766 1069 2766 1631 
L 2766 1759 
L 2194 1759 
z
M 3341 1997 
L 3341 0 
L 2766 0 
L 2766 531 
Q 2569 213 2275 61 
Q 1981 -91 1556 -91 
Q 1019 -91 701 211 
Q 384 513 384 1019 
Q 384 1609 779 1909 
Q 1175 2209 1959 2209 
L 2766 2209 
L 2766 2266 
Q 2766 2663 2505 2880 
Q 2244 3097 1772 3097 
Q 1472 3097 1187 3025 
Q 903 2953 641 2809 
L 641 3341 
Q 956 3463 1253 3523 
Q 1550 3584 1831 3584 
Q 2591 3584 2966 3190 
Q 3341 2797 3341 1997 
z
" transform="scale(0.015625)"/>
      </defs>
      <use xlink:href="#DejaVuSans-4d"/>
      <use xlink:href="#DejaVuSans-65" transform="translate(86.279297 0)"/>
      <use xlink:href="#DejaVuSans-61" transform="translate(147.802734 0)"/>
      <use xlink:href="#DejaVuSans-6e" transform="translate(209.082031 0)"/>
     </g>
    </g>
    <g id="patch_8">
     <path d="M 320.199688 38.476562 
L 340.199688 38.476562 
L 340.199688 31.476562 
L 320.199688 31.476562 
z
" style="fill: #1f77b4; fill-opacity: 0.3; stroke: #1f77b4; stroke-opacity: 0.3; stroke-linejoin: miter"/>
    </g>
    <g id="text_18">
     <!-- Std Err -->
     <g transform="translate(348.199688 38.476562) scale(0.1 -0.1)">
      <defs>
       <path id="DejaVuSans-53" d="M 3425 4513 
L 3425 3897 
Q 3066 4069 2747 4153 
Q 2428 4238 2131 4238 
Q 1616 4238 1336 4038 
Q 1056 3838 1056 3469 
Q 1056 3159 1242 3001 
Q 1428 2844 1947 2747 
L 2328 2669 
Q 3034 2534 3370 2195 
Q 3706 1856 3706 1288 
Q 3706 609 3251 259 
Q 2797 -91 1919 -91 
Q 1588 -91 1214 -16 
Q 841 59 441 206 
L 441 856 
Q 825 641 1194 531 
Q 1563 422 1919 422 
Q 2459 422 2753 634 
Q 3047 847 3047 1241 
Q 3047 1584 2836 1778 
Q 2625 1972 2144 2069 
L 1759 2144 
Q 1053 2284 737 2584 
Q 422 2884 422 3419 
Q 422 4038 858 4394 
Q 1294 4750 2059 4750 
Q 2388 4750 2728 4690 
Q 3069 4631 3425 4513 
z
" transform="scale(0.015625)"/>
       <path id="DejaVuSans-45" d="M 628 4666 
L 3578 4666 
L 3578 4134 
L 1259 4134 
L 1259 2753 
L 3481 2753 
L 3481 2222 
L 1259 2222 
L 1259 531 
L 3634 531 
L 3634 0 
L 628 0 
L 628 4666 
z
" transform="scale(0.015625)"/>
      </defs>
      <use xlink:href="#DejaVuSans-53"/>
      <use xlink:href="#DejaVuSans-74" transform="translate(63.476562 0)"/>
      <use xlink:href="#DejaVuSans-64" transform="translate(102.685547 0)"/>
      <use xlink:href="#DejaVuSans-20" transform="translate(166.162109 0)"/>
      <use xlink:href="#DejaVuSans-45" transform="translate(197.949219 0)"/>
      <use xlink:href="#DejaVuSans-72" transform="translate(261.132812 0)"/>
      <use xlink:href="#DejaVuSans-72" transform="translate(300.496094 0)"/>
     </g>
    </g>
   </g>
  </g>
 </g>
 <defs>
  <clipPath id="pd942319012">
   <rect x="34.240625" y="7.2" width="357.12" height="266.112"/>
  </clipPath>
 </defs>
</svg>
