<?xml version="1.0" encoding="utf-8" standalone="no"?>
<!DOCTYPE svg PUBLIC "-//W3C//DTD SVG 1.1//EN"
  "http://www.w3.org/Graphics/SVG/1.1/DTD/svg11.dtd">
<svg xmlns:xlink="http://www.w3.org/1999/xlink" width="414.46375pt" height="325.986375pt" viewBox="0 0 414.46375 325.986375" xmlns="http://www.w3.org/2000/svg" version="1.1">
 <metadata>
  <rdf:RDF xmlns:dc="http://purl.org/dc/elements/1.1/" xmlns:cc="http://creativecommons.org/ns#" xmlns:rdf="http://www.w3.org/1999/02/22-rdf-syntax-ns#">
   <cc:Work>
    <dc:type rdf:resource="http://purl.org/dc/dcmitype/StillImage"/>
    <dc:date>2025-12-10T14:45:32.866574</dc:date>
    <dc:format>image/svg+xml</dc:format>
    <dc:creator>
     <cc:Agent>
      <dc:title>Matplotlib v3.10.1, https://matplotlib.org/</dc:title>
     </cc:Agent>
    </dc:creator>
   </cc:Work>
  </rdf:RDF>
 </metadata>
 <defs>
  <style type="text/css">*{stroke-linejoin: round; stroke-linecap: butt}</style>
 </defs>
 <g id="figure_1">
  <g id="patch_1">
   <path d="M 0 325.986375 
L 414.46375 325.986375 
L 414.46375 0 
L 0 0 
z
" style="fill: #ffffff"/>
  </g>
  <g id="axes_1">
   <g id="patch_2">
    <path d="M 50.14375 288.430125 
L 407.26375 288.430125 
L 407.26375 22.318125 
L 50.14375 22.318125 
z
" style="fill: #ffffff"/>
   </g>
   <g id="matplotlib.axis_1">
    <g id="xtick_1">
     <g id="line2d_1">
      <defs>
       <path id="m154f5e12b7" d="M 0 0 
L 0 3.5 
" style="stroke: #000000; stroke-width: 0.8"/>
      </defs>
      <g>
       <use xlink:href="#m154f5e12b7" x="66.376477" y="288.430125" style="stroke: #000000; stroke-width: 0.8"/>
      </g>
     </g>
     <g id="text_1">
      <!-- 0.0 -->
      <g transform="translate(58.424915 303.028562) scale(0.1 -0.1)">
       <defs>
        <path id="DejaVuSans-30" d="M 2034 4250 
Q 1547 4250 1301 3770 
Q 1056 3291 1056 2328 
Q 1056 1369 1301 889 
Q 1547 409 2034 409 
Q 2525 409 2770 889 
Q 3016 1369 3016 2328 
Q 3016 3291 2770 3770 
Q 2525 4250 2034 4250 
z
M 2034 4750 
Q 2819 4750 3233 4129 
Q 3647 3509 3647 2328 
Q 3647 1150 3233 529 
Q 2819 -91 2034 -91 
Q 1250 -91 836 529 
Q 422 1150 422 2328 
Q 422 3509 836 4129 
Q 1250 4750 2034 4750 
z
" transform="scale(0.015625)"/>
        <path id="DejaVuSans-2e" d="M 684 794 
L 1344 794 
L 1344 0 
L 684 0 
L 684 794 
z
" transform="scale(0.015625)"/>
       </defs>
       <use xlink:href="#DejaVuSans-30"/>
       <use xlink:href="#DejaVuSans-2e" transform="translate(63.623047 0)"/>
       <use xlink:href="#DejaVuSans-30" transform="translate(95.410156 0)"/>
      </g>
     </g>
    </g>
    <g id="xtick_2">
     <g id="line2d_2">
      <g>
       <use xlink:href="#m154f5e12b7" x="106.998918" y="288.430125" style="stroke: #000000; stroke-width: 0.8"/>
      </g>
     </g>
     <g id="text_2">
      <!-- 2.5 -->
      <g transform="translate(99.047355 303.028562) scale(0.1 -0.1)">
       <defs>
        <path id="DejaVuSans-32" d="M 1228 531 
L 3431 531 
L 3431 0 
L 469 0 
L 469 531 
Q 828 903 1448 1529 
Q 2069 2156 2228 2338 
Q 2531 2678 2651 2914 
Q 2772 3150 2772 3378 
Q 2772 3750 2511 3984 
Q 2250 4219 1831 4219 
Q 1534 4219 1204 4116 
Q 875 4013 500 3803 
L 500 4441 
Q 881 4594 1212 4672 
Q 1544 4750 1819 4750 
Q 2544 4750 2975 4387 
Q 3406 4025 3406 3419 
Q 3406 3131 3298 2873 
Q 3191 2616 2906 2266 
Q 2828 2175 2409 1742 
Q 1991 1309 1228 531 
z
" transform="scale(0.015625)"/>
        <path id="DejaVuSans-35" d="M 691 4666 
L 3169 4666 
L 3169 4134 
L 1269 4134 
L 1269 2991 
Q 1406 3038 1543 3061 
Q 1681 3084 1819 3084 
Q 2600 3084 3056 2656 
Q 3513 2228 3513 1497 
Q 3513 744 3044 326 
Q 2575 -91 1722 -91 
Q 1428 -91 1123 -41 
Q 819 9 494 109 
L 494 744 
Q 775 591 1075 516 
Q 1375 441 1709 441 
Q 2250 441 2565 725 
Q 2881 1009 2881 1497 
Q 2881 1984 2565 2268 
Q 2250 2553 1709 2553 
Q 1456 2553 1204 2497 
Q 953 2441 691 2322 
L 691 4666 
z
" transform="scale(0.015625)"/>
       </defs>
       <use xlink:href="#DejaVuSans-32"/>
       <use xlink:href="#DejaVuSans-2e" transform="translate(63.623047 0)"/>
       <use xlink:href="#DejaVuSans-35" transform="translate(95.410156 0)"/>
      </g>
     </g>
    </g>
    <g id="xtick_3">
     <g id="line2d_3">
      <g>
       <use xlink:href="#m154f5e12b7" x="147.621359" y="288.430125" style="stroke: #000000; stroke-width: 0.8"/>
      </g>
     </g>
     <g id="text_3">
      <!-- 5.0 -->
      <g transform="translate(139.669796 303.028562) scale(0.1 -0.1)">
       <use xlink:href="#DejaVuSans-35"/>
       <use xlink:href="#DejaVuSans-2e" transform="translate(63.623047 0)"/>
       <use xlink:href="#DejaVuSans-30" transform="translate(95.410156 0)"/>
      </g>
     </g>
    </g>
    <g id="xtick_4">
     <g id="line2d_4">
      <g>
       <use xlink:href="#m154f5e12b7" x="188.243799" y="288.430125" style="stroke: #000000; stroke-width: 0.8"/>
      </g>
     </g>
     <g id="text_4">
      <!-- 7.5 -->
      <g transform="translate(180.292237 303.028562) scale(0.1 -0.1)">
       <defs>
        <path id="DejaVuSans-37" d="M 525 4666 
L 3525 4666 
L 3525 4397 
L 1831 0 
L 1172 0 
L 2766 4134 
L 525 4134 
L 525 4666 
z
" transform="scale(0.015625)"/>
       </defs>
       <use xlink:href="#DejaVuSans-37"/>
       <use xlink:href="#DejaVuSans-2e" transform="translate(63.623047 0)"/>
       <use xlink:href="#DejaVuSans-35" transform="translate(95.410156 0)"/>
      </g>
     </g>
    </g>
    <g id="xtick_5">
     <g id="line2d_5">
      <g>
       <use xlink:href="#m154f5e12b7" x="228.86624" y="288.430125" style="stroke: #000000; stroke-width: 0.8"/>
      </g>
     </g>
     <g id="text_5">
      <!-- 10.0 -->
      <g transform="translate(217.733427 303.028562) scale(0.1 -0.1)">
       <defs>
        <path id="DejaVuSans-31" d="M 794 531 
L 1825 531 
L 1825 4091 
L 703 3866 
L 703 4441 
L 1819 4666 
L 2450 4666 
L 2450 531 
L 3481 531 
L 3481 0 
L 794 0 
L 794 531 
z
" transform="scale(0.015625)"/>
       </defs>
       <use xlink:href="#DejaVuSans-31"/>
       <use xlink:href="#DejaVuSans-30" transform="translate(63.623047 0)"/>
       <use xlink:href="#DejaVuSans-2e" transform="translate(127.246094 0)"/>
       <use xlink:href="#DejaVuSans-30" transform="translate(159.033203 0)"/>
      </g>
     </g>
    </g>
    <g id="xtick_6">
     <g id="line2d_6">
      <g>
       <use xlink:href="#m154f5e12b7" x="269.48868" y="288.430125" style="stroke: #000000; stroke-width: 0.8"/>
      </g>
     </g>
     <g id="text_6">
      <!-- 12.5 -->
      <g transform="translate(258.355868 303.028562) scale(0.1 -0.1)">
       <use xlink:href="#DejaVuSans-31"/>
       <use xlink:href="#DejaVuSans-32" transform="translate(63.623047 0)"/>
       <use xlink:href="#DejaVuSans-2e" transform="translate(127.246094 0)"/>
       <use xlink:href="#DejaVuSans-35" transform="translate(159.033203 0)"/>
      </g>
     </g>
    </g>
    <g id="xtick_7">
     <g id="line2d_7">
      <g>
       <use xlink:href="#m154f5e12b7" x="310.111121" y="288.430125" style="stroke: #000000; stroke-width: 0.8"/>
      </g>
     </g>
     <g id="text_7">
      <!-- 15.0 -->
      <g transform="translate(298.978309 303.028562) scale(0.1 -0.1)">
       <use xlink:href="#DejaVuSans-31"/>
       <use xlink:href="#DejaVuSans-35" transform="translate(63.623047 0)"/>
       <use xlink:href="#DejaVuSans-2e" transform="translate(127.246094 0)"/>
       <use xlink:href="#DejaVuSans-30" transform="translate(159.033203 0)"/>
      </g>
     </g>
    </g>
    <g id="xtick_8">
     <g id="line2d_8">
      <g>
       <use xlink:href="#m154f5e12b7" x="350.733562" y="288.430125" style="stroke: #000000; stroke-width: 0.8"/>
      </g>
     </g>
     <g id="text_8">
      <!-- 17.5 -->
      <g transform="translate(339.600749 303.028562) scale(0.1 -0.1)">
       <use xlink:href="#DejaVuSans-31"/>
       <use xlink:href="#DejaVuSans-37" transform="translate(63.623047 0)"/>
       <use xlink:href="#DejaVuSans-2e" transform="translate(127.246094 0)"/>
       <use xlink:href="#DejaVuSans-35" transform="translate(159.033203 0)"/>
      </g>
     </g>
    </g>
    <g id="xtick_9">
     <g id="line2d_9">
      <g>
       <use xlink:href="#m154f5e12b7" x="391.356002" y="288.430125" style="stroke: #000000; stroke-width: 0.8"/>
      </g>
     </g>
     <g id="text_9">
      <!-- 20.0 -->
      <g transform="translate(380.22319 303.028562) scale(0.1 -0.1)">
       <use xlink:href="#DejaVuSans-32"/>
       <use xlink:href="#DejaVuSans-30" transform="translate(63.623047 0)"/>
       <use xlink:href="#DejaVuSans-2e" transform="translate(127.246094 0)"/>
       <use xlink:href="#DejaVuSans-30" transform="translate(159.033203 0)"/>
      </g>
     </g>
    </g>
    <g id="text_10">
     <!-- time (MD units) -->
     <g transform="translate(189.8725 316.706687) scale(0.1 -0.1)">
      <defs>
       <path id="DejaVuSans-74" d="M 1172 4494 
L 1172 3500 
L 2356 3500 
L 2356 3053 
L 1172 3053 
L 1172 1153 
Q 1172 725 1289 603 
Q 1406 481 1766 481 
L 2356 481 
L 2356 0 
L 1766 0 
Q 1100 0 847 248 
Q 594 497 594 1153 
L 594 3053 
L 172 3053 
L 172 3500 
L 594 3500 
L 594 4494 
L 1172 4494 
z
" transform="scale(0.015625)"/>
       <path id="DejaVuSans-69" d="M 603 3500 
L 1178 3500 
L 1178 0 
L 603 0 
L 603 3500 
z
M 603 4863 
L 1178 4863 
L 1178 4134 
L 603 4134 
L 603 4863 
z
" transform="scale(0.015625)"/>
       <path id="DejaVuSans-6d" d="M 3328 2828 
Q 3544 3216 3844 3400 
Q 4144 3584 4550 3584 
Q 5097 3584 5394 3201 
Q 5691 2819 5691 2113 
L 5691 0 
L 5113 0 
L 5113 2094 
Q 5113 2597 4934 2840 
Q 4756 3084 4391 3084 
Q 3944 3084 3684 2787 
Q 3425 2491 3425 1978 
L 3425 0 
L 2847 0 
L 2847 2094 
Q 2847 2600 2669 2842 
Q 2491 3084 2119 3084 
Q 1678 3084 1418 2786 
Q 1159 2488 1159 1978 
L 1159 0 
L 581 0 
L 581 3500 
L 1159 3500 
L 1159 2956 
Q 1356 3278 1631 3431 
Q 1906 3584 2284 3584 
Q 2666 3584 2933 3390 
Q 3200 3197 3328 2828 
z
" transform="scale(0.015625)"/>
       <path id="DejaVuSans-65" d="M 3597 1894 
L 3597 1613 
L 953 1613 
Q 991 1019 1311 708 
Q 1631 397 2203 397 
Q 2534 397 2845 478 
Q 3156 559 3463 722 
L 3463 178 
Q 3153 47 2828 -22 
Q 2503 -91 2169 -91 
Q 1331 -91 842 396 
Q 353 884 353 1716 
Q 353 2575 817 3079 
Q 1281 3584 2069 3584 
Q 2775 3584 3186 3129 
Q 3597 2675 3597 1894 
z
M 3022 2063 
Q 3016 2534 2758 2815 
Q 2500 3097 2075 3097 
Q 1594 3097 1305 2825 
Q 1016 2553 972 2059 
L 3022 2063 
z
" transform="scale(0.015625)"/>
       <path id="DejaVuSans-20" transform="scale(0.015625)"/>
       <path id="DejaVuSans-28" d="M 1984 4856 
Q 1566 4138 1362 3434 
Q 1159 2731 1159 2009 
Q 1159 1288 1364 580 
Q 1569 -128 1984 -844 
L 1484 -844 
Q 1016 -109 783 600 
Q 550 1309 550 2009 
Q 550 2706 781 3412 
Q 1013 4119 1484 4856 
L 1984 4856 
z
" transform="scale(0.015625)"/>
       <path id="DejaVuSans-4d" d="M 628 4666 
L 1569 4666 
L 2759 1491 
L 3956 4666 
L 4897 4666 
L 4897 0 
L 4281 0 
L 4281 4097 
L 3078 897 
L 2444 897 
L 1241 4097 
L 1241 0 
L 628 0 
L 628 4666 
z
" transform="scale(0.015625)"/>
       <path id="DejaVuSans-44" d="M 1259 4147 
L 1259 519 
L 2022 519 
Q 2988 519 3436 956 
Q 3884 1394 3884 2338 
Q 3884 3275 3436 3711 
Q 2988 4147 2022 4147 
L 1259 4147 
z
M 628 4666 
L 1925 4666 
Q 3281 4666 3915 4102 
Q 4550 3538 4550 2338 
Q 4550 1131 3912 565 
Q 3275 0 1925 0 
L 628 0 
L 628 4666 
z
" transform="scale(0.015625)"/>
       <path id="DejaVuSans-75" d="M 544 1381 
L 544 3500 
L 1119 3500 
L 1119 1403 
Q 1119 906 1312 657 
Q 1506 409 1894 409 
Q 2359 409 2629 706 
Q 2900 1003 2900 1516 
L 2900 3500 
L 3475 3500 
L 3475 0 
L 2900 0 
L 2900 538 
Q 2691 219 2414 64 
Q 2138 -91 1772 -91 
Q 1169 -91 856 284 
Q 544 659 544 1381 
z
M 1991 3584 
L 1991 3584 
z
" transform="scale(0.015625)"/>
       <path id="DejaVuSans-6e" d="M 3513 2113 
L 3513 0 
L 2938 0 
L 2938 2094 
Q 2938 2591 2744 2837 
Q 2550 3084 2163 3084 
Q 1697 3084 1428 2787 
Q 1159 2491 1159 1978 
L 1159 0 
L 581 0 
L 581 3500 
L 1159 3500 
L 1159 2956 
Q 1366 3272 1645 3428 
Q 1925 3584 2291 3584 
Q 2894 3584 3203 3211 
Q 3513 2838 3513 2113 
z
" transform="scale(0.015625)"/>
       <path id="DejaVuSans-73" d="M 2834 3397 
L 2834 2853 
Q 2591 2978 2328 3040 
Q 2066 3103 1784 3103 
Q 1356 3103 1142 2972 
Q 928 2841 928 2578 
Q 928 2378 1081 2264 
Q 1234 2150 1697 2047 
L 1894 2003 
Q 2506 1872 2764 1633 
Q 3022 1394 3022 966 
Q 3022 478 2636 193 
Q 2250 -91 1575 -91 
Q 1294 -91 989 -36 
Q 684 19 347 128 
L 347 722 
Q 666 556 975 473 
Q 1284 391 1588 391 
Q 1994 391 2212 530 
Q 2431 669 2431 922 
Q 2431 1156 2273 1281 
Q 2116 1406 1581 1522 
L 1381 1569 
Q 847 1681 609 1914 
Q 372 2147 372 2553 
Q 372 3047 722 3315 
Q 1072 3584 1716 3584 
Q 2034 3584 2315 3537 
Q 2597 3491 2834 3397 
z
" transform="scale(0.015625)"/>
       <path id="DejaVuSans-29" d="M 513 4856 
L 1013 4856 
Q 1481 4119 1714 3412 
Q 1947 2706 1947 2009 
Q 1947 1309 1714 600 
Q 1481 -109 1013 -844 
L 513 -844 
Q 928 -128 1133 580 
Q 1338 1288 1338 2009 
Q 1338 2731 1133 3434 
Q 928 4138 513 4856 
z
" transform="scale(0.015625)"/>
      </defs>
      <use xlink:href="#DejaVuSans-74"/>
      <use xlink:href="#DejaVuSans-69" transform="translate(39.208984 0)"/>
      <use xlink:href="#DejaVuSans-6d" transform="translate(66.992188 0)"/>
      <use xlink:href="#DejaVuSans-65" transform="translate(164.404297 0)"/>
      <use xlink:href="#DejaVuSans-20" transform="translate(225.927734 0)"/>
      <use xlink:href="#DejaVuSans-28" transform="translate(257.714844 0)"/>
      <use xlink:href="#DejaVuSans-4d" transform="translate(296.728516 0)"/>
      <use xlink:href="#DejaVuSans-44" transform="translate(383.007812 0)"/>
      <use xlink:href="#DejaVuSans-20" transform="translate(460.009766 0)"/>
      <use xlink:href="#DejaVuSans-75" transform="translate(491.796875 0)"/>
      <use xlink:href="#DejaVuSans-6e" transform="translate(555.175781 0)"/>
      <use xlink:href="#DejaVuSans-69" transform="translate(618.554688 0)"/>
      <use xlink:href="#DejaVuSans-74" transform="translate(646.337891 0)"/>
      <use xlink:href="#DejaVuSans-73" transform="translate(685.546875 0)"/>
      <use xlink:href="#DejaVuSans-29" transform="translate(737.646484 0)"/>
     </g>
    </g>
   </g>
   <g id="matplotlib.axis_2">
    <g id="ytick_1">
     <g id="line2d_10">
      <defs>
       <path id="m47a1871bbc" d="M 0 0 
L -3.5 0 
" style="stroke: #000000; stroke-width: 0.8"/>
      </defs>
      <g>
       <use xlink:href="#m47a1871bbc" x="50.14375" y="266.285636" style="stroke: #000000; stroke-width: 0.8"/>
      </g>
     </g>
     <g id="text_11">
      <!-- 0.26 -->
      <g transform="translate(20.878125 270.084855) scale(0.1 -0.1)">
       <defs>
        <path id="DejaVuSans-36" d="M 2113 2584 
Q 1688 2584 1439 2293 
Q 1191 2003 1191 1497 
Q 1191 994 1439 701 
Q 1688 409 2113 409 
Q 2538 409 2786 701 
Q 3034 994 3034 1497 
Q 3034 2003 2786 2293 
Q 2538 2584 2113 2584 
z
M 3366 4563 
L 3366 3988 
Q 3128 4100 2886 4159 
Q 2644 4219 2406 4219 
Q 1781 4219 1451 3797 
Q 1122 3375 1075 2522 
Q 1259 2794 1537 2939 
Q 1816 3084 2150 3084 
Q 2853 3084 3261 2657 
Q 3669 2231 3669 1497 
Q 3669 778 3244 343 
Q 2819 -91 2113 -91 
Q 1303 -91 875 529 
Q 447 1150 447 2328 
Q 447 3434 972 4092 
Q 1497 4750 2381 4750 
Q 2619 4750 2861 4703 
Q 3103 4656 3366 4563 
z
" transform="scale(0.015625)"/>
       </defs>
       <use xlink:href="#DejaVuSans-30"/>
       <use xlink:href="#DejaVuSans-2e" transform="translate(63.623047 0)"/>
       <use xlink:href="#DejaVuSans-32" transform="translate(95.410156 0)"/>
       <use xlink:href="#DejaVuSans-36" transform="translate(159.033203 0)"/>
      </g>
     </g>
    </g>
    <g id="ytick_2">
     <g id="line2d_11">
      <g>
       <use xlink:href="#m47a1871bbc" x="50.14375" y="231.509717" style="stroke: #000000; stroke-width: 0.8"/>
      </g>
     </g>
     <g id="text_12">
      <!-- 0.28 -->
      <g transform="translate(20.878125 235.308936) scale(0.1 -0.1)">
       <defs>
        <path id="DejaVuSans-38" d="M 2034 2216 
Q 1584 2216 1326 1975 
Q 1069 1734 1069 1313 
Q 1069 891 1326 650 
Q 1584 409 2034 409 
Q 2484 409 2743 651 
Q 3003 894 3003 1313 
Q 3003 1734 2745 1975 
Q 2488 2216 2034 2216 
z
M 1403 2484 
Q 997 2584 770 2862 
Q 544 3141 544 3541 
Q 544 4100 942 4425 
Q 1341 4750 2034 4750 
Q 2731 4750 3128 4425 
Q 3525 4100 3525 3541 
Q 3525 3141 3298 2862 
Q 3072 2584 2669 2484 
Q 3125 2378 3379 2068 
Q 3634 1759 3634 1313 
Q 3634 634 3220 271 
Q 2806 -91 2034 -91 
Q 1263 -91 848 271 
Q 434 634 434 1313 
Q 434 1759 690 2068 
Q 947 2378 1403 2484 
z
M 1172 3481 
Q 1172 3119 1398 2916 
Q 1625 2713 2034 2713 
Q 2441 2713 2670 2916 
Q 2900 3119 2900 3481 
Q 2900 3844 2670 4047 
Q 2441 4250 2034 4250 
Q 1625 4250 1398 4047 
Q 1172 3844 1172 3481 
z
" transform="scale(0.015625)"/>
       </defs>
       <use xlink:href="#DejaVuSans-30"/>
       <use xlink:href="#DejaVuSans-2e" transform="translate(63.623047 0)"/>
       <use xlink:href="#DejaVuSans-32" transform="translate(95.410156 0)"/>
       <use xlink:href="#DejaVuSans-38" transform="translate(159.033203 0)"/>
      </g>
     </g>
    </g>
    <g id="ytick_3">
     <g id="line2d_12">
      <g>
       <use xlink:href="#m47a1871bbc" x="50.14375" y="196.733798" style="stroke: #000000; stroke-width: 0.8"/>
      </g>
     </g>
     <g id="text_13">
      <!-- 0.30 -->
      <g transform="translate(20.878125 200.533017) scale(0.1 -0.1)">
       <defs>
        <path id="DejaVuSans-33" d="M 2597 2516 
Q 3050 2419 3304 2112 
Q 3559 1806 3559 1356 
Q 3559 666 3084 287 
Q 2609 -91 1734 -91 
Q 1441 -91 1130 -33 
Q 819 25 488 141 
L 488 750 
Q 750 597 1062 519 
Q 1375 441 1716 441 
Q 2309 441 2620 675 
Q 2931 909 2931 1356 
Q 2931 1769 2642 2001 
Q 2353 2234 1838 2234 
L 1294 2234 
L 1294 2753 
L 1863 2753 
Q 2328 2753 2575 2939 
Q 2822 3125 2822 3475 
Q 2822 3834 2567 4026 
Q 2313 4219 1838 4219 
Q 1578 4219 1281 4162 
Q 984 4106 628 3988 
L 628 4550 
Q 988 4650 1302 4700 
Q 1616 4750 1894 4750 
Q 2613 4750 3031 4423 
Q 3450 4097 3450 3541 
Q 3450 3153 3228 2886 
Q 3006 2619 2597 2516 
z
" transform="scale(0.015625)"/>
       </defs>
       <use xlink:href="#DejaVuSans-30"/>
       <use xlink:href="#DejaVuSans-2e" transform="translate(63.623047 0)"/>
       <use xlink:href="#DejaVuSans-33" transform="translate(95.410156 0)"/>
       <use xlink:href="#DejaVuSans-30" transform="translate(159.033203 0)"/>
      </g>
     </g>
    </g>
    <g id="ytick_4">
     <g id="line2d_13">
      <g>
       <use xlink:href="#m47a1871bbc" x="50.14375" y="161.957879" style="stroke: #000000; stroke-width: 0.8"/>
      </g>
     </g>
     <g id="text_14">
      <!-- 0.32 -->
      <g transform="translate(20.878125 165.757098) scale(0.1 -0.1)">
       <use xlink:href="#DejaVuSans-30"/>
       <use xlink:href="#DejaVuSans-2e" transform="translate(63.623047 0)"/>
       <use xlink:href="#DejaVuSans-33" transform="translate(95.410156 0)"/>
       <use xlink:href="#DejaVuSans-32" transform="translate(159.033203 0)"/>
      </g>
     </g>
    </g>
    <g id="ytick_5">
     <g id="line2d_14">
      <g>
       <use xlink:href="#m47a1871bbc" x="50.14375" y="127.181961" style="stroke: #000000; stroke-width: 0.8"/>
      </g>
     </g>
     <g id="text_15">
      <!-- 0.34 -->
      <g transform="translate(20.878125 130.981179) scale(0.1 -0.1)">
       <defs>
        <path id="DejaVuSans-34" d="M 2419 4116 
L 825 1625 
L 2419 1625 
L 2419 4116 
z
M 2253 4666 
L 3047 4666 
L 3047 1625 
L 3713 1625 
L 3713 1100 
L 3047 1100 
L 3047 0 
L 2419 0 
L 2419 1100 
L 313 1100 
L 313 1709 
L 2253 4666 
z
" transform="scale(0.015625)"/>
       </defs>
       <use xlink:href="#DejaVuSans-30"/>
       <use xlink:href="#DejaVuSans-2e" transform="translate(63.623047 0)"/>
       <use xlink:href="#DejaVuSans-33" transform="translate(95.410156 0)"/>
       <use xlink:href="#DejaVuSans-34" transform="translate(159.033203 0)"/>
      </g>
     </g>
    </g>
    <g id="ytick_6">
     <g id="line2d_15">
      <g>
       <use xlink:href="#m47a1871bbc" x="50.14375" y="92.406042" style="stroke: #000000; stroke-width: 0.8"/>
      </g>
     </g>
     <g id="text_16">
      <!-- 0.36 -->
      <g transform="translate(20.878125 96.20526) scale(0.1 -0.1)">
       <use xlink:href="#DejaVuSans-30"/>
       <use xlink:href="#DejaVuSans-2e" transform="translate(63.623047 0)"/>
       <use xlink:href="#DejaVuSans-33" transform="translate(95.410156 0)"/>
       <use xlink:href="#DejaVuSans-36" transform="translate(159.033203 0)"/>
      </g>
     </g>
    </g>
    <g id="ytick_7">
     <g id="line2d_16">
      <g>
       <use xlink:href="#m47a1871bbc" x="50.14375" y="57.630123" style="stroke: #000000; stroke-width: 0.8"/>
      </g>
     </g>
     <g id="text_17">
      <!-- 0.38 -->
      <g transform="translate(20.878125 61.429342) scale(0.1 -0.1)">
       <use xlink:href="#DejaVuSans-30"/>
       <use xlink:href="#DejaVuSans-2e" transform="translate(63.623047 0)"/>
       <use xlink:href="#DejaVuSans-33" transform="translate(95.410156 0)"/>
       <use xlink:href="#DejaVuSans-38" transform="translate(159.033203 0)"/>
      </g>
     </g>
    </g>
    <g id="ytick_8">
     <g id="line2d_17">
      <g>
       <use xlink:href="#m47a1871bbc" x="50.14375" y="22.854204" style="stroke: #000000; stroke-width: 0.8"/>
      </g>
     </g>
     <g id="text_18">
      <!-- 0.40 -->
      <g transform="translate(20.878125 26.653423) scale(0.1 -0.1)">
       <use xlink:href="#DejaVuSans-30"/>
       <use xlink:href="#DejaVuSans-2e" transform="translate(63.623047 0)"/>
       <use xlink:href="#DejaVuSans-34" transform="translate(95.410156 0)"/>
       <use xlink:href="#DejaVuSans-30" transform="translate(159.033203 0)"/>
      </g>
     </g>
    </g>
    <g id="text_19">
     <!-- Temperature -->
     <g transform="translate(14.798438 187.043656) rotate(-90) scale(0.1 -0.1)">
      <defs>
       <path id="DejaVuSans-54" d="M -19 4666 
L 3928 4666 
L 3928 4134 
L 2272 4134 
L 2272 0 
L 1638 0 
L 1638 4134 
L -19 4134 
L -19 4666 
z
" transform="scale(0.015625)"/>
       <path id="DejaVuSans-70" d="M 1159 525 
L 1159 -1331 
L 581 -1331 
L 581 3500 
L 1159 3500 
L 1159 2969 
Q 1341 3281 1617 3432 
Q 1894 3584 2278 3584 
Q 2916 3584 3314 3078 
Q 3713 2572 3713 1747 
Q 3713 922 3314 415 
Q 2916 -91 2278 -91 
Q 1894 -91 1617 61 
Q 1341 213 1159 525 
z
M 3116 1747 
Q 3116 2381 2855 2742 
Q 2594 3103 2138 3103 
Q 1681 3103 1420 2742 
Q 1159 2381 1159 1747 
Q 1159 1113 1420 752 
Q 1681 391 2138 391 
Q 2594 391 2855 752 
Q 3116 1113 3116 1747 
z
" transform="scale(0.015625)"/>
       <path id="DejaVuSans-72" d="M 2631 2963 
Q 2534 3019 2420 3045 
Q 2306 3072 2169 3072 
Q 1681 3072 1420 2755 
Q 1159 2438 1159 1844 
L 1159 0 
L 581 0 
L 581 3500 
L 1159 3500 
L 1159 2956 
Q 1341 3275 1631 3429 
Q 1922 3584 2338 3584 
Q 2397 3584 2469 3576 
Q 2541 3569 2628 3553 
L 2631 2963 
z
" transform="scale(0.015625)"/>
       <path id="DejaVuSans-61" d="M 2194 1759 
Q 1497 1759 1228 1600 
Q 959 1441 959 1056 
Q 959 750 1161 570 
Q 1363 391 1709 391 
Q 2188 391 2477 730 
Q 2766 1069 2766 1631 
L 2766 1759 
L 2194 1759 
z
M 3341 1997 
L 3341 0 
L 2766 0 
L 2766 531 
Q 2569 213 2275 61 
Q 1981 -91 1556 -91 
Q 1019 -91 701 211 
Q 384 513 384 1019 
Q 384 1609 779 1909 
Q 1175 2209 1959 2209 
L 2766 2209 
L 2766 2266 
Q 2766 2663 2505 2880 
Q 2244 3097 1772 3097 
Q 1472 3097 1187 3025 
Q 903 2953 641 2809 
L 641 3341 
Q 956 3463 1253 3523 
Q 1550 3584 1831 3584 
Q 2591 3584 2966 3190 
Q 3341 2797 3341 1997 
z
" transform="scale(0.015625)"/>
      </defs>
      <use xlink:href="#DejaVuSans-54"/>
      <use xlink:href="#DejaVuSans-65" transform="translate(44.083984 0)"/>
      <use xlink:href="#DejaVuSans-6d" transform="translate(105.607422 0)"/>
      <use xlink:href="#DejaVuSans-70" transform="translate(203.019531 0)"/>
      <use xlink:href="#DejaVuSans-65" transform="translate(266.496094 0)"/>
      <use xlink:href="#DejaVuSans-72" transform="translate(328.019531 0)"/>
      <use xlink:href="#DejaVuSans-61" transform="translate(369.132812 0)"/>
      <use xlink:href="#DejaVuSans-74" transform="translate(430.412109 0)"/>
      <use xlink:href="#DejaVuSans-75" transform="translate(469.621094 0)"/>
      <use xlink:href="#DejaVuSans-72" transform="translate(533 0)"/>
      <use xlink:href="#DejaVuSans-65" transform="translate(571.863281 0)"/>
     </g>
    </g>
   </g>
   <g id="line2d_18">
    <path d="M 66.376477 190.72673 
L 66.701457 179.565426 
L 67.351416 176.351019 
L 67.676395 166.490718 
L 68.001375 196.854274 
L 68.326354 202.112606 
L 68.651334 217.282932 
L 68.976313 184.928729 
L 69.301293 175.215007 
L 69.951252 136.344395 
L 70.276232 130.316724 
L 70.601211 144.659405 
L 70.926191 144.173289 
L 71.57615 124.267836 
L 71.901129 128.571261 
L 72.226109 101.704756 
L 72.551088 100.339246 
L 72.876068 93.64562 
L 73.201047 97.133604 
L 73.526027 89.602298 
L 73.851006 72.507405 
L 74.175986 85.261396 
L 74.500965 110.528897 
L 74.825945 109.238185 
L 75.150924 86.581082 
L 75.475904 109.519711 
L 75.800883 153.876003 
L 76.125863 147.130853 
L 76.775822 85.136538 
L 77.100802 98.634596 
L 77.425781 104.243724 
L 77.750761 99.23641 
L 78.07574 97.968349 
L 78.40072 109.161502 
L 78.725699 93.863709 
L 79.050679 89.419962 
L 79.375658 64.913162 
L 79.700638 67.808914 
L 80.025617 83.289528 
L 80.350597 88.09627 
L 80.675576 104.655199 
L 81.000556 71.478019 
L 81.325535 50.96294 
L 81.650515 52.358105 
L 81.975494 63.960248 
L 82.300474 71.428445 
L 82.625454 52.991124 
L 82.950433 41.427905 
L 83.275413 34.414125 
L 83.600392 48.012685 
L 83.925372 55.717246 
L 84.575331 105.594848 
L 84.90031 95.05983 
L 85.22529 114.681429 
L 85.550269 107.775892 
L 85.875249 127.449228 
L 86.850187 75.069059 
L 87.500146 106.586589 
L 87.825126 102.907675 
L 88.475085 54.602768 
L 88.800064 52.416695 
L 89.125044 84.917576 
L 89.450024 105.028987 
L 89.775003 133.547561 
L 90.099983 127.348639 
L 90.424962 107.152044 
L 90.749942 115.073502 
L 91.074921 99.139874 
L 91.399901 95.32686 
L 91.72488 132.293479 
L 92.04986 140.898603 
L 92.374839 139.949398 
L 92.699819 113.710004 
L 93.024798 115.924847 
L 93.349778 80.870966 
L 93.674757 70.888132 
L 94.324716 124.576236 
L 94.649696 128.022856 
L 94.974675 143.438815 
L 95.299655 134.867193 
L 95.624635 108.50946 
L 95.949614 98.758981 
L 96.274594 117.370097 
L 96.599573 157.413112 
L 96.924553 175.454046 
L 97.249532 179.076927 
L 97.899491 169.28193 
L 98.54945 97.312943 
L 98.87443 130.568671 
L 99.199409 120.24659 
L 99.524389 127.681968 
L 99.849368 119.838638 
L 100.174348 102.644601 
L 100.499327 116.658365 
L 100.824307 124.954284 
L 101.149286 126.955369 
L 101.474266 105.826582 
L 101.799245 116.448119 
L 102.124225 107.661486 
L 102.449205 92.948758 
L 103.099164 128.467838 
L 103.424143 111.697961 
L 103.749123 127.255962 
L 104.074102 132.149856 
L 104.399082 131.458248 
L 104.724061 120.279381 
L 105.049041 99.520266 
L 105.37402 101.669385 
L 106.023979 87.32749 
L 106.348959 97.894046 
L 106.673938 121.859825 
L 106.998918 128.552421 
L 107.323897 97.945505 
L 107.648877 99.182181 
L 107.973856 104.940203 
L 108.298836 98.100428 
L 108.948795 171.753939 
L 109.273775 168.660761 
L 109.598754 171.894861 
L 110.248713 146.382552 
L 110.573693 137.752828 
L 110.898672 115.305635 
L 111.223652 123.486693 
L 111.548631 128.144562 
L 111.873611 144.878674 
L 112.19859 150.902246 
L 112.52357 133.095333 
L 112.848549 129.231647 
L 113.173529 153.263422 
L 113.498508 162.581683 
L 113.823488 166.10679 
L 114.473447 178.495937 
L 114.798426 152.049 
L 115.123406 159.425829 
L 115.448386 134.255294 
L 115.773365 130.751596 
L 116.098345 156.643738 
L 117.723242 232.345961 
L 119.02316 199.608933 
L 119.34814 194.810865 
L 119.673119 197.642687 
L 119.998099 184.340048 
L 120.323078 180.156733 
L 120.973037 198.339005 
L 121.622997 237.269552 
L 121.947976 239.397644 
L 122.272956 238.084934 
L 122.597935 256.627086 
L 122.922915 256.276568 
L 123.247894 222.711573 
L 123.572874 202.737517 
L 123.897853 206.07648 
L 124.222833 217.298693 
L 124.547812 214.879935 
L 124.872792 221.773026 
L 125.197771 241.684823 
L 125.522751 241.911546 
L 125.84773 246.342892 
L 126.17271 240.66673 
L 126.497689 210.07824 
L 126.822669 205.500516 
L 127.147648 206.54247 
L 127.472628 198.480156 
L 127.797607 206.443283 
L 128.122587 228.920609 
L 128.447567 241.99702 
L 128.772546 276.334125 
L 129.097526 234.137627 
L 129.422505 230.92019 
L 130.072464 204.02628 
L 130.397444 202.83233 
L 130.722423 191.802159 
L 131.047403 197.455758 
L 131.372382 224.531109 
L 131.697362 229.476379 
L 132.022341 195.287494 
L 132.347321 179.421246 
L 132.6723 187.514979 
L 132.99728 181.43747 
L 133.322259 182.771551 
L 133.972218 188.417958 
L 134.297198 167.518691 
L 134.622178 163.535527 
L 134.947157 144.499579 
L 135.272137 172.701942 
L 135.597116 186.008762 
L 135.922096 176.987521 
L 136.247075 173.327099 
L 136.572055 174.804673 
L 137.222014 147.593217 
L 137.546993 171.954227 
L 137.871973 148.715475 
L 138.196952 143.056175 
L 138.521932 132.337418 
L 138.846911 144.832046 
L 139.171891 163.94526 
L 139.49687 169.527452 
L 140.146829 206.474206 
L 140.471809 212.246489 
L 140.796788 207.363624 
L 141.446748 160.795526 
L 141.771727 163.651363 
L 142.096707 173.84301 
L 142.421686 151.135459 
L 142.746666 166.627928 
L 143.071645 172.232599 
L 143.396625 161.481753 
L 143.721604 158.201043 
L 144.046584 182.188412 
L 144.371563 196.924652 
L 144.696543 180.428874 
L 145.021522 151.935067 
L 145.671481 116.342517 
L 146.32144 192.708542 
L 146.64642 211.82467 
L 146.971399 192.714074 
L 147.296379 186.985036 
L 147.621359 160.906313 
L 147.946338 154.279238 
L 148.271318 152.106686 
L 148.921277 171.355136 
L 149.246256 163.15636 
L 149.571236 189.712333 
L 149.896215 166.483788 
L 150.221195 165.267542 
L 150.546174 189.485241 
L 150.871154 205.023115 
L 151.196133 206.450422 
L 151.521113 189.413467 
L 151.846092 186.499627 
L 152.171072 176.720351 
L 152.496051 162.141368 
L 153.14601 174.029736 
L 153.47099 173.5833 
L 153.795969 192.995777 
L 154.120949 191.881503 
L 154.445929 179.366347 
L 154.770908 186.518086 
L 155.420867 205.921364 
L 155.745847 200.528309 
L 156.070826 182.081322 
L 156.395806 174.173038 
L 156.720785 171.45808 
L 157.045765 210.086186 
L 157.370744 220.947117 
L 157.695724 210.98316 
L 158.020703 160.312387 
L 158.345683 162.838771 
L 158.670662 162.867814 
L 158.995642 171.265986 
L 159.320621 159.524622 
L 159.97058 183.807261 
L 160.29556 180.738525 
L 160.62054 172.900207 
L 160.945519 170.951358 
L 161.270499 178.745314 
L 161.595478 181.210166 
L 161.920458 163.708231 
L 162.245437 163.820979 
L 162.570417 180.504022 
L 162.895396 178.01673 
L 163.545355 200.835844 
L 163.870335 198.40676 
L 164.195314 172.198689 
L 164.520294 156.121419 
L 164.845273 153.898825 
L 165.170253 194.442744 
L 165.820212 220.151923 
L 166.145191 193.703469 
L 166.470171 180.446048 
L 167.12013 197.984629 
L 167.44511 177.760195 
L 167.770089 175.806902 
L 168.095069 175.21611 
L 168.420048 176.306423 
L 168.745028 187.429863 
L 169.070007 181.810127 
L 169.394987 166.815732 
L 169.719966 167.342644 
L 170.044946 164.562478 
L 170.369925 175.036569 
L 170.694905 173.561509 
L 171.019884 213.211842 
L 171.344864 236.17646 
L 171.669843 243.796302 
L 171.994823 233.757347 
L 172.969761 156.828127 
L 173.619721 197.983216 
L 173.9447 181.051793 
L 174.26968 188.604329 
L 174.594659 187.623434 
L 175.244618 209.884656 
L 175.569598 213.568353 
L 175.894577 233.69777 
L 176.219557 212.481541 
L 176.544536 179.255296 
L 176.869516 162.402542 
L 177.519475 188.345231 
L 177.844454 176.511168 
L 178.169434 193.726537 
L 178.494413 203.728531 
L 178.819393 197.638544 
L 179.469352 211.729391 
L 179.794331 186.054522 
L 180.444291 221.755207 
L 180.76927 228.698294 
L 181.09425 183.262344 
L 181.419229 166.045916 
L 181.744209 190.853015 
L 182.069188 198.240839 
L 182.394168 208.199096 
L 182.719147 214.582934 
L 183.044127 227.699368 
L 183.369106 220.264026 
L 183.694086 198.875285 
L 184.019065 197.522008 
L 184.344045 194.67439 
L 184.669024 221.455693 
L 184.994004 233.948252 
L 185.318983 232.861763 
L 185.643963 226.251457 
L 185.968942 190.448963 
L 186.293922 183.07672 
L 186.618902 203.205664 
L 186.943881 215.265051 
L 187.268861 215.370731 
L 187.59384 226.298982 
L 187.91882 219.160774 
L 188.243799 204.973668 
L 188.568779 211.665745 
L 188.893758 199.725125 
L 189.218738 198.307221 
L 189.543717 180.15012 
L 189.868697 141.564095 
L 190.193676 142.332828 
L 190.518656 153.721869 
L 190.843635 185.809816 
L 191.168615 185.903713 
L 191.493594 188.597578 
L 191.818574 180.706609 
L 192.143553 177.669926 
L 192.468533 175.877433 
L 192.793512 171.715898 
L 193.118492 186.472942 
L 193.768451 238.199608 
L 194.093431 238.630473 
L 194.74339 251.290835 
L 195.068369 252.559543 
L 195.393349 226.552859 
L 195.718328 237.002631 
L 196.043308 237.939907 
L 196.368287 223.101493 
L 196.693267 221.833318 
L 197.018246 206.213171 
L 197.343226 198.29952 
L 197.668205 206.423948 
L 197.993185 223.394688 
L 198.318164 209.274514 
L 198.643144 211.287022 
L 198.968123 196.11119 
L 199.293103 186.784311 
L 199.618083 212.911832 
L 199.943062 213.461383 
L 200.918001 175.194577 
L 201.24298 192.419646 
L 201.892939 201.338825 
L 202.217919 203.22947 
L 202.542898 217.802588 
L 202.867878 224.817473 
L 203.517837 188.822141 
L 203.842816 186.56044 
L 204.167796 172.987887 
L 204.492775 191.906351 
L 204.817755 203.475735 
L 205.142734 227.625448 
L 205.792693 217.895576 
L 206.117673 197.98675 
L 206.442653 156.116086 
L 206.767632 155.925297 
L 207.417591 175.917351 
L 207.742571 166.508374 
L 208.06755 169.18417 
L 208.39253 196.307983 
L 209.042489 179.265662 
L 209.692448 149.018007 
L 210.017427 163.126815 
L 210.342407 160.564094 
L 210.667386 146.854073 
L 210.992366 142.892558 
L 211.317345 141.367441 
L 211.642325 153.543196 
L 211.967304 188.188601 
L 212.942243 151.968788 
L 213.267223 163.385415 
L 213.592202 179.055985 
L 213.917182 157.70621 
L 214.242161 153.287937 
L 214.567141 165.295723 
L 214.89212 190.979832 
L 215.2171 192.045818 
L 215.542079 190.324532 
L 216.192038 220.294449 
L 216.517018 209.259711 
L 216.841997 224.06344 
L 217.491956 240.595816 
L 217.816936 233.234389 
L 218.466895 195.304117 
L 218.791874 190.206963 
L 219.116854 176.863592 
L 219.441834 169.997286 
L 219.766813 154.77996 
L 220.091793 161.192168 
L 220.416772 175.454071 
L 220.741752 208.146069 
L 221.066731 222.712951 
L 221.391711 208.981243 
L 221.71669 189.414872 
L 222.04167 198.030431 
L 222.366649 209.805183 
L 223.016608 185.215978 
L 223.341588 187.237379 
L 223.991547 154.283353 
L 224.316526 153.032788 
L 224.966485 197.658371 
L 225.291465 195.443619 
L 226.266404 163.358941 
L 226.591383 151.895104 
L 227.241342 193.69454 
L 227.566322 234.017849 
L 228.216281 193.247978 
L 228.86624 175.190949 
L 229.191219 170.052327 
L 229.841178 240.888073 
L 230.166158 223.742736 
L 230.491137 197.22338 
L 230.816117 198.302852 
L 231.141096 209.171168 
L 231.791055 196.638285 
L 232.116035 196.788781 
L 232.441015 179.143761 
L 232.765994 169.369222 
L 233.090974 198.271391 
L 233.415953 179.505001 
L 233.740933 182.152123 
L 234.065912 174.680306 
L 234.715871 166.2918 
L 235.040851 200.004154 
L 235.36583 203.72005 
L 235.69081 192.278832 
L 236.015789 192.657329 
L 236.340769 180.518084 
L 236.665748 199.10185 
L 236.990728 186.211341 
L 237.315707 161.212581 
L 237.640687 166.564886 
L 237.965666 148.260725 
L 238.290646 167.235523 
L 238.615626 205.095933 
L 238.940605 204.789696 
L 239.265585 202.077494 
L 239.590564 172.425391 
L 240.565503 140.579133 
L 241.215462 187.368161 
L 241.540441 196.228471 
L 241.865421 181.784702 
L 242.1904 197.195145 
L 242.51538 197.091205 
L 243.165339 191.83927 
L 243.490318 218.011242 
L 243.815298 230.715801 
L 244.140277 248.476102 
L 244.465257 247.171744 
L 244.790236 232.615298 
L 245.115216 207.847429 
L 245.440196 207.73684 
L 245.765175 212.990188 
L 246.090155 206.331724 
L 246.415134 205.604232 
L 246.740114 201.391259 
L 247.065093 213.001704 
L 247.390073 210.307918 
L 247.715052 231.986297 
L 248.040032 207.57387 
L 248.365011 170.661823 
L 248.689991 178.604156 
L 249.01497 209.022561 
L 249.33995 215.415652 
L 249.664929 228.825583 
L 249.989909 231.967522 
L 250.314888 218.089138 
L 250.639868 217.179248 
L 250.964847 209.318545 
L 251.289827 214.872557 
L 251.614807 230.01235 
L 251.939786 228.568722 
L 252.264766 239.029071 
L 252.589745 229.414348 
L 252.914725 213.968242 
L 253.239704 191.369905 
L 253.564684 222.10961 
L 253.889663 237.934737 
L 254.214643 247.251398 
L 254.539622 229.783028 
L 254.864602 204.344249 
L 255.189581 190.058246 
L 255.514561 215.07273 
L 255.83954 250.043298 
L 256.16452 252.385317 
L 256.489499 257.461397 
L 256.814479 238.788887 
L 257.139458 237.473401 
L 257.464438 210.978527 
L 257.789417 199.709836 
L 258.439377 223.340797 
L 258.764356 243.947041 
L 259.089336 237.942685 
L 259.414315 224.777022 
L 259.739295 225.998139 
L 260.064274 219.398685 
L 260.389254 206.371163 
L 261.039213 247.156882 
L 261.364192 242.952067 
L 261.689172 211.626225 
L 262.339131 188.512751 
L 262.66411 184.01215 
L 263.314069 201.929124 
L 263.639049 199.277726 
L 263.964028 176.504178 
L 264.613988 165.855473 
L 264.938967 181.974835 
L 265.263947 170.40762 
L 265.588926 187.617295 
L 265.913906 171.463083 
L 266.238885 172.137324 
L 266.563865 185.587407 
L 266.888844 186.965831 
L 267.213824 192.075482 
L 267.538803 207.539534 
L 267.863783 203.774328 
L 268.188762 161.407548 
L 268.513742 170.351494 
L 268.838721 210.698703 
L 269.163701 227.01942 
L 269.48868 210.959485 
L 269.81366 208.371321 
L 270.138639 251.874528 
L 270.463619 252.292735 
L 270.788598 222.447531 
L 271.113578 160.951471 
L 271.438558 162.66232 
L 271.763537 150.093294 
L 272.088517 150.624768 
L 272.413496 143.850974 
L 272.738476 178.638726 
L 273.063455 191.406159 
L 273.388435 183.891705 
L 273.713414 167.54557 
L 274.038394 157.481195 
L 274.363373 171.273686 
L 274.688353 190.058185 
L 275.013332 169.826195 
L 275.338312 181.829629 
L 275.663291 186.932951 
L 275.988271 209.14271 
L 276.31325 220.941276 
L 276.63823 228.443911 
L 277.288189 222.660288 
L 277.613169 170.192612 
L 277.938148 145.22475 
L 278.263128 138.852642 
L 278.913087 170.713391 
L 279.238066 174.01338 
L 279.563046 170.362554 
L 280.213005 158.889128 
L 280.862964 233.237863 
L 281.187943 235.770842 
L 282.162882 173.855592 
L 282.812841 151.375132 
L 283.13782 158.83111 
L 283.4628 174.658711 
L 283.787779 172.132338 
L 284.437739 200.692819 
L 285.087698 188.224178 
L 285.412677 208.016408 
L 285.737657 204.976664 
L 286.062636 195.865404 
L 286.387616 160.203652 
L 286.712595 176.167815 
L 287.687534 245.708265 
L 288.012513 223.396039 
L 288.337493 215.120474 
L 288.987452 177.14846 
L 289.312431 175.373466 
L 289.637411 184.138395 
L 289.96239 205.35994 
L 290.28737 195.331624 
L 290.61235 194.508006 
L 290.937329 172.520156 
L 291.262309 193.88215 
L 291.587288 196.059293 
L 291.912268 190.572684 
L 292.237247 189.817381 
L 292.562227 188.493479 
L 292.887206 211.73681 
L 293.212186 207.874033 
L 293.537165 212.482356 
L 293.862145 212.726964 
L 294.187124 192.222999 
L 294.512104 181.773188 
L 294.837083 195.619753 
L 295.162063 188.08094 
L 295.487042 204.273527 
L 295.812022 182.956543 
L 296.137001 151.699406 
L 296.461981 142.795262 
L 296.78696 153.231225 
L 297.43692 219.729335 
L 297.761899 233.351976 
L 298.086879 240.96026 
L 298.411858 231.649591 
L 298.736838 209.15585 
L 299.061817 178.258007 
L 299.386797 175.826132 
L 299.711776 192.737553 
L 300.036756 203.452512 
L 300.361735 198.803987 
L 300.686715 185.401573 
L 301.011694 165.670444 
L 301.336674 161.527995 
L 301.986633 235.00661 
L 302.311612 230.359913 
L 302.636592 210.882178 
L 302.961571 163.064295 
L 303.286551 139.100916 
L 303.611531 129.882635 
L 303.93651 129.057323 
L 304.26149 162.386403 
L 304.586469 149.787331 
L 304.911449 183.54625 
L 305.236428 185.187994 
L 305.561408 185.392457 
L 305.886387 195.660968 
L 306.211367 174.490647 
L 306.861326 157.979943 
L 307.186305 163.164939 
L 307.511285 195.680519 
L 307.836264 200.782519 
L 308.161244 184.848316 
L 308.486223 187.922755 
L 308.811203 181.875807 
L 309.136182 203.101112 
L 309.461162 198.32751 
L 309.786141 202.99792 
L 310.111121 202.598918 
L 310.436101 213.456291 
L 311.08606 198.05894 
L 311.411039 211.525899 
L 311.736019 199.218214 
L 312.060998 208.216595 
L 312.385978 210.28598 
L 312.710957 221.358783 
L 313.035937 220.210385 
L 313.360916 206.014667 
L 313.685896 205.920604 
L 314.010875 194.390585 
L 314.335855 214.303211 
L 314.660834 202.193562 
L 314.985814 200.203283 
L 315.310793 192.960606 
L 315.635773 210.918951 
L 315.960752 196.342705 
L 316.285732 169.425251 
L 316.610712 163.584695 
L 316.935691 175.299048 
L 317.260671 157.691109 
L 317.58565 163.04959 
L 317.91063 183.834305 
L 318.235609 190.662662 
L 318.885568 166.43119 
L 319.210548 164.574594 
L 319.535527 173.308947 
L 319.860507 173.886976 
L 320.185486 182.501033 
L 320.510466 181.696868 
L 320.835445 176.246153 
L 321.160425 207.003712 
L 321.810384 154.290046 
L 322.135363 182.446835 
L 322.460343 180.442317 
L 322.785322 185.137353 
L 323.110302 188.109423 
L 323.435282 203.415914 
L 323.760261 190.46348 
L 324.085241 187.598044 
L 324.41022 188.25085 
L 324.7352 198.65337 
L 325.060179 169.826186 
L 325.385159 165.685988 
L 326.035118 198.110994 
L 326.360097 200.537641 
L 326.685077 187.045742 
L 327.010056 168.664803 
L 327.660015 157.296406 
L 327.984995 168.12794 
L 328.309974 157.367503 
L 328.634954 158.652808 
L 328.959933 157.524536 
L 329.284913 162.824636 
L 329.609893 156.560903 
L 329.934872 145.292251 
L 330.259852 154.802207 
L 330.584831 174.12408 
L 330.909811 182.673139 
L 331.23479 177.142382 
L 331.55977 148.220088 
L 331.884749 149.245504 
L 332.209729 163.87564 
L 332.534708 198.336242 
L 332.859688 206.902099 
L 333.509647 158.318724 
L 333.834626 157.222187 
L 334.159606 159.114152 
L 334.809565 166.711542 
L 335.134544 188.323958 
L 335.459524 178.920119 
L 335.784503 197.238363 
L 336.109483 170.230769 
L 336.434463 162.198059 
L 336.759442 167.709916 
L 337.409401 204.101664 
L 337.734381 180.447653 
L 338.05936 175.36813 
L 338.38434 156.526228 
L 338.709319 130.348522 
L 339.034299 134.104096 
L 339.359278 158.326067 
L 339.684258 164.044855 
L 340.009237 188.500083 
L 340.334217 192.114034 
L 340.659196 179.925683 
L 340.984176 202.726233 
L 341.309155 193.797487 
L 341.634135 173.326107 
L 341.959114 184.921956 
L 342.609074 224.324455 
L 342.934053 197.416104 
L 343.259033 156.308242 
L 343.584012 144.046521 
L 343.908992 162.173413 
L 344.233971 168.924322 
L 344.558951 166.681413 
L 344.88393 141.841935 
L 345.533889 123.187246 
L 345.858869 134.148607 
L 346.183848 153.820081 
L 346.508828 155.22195 
L 346.833807 177.549244 
L 347.158787 153.604397 
L 347.483766 141.32247 
L 347.808746 164.526381 
L 348.133725 166.742378 
L 348.458705 179.674074 
L 348.783684 172.857613 
L 349.108664 185.357993 
L 349.433644 174.112988 
L 349.758623 176.972054 
L 350.083603 202.943762 
L 350.408582 186.678378 
L 350.733562 179.209544 
L 351.058541 183.237085 
L 351.383521 211.888822 
L 351.7085 200.66209 
L 352.03348 179.862128 
L 352.358459 176.209215 
L 352.683439 159.217931 
L 353.008418 165.059975 
L 353.333398 151.809911 
L 353.658377 180.36082 
L 353.983357 195.97653 
L 354.308336 199.214262 
L 354.633316 196.463782 
L 354.958295 187.57512 
L 355.283275 186.068842 
L 355.608255 186.928843 
L 355.933234 186.67256 
L 356.258214 211.088175 
L 356.908173 177.299163 
L 357.233152 191.60736 
L 357.558132 199.452318 
L 357.883111 172.552628 
L 358.208091 180.286686 
L 358.53307 192.586835 
L 358.85805 184.443012 
L 359.183029 186.071906 
L 359.508009 188.874557 
L 359.832988 182.987321 
L 360.157968 174.634626 
L 360.482947 206.304896 
L 360.807927 217.518192 
L 361.132906 211.383372 
L 361.457886 200.020717 
L 361.782865 181.188751 
L 362.107845 187.968104 
L 362.432825 190.256255 
L 363.082784 211.173962 
L 363.407763 204.249243 
L 363.732743 213.918661 
L 364.707681 166.799008 
L 365.35764 180.711488 
L 365.68262 183.835184 
L 366.007599 182.675966 
L 366.332579 175.648283 
L 366.657558 187.240995 
L 366.982538 203.092407 
L 367.307517 226.358466 
L 367.632497 241.018043 
L 367.957476 224.057534 
L 368.282456 216.291371 
L 368.607436 214.957177 
L 368.932415 214.503672 
L 369.257395 222.40697 
L 369.582374 225.075792 
L 369.907354 196.073429 
L 370.232333 188.534419 
L 370.882292 241.52785 
L 371.532251 204.065227 
L 371.857231 194.368182 
L 372.18221 178.967974 
L 372.50719 189.65723 
L 372.832169 216.022682 
L 373.157149 232.546065 
L 374.132087 187.142591 
L 374.457067 200.361418 
L 374.782046 197.584505 
L 375.107026 214.564843 
L 375.432006 212.99986 
L 375.756985 191.668741 
L 376.081965 188.852737 
L 376.731924 210.171256 
L 377.056903 199.265897 
L 377.381883 182.702305 
L 377.706862 183.23946 
L 378.031842 185.835888 
L 378.356821 192.665983 
L 378.681801 179.935017 
L 379.00678 179.741539 
L 379.656739 152.187979 
L 379.981719 145.637531 
L 380.306698 144.873294 
L 380.631678 167.781372 
L 380.956657 177.460324 
L 381.281637 170.759568 
L 381.606617 148.363873 
L 382.256576 137.580274 
L 382.581555 174.669275 
L 382.906535 179.808651 
L 383.231514 192.555039 
L 383.556494 179.411837 
L 383.881473 174.910692 
L 384.531432 202.207871 
L 384.856412 206.86469 
L 385.181391 227.336213 
L 385.506371 232.034968 
L 385.83135 212.100147 
L 386.15633 173.912586 
L 386.481309 182.393063 
L 386.806289 176.72709 
L 387.456248 218.088742 
L 387.781227 253.826183 
L 388.106207 240.125328 
L 388.431187 203.328661 
L 388.756166 180.048804 
L 389.081146 209.660948 
L 389.406125 225.368662 
L 389.731105 217.431368 
L 390.056084 206.024662 
L 390.381064 186.094161 
L 390.706043 191.494647 
L 391.031023 216.620172 
L 391.031023 216.620172 
" clip-path="url(#p134e2425b5)" style="fill: none; stroke: #1f77b4; stroke-width: 1.5; stroke-linecap: square"/>
   </g>
   <g id="patch_3">
    <path d="M 50.14375 288.430125 
L 50.14375 22.318125 
" style="fill: none; stroke: #000000; stroke-width: 0.8; stroke-linejoin: miter; stroke-linecap: square"/>
   </g>
   <g id="patch_4">
    <path d="M 407.26375 288.430125 
L 407.26375 22.318125 
" style="fill: none; stroke: #000000; stroke-width: 0.8; stroke-linejoin: miter; stroke-linecap: square"/>
   </g>
   <g id="patch_5">
    <path d="M 50.14375 288.430125 
L 407.26375 288.430125 
" style="fill: none; stroke: #000000; stroke-width: 0.8; stroke-linejoin: miter; stroke-linecap: square"/>
   </g>
   <g id="patch_6">
    <path d="M 50.14375 22.318125 
L 407.26375 22.318125 
" style="fill: none; stroke: #000000; stroke-width: 0.8; stroke-linejoin: miter; stroke-linecap: square"/>
   </g>
   <g id="text_20">
    <!-- SLAB - T(t) -->
    <g transform="translate(196.518438 16.318125) scale(0.12 -0.12)">
     <defs>
      <path id="DejaVuSans-53" d="M 3425 4513 
L 3425 3897 
Q 3066 4069 2747 4153 
Q 2428 4238 2131 4238 
Q 1616 4238 1336 4038 
Q 1056 3838 1056 3469 
Q 1056 3159 1242 3001 
Q 1428 2844 1947 2747 
L 2328 2669 
Q 3034 2534 3370 2195 
Q 3706 1856 3706 1288 
Q 3706 609 3251 259 
Q 2797 -91 1919 -91 
Q 1588 -91 1214 -16 
Q 841 59 441 206 
L 441 856 
Q 825 641 1194 531 
Q 1563 422 1919 422 
Q 2459 422 2753 634 
Q 3047 847 3047 1241 
Q 3047 1584 2836 1778 
Q 2625 1972 2144 2069 
L 1759 2144 
Q 1053 2284 737 2584 
Q 422 2884 422 3419 
Q 422 4038 858 4394 
Q 1294 4750 2059 4750 
Q 2388 4750 2728 4690 
Q 3069 4631 3425 4513 
z
" transform="scale(0.015625)"/>
      <path id="DejaVuSans-4c" d="M 628 4666 
L 1259 4666 
L 1259 531 
L 3531 531 
L 3531 0 
L 628 0 
L 628 4666 
z
" transform="scale(0.015625)"/>
      <path id="DejaVuSans-41" d="M 2188 4044 
L 1331 1722 
L 3047 1722 
L 2188 4044 
z
M 1831 4666 
L 2547 4666 
L 4325 0 
L 3669 0 
L 3244 1197 
L 1141 1197 
L 716 0 
L 50 0 
L 1831 4666 
z
" transform="scale(0.015625)"/>
      <path id="DejaVuSans-42" d="M 1259 2228 
L 1259 519 
L 2272 519 
Q 2781 519 3026 730 
Q 3272 941 3272 1375 
Q 3272 1813 3026 2020 
Q 2781 2228 2272 2228 
L 1259 2228 
z
M 1259 4147 
L 1259 2741 
L 2194 2741 
Q 2656 2741 2882 2914 
Q 3109 3088 3109 3444 
Q 3109 3797 2882 3972 
Q 2656 4147 2194 4147 
L 1259 4147 
z
M 628 4666 
L 2241 4666 
Q 2963 4666 3353 4366 
Q 3744 4066 3744 3513 
Q 3744 3084 3544 2831 
Q 3344 2578 2956 2516 
Q 3422 2416 3680 2098 
Q 3938 1781 3938 1306 
Q 3938 681 3513 340 
Q 3088 0 2303 0 
L 628 0 
L 628 4666 
z
" transform="scale(0.015625)"/>
      <path id="DejaVuSans-2d" d="M 313 2009 
L 1997 2009 
L 1997 1497 
L 313 1497 
L 313 2009 
z
" transform="scale(0.015625)"/>
     </defs>
     <use xlink:href="#DejaVuSans-53"/>
     <use xlink:href="#DejaVuSans-4c" transform="translate(63.476562 0)"/>
     <use xlink:href="#DejaVuSans-41" transform="translate(121.439453 0)"/>
     <use xlink:href="#DejaVuSans-42" transform="translate(189.847656 0)"/>
     <use xlink:href="#DejaVuSans-20" transform="translate(258.451172 0)"/>
     <use xlink:href="#DejaVuSans-2d" transform="translate(290.238281 0)"/>
     <use xlink:href="#DejaVuSans-20" transform="translate(326.322266 0)"/>
     <use xlink:href="#DejaVuSans-54" transform="translate(358.109375 0)"/>
     <use xlink:href="#DejaVuSans-28" transform="translate(419.193359 0)"/>
     <use xlink:href="#DejaVuSans-74" transform="translate(458.207031 0)"/>
     <use xlink:href="#DejaVuSans-29" transform="translate(497.416016 0)"/>
    </g>
   </g>
  </g>
 </g>
 <defs>
  <clipPath id="p134e2425b5">
   <rect x="50.14375" y="22.318125" width="357.12" height="266.112"/>
  </clipPath>
 </defs>
</svg>
