<?xml version="1.0" encoding="utf-8" standalone="no"?>
<!DOCTYPE svg PUBLIC "-//W3C//DTD SVG 1.1//EN"
  "http://www.w3.org/Graphics/SVG/1.1/DTD/svg11.dtd">
<svg xmlns:xlink="http://www.w3.org/1999/xlink" width="451.708125pt" height="335.93625pt" viewBox="0 0 451.708125 335.93625" xmlns="http://www.w3.org/2000/svg" version="1.1">
 <metadata>
  <rdf:RDF xmlns:dc="http://purl.org/dc/elements/1.1/" xmlns:cc="http://creativecommons.org/ns#" xmlns:rdf="http://www.w3.org/1999/02/22-rdf-syntax-ns#">
   <cc:Work>
    <dc:type rdf:resource="http://purl.org/dc/dcmitype/StillImage"/>
    <dc:date>2025-12-10T14:45:34.938291</dc:date>
    <dc:format>image/svg+xml</dc:format>
    <dc:creator>
     <cc:Agent>
      <dc:title>Matplotlib v3.10.1, https://matplotlib.org/</dc:title>
     </cc:Agent>
    </dc:creator>
   </cc:Work>
  </rdf:RDF>
 </metadata>
 <defs>
  <style type="text/css">*{stroke-linejoin: round; stroke-linecap: butt}</style>
 </defs>
 <g id="figure_1">
  <g id="patch_1">
   <path d="M 0 335.93625 
L 451.708125 335.93625 
L 451.708125 0 
L 0 0 
z
" style="fill: #ffffff"/>
  </g>
  <g id="axes_1">
   <g id="patch_2">
    <path d="M 43.803125 298.358125 
L 444.508125 298.358125 
L 444.508125 22.318125 
L 43.803125 22.318125 
z
" style="fill: #ffffff"/>
   </g>
   <g id="patch_3">
    <path d="M 62.016989 298.358125 
L 67.799168 298.358125 
L 67.799168 294.090345 
L 62.016989 294.090345 
z
" clip-path="url(#p3ab957730a)" style="fill: #1f77b4; opacity: 0.6; stroke: #000000; stroke-linejoin: miter"/>
   </g>
   <g id="patch_4">
    <path d="M 67.799168 298.358125 
L 73.581347 298.358125 
L 73.581347 288.115453 
L 67.799168 288.115453 
z
" clip-path="url(#p3ab957730a)" style="fill: #1f77b4; opacity: 0.6; stroke: #000000; stroke-linejoin: miter"/>
   </g>
   <g id="patch_5">
    <path d="M 73.581347 298.358125 
L 79.363525 298.358125 
L 79.363525 278.726338 
L 73.581347 278.726338 
z
" clip-path="url(#p3ab957730a)" style="fill: #1f77b4; opacity: 0.6; stroke: #000000; stroke-linejoin: miter"/>
   </g>
   <g id="patch_6">
    <path d="M 79.363525 298.358125 
L 85.145704 298.358125 
L 85.145704 267.63011 
L 79.363525 267.63011 
z
" clip-path="url(#p3ab957730a)" style="fill: #1f77b4; opacity: 0.6; stroke: #000000; stroke-linejoin: miter"/>
   </g>
   <g id="patch_7">
    <path d="M 85.145704 298.358125 
L 90.927883 298.358125 
L 90.927883 247.998323 
L 85.145704 247.998323 
z
" clip-path="url(#p3ab957730a)" style="fill: #1f77b4; opacity: 0.6; stroke: #000000; stroke-linejoin: miter"/>
   </g>
   <g id="patch_8">
    <path d="M 90.927883 298.358125 
L 96.710062 298.358125 
L 96.710062 221.964866 
L 90.927883 221.964866 
z
" clip-path="url(#p3ab957730a)" style="fill: #1f77b4; opacity: 0.6; stroke: #000000; stroke-linejoin: miter"/>
   </g>
   <g id="patch_9">
    <path d="M 96.710062 298.358125 
L 102.492241 298.358125 
L 102.492241 207.881192 
L 96.710062 207.881192 
z
" clip-path="url(#p3ab957730a)" style="fill: #1f77b4; opacity: 0.6; stroke: #000000; stroke-linejoin: miter"/>
   </g>
   <g id="patch_10">
    <path d="M 102.492241 298.358125 
L 108.27442 298.358125 
L 108.27442 186.542293 
L 102.492241 186.542293 
z
" clip-path="url(#p3ab957730a)" style="fill: #1f77b4; opacity: 0.6; stroke: #000000; stroke-linejoin: miter"/>
   </g>
   <g id="patch_11">
    <path d="M 108.27442 298.358125 
L 114.056599 298.358125 
L 114.056599 149.839387 
L 108.27442 149.839387 
z
" clip-path="url(#p3ab957730a)" style="fill: #1f77b4; opacity: 0.6; stroke: #000000; stroke-linejoin: miter"/>
   </g>
   <g id="patch_12">
    <path d="M 114.056599 298.358125 
L 119.838778 298.358125 
L 119.838778 150.266165 
L 114.056599 150.266165 
z
" clip-path="url(#p3ab957730a)" style="fill: #1f77b4; opacity: 0.6; stroke: #000000; stroke-linejoin: miter"/>
   </g>
   <g id="patch_13">
    <path d="M 119.838778 298.358125 
L 125.620957 298.358125 
L 125.620957 114.843592 
L 119.838778 114.843592 
z
" clip-path="url(#p3ab957730a)" style="fill: #1f77b4; opacity: 0.6; stroke: #000000; stroke-linejoin: miter"/>
   </g>
   <g id="patch_14">
    <path d="M 125.620957 298.358125 
L 131.403136 298.358125 
L 131.403136 96.918917 
L 125.620957 96.918917 
z
" clip-path="url(#p3ab957730a)" style="fill: #1f77b4; opacity: 0.6; stroke: #000000; stroke-linejoin: miter"/>
   </g>
   <g id="patch_15">
    <path d="M 131.403136 298.358125 
L 137.185315 298.358125 
L 137.185315 90.944025 
L 131.403136 90.944025 
z
" clip-path="url(#p3ab957730a)" style="fill: #1f77b4; opacity: 0.6; stroke: #000000; stroke-linejoin: miter"/>
   </g>
   <g id="patch_16">
    <path d="M 137.185315 298.358125 
L 142.967494 298.358125 
L 142.967494 61.069566 
L 137.185315 61.069566 
z
" clip-path="url(#p3ab957730a)" style="fill: #1f77b4; opacity: 0.6; stroke: #000000; stroke-linejoin: miter"/>
   </g>
   <g id="patch_17">
    <path d="M 142.967494 298.358125 
L 148.749673 298.358125 
L 148.749673 47.41267 
L 142.967494 47.41267 
z
" clip-path="url(#p3ab957730a)" style="fill: #1f77b4; opacity: 0.6; stroke: #000000; stroke-linejoin: miter"/>
   </g>
   <g id="patch_18">
    <path d="M 148.749673 298.358125 
L 154.531852 298.358125 
L 154.531852 67.898014 
L 148.749673 67.898014 
z
" clip-path="url(#p3ab957730a)" style="fill: #1f77b4; opacity: 0.6; stroke: #000000; stroke-linejoin: miter"/>
   </g>
   <g id="patch_19">
    <path d="M 154.531852 298.358125 
L 160.31403 298.358125 
L 160.31403 54.241118 
L 154.531852 54.241118 
z
" clip-path="url(#p3ab957730a)" style="fill: #1f77b4; opacity: 0.6; stroke: #000000; stroke-linejoin: miter"/>
   </g>
   <g id="patch_20">
    <path d="M 160.31403 298.358125 
L 166.096209 298.358125 
L 166.096209 54.667896 
L 160.31403 54.667896 
z
" clip-path="url(#p3ab957730a)" style="fill: #1f77b4; opacity: 0.6; stroke: #000000; stroke-linejoin: miter"/>
   </g>
   <g id="patch_21">
    <path d="M 166.096209 298.358125 
L 171.878388 298.358125 
L 171.878388 35.462887 
L 166.096209 35.462887 
z
" clip-path="url(#p3ab957730a)" style="fill: #1f77b4; opacity: 0.6; stroke: #000000; stroke-linejoin: miter"/>
   </g>
   <g id="patch_22">
    <path d="M 171.878388 298.358125 
L 177.660567 298.358125 
L 177.660567 54.241118 
L 171.878388 54.241118 
z
" clip-path="url(#p3ab957730a)" style="fill: #1f77b4; opacity: 0.6; stroke: #000000; stroke-linejoin: miter"/>
   </g>
   <g id="patch_23">
    <path d="M 177.660567 298.358125 
L 183.442746 298.358125 
L 183.442746 57.655342 
L 177.660567 57.655342 
z
" clip-path="url(#p3ab957730a)" style="fill: #1f77b4; opacity: 0.6; stroke: #000000; stroke-linejoin: miter"/>
   </g>
   <g id="patch_24">
    <path d="M 183.442746 298.358125 
L 189.224925 298.358125 
L 189.224925 73.446127 
L 183.442746 73.446127 
z
" clip-path="url(#p3ab957730a)" style="fill: #1f77b4; opacity: 0.6; stroke: #000000; stroke-linejoin: miter"/>
   </g>
   <g id="patch_25">
    <path d="M 189.224925 298.358125 
L 195.007104 298.358125 
L 195.007104 76.860351 
L 189.224925 76.860351 
z
" clip-path="url(#p3ab957730a)" style="fill: #1f77b4; opacity: 0.6; stroke: #000000; stroke-linejoin: miter"/>
   </g>
   <g id="patch_26">
    <path d="M 195.007104 298.358125 
L 200.789283 298.358125 
L 200.789283 106.73481 
L 195.007104 106.73481 
z
" clip-path="url(#p3ab957730a)" style="fill: #1f77b4; opacity: 0.6; stroke: #000000; stroke-linejoin: miter"/>
   </g>
   <g id="patch_27">
    <path d="M 200.789283 298.358125 
L 206.571462 298.358125 
L 206.571462 100.759918 
L 200.789283 100.759918 
z
" clip-path="url(#p3ab957730a)" style="fill: #1f77b4; opacity: 0.6; stroke: #000000; stroke-linejoin: miter"/>
   </g>
   <g id="patch_28">
    <path d="M 206.571462 298.358125 
L 212.353641 298.358125 
L 212.353641 123.379152 
L 206.571462 123.379152 
z
" clip-path="url(#p3ab957730a)" style="fill: #1f77b4; opacity: 0.6; stroke: #000000; stroke-linejoin: miter"/>
   </g>
   <g id="patch_29">
    <path d="M 212.353641 298.358125 
L 218.13582 298.358125 
L 218.13582 145.998385 
L 212.353641 145.998385 
z
" clip-path="url(#p3ab957730a)" style="fill: #1f77b4; opacity: 0.6; stroke: #000000; stroke-linejoin: miter"/>
   </g>
   <g id="patch_30">
    <path d="M 218.13582 298.358125 
L 223.917999 298.358125 
L 223.917999 157.948168 
L 218.13582 157.948168 
z
" clip-path="url(#p3ab957730a)" style="fill: #1f77b4; opacity: 0.6; stroke: #000000; stroke-linejoin: miter"/>
   </g>
   <g id="patch_31">
    <path d="M 223.917999 298.358125 
L 229.700178 298.358125 
L 229.700178 165.203394 
L 223.917999 165.203394 
z
" clip-path="url(#p3ab957730a)" style="fill: #1f77b4; opacity: 0.6; stroke: #000000; stroke-linejoin: miter"/>
   </g>
   <g id="patch_32">
    <path d="M 229.700178 298.358125 
L 235.482357 298.358125 
L 235.482357 185.261959 
L 229.700178 185.261959 
z
" clip-path="url(#p3ab957730a)" style="fill: #1f77b4; opacity: 0.6; stroke: #000000; stroke-linejoin: miter"/>
   </g>
   <g id="patch_33">
    <path d="M 235.482357 298.358125 
L 241.264536 298.358125 
L 241.264536 187.395849 
L 235.482357 187.395849 
z
" clip-path="url(#p3ab957730a)" style="fill: #1f77b4; opacity: 0.6; stroke: #000000; stroke-linejoin: miter"/>
   </g>
   <g id="patch_34">
    <path d="M 241.264536 298.358125 
L 247.046714 298.358125 
L 247.046714 216.416752 
L 241.264536 216.416752 
z
" clip-path="url(#p3ab957730a)" style="fill: #1f77b4; opacity: 0.6; stroke: #000000; stroke-linejoin: miter"/>
   </g>
   <g id="patch_35">
    <path d="M 247.046714 298.358125 
L 252.828893 298.358125 
L 252.828893 218.550642 
L 247.046714 218.550642 
z
" clip-path="url(#p3ab957730a)" style="fill: #1f77b4; opacity: 0.6; stroke: #000000; stroke-linejoin: miter"/>
   </g>
   <g id="patch_36">
    <path d="M 252.828893 298.358125 
L 258.611072 298.358125 
L 258.611072 223.2452 
L 252.828893 223.2452 
z
" clip-path="url(#p3ab957730a)" style="fill: #1f77b4; opacity: 0.6; stroke: #000000; stroke-linejoin: miter"/>
   </g>
   <g id="patch_37">
    <path d="M 258.611072 298.358125 
L 264.393251 298.358125 
L 264.393251 249.278657 
L 258.611072 249.278657 
z
" clip-path="url(#p3ab957730a)" style="fill: #1f77b4; opacity: 0.6; stroke: #000000; stroke-linejoin: miter"/>
   </g>
   <g id="patch_38">
    <path d="M 264.393251 298.358125 
L 270.17543 298.358125 
L 270.17543 258.240995 
L 264.393251 258.240995 
z
" clip-path="url(#p3ab957730a)" style="fill: #1f77b4; opacity: 0.6; stroke: #000000; stroke-linejoin: miter"/>
   </g>
   <g id="patch_39">
    <path d="M 270.17543 298.358125 
L 275.957609 298.358125 
L 275.957609 257.814217 
L 270.17543 257.814217 
z
" clip-path="url(#p3ab957730a)" style="fill: #1f77b4; opacity: 0.6; stroke: #000000; stroke-linejoin: miter"/>
   </g>
   <g id="patch_40">
    <path d="M 275.957609 298.358125 
L 281.739788 298.358125 
L 281.739788 264.642664 
L 275.957609 264.642664 
z
" clip-path="url(#p3ab957730a)" style="fill: #1f77b4; opacity: 0.6; stroke: #000000; stroke-linejoin: miter"/>
   </g>
   <g id="patch_41">
    <path d="M 281.739788 298.358125 
L 287.521967 298.358125 
L 287.521967 270.190778 
L 281.739788 270.190778 
z
" clip-path="url(#p3ab957730a)" style="fill: #1f77b4; opacity: 0.6; stroke: #000000; stroke-linejoin: miter"/>
   </g>
   <g id="patch_42">
    <path d="M 287.521967 298.358125 
L 293.304146 298.358125 
L 293.304146 269.337222 
L 287.521967 269.337222 
z
" clip-path="url(#p3ab957730a)" style="fill: #1f77b4; opacity: 0.6; stroke: #000000; stroke-linejoin: miter"/>
   </g>
   <g id="patch_43">
    <path d="M 293.304146 298.358125 
L 299.086325 298.358125 
L 299.086325 277.872782 
L 293.304146 277.872782 
z
" clip-path="url(#p3ab957730a)" style="fill: #1f77b4; opacity: 0.6; stroke: #000000; stroke-linejoin: miter"/>
   </g>
   <g id="patch_44">
    <path d="M 299.086325 298.358125 
L 304.868504 298.358125 
L 304.868504 283.847674 
L 299.086325 283.847674 
z
" clip-path="url(#p3ab957730a)" style="fill: #1f77b4; opacity: 0.6; stroke: #000000; stroke-linejoin: miter"/>
   </g>
   <g id="patch_45">
    <path d="M 304.868504 298.358125 
L 310.650683 298.358125 
L 310.650683 284.70123 
L 304.868504 284.70123 
z
" clip-path="url(#p3ab957730a)" style="fill: #1f77b4; opacity: 0.6; stroke: #000000; stroke-linejoin: miter"/>
   </g>
   <g id="patch_46">
    <path d="M 310.650683 298.358125 
L 316.432862 298.358125 
L 316.432862 283.420896 
L 310.650683 283.420896 
z
" clip-path="url(#p3ab957730a)" style="fill: #1f77b4; opacity: 0.6; stroke: #000000; stroke-linejoin: miter"/>
   </g>
   <g id="patch_47">
    <path d="M 316.432862 298.358125 
L 322.215041 298.358125 
L 322.215041 288.542231 
L 316.432862 288.542231 
z
" clip-path="url(#p3ab957730a)" style="fill: #1f77b4; opacity: 0.6; stroke: #000000; stroke-linejoin: miter"/>
   </g>
   <g id="patch_48">
    <path d="M 322.215041 298.358125 
L 327.99722 298.358125 
L 327.99722 291.102899 
L 322.215041 291.102899 
z
" clip-path="url(#p3ab957730a)" style="fill: #1f77b4; opacity: 0.6; stroke: #000000; stroke-linejoin: miter"/>
   </g>
   <g id="patch_49">
    <path d="M 327.99722 298.358125 
L 333.779398 298.358125 
L 333.779398 291.529677 
L 327.99722 291.529677 
z
" clip-path="url(#p3ab957730a)" style="fill: #1f77b4; opacity: 0.6; stroke: #000000; stroke-linejoin: miter"/>
   </g>
   <g id="patch_50">
    <path d="M 333.779398 298.358125 
L 339.561577 298.358125 
L 339.561577 293.236789 
L 333.779398 293.236789 
z
" clip-path="url(#p3ab957730a)" style="fill: #1f77b4; opacity: 0.6; stroke: #000000; stroke-linejoin: miter"/>
   </g>
   <g id="patch_51">
    <path d="M 339.561577 298.358125 
L 345.343756 298.358125 
L 345.343756 295.370679 
L 339.561577 295.370679 
z
" clip-path="url(#p3ab957730a)" style="fill: #1f77b4; opacity: 0.6; stroke: #000000; stroke-linejoin: miter"/>
   </g>
   <g id="patch_52">
    <path d="M 345.343756 298.358125 
L 351.125935 298.358125 
L 351.125935 295.797457 
L 345.343756 295.797457 
z
" clip-path="url(#p3ab957730a)" style="fill: #1f77b4; opacity: 0.6; stroke: #000000; stroke-linejoin: miter"/>
   </g>
   <g id="patch_53">
    <path d="M 351.125935 298.358125 
L 356.908114 298.358125 
L 356.908114 297.504569 
L 351.125935 297.504569 
z
" clip-path="url(#p3ab957730a)" style="fill: #1f77b4; opacity: 0.6; stroke: #000000; stroke-linejoin: miter"/>
   </g>
   <g id="patch_54">
    <path d="M 356.908114 298.358125 
L 362.690293 298.358125 
L 362.690293 296.224235 
L 356.908114 296.224235 
z
" clip-path="url(#p3ab957730a)" style="fill: #1f77b4; opacity: 0.6; stroke: #000000; stroke-linejoin: miter"/>
   </g>
   <g id="patch_55">
    <path d="M 362.690293 298.358125 
L 368.472472 298.358125 
L 368.472472 296.651013 
L 362.690293 296.651013 
z
" clip-path="url(#p3ab957730a)" style="fill: #1f77b4; opacity: 0.6; stroke: #000000; stroke-linejoin: miter"/>
   </g>
   <g id="patch_56">
    <path d="M 368.472472 298.358125 
L 374.254651 298.358125 
L 374.254651 297.077791 
L 368.472472 297.077791 
z
" clip-path="url(#p3ab957730a)" style="fill: #1f77b4; opacity: 0.6; stroke: #000000; stroke-linejoin: miter"/>
   </g>
   <g id="patch_57">
    <path d="M 374.254651 298.358125 
L 380.03683 298.358125 
L 380.03683 297.504569 
L 374.254651 297.504569 
z
" clip-path="url(#p3ab957730a)" style="fill: #1f77b4; opacity: 0.6; stroke: #000000; stroke-linejoin: miter"/>
   </g>
   <g id="patch_58">
    <path d="M 380.03683 298.358125 
L 385.819009 298.358125 
L 385.819009 297.504569 
L 380.03683 297.504569 
z
" clip-path="url(#p3ab957730a)" style="fill: #1f77b4; opacity: 0.6; stroke: #000000; stroke-linejoin: miter"/>
   </g>
   <g id="patch_59">
    <path d="M 385.819009 298.358125 
L 391.601188 298.358125 
L 391.601188 298.358125 
L 385.819009 298.358125 
z
" clip-path="url(#p3ab957730a)" style="fill: #1f77b4; opacity: 0.6; stroke: #000000; stroke-linejoin: miter"/>
   </g>
   <g id="patch_60">
    <path d="M 391.601188 298.358125 
L 397.383367 298.358125 
L 397.383367 297.931347 
L 391.601188 297.931347 
z
" clip-path="url(#p3ab957730a)" style="fill: #1f77b4; opacity: 0.6; stroke: #000000; stroke-linejoin: miter"/>
   </g>
   <g id="patch_61">
    <path d="M 397.383367 298.358125 
L 403.165546 298.358125 
L 403.165546 298.358125 
L 397.383367 298.358125 
z
" clip-path="url(#p3ab957730a)" style="fill: #1f77b4; opacity: 0.6; stroke: #000000; stroke-linejoin: miter"/>
   </g>
   <g id="patch_62">
    <path d="M 403.165546 298.358125 
L 408.947725 298.358125 
L 408.947725 298.358125 
L 403.165546 298.358125 
z
" clip-path="url(#p3ab957730a)" style="fill: #1f77b4; opacity: 0.6; stroke: #000000; stroke-linejoin: miter"/>
   </g>
   <g id="patch_63">
    <path d="M 408.947725 298.358125 
L 414.729903 298.358125 
L 414.729903 298.358125 
L 408.947725 298.358125 
z
" clip-path="url(#p3ab957730a)" style="fill: #1f77b4; opacity: 0.6; stroke: #000000; stroke-linejoin: miter"/>
   </g>
   <g id="patch_64">
    <path d="M 414.729903 298.358125 
L 420.512082 298.358125 
L 420.512082 297.504569 
L 414.729903 297.504569 
z
" clip-path="url(#p3ab957730a)" style="fill: #1f77b4; opacity: 0.6; stroke: #000000; stroke-linejoin: miter"/>
   </g>
   <g id="patch_65">
    <path d="M 420.512082 298.358125 
L 426.294261 298.358125 
L 426.294261 297.931347 
L 420.512082 297.931347 
z
" clip-path="url(#p3ab957730a)" style="fill: #1f77b4; opacity: 0.6; stroke: #000000; stroke-linejoin: miter"/>
   </g>
   <g id="matplotlib.axis_1">
    <g id="xtick_1">
     <g id="line2d_1">
      <defs>
       <path id="m4823d8bc23" d="M 0 0 
L 0 3.5 
" style="stroke: #000000; stroke-width: 0.8"/>
      </defs>
      <g>
       <use xlink:href="#m4823d8bc23" x="56.971794" y="298.358125" style="stroke: #000000; stroke-width: 0.8"/>
      </g>
     </g>
     <g id="text_1">
      <!-- 0.0 -->
      <g transform="translate(49.020232 312.956562) scale(0.1 -0.1)">
       <defs>
        <path id="DejaVuSans-30" d="M 2034 4250 
Q 1547 4250 1301 3770 
Q 1056 3291 1056 2328 
Q 1056 1369 1301 889 
Q 1547 409 2034 409 
Q 2525 409 2770 889 
Q 3016 1369 3016 2328 
Q 3016 3291 2770 3770 
Q 2525 4250 2034 4250 
z
M 2034 4750 
Q 2819 4750 3233 4129 
Q 3647 3509 3647 2328 
Q 3647 1150 3233 529 
Q 2819 -91 2034 -91 
Q 1250 -91 836 529 
Q 422 1150 422 2328 
Q 422 3509 836 4129 
Q 1250 4750 2034 4750 
z
" transform="scale(0.015625)"/>
        <path id="DejaVuSans-2e" d="M 684 794 
L 1344 794 
L 1344 0 
L 684 0 
L 684 794 
z
" transform="scale(0.015625)"/>
       </defs>
       <use xlink:href="#DejaVuSans-30"/>
       <use xlink:href="#DejaVuSans-2e" transform="translate(63.623047 0)"/>
       <use xlink:href="#DejaVuSans-30" transform="translate(95.410156 0)"/>
      </g>
     </g>
    </g>
    <g id="xtick_2">
     <g id="line2d_2">
      <g>
       <use xlink:href="#m4823d8bc23" x="124.664106" y="298.358125" style="stroke: #000000; stroke-width: 0.8"/>
      </g>
     </g>
     <g id="text_2">
      <!-- 0.5 -->
      <g transform="translate(116.712544 312.956562) scale(0.1 -0.1)">
       <defs>
        <path id="DejaVuSans-35" d="M 691 4666 
L 3169 4666 
L 3169 4134 
L 1269 4134 
L 1269 2991 
Q 1406 3038 1543 3061 
Q 1681 3084 1819 3084 
Q 2600 3084 3056 2656 
Q 3513 2228 3513 1497 
Q 3513 744 3044 326 
Q 2575 -91 1722 -91 
Q 1428 -91 1123 -41 
Q 819 9 494 109 
L 494 744 
Q 775 591 1075 516 
Q 1375 441 1709 441 
Q 2250 441 2565 725 
Q 2881 1009 2881 1497 
Q 2881 1984 2565 2268 
Q 2250 2553 1709 2553 
Q 1456 2553 1204 2497 
Q 953 2441 691 2322 
L 691 4666 
z
" transform="scale(0.015625)"/>
       </defs>
       <use xlink:href="#DejaVuSans-30"/>
       <use xlink:href="#DejaVuSans-2e" transform="translate(63.623047 0)"/>
       <use xlink:href="#DejaVuSans-35" transform="translate(95.410156 0)"/>
      </g>
     </g>
    </g>
    <g id="xtick_3">
     <g id="line2d_3">
      <g>
       <use xlink:href="#m4823d8bc23" x="192.356418" y="298.358125" style="stroke: #000000; stroke-width: 0.8"/>
      </g>
     </g>
     <g id="text_3">
      <!-- 1.0 -->
      <g transform="translate(184.404856 312.956562) scale(0.1 -0.1)">
       <defs>
        <path id="DejaVuSans-31" d="M 794 531 
L 1825 531 
L 1825 4091 
L 703 3866 
L 703 4441 
L 1819 4666 
L 2450 4666 
L 2450 531 
L 3481 531 
L 3481 0 
L 794 0 
L 794 531 
z
" transform="scale(0.015625)"/>
       </defs>
       <use xlink:href="#DejaVuSans-31"/>
       <use xlink:href="#DejaVuSans-2e" transform="translate(63.623047 0)"/>
       <use xlink:href="#DejaVuSans-30" transform="translate(95.410156 0)"/>
      </g>
     </g>
    </g>
    <g id="xtick_4">
     <g id="line2d_4">
      <g>
       <use xlink:href="#m4823d8bc23" x="260.04873" y="298.358125" style="stroke: #000000; stroke-width: 0.8"/>
      </g>
     </g>
     <g id="text_4">
      <!-- 1.5 -->
      <g transform="translate(252.097168 312.956562) scale(0.1 -0.1)">
       <use xlink:href="#DejaVuSans-31"/>
       <use xlink:href="#DejaVuSans-2e" transform="translate(63.623047 0)"/>
       <use xlink:href="#DejaVuSans-35" transform="translate(95.410156 0)"/>
      </g>
     </g>
    </g>
    <g id="xtick_5">
     <g id="line2d_5">
      <g>
       <use xlink:href="#m4823d8bc23" x="327.741042" y="298.358125" style="stroke: #000000; stroke-width: 0.8"/>
      </g>
     </g>
     <g id="text_5">
      <!-- 2.0 -->
      <g transform="translate(319.78948 312.956562) scale(0.1 -0.1)">
       <defs>
        <path id="DejaVuSans-32" d="M 1228 531 
L 3431 531 
L 3431 0 
L 469 0 
L 469 531 
Q 828 903 1448 1529 
Q 2069 2156 2228 2338 
Q 2531 2678 2651 2914 
Q 2772 3150 2772 3378 
Q 2772 3750 2511 3984 
Q 2250 4219 1831 4219 
Q 1534 4219 1204 4116 
Q 875 4013 500 3803 
L 500 4441 
Q 881 4594 1212 4672 
Q 1544 4750 1819 4750 
Q 2544 4750 2975 4387 
Q 3406 4025 3406 3419 
Q 3406 3131 3298 2873 
Q 3191 2616 2906 2266 
Q 2828 2175 2409 1742 
Q 1991 1309 1228 531 
z
" transform="scale(0.015625)"/>
       </defs>
       <use xlink:href="#DejaVuSans-32"/>
       <use xlink:href="#DejaVuSans-2e" transform="translate(63.623047 0)"/>
       <use xlink:href="#DejaVuSans-30" transform="translate(95.410156 0)"/>
      </g>
     </g>
    </g>
    <g id="xtick_6">
     <g id="line2d_6">
      <g>
       <use xlink:href="#m4823d8bc23" x="395.433355" y="298.358125" style="stroke: #000000; stroke-width: 0.8"/>
      </g>
     </g>
     <g id="text_6">
      <!-- 2.5 -->
      <g transform="translate(387.481792 312.956562) scale(0.1 -0.1)">
       <use xlink:href="#DejaVuSans-32"/>
       <use xlink:href="#DejaVuSans-2e" transform="translate(63.623047 0)"/>
       <use xlink:href="#DejaVuSans-35" transform="translate(95.410156 0)"/>
      </g>
     </g>
    </g>
    <g id="text_7">
     <!-- Speed $v$ (reduced units) -->
     <g transform="translate(184.055625 326.63625) scale(0.1 -0.1)">
      <defs>
       <path id="DejaVuSans-53" d="M 3425 4513 
L 3425 3897 
Q 3066 4069 2747 4153 
Q 2428 4238 2131 4238 
Q 1616 4238 1336 4038 
Q 1056 3838 1056 3469 
Q 1056 3159 1242 3001 
Q 1428 2844 1947 2747 
L 2328 2669 
Q 3034 2534 3370 2195 
Q 3706 1856 3706 1288 
Q 3706 609 3251 259 
Q 2797 -91 1919 -91 
Q 1588 -91 1214 -16 
Q 841 59 441 206 
L 441 856 
Q 825 641 1194 531 
Q 1563 422 1919 422 
Q 2459 422 2753 634 
Q 3047 847 3047 1241 
Q 3047 1584 2836 1778 
Q 2625 1972 2144 2069 
L 1759 2144 
Q 1053 2284 737 2584 
Q 422 2884 422 3419 
Q 422 4038 858 4394 
Q 1294 4750 2059 4750 
Q 2388 4750 2728 4690 
Q 3069 4631 3425 4513 
z
" transform="scale(0.015625)"/>
       <path id="DejaVuSans-70" d="M 1159 525 
L 1159 -1331 
L 581 -1331 
L 581 3500 
L 1159 3500 
L 1159 2969 
Q 1341 3281 1617 3432 
Q 1894 3584 2278 3584 
Q 2916 3584 3314 3078 
Q 3713 2572 3713 1747 
Q 3713 922 3314 415 
Q 2916 -91 2278 -91 
Q 1894 -91 1617 61 
Q 1341 213 1159 525 
z
M 3116 1747 
Q 3116 2381 2855 2742 
Q 2594 3103 2138 3103 
Q 1681 3103 1420 2742 
Q 1159 2381 1159 1747 
Q 1159 1113 1420 752 
Q 1681 391 2138 391 
Q 2594 391 2855 752 
Q 3116 1113 3116 1747 
z
" transform="scale(0.015625)"/>
       <path id="DejaVuSans-65" d="M 3597 1894 
L 3597 1613 
L 953 1613 
Q 991 1019 1311 708 
Q 1631 397 2203 397 
Q 2534 397 2845 478 
Q 3156 559 3463 722 
L 3463 178 
Q 3153 47 2828 -22 
Q 2503 -91 2169 -91 
Q 1331 -91 842 396 
Q 353 884 353 1716 
Q 353 2575 817 3079 
Q 1281 3584 2069 3584 
Q 2775 3584 3186 3129 
Q 3597 2675 3597 1894 
z
M 3022 2063 
Q 3016 2534 2758 2815 
Q 2500 3097 2075 3097 
Q 1594 3097 1305 2825 
Q 1016 2553 972 2059 
L 3022 2063 
z
" transform="scale(0.015625)"/>
       <path id="DejaVuSans-64" d="M 2906 2969 
L 2906 4863 
L 3481 4863 
L 3481 0 
L 2906 0 
L 2906 525 
Q 2725 213 2448 61 
Q 2172 -91 1784 -91 
Q 1150 -91 751 415 
Q 353 922 353 1747 
Q 353 2572 751 3078 
Q 1150 3584 1784 3584 
Q 2172 3584 2448 3432 
Q 2725 3281 2906 2969 
z
M 947 1747 
Q 947 1113 1208 752 
Q 1469 391 1925 391 
Q 2381 391 2643 752 
Q 2906 1113 2906 1747 
Q 2906 2381 2643 2742 
Q 2381 3103 1925 3103 
Q 1469 3103 1208 2742 
Q 947 2381 947 1747 
z
" transform="scale(0.015625)"/>
       <path id="DejaVuSans-20" transform="scale(0.015625)"/>
       <path id="DejaVuSans-Oblique-76" d="M 459 3500 
L 1069 3500 
L 1581 525 
L 3256 3500 
L 3866 3500 
L 1875 0 
L 1100 0 
L 459 3500 
z
" transform="scale(0.015625)"/>
       <path id="DejaVuSans-28" d="M 1984 4856 
Q 1566 4138 1362 3434 
Q 1159 2731 1159 2009 
Q 1159 1288 1364 580 
Q 1569 -128 1984 -844 
L 1484 -844 
Q 1016 -109 783 600 
Q 550 1309 550 2009 
Q 550 2706 781 3412 
Q 1013 4119 1484 4856 
L 1984 4856 
z
" transform="scale(0.015625)"/>
       <path id="DejaVuSans-72" d="M 2631 2963 
Q 2534 3019 2420 3045 
Q 2306 3072 2169 3072 
Q 1681 3072 1420 2755 
Q 1159 2438 1159 1844 
L 1159 0 
L 581 0 
L 581 3500 
L 1159 3500 
L 1159 2956 
Q 1341 3275 1631 3429 
Q 1922 3584 2338 3584 
Q 2397 3584 2469 3576 
Q 2541 3569 2628 3553 
L 2631 2963 
z
" transform="scale(0.015625)"/>
       <path id="DejaVuSans-75" d="M 544 1381 
L 544 3500 
L 1119 3500 
L 1119 1403 
Q 1119 906 1312 657 
Q 1506 409 1894 409 
Q 2359 409 2629 706 
Q 2900 1003 2900 1516 
L 2900 3500 
L 3475 3500 
L 3475 0 
L 2900 0 
L 2900 538 
Q 2691 219 2414 64 
Q 2138 -91 1772 -91 
Q 1169 -91 856 284 
Q 544 659 544 1381 
z
M 1991 3584 
L 1991 3584 
z
" transform="scale(0.015625)"/>
       <path id="DejaVuSans-63" d="M 3122 3366 
L 3122 2828 
Q 2878 2963 2633 3030 
Q 2388 3097 2138 3097 
Q 1578 3097 1268 2742 
Q 959 2388 959 1747 
Q 959 1106 1268 751 
Q 1578 397 2138 397 
Q 2388 397 2633 464 
Q 2878 531 3122 666 
L 3122 134 
Q 2881 22 2623 -34 
Q 2366 -91 2075 -91 
Q 1284 -91 818 406 
Q 353 903 353 1747 
Q 353 2603 823 3093 
Q 1294 3584 2113 3584 
Q 2378 3584 2631 3529 
Q 2884 3475 3122 3366 
z
" transform="scale(0.015625)"/>
       <path id="DejaVuSans-6e" d="M 3513 2113 
L 3513 0 
L 2938 0 
L 2938 2094 
Q 2938 2591 2744 2837 
Q 2550 3084 2163 3084 
Q 1697 3084 1428 2787 
Q 1159 2491 1159 1978 
L 1159 0 
L 581 0 
L 581 3500 
L 1159 3500 
L 1159 2956 
Q 1366 3272 1645 3428 
Q 1925 3584 2291 3584 
Q 2894 3584 3203 3211 
Q 3513 2838 3513 2113 
z
" transform="scale(0.015625)"/>
       <path id="DejaVuSans-69" d="M 603 3500 
L 1178 3500 
L 1178 0 
L 603 0 
L 603 3500 
z
M 603 4863 
L 1178 4863 
L 1178 4134 
L 603 4134 
L 603 4863 
z
" transform="scale(0.015625)"/>
       <path id="DejaVuSans-74" d="M 1172 4494 
L 1172 3500 
L 2356 3500 
L 2356 3053 
L 1172 3053 
L 1172 1153 
Q 1172 725 1289 603 
Q 1406 481 1766 481 
L 2356 481 
L 2356 0 
L 1766 0 
Q 1100 0 847 248 
Q 594 497 594 1153 
L 594 3053 
L 172 3053 
L 172 3500 
L 594 3500 
L 594 4494 
L 1172 4494 
z
" transform="scale(0.015625)"/>
       <path id="DejaVuSans-73" d="M 2834 3397 
L 2834 2853 
Q 2591 2978 2328 3040 
Q 2066 3103 1784 3103 
Q 1356 3103 1142 2972 
Q 928 2841 928 2578 
Q 928 2378 1081 2264 
Q 1234 2150 1697 2047 
L 1894 2003 
Q 2506 1872 2764 1633 
Q 3022 1394 3022 966 
Q 3022 478 2636 193 
Q 2250 -91 1575 -91 
Q 1294 -91 989 -36 
Q 684 19 347 128 
L 347 722 
Q 666 556 975 473 
Q 1284 391 1588 391 
Q 1994 391 2212 530 
Q 2431 669 2431 922 
Q 2431 1156 2273 1281 
Q 2116 1406 1581 1522 
L 1381 1569 
Q 847 1681 609 1914 
Q 372 2147 372 2553 
Q 372 3047 722 3315 
Q 1072 3584 1716 3584 
Q 2034 3584 2315 3537 
Q 2597 3491 2834 3397 
z
" transform="scale(0.015625)"/>
       <path id="DejaVuSans-29" d="M 513 4856 
L 1013 4856 
Q 1481 4119 1714 3412 
Q 1947 2706 1947 2009 
Q 1947 1309 1714 600 
Q 1481 -109 1013 -844 
L 513 -844 
Q 928 -128 1133 580 
Q 1338 1288 1338 2009 
Q 1338 2731 1133 3434 
Q 928 4138 513 4856 
z
" transform="scale(0.015625)"/>
      </defs>
      <use xlink:href="#DejaVuSans-53" transform="translate(0 0.015625)"/>
      <use xlink:href="#DejaVuSans-70" transform="translate(63.476562 0.015625)"/>
      <use xlink:href="#DejaVuSans-65" transform="translate(126.953125 0.015625)"/>
      <use xlink:href="#DejaVuSans-65" transform="translate(188.476562 0.015625)"/>
      <use xlink:href="#DejaVuSans-64" transform="translate(250 0.015625)"/>
      <use xlink:href="#DejaVuSans-20" transform="translate(313.476562 0.015625)"/>
      <use xlink:href="#DejaVuSans-Oblique-76" transform="translate(345.263672 0.015625)"/>
      <use xlink:href="#DejaVuSans-20" transform="translate(404.443359 0.015625)"/>
      <use xlink:href="#DejaVuSans-28" transform="translate(436.230469 0.015625)"/>
      <use xlink:href="#DejaVuSans-72" transform="translate(475.244141 0.015625)"/>
      <use xlink:href="#DejaVuSans-65" transform="translate(516.357422 0.015625)"/>
      <use xlink:href="#DejaVuSans-64" transform="translate(577.880859 0.015625)"/>
      <use xlink:href="#DejaVuSans-75" transform="translate(641.357422 0.015625)"/>
      <use xlink:href="#DejaVuSans-63" transform="translate(704.736328 0.015625)"/>
      <use xlink:href="#DejaVuSans-65" transform="translate(759.716797 0.015625)"/>
      <use xlink:href="#DejaVuSans-64" transform="translate(821.240234 0.015625)"/>
      <use xlink:href="#DejaVuSans-20" transform="translate(884.716797 0.015625)"/>
      <use xlink:href="#DejaVuSans-75" transform="translate(916.503906 0.015625)"/>
      <use xlink:href="#DejaVuSans-6e" transform="translate(979.882812 0.015625)"/>
      <use xlink:href="#DejaVuSans-69" transform="translate(1043.261719 0.015625)"/>
      <use xlink:href="#DejaVuSans-74" transform="translate(1071.044922 0.015625)"/>
      <use xlink:href="#DejaVuSans-73" transform="translate(1110.253906 0.015625)"/>
      <use xlink:href="#DejaVuSans-29" transform="translate(1162.353516 0.015625)"/>
     </g>
    </g>
   </g>
   <g id="matplotlib.axis_2">
    <g id="ytick_1">
     <g id="line2d_7">
      <defs>
       <path id="mdf9ecfe6d7" d="M 0 0 
L -3.5 0 
" style="stroke: #000000; stroke-width: 0.8"/>
      </defs>
      <g>
       <use xlink:href="#mdf9ecfe6d7" x="43.803125" y="298.358125" style="stroke: #000000; stroke-width: 0.8"/>
      </g>
     </g>
     <g id="text_8">
      <!-- 0.0 -->
      <g transform="translate(20.9 302.157344) scale(0.1 -0.1)">
       <use xlink:href="#DejaVuSans-30"/>
       <use xlink:href="#DejaVuSans-2e" transform="translate(63.623047 0)"/>
       <use xlink:href="#DejaVuSans-30" transform="translate(95.410156 0)"/>
      </g>
     </g>
    </g>
    <g id="ytick_2">
     <g id="line2d_8">
      <g>
       <use xlink:href="#mdf9ecfe6d7" x="43.803125" y="251.696038" style="stroke: #000000; stroke-width: 0.8"/>
      </g>
     </g>
     <g id="text_9">
      <!-- 0.2 -->
      <g transform="translate(20.9 255.495257) scale(0.1 -0.1)">
       <use xlink:href="#DejaVuSans-30"/>
       <use xlink:href="#DejaVuSans-2e" transform="translate(63.623047 0)"/>
       <use xlink:href="#DejaVuSans-32" transform="translate(95.410156 0)"/>
      </g>
     </g>
    </g>
    <g id="ytick_3">
     <g id="line2d_9">
      <g>
       <use xlink:href="#mdf9ecfe6d7" x="43.803125" y="205.033952" style="stroke: #000000; stroke-width: 0.8"/>
      </g>
     </g>
     <g id="text_10">
      <!-- 0.4 -->
      <g transform="translate(20.9 208.83317) scale(0.1 -0.1)">
       <defs>
        <path id="DejaVuSans-34" d="M 2419 4116 
L 825 1625 
L 2419 1625 
L 2419 4116 
z
M 2253 4666 
L 3047 4666 
L 3047 1625 
L 3713 1625 
L 3713 1100 
L 3047 1100 
L 3047 0 
L 2419 0 
L 2419 1100 
L 313 1100 
L 313 1709 
L 2253 4666 
z
" transform="scale(0.015625)"/>
       </defs>
       <use xlink:href="#DejaVuSans-30"/>
       <use xlink:href="#DejaVuSans-2e" transform="translate(63.623047 0)"/>
       <use xlink:href="#DejaVuSans-34" transform="translate(95.410156 0)"/>
      </g>
     </g>
    </g>
    <g id="ytick_4">
     <g id="line2d_10">
      <g>
       <use xlink:href="#mdf9ecfe6d7" x="43.803125" y="158.371865" style="stroke: #000000; stroke-width: 0.8"/>
      </g>
     </g>
     <g id="text_11">
      <!-- 0.6 -->
      <g transform="translate(20.9 162.171084) scale(0.1 -0.1)">
       <defs>
        <path id="DejaVuSans-36" d="M 2113 2584 
Q 1688 2584 1439 2293 
Q 1191 2003 1191 1497 
Q 1191 994 1439 701 
Q 1688 409 2113 409 
Q 2538 409 2786 701 
Q 3034 994 3034 1497 
Q 3034 2003 2786 2293 
Q 2538 2584 2113 2584 
z
M 3366 4563 
L 3366 3988 
Q 3128 4100 2886 4159 
Q 2644 4219 2406 4219 
Q 1781 4219 1451 3797 
Q 1122 3375 1075 2522 
Q 1259 2794 1537 2939 
Q 1816 3084 2150 3084 
Q 2853 3084 3261 2657 
Q 3669 2231 3669 1497 
Q 3669 778 3244 343 
Q 2819 -91 2113 -91 
Q 1303 -91 875 529 
Q 447 1150 447 2328 
Q 447 3434 972 4092 
Q 1497 4750 2381 4750 
Q 2619 4750 2861 4703 
Q 3103 4656 3366 4563 
z
" transform="scale(0.015625)"/>
       </defs>
       <use xlink:href="#DejaVuSans-30"/>
       <use xlink:href="#DejaVuSans-2e" transform="translate(63.623047 0)"/>
       <use xlink:href="#DejaVuSans-36" transform="translate(95.410156 0)"/>
      </g>
     </g>
    </g>
    <g id="ytick_5">
     <g id="line2d_11">
      <g>
       <use xlink:href="#mdf9ecfe6d7" x="43.803125" y="111.709778" style="stroke: #000000; stroke-width: 0.8"/>
      </g>
     </g>
     <g id="text_12">
      <!-- 0.8 -->
      <g transform="translate(20.9 115.508997) scale(0.1 -0.1)">
       <defs>
        <path id="DejaVuSans-38" d="M 2034 2216 
Q 1584 2216 1326 1975 
Q 1069 1734 1069 1313 
Q 1069 891 1326 650 
Q 1584 409 2034 409 
Q 2484 409 2743 651 
Q 3003 894 3003 1313 
Q 3003 1734 2745 1975 
Q 2488 2216 2034 2216 
z
M 1403 2484 
Q 997 2584 770 2862 
Q 544 3141 544 3541 
Q 544 4100 942 4425 
Q 1341 4750 2034 4750 
Q 2731 4750 3128 4425 
Q 3525 4100 3525 3541 
Q 3525 3141 3298 2862 
Q 3072 2584 2669 2484 
Q 3125 2378 3379 2068 
Q 3634 1759 3634 1313 
Q 3634 634 3220 271 
Q 2806 -91 2034 -91 
Q 1263 -91 848 271 
Q 434 634 434 1313 
Q 434 1759 690 2068 
Q 947 2378 1403 2484 
z
M 1172 3481 
Q 1172 3119 1398 2916 
Q 1625 2713 2034 2713 
Q 2441 2713 2670 2916 
Q 2900 3119 2900 3481 
Q 2900 3844 2670 4047 
Q 2441 4250 2034 4250 
Q 1625 4250 1398 4047 
Q 1172 3844 1172 3481 
z
" transform="scale(0.015625)"/>
       </defs>
       <use xlink:href="#DejaVuSans-30"/>
       <use xlink:href="#DejaVuSans-2e" transform="translate(63.623047 0)"/>
       <use xlink:href="#DejaVuSans-38" transform="translate(95.410156 0)"/>
      </g>
     </g>
    </g>
    <g id="ytick_6">
     <g id="line2d_12">
      <g>
       <use xlink:href="#mdf9ecfe6d7" x="43.803125" y="65.047692" style="stroke: #000000; stroke-width: 0.8"/>
      </g>
     </g>
     <g id="text_13">
      <!-- 1.0 -->
      <g transform="translate(20.9 68.84691) scale(0.1 -0.1)">
       <use xlink:href="#DejaVuSans-31"/>
       <use xlink:href="#DejaVuSans-2e" transform="translate(63.623047 0)"/>
       <use xlink:href="#DejaVuSans-30" transform="translate(95.410156 0)"/>
      </g>
     </g>
    </g>
    <g id="text_14">
     <!-- Probability density $f(v)$ -->
     <g transform="translate(14.8 217.138125) rotate(-90) scale(0.1 -0.1)">
      <defs>
       <path id="DejaVuSans-50" d="M 1259 4147 
L 1259 2394 
L 2053 2394 
Q 2494 2394 2734 2622 
Q 2975 2850 2975 3272 
Q 2975 3691 2734 3919 
Q 2494 4147 2053 4147 
L 1259 4147 
z
M 628 4666 
L 2053 4666 
Q 2838 4666 3239 4311 
Q 3641 3956 3641 3272 
Q 3641 2581 3239 2228 
Q 2838 1875 2053 1875 
L 1259 1875 
L 1259 0 
L 628 0 
L 628 4666 
z
" transform="scale(0.015625)"/>
       <path id="DejaVuSans-6f" d="M 1959 3097 
Q 1497 3097 1228 2736 
Q 959 2375 959 1747 
Q 959 1119 1226 758 
Q 1494 397 1959 397 
Q 2419 397 2687 759 
Q 2956 1122 2956 1747 
Q 2956 2369 2687 2733 
Q 2419 3097 1959 3097 
z
M 1959 3584 
Q 2709 3584 3137 3096 
Q 3566 2609 3566 1747 
Q 3566 888 3137 398 
Q 2709 -91 1959 -91 
Q 1206 -91 779 398 
Q 353 888 353 1747 
Q 353 2609 779 3096 
Q 1206 3584 1959 3584 
z
" transform="scale(0.015625)"/>
       <path id="DejaVuSans-62" d="M 3116 1747 
Q 3116 2381 2855 2742 
Q 2594 3103 2138 3103 
Q 1681 3103 1420 2742 
Q 1159 2381 1159 1747 
Q 1159 1113 1420 752 
Q 1681 391 2138 391 
Q 2594 391 2855 752 
Q 3116 1113 3116 1747 
z
M 1159 2969 
Q 1341 3281 1617 3432 
Q 1894 3584 2278 3584 
Q 2916 3584 3314 3078 
Q 3713 2572 3713 1747 
Q 3713 922 3314 415 
Q 2916 -91 2278 -91 
Q 1894 -91 1617 61 
Q 1341 213 1159 525 
L 1159 0 
L 581 0 
L 581 4863 
L 1159 4863 
L 1159 2969 
z
" transform="scale(0.015625)"/>
       <path id="DejaVuSans-61" d="M 2194 1759 
Q 1497 1759 1228 1600 
Q 959 1441 959 1056 
Q 959 750 1161 570 
Q 1363 391 1709 391 
Q 2188 391 2477 730 
Q 2766 1069 2766 1631 
L 2766 1759 
L 2194 1759 
z
M 3341 1997 
L 3341 0 
L 2766 0 
L 2766 531 
Q 2569 213 2275 61 
Q 1981 -91 1556 -91 
Q 1019 -91 701 211 
Q 384 513 384 1019 
Q 384 1609 779 1909 
Q 1175 2209 1959 2209 
L 2766 2209 
L 2766 2266 
Q 2766 2663 2505 2880 
Q 2244 3097 1772 3097 
Q 1472 3097 1187 3025 
Q 903 2953 641 2809 
L 641 3341 
Q 956 3463 1253 3523 
Q 1550 3584 1831 3584 
Q 2591 3584 2966 3190 
Q 3341 2797 3341 1997 
z
" transform="scale(0.015625)"/>
       <path id="DejaVuSans-6c" d="M 603 4863 
L 1178 4863 
L 1178 0 
L 603 0 
L 603 4863 
z
" transform="scale(0.015625)"/>
       <path id="DejaVuSans-79" d="M 2059 -325 
Q 1816 -950 1584 -1140 
Q 1353 -1331 966 -1331 
L 506 -1331 
L 506 -850 
L 844 -850 
Q 1081 -850 1212 -737 
Q 1344 -625 1503 -206 
L 1606 56 
L 191 3500 
L 800 3500 
L 1894 763 
L 2988 3500 
L 3597 3500 
L 2059 -325 
z
" transform="scale(0.015625)"/>
       <path id="DejaVuSans-Oblique-66" d="M 3059 4863 
L 2969 4384 
L 2419 4384 
Q 2106 4384 1964 4261 
Q 1822 4138 1753 3809 
L 1691 3500 
L 2638 3500 
L 2553 3053 
L 1606 3053 
L 1013 0 
L 434 0 
L 1031 3053 
L 481 3053 
L 563 3500 
L 1113 3500 
L 1159 3744 
Q 1278 4363 1576 4613 
Q 1875 4863 2516 4863 
L 3059 4863 
z
" transform="scale(0.015625)"/>
      </defs>
      <use xlink:href="#DejaVuSans-50" transform="translate(0 0.015625)"/>
      <use xlink:href="#DejaVuSans-72" transform="translate(60.302734 0.015625)"/>
      <use xlink:href="#DejaVuSans-6f" transform="translate(101.416016 0.015625)"/>
      <use xlink:href="#DejaVuSans-62" transform="translate(162.597656 0.015625)"/>
      <use xlink:href="#DejaVuSans-61" transform="translate(226.074219 0.015625)"/>
      <use xlink:href="#DejaVuSans-62" transform="translate(287.353516 0.015625)"/>
      <use xlink:href="#DejaVuSans-69" transform="translate(350.830078 0.015625)"/>
      <use xlink:href="#DejaVuSans-6c" transform="translate(378.613281 0.015625)"/>
      <use xlink:href="#DejaVuSans-69" transform="translate(406.396484 0.015625)"/>
      <use xlink:href="#DejaVuSans-74" transform="translate(434.179688 0.015625)"/>
      <use xlink:href="#DejaVuSans-79" transform="translate(473.388672 0.015625)"/>
      <use xlink:href="#DejaVuSans-20" transform="translate(532.568359 0.015625)"/>
      <use xlink:href="#DejaVuSans-64" transform="translate(564.355469 0.015625)"/>
      <use xlink:href="#DejaVuSans-65" transform="translate(627.832031 0.015625)"/>
      <use xlink:href="#DejaVuSans-6e" transform="translate(689.355469 0.015625)"/>
      <use xlink:href="#DejaVuSans-73" transform="translate(752.734375 0.015625)"/>
      <use xlink:href="#DejaVuSans-69" transform="translate(804.833984 0.015625)"/>
      <use xlink:href="#DejaVuSans-74" transform="translate(832.617188 0.015625)"/>
      <use xlink:href="#DejaVuSans-79" transform="translate(871.826172 0.015625)"/>
      <use xlink:href="#DejaVuSans-20" transform="translate(931.005859 0.015625)"/>
      <use xlink:href="#DejaVuSans-Oblique-66" transform="translate(962.792969 0.015625)"/>
      <use xlink:href="#DejaVuSans-28" transform="translate(997.998047 0.015625)"/>
      <use xlink:href="#DejaVuSans-Oblique-76" transform="translate(1037.011719 0.015625)"/>
      <use xlink:href="#DejaVuSans-29" transform="translate(1096.191406 0.015625)"/>
     </g>
    </g>
   </g>
   <g id="line2d_13">
    <path d="M 64.908078 294.546986 
L 70.690257 287.09814 
L 76.472436 275.995755 
L 82.254615 261.63405 
L 88.036794 244.517636 
L 93.818973 225.239516 
L 99.601152 204.455691 
L 105.383331 182.857718 
L 111.16551 161.144632 
L 116.947688 139.995644 
L 122.729867 120.04491 
L 128.512046 101.859496 
L 134.294225 85.921454 
L 140.076404 72.614605 
L 145.858583 62.216392 
L 151.640762 54.894814 
L 157.422941 50.710228 
L 163.20512 49.62153 
L 168.987299 51.496053 
L 174.769478 56.12238 
L 180.551657 63.225192 
L 186.333836 72.481256 
L 192.116015 83.535676 
L 197.898194 96.017648 
L 203.680372 109.555034 
L 209.462551 123.787234 
L 215.24473 138.375991 
L 221.026909 153.013901 
L 226.809088 167.430562 
L 232.591267 181.396413 
L 238.373446 194.72444 
L 244.155625 207.269972 
L 249.937804 218.928902 
L 255.719983 229.634642 
L 261.502162 239.354159 
L 267.284341 248.08343 
L 273.06652 255.842597 
L 278.848699 262.671106 
L 284.630878 268.623015 
L 290.413056 273.762661 
L 296.195235 278.160788 
L 301.977414 281.891209 
L 307.759593 285.028031 
L 313.541772 287.643451 
L 319.323951 289.806077 
L 325.10613 291.579744 
L 330.888309 293.022756 
L 336.670488 294.187487 
L 342.452667 295.120281 
L 348.234846 295.861578 
L 354.017025 296.446214 
L 359.799204 296.903828 
L 365.581383 297.25935 
L 371.363562 297.53352 
L 377.14574 297.743407 
L 382.927919 297.902918 
L 388.710098 298.023271 
L 394.492277 298.11343 
L 400.274456 298.180491 
L 406.056635 298.230019 
L 411.838814 298.266343 
L 417.620993 298.292796 
L 423.403172 298.311928 
" clip-path="url(#p3ab957730a)" style="fill: none; stroke: #ff7f0e; stroke-width: 2; stroke-linecap: square"/>
   </g>
   <g id="patch_66">
    <path d="M 43.803125 298.358125 
L 43.803125 22.318125 
" style="fill: none; stroke: #000000; stroke-width: 0.8; stroke-linejoin: miter; stroke-linecap: square"/>
   </g>
   <g id="patch_67">
    <path d="M 444.508125 298.358125 
L 444.508125 22.318125 
" style="fill: none; stroke: #000000; stroke-width: 0.8; stroke-linejoin: miter; stroke-linecap: square"/>
   </g>
   <g id="patch_68">
    <path d="M 43.803125 298.358125 
L 444.508125 298.358125 
" style="fill: none; stroke: #000000; stroke-width: 0.8; stroke-linejoin: miter; stroke-linecap: square"/>
   </g>
   <g id="patch_69">
    <path d="M 43.803125 22.318125 
L 444.508125 22.318125 
" style="fill: none; stroke: #000000; stroke-width: 0.8; stroke-linejoin: miter; stroke-linecap: square"/>
   </g>
   <g id="text_15">
    <!-- SLAB - velocity distribution vs MB -->
    <g transform="translate(143.335938 16.318125) scale(0.12 -0.12)">
     <defs>
      <path id="DejaVuSans-4c" d="M 628 4666 
L 1259 4666 
L 1259 531 
L 3531 531 
L 3531 0 
L 628 0 
L 628 4666 
z
" transform="scale(0.015625)"/>
      <path id="DejaVuSans-41" d="M 2188 4044 
L 1331 1722 
L 3047 1722 
L 2188 4044 
z
M 1831 4666 
L 2547 4666 
L 4325 0 
L 3669 0 
L 3244 1197 
L 1141 1197 
L 716 0 
L 50 0 
L 1831 4666 
z
" transform="scale(0.015625)"/>
      <path id="DejaVuSans-42" d="M 1259 2228 
L 1259 519 
L 2272 519 
Q 2781 519 3026 730 
Q 3272 941 3272 1375 
Q 3272 1813 3026 2020 
Q 2781 2228 2272 2228 
L 1259 2228 
z
M 1259 4147 
L 1259 2741 
L 2194 2741 
Q 2656 2741 2882 2914 
Q 3109 3088 3109 3444 
Q 3109 3797 2882 3972 
Q 2656 4147 2194 4147 
L 1259 4147 
z
M 628 4666 
L 2241 4666 
Q 2963 4666 3353 4366 
Q 3744 4066 3744 3513 
Q 3744 3084 3544 2831 
Q 3344 2578 2956 2516 
Q 3422 2416 3680 2098 
Q 3938 1781 3938 1306 
Q 3938 681 3513 340 
Q 3088 0 2303 0 
L 628 0 
L 628 4666 
z
" transform="scale(0.015625)"/>
      <path id="DejaVuSans-2d" d="M 313 2009 
L 1997 2009 
L 1997 1497 
L 313 1497 
L 313 2009 
z
" transform="scale(0.015625)"/>
      <path id="DejaVuSans-76" d="M 191 3500 
L 800 3500 
L 1894 563 
L 2988 3500 
L 3597 3500 
L 2284 0 
L 1503 0 
L 191 3500 
z
" transform="scale(0.015625)"/>
      <path id="DejaVuSans-4d" d="M 628 4666 
L 1569 4666 
L 2759 1491 
L 3956 4666 
L 4897 4666 
L 4897 0 
L 4281 0 
L 4281 4097 
L 3078 897 
L 2444 897 
L 1241 4097 
L 1241 0 
L 628 0 
L 628 4666 
z
" transform="scale(0.015625)"/>
     </defs>
     <use xlink:href="#DejaVuSans-53"/>
     <use xlink:href="#DejaVuSans-4c" transform="translate(63.476562 0)"/>
     <use xlink:href="#DejaVuSans-41" transform="translate(121.439453 0)"/>
     <use xlink:href="#DejaVuSans-42" transform="translate(189.847656 0)"/>
     <use xlink:href="#DejaVuSans-20" transform="translate(258.451172 0)"/>
     <use xlink:href="#DejaVuSans-2d" transform="translate(290.238281 0)"/>
     <use xlink:href="#DejaVuSans-20" transform="translate(326.322266 0)"/>
     <use xlink:href="#DejaVuSans-76" transform="translate(358.109375 0)"/>
     <use xlink:href="#DejaVuSans-65" transform="translate(417.289062 0)"/>
     <use xlink:href="#DejaVuSans-6c" transform="translate(478.8125 0)"/>
     <use xlink:href="#DejaVuSans-6f" transform="translate(506.595703 0)"/>
     <use xlink:href="#DejaVuSans-63" transform="translate(567.777344 0)"/>
     <use xlink:href="#DejaVuSans-69" transform="translate(622.757812 0)"/>
     <use xlink:href="#DejaVuSans-74" transform="translate(650.541016 0)"/>
     <use xlink:href="#DejaVuSans-79" transform="translate(689.75 0)"/>
     <use xlink:href="#DejaVuSans-20" transform="translate(748.929688 0)"/>
     <use xlink:href="#DejaVuSans-64" transform="translate(780.716797 0)"/>
     <use xlink:href="#DejaVuSans-69" transform="translate(844.193359 0)"/>
     <use xlink:href="#DejaVuSans-73" transform="translate(871.976562 0)"/>
     <use xlink:href="#DejaVuSans-74" transform="translate(924.076172 0)"/>
     <use xlink:href="#DejaVuSans-72" transform="translate(963.285156 0)"/>
     <use xlink:href="#DejaVuSans-69" transform="translate(1004.398438 0)"/>
     <use xlink:href="#DejaVuSans-62" transform="translate(1032.181641 0)"/>
     <use xlink:href="#DejaVuSans-75" transform="translate(1095.658203 0)"/>
     <use xlink:href="#DejaVuSans-74" transform="translate(1159.037109 0)"/>
     <use xlink:href="#DejaVuSans-69" transform="translate(1198.246094 0)"/>
     <use xlink:href="#DejaVuSans-6f" transform="translate(1226.029297 0)"/>
     <use xlink:href="#DejaVuSans-6e" transform="translate(1287.210938 0)"/>
     <use xlink:href="#DejaVuSans-20" transform="translate(1350.589844 0)"/>
     <use xlink:href="#DejaVuSans-76" transform="translate(1382.376953 0)"/>
     <use xlink:href="#DejaVuSans-73" transform="translate(1441.556641 0)"/>
     <use xlink:href="#DejaVuSans-20" transform="translate(1493.65625 0)"/>
     <use xlink:href="#DejaVuSans-4d" transform="translate(1525.443359 0)"/>
     <use xlink:href="#DejaVuSans-42" transform="translate(1611.722656 0)"/>
    </g>
   </g>
   <g id="legend_1">
    <g id="patch_70">
     <path d="M 252.378437 59.674375 
L 437.508125 59.674375 
Q 439.508125 59.674375 439.508125 57.674375 
L 439.508125 29.318125 
Q 439.508125 27.318125 437.508125 27.318125 
L 252.378437 27.318125 
Q 250.378437 27.318125 250.378437 29.318125 
L 250.378437 57.674375 
Q 250.378437 59.674375 252.378437 59.674375 
z
" style="fill: #ffffff; opacity: 0.8; stroke: #cccccc; stroke-linejoin: miter"/>
    </g>
    <g id="patch_71">
     <path d="M 254.378437 38.916562 
L 274.378437 38.916562 
L 274.378437 31.916562 
L 254.378437 31.916562 
z
" style="fill: #1f77b4; opacity: 0.6; stroke: #000000; stroke-linejoin: miter"/>
    </g>
    <g id="text_16">
     <!-- MD speeds -->
     <g transform="translate(282.378437 38.916562) scale(0.1 -0.1)">
      <defs>
       <path id="DejaVuSans-44" d="M 1259 4147 
L 1259 519 
L 2022 519 
Q 2988 519 3436 956 
Q 3884 1394 3884 2338 
Q 3884 3275 3436 3711 
Q 2988 4147 2022 4147 
L 1259 4147 
z
M 628 4666 
L 1925 4666 
Q 3281 4666 3915 4102 
Q 4550 3538 4550 2338 
Q 4550 1131 3912 565 
Q 3275 0 1925 0 
L 628 0 
L 628 4666 
z
" transform="scale(0.015625)"/>
      </defs>
      <use xlink:href="#DejaVuSans-4d"/>
      <use xlink:href="#DejaVuSans-44" transform="translate(86.279297 0)"/>
      <use xlink:href="#DejaVuSans-20" transform="translate(163.28125 0)"/>
      <use xlink:href="#DejaVuSans-73" transform="translate(195.068359 0)"/>
      <use xlink:href="#DejaVuSans-70" transform="translate(247.167969 0)"/>
      <use xlink:href="#DejaVuSans-65" transform="translate(310.644531 0)"/>
      <use xlink:href="#DejaVuSans-65" transform="translate(372.167969 0)"/>
      <use xlink:href="#DejaVuSans-64" transform="translate(433.691406 0)"/>
      <use xlink:href="#DejaVuSans-73" transform="translate(497.167969 0)"/>
     </g>
    </g>
    <g id="line2d_14">
     <path d="M 254.378437 50.094687 
L 264.378437 50.094687 
L 274.378437 50.094687 
" style="fill: none; stroke: #ff7f0e; stroke-width: 2; stroke-linecap: square"/>
    </g>
    <g id="text_17">
     <!-- Maxwell–Boltzmann (T=0.303) -->
     <g transform="translate(282.378437 53.594687) scale(0.1 -0.1)">
      <defs>
       <path id="DejaVuSans-78" d="M 3513 3500 
L 2247 1797 
L 3578 0 
L 2900 0 
L 1881 1375 
L 863 0 
L 184 0 
L 1544 1831 
L 300 3500 
L 978 3500 
L 1906 2253 
L 2834 3500 
L 3513 3500 
z
" transform="scale(0.015625)"/>
       <path id="DejaVuSans-77" d="M 269 3500 
L 844 3500 
L 1563 769 
L 2278 3500 
L 2956 3500 
L 3675 769 
L 4391 3500 
L 4966 3500 
L 4050 0 
L 3372 0 
L 2619 2869 
L 1863 0 
L 1184 0 
L 269 3500 
z
" transform="scale(0.015625)"/>
       <path id="DejaVuSans-2013" d="M 313 1978 
L 2888 1978 
L 2888 1528 
L 313 1528 
L 313 1978 
z
" transform="scale(0.015625)"/>
       <path id="DejaVuSans-7a" d="M 353 3500 
L 3084 3500 
L 3084 2975 
L 922 459 
L 3084 459 
L 3084 0 
L 275 0 
L 275 525 
L 2438 3041 
L 353 3041 
L 353 3500 
z
" transform="scale(0.015625)"/>
       <path id="DejaVuSans-6d" d="M 3328 2828 
Q 3544 3216 3844 3400 
Q 4144 3584 4550 3584 
Q 5097 3584 5394 3201 
Q 5691 2819 5691 2113 
L 5691 0 
L 5113 0 
L 5113 2094 
Q 5113 2597 4934 2840 
Q 4756 3084 4391 3084 
Q 3944 3084 3684 2787 
Q 3425 2491 3425 1978 
L 3425 0 
L 2847 0 
L 2847 2094 
Q 2847 2600 2669 2842 
Q 2491 3084 2119 3084 
Q 1678 3084 1418 2786 
Q 1159 2488 1159 1978 
L 1159 0 
L 581 0 
L 581 3500 
L 1159 3500 
L 1159 2956 
Q 1356 3278 1631 3431 
Q 1906 3584 2284 3584 
Q 2666 3584 2933 3390 
Q 3200 3197 3328 2828 
z
" transform="scale(0.015625)"/>
       <path id="DejaVuSans-54" d="M -19 4666 
L 3928 4666 
L 3928 4134 
L 2272 4134 
L 2272 0 
L 1638 0 
L 1638 4134 
L -19 4134 
L -19 4666 
z
" transform="scale(0.015625)"/>
       <path id="DejaVuSans-3d" d="M 678 2906 
L 4684 2906 
L 4684 2381 
L 678 2381 
L 678 2906 
z
M 678 1631 
L 4684 1631 
L 4684 1100 
L 678 1100 
L 678 1631 
z
" transform="scale(0.015625)"/>
       <path id="DejaVuSans-33" d="M 2597 2516 
Q 3050 2419 3304 2112 
Q 3559 1806 3559 1356 
Q 3559 666 3084 287 
Q 2609 -91 1734 -91 
Q 1441 -91 1130 -33 
Q 819 25 488 141 
L 488 750 
Q 750 597 1062 519 
Q 1375 441 1716 441 
Q 2309 441 2620 675 
Q 2931 909 2931 1356 
Q 2931 1769 2642 2001 
Q 2353 2234 1838 2234 
L 1294 2234 
L 1294 2753 
L 1863 2753 
Q 2328 2753 2575 2939 
Q 2822 3125 2822 3475 
Q 2822 3834 2567 4026 
Q 2313 4219 1838 4219 
Q 1578 4219 1281 4162 
Q 984 4106 628 3988 
L 628 4550 
Q 988 4650 1302 4700 
Q 1616 4750 1894 4750 
Q 2613 4750 3031 4423 
Q 3450 4097 3450 3541 
Q 3450 3153 3228 2886 
Q 3006 2619 2597 2516 
z
" transform="scale(0.015625)"/>
      </defs>
      <use xlink:href="#DejaVuSans-4d"/>
      <use xlink:href="#DejaVuSans-61" transform="translate(86.279297 0)"/>
      <use xlink:href="#DejaVuSans-78" transform="translate(147.558594 0)"/>
      <use xlink:href="#DejaVuSans-77" transform="translate(206.738281 0)"/>
      <use xlink:href="#DejaVuSans-65" transform="translate(288.525391 0)"/>
      <use xlink:href="#DejaVuSans-6c" transform="translate(350.048828 0)"/>
      <use xlink:href="#DejaVuSans-6c" transform="translate(377.832031 0)"/>
      <use xlink:href="#DejaVuSans-2013" transform="translate(405.615234 0)"/>
      <use xlink:href="#DejaVuSans-42" transform="translate(455.615234 0)"/>
      <use xlink:href="#DejaVuSans-6f" transform="translate(524.21875 0)"/>
      <use xlink:href="#DejaVuSans-6c" transform="translate(585.400391 0)"/>
      <use xlink:href="#DejaVuSans-74" transform="translate(613.183594 0)"/>
      <use xlink:href="#DejaVuSans-7a" transform="translate(652.392578 0)"/>
      <use xlink:href="#DejaVuSans-6d" transform="translate(704.882812 0)"/>
      <use xlink:href="#DejaVuSans-61" transform="translate(802.294922 0)"/>
      <use xlink:href="#DejaVuSans-6e" transform="translate(863.574219 0)"/>
      <use xlink:href="#DejaVuSans-6e" transform="translate(926.953125 0)"/>
      <use xlink:href="#DejaVuSans-20" transform="translate(990.332031 0)"/>
      <use xlink:href="#DejaVuSans-28" transform="translate(1022.119141 0)"/>
      <use xlink:href="#DejaVuSans-54" transform="translate(1061.132812 0)"/>
      <use xlink:href="#DejaVuSans-3d" transform="translate(1122.216797 0)"/>
      <use xlink:href="#DejaVuSans-30" transform="translate(1206.005859 0)"/>
      <use xlink:href="#DejaVuSans-2e" transform="translate(1269.628906 0)"/>
      <use xlink:href="#DejaVuSans-33" transform="translate(1301.416016 0)"/>
      <use xlink:href="#DejaVuSans-30" transform="translate(1365.039062 0)"/>
      <use xlink:href="#DejaVuSans-33" transform="translate(1428.662109 0)"/>
      <use xlink:href="#DejaVuSans-29" transform="translate(1492.285156 0)"/>
     </g>
    </g>
   </g>
  </g>
 </g>
 <defs>
  <clipPath id="p3ab957730a">
   <rect x="43.803125" y="22.318125" width="400.705" height="276.04"/>
  </clipPath>
 </defs>
</svg>
