<?xml version="1.0" encoding="utf-8" standalone="no"?>
<!DOCTYPE svg PUBLIC "-//W3C//DTD SVG 1.1//EN"
  "http://www.w3.org/Graphics/SVG/1.1/DTD/svg11.dtd">
<svg xmlns:xlink="http://www.w3.org/1999/xlink" width="408.368437pt" height="311.146375pt" viewBox="0 0 408.368437 311.146375" xmlns="http://www.w3.org/2000/svg" version="1.1">
 <metadata>
  <rdf:RDF xmlns:dc="http://purl.org/dc/elements/1.1/" xmlns:cc="http://creativecommons.org/ns#" xmlns:rdf="http://www.w3.org/1999/02/22-rdf-syntax-ns#">
   <cc:Work>
    <dc:type rdf:resource="http://purl.org/dc/dcmitype/StillImage"/>
    <dc:date>2025-12-11T13:43:38.591222</dc:date>
    <dc:format>image/svg+xml</dc:format>
    <dc:creator>
     <cc:Agent>
      <dc:title>Matplotlib v3.10.5, https://matplotlib.org/</dc:title>
     </cc:Agent>
    </dc:creator>
   </cc:Work>
  </rdf:RDF>
 </metadata>
 <defs>
  <style type="text/css">*{stroke-linejoin: round; stroke-linecap: butt}</style>
 </defs>
 <g id="figure_1">
  <g id="patch_1">
   <path d="M 0 311.146375 
L 408.368437 311.146375 
L 408.368437 0 
L 0 0 
z
" style="fill: #ffffff"/>
  </g>
  <g id="axes_1">
   <g id="patch_2">
    <path d="M 44.048438 273.312 
L 401.168437 273.312 
L 401.168437 7.2 
L 44.048438 7.2 
z
" style="fill: #ffffff"/>
   </g>
   <g id="FillBetweenPolyCollection_1">
    <defs>
     <path id="me99e032932" d="M 60.281165 -49.930375 
L 60.281165 -49.930375 
L 62.115371 -49.930375 
L 63.949578 -49.930375 
L 65.783784 -49.930375 
L 67.617991 -49.930375 
L 69.452197 -49.930375 
L 71.286404 -49.930375 
L 73.12061 -49.930375 
L 74.954817 -49.930375 
L 76.789023 -49.930375 
L 78.623229 -49.930375 
L 80.457436 -49.930375 
L 82.291642 -49.930375 
L 84.125849 -49.930375 
L 85.960055 -49.930375 
L 87.794262 -49.930375 
L 89.628468 -49.930375 
L 91.462675 -49.930375 
L 93.296881 -49.930375 
L 95.131088 -49.930375 
L 96.965294 -49.930375 
L 98.799501 -49.930375 
L 100.633707 -49.930375 
L 102.467914 -49.930375 
L 104.30212 -49.930375 
L 106.136327 -49.930375 
L 107.970533 -49.930375 
L 109.80474 -49.930375 
L 111.638946 -49.930375 
L 113.473152 -49.930375 
L 115.307359 -49.930375 
L 117.141565 -49.930375 
L 118.975772 -49.930375 
L 120.809978 -49.930375 
L 122.644185 -49.930375 
L 124.478391 -49.930375 
L 126.312598 -49.930375 
L 128.146804 -49.930375 
L 129.981011 -49.930375 
L 131.815217 -49.930375 
L 133.649424 -49.930375 
L 135.48363 -49.930375 
L 137.317837 -49.930375 
L 139.152043 -49.930375 
L 140.98625 -53.742194 
L 142.820456 -49.930375 
L 144.654662 -59.516619 
L 146.488869 -51.788097 
L 148.323075 -82.912953 
L 150.157282 -93.439678 
L 151.991488 -105.884415 
L 153.825695 -94.067141 
L 155.659901 -139.893196 
L 157.494108 -220.545215 
L 159.328314 -192.915806 
L 161.162521 -171.014911 
L 162.996727 -187.223381 
L 164.830934 -189.295845 
L 166.66514 -194.169899 
L 168.499347 -165.006086 
L 170.333553 -139.963009 
L 172.16776 -145.63281 
L 174.001966 -137.081661 
L 175.836172 -134.730366 
L 177.670379 -122.196284 
L 179.504585 -89.181678 
L 181.338792 -142.305524 
L 183.172998 -106.154018 
L 185.007205 -102.976763 
L 186.841411 -96.538331 
L 188.675618 -107.230318 
L 190.509824 -107.127382 
L 192.344031 -122.777169 
L 194.178237 -100.023204 
L 196.012444 -108.425721 
L 197.84665 -124.042474 
L 199.680857 -108.53608 
L 201.515063 -103.595412 
L 203.34927 -114.475526 
L 205.183476 -123.266019 
L 207.017682 -105.957256 
L 208.851889 -98.263072 
L 210.686095 -108.780782 
L 212.520302 -138.598069 
L 214.354508 -132.094796 
L 216.188715 -115.65979 
L 218.022921 -109.005174 
L 219.857128 -90.852418 
L 221.691334 -80.994569 
L 223.525541 -83.772294 
L 225.359747 -97.063833 
L 227.193954 -93.073465 
L 229.02816 -95.736575 
L 230.862367 -117.058449 
L 232.696573 -108.047256 
L 234.53078 -120.34543 
L 236.364986 -110.650375 
L 238.199193 -114.438374 
L 240.033399 -111.22204 
L 241.867605 -109.06529 
L 243.701812 -130.999007 
L 245.536018 -126.200164 
L 247.370225 -124.668245 
L 249.204431 -114.331003 
L 251.038638 -131.491765 
L 252.872844 -111.220064 
L 254.707051 -118.342481 
L 256.541257 -94.178396 
L 258.375464 -102.274684 
L 260.20967 -122.99661 
L 262.043877 -96.772371 
L 263.878083 -121.867485 
L 265.71229 -115.25003 
L 267.546496 -90.925637 
L 269.380703 -105.080561 
L 271.214909 -97.915293 
L 273.049115 -89.329847 
L 274.883322 -96.020183 
L 276.717528 -95.028838 
L 278.551735 -101.888332 
L 280.385941 -104.39784 
L 282.220148 -102.182061 
L 284.054354 -104.64598 
L 285.888561 -89.26744 
L 287.722767 -102.841656 
L 289.556974 -102.177843 
L 291.39118 -108.356336 
L 293.225387 -87.651521 
L 295.059593 -104.275948 
L 296.8938 -111.167867 
L 298.728006 -108.491839 
L 300.562213 -112.02461 
L 302.396419 -98.969029 
L 304.230625 -107.078879 
L 306.064832 -96.350479 
L 307.899038 -129.685255 
L 309.733245 -119.596038 
L 311.567451 -117.202591 
L 313.401658 -104.247602 
L 315.235864 -104.129394 
L 317.070071 -115.442746 
L 318.904277 -103.52011 
L 320.738484 -110.239745 
L 322.57269 -106.071483 
L 324.406897 -98.807605 
L 326.241103 -104.281216 
L 328.07531 -93.632949 
L 329.909516 -130.329475 
L 331.743723 -103.606077 
L 333.577929 -112.06187 
L 335.412135 -108.844004 
L 337.246342 -87.113654 
L 339.080548 -108.703881 
L 340.914755 -95.324448 
L 342.748961 -78.25828 
L 344.583168 -76.663598 
L 346.417374 -95.274002 
L 348.251581 -102.085288 
L 350.085787 -85.41844 
L 351.919994 -96.379913 
L 353.7542 -115.487807 
L 355.588407 -108.391941 
L 357.422613 -110.871646 
L 359.25682 -107.624712 
L 361.091026 -109.764464 
L 362.925233 -105.59646 
L 364.759439 -117.776816 
L 366.593646 -114.721113 
L 368.427852 -102.811814 
L 370.262058 -106.316242 
L 372.096265 -133.810299 
L 373.930471 -138.174878 
L 375.764678 -130.287843 
L 377.598884 -118.437283 
L 379.433091 -109.293029 
L 381.267297 -104.582212 
L 383.101504 -119.790414 
L 384.93571 -96.144668 
L 384.93571 -124.000978 
L 384.93571 -124.000978 
L 383.101504 -139.740243 
L 381.267297 -133.038745 
L 379.433091 -126.433536 
L 377.598884 -130.98764 
L 375.764678 -153.868189 
L 373.930471 -165.251923 
L 372.096265 -147.799929 
L 370.262058 -124.848562 
L 368.427852 -117.824555 
L 366.593646 -136.16847 
L 364.759439 -135.468231 
L 362.925233 -121.308063 
L 361.091026 -131.853735 
L 359.25682 -128.210938 
L 357.422613 -124.403569 
L 355.588407 -122.923188 
L 353.7542 -130.570666 
L 351.919994 -117.336236 
L 350.085787 -100.159161 
L 348.251581 -128.923315 
L 346.417374 -115.880556 
L 344.583168 -89.440609 
L 342.748961 -87.401074 
L 340.914755 -114.85233 
L 339.080548 -123.292824 
L 337.246342 -101.226276 
L 335.412135 -121.832538 
L 333.577929 -146.130479 
L 331.743723 -115.323979 
L 329.909516 -147.477326 
L 328.07531 -110.169086 
L 326.241103 -129.035091 
L 324.406897 -124.920444 
L 322.57269 -123.402136 
L 320.738484 -141.027764 
L 318.904277 -132.974928 
L 317.070071 -146.021088 
L 315.235864 -136.793948 
L 313.401658 -126.370612 
L 311.567451 -138.940915 
L 309.733245 -152.178838 
L 307.899038 -173.34205 
L 306.064832 -106.229034 
L 304.230625 -128.784727 
L 302.396419 -120.652748 
L 300.562213 -130.093146 
L 298.728006 -124.369941 
L 296.8938 -134.465112 
L 295.059593 -121.650828 
L 293.225387 -115.299187 
L 291.39118 -121.518083 
L 289.556974 -117.10901 
L 287.722767 -129.487416 
L 285.888561 -112.611877 
L 284.054354 -127.055726 
L 282.220148 -136.415012 
L 280.385941 -114.232472 
L 278.551735 -121.367438 
L 276.717528 -124.563569 
L 274.883322 -124.404088 
L 273.049115 -115.851984 
L 271.214909 -113.795826 
L 269.380703 -133.949046 
L 267.546496 -120.615897 
L 265.71229 -143.246139 
L 263.878083 -137.437813 
L 262.043877 -113.534598 
L 260.20967 -142.379979 
L 258.375464 -124.658784 
L 256.541257 -123.857133 
L 254.707051 -179.04328 
L 252.872844 -147.42725 
L 251.038638 -153.795308 
L 249.204431 -125.128791 
L 247.370225 -139.870801 
L 245.536018 -144.750313 
L 243.701812 -164.27827 
L 241.867605 -156.075725 
L 240.033399 -132.736573 
L 238.199193 -171.112863 
L 236.364986 -132.068001 
L 234.53078 -136.840487 
L 232.696573 -162.312839 
L 230.862367 -136.812756 
L 229.02816 -117.145316 
L 227.193954 -131.67428 
L 225.359747 -132.268756 
L 223.525541 -120.407458 
L 221.691334 -116.195039 
L 219.857128 -107.884609 
L 218.022921 -136.564473 
L 216.188715 -151.287119 
L 214.354508 -194.142721 
L 212.520302 -171.388454 
L 210.686095 -145.406842 
L 208.851889 -136.872013 
L 207.017682 -130.776147 
L 205.183476 -156.225453 
L 203.34927 -140.992902 
L 201.515063 -131.04434 
L 199.680857 -131.536952 
L 197.84665 -158.424307 
L 196.012444 -148.538015 
L 194.178237 -125.588346 
L 192.344031 -160.26305 
L 190.509824 -170.015425 
L 188.675618 -133.867446 
L 186.841411 -112.757552 
L 185.007205 -137.579845 
L 183.172998 -134.187178 
L 181.338792 -166.924463 
L 179.504585 -138.096122 
L 177.670379 -156.987234 
L 175.836172 -189.968406 
L 174.001966 -196.936487 
L 172.16776 -183.892385 
L 170.333553 -178.240114 
L 168.499347 -202.28091 
L 166.66514 -240.446758 
L 164.830934 -219.971127 
L 162.996727 -220.069099 
L 161.162521 -272.723533 
L 159.328314 -263.79142 
L 157.494108 -291.850375 
L 155.659901 -191.849679 
L 153.825695 -154.407938 
L 151.991488 -133.364552 
L 150.157282 -149.996784 
L 148.323075 -92.141117 
L 146.488869 -59.89701 
L 144.654662 -78.909746 
L 142.820456 -49.930375 
L 140.98625 -67.914862 
L 139.152043 -49.930375 
L 137.317837 -49.930375 
L 135.48363 -49.930375 
L 133.649424 -49.930375 
L 131.815217 -49.930375 
L 129.981011 -49.930375 
L 128.146804 -49.930375 
L 126.312598 -49.930375 
L 124.478391 -49.930375 
L 122.644185 -49.930375 
L 120.809978 -49.930375 
L 118.975772 -49.930375 
L 117.141565 -49.930375 
L 115.307359 -49.930375 
L 113.473152 -49.930375 
L 111.638946 -49.930375 
L 109.80474 -49.930375 
L 107.970533 -49.930375 
L 106.136327 -49.930375 
L 104.30212 -49.930375 
L 102.467914 -49.930375 
L 100.633707 -49.930375 
L 98.799501 -49.930375 
L 96.965294 -49.930375 
L 95.131088 -49.930375 
L 93.296881 -49.930375 
L 91.462675 -49.930375 
L 89.628468 -49.930375 
L 87.794262 -49.930375 
L 85.960055 -49.930375 
L 84.125849 -49.930375 
L 82.291642 -49.930375 
L 80.457436 -49.930375 
L 78.623229 -49.930375 
L 76.789023 -49.930375 
L 74.954817 -49.930375 
L 73.12061 -49.930375 
L 71.286404 -49.930375 
L 69.452197 -49.930375 
L 67.617991 -49.930375 
L 65.783784 -49.930375 
L 63.949578 -49.930375 
L 62.115371 -49.930375 
L 60.281165 -49.930375 
z
" style="stroke: #ff7f0e; stroke-opacity: 0.3"/>
    </defs>
    <g clip-path="url(#p033b373458)">
     <use xlink:href="#me99e032932" x="0" y="311.146375" style="fill: #ff7f0e; fill-opacity: 0.3; stroke: #ff7f0e; stroke-opacity: 0.3"/>
    </g>
   </g>
   <g id="matplotlib.axis_1">
    <g id="xtick_1">
     <g id="line2d_1">
      <defs>
       <path id="mc5579a2505" d="M 0 0 
L 0 3.5 
" style="stroke: #000000; stroke-width: 0.8"/>
      </defs>
      <g>
       <use xlink:href="#mc5579a2505" x="59.364062" y="273.312" style="stroke: #000000; stroke-width: 0.8"/>
      </g>
     </g>
     <g id="text_1">
      <!-- 0.0 -->
      <g transform="translate(51.412499 287.910437) scale(0.1 -0.1)">
       <defs>
        <path id="DejaVuSans-30" d="M 2034 4250 
Q 1547 4250 1301 3770 
Q 1056 3291 1056 2328 
Q 1056 1369 1301 889 
Q 1547 409 2034 409 
Q 2525 409 2770 889 
Q 3016 1369 3016 2328 
Q 3016 3291 2770 3770 
Q 2525 4250 2034 4250 
z
M 2034 4750 
Q 2819 4750 3233 4129 
Q 3647 3509 3647 2328 
Q 3647 1150 3233 529 
Q 2819 -91 2034 -91 
Q 1250 -91 836 529 
Q 422 1150 422 2328 
Q 422 3509 836 4129 
Q 1250 4750 2034 4750 
z
" transform="scale(0.015625)"/>
        <path id="DejaVuSans-2e" d="M 684 794 
L 1344 794 
L 1344 0 
L 684 0 
L 684 794 
z
" transform="scale(0.015625)"/>
       </defs>
       <use xlink:href="#DejaVuSans-30"/>
       <use xlink:href="#DejaVuSans-2e" transform="translate(63.623047 0)"/>
       <use xlink:href="#DejaVuSans-30" transform="translate(95.410156 0)"/>
      </g>
     </g>
    </g>
    <g id="xtick_2">
     <g id="line2d_2">
      <g>
       <use xlink:href="#mc5579a2505" x="105.219223" y="273.312" style="stroke: #000000; stroke-width: 0.8"/>
      </g>
     </g>
     <g id="text_2">
      <!-- 0.5 -->
      <g transform="translate(97.267661 287.910437) scale(0.1 -0.1)">
       <defs>
        <path id="DejaVuSans-35" d="M 691 4666 
L 3169 4666 
L 3169 4134 
L 1269 4134 
L 1269 2991 
Q 1406 3038 1543 3061 
Q 1681 3084 1819 3084 
Q 2600 3084 3056 2656 
Q 3513 2228 3513 1497 
Q 3513 744 3044 326 
Q 2575 -91 1722 -91 
Q 1428 -91 1123 -41 
Q 819 9 494 109 
L 494 744 
Q 775 591 1075 516 
Q 1375 441 1709 441 
Q 2250 441 2565 725 
Q 2881 1009 2881 1497 
Q 2881 1984 2565 2268 
Q 2250 2553 1709 2553 
Q 1456 2553 1204 2497 
Q 953 2441 691 2322 
L 691 4666 
z
" transform="scale(0.015625)"/>
       </defs>
       <use xlink:href="#DejaVuSans-30"/>
       <use xlink:href="#DejaVuSans-2e" transform="translate(63.623047 0)"/>
       <use xlink:href="#DejaVuSans-35" transform="translate(95.410156 0)"/>
      </g>
     </g>
    </g>
    <g id="xtick_3">
     <g id="line2d_3">
      <g>
       <use xlink:href="#mc5579a2505" x="151.074385" y="273.312" style="stroke: #000000; stroke-width: 0.8"/>
      </g>
     </g>
     <g id="text_3">
      <!-- 1.0 -->
      <g transform="translate(143.122823 287.910437) scale(0.1 -0.1)">
       <defs>
        <path id="DejaVuSans-31" d="M 794 531 
L 1825 531 
L 1825 4091 
L 703 3866 
L 703 4441 
L 1819 4666 
L 2450 4666 
L 2450 531 
L 3481 531 
L 3481 0 
L 794 0 
L 794 531 
z
" transform="scale(0.015625)"/>
       </defs>
       <use xlink:href="#DejaVuSans-31"/>
       <use xlink:href="#DejaVuSans-2e" transform="translate(63.623047 0)"/>
       <use xlink:href="#DejaVuSans-30" transform="translate(95.410156 0)"/>
      </g>
     </g>
    </g>
    <g id="xtick_4">
     <g id="line2d_4">
      <g>
       <use xlink:href="#mc5579a2505" x="196.929547" y="273.312" style="stroke: #000000; stroke-width: 0.8"/>
      </g>
     </g>
     <g id="text_4">
      <!-- 1.5 -->
      <g transform="translate(188.977984 287.910437) scale(0.1 -0.1)">
       <use xlink:href="#DejaVuSans-31"/>
       <use xlink:href="#DejaVuSans-2e" transform="translate(63.623047 0)"/>
       <use xlink:href="#DejaVuSans-35" transform="translate(95.410156 0)"/>
      </g>
     </g>
    </g>
    <g id="xtick_5">
     <g id="line2d_5">
      <g>
       <use xlink:href="#mc5579a2505" x="242.784709" y="273.312" style="stroke: #000000; stroke-width: 0.8"/>
      </g>
     </g>
     <g id="text_5">
      <!-- 2.0 -->
      <g transform="translate(234.833146 287.910437) scale(0.1 -0.1)">
       <defs>
        <path id="DejaVuSans-32" d="M 1228 531 
L 3431 531 
L 3431 0 
L 469 0 
L 469 531 
Q 828 903 1448 1529 
Q 2069 2156 2228 2338 
Q 2531 2678 2651 2914 
Q 2772 3150 2772 3378 
Q 2772 3750 2511 3984 
Q 2250 4219 1831 4219 
Q 1534 4219 1204 4116 
Q 875 4013 500 3803 
L 500 4441 
Q 881 4594 1212 4672 
Q 1544 4750 1819 4750 
Q 2544 4750 2975 4387 
Q 3406 4025 3406 3419 
Q 3406 3131 3298 2873 
Q 3191 2616 2906 2266 
Q 2828 2175 2409 1742 
Q 1991 1309 1228 531 
z
" transform="scale(0.015625)"/>
       </defs>
       <use xlink:href="#DejaVuSans-32"/>
       <use xlink:href="#DejaVuSans-2e" transform="translate(63.623047 0)"/>
       <use xlink:href="#DejaVuSans-30" transform="translate(95.410156 0)"/>
      </g>
     </g>
    </g>
    <g id="xtick_6">
     <g id="line2d_6">
      <g>
       <use xlink:href="#mc5579a2505" x="288.63987" y="273.312" style="stroke: #000000; stroke-width: 0.8"/>
      </g>
     </g>
     <g id="text_6">
      <!-- 2.5 -->
      <g transform="translate(280.688308 287.910437) scale(0.1 -0.1)">
       <use xlink:href="#DejaVuSans-32"/>
       <use xlink:href="#DejaVuSans-2e" transform="translate(63.623047 0)"/>
       <use xlink:href="#DejaVuSans-35" transform="translate(95.410156 0)"/>
      </g>
     </g>
    </g>
    <g id="xtick_7">
     <g id="line2d_7">
      <g>
       <use xlink:href="#mc5579a2505" x="334.495032" y="273.312" style="stroke: #000000; stroke-width: 0.8"/>
      </g>
     </g>
     <g id="text_7">
      <!-- 3.0 -->
      <g transform="translate(326.54347 287.910437) scale(0.1 -0.1)">
       <defs>
        <path id="DejaVuSans-33" d="M 2597 2516 
Q 3050 2419 3304 2112 
Q 3559 1806 3559 1356 
Q 3559 666 3084 287 
Q 2609 -91 1734 -91 
Q 1441 -91 1130 -33 
Q 819 25 488 141 
L 488 750 
Q 750 597 1062 519 
Q 1375 441 1716 441 
Q 2309 441 2620 675 
Q 2931 909 2931 1356 
Q 2931 1769 2642 2001 
Q 2353 2234 1838 2234 
L 1294 2234 
L 1294 2753 
L 1863 2753 
Q 2328 2753 2575 2939 
Q 2822 3125 2822 3475 
Q 2822 3834 2567 4026 
Q 2313 4219 1838 4219 
Q 1578 4219 1281 4162 
Q 984 4106 628 3988 
L 628 4550 
Q 988 4650 1302 4700 
Q 1616 4750 1894 4750 
Q 2613 4750 3031 4423 
Q 3450 4097 3450 3541 
Q 3450 3153 3228 2886 
Q 3006 2619 2597 2516 
z
" transform="scale(0.015625)"/>
       </defs>
       <use xlink:href="#DejaVuSans-33"/>
       <use xlink:href="#DejaVuSans-2e" transform="translate(63.623047 0)"/>
       <use xlink:href="#DejaVuSans-30" transform="translate(95.410156 0)"/>
      </g>
     </g>
    </g>
    <g id="xtick_8">
     <g id="line2d_8">
      <g>
       <use xlink:href="#mc5579a2505" x="380.350194" y="273.312" style="stroke: #000000; stroke-width: 0.8"/>
      </g>
     </g>
     <g id="text_8">
      <!-- 3.5 -->
      <g transform="translate(372.398632 287.910437) scale(0.1 -0.1)">
       <use xlink:href="#DejaVuSans-33"/>
       <use xlink:href="#DejaVuSans-2e" transform="translate(63.623047 0)"/>
       <use xlink:href="#DejaVuSans-35" transform="translate(95.410156 0)"/>
      </g>
     </g>
    </g>
    <g id="text_9">
     <!-- r_xy (reduced units) -->
     <g transform="translate(172.400625 301.588562) scale(0.1 -0.1)">
      <defs>
       <path id="DejaVuSans-72" d="M 2631 2963 
Q 2534 3019 2420 3045 
Q 2306 3072 2169 3072 
Q 1681 3072 1420 2755 
Q 1159 2438 1159 1844 
L 1159 0 
L 581 0 
L 581 3500 
L 1159 3500 
L 1159 2956 
Q 1341 3275 1631 3429 
Q 1922 3584 2338 3584 
Q 2397 3584 2469 3576 
Q 2541 3569 2628 3553 
L 2631 2963 
z
" transform="scale(0.015625)"/>
       <path id="DejaVuSans-5f" d="M 3263 -1063 
L 3263 -1509 
L -63 -1509 
L -63 -1063 
L 3263 -1063 
z
" transform="scale(0.015625)"/>
       <path id="DejaVuSans-78" d="M 3513 3500 
L 2247 1797 
L 3578 0 
L 2900 0 
L 1881 1375 
L 863 0 
L 184 0 
L 1544 1831 
L 300 3500 
L 978 3500 
L 1906 2253 
L 2834 3500 
L 3513 3500 
z
" transform="scale(0.015625)"/>
       <path id="DejaVuSans-79" d="M 2059 -325 
Q 1816 -950 1584 -1140 
Q 1353 -1331 966 -1331 
L 506 -1331 
L 506 -850 
L 844 -850 
Q 1081 -850 1212 -737 
Q 1344 -625 1503 -206 
L 1606 56 
L 191 3500 
L 800 3500 
L 1894 763 
L 2988 3500 
L 3597 3500 
L 2059 -325 
z
" transform="scale(0.015625)"/>
       <path id="DejaVuSans-20" transform="scale(0.015625)"/>
       <path id="DejaVuSans-28" d="M 1984 4856 
Q 1566 4138 1362 3434 
Q 1159 2731 1159 2009 
Q 1159 1288 1364 580 
Q 1569 -128 1984 -844 
L 1484 -844 
Q 1016 -109 783 600 
Q 550 1309 550 2009 
Q 550 2706 781 3412 
Q 1013 4119 1484 4856 
L 1984 4856 
z
" transform="scale(0.015625)"/>
       <path id="DejaVuSans-65" d="M 3597 1894 
L 3597 1613 
L 953 1613 
Q 991 1019 1311 708 
Q 1631 397 2203 397 
Q 2534 397 2845 478 
Q 3156 559 3463 722 
L 3463 178 
Q 3153 47 2828 -22 
Q 2503 -91 2169 -91 
Q 1331 -91 842 396 
Q 353 884 353 1716 
Q 353 2575 817 3079 
Q 1281 3584 2069 3584 
Q 2775 3584 3186 3129 
Q 3597 2675 3597 1894 
z
M 3022 2063 
Q 3016 2534 2758 2815 
Q 2500 3097 2075 3097 
Q 1594 3097 1305 2825 
Q 1016 2553 972 2059 
L 3022 2063 
z
" transform="scale(0.015625)"/>
       <path id="DejaVuSans-64" d="M 2906 2969 
L 2906 4863 
L 3481 4863 
L 3481 0 
L 2906 0 
L 2906 525 
Q 2725 213 2448 61 
Q 2172 -91 1784 -91 
Q 1150 -91 751 415 
Q 353 922 353 1747 
Q 353 2572 751 3078 
Q 1150 3584 1784 3584 
Q 2172 3584 2448 3432 
Q 2725 3281 2906 2969 
z
M 947 1747 
Q 947 1113 1208 752 
Q 1469 391 1925 391 
Q 2381 391 2643 752 
Q 2906 1113 2906 1747 
Q 2906 2381 2643 2742 
Q 2381 3103 1925 3103 
Q 1469 3103 1208 2742 
Q 947 2381 947 1747 
z
" transform="scale(0.015625)"/>
       <path id="DejaVuSans-75" d="M 544 1381 
L 544 3500 
L 1119 3500 
L 1119 1403 
Q 1119 906 1312 657 
Q 1506 409 1894 409 
Q 2359 409 2629 706 
Q 2900 1003 2900 1516 
L 2900 3500 
L 3475 3500 
L 3475 0 
L 2900 0 
L 2900 538 
Q 2691 219 2414 64 
Q 2138 -91 1772 -91 
Q 1169 -91 856 284 
Q 544 659 544 1381 
z
M 1991 3584 
L 1991 3584 
z
" transform="scale(0.015625)"/>
       <path id="DejaVuSans-63" d="M 3122 3366 
L 3122 2828 
Q 2878 2963 2633 3030 
Q 2388 3097 2138 3097 
Q 1578 3097 1268 2742 
Q 959 2388 959 1747 
Q 959 1106 1268 751 
Q 1578 397 2138 397 
Q 2388 397 2633 464 
Q 2878 531 3122 666 
L 3122 134 
Q 2881 22 2623 -34 
Q 2366 -91 2075 -91 
Q 1284 -91 818 406 
Q 353 903 353 1747 
Q 353 2603 823 3093 
Q 1294 3584 2113 3584 
Q 2378 3584 2631 3529 
Q 2884 3475 3122 3366 
z
" transform="scale(0.015625)"/>
       <path id="DejaVuSans-6e" d="M 3513 2113 
L 3513 0 
L 2938 0 
L 2938 2094 
Q 2938 2591 2744 2837 
Q 2550 3084 2163 3084 
Q 1697 3084 1428 2787 
Q 1159 2491 1159 1978 
L 1159 0 
L 581 0 
L 581 3500 
L 1159 3500 
L 1159 2956 
Q 1366 3272 1645 3428 
Q 1925 3584 2291 3584 
Q 2894 3584 3203 3211 
Q 3513 2838 3513 2113 
z
" transform="scale(0.015625)"/>
       <path id="DejaVuSans-69" d="M 603 3500 
L 1178 3500 
L 1178 0 
L 603 0 
L 603 3500 
z
M 603 4863 
L 1178 4863 
L 1178 4134 
L 603 4134 
L 603 4863 
z
" transform="scale(0.015625)"/>
       <path id="DejaVuSans-74" d="M 1172 4494 
L 1172 3500 
L 2356 3500 
L 2356 3053 
L 1172 3053 
L 1172 1153 
Q 1172 725 1289 603 
Q 1406 481 1766 481 
L 2356 481 
L 2356 0 
L 1766 0 
Q 1100 0 847 248 
Q 594 497 594 1153 
L 594 3053 
L 172 3053 
L 172 3500 
L 594 3500 
L 594 4494 
L 1172 4494 
z
" transform="scale(0.015625)"/>
       <path id="DejaVuSans-73" d="M 2834 3397 
L 2834 2853 
Q 2591 2978 2328 3040 
Q 2066 3103 1784 3103 
Q 1356 3103 1142 2972 
Q 928 2841 928 2578 
Q 928 2378 1081 2264 
Q 1234 2150 1697 2047 
L 1894 2003 
Q 2506 1872 2764 1633 
Q 3022 1394 3022 966 
Q 3022 478 2636 193 
Q 2250 -91 1575 -91 
Q 1294 -91 989 -36 
Q 684 19 347 128 
L 347 722 
Q 666 556 975 473 
Q 1284 391 1588 391 
Q 1994 391 2212 530 
Q 2431 669 2431 922 
Q 2431 1156 2273 1281 
Q 2116 1406 1581 1522 
L 1381 1569 
Q 847 1681 609 1914 
Q 372 2147 372 2553 
Q 372 3047 722 3315 
Q 1072 3584 1716 3584 
Q 2034 3584 2315 3537 
Q 2597 3491 2834 3397 
z
" transform="scale(0.015625)"/>
       <path id="DejaVuSans-29" d="M 513 4856 
L 1013 4856 
Q 1481 4119 1714 3412 
Q 1947 2706 1947 2009 
Q 1947 1309 1714 600 
Q 1481 -109 1013 -844 
L 513 -844 
Q 928 -128 1133 580 
Q 1338 1288 1338 2009 
Q 1338 2731 1133 3434 
Q 928 4138 513 4856 
z
" transform="scale(0.015625)"/>
      </defs>
      <use xlink:href="#DejaVuSans-72"/>
      <use xlink:href="#DejaVuSans-5f" transform="translate(41.113281 0)"/>
      <use xlink:href="#DejaVuSans-78" transform="translate(91.113281 0)"/>
      <use xlink:href="#DejaVuSans-79" transform="translate(150.292969 0)"/>
      <use xlink:href="#DejaVuSans-20" transform="translate(209.472656 0)"/>
      <use xlink:href="#DejaVuSans-28" transform="translate(241.259766 0)"/>
      <use xlink:href="#DejaVuSans-72" transform="translate(280.273438 0)"/>
      <use xlink:href="#DejaVuSans-65" transform="translate(319.136719 0)"/>
      <use xlink:href="#DejaVuSans-64" transform="translate(380.660156 0)"/>
      <use xlink:href="#DejaVuSans-75" transform="translate(444.136719 0)"/>
      <use xlink:href="#DejaVuSans-63" transform="translate(507.515625 0)"/>
      <use xlink:href="#DejaVuSans-65" transform="translate(562.496094 0)"/>
      <use xlink:href="#DejaVuSans-64" transform="translate(624.019531 0)"/>
      <use xlink:href="#DejaVuSans-20" transform="translate(687.496094 0)"/>
      <use xlink:href="#DejaVuSans-75" transform="translate(719.283203 0)"/>
      <use xlink:href="#DejaVuSans-6e" transform="translate(782.662109 0)"/>
      <use xlink:href="#DejaVuSans-69" transform="translate(846.041016 0)"/>
      <use xlink:href="#DejaVuSans-74" transform="translate(873.824219 0)"/>
      <use xlink:href="#DejaVuSans-73" transform="translate(913.033203 0)"/>
      <use xlink:href="#DejaVuSans-29" transform="translate(965.132812 0)"/>
     </g>
    </g>
   </g>
   <g id="matplotlib.axis_2">
    <g id="ytick_1">
     <g id="line2d_9">
      <defs>
       <path id="mb194ce0cb2" d="M 0 0 
L -3.5 0 
" style="stroke: #000000; stroke-width: 0.8"/>
      </defs>
      <g>
       <use xlink:href="#mb194ce0cb2" x="44.048438" y="261.216" style="stroke: #000000; stroke-width: 0.8"/>
      </g>
     </g>
     <g id="text_10">
      <!-- 0.0 -->
      <g transform="translate(21.145313 265.015219) scale(0.1 -0.1)">
       <use xlink:href="#DejaVuSans-30"/>
       <use xlink:href="#DejaVuSans-2e" transform="translate(63.623047 0)"/>
       <use xlink:href="#DejaVuSans-30" transform="translate(95.410156 0)"/>
      </g>
     </g>
    </g>
    <g id="ytick_2">
     <g id="line2d_10">
      <g>
       <use xlink:href="#mb194ce0cb2" x="44.048438" y="227.801706" style="stroke: #000000; stroke-width: 0.8"/>
      </g>
     </g>
     <g id="text_11">
      <!-- 0.5 -->
      <g transform="translate(21.145313 231.600925) scale(0.1 -0.1)">
       <use xlink:href="#DejaVuSans-30"/>
       <use xlink:href="#DejaVuSans-2e" transform="translate(63.623047 0)"/>
       <use xlink:href="#DejaVuSans-35" transform="translate(95.410156 0)"/>
      </g>
     </g>
    </g>
    <g id="ytick_3">
     <g id="line2d_11">
      <g>
       <use xlink:href="#mb194ce0cb2" x="44.048438" y="194.387412" style="stroke: #000000; stroke-width: 0.8"/>
      </g>
     </g>
     <g id="text_12">
      <!-- 1.0 -->
      <g transform="translate(21.145313 198.186631) scale(0.1 -0.1)">
       <use xlink:href="#DejaVuSans-31"/>
       <use xlink:href="#DejaVuSans-2e" transform="translate(63.623047 0)"/>
       <use xlink:href="#DejaVuSans-30" transform="translate(95.410156 0)"/>
      </g>
     </g>
    </g>
    <g id="ytick_4">
     <g id="line2d_12">
      <g>
       <use xlink:href="#mb194ce0cb2" x="44.048438" y="160.973118" style="stroke: #000000; stroke-width: 0.8"/>
      </g>
     </g>
     <g id="text_13">
      <!-- 1.5 -->
      <g transform="translate(21.145313 164.772337) scale(0.1 -0.1)">
       <use xlink:href="#DejaVuSans-31"/>
       <use xlink:href="#DejaVuSans-2e" transform="translate(63.623047 0)"/>
       <use xlink:href="#DejaVuSans-35" transform="translate(95.410156 0)"/>
      </g>
     </g>
    </g>
    <g id="ytick_5">
     <g id="line2d_13">
      <g>
       <use xlink:href="#mb194ce0cb2" x="44.048438" y="127.558825" style="stroke: #000000; stroke-width: 0.8"/>
      </g>
     </g>
     <g id="text_14">
      <!-- 2.0 -->
      <g transform="translate(21.145313 131.358043) scale(0.1 -0.1)">
       <use xlink:href="#DejaVuSans-32"/>
       <use xlink:href="#DejaVuSans-2e" transform="translate(63.623047 0)"/>
       <use xlink:href="#DejaVuSans-30" transform="translate(95.410156 0)"/>
      </g>
     </g>
    </g>
    <g id="ytick_6">
     <g id="line2d_14">
      <g>
       <use xlink:href="#mb194ce0cb2" x="44.048438" y="94.144531" style="stroke: #000000; stroke-width: 0.8"/>
      </g>
     </g>
     <g id="text_15">
      <!-- 2.5 -->
      <g transform="translate(21.145313 97.943749) scale(0.1 -0.1)">
       <use xlink:href="#DejaVuSans-32"/>
       <use xlink:href="#DejaVuSans-2e" transform="translate(63.623047 0)"/>
       <use xlink:href="#DejaVuSans-35" transform="translate(95.410156 0)"/>
      </g>
     </g>
    </g>
    <g id="ytick_7">
     <g id="line2d_15">
      <g>
       <use xlink:href="#mb194ce0cb2" x="44.048438" y="60.730237" style="stroke: #000000; stroke-width: 0.8"/>
      </g>
     </g>
     <g id="text_16">
      <!-- 3.0 -->
      <g transform="translate(21.145313 64.529456) scale(0.1 -0.1)">
       <use xlink:href="#DejaVuSans-33"/>
       <use xlink:href="#DejaVuSans-2e" transform="translate(63.623047 0)"/>
       <use xlink:href="#DejaVuSans-30" transform="translate(95.410156 0)"/>
      </g>
     </g>
    </g>
    <g id="ytick_8">
     <g id="line2d_16">
      <g>
       <use xlink:href="#mb194ce0cb2" x="44.048438" y="27.315943" style="stroke: #000000; stroke-width: 0.8"/>
      </g>
     </g>
     <g id="text_17">
      <!-- 3.5 -->
      <g transform="translate(21.145313 31.115162) scale(0.1 -0.1)">
       <use xlink:href="#DejaVuSans-33"/>
       <use xlink:href="#DejaVuSans-2e" transform="translate(63.623047 0)"/>
       <use xlink:href="#DejaVuSans-35" transform="translate(95.410156 0)"/>
      </g>
     </g>
    </g>
    <g id="text_18">
     <!-- g_xy(r) -->
     <g transform="translate(14.7875 157.806) rotate(-90) scale(0.1 -0.1)">
      <defs>
       <path id="DejaVuSans-67" d="M 2906 1791 
Q 2906 2416 2648 2759 
Q 2391 3103 1925 3103 
Q 1463 3103 1205 2759 
Q 947 2416 947 1791 
Q 947 1169 1205 825 
Q 1463 481 1925 481 
Q 2391 481 2648 825 
Q 2906 1169 2906 1791 
z
M 3481 434 
Q 3481 -459 3084 -895 
Q 2688 -1331 1869 -1331 
Q 1566 -1331 1297 -1286 
Q 1028 -1241 775 -1147 
L 775 -588 
Q 1028 -725 1275 -790 
Q 1522 -856 1778 -856 
Q 2344 -856 2625 -561 
Q 2906 -266 2906 331 
L 2906 616 
Q 2728 306 2450 153 
Q 2172 0 1784 0 
Q 1141 0 747 490 
Q 353 981 353 1791 
Q 353 2603 747 3093 
Q 1141 3584 1784 3584 
Q 2172 3584 2450 3431 
Q 2728 3278 2906 2969 
L 2906 3500 
L 3481 3500 
L 3481 434 
z
" transform="scale(0.015625)"/>
      </defs>
      <use xlink:href="#DejaVuSans-67"/>
      <use xlink:href="#DejaVuSans-5f" transform="translate(63.476562 0)"/>
      <use xlink:href="#DejaVuSans-78" transform="translate(113.476562 0)"/>
      <use xlink:href="#DejaVuSans-79" transform="translate(172.65625 0)"/>
      <use xlink:href="#DejaVuSans-28" transform="translate(231.835938 0)"/>
      <use xlink:href="#DejaVuSans-72" transform="translate(270.849609 0)"/>
      <use xlink:href="#DejaVuSans-29" transform="translate(311.962891 0)"/>
     </g>
    </g>
   </g>
   <g id="line2d_17">
    <path d="M 60.281165 261.216 
L 139.152043 261.216 
L 140.98625 250.317847 
L 142.820456 261.216 
L 144.654662 241.933193 
L 146.488869 255.303821 
L 148.323075 223.61934 
L 150.157282 189.428144 
L 151.991488 191.521892 
L 153.825695 186.908835 
L 155.659901 145.274938 
L 157.494108 54.94858 
L 159.328314 82.792762 
L 161.162521 89.277153 
L 162.996727 107.500135 
L 164.830934 106.512889 
L 166.66514 93.838047 
L 168.499347 127.502877 
L 170.333553 152.044814 
L 172.16776 146.383778 
L 174.001966 144.137301 
L 175.836172 148.796989 
L 177.670379 171.554616 
L 179.504585 197.507475 
L 181.338792 156.531381 
L 183.172998 190.975777 
L 185.007205 190.868071 
L 186.841411 206.498434 
L 188.675618 190.597493 
L 190.509824 172.574971 
L 192.344031 169.626265 
L 194.178237 198.3406 
L 196.012444 182.664507 
L 197.84665 169.912984 
L 199.680857 191.109859 
L 201.515063 193.826499 
L 203.34927 183.412161 
L 205.183476 171.400639 
L 207.017682 192.779674 
L 208.851889 193.578832 
L 210.686095 184.052563 
L 212.520302 156.153113 
L 214.354508 148.027616 
L 216.188715 177.672921 
L 218.022921 188.361551 
L 219.857128 211.777861 
L 221.691334 212.551571 
L 223.525541 209.056499 
L 225.359747 196.48008 
L 227.193954 198.772503 
L 229.02816 204.70543 
L 230.862367 184.210773 
L 232.696573 175.966328 
L 234.53078 182.553416 
L 236.364986 189.787187 
L 238.199193 168.370756 
L 240.033399 189.167069 
L 241.867605 178.575867 
L 243.701812 163.507736 
L 245.536018 175.671136 
L 247.370225 178.876852 
L 249.204431 191.416478 
L 251.038638 168.502839 
L 252.872844 181.822718 
L 254.707051 162.453495 
L 256.541257 202.128611 
L 258.375464 197.679641 
L 260.20967 178.45808 
L 262.043877 205.992891 
L 263.878083 181.493726 
L 265.71229 181.898291 
L 267.546496 205.375608 
L 269.380703 191.631572 
L 271.214909 205.290815 
L 273.049115 208.55546 
L 274.883322 200.934239 
L 276.717528 201.350171 
L 278.551735 199.51849 
L 280.385941 201.831219 
L 282.220148 191.847839 
L 284.054354 195.295522 
L 285.888561 210.206717 
L 287.722767 194.981839 
L 289.556974 201.502949 
L 291.39118 196.209165 
L 293.225387 209.671021 
L 295.059593 198.182987 
L 296.8938 188.329885 
L 298.728006 194.715485 
L 300.562213 190.087497 
L 302.396419 201.335486 
L 304.230625 193.214572 
L 306.064832 209.856618 
L 307.899038 159.632722 
L 309.733245 175.258937 
L 311.567451 183.074622 
L 313.401658 195.837268 
L 315.235864 190.684704 
L 317.070071 180.414458 
L 318.904277 192.898856 
L 320.738484 185.51262 
L 322.57269 196.409565 
L 324.406897 199.282351 
L 326.241103 194.488221 
L 328.07531 209.245358 
L 329.909516 172.242975 
L 331.743723 201.681347 
L 333.577929 182.050201 
L 335.412135 195.808104 
L 337.246342 216.97641 
L 339.080548 195.148022 
L 340.914755 206.057986 
L 342.748961 228.316698 
L 344.583168 228.094271 
L 346.417374 205.569096 
L 348.251581 195.642074 
L 350.085787 218.357574 
L 351.919994 204.288301 
L 353.7542 188.117139 
L 355.588407 195.48881 
L 357.422613 193.508768 
L 359.25682 193.22855 
L 361.091026 190.337276 
L 362.925233 197.694114 
L 364.759439 184.523852 
L 366.593646 185.701584 
L 368.427852 200.828191 
L 370.262058 195.563973 
L 372.096265 170.341261 
L 373.930471 159.432975 
L 375.764678 169.068359 
L 377.598884 186.433914 
L 379.433091 193.283093 
L 381.267297 192.335897 
L 383.101504 181.381046 
L 384.93571 201.073552 
L 384.93571 201.073552 
" clip-path="url(#p033b373458)" style="fill: none; stroke: #ff7f0e; stroke-width: 1.5; stroke-linecap: square"/>
   </g>
   <g id="line2d_18">
    <path d="M 44.048438 194.387412 
L 401.168437 194.387412 
" clip-path="url(#p033b373458)" style="fill: none; stroke-dasharray: 5.55,2.4; stroke-dashoffset: 0; stroke: #000000; stroke-opacity: 0.4; stroke-width: 1.5"/>
   </g>
   <g id="patch_3">
    <path d="M 44.048438 273.312 
L 44.048438 7.2 
" style="fill: none; stroke: #000000; stroke-width: 0.8; stroke-linejoin: miter; stroke-linecap: square"/>
   </g>
   <g id="patch_4">
    <path d="M 401.168437 273.312 
L 401.168437 7.2 
" style="fill: none; stroke: #000000; stroke-width: 0.8; stroke-linejoin: miter; stroke-linecap: square"/>
   </g>
   <g id="patch_5">
    <path d="M 44.048438 273.312 
L 401.168438 273.312 
" style="fill: none; stroke: #000000; stroke-width: 0.8; stroke-linejoin: miter; stroke-linecap: square"/>
   </g>
   <g id="patch_6">
    <path d="M 44.048438 7.2 
L 401.168438 7.2 
" style="fill: none; stroke: #000000; stroke-width: 0.8; stroke-linejoin: miter; stroke-linecap: square"/>
   </g>
   <g id="legend_1">
    <g id="patch_7">
     <path d="M 328.0075 44.55625 
L 394.168438 44.55625 
Q 396.168438 44.55625 396.168438 42.55625 
L 396.168438 14.2 
Q 396.168438 12.2 394.168438 12.2 
L 328.0075 12.2 
Q 326.0075 12.2 326.0075 14.2 
L 326.0075 42.55625 
Q 326.0075 44.55625 328.0075 44.55625 
z
" style="fill: #ffffff; opacity: 0.8; stroke: #cccccc; stroke-linejoin: miter"/>
    </g>
    <g id="line2d_19">
     <path d="M 330.0075 20.298437 
L 340.0075 20.298437 
L 350.0075 20.298437 
" style="fill: none; stroke: #ff7f0e; stroke-width: 1.5; stroke-linecap: square"/>
    </g>
    <g id="text_19">
     <!-- Mean -->
     <g transform="translate(358.0075 23.798437) scale(0.1 -0.1)">
      <defs>
       <path id="DejaVuSans-4d" d="M 628 4666 
L 1569 4666 
L 2759 1491 
L 3956 4666 
L 4897 4666 
L 4897 0 
L 4281 0 
L 4281 4097 
L 3078 897 
L 2444 897 
L 1241 4097 
L 1241 0 
L 628 0 
L 628 4666 
z
" transform="scale(0.015625)"/>
       <path id="DejaVuSans-61" d="M 2194 1759 
Q 1497 1759 1228 1600 
Q 959 1441 959 1056 
Q 959 750 1161 570 
Q 1363 391 1709 391 
Q 2188 391 2477 730 
Q 2766 1069 2766 1631 
L 2766 1759 
L 2194 1759 
z
M 3341 1997 
L 3341 0 
L 2766 0 
L 2766 531 
Q 2569 213 2275 61 
Q 1981 -91 1556 -91 
Q 1019 -91 701 211 
Q 384 513 384 1019 
Q 384 1609 779 1909 
Q 1175 2209 1959 2209 
L 2766 2209 
L 2766 2266 
Q 2766 2663 2505 2880 
Q 2244 3097 1772 3097 
Q 1472 3097 1187 3025 
Q 903 2953 641 2809 
L 641 3341 
Q 956 3463 1253 3523 
Q 1550 3584 1831 3584 
Q 2591 3584 2966 3190 
Q 3341 2797 3341 1997 
z
" transform="scale(0.015625)"/>
      </defs>
      <use xlink:href="#DejaVuSans-4d"/>
      <use xlink:href="#DejaVuSans-65" transform="translate(86.279297 0)"/>
      <use xlink:href="#DejaVuSans-61" transform="translate(147.802734 0)"/>
      <use xlink:href="#DejaVuSans-6e" transform="translate(209.082031 0)"/>
     </g>
    </g>
    <g id="patch_8">
     <path d="M 330.0075 38.476562 
L 350.0075 38.476562 
L 350.0075 31.476562 
L 330.0075 31.476562 
z
" style="fill: #ff7f0e; fill-opacity: 0.3; stroke: #ff7f0e; stroke-opacity: 0.3; stroke-linejoin: miter"/>
    </g>
    <g id="text_20">
     <!-- Std Err -->
     <g transform="translate(358.0075 38.476562) scale(0.1 -0.1)">
      <defs>
       <path id="DejaVuSans-53" d="M 3425 4513 
L 3425 3897 
Q 3066 4069 2747 4153 
Q 2428 4238 2131 4238 
Q 1616 4238 1336 4038 
Q 1056 3838 1056 3469 
Q 1056 3159 1242 3001 
Q 1428 2844 1947 2747 
L 2328 2669 
Q 3034 2534 3370 2195 
Q 3706 1856 3706 1288 
Q 3706 609 3251 259 
Q 2797 -91 1919 -91 
Q 1588 -91 1214 -16 
Q 841 59 441 206 
L 441 856 
Q 825 641 1194 531 
Q 1563 422 1919 422 
Q 2459 422 2753 634 
Q 3047 847 3047 1241 
Q 3047 1584 2836 1778 
Q 2625 1972 2144 2069 
L 1759 2144 
Q 1053 2284 737 2584 
Q 422 2884 422 3419 
Q 422 4038 858 4394 
Q 1294 4750 2059 4750 
Q 2388 4750 2728 4690 
Q 3069 4631 3425 4513 
z
" transform="scale(0.015625)"/>
       <path id="DejaVuSans-45" d="M 628 4666 
L 3578 4666 
L 3578 4134 
L 1259 4134 
L 1259 2753 
L 3481 2753 
L 3481 2222 
L 1259 2222 
L 1259 531 
L 3634 531 
L 3634 0 
L 628 0 
L 628 4666 
z
" transform="scale(0.015625)"/>
      </defs>
      <use xlink:href="#DejaVuSans-53"/>
      <use xlink:href="#DejaVuSans-74" transform="translate(63.476562 0)"/>
      <use xlink:href="#DejaVuSans-64" transform="translate(102.685547 0)"/>
      <use xlink:href="#DejaVuSans-20" transform="translate(166.162109 0)"/>
      <use xlink:href="#DejaVuSans-45" transform="translate(197.949219 0)"/>
      <use xlink:href="#DejaVuSans-72" transform="translate(261.132812 0)"/>
      <use xlink:href="#DejaVuSans-72" transform="translate(300.496094 0)"/>
     </g>
    </g>
   </g>
  </g>
 </g>
 <defs>
  <clipPath id="p033b373458">
   <rect x="44.048438" y="7.2" width="357.12" height="266.112"/>
  </clipPath>
 </defs>
</svg>
