<?xml version="1.0" encoding="utf-8" standalone="no"?>
<!DOCTYPE svg PUBLIC "-//W3C//DTD SVG 1.1//EN"
  "http://www.w3.org/Graphics/SVG/1.1/DTD/svg11.dtd">
<svg xmlns:xlink="http://www.w3.org/1999/xlink" width="855.0165pt" height="349.746125pt" viewBox="0 0 855.0165 349.746125" xmlns="http://www.w3.org/2000/svg" version="1.1">
 <metadata>
  <rdf:RDF xmlns:dc="http://purl.org/dc/elements/1.1/" xmlns:cc="http://creativecommons.org/ns#" xmlns:rdf="http://www.w3.org/1999/02/22-rdf-syntax-ns#">
   <cc:Work>
    <dc:type rdf:resource="http://purl.org/dc/dcmitype/StillImage"/>
    <dc:date>2025-12-10T14:46:25.881713</dc:date>
    <dc:format>image/svg+xml</dc:format>
    <dc:creator>
     <cc:Agent>
      <dc:title>Matplotlib v3.10.1, https://matplotlib.org/</dc:title>
     </cc:Agent>
    </dc:creator>
   </cc:Work>
  </rdf:RDF>
 </metadata>
 <defs>
  <style type="text/css">*{stroke-linejoin: round; stroke-linecap: butt}</style>
 </defs>
 <g id="figure_1">
  <g id="patch_1">
   <path d="M 0 349.746125 
L 855.0165 349.746125 
L 855.0165 0 
L 0 0 
z
" style="fill: #ffffff"/>
  </g>
  <g id="axes_1">
   <g id="patch_2">
    <path d="M 35.2625 311.068 
L 416.424 311.068 
L 416.424 22.32 
L 35.2625 22.32 
z
" style="fill: #ffffff"/>
   </g>
   <g id="matplotlib.axis_1">
    <g id="xtick_1">
     <g id="line2d_1">
      <defs>
       <path id="m658e2e7731" d="M 0 0 
L 0 3.5 
" style="stroke: #000000; stroke-width: 0.8"/>
      </defs>
      <g>
       <use xlink:href="#m658e2e7731" x="51.60918" y="311.068" style="stroke: #000000; stroke-width: 0.8"/>
      </g>
     </g>
     <g id="text_1">
      <!-- 0.0 -->
      <g transform="translate(43.657617 325.666437) scale(0.1 -0.1)">
       <defs>
        <path id="DejaVuSans-30" d="M 2034 4250 
Q 1547 4250 1301 3770 
Q 1056 3291 1056 2328 
Q 1056 1369 1301 889 
Q 1547 409 2034 409 
Q 2525 409 2770 889 
Q 3016 1369 3016 2328 
Q 3016 3291 2770 3770 
Q 2525 4250 2034 4250 
z
M 2034 4750 
Q 2819 4750 3233 4129 
Q 3647 3509 3647 2328 
Q 3647 1150 3233 529 
Q 2819 -91 2034 -91 
Q 1250 -91 836 529 
Q 422 1150 422 2328 
Q 422 3509 836 4129 
Q 1250 4750 2034 4750 
z
" transform="scale(0.015625)"/>
        <path id="DejaVuSans-2e" d="M 684 794 
L 1344 794 
L 1344 0 
L 684 0 
L 684 794 
z
" transform="scale(0.015625)"/>
       </defs>
       <use xlink:href="#DejaVuSans-30"/>
       <use xlink:href="#DejaVuSans-2e" transform="translate(63.623047 0)"/>
       <use xlink:href="#DejaVuSans-30" transform="translate(95.410156 0)"/>
      </g>
     </g>
    </g>
    <g id="xtick_2">
     <g id="line2d_2">
      <g>
       <use xlink:href="#m658e2e7731" x="100.551334" y="311.068" style="stroke: #000000; stroke-width: 0.8"/>
      </g>
     </g>
     <g id="text_2">
      <!-- 0.5 -->
      <g transform="translate(92.599772 325.666437) scale(0.1 -0.1)">
       <defs>
        <path id="DejaVuSans-35" d="M 691 4666 
L 3169 4666 
L 3169 4134 
L 1269 4134 
L 1269 2991 
Q 1406 3038 1543 3061 
Q 1681 3084 1819 3084 
Q 2600 3084 3056 2656 
Q 3513 2228 3513 1497 
Q 3513 744 3044 326 
Q 2575 -91 1722 -91 
Q 1428 -91 1123 -41 
Q 819 9 494 109 
L 494 744 
Q 775 591 1075 516 
Q 1375 441 1709 441 
Q 2250 441 2565 725 
Q 2881 1009 2881 1497 
Q 2881 1984 2565 2268 
Q 2250 2553 1709 2553 
Q 1456 2553 1204 2497 
Q 953 2441 691 2322 
L 691 4666 
z
" transform="scale(0.015625)"/>
       </defs>
       <use xlink:href="#DejaVuSans-30"/>
       <use xlink:href="#DejaVuSans-2e" transform="translate(63.623047 0)"/>
       <use xlink:href="#DejaVuSans-35" transform="translate(95.410156 0)"/>
      </g>
     </g>
    </g>
    <g id="xtick_3">
     <g id="line2d_3">
      <g>
       <use xlink:href="#m658e2e7731" x="149.493489" y="311.068" style="stroke: #000000; stroke-width: 0.8"/>
      </g>
     </g>
     <g id="text_3">
      <!-- 1.0 -->
      <g transform="translate(141.541926 325.666437) scale(0.1 -0.1)">
       <defs>
        <path id="DejaVuSans-31" d="M 794 531 
L 1825 531 
L 1825 4091 
L 703 3866 
L 703 4441 
L 1819 4666 
L 2450 4666 
L 2450 531 
L 3481 531 
L 3481 0 
L 794 0 
L 794 531 
z
" transform="scale(0.015625)"/>
       </defs>
       <use xlink:href="#DejaVuSans-31"/>
       <use xlink:href="#DejaVuSans-2e" transform="translate(63.623047 0)"/>
       <use xlink:href="#DejaVuSans-30" transform="translate(95.410156 0)"/>
      </g>
     </g>
    </g>
    <g id="xtick_4">
     <g id="line2d_4">
      <g>
       <use xlink:href="#m658e2e7731" x="198.435643" y="311.068" style="stroke: #000000; stroke-width: 0.8"/>
      </g>
     </g>
     <g id="text_4">
      <!-- 1.5 -->
      <g transform="translate(190.484081 325.666437) scale(0.1 -0.1)">
       <use xlink:href="#DejaVuSans-31"/>
       <use xlink:href="#DejaVuSans-2e" transform="translate(63.623047 0)"/>
       <use xlink:href="#DejaVuSans-35" transform="translate(95.410156 0)"/>
      </g>
     </g>
    </g>
    <g id="xtick_5">
     <g id="line2d_5">
      <g>
       <use xlink:href="#m658e2e7731" x="247.377798" y="311.068" style="stroke: #000000; stroke-width: 0.8"/>
      </g>
     </g>
     <g id="text_5">
      <!-- 2.0 -->
      <g transform="translate(239.426236 325.666437) scale(0.1 -0.1)">
       <defs>
        <path id="DejaVuSans-32" d="M 1228 531 
L 3431 531 
L 3431 0 
L 469 0 
L 469 531 
Q 828 903 1448 1529 
Q 2069 2156 2228 2338 
Q 2531 2678 2651 2914 
Q 2772 3150 2772 3378 
Q 2772 3750 2511 3984 
Q 2250 4219 1831 4219 
Q 1534 4219 1204 4116 
Q 875 4013 500 3803 
L 500 4441 
Q 881 4594 1212 4672 
Q 1544 4750 1819 4750 
Q 2544 4750 2975 4387 
Q 3406 4025 3406 3419 
Q 3406 3131 3298 2873 
Q 3191 2616 2906 2266 
Q 2828 2175 2409 1742 
Q 1991 1309 1228 531 
z
" transform="scale(0.015625)"/>
       </defs>
       <use xlink:href="#DejaVuSans-32"/>
       <use xlink:href="#DejaVuSans-2e" transform="translate(63.623047 0)"/>
       <use xlink:href="#DejaVuSans-30" transform="translate(95.410156 0)"/>
      </g>
     </g>
    </g>
    <g id="xtick_6">
     <g id="line2d_6">
      <g>
       <use xlink:href="#m658e2e7731" x="296.319953" y="311.068" style="stroke: #000000; stroke-width: 0.8"/>
      </g>
     </g>
     <g id="text_6">
      <!-- 2.5 -->
      <g transform="translate(288.36839 325.666437) scale(0.1 -0.1)">
       <use xlink:href="#DejaVuSans-32"/>
       <use xlink:href="#DejaVuSans-2e" transform="translate(63.623047 0)"/>
       <use xlink:href="#DejaVuSans-35" transform="translate(95.410156 0)"/>
      </g>
     </g>
    </g>
    <g id="xtick_7">
     <g id="line2d_7">
      <g>
       <use xlink:href="#m658e2e7731" x="345.262107" y="311.068" style="stroke: #000000; stroke-width: 0.8"/>
      </g>
     </g>
     <g id="text_7">
      <!-- 3.0 -->
      <g transform="translate(337.310545 325.666437) scale(0.1 -0.1)">
       <defs>
        <path id="DejaVuSans-33" d="M 2597 2516 
Q 3050 2419 3304 2112 
Q 3559 1806 3559 1356 
Q 3559 666 3084 287 
Q 2609 -91 1734 -91 
Q 1441 -91 1130 -33 
Q 819 25 488 141 
L 488 750 
Q 750 597 1062 519 
Q 1375 441 1716 441 
Q 2309 441 2620 675 
Q 2931 909 2931 1356 
Q 2931 1769 2642 2001 
Q 2353 2234 1838 2234 
L 1294 2234 
L 1294 2753 
L 1863 2753 
Q 2328 2753 2575 2939 
Q 2822 3125 2822 3475 
Q 2822 3834 2567 4026 
Q 2313 4219 1838 4219 
Q 1578 4219 1281 4162 
Q 984 4106 628 3988 
L 628 4550 
Q 988 4650 1302 4700 
Q 1616 4750 1894 4750 
Q 2613 4750 3031 4423 
Q 3450 4097 3450 3541 
Q 3450 3153 3228 2886 
Q 3006 2619 2597 2516 
z
" transform="scale(0.015625)"/>
       </defs>
       <use xlink:href="#DejaVuSans-33"/>
       <use xlink:href="#DejaVuSans-2e" transform="translate(63.623047 0)"/>
       <use xlink:href="#DejaVuSans-30" transform="translate(95.410156 0)"/>
      </g>
     </g>
    </g>
    <g id="xtick_8">
     <g id="line2d_8">
      <g>
       <use xlink:href="#m658e2e7731" x="394.204262" y="311.068" style="stroke: #000000; stroke-width: 0.8"/>
      </g>
     </g>
     <g id="text_8">
      <!-- 3.5 -->
      <g transform="translate(386.252699 325.666437) scale(0.1 -0.1)">
       <use xlink:href="#DejaVuSans-33"/>
       <use xlink:href="#DejaVuSans-2e" transform="translate(63.623047 0)"/>
       <use xlink:href="#DejaVuSans-35" transform="translate(95.410156 0)"/>
      </g>
     </g>
    </g>
    <g id="text_9">
     <!-- $r_{xy}$ -->
     <g transform="translate(219.49325 338.32425) scale(0.1 -0.1)">
      <defs>
       <path id="DejaVuSans-Oblique-72" d="M 2853 2969 
Q 2766 3016 2653 3041 
Q 2541 3066 2413 3066 
Q 1953 3066 1609 2717 
Q 1266 2369 1153 1784 
L 800 0 
L 225 0 
L 909 3500 
L 1484 3500 
L 1375 2956 
Q 1603 3259 1920 3421 
Q 2238 3584 2597 3584 
Q 2691 3584 2781 3573 
Q 2872 3563 2963 3538 
L 2853 2969 
z
" transform="scale(0.015625)"/>
       <path id="DejaVuSans-Oblique-78" d="M 3841 3500 
L 2234 1784 
L 3219 0 
L 2559 0 
L 1819 1388 
L 531 0 
L -166 0 
L 1556 1844 
L 641 3500 
L 1300 3500 
L 1972 2234 
L 3144 3500 
L 3841 3500 
z
" transform="scale(0.015625)"/>
       <path id="DejaVuSans-Oblique-79" d="M 1588 -325 
Q 1188 -997 936 -1164 
Q 684 -1331 294 -1331 
L -159 -1331 
L -63 -850 
L 269 -850 
Q 509 -850 678 -719 
Q 847 -588 1056 -206 
L 1234 128 
L 459 3500 
L 1069 3500 
L 1650 819 
L 3256 3500 
L 3859 3500 
L 1588 -325 
z
" transform="scale(0.015625)"/>
      </defs>
      <use xlink:href="#DejaVuSans-Oblique-72"/>
      <use xlink:href="#DejaVuSans-Oblique-78" transform="translate(41.113281 -16.40625) scale(0.7)"/>
      <use xlink:href="#DejaVuSans-Oblique-79" transform="translate(82.539062 -16.40625) scale(0.7)"/>
     </g>
    </g>
   </g>
   <g id="matplotlib.axis_2">
    <g id="ytick_1">
     <g id="line2d_9">
      <defs>
       <path id="m76536b7e1f" d="M 0 0 
L -3.5 0 
" style="stroke: #000000; stroke-width: 0.8"/>
      </defs>
      <g>
       <use xlink:href="#m76536b7e1f" x="35.2625" y="297.943091" style="stroke: #000000; stroke-width: 0.8"/>
      </g>
     </g>
     <g id="text_10">
      <!-- 0 -->
      <g transform="translate(21.9 301.74231) scale(0.1 -0.1)">
       <use xlink:href="#DejaVuSans-30"/>
      </g>
     </g>
    </g>
    <g id="ytick_2">
     <g id="line2d_10">
      <g>
       <use xlink:href="#m76536b7e1f" x="35.2625" y="242.465" style="stroke: #000000; stroke-width: 0.8"/>
      </g>
     </g>
     <g id="text_11">
      <!-- 1 -->
      <g transform="translate(21.9 246.264219) scale(0.1 -0.1)">
       <use xlink:href="#DejaVuSans-31"/>
      </g>
     </g>
    </g>
    <g id="ytick_3">
     <g id="line2d_11">
      <g>
       <use xlink:href="#m76536b7e1f" x="35.2625" y="186.98691" style="stroke: #000000; stroke-width: 0.8"/>
      </g>
     </g>
     <g id="text_12">
      <!-- 2 -->
      <g transform="translate(21.9 190.786129) scale(0.1 -0.1)">
       <use xlink:href="#DejaVuSans-32"/>
      </g>
     </g>
    </g>
    <g id="ytick_4">
     <g id="line2d_12">
      <g>
       <use xlink:href="#m76536b7e1f" x="35.2625" y="131.508819" style="stroke: #000000; stroke-width: 0.8"/>
      </g>
     </g>
     <g id="text_13">
      <!-- 3 -->
      <g transform="translate(21.9 135.308038) scale(0.1 -0.1)">
       <use xlink:href="#DejaVuSans-33"/>
      </g>
     </g>
    </g>
    <g id="ytick_5">
     <g id="line2d_13">
      <g>
       <use xlink:href="#m76536b7e1f" x="35.2625" y="76.030729" style="stroke: #000000; stroke-width: 0.8"/>
      </g>
     </g>
     <g id="text_14">
      <!-- 4 -->
      <g transform="translate(21.9 79.829948) scale(0.1 -0.1)">
       <defs>
        <path id="DejaVuSans-34" d="M 2419 4116 
L 825 1625 
L 2419 1625 
L 2419 4116 
z
M 2253 4666 
L 3047 4666 
L 3047 1625 
L 3713 1625 
L 3713 1100 
L 3047 1100 
L 3047 0 
L 2419 0 
L 2419 1100 
L 313 1100 
L 313 1709 
L 2253 4666 
z
" transform="scale(0.015625)"/>
       </defs>
       <use xlink:href="#DejaVuSans-34"/>
      </g>
     </g>
    </g>
    <g id="text_15">
     <!-- $g_{xy}(r)$ -->
     <g transform="translate(14.8 180.144) rotate(-90) scale(0.1 -0.1)">
      <defs>
       <path id="DejaVuSans-Oblique-67" d="M 3816 3500 
L 3219 434 
Q 3047 -456 2561 -893 
Q 2075 -1331 1253 -1331 
Q 950 -1331 690 -1286 
Q 431 -1241 206 -1147 
L 313 -588 
Q 525 -725 762 -790 
Q 1000 -856 1269 -856 
Q 1816 -856 2167 -557 
Q 2519 -259 2631 300 
L 2681 563 
Q 2441 288 2122 144 
Q 1803 0 1434 0 
Q 903 0 598 351 
Q 294 703 294 1319 
Q 294 1803 478 2267 
Q 663 2731 997 3091 
Q 1219 3328 1514 3456 
Q 1809 3584 2131 3584 
Q 2484 3584 2746 3420 
Q 3009 3256 3138 2956 
L 3238 3500 
L 3816 3500 
z
M 2950 2216 
Q 2950 2641 2750 2872 
Q 2550 3103 2181 3103 
Q 1953 3103 1747 3012 
Q 1541 2922 1394 2759 
Q 1156 2491 1023 2127 
Q 891 1763 891 1375 
Q 891 944 1092 712 
Q 1294 481 1672 481 
Q 2219 481 2584 976 
Q 2950 1472 2950 2216 
z
" transform="scale(0.015625)"/>
       <path id="DejaVuSans-28" d="M 1984 4856 
Q 1566 4138 1362 3434 
Q 1159 2731 1159 2009 
Q 1159 1288 1364 580 
Q 1569 -128 1984 -844 
L 1484 -844 
Q 1016 -109 783 600 
Q 550 1309 550 2009 
Q 550 2706 781 3412 
Q 1013 4119 1484 4856 
L 1984 4856 
z
" transform="scale(0.015625)"/>
       <path id="DejaVuSans-29" d="M 513 4856 
L 1013 4856 
Q 1481 4119 1714 3412 
Q 1947 2706 1947 2009 
Q 1947 1309 1714 600 
Q 1481 -109 1013 -844 
L 513 -844 
Q 928 -128 1133 580 
Q 1338 1288 1338 2009 
Q 1338 2731 1133 3434 
Q 928 4138 513 4856 
z
" transform="scale(0.015625)"/>
      </defs>
      <use xlink:href="#DejaVuSans-Oblique-67" transform="translate(0 0.125)"/>
      <use xlink:href="#DejaVuSans-Oblique-78" transform="translate(63.476562 -16.28125) scale(0.7)"/>
      <use xlink:href="#DejaVuSans-Oblique-79" transform="translate(104.902344 -16.28125) scale(0.7)"/>
      <use xlink:href="#DejaVuSans-28" transform="translate(149.0625 0.125)"/>
      <use xlink:href="#DejaVuSans-Oblique-72" transform="translate(188.076172 0.125)"/>
      <use xlink:href="#DejaVuSans-29" transform="translate(229.189453 0.125)"/>
     </g>
    </g>
   </g>
   <g id="line2d_14">
    <path d="M 52.588023 297.943091 
L 70.207198 297.943091 
L 72.164885 35.444909 
L 74.122571 297.943091 
L 91.741746 297.943091 
L 93.699433 41.549518 
L 95.657119 297.943091 
L 99.572491 297.943091 
L 101.530177 189.855604 
L 103.487864 297.943091 
L 107.403236 297.943091 
L 109.360922 204.511535 
L 111.318608 207.574864 
L 113.276294 122.944303 
L 115.233981 297.943091 
L 119.149353 297.943091 
L 121.107039 220.302784 
L 123.064725 297.943091 
L 130.89547 297.943091 
L 132.853156 165.112686 
L 136.768529 297.943091 
L 140.683901 297.943091 
L 142.641587 238.669308 
L 144.599273 297.943091 
L 146.55696 297.943091 
L 148.514646 242.261658 
L 152.430018 244.424044 
L 154.387704 297.943091 
L 156.34539 143.388087 
L 158.303077 196.797003 
L 160.260763 198.619455 
L 162.218449 151.594547 
L 164.176135 202.07419 
L 166.133821 203.712974 
L 168.091508 251.619882 
L 170.049194 115.712948 
L 172.00688 163.492803 
L 173.964566 297.943091 
L 175.922252 211.132669 
L 177.879938 255.210829 
L 179.837625 213.783368 
L 183.752997 297.943091 
L 185.710683 96.758353 
L 187.668369 258.285092 
L 189.626056 180.656669 
L 193.541428 183.892157 
L 195.499114 260.443351 
L 197.4568 223.950315 
L 199.414487 261.436721 
L 201.372173 189.855604 
L 203.329859 297.943091 
L 205.287545 157.498204 
L 207.245231 297.943091 
L 209.202917 297.943091 
L 211.160604 264.124307 
L 213.11829 264.534231 
L 215.075976 231.925584 
L 217.033662 232.706856 
L 218.991348 265.706472 
L 222.906721 266.443309 
L 224.864407 297.943091 
L 226.822093 297.943091 
L 228.779779 206.57632 
L 230.737465 297.943091 
L 232.695152 238.348909 
L 234.652838 209.507875 
L 236.610524 268.776626 
L 238.56821 297.943091 
L 240.525896 269.381113 
L 242.483583 184.866951 
L 244.441269 269.961051 
L 248.356641 270.517908 
L 250.314327 297.943091 
L 252.272013 297.943091 
L 254.2297 218.05234 
L 256.187386 271.567676 
L 258.145072 297.943091 
L 260.102758 246.182886 
L 267.933503 248.056559 
L 269.891189 223.784412 
L 271.848875 273.443261 
L 273.806562 297.943091 
L 275.764248 153.511777 
L 279.67962 297.943091 
L 281.637306 227.571238 
L 289.468051 229.888007 
L 291.425737 252.943403 
L 293.383423 230.990113 
L 295.34111 275.80469 
L 297.298796 210.095094 
L 299.256482 254.366318 
L 301.214168 233.090599 
L 303.171854 190.696752 
L 305.12954 212.808545 
L 307.087227 297.943091 
L 309.044913 256.023229 
L 311.002599 277.141348 
L 312.960285 277.297166 
L 314.917971 297.943091 
L 316.875658 155.554778 
L 318.833344 176.790084 
L 320.79103 257.85246 
L 322.748716 278.042507 
L 324.706402 159.637597 
L 326.664088 239.091185 
L 328.621775 258.985764 
L 330.579461 239.917177 
L 332.537147 201.907171 
L 334.494833 278.868829 
L 336.452519 241.113588 
L 338.410206 260.315365 
L 340.367892 223.197846 
L 346.24095 224.687784 
L 348.198636 297.943091 
L 350.156323 243.722155 
L 352.114009 226.119484 
L 354.071695 226.584362 
L 356.029381 244.768218 
L 357.987067 245.107994 
L 359.944754 280.443212 
L 363.860126 280.662646 
L 365.817812 246.424756 
L 367.775498 246.743755 
L 369.733185 264.020249 
L 371.690871 213.654684 
L 373.648557 264.432685 
L 377.563929 231.727333 
L 379.521615 232.122651 
L 381.479302 265.228184 
L 383.436988 216.638344 
L 385.394674 265.611937 
L 387.35236 233.657822 
L 389.310046 265.986791 
L 391.267733 186.740691 
L 393.225419 250.558032 
L 395.183105 219.417994 
L 399.098477 251.358907 
L 399.098477 251.358907 
" clip-path="url(#pcb19a355ed)" style="fill: none; stroke: #1f77b4; stroke-width: 1.5; stroke-linecap: square"/>
   </g>
   <g id="line2d_15">
    <path d="M 35.2625 242.465 
L 416.424 242.465 
" clip-path="url(#pcb19a355ed)" style="fill: none; stroke-dasharray: 5.55,2.4; stroke-dashoffset: 0; stroke: #000000; stroke-opacity: 0.4; stroke-width: 1.5"/>
   </g>
   <g id="patch_3">
    <path d="M 35.2625 311.068 
L 35.2625 22.32 
" style="fill: none; stroke: #000000; stroke-width: 0.8; stroke-linejoin: miter; stroke-linecap: square"/>
   </g>
   <g id="patch_4">
    <path d="M 416.424 311.068 
L 416.424 22.32 
" style="fill: none; stroke: #000000; stroke-width: 0.8; stroke-linejoin: miter; stroke-linecap: square"/>
   </g>
   <g id="patch_5">
    <path d="M 35.2625 311.068 
L 416.424 311.068 
" style="fill: none; stroke: #000000; stroke-width: 0.8; stroke-linejoin: miter; stroke-linecap: square"/>
   </g>
   <g id="patch_6">
    <path d="M 35.2625 22.32 
L 416.424 22.32 
" style="fill: none; stroke: #000000; stroke-width: 0.8; stroke-linejoin: miter; stroke-linecap: square"/>
   </g>
   <g id="text_16">
    <!-- offset=0.00 - $g_{xy}(r)$ -->
    <g transform="translate(168.30325 16.32) scale(0.12 -0.12)">
     <defs>
      <path id="DejaVuSans-6f" d="M 1959 3097 
Q 1497 3097 1228 2736 
Q 959 2375 959 1747 
Q 959 1119 1226 758 
Q 1494 397 1959 397 
Q 2419 397 2687 759 
Q 2956 1122 2956 1747 
Q 2956 2369 2687 2733 
Q 2419 3097 1959 3097 
z
M 1959 3584 
Q 2709 3584 3137 3096 
Q 3566 2609 3566 1747 
Q 3566 888 3137 398 
Q 2709 -91 1959 -91 
Q 1206 -91 779 398 
Q 353 888 353 1747 
Q 353 2609 779 3096 
Q 1206 3584 1959 3584 
z
" transform="scale(0.015625)"/>
      <path id="DejaVuSans-66" d="M 2375 4863 
L 2375 4384 
L 1825 4384 
Q 1516 4384 1395 4259 
Q 1275 4134 1275 3809 
L 1275 3500 
L 2222 3500 
L 2222 3053 
L 1275 3053 
L 1275 0 
L 697 0 
L 697 3053 
L 147 3053 
L 147 3500 
L 697 3500 
L 697 3744 
Q 697 4328 969 4595 
Q 1241 4863 1831 4863 
L 2375 4863 
z
" transform="scale(0.015625)"/>
      <path id="DejaVuSans-73" d="M 2834 3397 
L 2834 2853 
Q 2591 2978 2328 3040 
Q 2066 3103 1784 3103 
Q 1356 3103 1142 2972 
Q 928 2841 928 2578 
Q 928 2378 1081 2264 
Q 1234 2150 1697 2047 
L 1894 2003 
Q 2506 1872 2764 1633 
Q 3022 1394 3022 966 
Q 3022 478 2636 193 
Q 2250 -91 1575 -91 
Q 1294 -91 989 -36 
Q 684 19 347 128 
L 347 722 
Q 666 556 975 473 
Q 1284 391 1588 391 
Q 1994 391 2212 530 
Q 2431 669 2431 922 
Q 2431 1156 2273 1281 
Q 2116 1406 1581 1522 
L 1381 1569 
Q 847 1681 609 1914 
Q 372 2147 372 2553 
Q 372 3047 722 3315 
Q 1072 3584 1716 3584 
Q 2034 3584 2315 3537 
Q 2597 3491 2834 3397 
z
" transform="scale(0.015625)"/>
      <path id="DejaVuSans-65" d="M 3597 1894 
L 3597 1613 
L 953 1613 
Q 991 1019 1311 708 
Q 1631 397 2203 397 
Q 2534 397 2845 478 
Q 3156 559 3463 722 
L 3463 178 
Q 3153 47 2828 -22 
Q 2503 -91 2169 -91 
Q 1331 -91 842 396 
Q 353 884 353 1716 
Q 353 2575 817 3079 
Q 1281 3584 2069 3584 
Q 2775 3584 3186 3129 
Q 3597 2675 3597 1894 
z
M 3022 2063 
Q 3016 2534 2758 2815 
Q 2500 3097 2075 3097 
Q 1594 3097 1305 2825 
Q 1016 2553 972 2059 
L 3022 2063 
z
" transform="scale(0.015625)"/>
      <path id="DejaVuSans-74" d="M 1172 4494 
L 1172 3500 
L 2356 3500 
L 2356 3053 
L 1172 3053 
L 1172 1153 
Q 1172 725 1289 603 
Q 1406 481 1766 481 
L 2356 481 
L 2356 0 
L 1766 0 
Q 1100 0 847 248 
Q 594 497 594 1153 
L 594 3053 
L 172 3053 
L 172 3500 
L 594 3500 
L 594 4494 
L 1172 4494 
z
" transform="scale(0.015625)"/>
      <path id="DejaVuSans-3d" d="M 678 2906 
L 4684 2906 
L 4684 2381 
L 678 2381 
L 678 2906 
z
M 678 1631 
L 4684 1631 
L 4684 1100 
L 678 1100 
L 678 1631 
z
" transform="scale(0.015625)"/>
      <path id="DejaVuSans-20" transform="scale(0.015625)"/>
      <path id="DejaVuSans-2d" d="M 313 2009 
L 1997 2009 
L 1997 1497 
L 313 1497 
L 313 2009 
z
" transform="scale(0.015625)"/>
     </defs>
     <use xlink:href="#DejaVuSans-6f" transform="translate(0 0.015625)"/>
     <use xlink:href="#DejaVuSans-66" transform="translate(61.181641 0.015625)"/>
     <use xlink:href="#DejaVuSans-66" transform="translate(96.386719 0.015625)"/>
     <use xlink:href="#DejaVuSans-73" transform="translate(131.591797 0.015625)"/>
     <use xlink:href="#DejaVuSans-65" transform="translate(183.691406 0.015625)"/>
     <use xlink:href="#DejaVuSans-74" transform="translate(245.214844 0.015625)"/>
     <use xlink:href="#DejaVuSans-3d" transform="translate(284.423828 0.015625)"/>
     <use xlink:href="#DejaVuSans-30" transform="translate(368.212891 0.015625)"/>
     <use xlink:href="#DejaVuSans-2e" transform="translate(431.835938 0.015625)"/>
     <use xlink:href="#DejaVuSans-30" transform="translate(463.623047 0.015625)"/>
     <use xlink:href="#DejaVuSans-30" transform="translate(527.246094 0.015625)"/>
     <use xlink:href="#DejaVuSans-20" transform="translate(590.869141 0.015625)"/>
     <use xlink:href="#DejaVuSans-2d" transform="translate(622.65625 0.015625)"/>
     <use xlink:href="#DejaVuSans-20" transform="translate(658.740234 0.015625)"/>
     <use xlink:href="#DejaVuSans-Oblique-67" transform="translate(690.527344 0.015625)"/>
     <use xlink:href="#DejaVuSans-Oblique-78" transform="translate(754.003906 -16.390625) scale(0.7)"/>
     <use xlink:href="#DejaVuSans-Oblique-79" transform="translate(795.429688 -16.390625) scale(0.7)"/>
     <use xlink:href="#DejaVuSans-28" transform="translate(839.589844 0.015625)"/>
     <use xlink:href="#DejaVuSans-Oblique-72" transform="translate(878.603516 0.015625)"/>
     <use xlink:href="#DejaVuSans-29" transform="translate(919.716797 0.015625)"/>
    </g>
   </g>
  </g>
  <g id="axes_2">
   <g id="patch_7">
    <path d="M 466.655 311.068 
L 847.8165 311.068 
L 847.8165 22.32 
L 466.655 22.32 
z
" style="fill: #ffffff"/>
   </g>
   <g id="matplotlib.axis_3">
    <g id="xtick_9">
     <g id="line2d_16">
      <g>
       <use xlink:href="#m658e2e7731" x="466.837745" y="311.068" style="stroke: #000000; stroke-width: 0.8"/>
      </g>
     </g>
     <g id="text_17">
      <!-- 0.0 -->
      <g transform="translate(458.886182 325.666437) scale(0.1 -0.1)">
       <use xlink:href="#DejaVuSans-30"/>
       <use xlink:href="#DejaVuSans-2e" transform="translate(63.623047 0)"/>
       <use xlink:href="#DejaVuSans-30" transform="translate(95.410156 0)"/>
      </g>
     </g>
    </g>
    <g id="xtick_10">
     <g id="line2d_17">
      <g>
       <use xlink:href="#m658e2e7731" x="515.402514" y="311.068" style="stroke: #000000; stroke-width: 0.8"/>
      </g>
     </g>
     <g id="text_18">
      <!-- 2.5 -->
      <g transform="translate(507.450952 325.666437) scale(0.1 -0.1)">
       <use xlink:href="#DejaVuSans-32"/>
       <use xlink:href="#DejaVuSans-2e" transform="translate(63.623047 0)"/>
       <use xlink:href="#DejaVuSans-35" transform="translate(95.410156 0)"/>
      </g>
     </g>
    </g>
    <g id="xtick_11">
     <g id="line2d_18">
      <g>
       <use xlink:href="#m658e2e7731" x="563.967283" y="311.068" style="stroke: #000000; stroke-width: 0.8"/>
      </g>
     </g>
     <g id="text_19">
      <!-- 5.0 -->
      <g transform="translate(556.015721 325.666437) scale(0.1 -0.1)">
       <use xlink:href="#DejaVuSans-35"/>
       <use xlink:href="#DejaVuSans-2e" transform="translate(63.623047 0)"/>
       <use xlink:href="#DejaVuSans-30" transform="translate(95.410156 0)"/>
      </g>
     </g>
    </g>
    <g id="xtick_12">
     <g id="line2d_19">
      <g>
       <use xlink:href="#m658e2e7731" x="612.532053" y="311.068" style="stroke: #000000; stroke-width: 0.8"/>
      </g>
     </g>
     <g id="text_20">
      <!-- 7.5 -->
      <g transform="translate(604.58049 325.666437) scale(0.1 -0.1)">
       <defs>
        <path id="DejaVuSans-37" d="M 525 4666 
L 3525 4666 
L 3525 4397 
L 1831 0 
L 1172 0 
L 2766 4134 
L 525 4134 
L 525 4666 
z
" transform="scale(0.015625)"/>
       </defs>
       <use xlink:href="#DejaVuSans-37"/>
       <use xlink:href="#DejaVuSans-2e" transform="translate(63.623047 0)"/>
       <use xlink:href="#DejaVuSans-35" transform="translate(95.410156 0)"/>
      </g>
     </g>
    </g>
    <g id="xtick_13">
     <g id="line2d_20">
      <g>
       <use xlink:href="#m658e2e7731" x="661.096822" y="311.068" style="stroke: #000000; stroke-width: 0.8"/>
      </g>
     </g>
     <g id="text_21">
      <!-- 10.0 -->
      <g transform="translate(649.964009 325.666437) scale(0.1 -0.1)">
       <use xlink:href="#DejaVuSans-31"/>
       <use xlink:href="#DejaVuSans-30" transform="translate(63.623047 0)"/>
       <use xlink:href="#DejaVuSans-2e" transform="translate(127.246094 0)"/>
       <use xlink:href="#DejaVuSans-30" transform="translate(159.033203 0)"/>
      </g>
     </g>
    </g>
    <g id="xtick_14">
     <g id="line2d_21">
      <g>
       <use xlink:href="#m658e2e7731" x="709.661591" y="311.068" style="stroke: #000000; stroke-width: 0.8"/>
      </g>
     </g>
     <g id="text_22">
      <!-- 12.5 -->
      <g transform="translate(698.528778 325.666437) scale(0.1 -0.1)">
       <use xlink:href="#DejaVuSans-31"/>
       <use xlink:href="#DejaVuSans-32" transform="translate(63.623047 0)"/>
       <use xlink:href="#DejaVuSans-2e" transform="translate(127.246094 0)"/>
       <use xlink:href="#DejaVuSans-35" transform="translate(159.033203 0)"/>
      </g>
     </g>
    </g>
    <g id="xtick_15">
     <g id="line2d_22">
      <g>
       <use xlink:href="#m658e2e7731" x="758.22636" y="311.068" style="stroke: #000000; stroke-width: 0.8"/>
      </g>
     </g>
     <g id="text_23">
      <!-- 15.0 -->
      <g transform="translate(747.093548 325.666437) scale(0.1 -0.1)">
       <use xlink:href="#DejaVuSans-31"/>
       <use xlink:href="#DejaVuSans-35" transform="translate(63.623047 0)"/>
       <use xlink:href="#DejaVuSans-2e" transform="translate(127.246094 0)"/>
       <use xlink:href="#DejaVuSans-30" transform="translate(159.033203 0)"/>
      </g>
     </g>
    </g>
    <g id="xtick_16">
     <g id="line2d_23">
      <g>
       <use xlink:href="#m658e2e7731" x="806.791129" y="311.068" style="stroke: #000000; stroke-width: 0.8"/>
      </g>
     </g>
     <g id="text_24">
      <!-- 17.5 -->
      <g transform="translate(795.658317 325.666437) scale(0.1 -0.1)">
       <use xlink:href="#DejaVuSans-31"/>
       <use xlink:href="#DejaVuSans-37" transform="translate(63.623047 0)"/>
       <use xlink:href="#DejaVuSans-2e" transform="translate(127.246094 0)"/>
       <use xlink:href="#DejaVuSans-35" transform="translate(159.033203 0)"/>
      </g>
     </g>
    </g>
    <g id="text_25">
     <!-- $|k_{xy}|$ -->
     <g transform="translate(646.68575 339.446125) scale(0.1 -0.1)">
      <defs>
       <path id="DejaVuSans-7c" d="M 1344 4891 
L 1344 -1509 
L 813 -1509 
L 813 4891 
L 1344 4891 
z
" transform="scale(0.015625)"/>
       <path id="DejaVuSans-Oblique-6b" d="M 1172 4863 
L 1747 4863 
L 1197 2028 
L 3169 3500 
L 3916 3500 
L 1716 1825 
L 3322 0 
L 2625 0 
L 1131 1709 
L 800 0 
L 225 0 
L 1172 4863 
z
" transform="scale(0.015625)"/>
      </defs>
      <use xlink:href="#DejaVuSans-7c" transform="translate(0 0.578125)"/>
      <use xlink:href="#DejaVuSans-Oblique-6b" transform="translate(33.691406 0.578125)"/>
      <use xlink:href="#DejaVuSans-Oblique-78" transform="translate(91.601562 -15.828125) scale(0.7)"/>
      <use xlink:href="#DejaVuSans-Oblique-79" transform="translate(133.027344 -15.828125) scale(0.7)"/>
      <use xlink:href="#DejaVuSans-7c" transform="translate(177.1875 0.578125)"/>
     </g>
    </g>
   </g>
   <g id="matplotlib.axis_4">
    <g id="ytick_6">
     <g id="line2d_24">
      <g>
       <use xlink:href="#m76536b7e1f" x="466.655" y="306.478039" style="stroke: #000000; stroke-width: 0.8"/>
      </g>
     </g>
     <g id="text_26">
      <!-- 0.0 -->
      <g transform="translate(443.751875 310.277258) scale(0.1 -0.1)">
       <use xlink:href="#DejaVuSans-30"/>
       <use xlink:href="#DejaVuSans-2e" transform="translate(63.623047 0)"/>
       <use xlink:href="#DejaVuSans-30" transform="translate(95.410156 0)"/>
      </g>
     </g>
    </g>
    <g id="ytick_7">
     <g id="line2d_25">
      <g>
       <use xlink:href="#m76536b7e1f" x="466.655" y="268.251107" style="stroke: #000000; stroke-width: 0.8"/>
      </g>
     </g>
     <g id="text_27">
      <!-- 0.5 -->
      <g transform="translate(443.751875 272.050326) scale(0.1 -0.1)">
       <use xlink:href="#DejaVuSans-30"/>
       <use xlink:href="#DejaVuSans-2e" transform="translate(63.623047 0)"/>
       <use xlink:href="#DejaVuSans-35" transform="translate(95.410156 0)"/>
      </g>
     </g>
    </g>
    <g id="ytick_8">
     <g id="line2d_26">
      <g>
       <use xlink:href="#m76536b7e1f" x="466.655" y="230.024175" style="stroke: #000000; stroke-width: 0.8"/>
      </g>
     </g>
     <g id="text_28">
      <!-- 1.0 -->
      <g transform="translate(443.751875 233.823394) scale(0.1 -0.1)">
       <use xlink:href="#DejaVuSans-31"/>
       <use xlink:href="#DejaVuSans-2e" transform="translate(63.623047 0)"/>
       <use xlink:href="#DejaVuSans-30" transform="translate(95.410156 0)"/>
      </g>
     </g>
    </g>
    <g id="ytick_9">
     <g id="line2d_27">
      <g>
       <use xlink:href="#m76536b7e1f" x="466.655" y="191.797244" style="stroke: #000000; stroke-width: 0.8"/>
      </g>
     </g>
     <g id="text_29">
      <!-- 1.5 -->
      <g transform="translate(443.751875 195.596462) scale(0.1 -0.1)">
       <use xlink:href="#DejaVuSans-31"/>
       <use xlink:href="#DejaVuSans-2e" transform="translate(63.623047 0)"/>
       <use xlink:href="#DejaVuSans-35" transform="translate(95.410156 0)"/>
      </g>
     </g>
    </g>
    <g id="ytick_10">
     <g id="line2d_28">
      <g>
       <use xlink:href="#m76536b7e1f" x="466.655" y="153.570312" style="stroke: #000000; stroke-width: 0.8"/>
      </g>
     </g>
     <g id="text_30">
      <!-- 2.0 -->
      <g transform="translate(443.751875 157.369531) scale(0.1 -0.1)">
       <use xlink:href="#DejaVuSans-32"/>
       <use xlink:href="#DejaVuSans-2e" transform="translate(63.623047 0)"/>
       <use xlink:href="#DejaVuSans-30" transform="translate(95.410156 0)"/>
      </g>
     </g>
    </g>
    <g id="ytick_11">
     <g id="line2d_29">
      <g>
       <use xlink:href="#m76536b7e1f" x="466.655" y="115.34338" style="stroke: #000000; stroke-width: 0.8"/>
      </g>
     </g>
     <g id="text_31">
      <!-- 2.5 -->
      <g transform="translate(443.751875 119.142599) scale(0.1 -0.1)">
       <use xlink:href="#DejaVuSans-32"/>
       <use xlink:href="#DejaVuSans-2e" transform="translate(63.623047 0)"/>
       <use xlink:href="#DejaVuSans-35" transform="translate(95.410156 0)"/>
      </g>
     </g>
    </g>
    <g id="ytick_12">
     <g id="line2d_30">
      <g>
       <use xlink:href="#m76536b7e1f" x="466.655" y="77.116448" style="stroke: #000000; stroke-width: 0.8"/>
      </g>
     </g>
     <g id="text_32">
      <!-- 3.0 -->
      <g transform="translate(443.751875 80.915667) scale(0.1 -0.1)">
       <use xlink:href="#DejaVuSans-33"/>
       <use xlink:href="#DejaVuSans-2e" transform="translate(63.623047 0)"/>
       <use xlink:href="#DejaVuSans-30" transform="translate(95.410156 0)"/>
      </g>
     </g>
    </g>
    <g id="ytick_13">
     <g id="line2d_31">
      <g>
       <use xlink:href="#m76536b7e1f" x="466.655" y="38.889517" style="stroke: #000000; stroke-width: 0.8"/>
      </g>
     </g>
     <g id="text_33">
      <!-- 3.5 -->
      <g transform="translate(443.751875 42.688735) scale(0.1 -0.1)">
       <use xlink:href="#DejaVuSans-33"/>
       <use xlink:href="#DejaVuSans-2e" transform="translate(63.623047 0)"/>
       <use xlink:href="#DejaVuSans-35" transform="translate(95.410156 0)"/>
      </g>
     </g>
    </g>
    <g id="text_34">
     <!-- $S_{xy}(k)$ -->
     <g transform="translate(436.651875 180.944) rotate(-90) scale(0.1 -0.1)">
      <defs>
       <path id="DejaVuSans-Oblique-53" d="M 3859 4513 
L 3738 3897 
Q 3422 4066 3111 4152 
Q 2800 4238 2509 4238 
Q 1944 4238 1609 3991 
Q 1275 3744 1275 3334 
Q 1275 3109 1398 2989 
Q 1522 2869 2034 2731 
L 2413 2638 
Q 3053 2472 3303 2217 
Q 3553 1963 3553 1503 
Q 3553 797 2998 353 
Q 2444 -91 1538 -91 
Q 1166 -91 791 -17 
Q 416 56 38 206 
L 166 856 
Q 513 641 861 531 
Q 1209 422 1556 422 
Q 2147 422 2503 684 
Q 2859 947 2859 1369 
Q 2859 1650 2717 1795 
Q 2575 1941 2106 2059 
L 1728 2156 
Q 1081 2325 845 2545 
Q 609 2766 609 3163 
Q 609 3859 1145 4304 
Q 1681 4750 2541 4750 
Q 2875 4750 3203 4690 
Q 3531 4631 3859 4513 
z
" transform="scale(0.015625)"/>
      </defs>
      <use xlink:href="#DejaVuSans-Oblique-53" transform="translate(0 0.015625)"/>
      <use xlink:href="#DejaVuSans-Oblique-78" transform="translate(63.476562 -16.390625) scale(0.7)"/>
      <use xlink:href="#DejaVuSans-Oblique-79" transform="translate(104.902344 -16.390625) scale(0.7)"/>
      <use xlink:href="#DejaVuSans-28" transform="translate(149.0625 0.015625)"/>
      <use xlink:href="#DejaVuSans-Oblique-6b" transform="translate(188.076172 0.015625)"/>
      <use xlink:href="#DejaVuSans-29" transform="translate(245.986328 0.015625)"/>
     </g>
    </g>
   </g>
   <g id="line2d_32">
    <path d="M 483.980523 282.291615 
L 491.081294 264.946486 
L 501.1233 130.514369 
L 505.170161 265.727235 
L 515.324843 240.126275 
L 518.266078 262.375728 
L 521.047968 280.9197 
L 528.646909 276.661097 
L 535.408856 260.323257 
L 537.519228 250.89277 
L 539.568391 297.943091 
L 543.502578 285.778777 
L 552.551634 225.379511 
L 554.249103 284.343763 
L 559.154428 158.577335 
L 563.81194 245.146098 
L 566.796457 237.285371 
L 569.694412 131.453505 
L 571.113191 35.444909 
L 575.258191 230.726534 
L 576.605081 245.690852 
L 581.834994 246.130165 
L 586.837189 175.010773 
L 588.055489 258.966993 
L 590.456073 210.245823 
L 591.639051 196.621291 
L 597.393251 245.381699 
L 600.727119 200.839715 
L 603.979967 180.908869 
L 605.047238 267.027396 
L 608.200712 265.93632 
L 612.299038 210.882464 
L 613.305702 239.43195 
L 614.305495 265.98482 
L 620.167411 261.890458 
L 621.122745 250.943034 
L 622.0722 245.275908 
L 624.886347 246.613505 
L 628.562387 245.201992 
L 629.468414 270.505008 
L 635.674525 268.382397 
L 636.542587 247.170763 
L 638.265523 211.227793 
L 639.120529 218.768987 
L 641.660462 217.659501 
L 643.333444 196.920988 
L 645.813599 275.520854 
L 649.067972 240.460102 
L 651.471112 281.425957 
L 652.265238 262.854027 
L 655.4083 240.044035 
L 656.185914 163.501303 
L 658.499827 218.175877 
L 660.786135 259.292102 
L 662.295484 252.029071 
L 666.75517 173.475023 
L 667.488814 277.262009 
L 672.551078 231.052917 
L 673.264125 227.686065 
L 673.974717 255.334549 
L 675.388637 180.328487 
L 676.092015 243.723758 
L 678.882195 242.993007 
L 681.636135 173.697723 
L 683.678638 147.674133 
L 685.029684 241.659338 
L 686.372417 191.685348 
L 689.693856 220.856264 
L 690.352221 238.048549 
L 692.315783 229.065018 
L 695.550927 175.391025 
L 696.832243 271.12786 
L 697.470232 271.327155 
L 700.004731 213.687655 
L 704.992825 270.637515 
L 705.60901 197.339422 
L 706.836634 193.494842 
L 707.448097 199.752412 
L 709.273233 223.545209 
L 710.482395 273.636749 
L 712.28497 207.351976 
L 714.074402 261.365721 
L 716.440357 269.227197 
L 719.947825 169.719023 
L 721.683458 239.551602 
L 723.979412 239.128763 
L 724.550204 230.416128 
L 726.255046 224.836986 
L 727.948757 178.376112 
L 728.510891 146.772756 
L 729.07182 161.13591 
L 732.965222 200.215145 
L 733.516782 286.264316 
L 734.616494 271.602458 
L 735.16466 273.665568 
L 737.888861 225.165071 
L 743.256731 203.808858 
L 743.787796 216.846292 
L 745.901949 134.683325 
L 748.000206 232.402004 
L 750.601209 261.090216 
L 752.150429 182.944092 
L 757.760331 294.472867 
L 758.264967 273.585752 
L 758.768731 205.289455 
L 761.773246 250.916576 
L 766.713883 184.272999 
L 770.124444 211.369647 
L 772.056226 245.050407 
L 775.883566 228.172941 
L 782.00388 149.340646 
L 782.934948 267.538291 
L 785.711844 141.63007 
L 794.350054 247.620106 
L 796.139753 214.787924 
L 806.247428 170.931979 
L 807.112168 185.306757 
L 818.578137 188.109296 
L 830.490977 195.152743 
" clip-path="url(#pe0fa15769c)" style="fill: none; stroke: #1f77b4; stroke-width: 1.5; stroke-linecap: square"/>
   </g>
   <g id="line2d_33">
    <path d="M 466.655 230.024175 
L 847.8165 230.024175 
" clip-path="url(#pe0fa15769c)" style="fill: none; stroke-dasharray: 5.55,2.4; stroke-dashoffset: 0; stroke: #000000; stroke-opacity: 0.4; stroke-width: 1.5"/>
   </g>
   <g id="patch_8">
    <path d="M 466.655 311.068 
L 466.655 22.32 
" style="fill: none; stroke: #000000; stroke-width: 0.8; stroke-linejoin: miter; stroke-linecap: square"/>
   </g>
   <g id="patch_9">
    <path d="M 847.8165 311.068 
L 847.8165 22.32 
" style="fill: none; stroke: #000000; stroke-width: 0.8; stroke-linejoin: miter; stroke-linecap: square"/>
   </g>
   <g id="patch_10">
    <path d="M 466.655 311.068 
L 847.8165 311.068 
" style="fill: none; stroke: #000000; stroke-width: 0.8; stroke-linejoin: miter; stroke-linecap: square"/>
   </g>
   <g id="patch_11">
    <path d="M 466.655 22.32 
L 847.8165 22.32 
" style="fill: none; stroke: #000000; stroke-width: 0.8; stroke-linejoin: miter; stroke-linecap: square"/>
   </g>
   <g id="text_35">
    <!-- offset=0.00 - $S_{xy}(k)$ -->
    <g transform="translate(598.67575 16.32) scale(0.12 -0.12)">
     <use xlink:href="#DejaVuSans-6f" transform="translate(0 0.015625)"/>
     <use xlink:href="#DejaVuSans-66" transform="translate(61.181641 0.015625)"/>
     <use xlink:href="#DejaVuSans-66" transform="translate(96.386719 0.015625)"/>
     <use xlink:href="#DejaVuSans-73" transform="translate(131.591797 0.015625)"/>
     <use xlink:href="#DejaVuSans-65" transform="translate(183.691406 0.015625)"/>
     <use xlink:href="#DejaVuSans-74" transform="translate(245.214844 0.015625)"/>
     <use xlink:href="#DejaVuSans-3d" transform="translate(284.423828 0.015625)"/>
     <use xlink:href="#DejaVuSans-30" transform="translate(368.212891 0.015625)"/>
     <use xlink:href="#DejaVuSans-2e" transform="translate(431.835938 0.015625)"/>
     <use xlink:href="#DejaVuSans-30" transform="translate(463.623047 0.015625)"/>
     <use xlink:href="#DejaVuSans-30" transform="translate(527.246094 0.015625)"/>
     <use xlink:href="#DejaVuSans-20" transform="translate(590.869141 0.015625)"/>
     <use xlink:href="#DejaVuSans-2d" transform="translate(622.65625 0.015625)"/>
     <use xlink:href="#DejaVuSans-20" transform="translate(658.740234 0.015625)"/>
     <use xlink:href="#DejaVuSans-Oblique-53" transform="translate(690.527344 0.015625)"/>
     <use xlink:href="#DejaVuSans-Oblique-78" transform="translate(754.003906 -16.390625) scale(0.7)"/>
     <use xlink:href="#DejaVuSans-Oblique-79" transform="translate(795.429688 -16.390625) scale(0.7)"/>
     <use xlink:href="#DejaVuSans-28" transform="translate(839.589844 0.015625)"/>
     <use xlink:href="#DejaVuSans-Oblique-6b" transform="translate(878.603516 0.015625)"/>
     <use xlink:href="#DejaVuSans-29" transform="translate(936.513672 0.015625)"/>
    </g>
   </g>
  </g>
 </g>
 <defs>
  <clipPath id="pcb19a355ed">
   <rect x="35.2625" y="22.32" width="381.1615" height="288.748"/>
  </clipPath>
  <clipPath id="pe0fa15769c">
   <rect x="466.655" y="22.32" width="381.1615" height="288.748"/>
  </clipPath>
 </defs>
</svg>
