<?xml version="1.0" encoding="utf-8" standalone="no"?>
<!DOCTYPE svg PUBLIC "-//W3C//DTD SVG 1.1//EN"
  "http://www.w3.org/Graphics/SVG/1.1/DTD/svg11.dtd">
<svg xmlns:xlink="http://www.w3.org/1999/xlink" width="854.908125pt" height="350.018125pt" viewBox="0 0 854.908125 350.018125" xmlns="http://www.w3.org/2000/svg" version="1.1">
 <metadata>
  <rdf:RDF xmlns:dc="http://purl.org/dc/elements/1.1/" xmlns:cc="http://creativecommons.org/ns#" xmlns:rdf="http://www.w3.org/1999/02/22-rdf-syntax-ns#">
   <cc:Work>
    <dc:type rdf:resource="http://purl.org/dc/dcmitype/StillImage"/>
    <dc:date>2025-12-10T14:46:25.417408</dc:date>
    <dc:format>image/svg+xml</dc:format>
    <dc:creator>
     <cc:Agent>
      <dc:title>Matplotlib v3.10.1, https://matplotlib.org/</dc:title>
     </cc:Agent>
    </dc:creator>
   </cc:Work>
  </rdf:RDF>
 </metadata>
 <defs>
  <style type="text/css">*{stroke-linejoin: round; stroke-linecap: butt}</style>
 </defs>
 <g id="figure_1">
  <g id="patch_1">
   <path d="M 0 350.018125 
L 854.908125 350.018125 
L 854.908125 0 
L 0 0 
z
" style="fill: #ffffff"/>
  </g>
  <g id="axes_1">
   <g id="patch_2">
    <path d="M 43.803125 312.04 
L 421.648125 312.04 
L 421.648125 22.32 
L 43.803125 22.32 
z
" style="fill: #ffffff"/>
   </g>
   <g id="matplotlib.axis_1">
    <g id="xtick_1">
     <g id="line2d_1">
      <defs>
       <path id="m127a8d7e33" d="M 0 0 
L 0 3.5 
" style="stroke: #000000; stroke-width: 0.8"/>
      </defs>
      <g>
       <use xlink:href="#m127a8d7e33" x="60.114844" y="312.04" style="stroke: #000000; stroke-width: 0.8"/>
      </g>
     </g>
     <g id="text_1">
      <!-- 0.0 -->
      <g transform="translate(52.163281 326.638438) scale(0.1 -0.1)">
       <defs>
        <path id="DejaVuSans-30" d="M 2034 4250 
Q 1547 4250 1301 3770 
Q 1056 3291 1056 2328 
Q 1056 1369 1301 889 
Q 1547 409 2034 409 
Q 2525 409 2770 889 
Q 3016 1369 3016 2328 
Q 3016 3291 2770 3770 
Q 2525 4250 2034 4250 
z
M 2034 4750 
Q 2819 4750 3233 4129 
Q 3647 3509 3647 2328 
Q 3647 1150 3233 529 
Q 2819 -91 2034 -91 
Q 1250 -91 836 529 
Q 422 1150 422 2328 
Q 422 3509 836 4129 
Q 1250 4750 2034 4750 
z
" transform="scale(0.015625)"/>
        <path id="DejaVuSans-2e" d="M 684 794 
L 1344 794 
L 1344 0 
L 684 0 
L 684 794 
z
" transform="scale(0.015625)"/>
       </defs>
       <use xlink:href="#DejaVuSans-30"/>
       <use xlink:href="#DejaVuSans-2e" transform="translate(63.623047 0)"/>
       <use xlink:href="#DejaVuSans-30" transform="translate(95.410156 0)"/>
      </g>
     </g>
    </g>
    <g id="xtick_2">
     <g id="line2d_2">
      <g>
       <use xlink:href="#m127a8d7e33" x="103.267539" y="312.04" style="stroke: #000000; stroke-width: 0.8"/>
      </g>
     </g>
     <g id="text_2">
      <!-- 0.5 -->
      <g transform="translate(95.315977 326.638438) scale(0.1 -0.1)">
       <defs>
        <path id="DejaVuSans-35" d="M 691 4666 
L 3169 4666 
L 3169 4134 
L 1269 4134 
L 1269 2991 
Q 1406 3038 1543 3061 
Q 1681 3084 1819 3084 
Q 2600 3084 3056 2656 
Q 3513 2228 3513 1497 
Q 3513 744 3044 326 
Q 2575 -91 1722 -91 
Q 1428 -91 1123 -41 
Q 819 9 494 109 
L 494 744 
Q 775 591 1075 516 
Q 1375 441 1709 441 
Q 2250 441 2565 725 
Q 2881 1009 2881 1497 
Q 2881 1984 2565 2268 
Q 2250 2553 1709 2553 
Q 1456 2553 1204 2497 
Q 953 2441 691 2322 
L 691 4666 
z
" transform="scale(0.015625)"/>
       </defs>
       <use xlink:href="#DejaVuSans-30"/>
       <use xlink:href="#DejaVuSans-2e" transform="translate(63.623047 0)"/>
       <use xlink:href="#DejaVuSans-35" transform="translate(95.410156 0)"/>
      </g>
     </g>
    </g>
    <g id="xtick_3">
     <g id="line2d_3">
      <g>
       <use xlink:href="#m127a8d7e33" x="146.420234" y="312.04" style="stroke: #000000; stroke-width: 0.8"/>
      </g>
     </g>
     <g id="text_3">
      <!-- 1.0 -->
      <g transform="translate(138.468672 326.638438) scale(0.1 -0.1)">
       <defs>
        <path id="DejaVuSans-31" d="M 794 531 
L 1825 531 
L 1825 4091 
L 703 3866 
L 703 4441 
L 1819 4666 
L 2450 4666 
L 2450 531 
L 3481 531 
L 3481 0 
L 794 0 
L 794 531 
z
" transform="scale(0.015625)"/>
       </defs>
       <use xlink:href="#DejaVuSans-31"/>
       <use xlink:href="#DejaVuSans-2e" transform="translate(63.623047 0)"/>
       <use xlink:href="#DejaVuSans-30" transform="translate(95.410156 0)"/>
      </g>
     </g>
    </g>
    <g id="xtick_4">
     <g id="line2d_4">
      <g>
       <use xlink:href="#m127a8d7e33" x="189.57293" y="312.04" style="stroke: #000000; stroke-width: 0.8"/>
      </g>
     </g>
     <g id="text_4">
      <!-- 1.5 -->
      <g transform="translate(181.621367 326.638438) scale(0.1 -0.1)">
       <use xlink:href="#DejaVuSans-31"/>
       <use xlink:href="#DejaVuSans-2e" transform="translate(63.623047 0)"/>
       <use xlink:href="#DejaVuSans-35" transform="translate(95.410156 0)"/>
      </g>
     </g>
    </g>
    <g id="xtick_5">
     <g id="line2d_5">
      <g>
       <use xlink:href="#m127a8d7e33" x="232.725625" y="312.04" style="stroke: #000000; stroke-width: 0.8"/>
      </g>
     </g>
     <g id="text_5">
      <!-- 2.0 -->
      <g transform="translate(224.774063 326.638438) scale(0.1 -0.1)">
       <defs>
        <path id="DejaVuSans-32" d="M 1228 531 
L 3431 531 
L 3431 0 
L 469 0 
L 469 531 
Q 828 903 1448 1529 
Q 2069 2156 2228 2338 
Q 2531 2678 2651 2914 
Q 2772 3150 2772 3378 
Q 2772 3750 2511 3984 
Q 2250 4219 1831 4219 
Q 1534 4219 1204 4116 
Q 875 4013 500 3803 
L 500 4441 
Q 881 4594 1212 4672 
Q 1544 4750 1819 4750 
Q 2544 4750 2975 4387 
Q 3406 4025 3406 3419 
Q 3406 3131 3298 2873 
Q 3191 2616 2906 2266 
Q 2828 2175 2409 1742 
Q 1991 1309 1228 531 
z
" transform="scale(0.015625)"/>
       </defs>
       <use xlink:href="#DejaVuSans-32"/>
       <use xlink:href="#DejaVuSans-2e" transform="translate(63.623047 0)"/>
       <use xlink:href="#DejaVuSans-30" transform="translate(95.410156 0)"/>
      </g>
     </g>
    </g>
    <g id="xtick_6">
     <g id="line2d_6">
      <g>
       <use xlink:href="#m127a8d7e33" x="275.87832" y="312.04" style="stroke: #000000; stroke-width: 0.8"/>
      </g>
     </g>
     <g id="text_6">
      <!-- 2.5 -->
      <g transform="translate(267.926758 326.638438) scale(0.1 -0.1)">
       <use xlink:href="#DejaVuSans-32"/>
       <use xlink:href="#DejaVuSans-2e" transform="translate(63.623047 0)"/>
       <use xlink:href="#DejaVuSans-35" transform="translate(95.410156 0)"/>
      </g>
     </g>
    </g>
    <g id="xtick_7">
     <g id="line2d_7">
      <g>
       <use xlink:href="#m127a8d7e33" x="319.031016" y="312.04" style="stroke: #000000; stroke-width: 0.8"/>
      </g>
     </g>
     <g id="text_7">
      <!-- 3.0 -->
      <g transform="translate(311.079453 326.638438) scale(0.1 -0.1)">
       <defs>
        <path id="DejaVuSans-33" d="M 2597 2516 
Q 3050 2419 3304 2112 
Q 3559 1806 3559 1356 
Q 3559 666 3084 287 
Q 2609 -91 1734 -91 
Q 1441 -91 1130 -33 
Q 819 25 488 141 
L 488 750 
Q 750 597 1062 519 
Q 1375 441 1716 441 
Q 2309 441 2620 675 
Q 2931 909 2931 1356 
Q 2931 1769 2642 2001 
Q 2353 2234 1838 2234 
L 1294 2234 
L 1294 2753 
L 1863 2753 
Q 2328 2753 2575 2939 
Q 2822 3125 2822 3475 
Q 2822 3834 2567 4026 
Q 2313 4219 1838 4219 
Q 1578 4219 1281 4162 
Q 984 4106 628 3988 
L 628 4550 
Q 988 4650 1302 4700 
Q 1616 4750 1894 4750 
Q 2613 4750 3031 4423 
Q 3450 4097 3450 3541 
Q 3450 3153 3228 2886 
Q 3006 2619 2597 2516 
z
" transform="scale(0.015625)"/>
       </defs>
       <use xlink:href="#DejaVuSans-33"/>
       <use xlink:href="#DejaVuSans-2e" transform="translate(63.623047 0)"/>
       <use xlink:href="#DejaVuSans-30" transform="translate(95.410156 0)"/>
      </g>
     </g>
    </g>
    <g id="xtick_8">
     <g id="line2d_8">
      <g>
       <use xlink:href="#m127a8d7e33" x="362.183711" y="312.04" style="stroke: #000000; stroke-width: 0.8"/>
      </g>
     </g>
     <g id="text_8">
      <!-- 3.5 -->
      <g transform="translate(354.232148 326.638438) scale(0.1 -0.1)">
       <use xlink:href="#DejaVuSans-33"/>
       <use xlink:href="#DejaVuSans-2e" transform="translate(63.623047 0)"/>
       <use xlink:href="#DejaVuSans-35" transform="translate(95.410156 0)"/>
      </g>
     </g>
    </g>
    <g id="xtick_9">
     <g id="line2d_9">
      <g>
       <use xlink:href="#m127a8d7e33" x="405.336406" y="312.04" style="stroke: #000000; stroke-width: 0.8"/>
      </g>
     </g>
     <g id="text_9">
      <!-- 4.0 -->
      <g transform="translate(397.384844 326.638438) scale(0.1 -0.1)">
       <defs>
        <path id="DejaVuSans-34" d="M 2419 4116 
L 825 1625 
L 2419 1625 
L 2419 4116 
z
M 2253 4666 
L 3047 4666 
L 3047 1625 
L 3713 1625 
L 3713 1100 
L 3047 1100 
L 3047 0 
L 2419 0 
L 2419 1100 
L 313 1100 
L 313 1709 
L 2253 4666 
z
" transform="scale(0.015625)"/>
       </defs>
       <use xlink:href="#DejaVuSans-34"/>
       <use xlink:href="#DejaVuSans-2e" transform="translate(63.623047 0)"/>
       <use xlink:href="#DejaVuSans-30" transform="translate(95.410156 0)"/>
      </g>
     </g>
    </g>
    <g id="text_10">
     <!-- $r$ -->
     <g transform="translate(230.625625 340.316562) scale(0.1 -0.1)">
      <defs>
       <path id="DejaVuSans-Oblique-72" d="M 2853 2969 
Q 2766 3016 2653 3041 
Q 2541 3066 2413 3066 
Q 1953 3066 1609 2717 
Q 1266 2369 1153 1784 
L 800 0 
L 225 0 
L 909 3500 
L 1484 3500 
L 1375 2956 
Q 1603 3259 1920 3421 
Q 2238 3584 2597 3584 
Q 2691 3584 2781 3573 
Q 2872 3563 2963 3538 
L 2853 2969 
z
" transform="scale(0.015625)"/>
      </defs>
      <use xlink:href="#DejaVuSans-Oblique-72"/>
     </g>
    </g>
   </g>
   <g id="matplotlib.axis_2">
    <g id="ytick_1">
     <g id="line2d_10">
      <defs>
       <path id="m4d6513b8bd" d="M 0 0 
L -3.5 0 
" style="stroke: #000000; stroke-width: 0.8"/>
      </defs>
      <g>
       <use xlink:href="#m4d6513b8bd" x="43.803125" y="312.04" style="stroke: #000000; stroke-width: 0.8"/>
      </g>
     </g>
     <g id="text_11">
      <!-- 0.0 -->
      <g transform="translate(20.9 315.839219) scale(0.1 -0.1)">
       <use xlink:href="#DejaVuSans-30"/>
       <use xlink:href="#DejaVuSans-2e" transform="translate(63.623047 0)"/>
       <use xlink:href="#DejaVuSans-30" transform="translate(95.410156 0)"/>
      </g>
     </g>
    </g>
    <g id="ytick_2">
     <g id="line2d_11">
      <g>
       <use xlink:href="#m4d6513b8bd" x="43.803125" y="254.096" style="stroke: #000000; stroke-width: 0.8"/>
      </g>
     </g>
     <g id="text_12">
      <!-- 0.5 -->
      <g transform="translate(20.9 257.895219) scale(0.1 -0.1)">
       <use xlink:href="#DejaVuSans-30"/>
       <use xlink:href="#DejaVuSans-2e" transform="translate(63.623047 0)"/>
       <use xlink:href="#DejaVuSans-35" transform="translate(95.410156 0)"/>
      </g>
     </g>
    </g>
    <g id="ytick_3">
     <g id="line2d_12">
      <g>
       <use xlink:href="#m4d6513b8bd" x="43.803125" y="196.152" style="stroke: #000000; stroke-width: 0.8"/>
      </g>
     </g>
     <g id="text_13">
      <!-- 1.0 -->
      <g transform="translate(20.9 199.951219) scale(0.1 -0.1)">
       <use xlink:href="#DejaVuSans-31"/>
       <use xlink:href="#DejaVuSans-2e" transform="translate(63.623047 0)"/>
       <use xlink:href="#DejaVuSans-30" transform="translate(95.410156 0)"/>
      </g>
     </g>
    </g>
    <g id="ytick_4">
     <g id="line2d_13">
      <g>
       <use xlink:href="#m4d6513b8bd" x="43.803125" y="138.208" style="stroke: #000000; stroke-width: 0.8"/>
      </g>
     </g>
     <g id="text_14">
      <!-- 1.5 -->
      <g transform="translate(20.9 142.007219) scale(0.1 -0.1)">
       <use xlink:href="#DejaVuSans-31"/>
       <use xlink:href="#DejaVuSans-2e" transform="translate(63.623047 0)"/>
       <use xlink:href="#DejaVuSans-35" transform="translate(95.410156 0)"/>
      </g>
     </g>
    </g>
    <g id="ytick_5">
     <g id="line2d_14">
      <g>
       <use xlink:href="#m4d6513b8bd" x="43.803125" y="80.264" style="stroke: #000000; stroke-width: 0.8"/>
      </g>
     </g>
     <g id="text_15">
      <!-- 2.0 -->
      <g transform="translate(20.9 84.063219) scale(0.1 -0.1)">
       <use xlink:href="#DejaVuSans-32"/>
       <use xlink:href="#DejaVuSans-2e" transform="translate(63.623047 0)"/>
       <use xlink:href="#DejaVuSans-30" transform="translate(95.410156 0)"/>
      </g>
     </g>
    </g>
    <g id="ytick_6">
     <g id="line2d_15">
      <g>
       <use xlink:href="#m4d6513b8bd" x="43.803125" y="22.32" style="stroke: #000000; stroke-width: 0.8"/>
      </g>
     </g>
     <g id="text_16">
      <!-- 2.5 -->
      <g transform="translate(20.9 26.119219) scale(0.1 -0.1)">
       <use xlink:href="#DejaVuSans-32"/>
       <use xlink:href="#DejaVuSans-2e" transform="translate(63.623047 0)"/>
       <use xlink:href="#DejaVuSans-35" transform="translate(95.410156 0)"/>
      </g>
     </g>
    </g>
    <g id="text_17">
     <!-- $g(r)$ -->
     <g transform="translate(14.8 176.33) rotate(-90) scale(0.1 -0.1)">
      <defs>
       <path id="DejaVuSans-Oblique-67" d="M 3816 3500 
L 3219 434 
Q 3047 -456 2561 -893 
Q 2075 -1331 1253 -1331 
Q 950 -1331 690 -1286 
Q 431 -1241 206 -1147 
L 313 -588 
Q 525 -725 762 -790 
Q 1000 -856 1269 -856 
Q 1816 -856 2167 -557 
Q 2519 -259 2631 300 
L 2681 563 
Q 2441 288 2122 144 
Q 1803 0 1434 0 
Q 903 0 598 351 
Q 294 703 294 1319 
Q 294 1803 478 2267 
Q 663 2731 997 3091 
Q 1219 3328 1514 3456 
Q 1809 3584 2131 3584 
Q 2484 3584 2746 3420 
Q 3009 3256 3138 2956 
L 3238 3500 
L 3816 3500 
z
M 2950 2216 
Q 2950 2641 2750 2872 
Q 2550 3103 2181 3103 
Q 1953 3103 1747 3012 
Q 1541 2922 1394 2759 
Q 1156 2491 1023 2127 
Q 891 1763 891 1375 
Q 891 944 1092 712 
Q 1294 481 1672 481 
Q 2219 481 2584 976 
Q 2950 1472 2950 2216 
z
" transform="scale(0.015625)"/>
       <path id="DejaVuSans-28" d="M 1984 4856 
Q 1566 4138 1362 3434 
Q 1159 2731 1159 2009 
Q 1159 1288 1364 580 
Q 1569 -128 1984 -844 
L 1484 -844 
Q 1016 -109 783 600 
Q 550 1309 550 2009 
Q 550 2706 781 3412 
Q 1013 4119 1484 4856 
L 1984 4856 
z
" transform="scale(0.015625)"/>
       <path id="DejaVuSans-29" d="M 513 4856 
L 1013 4856 
Q 1481 4119 1714 3412 
Q 1947 2706 1947 2009 
Q 1947 1309 1714 600 
Q 1481 -109 1013 -844 
L 513 -844 
Q 928 -128 1133 580 
Q 1338 1288 1338 2009 
Q 1338 2731 1133 3434 
Q 928 4138 513 4856 
z
" transform="scale(0.015625)"/>
      </defs>
      <use xlink:href="#DejaVuSans-Oblique-67" transform="translate(0 0.125)"/>
      <use xlink:href="#DejaVuSans-28" transform="translate(63.476562 0.125)"/>
      <use xlink:href="#DejaVuSans-Oblique-72" transform="translate(102.490234 0.125)"/>
      <use xlink:href="#DejaVuSans-29" transform="translate(143.603516 0.125)"/>
     </g>
    </g>
   </g>
   <g id="line2d_16">
    <path d="M 60.977898 312.04 
L 138.652749 312.04 
L 140.378857 282.232311 
L 142.104965 273.952152 
L 143.831073 238.973076 
L 145.557181 276.967678 
L 147.283288 227.797208 
L 149.009396 231.036908 
L 150.735504 124.967821 
L 152.461612 199.449758 
L 154.18772 225.242792 
L 155.913827 179.518731 
L 157.639935 163.977817 
L 159.366043 201.573146 
L 161.092151 180.206225 
L 162.818259 117.846127 
L 164.544366 159.430204 
L 166.270474 204.114641 
L 167.996582 174.540725 
L 169.72269 226.790222 
L 171.448798 141.621981 
L 173.174905 231.916733 
L 174.901013 214.875366 
L 176.627121 203.586881 
L 178.353229 234.202341 
L 180.079337 205.290994 
L 181.805445 195.330032 
L 183.531552 240.597037 
L 185.25766 242.554254 
L 186.983768 188.755063 
L 188.709876 242.364011 
L 190.435984 214.045253 
L 192.162091 245.959526 
L 193.888199 226.191737 
L 195.614307 249.283745 
L 197.340415 223.658155 
L 199.066523 245.732546 
L 200.79263 227.942636 
L 202.518738 233.125557 
L 204.244846 231.922958 
L 205.970954 248.852597 
L 207.697062 253.260956 
L 209.42317 271.840497 
L 211.149277 253.111123 
L 212.875385 216.032186 
L 214.601493 250.351111 
L 216.327601 238.590955 
L 218.053709 240.18761 
L 219.779816 251.776653 
L 221.505924 221.110655 
L 223.232032 254.300466 
L 224.95814 269.637497 
L 228.410355 226.158374 
L 230.136463 234.536458 
L 231.862571 223.065872 
L 233.588679 256.734625 
L 235.314787 249.477318 
L 237.040895 230.242785 
L 238.767002 209.754094 
L 240.49311 237.278604 
L 242.219218 213.595444 
L 243.945326 232.483332 
L 245.671434 230.238302 
L 247.397541 229.914191 
L 249.123649 242.158366 
L 250.849757 234.619699 
L 252.575865 225.633372 
L 254.301973 233.95284 
L 256.02808 213.641794 
L 257.754188 210.436737 
L 259.480296 234.735592 
L 261.206404 237.639982 
L 262.932512 238.900969 
L 264.65862 230.950188 
L 266.384727 233.806151 
L 268.110835 205.506644 
L 269.836943 233.449789 
L 271.563051 216.115418 
L 273.289159 230.340122 
L 275.015266 237.191617 
L 276.741374 253.384545 
L 278.467482 223.428452 
L 280.19359 231.421087 
L 281.919698 235.273231 
L 283.645805 224.924202 
L 285.371913 245.177529 
L 287.098021 242.463252 
L 288.824129 249.628293 
L 290.550237 227.655404 
L 292.276345 238.406606 
L 294.002452 232.468407 
L 295.72856 234.783104 
L 297.454668 238.175503 
L 299.180776 242.598362 
L 300.906884 222.613868 
L 302.632991 232.589236 
L 304.359099 230.489129 
L 306.085207 231.629682 
L 307.811315 242.136496 
L 309.537423 248.245394 
L 311.26353 239.985625 
L 312.989638 227.952382 
L 314.715746 247.851481 
L 316.441854 229.227847 
L 318.167962 232.254534 
L 319.894069 245.642284 
L 321.620177 240.899576 
L 323.346285 235.362746 
L 325.072393 226.328468 
L 326.798501 228.334467 
L 328.524609 235.627243 
L 330.250716 233.091834 
L 331.976824 233.225066 
L 333.702932 218.822763 
L 335.42904 231.811161 
L 337.155148 243.650083 
L 338.881255 237.904577 
L 340.607363 229.050763 
L 342.333471 238.903491 
L 344.059579 242.965808 
L 345.785687 233.60094 
L 347.511794 222.915366 
L 349.237902 240.823318 
L 350.96401 235.612441 
L 352.690118 232.024741 
L 354.416226 237.394942 
L 356.142334 238.262898 
L 357.868441 231.173563 
L 359.594549 232.103052 
L 363.046765 225.544011 
L 364.772873 234.107688 
L 366.49898 243.84825 
L 368.225088 234.495685 
L 369.951196 229.356023 
L 371.677304 236.204594 
L 373.403412 246.820819 
L 375.129519 221.085961 
L 376.855627 231.007319 
L 378.581735 239.457197 
L 380.307843 240.862018 
L 382.033951 223.710245 
L 383.760059 254.594769 
L 385.486166 244.318901 
L 387.212274 254.604356 
L 388.938382 236.261027 
L 390.66449 245.83823 
L 392.390598 248.263609 
L 394.116705 244.330625 
L 395.842813 252.975998 
L 397.568921 255.827199 
L 399.295029 248.051564 
L 401.021137 251.451911 
L 402.747244 255.877687 
L 404.473352 259.138368 
L 404.473352 259.138368 
" clip-path="url(#p8527ef672a)" style="fill: none; stroke: #1f77b4; stroke-width: 1.5; stroke-linecap: square"/>
   </g>
   <g id="line2d_17">
    <path d="M 43.803125 196.152 
L 421.648125 196.152 
" clip-path="url(#p8527ef672a)" style="fill: none; stroke-dasharray: 5.55,2.4; stroke-dashoffset: 0; stroke: #000000; stroke-opacity: 0.4; stroke-width: 1.5"/>
   </g>
   <g id="patch_3">
    <path d="M 43.803125 312.04 
L 43.803125 22.32 
" style="fill: none; stroke: #000000; stroke-width: 0.8; stroke-linejoin: miter; stroke-linecap: square"/>
   </g>
   <g id="patch_4">
    <path d="M 421.648125 312.04 
L 421.648125 22.32 
" style="fill: none; stroke: #000000; stroke-width: 0.8; stroke-linejoin: miter; stroke-linecap: square"/>
   </g>
   <g id="patch_5">
    <path d="M 43.803125 312.04 
L 421.648125 312.04 
" style="fill: none; stroke: #000000; stroke-width: 0.8; stroke-linejoin: miter; stroke-linecap: square"/>
   </g>
   <g id="patch_6">
    <path d="M 43.803125 22.32 
L 421.648125 22.32 
" style="fill: none; stroke: #000000; stroke-width: 0.8; stroke-linejoin: miter; stroke-linecap: square"/>
   </g>
   <g id="text_18">
    <!-- SLAB - 3D $g(r)$ -->
    <g transform="translate(190.305625 16.32) scale(0.12 -0.12)">
     <defs>
      <path id="DejaVuSans-53" d="M 3425 4513 
L 3425 3897 
Q 3066 4069 2747 4153 
Q 2428 4238 2131 4238 
Q 1616 4238 1336 4038 
Q 1056 3838 1056 3469 
Q 1056 3159 1242 3001 
Q 1428 2844 1947 2747 
L 2328 2669 
Q 3034 2534 3370 2195 
Q 3706 1856 3706 1288 
Q 3706 609 3251 259 
Q 2797 -91 1919 -91 
Q 1588 -91 1214 -16 
Q 841 59 441 206 
L 441 856 
Q 825 641 1194 531 
Q 1563 422 1919 422 
Q 2459 422 2753 634 
Q 3047 847 3047 1241 
Q 3047 1584 2836 1778 
Q 2625 1972 2144 2069 
L 1759 2144 
Q 1053 2284 737 2584 
Q 422 2884 422 3419 
Q 422 4038 858 4394 
Q 1294 4750 2059 4750 
Q 2388 4750 2728 4690 
Q 3069 4631 3425 4513 
z
" transform="scale(0.015625)"/>
      <path id="DejaVuSans-4c" d="M 628 4666 
L 1259 4666 
L 1259 531 
L 3531 531 
L 3531 0 
L 628 0 
L 628 4666 
z
" transform="scale(0.015625)"/>
      <path id="DejaVuSans-41" d="M 2188 4044 
L 1331 1722 
L 3047 1722 
L 2188 4044 
z
M 1831 4666 
L 2547 4666 
L 4325 0 
L 3669 0 
L 3244 1197 
L 1141 1197 
L 716 0 
L 50 0 
L 1831 4666 
z
" transform="scale(0.015625)"/>
      <path id="DejaVuSans-42" d="M 1259 2228 
L 1259 519 
L 2272 519 
Q 2781 519 3026 730 
Q 3272 941 3272 1375 
Q 3272 1813 3026 2020 
Q 2781 2228 2272 2228 
L 1259 2228 
z
M 1259 4147 
L 1259 2741 
L 2194 2741 
Q 2656 2741 2882 2914 
Q 3109 3088 3109 3444 
Q 3109 3797 2882 3972 
Q 2656 4147 2194 4147 
L 1259 4147 
z
M 628 4666 
L 2241 4666 
Q 2963 4666 3353 4366 
Q 3744 4066 3744 3513 
Q 3744 3084 3544 2831 
Q 3344 2578 2956 2516 
Q 3422 2416 3680 2098 
Q 3938 1781 3938 1306 
Q 3938 681 3513 340 
Q 3088 0 2303 0 
L 628 0 
L 628 4666 
z
" transform="scale(0.015625)"/>
      <path id="DejaVuSans-20" transform="scale(0.015625)"/>
      <path id="DejaVuSans-2d" d="M 313 2009 
L 1997 2009 
L 1997 1497 
L 313 1497 
L 313 2009 
z
" transform="scale(0.015625)"/>
      <path id="DejaVuSans-44" d="M 1259 4147 
L 1259 519 
L 2022 519 
Q 2988 519 3436 956 
Q 3884 1394 3884 2338 
Q 3884 3275 3436 3711 
Q 2988 4147 2022 4147 
L 1259 4147 
z
M 628 4666 
L 1925 4666 
Q 3281 4666 3915 4102 
Q 4550 3538 4550 2338 
Q 4550 1131 3912 565 
Q 3275 0 1925 0 
L 628 0 
L 628 4666 
z
" transform="scale(0.015625)"/>
     </defs>
     <use xlink:href="#DejaVuSans-53" transform="translate(0 0.125)"/>
     <use xlink:href="#DejaVuSans-4c" transform="translate(63.476562 0.125)"/>
     <use xlink:href="#DejaVuSans-41" transform="translate(119.189453 0.125)"/>
     <use xlink:href="#DejaVuSans-42" transform="translate(187.597656 0.125)"/>
     <use xlink:href="#DejaVuSans-20" transform="translate(256.201172 0.125)"/>
     <use xlink:href="#DejaVuSans-2d" transform="translate(287.988281 0.125)"/>
     <use xlink:href="#DejaVuSans-20" transform="translate(324.072266 0.125)"/>
     <use xlink:href="#DejaVuSans-33" transform="translate(355.859375 0.125)"/>
     <use xlink:href="#DejaVuSans-44" transform="translate(414.982422 0.125)"/>
     <use xlink:href="#DejaVuSans-20" transform="translate(491.984375 0.125)"/>
     <use xlink:href="#DejaVuSans-Oblique-67" transform="translate(523.771484 0.125)"/>
     <use xlink:href="#DejaVuSans-28" transform="translate(587.248047 0.125)"/>
     <use xlink:href="#DejaVuSans-Oblique-72" transform="translate(626.261719 0.125)"/>
     <use xlink:href="#DejaVuSans-29" transform="translate(667.375 0.125)"/>
    </g>
   </g>
  </g>
  <g id="axes_2">
   <g id="patch_7">
    <path d="M 469.863125 312.04 
L 847.708125 312.04 
L 847.708125 22.32 
L 469.863125 22.32 
z
" style="fill: #ffffff"/>
   </g>
   <g id="matplotlib.axis_3">
    <g id="xtick_10">
     <g id="line2d_18">
      <g>
       <use xlink:href="#m127a8d7e33" x="469.863125" y="312.04" style="stroke: #000000; stroke-width: 0.8"/>
      </g>
     </g>
     <g id="text_19">
      <!-- 0 -->
      <g transform="translate(466.681875 326.638438) scale(0.1 -0.1)">
       <use xlink:href="#DejaVuSans-30"/>
      </g>
     </g>
    </g>
    <g id="xtick_11">
     <g id="line2d_19">
      <g>
       <use xlink:href="#m127a8d7e33" x="520.242458" y="312.04" style="stroke: #000000; stroke-width: 0.8"/>
      </g>
     </g>
     <g id="text_20">
      <!-- 2 -->
      <g transform="translate(517.061208 326.638438) scale(0.1 -0.1)">
       <use xlink:href="#DejaVuSans-32"/>
      </g>
     </g>
    </g>
    <g id="xtick_12">
     <g id="line2d_20">
      <g>
       <use xlink:href="#m127a8d7e33" x="570.621792" y="312.04" style="stroke: #000000; stroke-width: 0.8"/>
      </g>
     </g>
     <g id="text_21">
      <!-- 4 -->
      <g transform="translate(567.440542 326.638438) scale(0.1 -0.1)">
       <use xlink:href="#DejaVuSans-34"/>
      </g>
     </g>
    </g>
    <g id="xtick_13">
     <g id="line2d_21">
      <g>
       <use xlink:href="#m127a8d7e33" x="621.001125" y="312.04" style="stroke: #000000; stroke-width: 0.8"/>
      </g>
     </g>
     <g id="text_22">
      <!-- 6 -->
      <g transform="translate(617.819875 326.638438) scale(0.1 -0.1)">
       <defs>
        <path id="DejaVuSans-36" d="M 2113 2584 
Q 1688 2584 1439 2293 
Q 1191 2003 1191 1497 
Q 1191 994 1439 701 
Q 1688 409 2113 409 
Q 2538 409 2786 701 
Q 3034 994 3034 1497 
Q 3034 2003 2786 2293 
Q 2538 2584 2113 2584 
z
M 3366 4563 
L 3366 3988 
Q 3128 4100 2886 4159 
Q 2644 4219 2406 4219 
Q 1781 4219 1451 3797 
Q 1122 3375 1075 2522 
Q 1259 2794 1537 2939 
Q 1816 3084 2150 3084 
Q 2853 3084 3261 2657 
Q 3669 2231 3669 1497 
Q 3669 778 3244 343 
Q 2819 -91 2113 -91 
Q 1303 -91 875 529 
Q 447 1150 447 2328 
Q 447 3434 972 4092 
Q 1497 4750 2381 4750 
Q 2619 4750 2861 4703 
Q 3103 4656 3366 4563 
z
" transform="scale(0.015625)"/>
       </defs>
       <use xlink:href="#DejaVuSans-36"/>
      </g>
     </g>
    </g>
    <g id="xtick_14">
     <g id="line2d_22">
      <g>
       <use xlink:href="#m127a8d7e33" x="671.380458" y="312.04" style="stroke: #000000; stroke-width: 0.8"/>
      </g>
     </g>
     <g id="text_23">
      <!-- 8 -->
      <g transform="translate(668.199208 326.638438) scale(0.1 -0.1)">
       <defs>
        <path id="DejaVuSans-38" d="M 2034 2216 
Q 1584 2216 1326 1975 
Q 1069 1734 1069 1313 
Q 1069 891 1326 650 
Q 1584 409 2034 409 
Q 2484 409 2743 651 
Q 3003 894 3003 1313 
Q 3003 1734 2745 1975 
Q 2488 2216 2034 2216 
z
M 1403 2484 
Q 997 2584 770 2862 
Q 544 3141 544 3541 
Q 544 4100 942 4425 
Q 1341 4750 2034 4750 
Q 2731 4750 3128 4425 
Q 3525 4100 3525 3541 
Q 3525 3141 3298 2862 
Q 3072 2584 2669 2484 
Q 3125 2378 3379 2068 
Q 3634 1759 3634 1313 
Q 3634 634 3220 271 
Q 2806 -91 2034 -91 
Q 1263 -91 848 271 
Q 434 634 434 1313 
Q 434 1759 690 2068 
Q 947 2378 1403 2484 
z
M 1172 3481 
Q 1172 3119 1398 2916 
Q 1625 2713 2034 2713 
Q 2441 2713 2670 2916 
Q 2900 3119 2900 3481 
Q 2900 3844 2670 4047 
Q 2441 4250 2034 4250 
Q 1625 4250 1398 4047 
Q 1172 3844 1172 3481 
z
" transform="scale(0.015625)"/>
       </defs>
       <use xlink:href="#DejaVuSans-38"/>
      </g>
     </g>
    </g>
    <g id="xtick_15">
     <g id="line2d_23">
      <g>
       <use xlink:href="#m127a8d7e33" x="721.759792" y="312.04" style="stroke: #000000; stroke-width: 0.8"/>
      </g>
     </g>
     <g id="text_24">
      <!-- 10 -->
      <g transform="translate(715.397292 326.638438) scale(0.1 -0.1)">
       <use xlink:href="#DejaVuSans-31"/>
       <use xlink:href="#DejaVuSans-30" transform="translate(63.623047 0)"/>
      </g>
     </g>
    </g>
    <g id="xtick_16">
     <g id="line2d_24">
      <g>
       <use xlink:href="#m127a8d7e33" x="772.139125" y="312.04" style="stroke: #000000; stroke-width: 0.8"/>
      </g>
     </g>
     <g id="text_25">
      <!-- 12 -->
      <g transform="translate(765.776625 326.638438) scale(0.1 -0.1)">
       <use xlink:href="#DejaVuSans-31"/>
       <use xlink:href="#DejaVuSans-32" transform="translate(63.623047 0)"/>
      </g>
     </g>
    </g>
    <g id="xtick_17">
     <g id="line2d_25">
      <g>
       <use xlink:href="#m127a8d7e33" x="822.518458" y="312.04" style="stroke: #000000; stroke-width: 0.8"/>
      </g>
     </g>
     <g id="text_26">
      <!-- 14 -->
      <g transform="translate(816.155958 326.638438) scale(0.1 -0.1)">
       <use xlink:href="#DejaVuSans-31"/>
       <use xlink:href="#DejaVuSans-34" transform="translate(63.623047 0)"/>
      </g>
     </g>
    </g>
    <g id="text_27">
     <!-- $|k|$ -->
     <g transform="translate(652.485625 340.418125) scale(0.1 -0.1)">
      <defs>
       <path id="DejaVuSans-7c" d="M 1344 4891 
L 1344 -1509 
L 813 -1509 
L 813 4891 
L 1344 4891 
z
" transform="scale(0.015625)"/>
       <path id="DejaVuSans-Oblique-6b" d="M 1172 4863 
L 1747 4863 
L 1197 2028 
L 3169 3500 
L 3916 3500 
L 1716 1825 
L 3322 0 
L 2625 0 
L 1131 1709 
L 800 0 
L 225 0 
L 1172 4863 
z
" transform="scale(0.015625)"/>
      </defs>
      <use xlink:href="#DejaVuSans-7c" transform="translate(0 0.578125)"/>
      <use xlink:href="#DejaVuSans-Oblique-6b" transform="translate(33.691406 0.578125)"/>
      <use xlink:href="#DejaVuSans-7c" transform="translate(91.601562 0.578125)"/>
     </g>
    </g>
   </g>
   <g id="matplotlib.axis_4">
    <g id="ytick_7">
     <g id="line2d_26">
      <g>
       <use xlink:href="#m4d6513b8bd" x="469.863125" y="312.04" style="stroke: #000000; stroke-width: 0.8"/>
      </g>
     </g>
     <g id="text_28">
      <!-- 0.0 -->
      <g transform="translate(446.96 315.839219) scale(0.1 -0.1)">
       <use xlink:href="#DejaVuSans-30"/>
       <use xlink:href="#DejaVuSans-2e" transform="translate(63.623047 0)"/>
       <use xlink:href="#DejaVuSans-30" transform="translate(95.410156 0)"/>
      </g>
     </g>
    </g>
    <g id="ytick_8">
     <g id="line2d_27">
      <g>
       <use xlink:href="#m4d6513b8bd" x="469.863125" y="277.247292" style="stroke: #000000; stroke-width: 0.8"/>
      </g>
     </g>
     <g id="text_29">
      <!-- 0.5 -->
      <g transform="translate(446.96 281.046511) scale(0.1 -0.1)">
       <use xlink:href="#DejaVuSans-30"/>
       <use xlink:href="#DejaVuSans-2e" transform="translate(63.623047 0)"/>
       <use xlink:href="#DejaVuSans-35" transform="translate(95.410156 0)"/>
      </g>
     </g>
    </g>
    <g id="ytick_9">
     <g id="line2d_28">
      <g>
       <use xlink:href="#m4d6513b8bd" x="469.863125" y="242.454584" style="stroke: #000000; stroke-width: 0.8"/>
      </g>
     </g>
     <g id="text_30">
      <!-- 1.0 -->
      <g transform="translate(446.96 246.253803) scale(0.1 -0.1)">
       <use xlink:href="#DejaVuSans-31"/>
       <use xlink:href="#DejaVuSans-2e" transform="translate(63.623047 0)"/>
       <use xlink:href="#DejaVuSans-30" transform="translate(95.410156 0)"/>
      </g>
     </g>
    </g>
    <g id="ytick_10">
     <g id="line2d_29">
      <g>
       <use xlink:href="#m4d6513b8bd" x="469.863125" y="207.661876" style="stroke: #000000; stroke-width: 0.8"/>
      </g>
     </g>
     <g id="text_31">
      <!-- 1.5 -->
      <g transform="translate(446.96 211.461095) scale(0.1 -0.1)">
       <use xlink:href="#DejaVuSans-31"/>
       <use xlink:href="#DejaVuSans-2e" transform="translate(63.623047 0)"/>
       <use xlink:href="#DejaVuSans-35" transform="translate(95.410156 0)"/>
      </g>
     </g>
    </g>
    <g id="ytick_11">
     <g id="line2d_30">
      <g>
       <use xlink:href="#m4d6513b8bd" x="469.863125" y="172.869168" style="stroke: #000000; stroke-width: 0.8"/>
      </g>
     </g>
     <g id="text_32">
      <!-- 2.0 -->
      <g transform="translate(446.96 176.668387) scale(0.1 -0.1)">
       <use xlink:href="#DejaVuSans-32"/>
       <use xlink:href="#DejaVuSans-2e" transform="translate(63.623047 0)"/>
       <use xlink:href="#DejaVuSans-30" transform="translate(95.410156 0)"/>
      </g>
     </g>
    </g>
    <g id="ytick_12">
     <g id="line2d_31">
      <g>
       <use xlink:href="#m4d6513b8bd" x="469.863125" y="138.076461" style="stroke: #000000; stroke-width: 0.8"/>
      </g>
     </g>
     <g id="text_33">
      <!-- 2.5 -->
      <g transform="translate(446.96 141.875679) scale(0.1 -0.1)">
       <use xlink:href="#DejaVuSans-32"/>
       <use xlink:href="#DejaVuSans-2e" transform="translate(63.623047 0)"/>
       <use xlink:href="#DejaVuSans-35" transform="translate(95.410156 0)"/>
      </g>
     </g>
    </g>
    <g id="ytick_13">
     <g id="line2d_32">
      <g>
       <use xlink:href="#m4d6513b8bd" x="469.863125" y="103.283753" style="stroke: #000000; stroke-width: 0.8"/>
      </g>
     </g>
     <g id="text_34">
      <!-- 3.0 -->
      <g transform="translate(446.96 107.082971) scale(0.1 -0.1)">
       <use xlink:href="#DejaVuSans-33"/>
       <use xlink:href="#DejaVuSans-2e" transform="translate(63.623047 0)"/>
       <use xlink:href="#DejaVuSans-30" transform="translate(95.410156 0)"/>
      </g>
     </g>
    </g>
    <g id="ytick_14">
     <g id="line2d_33">
      <g>
       <use xlink:href="#m4d6513b8bd" x="469.863125" y="68.491045" style="stroke: #000000; stroke-width: 0.8"/>
      </g>
     </g>
     <g id="text_35">
      <!-- 3.5 -->
      <g transform="translate(446.96 72.290264) scale(0.1 -0.1)">
       <use xlink:href="#DejaVuSans-33"/>
       <use xlink:href="#DejaVuSans-2e" transform="translate(63.623047 0)"/>
       <use xlink:href="#DejaVuSans-35" transform="translate(95.410156 0)"/>
      </g>
     </g>
    </g>
    <g id="ytick_15">
     <g id="line2d_34">
      <g>
       <use xlink:href="#m4d6513b8bd" x="469.863125" y="33.698337" style="stroke: #000000; stroke-width: 0.8"/>
      </g>
     </g>
     <g id="text_36">
      <!-- 4.0 -->
      <g transform="translate(446.96 37.497556) scale(0.1 -0.1)">
       <use xlink:href="#DejaVuSans-34"/>
       <use xlink:href="#DejaVuSans-2e" transform="translate(63.623047 0)"/>
       <use xlink:href="#DejaVuSans-30" transform="translate(95.410156 0)"/>
      </g>
     </g>
    </g>
    <g id="text_37">
     <!-- $S(k)$ -->
     <g transform="translate(440.880313 177.18) rotate(-90) scale(0.1 -0.1)">
      <defs>
       <path id="DejaVuSans-Oblique-53" d="M 3859 4513 
L 3738 3897 
Q 3422 4066 3111 4152 
Q 2800 4238 2509 4238 
Q 1944 4238 1609 3991 
Q 1275 3744 1275 3334 
Q 1275 3109 1398 2989 
Q 1522 2869 2034 2731 
L 2413 2638 
Q 3053 2472 3303 2217 
Q 3553 1963 3553 1503 
Q 3553 797 2998 353 
Q 2444 -91 1538 -91 
Q 1166 -91 791 -17 
Q 416 56 38 206 
L 166 856 
Q 513 641 861 531 
Q 1209 422 1556 422 
Q 2147 422 2503 684 
Q 2859 947 2859 1369 
Q 2859 1650 2717 1795 
Q 2575 1941 2106 2059 
L 1728 2156 
Q 1081 2325 845 2545 
Q 609 2766 609 3163 
Q 609 3859 1145 4304 
Q 1681 4750 2541 4750 
Q 2875 4750 3203 4690 
Q 3531 4631 3859 4513 
z
" transform="scale(0.015625)"/>
      </defs>
      <use xlink:href="#DejaVuSans-Oblique-53" transform="translate(0 0.015625)"/>
      <use xlink:href="#DejaVuSans-28" transform="translate(63.476562 0.015625)"/>
      <use xlink:href="#DejaVuSans-Oblique-6b" transform="translate(102.490234 0.015625)"/>
      <use xlink:href="#DejaVuSans-29" transform="translate(160.400391 0.015625)"/>
     </g>
    </g>
   </g>
   <g id="line2d_35">
    <path d="M 483.052404 284.913304 
L 492.092246 267.972306 
L 495.710579 300.94312 
L 496.241682 281.527224 
L 501.29985 266.765996 
L 504.358953 300.71942 
L 509.430961 278.125359 
L 510.900863 224.45706 
L 514.321368 219.93344 
L 515.247566 251.661266 
L 516.236527 303.200215 
L 519.568951 258.065726 
L 520.399066 290.242418 
L 521.289055 261.17404 
L 521.558034 224.322812 
L 522.620239 308.312749 
L 526.134765 260.665057 
L 527.112116 266.398496 
L 529.379081 245.636118 
L 531.276322 288.866799 
L 532.736575 275.732003 
L 533.394871 274.121146 
L 534.105072 282.53706 
L 535.809518 307.340957 
L 536.550489 249.981933 
L 537.842251 292.478023 
L 538.04596 295.500445 
L 538.85478 270.534732 
L 539.455227 293.498764 
L 540.157779 277.656556 
L 541.384418 265.925038 
L 541.578066 274.632073 
L 542.347484 282.48867 
L 542.91923 275.392631 
L 544.150973 290.778623 
L 544.944192 259.609515 
L 547.405488 283.219007 
L 548.998797 294.99927 
L 549.395899 263.502421 
L 550.011362 290.355857 
L 550.528805 269.113319 
L 551.089333 277.988971 
L 551.938601 251.891492 
L 552.061594 276.997376 
L 552.44397 280.714426 
L 554.240658 282.785832 
L 554.895575 242.807761 
L 555.014298 263.40898 
L 557.753121 264.731729 
L 558.77961 306.723023 
L 559.246308 261.769536 
L 559.752493 294.856533 
L 560.632007 272.203638 
L 560.978422 273.424731 
L 561.51614 255.337965 
L 562.188075 291.050466 
L 562.609929 246.681583 
L 563.314309 274.751177 
L 563.650817 265.477722 
L 564.173299 278.280955 
L 564.826435 257.447351 
L 565.091094 293.043151 
L 565.236619 259.708793 
L 565.816514 271.1726 
L 566.249146 264.142001 
L 567.186067 285.640876 
L 567.393449 277.716361 
L 567.792882 289.146211 
L 569.274778 275.968758 
L 569.692423 282.95567 
L 570.145894 268.660197 
L 570.935006 257.584212 
L 572.137377 289.593076 
L 572.33474 245.296529 
L 572.714984 265.503794 
L 573.252943 229.50547 
L 573.350608 248.75762 
L 573.654582 259.039376 
L 574.718099 247.572791 
L 575.377354 307.269729 
L 575.615611 234.556589 
L 575.711096 256.161302 
L 576.859809 284.962162 
L 577.693484 268.922866 
L 577.926635 247.281654 
L 579.960901 270.594978 
L 580.565736 268.822066 
L 581.008731 266.325015 
L 581.78856 277.57113 
L 582.406405 275.453932 
L 582.496132 255.963327 
L 582.775489 233.081098 
L 583.209848 246.409645 
L 583.753866 283.382013 
L 583.974635 251.19576 
L 584.096107 262.817064 
L 584.361107 260.576746 
L 584.942818 272.883059 
L 585.902923 274.809322 
L 586.238844 246.57392 
L 586.498976 271.102 
L 587.841765 229.024437 
L 588.566633 309.845595 
L 588.895036 288.326483 
L 589.159409 282.054169 
L 589.917668 216.188798 
L 590.295007 246.258307 
L 590.630076 226.195925 
L 590.952884 273.580237 
L 592.123651 265.139585 
L 592.442526 254.538547 
L 592.658851 283.566955 
L 592.689519 272.305994 
L 592.894255 247.451808 
L 592.976339 247.68561 
L 594.684826 283.568923 
L 594.886294 242.318854 
L 595.610024 300.541241 
L 595.940462 223.201336 
L 596.299827 279.091812 
L 596.619024 85.598966 
L 596.648735 214.570516 
L 596.926618 267.852707 
L 598.042834 271.919645 
L 598.347019 272.434752 
L 598.553419 218.749317 
L 599.480062 297.58556 
L 599.95606 237.366257 
L 600.149377 268.969419 
L 600.680533 274.370344 
L 600.998194 229.840139 
L 601.688374 210.172919 
L 601.755911 175.690444 
L 601.841553 237.2686 
L 602.137002 230.712926 
L 602.365926 232.709965 
L 603.237853 61.21491 
L 603.616035 274.27855 
L 603.888403 220.673699 
L 604.189568 249.301609 
L 605.077591 197.898999 
L 605.384946 233.246886 
L 605.450642 283.166908 
L 605.533951 228.65001 
L 605.719332 235.412544 
L 605.821377 211.639891 
L 606.302857 272.173252 
L 606.53356 245.758564 
L 607.626618 256.953355 
L 607.819136 224.767681 
L 607.846435 260.878813 
L 608.101811 223.625327 
L 608.983331 283.460755 
L 609.047328 239.245279 
L 609.625522 208.05714 
L 609.805483 260.706286 
L 610.452432 226.924058 
L 610.748062 204.379354 
L 610.811258 242.695051 
L 611.069748 250.551003 
L 611.382246 186.224389 
L 612.19895 224.350003 
L 612.808724 265.816 
L 612.905712 230.967961 
L 613.091134 241.051927 
L 613.293007 168.485522 
L 613.363424 214.573587 
L 614.352717 205.163169 
L 614.622634 275.524073 
L 614.831843 267.398497 
L 614.94519 150.999932 
L 615.005348 219.684706 
L 615.291723 280.349 
L 615.914373 250.061398 
L 616.052646 151.127786 
L 616.638257 208.856369 
L 617.596333 244.314918 
L 617.656601 130.452988 
L 618.175849 153.916427 
L 618.43882 234.135817 
L 618.650708 232.230462 
L 618.980604 196.403109 
L 619.318956 231.435353 
L 619.562756 222.230748 
L 619.832448 225.355842 
L 620.025259 243.199569 
L 620.302078 231.530042 
L 621.037784 173.310265 
L 621.295786 194.728091 
L 621.470947 226.309024 
L 621.604157 198.712298 
L 621.661677 162.321176 
L 621.728213 237.91412 
L 623.116505 206.535845 
L 623.223729 221.581658 
L 624.140914 213.822178 
L 624.198626 241.301711 
L 624.695936 262.322691 
L 624.72026 268.359387 
L 624.947852 286.835962 
L 625.466974 48.658182 
L 625.863699 247.361246 
L 626.024948 235.46524 
L 626.532862 239.515815 
L 626.733817 248.750896 
L 627.046749 179.259649 
L 627.687033 291.431359 
L 627.982941 230.952274 
L 628.038141 248.178337 
L 628.134468 199.867617 
L 628.928672 245.261442 
L 628.999691 230.393625 
L 629.244805 232.696665 
L 629.537826 298.264344 
L 629.687879 263.255231 
L 630.159598 204.671518 
L 630.418945 270.323753 
L 630.474402 215.205523 
L 630.701293 248.965143 
L 631.077715 243.332207 
L 631.194485 215.24089 
L 631.226336 110.533494 
L 631.950463 238.135041 
L 632.005396 66.212945 
L 632.075068 254.843082 
L 632.230148 255.181311 
L 632.478833 194.273009 
L 632.71871 265.669202 
L 632.912042 217.718946 
L 633.591095 214.401137 
L 633.829345 194.499923 
L 633.991131 193.971052 
L 634.014077 216.258111 
L 634.167327 217.705426 
L 634.260064 204.210886 
L 634.970887 223.753459 
L 635.024815 250.373531 
L 635.611565 237.026717 
L 635.756125 198.567919 
L 636.460564 273.786454 
L 638.057209 242.386264 
L 638.446647 253.233357 
L 638.678044 181.897826 
L 638.864559 287.28042 
L 639.519789 245.517566 
L 639.66807 257.490067 
L 639.928026 250.467243 
L 640.024657 200.714613 
L 640.075951 224.391261 
L 640.16547 261.634147 
L 640.320212 168.224259 
L 641.323747 224.581615 
L 641.374653 253.375643 
L 641.47047 226.799659 
L 641.610098 272.593339 
L 642.758697 247.916078 
L 642.787401 209.111311 
L 642.904203 261.824097 
L 643.194848 208.619814 
L 643.717593 260.076416 
L 643.768808 217.527128 
L 643.978377 255.649594 
L 644.181835 234.018525 
L 644.434063 240.07409 
L 644.614434 135.979115 
L 645.248184 247.968419 
L 645.470619 245.587695 
L 645.62169 214.536957 
L 645.643118 263.202627 
L 645.736609 237.082089 
L 645.843653 235.969147 
L 646.993812 146.031742 
L 647.043089 257.91493 
L 647.185079 244.778121 
L 647.271011 210.173208 
L 647.696095 118.389115 
L 647.929903 233.413095 
L 647.979908 203.430577 
L 648.184527 273.385532 
L 648.383191 264.31415 
L 648.410992 198.59248 
L 648.629492 198.013702 
L 649.08003 210.734449 
L 649.5647 261.438987 
L 649.64186 217.42688 
L 649.789428 259.855593 
L 650.006256 263.421381 
L 650.795306 265.913935 
L 651.01093 206.793239 
L 651.316912 169.463333 
L 651.400888 265.494584 
L 651.546061 216.796135 
L 652.044845 243.62095 
L 652.09372 233.619736 
L 652.155714 187.213399 
L 652.48792 271.132256 
L 652.535715 264.557403 
L 652.756792 273.679484 
L 653.169155 248.013415 
L 653.395991 226.788234 
L 653.643041 254.870824 
L 653.835812 168.83733 
L 653.862788 185.091699 
L 653.972563 249.150535 
L 654.102717 192.891985 
L 654.513026 279.544065 
L 654.785426 235.191302 
L 654.846518 259.368077 
L 655.057425 262.985198 
L 655.1739 259.28331 
L 655.200682 235.955888 
L 655.356733 271.965411 
L 655.580896 251.551108 
L 655.846242 262.284923 
L 656.177348 245.598372 
L 656.683928 251.12642 
L 656.737994 169.769059 
L 656.765492 231.553446 
L 657.169968 277.729881 
L 657.43851 213.439641 
L 657.86794 253.387694 
L 657.955354 239.657678 
L 658.483474 283.75942 
L 658.751078 231.043454 
L 658.944042 231.088903 
L 659.131413 209.654896 
L 659.177531 235.429441 
L 659.78882 293.263958 
L 659.789746 216.687486 
L 660.246231 263.917582 
L 660.319063 291.514107 
L 660.458364 203.261554 
L 660.610114 227.573692 
L 660.663068 219.121568 
L 660.828111 224.089483 
L 661.085257 245.569175 
L 661.086175 217.528767 
L 661.539573 238.504932 
L 661.611914 224.783103 
L 661.769904 293.138316 
L 662.588965 159.712553 
L 662.693773 268.598953 
L 662.896106 261.177099 
L 663.007854 290.524924 
L 663.053046 211.818083 
L 663.262101 233.930079 
L 663.86669 229.117721 
L 663.912588 213.590741 
L 664.282826 274.176336 
L 664.412234 266.811996 
L 664.509008 248.263228 
L 664.535408 213.422726 
L 664.670793 257.272857 
L 664.923773 278.435481 
L 665.136055 248.196332 
L 665.549491 285.731656 
L 665.574853 270.304217 
L 665.722639 283.346557 
L 665.774211 262.150292 
L 666.186303 257.175883 
L 666.499999 268.038316 
L 666.83321 243.151644 
L 666.980052 203.680979 
L 667.440766 244.315005 
L 667.702304 251.912046 
L 668.058538 243.909276 
L 668.185482 204.148146 
L 668.229495 255.235996 
L 668.306314 230.940538 
L 668.68643 277.429277 
L 668.94032 245.021323 
L 668.947215 261.733172 
L 669.123416 262.352232 
L 669.326109 271.256593 
L 669.344991 253.526962 
L 669.679447 241.866423 
L 669.925216 273.245491 
L 670.184388 285.507528 
L 670.233936 270.612446 
L 670.359503 286.271359 
L 670.428663 245.495202 
L 670.560947 248.240158 
L 670.912115 221.088919 
L 671.156379 293.18755 
L 671.157252 254.103343 
L 671.463213 235.006265 
L 671.588015 242.71532 
L 671.656754 284.16354 
L 671.888269 238.460261 
L 672.006888 255.679235 
L 672.137272 203.421924 
L 672.585399 216.42232 
L 672.636092 242.808605 
L 672.877417 245.754951 
L 673.026646 241.022288 
L 673.107541 272.854758 
L 673.800503 248.427475 
L 673.844165 282.199588 
L 673.850894 279.007621 
L 674.196409 262.895631 
L 674.411629 281.491669 
L 674.436751 256.863781 
L 674.805497 230.583928 
L 674.806354 213.491826 
L 675.051815 248.688296 
L 675.106875 207.66072 
L 675.229463 241.343528 
L 675.401989 211.138004 
L 675.566843 238.871135 
L 675.615948 229.262199 
L 676.008367 245.580416 
L 676.496143 233.636817 
L 676.624546 246.790142 
L 676.642761 187.566741 
L 676.764439 254.389729 
L 676.813259 243.65635 
L 676.83809 167.735592 
L 677.203413 249.95399 
L 677.446039 245.889524 
L 677.452652 156.174533 
L 677.955142 268.682963 
L 678.028372 232.965072 
L 678.590194 250.059618 
L 678.63943 289.088231 
L 678.977032 233.871213 
L 679.337785 251.234676 
L 679.572236 296.442275 
L 679.573073 242.958834 
L 679.866774 254.964813 
L 679.986584 237.459734 
L 680.178808 258.653903 
L 680.513943 241.936631 
L 680.747086 257.072177 
L 681.039985 223.552363 
L 681.159131 250.266663 
L 681.224757 245.01203 
L 681.368097 250.439479 
L 681.487058 216.380981 
L 681.68357 286.113219 
L 682.206715 268.052894 
L 682.390472 269.87279 
L 682.491974 227.423594 
L 682.722951 246.841209 
L 683.272414 241.965682 
L 683.32057 260.332122 
L 683.673995 251.84415 
L 683.768471 272.362642 
L 683.856492 246.142088 
L 684.427005 242.421645 
L 684.468506 259.171956 
L 684.803338 251.089551 
L 684.826428 244.081342 
L 685.007948 277.964584 
L 685.154329 231.200058 
L 685.383267 241.532983 
L 685.990144 166.766216 
L 686.106562 248.210674 
L 686.153275 229.088073 
L 686.526609 200.548874 
L 686.765136 277.192593 
L 687.09011 263.656998 
L 687.130293 282.900137 
L 687.205939 236.553283 
L 687.246101 275.170413 
L 687.316202 255.090922 
L 687.894937 250.570486 
L 687.901232 227.768211 
L 688.224515 270.002536 
L 688.247244 215.160455 
L 688.26449 254.685684 
L 688.79458 231.029062 
L 689.076726 254.404319 
L 689.191506 212.204937 
L 689.55343 225.094514 
L 689.920199 278.628492 
L 689.920997 269.391701 
L 690.200904 179.925398 
L 690.315099 293.755254 
L 690.378 269.045078 
L 690.817807 228.728623 
L 691.268347 270.285823 
L 691.319375 265.266545 
L 691.495577 256.86832 
L 691.592912 276.238602 
L 691.814417 286.686236 
L 692.154338 230.355462 
L 692.341428 271.750033 
L 692.381453 258.782624 
L 692.545276 271.975369 
L 692.704396 256.168766 
L 692.726668 267.692537 
L 692.924798 242.315421 
L 693.263029 238.542246 
L 693.263815 245.369868 
L 693.449192 249.053673 
L 693.65203 238.266527 
L 693.713994 242.417781 
L 693.832526 221.852734 
L 694.006752 256.792007 
L 694.641399 258.736784 
L 694.93295 245.613786 
L 694.949684 249.994581 
L 695.106326 235.761581 
L 695.12914 247.154181 
L 695.464845 262.961204 
L 695.648414 261.438035 
L 695.687853 240.965351 
L 696.044674 253.272362 
L 696.117339 248.845348 
L 696.155919 248.919487 
L 696.223261 285.678756 
L 696.740032 207.139893 
L 696.785329 270.26245 
L 696.939931 279.458757 
L 697.095973 269.607071 
L 697.134388 255.581976 
L 697.644608 192.917931 
L 697.871503 263.397154 
L 698.086145 224.885922 
L 698.329088 228.980997 
L 698.511126 256.847906 
L 698.725936 208.041193 
L 698.726704 227.42584 
L 699.105668 269.176003 
L 699.407958 261.493425 
L 699.589141 178.198092 
L 699.983816 240.499222 
L 700.022511 240.26995 
L 700.071599 192.75002 
L 700.443924 243.196718 
L 701.09348 275.48401 
L 701.099415 254.718665 
L 701.404272 214.658215 
L 701.425707 246.80531 
L 701.6164 255.982276 
L 701.730134 244.386474 
L 701.941965 286.777112 
L 701.942722 254.300733 
L 702.121171 261.215942 
L 702.15951 224.750365 
L 702.468879 239.525833 
L 702.490215 271.499104 
L 702.793252 240.222296 
L 703.004869 226.132335 
L 703.436274 274.989884 
L 703.549875 273.213479 
L 703.636319 267.172164 
L 703.716862 217.778851 
L 704.282884 259.991283 
L 704.583606 230.33447 
L 704.620795 269.313122 
L 704.727978 220.380497 
L 704.792863 270.783084 
L 705.290824 263.38234 
L 705.633857 247.401514 
L 705.67088 248.430383 
L 705.820405 268.759369 
L 705.953882 188.812493 
L 706.161925 165.496784 
L 706.381393 255.710391 
L 706.529726 224.641332 
L 706.700408 272.530119 
L 706.865175 242.54907 
L 707.205933 237.744481 
L 707.465478 271.686726 
L 707.629715 262.594022 
L 707.826235 286.652882 
L 707.926947 207.490271 
L 708.037668 259.041989 
L 708.455693 267.964905 
L 708.461446 273.687397 
L 708.503046 214.361789 
L 708.862237 268.969401 
L 708.962513 262.826718 
L 709.278088 222.237123 
L 709.451807 227.049375 
L 709.488974 218.610893 
L 709.494702 248.605853 
L 709.641109 265.293863 
L 709.972211 232.893025 
L 710.307835 258.197419 
L 710.517818 253.963373 
L 710.564765 232.670321 
L 710.669303 251.856463 
L 710.726889 209.52793 
L 710.816455 284.567895 
L 710.837053 266.205107 
L 711.129605 230.369586 
L 711.333918 279.43096 
L 711.589031 256.66848 
L 711.750468 265.651753 
L 711.860166 245.472079 
L 711.979701 287.474772 
L 712.021422 265.121791 
L 712.042643 242.539899 
L 712.354934 214.828502 
L 712.568078 280.113833 
L 712.894469 250.88732 
L 713.54175 280.169863 
L 713.578292 242.94379 
L 713.583924 263.690118 
L 713.873184 271.93404 
L 713.908957 290.241278 
L 714.383459 278.892975 
L 714.384178 293.30956 
L 714.738912 260.640742 
L 715.021926 275.243276 
L 715.06313 231.335003 
L 715.191578 250.202456 
L 715.39251 229.390042 
L 715.745789 247.647831 
L 715.802187 292.805332 
L 715.992181 201.63566 
L 716.027646 248.128471 
L 716.089554 296.6879 
L 716.804729 212.781976 
L 716.993953 296.554861 
L 717.090931 260.865832 
L 717.564169 177.521149 
L 717.600119 263.819175 
L 717.605659 234.544484 
L 717.890228 229.03689 
L 718.088268 273.96383 
L 718.194459 235.433335 
L 718.392256 206.55633 
L 718.559609 284.941402 
L 718.595415 283.098329 
L 718.741983 219.501013 
L 718.904295 228.8941 
L 719.187382 254.564836 
L 719.631987 235.431149 
L 719.788229 243.330681 
L 719.8944 242.754587 
L 719.909463 271.179272 
L 720.010096 258.009085 
L 720.373301 257.068727 
L 720.860825 209.30681 
L 720.99584 273.991143 
L 721.356923 276.632338 
L 721.563142 199.849515 
L 721.702533 280.742144 
L 721.862938 262.515229 
L 721.877884 275.71434 
L 722.017798 262.535579 
L 722.542828 249.359776 
L 722.73653 220.845173 
L 722.995725 273.256378 
L 723.12015 233.208536 
L 723.314103 229.029473 
L 723.314796 247.649217 
L 723.557862 245.226755 
L 723.657048 260.977179 
L 723.930128 236.821701 
L 723.990111 262.837677 
L 724.093836 257.729843 
L 724.450525 260.081238 
L 724.490893 258.011935 
L 724.683114 225.053877 
L 724.767776 185.206551 
L 724.80202 216.778617 
L 724.866491 238.254586 
L 724.960476 203.56691 
L 725.453987 248.62985 
L 725.459357 236.766136 
L 725.754589 253.898586 
L 725.833534 227.810069 
L 725.927165 254.947898 
L 726.222543 250.173642 
L 726.384102 235.145098 
L 726.418816 249.029303 
L 726.462854 230.464355 
L 726.698965 269.939235 
L 726.830912 239.63494 
L 726.870223 203.466962 
L 726.992773 239.625579 
L 727.18449 263.199269 
L 727.423904 256.147412 
L 727.678386 270.206293 
L 727.829755 232.752765 
L 728.33767 241.071049 
L 728.649476 253.642325 
L 728.746712 244.415579 
L 729.096999 282.82785 
L 729.291774 204.96523 
L 729.859389 239.767567 
L 730.048319 268.102293 
L 730.048994 254.489527 
L 730.247654 266.270753 
L 730.435628 226.813234 
L 730.537463 272.783082 
L 730.687172 243.870576 
L 731.232768 285.071731 
L 731.497941 239.381926 
L 732.099307 272.689609 
L 732.133264 225.002905 
L 732.176342 266.475427 
L 732.407315 275.193585 
L 732.440563 247.718012 
L 732.503159 248.534692 
L 732.594412 277.985174 
L 733.039774 274.174781 
L 733.078825 278.343936 
L 733.346683 168.793714 
L 733.442186 280.735202 
L 733.513623 164.74927 
L 733.533114 256.088098 
L 733.819981 218.24202 
L 734.010609 265.254646 
L 734.282714 202.04199 
L 734.301484 221.291763 
L 734.410879 258.128062 
L 734.986918 199.20309 
L 735.343159 251.899949 
L 735.381209 251.554912 
L 735.685414 235.689254 
L 735.879865 256.733711 
L 736.177688 261.307739 
L 736.239405 253.939075 
L 736.801872 236.964109 
L 736.807014 242.738451 
L 737.071135 260.135568 
L 737.089709 258.898778 
L 737.103803 207.785454 
L 737.353551 224.906859 
L 737.537191 245.790275 
L 737.768009 229.858334 
L 737.861936 230.371466 
L 737.91368 278.863125 
L 738.012675 248.903029 
L 738.27561 256.693671 
L 738.458619 256.700483 
L 738.782252 251.534542 
L 738.833819 228.920156 
L 739.007555 249.432489 
L 739.531228 232.094561 
L 739.569338 260.945205 
L 739.606141 231.793744 
L 739.863091 264.851588 
L 740.012713 215.082131 
L 740.445865 247.765264 
L 740.478775 255.511396 
L 740.613498 251.333855 
L 740.744383 258.489653 
L 740.837278 258.360065 
L 740.906767 251.315614 
L 740.925726 167.920418 
L 741.20413 267.834266 
L 741.204778 265.443803 
L 741.357422 271.158887 
L 741.575538 235.427179 
L 741.654938 252.424312 
L 741.673199 225.067789 
L 741.779629 235.464524 
L 741.816778 257.42032 
L 742.113793 243.488391 
L 742.483318 237.299578 
L 742.580653 212.882962 
L 742.594464 245.432138 
L 742.686729 242.816767 
L 742.742588 248.751257 
L 743.019784 249.61469 
L 743.171414 263.188383 
L 743.203996 247.979232 
L 743.209017 257.039896 
L 743.558929 264.821888 
L 743.590823 262.463016 
L 743.646498 237.930993 
L 744.106385 261.957318 
L 744.11139 250.964608 
L 744.400282 261.531678 
L 744.643398 233.556417 
L 744.82217 262.818581 
L 745.010803 231.867254 
L 745.046878 251.108882 
L 745.138321 238.505342 
L 745.285077 256.840673 
L 745.390112 235.634587 
L 745.719902 256.266313 
L 746.084603 232.091069 
L 746.285364 267.05981 
L 746.340496 218.844916 
L 746.435839 262.334671 
L 747.146245 244.029657 
L 747.654576 212.720203 
L 747.686632 214.617753 
L 747.945355 229.213379 
L 747.963203 268.551373 
L 748.103536 204.78354 
L 748.122005 212.681951 
L 748.216738 266.781 
L 748.393216 295.176763 
L 748.574507 242.796489 
L 748.705318 244.427148 
L 748.832407 244.203027 
L 748.990086 237.685694 
L 749.102928 274.294468 
L 749.279476 232.000401 
L 749.639536 225.022905 
L 749.734383 240.642749 
L 749.74784 264.263583 
L 749.806566 227.837936 
L 749.837748 258.80756 
L 750.162306 250.779475 
L 750.346721 273.054177 
L 750.598104 264.203782 
L 750.629198 211.381424 
L 750.687739 212.443033 
L 750.773086 270.917491 
L 751.041739 197.271065 
L 751.350905 252.055291 
L 751.4768 218.045647 
L 751.632999 256.615356 
L 752.102944 265.576441 
L 752.276371 218.680323 
L 752.508478 243.025544 
L 752.619917 133.534805 
L 752.793648 277.358247 
L 753.01203 241.88951 
L 753.100901 287.328729 
L 753.34562 218.964294 
L 753.812111 241.642912 
L 753.843472 276.564938 
L 753.883258 256.815038 
L 754.020668 284.617497 
L 754.096592 281.15473 
L 754.185124 222.401791 
L 754.269421 245.734972 
L 754.534775 262.267382 
L 754.716976 261.309137 
L 754.840152 188.030321 
L 754.981914 257.146653 
L 755.052769 248.802354 
L 755.547032 239.565582 
L 755.617746 289.953714 
L 755.754323 229.701334 
L 755.829786 138.161298 
L 755.847142 250.725216 
L 755.983608 225.436807 
L 756.093694 174.142501 
L 756.265932 272.680747 
L 756.481055 284.451185 
L 756.722889 239.91423 
L 756.863722 257.839521 
L 757.127292 268.726906 
L 757.271479 226.219066 
L 757.640008 260.70109 
L 757.670342 253.262614 
L 757.723293 209.571045 
L 758.165487 215.357044 
L 758.410058 214.064951 
L 758.440311 238.828503 
L 758.671608 257.696433 
L 758.841702 237.28053 
L 758.84231 238.143166 
L 759.021189 232.289367 
L 759.142531 242.687533 
L 759.382143 276.694266 
L 759.417034 249.278567 
L 759.695407 250.510834 
L 759.696013 271.595628 
L 759.908592 227.81994 
L 759.995351 250.93048 
L 760.043148 214.307721 
L 760.147571 235.783161 
L 760.204194 286.961594 
L 760.37751 192.103074 
L 760.720321 238.711046 
L 760.893329 196.723292 
L 761.136213 243.745581 
L 761.537998 231.51393 
L 761.568528 238.182336 
L 761.81495 238.075649 
L 761.83195 249.9973 
L 761.901143 230.98225 
L 761.96562 225.635115 
L 761.983213 234.616603 
L 762.073452 225.811841 
L 762.241567 225.197106 
L 762.242167 256.113664 
L 762.383834 234.747429 
L 762.538901 268.097317 
L 762.676937 224.649254 
L 763.296096 264.341315 
L 763.429099 219.464342 
L 763.519493 253.010641 
L 763.618007 233.723034 
L 763.652395 189.918922 
L 763.927356 236.27736 
L 764.342784 244.229897 
L 764.372427 225.551132 
L 764.509603 253.086248 
L 764.941628 207.926562 
L 765.180587 206.068279 
L 765.197393 231.331686 
L 765.329541 192.842771 
L 765.777735 286.931033 
L 765.811279 240.745963 
L 766.032779 256.400512 
L 766.270859 253.741364 
L 766.437186 224.686496 
L 766.729727 252.650092 
L 766.933835 246.036789 
L 767.014515 269.080412 
L 767.43829 229.448659 
L 767.476259 201.151425 
L 767.709166 265.808105 
L 767.764351 243.879593 
L 768.098083 232.38083 
L 768.267402 243.819609 
L 768.272002 239.118965 
L 768.508297 262.886241 
L 768.672791 219.77034 
L 768.925366 271.260381 
L 769.064455 246.836983 
L 769.094217 203.272688 
L 769.131976 275.459359 
L 769.35102 173.606929 
L 769.586464 260.066066 
L 769.750952 190.059461 
L 770.086462 275.680026 
L 770.187393 222.246895 
L 770.30481 268.297535 
L 770.711432 235.818776 
L 770.741031 290.935132 
L 770.745593 236.700402 
L 771.092498 183.503263 
L 771.531548 194.686063 
L 771.561067 227.761201 
L 771.799334 230.741616 
L 771.828245 282.209371 
L 772.211862 280.575236 
L 772.212444 238.612179 
L 772.383417 244.887783 
L 772.499402 231.674959 
L 772.632896 262.910026 
L 772.728447 205.018704 
L 772.7618 222.103636 
L 773.028499 277.321817 
L 773.231736 220.119137 
L 773.360386 238.926411 
L 773.460228 195.847426 
L 773.514368 294.045037 
L 773.543116 238.138205 
L 773.5933 234.015222 
L 773.680091 275.329793 
L 774.045057 254.723296 
L 774.24426 199.299016 
L 774.326935 282.414857 
L 774.405656 236.958026 
L 774.789957 236.79067 
L 774.81916 270.417976 
L 774.823661 270.220438 
L 775.137338 231.463762 
L 775.302181 271.273855 
L 775.863359 271.10147 
L 776.110003 211.944771 
L 776.27099 200.401752 
L 776.472077 238.443397 
L 776.685881 227.767339 
L 776.751725 272.471827 
L 776.780169 240.400708 
L 776.813083 234.460557 
L 777.076265 234.328856 
L 777.502313 265.016469 
L 777.555742 239.324319 
L 778.042811 249.509047 
L 778.047265 243.089144 
L 778.292163 167.260289 
L 778.418703 254.235553 
L 778.679947 277.950643 
L 778.96147 220.053158 
L 779.320207 266.952439 
L 780.032579 188.361285 
L 780.438591 266.80826 
L 780.474971 225.945188 
L 780.600622 249.336412 
L 780.670053 241.23993 
L 780.698138 224.484664 
L 780.751018 249.177734 
L 781.070823 182.196782 
L 781.204486 261.82078 
L 781.237497 248.515334 
L 781.350185 229.939732 
L 781.463959 183.343619 
L 781.621618 264.257284 
L 781.86371 236.565886 
L 781.864273 237.459971 
L 781.997034 234.936497 
L 782.025563 230.087161 
L 782.061758 190.020819 
L 782.142362 213.868467 
L 782.18677 276.985762 
L 782.271736 230.699241 
L 782.396665 231.901495 
L 782.852135 259.034294 
L 782.976832 221.746367 
L 783.202598 267.690259 
L 783.44403 228.680592 
L 783.576123 259.047489 
L 783.604508 237.160728 
L 783.941581 271.480662 
L 783.990105 199.756186 
L 784.230373 188.980691 
L 784.362694 234.870611 
L 784.395372 298.584399 
L 784.647297 220.58911 
L 785.1799 244.601431 
L 785.335144 256.874485 
L 785.419262 244.975861 
L 785.510942 264.362552 
L 785.642726 217.246915 
L 785.798299 234.999148 
L 785.993882 236.456377 
L 786.073484 284.696506 
L 786.213156 180.800019 
L 786.265114 230.323544 
L 786.292704 218.395119 
L 786.424162 261.952914 
L 786.710691 269.606171 
L 786.897607 230.456154 
L 786.965659 184.503075 
L 786.993187 273.360335 
L 787.120583 247.872051 
L 787.517536 261.895541 
L 787.521857 246.304202 
L 787.743843 221.979698 
L 787.823007 232.972197 
L 787.981276 276.024028 
L 788.135706 251.002706 
L 788.136258 177.274354 
L 788.266404 262.778645 
L 788.294371 231.311341 
L 788.408872 224.365736 
L 788.626485 267.39591 
L 788.658176 244.809262 
L 788.756982 247.897696 
L 789.226968 236.271645 
L 789.310061 212.760155 
L 789.373303 253.294231 
L 789.432238 224.515328 
L 789.846674 265.729558 
L 790.067048 218.394459 
L 790.09431 223.394749 
L 790.172893 267.818563 
L 790.220472 186.175882 
L 790.456071 264.083902 
L 790.585824 230.350215 
L 790.613589 260.787151 
L 790.727262 227.588933 
L 790.837713 233.341843 
L 790.853176 264.862456 
L 790.974766 261.455508 
L 791.072859 243.378402 
L 791.387213 238.06404 
L 791.539462 254.441678 
L 791.743257 183.258332 
L 792.18552 226.303383 
L 792.478606 271.82488 
L 792.525846 235.278788 
L 792.607546 258.918181 
L 792.88859 235.458034 
L 792.951132 258.261901 
L 793.216528 234.070741 
L 793.524016 180.111495 
L 793.902044 264.815986 
L 793.979705 254.100054 
L 794.037802 222.76206 
L 794.053654 262.374472 
L 794.287011 293.408495 
L 794.442128 192.922733 
L 794.476938 222.842436 
L 794.597171 238.63163 
L 794.678891 265.869388 
L 794.767958 227.473827 
L 794.895989 246.706112 
L 795.047675 238.441489 
L 795.237158 201.818317 
L 795.558518 245.144355 
L 795.574296 268.36568 
L 795.806564 254.860764 
L 795.933648 257.115035 
L 795.960958 243.184902 
L 795.965168 280.432006 
L 796.208161 277.759758 
L 796.258527 221.080652 
L 796.717727 273.827807 
L 796.721926 207.819375 
L 796.964357 244.364846 
L 797.168432 244.648444 
L 797.319066 224.525273 
L 797.795566 275.546193 
L 797.82637 238.504577 
L 798.072167 295.377893 
L 798.072703 246.717436 
L 798.33707 224.56304 
L 798.47153 169.417871 
L 799.011922 278.867993 
L 799.130499 240.763909 
L 799.196024 269.662969 
L 799.22253 248.531065 
L 799.345197 251.150695 
L 799.72744 212.177654 
L 800.021614 129.661151 
L 800.078648 248.491623 
L 800.09421 247.699357 
L 800.32277 182.968299 
L 800.44865 236.347345 
L 800.69303 221.067738 
L 800.708032 238.162805 
L 801.256143 273.626342 
L 801.453967 180.190404 
L 801.465325 232.946989 
L 801.514893 215.191706 
L 802.183292 284.390047 
L 802.285279 208.746217 
L 802.331125 260.521619 
L 802.683182 203.993368 
L 802.714063 247.951631 
L 802.940825 247.493397 
L 802.952132 274.824795 
L 803.058004 228.621631 
L 803.455512 250.5585 
L 803.485267 216.36204 
L 803.560697 254.733645 
L 803.68177 261.534194 
L 804.040093 236.970532 
L 804.040619 274.558492 
L 804.300269 249.293858 
L 804.341735 252.077323 
L 804.507548 257.650846 
L 804.631855 207.685278 
L 805.079584 264.791635 
L 805.219003 235.173588 
L 805.639429 234.818057 
L 805.665949 285.316548 
L 805.670037 257.827719 
L 805.880033 229.059427 
L 805.894804 266.496317 
L 806.026241 222.163755 
L 806.25077 261.432118 
L 806.251292 219.492209 
L 806.374432 251.882027 
L 806.400895 225.41889 
L 806.434468 271.29694 
L 806.509237 272.480857 
L 806.838649 230.020502 
L 807.28345 235.831684 
L 807.362098 254.62082 
L 807.373258 227.708756 
L 807.447819 263.001323 
L 807.477743 238.139358 
L 807.492964 251.998407 
L 807.717038 223.322659 
L 807.865992 114.957065 
L 808.223941 284.693158 
L 808.447013 267.786196 
L 808.569873 238.123786 
L 808.596165 269.257972 
L 808.600217 218.545184 
L 808.703805 268.679715 
L 808.808398 228.270929 
L 809.175935 235.791075 
L 809.176453 273.202395 
L 809.473015 218.341409 
L 809.666056 257.287379 
L 809.758755 217.54191 
L 809.903294 251.758273 
L 810.158987 197.984599 
L 810.19974 205.22277 
L 810.288778 249.465445 
L 810.3627 222.146409 
L 810.48487 266.965342 
L 810.751175 249.594017 
L 810.777298 265.962982 
L 810.810441 246.352952 
L 810.924916 226.94697 
L 811.061946 271.942889 
L 811.132194 228.352056 
L 811.475181 235.742381 
L 811.505266 212.48745 
L 811.726197 222.434214 
L 811.785293 262.761017 
L 812.223668 208.124942 
L 812.433654 246.629602 
L 812.53259 244.988816 
L 812.56207 228.893053 
L 812.653986 233.185451 
L 812.797818 219.828582 
L 812.977499 239.707572 
L 813.227417 255.048644 
L 813.25284 275.327258 
L 813.282258 222.662321 
L 813.517512 245.223283 
L 813.667945 245.637618 
L 813.873059 262.702253 
L 813.946212 254.751369 
L 813.971582 277.727667 
L 814.590508 248.087923 
L 814.604906 258.042001 
L 814.615831 239.890497 
L 814.809463 243.195302 
L 814.951887 227.616766 
L 815.102204 268.028341 
L 815.203842 228.230274 
L 815.433816 268.669702 
L 815.524968 264.353924 
L 815.667098 292.617904 
L 815.667606 203.748277 
L 815.845796 193.925659 
L 815.958606 238.478942 
L 816.093644 197.540249 
L 816.238995 213.539032 
L 816.52657 273.730748 
L 816.53053 240.080938 
L 816.559163 271.364714 
L 816.671741 203.384325 
L 816.759117 261.90987 
L 816.875586 261.601571 
L 817.093099 274.681251 
L 817.343502 240.668733 
L 817.58684 213.052182 
L 817.923466 290.523131 
L 818.093628 265.652225 
L 818.281893 248.277931 
L 818.690509 226.085579 
L 818.8024 247.116466 
L 818.961344 212.446972 
L 819.005001 271.940023 
L 819.221692 253.50952 
L 819.340261 274.726416 
L 819.365742 233.387296 
L 819.596402 253.877395 
L 819.643401 250.145783 
L 819.668357 289.704842 
L 819.711926 226.233697 
L 820.046509 205.955903 
L 820.075858 248.32451 
L 820.302134 240.596485 
L 820.633243 281.183571 
L 820.780626 240.152111 
L 820.808912 251.548378 
L 820.995721 230.340518 
L 821.078114 243.18365 
L 821.196557 215.102389 
L 821.336393 260.86692 
L 821.336893 199.855094 
L 821.583774 269.358714 
L 821.899081 187.079703 
L 822.324877 217.737082 
L 822.410853 249.746695 
L 822.886487 235.022217 
L 823.086248 245.147777 
L 823.225336 246.120268 
L 823.29994 243.875397 
L 823.556597 239.7709 
L 823.581774 259.821284 
L 823.785021 239.129864 
L 823.799044 246.755887 
L 823.90932 256.557728 
L 823.998291 255.277118 
L 824.137517 207.567781 
L 824.496413 194.243602 
L 824.507033 243.502505 
L 824.606472 242.425918 
L 825.178444 193.903448 
L 825.273833 243.037436 
L 825.316714 222.454295 
L 825.671056 227.742744 
L 825.873111 234.803286 
L 825.897631 281.64174 
L 825.996681 221.455125 
L 826.368613 227.757653 
L 826.580339 257.345326 
L 826.689755 221.414226 
L 827.088754 203.331097 
L 827.469592 253.550495 
L 827.751978 233.573326 
L 827.779713 170.374091 
L 827.949025 249.056485 
L 828.296936 131.030832 
L 828.437831 230.432433 
L 828.441658 216.098443 
L 828.539516 221.906675 
L 828.65216 210.178463 
L 828.708469 235.33465 
L 828.98557 240.093447 
L 829.126195 240.391066 
L 829.266276 214.18774 
L 829.340114 260.110609 
L 829.673374 265.053629 
L 829.844632 223.459169 
L 829.953056 242.034561 
L 830.026754 240.57391 
L 830.149387 254.83036 
L 830.359379 231.576665 
L 830.474287 266.356332 
L 830.722525 249.668974 
L 830.768075 224.009316 
L 831.158771 229.540777 
L 831.183419 286.029148 
L 831.187218 247.61159 
L 831.382392 217.982312 
L 831.406539 247.995879 
L 831.727002 283.830791 
L 831.727488 261.602473 
L 831.967285 203.72515 
L 832.158736 244.791831 
L 832.409606 235.066673 
L 832.687179 242.734759 
L 832.7707 262.099632 
L 832.840044 230.490765 
L 833.228996 252.011843 
L 833.260091 263.047778 
L 833.42685 228.854443 
L 833.450861 262.041869 
L 833.496069 233.986815 
L 833.883838 237.046407 
L 833.908301 239.329177 
L 834.240668 247.572912 
L 834.313016 217.560515 
L 834.447822 237.684615 
L 834.448304 212.058109 
L 834.686312 265.375491 
L 834.797059 249.803813 
L 834.990304 240.075573 
L 835.400851 275.36594 
L 835.473451 215.792614 
L 835.552582 267.505033 
L 835.801125 264.805628 
L 836.20375 240.595863 
L 836.269177 240.880349 
L 836.588655 271.480645 
L 836.616681 248.798336 
L 836.822493 272.3948 
L 836.928856 225.186679 
L 837.289722 245.393797 
L 837.601327 215.765412 
L 837.820555 286.515506 
L 837.821032 258.353051 
L 838.056861 233.574177 
L 838.221449 253.070301 
L 838.245147 245.780584 
L 838.764871 202.974207 
L 838.891564 243.794804 
L 838.956515 224.054222 
L 839.297775 224.037616 
L 839.301491 232.587903 
L 839.560464 261.613824 
L 839.625298 227.839194 
L 839.829437 235.876827 
L 839.829911 283.102059 
L 839.941879 257.463894 
L 839.965941 177.078435 
L 839.99647 246.580799 
L 840.06446 256.408378 
L 840.279 220.26411 
L 840.36404 243.104054 
L 840.663377 245.988874 
L 840.768639 255.270061 
L 840.840188 220.770875 
L 841.298668 267.99951 
L 841.302363 247.461475 
L 841.583428 266.636238 
L 841.624427 230.147073 
L 841.939307 242.751165 
L 841.963241 251.142942 
L 842.156453 236.931685 
L 842.49157 241.794003 
L 842.630311 273.730455 
L 842.937455 215.606422 
L 843.319096 274.16594 
L 843.612864 204.498866 
L 843.683399 268.187549 
L 844.165386 207.111667 
L 844.209301 210.320381 
L 844.273329 268.735113 
L 844.613411 222.480053 
L 844.801596 277.95568 
L 844.932632 245.441421 
L 845.26846 240.379876 
L 845.459972 248.825406 
L 845.660941 249.547556 
L 845.956062 264.523361 
L 846.184079 246.830753 
L 846.234118 227.430666 
L 846.448788 265.682421 
L 846.586071 218.95983 
L 846.84004 259.908254 
L 847.103822 217.779844 
L 847.334317 286.752488 
L 847.428209 256.150991 
L 847.441354 259.742616 
L 847.758187 282.185886 
L 847.758187 282.185886 
" clip-path="url(#p9fc9729afa)" style="fill: none; stroke: #1f77b4; stroke-width: 1.5; stroke-linecap: square"/>
   </g>
   <g id="line2d_36">
    <path d="M 469.863125 242.454584 
L 847.708125 242.454584 
" clip-path="url(#p9fc9729afa)" style="fill: none; stroke-dasharray: 5.55,2.4; stroke-dashoffset: 0; stroke: #000000; stroke-opacity: 0.4; stroke-width: 1.5"/>
   </g>
   <g id="patch_8">
    <path d="M 469.863125 312.04 
L 469.863125 22.32 
" style="fill: none; stroke: #000000; stroke-width: 0.8; stroke-linejoin: miter; stroke-linecap: square"/>
   </g>
   <g id="patch_9">
    <path d="M 847.708125 312.04 
L 847.708125 22.32 
" style="fill: none; stroke: #000000; stroke-width: 0.8; stroke-linejoin: miter; stroke-linecap: square"/>
   </g>
   <g id="patch_10">
    <path d="M 469.863125 312.04 
L 847.708125 312.04 
" style="fill: none; stroke: #000000; stroke-width: 0.8; stroke-linejoin: miter; stroke-linecap: square"/>
   </g>
   <g id="patch_11">
    <path d="M 469.863125 22.32 
L 847.708125 22.32 
" style="fill: none; stroke: #000000; stroke-width: 0.8; stroke-linejoin: miter; stroke-linecap: square"/>
   </g>
   <g id="text_38">
    <!-- SLAB - 3D $S(k)$ -->
    <g transform="translate(615.345625 16.32) scale(0.12 -0.12)">
     <use xlink:href="#DejaVuSans-53" transform="translate(0 0.015625)"/>
     <use xlink:href="#DejaVuSans-4c" transform="translate(63.476562 0.015625)"/>
     <use xlink:href="#DejaVuSans-41" transform="translate(119.189453 0.015625)"/>
     <use xlink:href="#DejaVuSans-42" transform="translate(187.597656 0.015625)"/>
     <use xlink:href="#DejaVuSans-20" transform="translate(256.201172 0.015625)"/>
     <use xlink:href="#DejaVuSans-2d" transform="translate(287.988281 0.015625)"/>
     <use xlink:href="#DejaVuSans-20" transform="translate(324.072266 0.015625)"/>
     <use xlink:href="#DejaVuSans-33" transform="translate(355.859375 0.015625)"/>
     <use xlink:href="#DejaVuSans-44" transform="translate(414.982422 0.015625)"/>
     <use xlink:href="#DejaVuSans-20" transform="translate(491.984375 0.015625)"/>
     <use xlink:href="#DejaVuSans-Oblique-53" transform="translate(523.771484 0.015625)"/>
     <use xlink:href="#DejaVuSans-28" transform="translate(587.248047 0.015625)"/>
     <use xlink:href="#DejaVuSans-Oblique-6b" transform="translate(626.261719 0.015625)"/>
     <use xlink:href="#DejaVuSans-29" transform="translate(684.171875 0.015625)"/>
    </g>
   </g>
  </g>
 </g>
 <defs>
  <clipPath id="p8527ef672a">
   <rect x="43.803125" y="22.32" width="377.845" height="289.72"/>
  </clipPath>
  <clipPath id="p9fc9729afa">
   <rect x="469.863125" y="22.32" width="377.845" height="289.72"/>
  </clipPath>
 </defs>
</svg>
