<?xml version="1.0" encoding="utf-8" standalone="no"?>
<!DOCTYPE svg PUBLIC "-//W3C//DTD SVG 1.1//EN"
  "http://www.w3.org/Graphics/SVG/1.1/DTD/svg11.dtd">
<svg xmlns:xlink="http://www.w3.org/1999/xlink" width="451.708125pt" height="335.93625pt" viewBox="0 0 451.708125 335.93625" xmlns="http://www.w3.org/2000/svg" version="1.1">
 <metadata>
  <rdf:RDF xmlns:dc="http://purl.org/dc/elements/1.1/" xmlns:cc="http://creativecommons.org/ns#" xmlns:rdf="http://www.w3.org/1999/02/22-rdf-syntax-ns#">
   <cc:Work>
    <dc:type rdf:resource="http://purl.org/dc/dcmitype/StillImage"/>
    <dc:date>2025-12-10T14:46:26.432522</dc:date>
    <dc:format>image/svg+xml</dc:format>
    <dc:creator>
     <cc:Agent>
      <dc:title>Matplotlib v3.10.1, https://matplotlib.org/</dc:title>
     </cc:Agent>
    </dc:creator>
   </cc:Work>
  </rdf:RDF>
 </metadata>
 <defs>
  <style type="text/css">*{stroke-linejoin: round; stroke-linecap: butt}</style>
 </defs>
 <g id="figure_1">
  <g id="patch_1">
   <path d="M 0 335.93625 
L 451.708125 335.93625 
L 451.708125 0 
L 0 0 
z
" style="fill: #ffffff"/>
  </g>
  <g id="axes_1">
   <g id="patch_2">
    <path d="M 43.803125 298.358125 
L 444.508125 298.358125 
L 444.508125 22.318125 
L 43.803125 22.318125 
z
" style="fill: #ffffff"/>
   </g>
   <g id="patch_3">
    <path d="M 62.016989 298.358125 
L 68.19118 298.358125 
L 68.19118 293.220107 
L 62.016989 293.220107 
z
" clip-path="url(#p765ba89b2d)" style="fill: #1f77b4; opacity: 0.6; stroke: #000000; stroke-linejoin: miter"/>
   </g>
   <g id="patch_4">
    <path d="M 68.19118 298.358125 
L 74.365371 298.358125 
L 74.365371 282.087736 
L 68.19118 282.087736 
z
" clip-path="url(#p765ba89b2d)" style="fill: #1f77b4; opacity: 0.6; stroke: #000000; stroke-linejoin: miter"/>
   </g>
   <g id="patch_5">
    <path d="M 74.365371 298.358125 
L 80.539562 298.358125 
L 80.539562 269.242691 
L 74.365371 269.242691 
z
" clip-path="url(#p765ba89b2d)" style="fill: #1f77b4; opacity: 0.6; stroke: #000000; stroke-linejoin: miter"/>
   </g>
   <g id="patch_6">
    <path d="M 80.539562 298.358125 
L 86.713753 298.358125 
L 86.713753 261.107497 
L 80.539562 261.107497 
z
" clip-path="url(#p765ba89b2d)" style="fill: #1f77b4; opacity: 0.6; stroke: #000000; stroke-linejoin: miter"/>
   </g>
   <g id="patch_7">
    <path d="M 86.713753 298.358125 
L 92.887944 298.358125 
L 92.887944 236.701913 
L 86.713753 236.701913 
z
" clip-path="url(#p765ba89b2d)" style="fill: #1f77b4; opacity: 0.6; stroke: #000000; stroke-linejoin: miter"/>
   </g>
   <g id="patch_8">
    <path d="M 92.887944 298.358125 
L 99.062135 298.358125 
L 99.062135 223.856869 
L 92.887944 223.856869 
z
" clip-path="url(#p765ba89b2d)" style="fill: #1f77b4; opacity: 0.6; stroke: #000000; stroke-linejoin: miter"/>
   </g>
   <g id="patch_9">
    <path d="M 99.062135 298.358125 
L 105.236326 298.358125 
L 105.236326 193.456931 
L 99.062135 193.456931 
z
" clip-path="url(#p765ba89b2d)" style="fill: #1f77b4; opacity: 0.6; stroke: #000000; stroke-linejoin: miter"/>
   </g>
   <g id="patch_10">
    <path d="M 105.236326 298.358125 
L 111.410517 298.358125 
L 111.410517 191.744258 
L 105.236326 191.744258 
z
" clip-path="url(#p765ba89b2d)" style="fill: #1f77b4; opacity: 0.6; stroke: #000000; stroke-linejoin: miter"/>
   </g>
   <g id="patch_11">
    <path d="M 111.410517 298.358125 
L 117.584708 298.358125 
L 117.584708 165.197833 
L 111.410517 165.197833 
z
" clip-path="url(#p765ba89b2d)" style="fill: #1f77b4; opacity: 0.6; stroke: #000000; stroke-linejoin: miter"/>
   </g>
   <g id="patch_12">
    <path d="M 117.584708 298.358125 
L 123.758899 298.358125 
L 123.758899 157.918975 
L 117.584708 157.918975 
z
" clip-path="url(#p765ba89b2d)" style="fill: #1f77b4; opacity: 0.6; stroke: #000000; stroke-linejoin: miter"/>
   </g>
   <g id="patch_13">
    <path d="M 123.758899 298.358125 
L 129.93309 298.358125 
L 129.93309 116.386665 
L 123.758899 116.386665 
z
" clip-path="url(#p765ba89b2d)" style="fill: #1f77b4; opacity: 0.6; stroke: #000000; stroke-linejoin: miter"/>
   </g>
   <g id="patch_14">
    <path d="M 129.93309 298.358125 
L 136.107281 298.358125 
L 136.107281 109.964143 
L 129.93309 109.964143 
z
" clip-path="url(#p765ba89b2d)" style="fill: #1f77b4; opacity: 0.6; stroke: #000000; stroke-linejoin: miter"/>
   </g>
   <g id="patch_15">
    <path d="M 136.107281 298.358125 
L 142.281472 298.358125 
L 142.281472 87.271232 
L 136.107281 87.271232 
z
" clip-path="url(#p765ba89b2d)" style="fill: #1f77b4; opacity: 0.6; stroke: #000000; stroke-linejoin: miter"/>
   </g>
   <g id="patch_16">
    <path d="M 142.281472 298.358125 
L 148.455664 298.358125 
L 148.455664 88.555736 
L 142.281472 88.555736 
z
" clip-path="url(#p765ba89b2d)" style="fill: #1f77b4; opacity: 0.6; stroke: #000000; stroke-linejoin: miter"/>
   </g>
   <g id="patch_17">
    <path d="M 148.455664 298.358125 
L 154.629855 298.358125 
L 154.629855 38.031896 
L 148.455664 38.031896 
z
" clip-path="url(#p765ba89b2d)" style="fill: #1f77b4; opacity: 0.6; stroke: #000000; stroke-linejoin: miter"/>
   </g>
   <g id="patch_18">
    <path d="M 154.629855 298.358125 
L 160.804046 298.358125 
L 160.804046 42.741745 
L 154.629855 42.741745 
z
" clip-path="url(#p765ba89b2d)" style="fill: #1f77b4; opacity: 0.6; stroke: #000000; stroke-linejoin: miter"/>
   </g>
   <g id="patch_19">
    <path d="M 160.804046 298.358125 
L 166.978237 298.358125 
L 166.978237 51.305108 
L 160.804046 51.305108 
z
" clip-path="url(#p765ba89b2d)" style="fill: #1f77b4; opacity: 0.6; stroke: #000000; stroke-linejoin: miter"/>
   </g>
   <g id="patch_20">
    <path d="M 166.978237 298.358125 
L 173.152428 298.358125 
L 173.152428 35.462887 
L 166.978237 35.462887 
z
" clip-path="url(#p765ba89b2d)" style="fill: #1f77b4; opacity: 0.6; stroke: #000000; stroke-linejoin: miter"/>
   </g>
   <g id="patch_21">
    <path d="M 173.152428 298.358125 
L 179.326619 298.358125 
L 179.326619 36.319223 
L 173.152428 36.319223 
z
" clip-path="url(#p765ba89b2d)" style="fill: #1f77b4; opacity: 0.6; stroke: #000000; stroke-linejoin: miter"/>
   </g>
   <g id="patch_22">
    <path d="M 179.326619 298.358125 
L 185.50081 298.358125 
L 185.50081 52.161444 
L 179.326619 52.161444 
z
" clip-path="url(#p765ba89b2d)" style="fill: #1f77b4; opacity: 0.6; stroke: #000000; stroke-linejoin: miter"/>
   </g>
   <g id="patch_23">
    <path d="M 185.50081 298.358125 
L 191.675001 298.358125 
L 191.675001 62.43748 
L 185.50081 62.43748 
z
" clip-path="url(#p765ba89b2d)" style="fill: #1f77b4; opacity: 0.6; stroke: #000000; stroke-linejoin: miter"/>
   </g>
   <g id="patch_24">
    <path d="M 191.675001 298.358125 
L 197.849192 298.358125 
L 197.849192 74.854356 
L 191.675001 74.854356 
z
" clip-path="url(#p765ba89b2d)" style="fill: #1f77b4; opacity: 0.6; stroke: #000000; stroke-linejoin: miter"/>
   </g>
   <g id="patch_25">
    <path d="M 197.849192 298.358125 
L 204.023383 298.358125 
L 204.023383 72.285347 
L 197.849192 72.285347 
z
" clip-path="url(#p765ba89b2d)" style="fill: #1f77b4; opacity: 0.6; stroke: #000000; stroke-linejoin: miter"/>
   </g>
   <g id="patch_26">
    <path d="M 204.023383 298.358125 
L 210.197574 298.358125 
L 210.197574 103.969789 
L 204.023383 103.969789 
z
" clip-path="url(#p765ba89b2d)" style="fill: #1f77b4; opacity: 0.6; stroke: #000000; stroke-linejoin: miter"/>
   </g>
   <g id="patch_27">
    <path d="M 210.197574 298.358125 
L 216.371765 298.358125 
L 216.371765 120.240179 
L 210.197574 120.240179 
z
" clip-path="url(#p765ba89b2d)" style="fill: #1f77b4; opacity: 0.6; stroke: #000000; stroke-linejoin: miter"/>
   </g>
   <g id="patch_28">
    <path d="M 216.371765 298.358125 
L 222.545956 298.358125 
L 222.545956 122.809188 
L 216.371765 122.809188 
z
" clip-path="url(#p765ba89b2d)" style="fill: #1f77b4; opacity: 0.6; stroke: #000000; stroke-linejoin: miter"/>
   </g>
   <g id="patch_29">
    <path d="M 222.545956 298.358125 
L 228.720147 298.358125 
L 228.720147 141.220418 
L 222.545956 141.220418 
z
" clip-path="url(#p765ba89b2d)" style="fill: #1f77b4; opacity: 0.6; stroke: #000000; stroke-linejoin: miter"/>
   </g>
   <g id="patch_30">
    <path d="M 228.720147 298.358125 
L 234.894338 298.358125 
L 234.894338 165.626002 
L 228.720147 165.626002 
z
" clip-path="url(#p765ba89b2d)" style="fill: #1f77b4; opacity: 0.6; stroke: #000000; stroke-linejoin: miter"/>
   </g>
   <g id="patch_31">
    <path d="M 234.894338 298.358125 
L 241.068529 298.358125 
L 241.068529 180.611886 
L 234.894338 180.611886 
z
" clip-path="url(#p765ba89b2d)" style="fill: #1f77b4; opacity: 0.6; stroke: #000000; stroke-linejoin: miter"/>
   </g>
   <g id="patch_32">
    <path d="M 241.068529 298.358125 
L 247.242721 298.358125 
L 247.242721 198.594948 
L 241.068529 198.594948 
z
" clip-path="url(#p765ba89b2d)" style="fill: #1f77b4; opacity: 0.6; stroke: #000000; stroke-linejoin: miter"/>
   </g>
   <g id="patch_33">
    <path d="M 247.242721 298.358125 
L 253.416912 298.358125 
L 253.416912 198.594948 
L 247.242721 198.594948 
z
" clip-path="url(#p765ba89b2d)" style="fill: #1f77b4; opacity: 0.6; stroke: #000000; stroke-linejoin: miter"/>
   </g>
   <g id="patch_34">
    <path d="M 253.416912 298.358125 
L 259.591103 298.358125 
L 259.591103 204.589302 
L 253.416912 204.589302 
z
" clip-path="url(#p765ba89b2d)" style="fill: #1f77b4; opacity: 0.6; stroke: #000000; stroke-linejoin: miter"/>
   </g>
   <g id="patch_35">
    <path d="M 259.591103 298.358125 
L 265.765294 298.358125 
L 265.765294 219.575187 
L 259.591103 219.575187 
z
" clip-path="url(#p765ba89b2d)" style="fill: #1f77b4; opacity: 0.6; stroke: #000000; stroke-linejoin: miter"/>
   </g>
   <g id="patch_36">
    <path d="M 265.765294 298.358125 
L 271.939485 298.358125 
L 271.939485 226.425877 
L 265.765294 226.425877 
z
" clip-path="url(#p765ba89b2d)" style="fill: #1f77b4; opacity: 0.6; stroke: #000000; stroke-linejoin: miter"/>
   </g>
   <g id="patch_37">
    <path d="M 271.939485 298.358125 
L 278.113676 298.358125 
L 278.113676 240.555426 
L 271.939485 240.555426 
z
" clip-path="url(#p765ba89b2d)" style="fill: #1f77b4; opacity: 0.6; stroke: #000000; stroke-linejoin: miter"/>
   </g>
   <g id="patch_38">
    <path d="M 278.113676 298.358125 
L 284.287867 298.358125 
L 284.287867 255.113143 
L 278.113676 255.113143 
z
" clip-path="url(#p765ba89b2d)" style="fill: #1f77b4; opacity: 0.6; stroke: #000000; stroke-linejoin: miter"/>
   </g>
   <g id="patch_39">
    <path d="M 284.287867 298.358125 
L 290.462058 298.358125 
L 290.462058 253.828638 
L 284.287867 253.828638 
z
" clip-path="url(#p765ba89b2d)" style="fill: #1f77b4; opacity: 0.6; stroke: #000000; stroke-linejoin: miter"/>
   </g>
   <g id="patch_40">
    <path d="M 290.462058 298.358125 
L 296.636249 298.358125 
L 296.636249 264.532842 
L 290.462058 264.532842 
z
" clip-path="url(#p765ba89b2d)" style="fill: #1f77b4; opacity: 0.6; stroke: #000000; stroke-linejoin: miter"/>
   </g>
   <g id="patch_41">
    <path d="M 296.636249 298.358125 
L 302.81044 298.358125 
L 302.81044 263.676506 
L 296.636249 263.676506 
z
" clip-path="url(#p765ba89b2d)" style="fill: #1f77b4; opacity: 0.6; stroke: #000000; stroke-linejoin: miter"/>
   </g>
   <g id="patch_42">
    <path d="M 302.81044 298.358125 
L 308.984631 298.358125 
L 308.984631 270.527196 
L 302.81044 270.527196 
z
" clip-path="url(#p765ba89b2d)" style="fill: #1f77b4; opacity: 0.6; stroke: #000000; stroke-linejoin: miter"/>
   </g>
   <g id="patch_43">
    <path d="M 308.984631 298.358125 
L 315.158822 298.358125 
L 315.158822 274.380709 
L 308.984631 274.380709 
z
" clip-path="url(#p765ba89b2d)" style="fill: #1f77b4; opacity: 0.6; stroke: #000000; stroke-linejoin: miter"/>
   </g>
   <g id="patch_44">
    <path d="M 315.158822 298.358125 
L 321.333013 298.358125 
L 321.333013 280.803231 
L 315.158822 280.803231 
z
" clip-path="url(#p765ba89b2d)" style="fill: #1f77b4; opacity: 0.6; stroke: #000000; stroke-linejoin: miter"/>
   </g>
   <g id="patch_45">
    <path d="M 321.333013 298.358125 
L 327.507204 298.358125 
L 327.507204 279.946895 
L 321.333013 279.946895 
z
" clip-path="url(#p765ba89b2d)" style="fill: #1f77b4; opacity: 0.6; stroke: #000000; stroke-linejoin: miter"/>
   </g>
   <g id="patch_46">
    <path d="M 327.507204 298.358125 
L 333.681395 298.358125 
L 333.681395 285.513081 
L 327.507204 285.513081 
z
" clip-path="url(#p765ba89b2d)" style="fill: #1f77b4; opacity: 0.6; stroke: #000000; stroke-linejoin: miter"/>
   </g>
   <g id="patch_47">
    <path d="M 333.681395 298.358125 
L 339.855586 298.358125 
L 339.855586 288.938426 
L 333.681395 288.938426 
z
" clip-path="url(#p765ba89b2d)" style="fill: #1f77b4; opacity: 0.6; stroke: #000000; stroke-linejoin: miter"/>
   </g>
   <g id="patch_48">
    <path d="M 339.855586 298.358125 
L 346.029778 298.358125 
L 346.029778 292.363771 
L 339.855586 292.363771 
z
" clip-path="url(#p765ba89b2d)" style="fill: #1f77b4; opacity: 0.6; stroke: #000000; stroke-linejoin: miter"/>
   </g>
   <g id="patch_49">
    <path d="M 346.029778 298.358125 
L 352.203969 298.358125 
L 352.203969 289.366594 
L 346.029778 289.366594 
z
" clip-path="url(#p765ba89b2d)" style="fill: #1f77b4; opacity: 0.6; stroke: #000000; stroke-linejoin: miter"/>
   </g>
   <g id="patch_50">
    <path d="M 352.203969 298.358125 
L 358.37816 298.358125 
L 358.37816 292.791939 
L 352.203969 292.791939 
z
" clip-path="url(#p765ba89b2d)" style="fill: #1f77b4; opacity: 0.6; stroke: #000000; stroke-linejoin: miter"/>
   </g>
   <g id="patch_51">
    <path d="M 358.37816 298.358125 
L 364.552351 298.358125 
L 364.552351 295.789116 
L 358.37816 295.789116 
z
" clip-path="url(#p765ba89b2d)" style="fill: #1f77b4; opacity: 0.6; stroke: #000000; stroke-linejoin: miter"/>
   </g>
   <g id="patch_52">
    <path d="M 364.552351 298.358125 
L 370.726542 298.358125 
L 370.726542 295.789116 
L 364.552351 295.789116 
z
" clip-path="url(#p765ba89b2d)" style="fill: #1f77b4; opacity: 0.6; stroke: #000000; stroke-linejoin: miter"/>
   </g>
   <g id="patch_53">
    <path d="M 370.726542 298.358125 
L 376.900733 298.358125 
L 376.900733 296.217284 
L 370.726542 296.217284 
z
" clip-path="url(#p765ba89b2d)" style="fill: #1f77b4; opacity: 0.6; stroke: #000000; stroke-linejoin: miter"/>
   </g>
   <g id="patch_54">
    <path d="M 376.900733 298.358125 
L 383.074924 298.358125 
L 383.074924 294.93278 
L 376.900733 294.93278 
z
" clip-path="url(#p765ba89b2d)" style="fill: #1f77b4; opacity: 0.6; stroke: #000000; stroke-linejoin: miter"/>
   </g>
   <g id="patch_55">
    <path d="M 383.074924 298.358125 
L 389.249115 298.358125 
L 389.249115 296.645452 
L 383.074924 296.645452 
z
" clip-path="url(#p765ba89b2d)" style="fill: #1f77b4; opacity: 0.6; stroke: #000000; stroke-linejoin: miter"/>
   </g>
   <g id="patch_56">
    <path d="M 389.249115 298.358125 
L 395.423306 298.358125 
L 395.423306 297.929957 
L 389.249115 297.929957 
z
" clip-path="url(#p765ba89b2d)" style="fill: #1f77b4; opacity: 0.6; stroke: #000000; stroke-linejoin: miter"/>
   </g>
   <g id="patch_57">
    <path d="M 395.423306 298.358125 
L 401.597497 298.358125 
L 401.597497 297.929957 
L 395.423306 297.929957 
z
" clip-path="url(#p765ba89b2d)" style="fill: #1f77b4; opacity: 0.6; stroke: #000000; stroke-linejoin: miter"/>
   </g>
   <g id="patch_58">
    <path d="M 401.597497 298.358125 
L 407.771688 298.358125 
L 407.771688 297.501789 
L 401.597497 297.501789 
z
" clip-path="url(#p765ba89b2d)" style="fill: #1f77b4; opacity: 0.6; stroke: #000000; stroke-linejoin: miter"/>
   </g>
   <g id="patch_59">
    <path d="M 407.771688 298.358125 
L 413.945879 298.358125 
L 413.945879 297.073621 
L 407.771688 297.073621 
z
" clip-path="url(#p765ba89b2d)" style="fill: #1f77b4; opacity: 0.6; stroke: #000000; stroke-linejoin: miter"/>
   </g>
   <g id="patch_60">
    <path d="M 413.945879 298.358125 
L 420.12007 298.358125 
L 420.12007 297.929957 
L 413.945879 297.929957 
z
" clip-path="url(#p765ba89b2d)" style="fill: #1f77b4; opacity: 0.6; stroke: #000000; stroke-linejoin: miter"/>
   </g>
   <g id="patch_61">
    <path d="M 420.12007 298.358125 
L 426.294261 298.358125 
L 426.294261 297.929957 
L 420.12007 297.929957 
z
" clip-path="url(#p765ba89b2d)" style="fill: #1f77b4; opacity: 0.6; stroke: #000000; stroke-linejoin: miter"/>
   </g>
   <g id="matplotlib.axis_1">
    <g id="xtick_1">
     <g id="line2d_1">
      <defs>
       <path id="m8ffaf49701" d="M 0 0 
L 0 3.5 
" style="stroke: #000000; stroke-width: 0.8"/>
      </defs>
      <g>
       <use xlink:href="#m8ffaf49701" x="54.497043" y="298.358125" style="stroke: #000000; stroke-width: 0.8"/>
      </g>
     </g>
     <g id="text_1">
      <!-- 0 -->
      <g transform="translate(51.315793 312.956562) scale(0.1 -0.1)">
       <defs>
        <path id="DejaVuSans-30" d="M 2034 4250 
Q 1547 4250 1301 3770 
Q 1056 3291 1056 2328 
Q 1056 1369 1301 889 
Q 1547 409 2034 409 
Q 2525 409 2770 889 
Q 3016 1369 3016 2328 
Q 3016 3291 2770 3770 
Q 2525 4250 2034 4250 
z
M 2034 4750 
Q 2819 4750 3233 4129 
Q 3647 3509 3647 2328 
Q 3647 1150 3233 529 
Q 2819 -91 2034 -91 
Q 1250 -91 836 529 
Q 422 1150 422 2328 
Q 422 3509 836 4129 
Q 1250 4750 2034 4750 
z
" transform="scale(0.015625)"/>
       </defs>
       <use xlink:href="#DejaVuSans-30"/>
      </g>
     </g>
    </g>
    <g id="xtick_2">
     <g id="line2d_2">
      <g>
       <use xlink:href="#m8ffaf49701" x="111.831213" y="298.358125" style="stroke: #000000; stroke-width: 0.8"/>
      </g>
     </g>
     <g id="text_2">
      <!-- 1 -->
      <g transform="translate(108.649963 312.956562) scale(0.1 -0.1)">
       <defs>
        <path id="DejaVuSans-31" d="M 794 531 
L 1825 531 
L 1825 4091 
L 703 3866 
L 703 4441 
L 1819 4666 
L 2450 4666 
L 2450 531 
L 3481 531 
L 3481 0 
L 794 0 
L 794 531 
z
" transform="scale(0.015625)"/>
       </defs>
       <use xlink:href="#DejaVuSans-31"/>
      </g>
     </g>
    </g>
    <g id="xtick_3">
     <g id="line2d_3">
      <g>
       <use xlink:href="#m8ffaf49701" x="169.165383" y="298.358125" style="stroke: #000000; stroke-width: 0.8"/>
      </g>
     </g>
     <g id="text_3">
      <!-- 2 -->
      <g transform="translate(165.984133 312.956562) scale(0.1 -0.1)">
       <defs>
        <path id="DejaVuSans-32" d="M 1228 531 
L 3431 531 
L 3431 0 
L 469 0 
L 469 531 
Q 828 903 1448 1529 
Q 2069 2156 2228 2338 
Q 2531 2678 2651 2914 
Q 2772 3150 2772 3378 
Q 2772 3750 2511 3984 
Q 2250 4219 1831 4219 
Q 1534 4219 1204 4116 
Q 875 4013 500 3803 
L 500 4441 
Q 881 4594 1212 4672 
Q 1544 4750 1819 4750 
Q 2544 4750 2975 4387 
Q 3406 4025 3406 3419 
Q 3406 3131 3298 2873 
Q 3191 2616 2906 2266 
Q 2828 2175 2409 1742 
Q 1991 1309 1228 531 
z
" transform="scale(0.015625)"/>
       </defs>
       <use xlink:href="#DejaVuSans-32"/>
      </g>
     </g>
    </g>
    <g id="xtick_4">
     <g id="line2d_4">
      <g>
       <use xlink:href="#m8ffaf49701" x="226.499553" y="298.358125" style="stroke: #000000; stroke-width: 0.8"/>
      </g>
     </g>
     <g id="text_4">
      <!-- 3 -->
      <g transform="translate(223.318303 312.956562) scale(0.1 -0.1)">
       <defs>
        <path id="DejaVuSans-33" d="M 2597 2516 
Q 3050 2419 3304 2112 
Q 3559 1806 3559 1356 
Q 3559 666 3084 287 
Q 2609 -91 1734 -91 
Q 1441 -91 1130 -33 
Q 819 25 488 141 
L 488 750 
Q 750 597 1062 519 
Q 1375 441 1716 441 
Q 2309 441 2620 675 
Q 2931 909 2931 1356 
Q 2931 1769 2642 2001 
Q 2353 2234 1838 2234 
L 1294 2234 
L 1294 2753 
L 1863 2753 
Q 2328 2753 2575 2939 
Q 2822 3125 2822 3475 
Q 2822 3834 2567 4026 
Q 2313 4219 1838 4219 
Q 1578 4219 1281 4162 
Q 984 4106 628 3988 
L 628 4550 
Q 988 4650 1302 4700 
Q 1616 4750 1894 4750 
Q 2613 4750 3031 4423 
Q 3450 4097 3450 3541 
Q 3450 3153 3228 2886 
Q 3006 2619 2597 2516 
z
" transform="scale(0.015625)"/>
       </defs>
       <use xlink:href="#DejaVuSans-33"/>
      </g>
     </g>
    </g>
    <g id="xtick_5">
     <g id="line2d_5">
      <g>
       <use xlink:href="#m8ffaf49701" x="283.833723" y="298.358125" style="stroke: #000000; stroke-width: 0.8"/>
      </g>
     </g>
     <g id="text_5">
      <!-- 4 -->
      <g transform="translate(280.652473 312.956562) scale(0.1 -0.1)">
       <defs>
        <path id="DejaVuSans-34" d="M 2419 4116 
L 825 1625 
L 2419 1625 
L 2419 4116 
z
M 2253 4666 
L 3047 4666 
L 3047 1625 
L 3713 1625 
L 3713 1100 
L 3047 1100 
L 3047 0 
L 2419 0 
L 2419 1100 
L 313 1100 
L 313 1709 
L 2253 4666 
z
" transform="scale(0.015625)"/>
       </defs>
       <use xlink:href="#DejaVuSans-34"/>
      </g>
     </g>
    </g>
    <g id="xtick_6">
     <g id="line2d_6">
      <g>
       <use xlink:href="#m8ffaf49701" x="341.167893" y="298.358125" style="stroke: #000000; stroke-width: 0.8"/>
      </g>
     </g>
     <g id="text_6">
      <!-- 5 -->
      <g transform="translate(337.986643 312.956562) scale(0.1 -0.1)">
       <defs>
        <path id="DejaVuSans-35" d="M 691 4666 
L 3169 4666 
L 3169 4134 
L 1269 4134 
L 1269 2991 
Q 1406 3038 1543 3061 
Q 1681 3084 1819 3084 
Q 2600 3084 3056 2656 
Q 3513 2228 3513 1497 
Q 3513 744 3044 326 
Q 2575 -91 1722 -91 
Q 1428 -91 1123 -41 
Q 819 9 494 109 
L 494 744 
Q 775 591 1075 516 
Q 1375 441 1709 441 
Q 2250 441 2565 725 
Q 2881 1009 2881 1497 
Q 2881 1984 2565 2268 
Q 2250 2553 1709 2553 
Q 1456 2553 1204 2497 
Q 953 2441 691 2322 
L 691 4666 
z
" transform="scale(0.015625)"/>
       </defs>
       <use xlink:href="#DejaVuSans-35"/>
      </g>
     </g>
    </g>
    <g id="xtick_7">
     <g id="line2d_7">
      <g>
       <use xlink:href="#m8ffaf49701" x="398.502063" y="298.358125" style="stroke: #000000; stroke-width: 0.8"/>
      </g>
     </g>
     <g id="text_7">
      <!-- 6 -->
      <g transform="translate(395.320813 312.956562) scale(0.1 -0.1)">
       <defs>
        <path id="DejaVuSans-36" d="M 2113 2584 
Q 1688 2584 1439 2293 
Q 1191 2003 1191 1497 
Q 1191 994 1439 701 
Q 1688 409 2113 409 
Q 2538 409 2786 701 
Q 3034 994 3034 1497 
Q 3034 2003 2786 2293 
Q 2538 2584 2113 2584 
z
M 3366 4563 
L 3366 3988 
Q 3128 4100 2886 4159 
Q 2644 4219 2406 4219 
Q 1781 4219 1451 3797 
Q 1122 3375 1075 2522 
Q 1259 2794 1537 2939 
Q 1816 3084 2150 3084 
Q 2853 3084 3261 2657 
Q 3669 2231 3669 1497 
Q 3669 778 3244 343 
Q 2819 -91 2113 -91 
Q 1303 -91 875 529 
Q 447 1150 447 2328 
Q 447 3434 972 4092 
Q 1497 4750 2381 4750 
Q 2619 4750 2861 4703 
Q 3103 4656 3366 4563 
z
" transform="scale(0.015625)"/>
       </defs>
       <use xlink:href="#DejaVuSans-36"/>
      </g>
     </g>
    </g>
    <g id="text_8">
     <!-- Speed $v$ (reduced units) -->
     <g transform="translate(184.055625 326.63625) scale(0.1 -0.1)">
      <defs>
       <path id="DejaVuSans-53" d="M 3425 4513 
L 3425 3897 
Q 3066 4069 2747 4153 
Q 2428 4238 2131 4238 
Q 1616 4238 1336 4038 
Q 1056 3838 1056 3469 
Q 1056 3159 1242 3001 
Q 1428 2844 1947 2747 
L 2328 2669 
Q 3034 2534 3370 2195 
Q 3706 1856 3706 1288 
Q 3706 609 3251 259 
Q 2797 -91 1919 -91 
Q 1588 -91 1214 -16 
Q 841 59 441 206 
L 441 856 
Q 825 641 1194 531 
Q 1563 422 1919 422 
Q 2459 422 2753 634 
Q 3047 847 3047 1241 
Q 3047 1584 2836 1778 
Q 2625 1972 2144 2069 
L 1759 2144 
Q 1053 2284 737 2584 
Q 422 2884 422 3419 
Q 422 4038 858 4394 
Q 1294 4750 2059 4750 
Q 2388 4750 2728 4690 
Q 3069 4631 3425 4513 
z
" transform="scale(0.015625)"/>
       <path id="DejaVuSans-70" d="M 1159 525 
L 1159 -1331 
L 581 -1331 
L 581 3500 
L 1159 3500 
L 1159 2969 
Q 1341 3281 1617 3432 
Q 1894 3584 2278 3584 
Q 2916 3584 3314 3078 
Q 3713 2572 3713 1747 
Q 3713 922 3314 415 
Q 2916 -91 2278 -91 
Q 1894 -91 1617 61 
Q 1341 213 1159 525 
z
M 3116 1747 
Q 3116 2381 2855 2742 
Q 2594 3103 2138 3103 
Q 1681 3103 1420 2742 
Q 1159 2381 1159 1747 
Q 1159 1113 1420 752 
Q 1681 391 2138 391 
Q 2594 391 2855 752 
Q 3116 1113 3116 1747 
z
" transform="scale(0.015625)"/>
       <path id="DejaVuSans-65" d="M 3597 1894 
L 3597 1613 
L 953 1613 
Q 991 1019 1311 708 
Q 1631 397 2203 397 
Q 2534 397 2845 478 
Q 3156 559 3463 722 
L 3463 178 
Q 3153 47 2828 -22 
Q 2503 -91 2169 -91 
Q 1331 -91 842 396 
Q 353 884 353 1716 
Q 353 2575 817 3079 
Q 1281 3584 2069 3584 
Q 2775 3584 3186 3129 
Q 3597 2675 3597 1894 
z
M 3022 2063 
Q 3016 2534 2758 2815 
Q 2500 3097 2075 3097 
Q 1594 3097 1305 2825 
Q 1016 2553 972 2059 
L 3022 2063 
z
" transform="scale(0.015625)"/>
       <path id="DejaVuSans-64" d="M 2906 2969 
L 2906 4863 
L 3481 4863 
L 3481 0 
L 2906 0 
L 2906 525 
Q 2725 213 2448 61 
Q 2172 -91 1784 -91 
Q 1150 -91 751 415 
Q 353 922 353 1747 
Q 353 2572 751 3078 
Q 1150 3584 1784 3584 
Q 2172 3584 2448 3432 
Q 2725 3281 2906 2969 
z
M 947 1747 
Q 947 1113 1208 752 
Q 1469 391 1925 391 
Q 2381 391 2643 752 
Q 2906 1113 2906 1747 
Q 2906 2381 2643 2742 
Q 2381 3103 1925 3103 
Q 1469 3103 1208 2742 
Q 947 2381 947 1747 
z
" transform="scale(0.015625)"/>
       <path id="DejaVuSans-20" transform="scale(0.015625)"/>
       <path id="DejaVuSans-Oblique-76" d="M 459 3500 
L 1069 3500 
L 1581 525 
L 3256 3500 
L 3866 3500 
L 1875 0 
L 1100 0 
L 459 3500 
z
" transform="scale(0.015625)"/>
       <path id="DejaVuSans-28" d="M 1984 4856 
Q 1566 4138 1362 3434 
Q 1159 2731 1159 2009 
Q 1159 1288 1364 580 
Q 1569 -128 1984 -844 
L 1484 -844 
Q 1016 -109 783 600 
Q 550 1309 550 2009 
Q 550 2706 781 3412 
Q 1013 4119 1484 4856 
L 1984 4856 
z
" transform="scale(0.015625)"/>
       <path id="DejaVuSans-72" d="M 2631 2963 
Q 2534 3019 2420 3045 
Q 2306 3072 2169 3072 
Q 1681 3072 1420 2755 
Q 1159 2438 1159 1844 
L 1159 0 
L 581 0 
L 581 3500 
L 1159 3500 
L 1159 2956 
Q 1341 3275 1631 3429 
Q 1922 3584 2338 3584 
Q 2397 3584 2469 3576 
Q 2541 3569 2628 3553 
L 2631 2963 
z
" transform="scale(0.015625)"/>
       <path id="DejaVuSans-75" d="M 544 1381 
L 544 3500 
L 1119 3500 
L 1119 1403 
Q 1119 906 1312 657 
Q 1506 409 1894 409 
Q 2359 409 2629 706 
Q 2900 1003 2900 1516 
L 2900 3500 
L 3475 3500 
L 3475 0 
L 2900 0 
L 2900 538 
Q 2691 219 2414 64 
Q 2138 -91 1772 -91 
Q 1169 -91 856 284 
Q 544 659 544 1381 
z
M 1991 3584 
L 1991 3584 
z
" transform="scale(0.015625)"/>
       <path id="DejaVuSans-63" d="M 3122 3366 
L 3122 2828 
Q 2878 2963 2633 3030 
Q 2388 3097 2138 3097 
Q 1578 3097 1268 2742 
Q 959 2388 959 1747 
Q 959 1106 1268 751 
Q 1578 397 2138 397 
Q 2388 397 2633 464 
Q 2878 531 3122 666 
L 3122 134 
Q 2881 22 2623 -34 
Q 2366 -91 2075 -91 
Q 1284 -91 818 406 
Q 353 903 353 1747 
Q 353 2603 823 3093 
Q 1294 3584 2113 3584 
Q 2378 3584 2631 3529 
Q 2884 3475 3122 3366 
z
" transform="scale(0.015625)"/>
       <path id="DejaVuSans-6e" d="M 3513 2113 
L 3513 0 
L 2938 0 
L 2938 2094 
Q 2938 2591 2744 2837 
Q 2550 3084 2163 3084 
Q 1697 3084 1428 2787 
Q 1159 2491 1159 1978 
L 1159 0 
L 581 0 
L 581 3500 
L 1159 3500 
L 1159 2956 
Q 1366 3272 1645 3428 
Q 1925 3584 2291 3584 
Q 2894 3584 3203 3211 
Q 3513 2838 3513 2113 
z
" transform="scale(0.015625)"/>
       <path id="DejaVuSans-69" d="M 603 3500 
L 1178 3500 
L 1178 0 
L 603 0 
L 603 3500 
z
M 603 4863 
L 1178 4863 
L 1178 4134 
L 603 4134 
L 603 4863 
z
" transform="scale(0.015625)"/>
       <path id="DejaVuSans-74" d="M 1172 4494 
L 1172 3500 
L 2356 3500 
L 2356 3053 
L 1172 3053 
L 1172 1153 
Q 1172 725 1289 603 
Q 1406 481 1766 481 
L 2356 481 
L 2356 0 
L 1766 0 
Q 1100 0 847 248 
Q 594 497 594 1153 
L 594 3053 
L 172 3053 
L 172 3500 
L 594 3500 
L 594 4494 
L 1172 4494 
z
" transform="scale(0.015625)"/>
       <path id="DejaVuSans-73" d="M 2834 3397 
L 2834 2853 
Q 2591 2978 2328 3040 
Q 2066 3103 1784 3103 
Q 1356 3103 1142 2972 
Q 928 2841 928 2578 
Q 928 2378 1081 2264 
Q 1234 2150 1697 2047 
L 1894 2003 
Q 2506 1872 2764 1633 
Q 3022 1394 3022 966 
Q 3022 478 2636 193 
Q 2250 -91 1575 -91 
Q 1294 -91 989 -36 
Q 684 19 347 128 
L 347 722 
Q 666 556 975 473 
Q 1284 391 1588 391 
Q 1994 391 2212 530 
Q 2431 669 2431 922 
Q 2431 1156 2273 1281 
Q 2116 1406 1581 1522 
L 1381 1569 
Q 847 1681 609 1914 
Q 372 2147 372 2553 
Q 372 3047 722 3315 
Q 1072 3584 1716 3584 
Q 2034 3584 2315 3537 
Q 2597 3491 2834 3397 
z
" transform="scale(0.015625)"/>
       <path id="DejaVuSans-29" d="M 513 4856 
L 1013 4856 
Q 1481 4119 1714 3412 
Q 1947 2706 1947 2009 
Q 1947 1309 1714 600 
Q 1481 -109 1013 -844 
L 513 -844 
Q 928 -128 1133 580 
Q 1338 1288 1338 2009 
Q 1338 2731 1133 3434 
Q 928 4138 513 4856 
z
" transform="scale(0.015625)"/>
      </defs>
      <use xlink:href="#DejaVuSans-53" transform="translate(0 0.015625)"/>
      <use xlink:href="#DejaVuSans-70" transform="translate(63.476562 0.015625)"/>
      <use xlink:href="#DejaVuSans-65" transform="translate(126.953125 0.015625)"/>
      <use xlink:href="#DejaVuSans-65" transform="translate(188.476562 0.015625)"/>
      <use xlink:href="#DejaVuSans-64" transform="translate(250 0.015625)"/>
      <use xlink:href="#DejaVuSans-20" transform="translate(313.476562 0.015625)"/>
      <use xlink:href="#DejaVuSans-Oblique-76" transform="translate(345.263672 0.015625)"/>
      <use xlink:href="#DejaVuSans-20" transform="translate(404.443359 0.015625)"/>
      <use xlink:href="#DejaVuSans-28" transform="translate(436.230469 0.015625)"/>
      <use xlink:href="#DejaVuSans-72" transform="translate(475.244141 0.015625)"/>
      <use xlink:href="#DejaVuSans-65" transform="translate(516.357422 0.015625)"/>
      <use xlink:href="#DejaVuSans-64" transform="translate(577.880859 0.015625)"/>
      <use xlink:href="#DejaVuSans-75" transform="translate(641.357422 0.015625)"/>
      <use xlink:href="#DejaVuSans-63" transform="translate(704.736328 0.015625)"/>
      <use xlink:href="#DejaVuSans-65" transform="translate(759.716797 0.015625)"/>
      <use xlink:href="#DejaVuSans-64" transform="translate(821.240234 0.015625)"/>
      <use xlink:href="#DejaVuSans-20" transform="translate(884.716797 0.015625)"/>
      <use xlink:href="#DejaVuSans-75" transform="translate(916.503906 0.015625)"/>
      <use xlink:href="#DejaVuSans-6e" transform="translate(979.882812 0.015625)"/>
      <use xlink:href="#DejaVuSans-69" transform="translate(1043.261719 0.015625)"/>
      <use xlink:href="#DejaVuSans-74" transform="translate(1071.044922 0.015625)"/>
      <use xlink:href="#DejaVuSans-73" transform="translate(1110.253906 0.015625)"/>
      <use xlink:href="#DejaVuSans-29" transform="translate(1162.353516 0.015625)"/>
     </g>
    </g>
   </g>
   <g id="matplotlib.axis_2">
    <g id="ytick_1">
     <g id="line2d_8">
      <defs>
       <path id="m6c248ca56d" d="M 0 0 
L -3.5 0 
" style="stroke: #000000; stroke-width: 0.8"/>
      </defs>
      <g>
       <use xlink:href="#m6c248ca56d" x="43.803125" y="298.358125" style="stroke: #000000; stroke-width: 0.8"/>
      </g>
     </g>
     <g id="text_9">
      <!-- 0.0 -->
      <g transform="translate(20.9 302.157344) scale(0.1 -0.1)">
       <defs>
        <path id="DejaVuSans-2e" d="M 684 794 
L 1344 794 
L 1344 0 
L 684 0 
L 684 794 
z
" transform="scale(0.015625)"/>
       </defs>
       <use xlink:href="#DejaVuSans-30"/>
       <use xlink:href="#DejaVuSans-2e" transform="translate(63.623047 0)"/>
       <use xlink:href="#DejaVuSans-30" transform="translate(95.410156 0)"/>
      </g>
     </g>
    </g>
    <g id="ytick_2">
     <g id="line2d_9">
      <g>
       <use xlink:href="#m6c248ca56d" x="43.803125" y="239.33926" style="stroke: #000000; stroke-width: 0.8"/>
      </g>
     </g>
     <g id="text_10">
      <!-- 0.1 -->
      <g transform="translate(20.9 243.138479) scale(0.1 -0.1)">
       <use xlink:href="#DejaVuSans-30"/>
       <use xlink:href="#DejaVuSans-2e" transform="translate(63.623047 0)"/>
       <use xlink:href="#DejaVuSans-31" transform="translate(95.410156 0)"/>
      </g>
     </g>
    </g>
    <g id="ytick_3">
     <g id="line2d_10">
      <g>
       <use xlink:href="#m6c248ca56d" x="43.803125" y="180.320395" style="stroke: #000000; stroke-width: 0.8"/>
      </g>
     </g>
     <g id="text_11">
      <!-- 0.2 -->
      <g transform="translate(20.9 184.119613) scale(0.1 -0.1)">
       <use xlink:href="#DejaVuSans-30"/>
       <use xlink:href="#DejaVuSans-2e" transform="translate(63.623047 0)"/>
       <use xlink:href="#DejaVuSans-32" transform="translate(95.410156 0)"/>
      </g>
     </g>
    </g>
    <g id="ytick_4">
     <g id="line2d_11">
      <g>
       <use xlink:href="#m6c248ca56d" x="43.803125" y="121.30153" style="stroke: #000000; stroke-width: 0.8"/>
      </g>
     </g>
     <g id="text_12">
      <!-- 0.3 -->
      <g transform="translate(20.9 125.100748) scale(0.1 -0.1)">
       <use xlink:href="#DejaVuSans-30"/>
       <use xlink:href="#DejaVuSans-2e" transform="translate(63.623047 0)"/>
       <use xlink:href="#DejaVuSans-33" transform="translate(95.410156 0)"/>
      </g>
     </g>
    </g>
    <g id="ytick_5">
     <g id="line2d_12">
      <g>
       <use xlink:href="#m6c248ca56d" x="43.803125" y="62.282664" style="stroke: #000000; stroke-width: 0.8"/>
      </g>
     </g>
     <g id="text_13">
      <!-- 0.4 -->
      <g transform="translate(20.9 66.081883) scale(0.1 -0.1)">
       <use xlink:href="#DejaVuSans-30"/>
       <use xlink:href="#DejaVuSans-2e" transform="translate(63.623047 0)"/>
       <use xlink:href="#DejaVuSans-34" transform="translate(95.410156 0)"/>
      </g>
     </g>
    </g>
    <g id="text_14">
     <!-- Probability density $f(v)$ -->
     <g transform="translate(14.8 217.138125) rotate(-90) scale(0.1 -0.1)">
      <defs>
       <path id="DejaVuSans-50" d="M 1259 4147 
L 1259 2394 
L 2053 2394 
Q 2494 2394 2734 2622 
Q 2975 2850 2975 3272 
Q 2975 3691 2734 3919 
Q 2494 4147 2053 4147 
L 1259 4147 
z
M 628 4666 
L 2053 4666 
Q 2838 4666 3239 4311 
Q 3641 3956 3641 3272 
Q 3641 2581 3239 2228 
Q 2838 1875 2053 1875 
L 1259 1875 
L 1259 0 
L 628 0 
L 628 4666 
z
" transform="scale(0.015625)"/>
       <path id="DejaVuSans-6f" d="M 1959 3097 
Q 1497 3097 1228 2736 
Q 959 2375 959 1747 
Q 959 1119 1226 758 
Q 1494 397 1959 397 
Q 2419 397 2687 759 
Q 2956 1122 2956 1747 
Q 2956 2369 2687 2733 
Q 2419 3097 1959 3097 
z
M 1959 3584 
Q 2709 3584 3137 3096 
Q 3566 2609 3566 1747 
Q 3566 888 3137 398 
Q 2709 -91 1959 -91 
Q 1206 -91 779 398 
Q 353 888 353 1747 
Q 353 2609 779 3096 
Q 1206 3584 1959 3584 
z
" transform="scale(0.015625)"/>
       <path id="DejaVuSans-62" d="M 3116 1747 
Q 3116 2381 2855 2742 
Q 2594 3103 2138 3103 
Q 1681 3103 1420 2742 
Q 1159 2381 1159 1747 
Q 1159 1113 1420 752 
Q 1681 391 2138 391 
Q 2594 391 2855 752 
Q 3116 1113 3116 1747 
z
M 1159 2969 
Q 1341 3281 1617 3432 
Q 1894 3584 2278 3584 
Q 2916 3584 3314 3078 
Q 3713 2572 3713 1747 
Q 3713 922 3314 415 
Q 2916 -91 2278 -91 
Q 1894 -91 1617 61 
Q 1341 213 1159 525 
L 1159 0 
L 581 0 
L 581 4863 
L 1159 4863 
L 1159 2969 
z
" transform="scale(0.015625)"/>
       <path id="DejaVuSans-61" d="M 2194 1759 
Q 1497 1759 1228 1600 
Q 959 1441 959 1056 
Q 959 750 1161 570 
Q 1363 391 1709 391 
Q 2188 391 2477 730 
Q 2766 1069 2766 1631 
L 2766 1759 
L 2194 1759 
z
M 3341 1997 
L 3341 0 
L 2766 0 
L 2766 531 
Q 2569 213 2275 61 
Q 1981 -91 1556 -91 
Q 1019 -91 701 211 
Q 384 513 384 1019 
Q 384 1609 779 1909 
Q 1175 2209 1959 2209 
L 2766 2209 
L 2766 2266 
Q 2766 2663 2505 2880 
Q 2244 3097 1772 3097 
Q 1472 3097 1187 3025 
Q 903 2953 641 2809 
L 641 3341 
Q 956 3463 1253 3523 
Q 1550 3584 1831 3584 
Q 2591 3584 2966 3190 
Q 3341 2797 3341 1997 
z
" transform="scale(0.015625)"/>
       <path id="DejaVuSans-6c" d="M 603 4863 
L 1178 4863 
L 1178 0 
L 603 0 
L 603 4863 
z
" transform="scale(0.015625)"/>
       <path id="DejaVuSans-79" d="M 2059 -325 
Q 1816 -950 1584 -1140 
Q 1353 -1331 966 -1331 
L 506 -1331 
L 506 -850 
L 844 -850 
Q 1081 -850 1212 -737 
Q 1344 -625 1503 -206 
L 1606 56 
L 191 3500 
L 800 3500 
L 1894 763 
L 2988 3500 
L 3597 3500 
L 2059 -325 
z
" transform="scale(0.015625)"/>
       <path id="DejaVuSans-Oblique-66" d="M 3059 4863 
L 2969 4384 
L 2419 4384 
Q 2106 4384 1964 4261 
Q 1822 4138 1753 3809 
L 1691 3500 
L 2638 3500 
L 2553 3053 
L 1606 3053 
L 1013 0 
L 434 0 
L 1031 3053 
L 481 3053 
L 563 3500 
L 1113 3500 
L 1159 3744 
Q 1278 4363 1576 4613 
Q 1875 4863 2516 4863 
L 3059 4863 
z
" transform="scale(0.015625)"/>
      </defs>
      <use xlink:href="#DejaVuSans-50" transform="translate(0 0.015625)"/>
      <use xlink:href="#DejaVuSans-72" transform="translate(60.302734 0.015625)"/>
      <use xlink:href="#DejaVuSans-6f" transform="translate(101.416016 0.015625)"/>
      <use xlink:href="#DejaVuSans-62" transform="translate(162.597656 0.015625)"/>
      <use xlink:href="#DejaVuSans-61" transform="translate(226.074219 0.015625)"/>
      <use xlink:href="#DejaVuSans-62" transform="translate(287.353516 0.015625)"/>
      <use xlink:href="#DejaVuSans-69" transform="translate(350.830078 0.015625)"/>
      <use xlink:href="#DejaVuSans-6c" transform="translate(378.613281 0.015625)"/>
      <use xlink:href="#DejaVuSans-69" transform="translate(406.396484 0.015625)"/>
      <use xlink:href="#DejaVuSans-74" transform="translate(434.179688 0.015625)"/>
      <use xlink:href="#DejaVuSans-79" transform="translate(473.388672 0.015625)"/>
      <use xlink:href="#DejaVuSans-20" transform="translate(532.568359 0.015625)"/>
      <use xlink:href="#DejaVuSans-64" transform="translate(564.355469 0.015625)"/>
      <use xlink:href="#DejaVuSans-65" transform="translate(627.832031 0.015625)"/>
      <use xlink:href="#DejaVuSans-6e" transform="translate(689.355469 0.015625)"/>
      <use xlink:href="#DejaVuSans-73" transform="translate(752.734375 0.015625)"/>
      <use xlink:href="#DejaVuSans-69" transform="translate(804.833984 0.015625)"/>
      <use xlink:href="#DejaVuSans-74" transform="translate(832.617188 0.015625)"/>
      <use xlink:href="#DejaVuSans-79" transform="translate(871.826172 0.015625)"/>
      <use xlink:href="#DejaVuSans-20" transform="translate(931.005859 0.015625)"/>
      <use xlink:href="#DejaVuSans-Oblique-66" transform="translate(962.792969 0.015625)"/>
      <use xlink:href="#DejaVuSans-28" transform="translate(997.998047 0.015625)"/>
      <use xlink:href="#DejaVuSans-Oblique-76" transform="translate(1037.011719 0.015625)"/>
      <use xlink:href="#DejaVuSans-29" transform="translate(1096.191406 0.015625)"/>
     </g>
    </g>
   </g>
   <g id="line2d_13">
    <path d="M 65.104084 292.657083 
L 71.278275 284.271911 
L 77.452466 272.490023 
L 83.626657 257.715918 
L 89.800848 240.451101 
L 95.975039 221.272988 
L 102.149231 200.811059 
L 108.323422 179.721499 
L 114.497613 158.661579 
L 120.671804 138.265011 
L 126.845995 119.119389 
L 133.020186 101.746703 
L 139.194377 86.587653 
L 145.368568 73.990287 
L 151.542759 64.203212 
L 157.71695 57.373382 
L 163.891141 53.548209 
L 170.065332 52.681573 
L 176.239523 54.64312 
L 182.413714 59.230124 
L 188.587905 66.181135 
L 194.762096 75.190617 
L 200.936288 85.92381 
L 207.110479 98.031129 
L 213.28467 111.161505 
L 219.458861 124.974204 
L 225.633052 139.148788 
L 231.807243 153.393019 
L 237.981434 167.448642 
L 244.155625 181.095073 
L 250.329816 194.151147 
L 256.504007 206.475137 
L 262.678198 217.96329 
L 268.852389 228.547203 
L 275.02658 238.190316 
L 281.200771 246.883827 
L 287.374962 254.642298 
L 293.549154 261.499195 
L 299.723345 267.502549 
L 305.897536 272.710903 
L 312.071727 277.189655 
L 318.245918 281.007868 
L 324.420109 284.235587 
L 330.5943 286.941663 
L 336.768491 289.192072 
L 342.942682 291.048686 
L 349.116873 292.56845 
L 355.291064 293.802906 
L 361.465255 294.798003 
L 367.639446 295.594141 
L 373.813637 296.226381 
L 379.987828 296.724787 
L 386.162019 297.114838 
L 392.336211 297.4179 
L 398.510402 297.651696 
L 404.684593 297.830783 
L 410.858784 297.967003 
L 417.032975 298.069896 
L 423.207166 298.147078 
" clip-path="url(#p765ba89b2d)" style="fill: none; stroke: #ff7f0e; stroke-width: 2; stroke-linecap: square"/>
   </g>
   <g id="patch_62">
    <path d="M 43.803125 298.358125 
L 43.803125 22.318125 
" style="fill: none; stroke: #000000; stroke-width: 0.8; stroke-linejoin: miter; stroke-linecap: square"/>
   </g>
   <g id="patch_63">
    <path d="M 444.508125 298.358125 
L 444.508125 22.318125 
" style="fill: none; stroke: #000000; stroke-width: 0.8; stroke-linejoin: miter; stroke-linecap: square"/>
   </g>
   <g id="patch_64">
    <path d="M 43.803125 298.358125 
L 444.508125 298.358125 
" style="fill: none; stroke: #000000; stroke-width: 0.8; stroke-linejoin: miter; stroke-linecap: square"/>
   </g>
   <g id="patch_65">
    <path d="M 43.803125 22.318125 
L 444.508125 22.318125 
" style="fill: none; stroke: #000000; stroke-width: 0.8; stroke-linejoin: miter; stroke-linecap: square"/>
   </g>
   <g id="text_15">
    <!-- SLAB - velocity distribution vs MB -->
    <g transform="translate(143.335938 16.318125) scale(0.12 -0.12)">
     <defs>
      <path id="DejaVuSans-4c" d="M 628 4666 
L 1259 4666 
L 1259 531 
L 3531 531 
L 3531 0 
L 628 0 
L 628 4666 
z
" transform="scale(0.015625)"/>
      <path id="DejaVuSans-41" d="M 2188 4044 
L 1331 1722 
L 3047 1722 
L 2188 4044 
z
M 1831 4666 
L 2547 4666 
L 4325 0 
L 3669 0 
L 3244 1197 
L 1141 1197 
L 716 0 
L 50 0 
L 1831 4666 
z
" transform="scale(0.015625)"/>
      <path id="DejaVuSans-42" d="M 1259 2228 
L 1259 519 
L 2272 519 
Q 2781 519 3026 730 
Q 3272 941 3272 1375 
Q 3272 1813 3026 2020 
Q 2781 2228 2272 2228 
L 1259 2228 
z
M 1259 4147 
L 1259 2741 
L 2194 2741 
Q 2656 2741 2882 2914 
Q 3109 3088 3109 3444 
Q 3109 3797 2882 3972 
Q 2656 4147 2194 4147 
L 1259 4147 
z
M 628 4666 
L 2241 4666 
Q 2963 4666 3353 4366 
Q 3744 4066 3744 3513 
Q 3744 3084 3544 2831 
Q 3344 2578 2956 2516 
Q 3422 2416 3680 2098 
Q 3938 1781 3938 1306 
Q 3938 681 3513 340 
Q 3088 0 2303 0 
L 628 0 
L 628 4666 
z
" transform="scale(0.015625)"/>
      <path id="DejaVuSans-2d" d="M 313 2009 
L 1997 2009 
L 1997 1497 
L 313 1497 
L 313 2009 
z
" transform="scale(0.015625)"/>
      <path id="DejaVuSans-76" d="M 191 3500 
L 800 3500 
L 1894 563 
L 2988 3500 
L 3597 3500 
L 2284 0 
L 1503 0 
L 191 3500 
z
" transform="scale(0.015625)"/>
      <path id="DejaVuSans-4d" d="M 628 4666 
L 1569 4666 
L 2759 1491 
L 3956 4666 
L 4897 4666 
L 4897 0 
L 4281 0 
L 4281 4097 
L 3078 897 
L 2444 897 
L 1241 4097 
L 1241 0 
L 628 0 
L 628 4666 
z
" transform="scale(0.015625)"/>
     </defs>
     <use xlink:href="#DejaVuSans-53"/>
     <use xlink:href="#DejaVuSans-4c" transform="translate(63.476562 0)"/>
     <use xlink:href="#DejaVuSans-41" transform="translate(121.439453 0)"/>
     <use xlink:href="#DejaVuSans-42" transform="translate(189.847656 0)"/>
     <use xlink:href="#DejaVuSans-20" transform="translate(258.451172 0)"/>
     <use xlink:href="#DejaVuSans-2d" transform="translate(290.238281 0)"/>
     <use xlink:href="#DejaVuSans-20" transform="translate(326.322266 0)"/>
     <use xlink:href="#DejaVuSans-76" transform="translate(358.109375 0)"/>
     <use xlink:href="#DejaVuSans-65" transform="translate(417.289062 0)"/>
     <use xlink:href="#DejaVuSans-6c" transform="translate(478.8125 0)"/>
     <use xlink:href="#DejaVuSans-6f" transform="translate(506.595703 0)"/>
     <use xlink:href="#DejaVuSans-63" transform="translate(567.777344 0)"/>
     <use xlink:href="#DejaVuSans-69" transform="translate(622.757812 0)"/>
     <use xlink:href="#DejaVuSans-74" transform="translate(650.541016 0)"/>
     <use xlink:href="#DejaVuSans-79" transform="translate(689.75 0)"/>
     <use xlink:href="#DejaVuSans-20" transform="translate(748.929688 0)"/>
     <use xlink:href="#DejaVuSans-64" transform="translate(780.716797 0)"/>
     <use xlink:href="#DejaVuSans-69" transform="translate(844.193359 0)"/>
     <use xlink:href="#DejaVuSans-73" transform="translate(871.976562 0)"/>
     <use xlink:href="#DejaVuSans-74" transform="translate(924.076172 0)"/>
     <use xlink:href="#DejaVuSans-72" transform="translate(963.285156 0)"/>
     <use xlink:href="#DejaVuSans-69" transform="translate(1004.398438 0)"/>
     <use xlink:href="#DejaVuSans-62" transform="translate(1032.181641 0)"/>
     <use xlink:href="#DejaVuSans-75" transform="translate(1095.658203 0)"/>
     <use xlink:href="#DejaVuSans-74" transform="translate(1159.037109 0)"/>
     <use xlink:href="#DejaVuSans-69" transform="translate(1198.246094 0)"/>
     <use xlink:href="#DejaVuSans-6f" transform="translate(1226.029297 0)"/>
     <use xlink:href="#DejaVuSans-6e" transform="translate(1287.210938 0)"/>
     <use xlink:href="#DejaVuSans-20" transform="translate(1350.589844 0)"/>
     <use xlink:href="#DejaVuSans-76" transform="translate(1382.376953 0)"/>
     <use xlink:href="#DejaVuSans-73" transform="translate(1441.556641 0)"/>
     <use xlink:href="#DejaVuSans-20" transform="translate(1493.65625 0)"/>
     <use xlink:href="#DejaVuSans-4d" transform="translate(1525.443359 0)"/>
     <use xlink:href="#DejaVuSans-42" transform="translate(1611.722656 0)"/>
    </g>
   </g>
   <g id="legend_1">
    <g id="patch_66">
     <path d="M 252.378437 59.674375 
L 437.508125 59.674375 
Q 439.508125 59.674375 439.508125 57.674375 
L 439.508125 29.318125 
Q 439.508125 27.318125 437.508125 27.318125 
L 252.378437 27.318125 
Q 250.378437 27.318125 250.378437 29.318125 
L 250.378437 57.674375 
Q 250.378437 59.674375 252.378437 59.674375 
z
" style="fill: #ffffff; opacity: 0.8; stroke: #cccccc; stroke-linejoin: miter"/>
    </g>
    <g id="patch_67">
     <path d="M 254.378437 38.916562 
L 274.378437 38.916562 
L 274.378437 31.916562 
L 254.378437 31.916562 
z
" style="fill: #1f77b4; opacity: 0.6; stroke: #000000; stroke-linejoin: miter"/>
    </g>
    <g id="text_16">
     <!-- MD speeds -->
     <g transform="translate(282.378437 38.916562) scale(0.1 -0.1)">
      <defs>
       <path id="DejaVuSans-44" d="M 1259 4147 
L 1259 519 
L 2022 519 
Q 2988 519 3436 956 
Q 3884 1394 3884 2338 
Q 3884 3275 3436 3711 
Q 2988 4147 2022 4147 
L 1259 4147 
z
M 628 4666 
L 1925 4666 
Q 3281 4666 3915 4102 
Q 4550 3538 4550 2338 
Q 4550 1131 3912 565 
Q 3275 0 1925 0 
L 628 0 
L 628 4666 
z
" transform="scale(0.015625)"/>
      </defs>
      <use xlink:href="#DejaVuSans-4d"/>
      <use xlink:href="#DejaVuSans-44" transform="translate(86.279297 0)"/>
      <use xlink:href="#DejaVuSans-20" transform="translate(163.28125 0)"/>
      <use xlink:href="#DejaVuSans-73" transform="translate(195.068359 0)"/>
      <use xlink:href="#DejaVuSans-70" transform="translate(247.167969 0)"/>
      <use xlink:href="#DejaVuSans-65" transform="translate(310.644531 0)"/>
      <use xlink:href="#DejaVuSans-65" transform="translate(372.167969 0)"/>
      <use xlink:href="#DejaVuSans-64" transform="translate(433.691406 0)"/>
      <use xlink:href="#DejaVuSans-73" transform="translate(497.167969 0)"/>
     </g>
    </g>
    <g id="line2d_14">
     <path d="M 254.378437 50.094687 
L 264.378437 50.094687 
L 274.378437 50.094687 
" style="fill: none; stroke: #ff7f0e; stroke-width: 2; stroke-linecap: square"/>
    </g>
    <g id="text_17">
     <!-- Maxwell–Boltzmann (T=1.988) -->
     <g transform="translate(282.378437 53.594687) scale(0.1 -0.1)">
      <defs>
       <path id="DejaVuSans-78" d="M 3513 3500 
L 2247 1797 
L 3578 0 
L 2900 0 
L 1881 1375 
L 863 0 
L 184 0 
L 1544 1831 
L 300 3500 
L 978 3500 
L 1906 2253 
L 2834 3500 
L 3513 3500 
z
" transform="scale(0.015625)"/>
       <path id="DejaVuSans-77" d="M 269 3500 
L 844 3500 
L 1563 769 
L 2278 3500 
L 2956 3500 
L 3675 769 
L 4391 3500 
L 4966 3500 
L 4050 0 
L 3372 0 
L 2619 2869 
L 1863 0 
L 1184 0 
L 269 3500 
z
" transform="scale(0.015625)"/>
       <path id="DejaVuSans-2013" d="M 313 1978 
L 2888 1978 
L 2888 1528 
L 313 1528 
L 313 1978 
z
" transform="scale(0.015625)"/>
       <path id="DejaVuSans-7a" d="M 353 3500 
L 3084 3500 
L 3084 2975 
L 922 459 
L 3084 459 
L 3084 0 
L 275 0 
L 275 525 
L 2438 3041 
L 353 3041 
L 353 3500 
z
" transform="scale(0.015625)"/>
       <path id="DejaVuSans-6d" d="M 3328 2828 
Q 3544 3216 3844 3400 
Q 4144 3584 4550 3584 
Q 5097 3584 5394 3201 
Q 5691 2819 5691 2113 
L 5691 0 
L 5113 0 
L 5113 2094 
Q 5113 2597 4934 2840 
Q 4756 3084 4391 3084 
Q 3944 3084 3684 2787 
Q 3425 2491 3425 1978 
L 3425 0 
L 2847 0 
L 2847 2094 
Q 2847 2600 2669 2842 
Q 2491 3084 2119 3084 
Q 1678 3084 1418 2786 
Q 1159 2488 1159 1978 
L 1159 0 
L 581 0 
L 581 3500 
L 1159 3500 
L 1159 2956 
Q 1356 3278 1631 3431 
Q 1906 3584 2284 3584 
Q 2666 3584 2933 3390 
Q 3200 3197 3328 2828 
z
" transform="scale(0.015625)"/>
       <path id="DejaVuSans-54" d="M -19 4666 
L 3928 4666 
L 3928 4134 
L 2272 4134 
L 2272 0 
L 1638 0 
L 1638 4134 
L -19 4134 
L -19 4666 
z
" transform="scale(0.015625)"/>
       <path id="DejaVuSans-3d" d="M 678 2906 
L 4684 2906 
L 4684 2381 
L 678 2381 
L 678 2906 
z
M 678 1631 
L 4684 1631 
L 4684 1100 
L 678 1100 
L 678 1631 
z
" transform="scale(0.015625)"/>
       <path id="DejaVuSans-39" d="M 703 97 
L 703 672 
Q 941 559 1184 500 
Q 1428 441 1663 441 
Q 2288 441 2617 861 
Q 2947 1281 2994 2138 
Q 2813 1869 2534 1725 
Q 2256 1581 1919 1581 
Q 1219 1581 811 2004 
Q 403 2428 403 3163 
Q 403 3881 828 4315 
Q 1253 4750 1959 4750 
Q 2769 4750 3195 4129 
Q 3622 3509 3622 2328 
Q 3622 1225 3098 567 
Q 2575 -91 1691 -91 
Q 1453 -91 1209 -44 
Q 966 3 703 97 
z
M 1959 2075 
Q 2384 2075 2632 2365 
Q 2881 2656 2881 3163 
Q 2881 3666 2632 3958 
Q 2384 4250 1959 4250 
Q 1534 4250 1286 3958 
Q 1038 3666 1038 3163 
Q 1038 2656 1286 2365 
Q 1534 2075 1959 2075 
z
" transform="scale(0.015625)"/>
       <path id="DejaVuSans-38" d="M 2034 2216 
Q 1584 2216 1326 1975 
Q 1069 1734 1069 1313 
Q 1069 891 1326 650 
Q 1584 409 2034 409 
Q 2484 409 2743 651 
Q 3003 894 3003 1313 
Q 3003 1734 2745 1975 
Q 2488 2216 2034 2216 
z
M 1403 2484 
Q 997 2584 770 2862 
Q 544 3141 544 3541 
Q 544 4100 942 4425 
Q 1341 4750 2034 4750 
Q 2731 4750 3128 4425 
Q 3525 4100 3525 3541 
Q 3525 3141 3298 2862 
Q 3072 2584 2669 2484 
Q 3125 2378 3379 2068 
Q 3634 1759 3634 1313 
Q 3634 634 3220 271 
Q 2806 -91 2034 -91 
Q 1263 -91 848 271 
Q 434 634 434 1313 
Q 434 1759 690 2068 
Q 947 2378 1403 2484 
z
M 1172 3481 
Q 1172 3119 1398 2916 
Q 1625 2713 2034 2713 
Q 2441 2713 2670 2916 
Q 2900 3119 2900 3481 
Q 2900 3844 2670 4047 
Q 2441 4250 2034 4250 
Q 1625 4250 1398 4047 
Q 1172 3844 1172 3481 
z
" transform="scale(0.015625)"/>
      </defs>
      <use xlink:href="#DejaVuSans-4d"/>
      <use xlink:href="#DejaVuSans-61" transform="translate(86.279297 0)"/>
      <use xlink:href="#DejaVuSans-78" transform="translate(147.558594 0)"/>
      <use xlink:href="#DejaVuSans-77" transform="translate(206.738281 0)"/>
      <use xlink:href="#DejaVuSans-65" transform="translate(288.525391 0)"/>
      <use xlink:href="#DejaVuSans-6c" transform="translate(350.048828 0)"/>
      <use xlink:href="#DejaVuSans-6c" transform="translate(377.832031 0)"/>
      <use xlink:href="#DejaVuSans-2013" transform="translate(405.615234 0)"/>
      <use xlink:href="#DejaVuSans-42" transform="translate(455.615234 0)"/>
      <use xlink:href="#DejaVuSans-6f" transform="translate(524.21875 0)"/>
      <use xlink:href="#DejaVuSans-6c" transform="translate(585.400391 0)"/>
      <use xlink:href="#DejaVuSans-74" transform="translate(613.183594 0)"/>
      <use xlink:href="#DejaVuSans-7a" transform="translate(652.392578 0)"/>
      <use xlink:href="#DejaVuSans-6d" transform="translate(704.882812 0)"/>
      <use xlink:href="#DejaVuSans-61" transform="translate(802.294922 0)"/>
      <use xlink:href="#DejaVuSans-6e" transform="translate(863.574219 0)"/>
      <use xlink:href="#DejaVuSans-6e" transform="translate(926.953125 0)"/>
      <use xlink:href="#DejaVuSans-20" transform="translate(990.332031 0)"/>
      <use xlink:href="#DejaVuSans-28" transform="translate(1022.119141 0)"/>
      <use xlink:href="#DejaVuSans-54" transform="translate(1061.132812 0)"/>
      <use xlink:href="#DejaVuSans-3d" transform="translate(1122.216797 0)"/>
      <use xlink:href="#DejaVuSans-31" transform="translate(1206.005859 0)"/>
      <use xlink:href="#DejaVuSans-2e" transform="translate(1269.628906 0)"/>
      <use xlink:href="#DejaVuSans-39" transform="translate(1301.416016 0)"/>
      <use xlink:href="#DejaVuSans-38" transform="translate(1365.039062 0)"/>
      <use xlink:href="#DejaVuSans-38" transform="translate(1428.662109 0)"/>
      <use xlink:href="#DejaVuSans-29" transform="translate(1492.285156 0)"/>
     </g>
    </g>
   </g>
  </g>
 </g>
 <defs>
  <clipPath id="p765ba89b2d">
   <rect x="43.803125" y="22.318125" width="400.705" height="276.04"/>
  </clipPath>
 </defs>
</svg>
