<?xml version="1.0" encoding="utf-8" standalone="no"?>
<!DOCTYPE svg PUBLIC "-//W3C//DTD SVG 1.1//EN"
  "http://www.w3.org/Graphics/SVG/1.1/DTD/svg11.dtd">
<svg xmlns:xlink="http://www.w3.org/1999/xlink" width="426.027812pt" height="325.986375pt" viewBox="0 0 426.027812 325.986375" xmlns="http://www.w3.org/2000/svg" version="1.1">
 <metadata>
  <rdf:RDF xmlns:dc="http://purl.org/dc/elements/1.1/" xmlns:cc="http://creativecommons.org/ns#" xmlns:rdf="http://www.w3.org/1999/02/22-rdf-syntax-ns#">
   <cc:Work>
    <dc:type rdf:resource="http://purl.org/dc/dcmitype/StillImage"/>
    <dc:date>2025-12-10T15:02:27.407173</dc:date>
    <dc:format>image/svg+xml</dc:format>
    <dc:creator>
     <cc:Agent>
      <dc:title>Matplotlib v3.10.1, https://matplotlib.org/</dc:title>
     </cc:Agent>
    </dc:creator>
   </cc:Work>
  </rdf:RDF>
 </metadata>
 <defs>
  <style type="text/css">*{stroke-linejoin: round; stroke-linecap: butt}</style>
 </defs>
 <g id="figure_1">
  <g id="patch_1">
   <path d="M 0 325.986375 
L 426.027812 325.986375 
L 426.027812 0 
L 0 0 
z
" style="fill: #ffffff"/>
  </g>
  <g id="axes_1">
   <g id="patch_2">
    <path d="M 61.707813 288.430125 
L 418.827813 288.430125 
L 418.827813 22.318125 
L 61.707813 22.318125 
z
" style="fill: #ffffff"/>
   </g>
   <g id="matplotlib.axis_1">
    <g id="xtick_1">
     <g id="line2d_1">
      <defs>
       <path id="mc7f0a3c68c" d="M 0 0 
L 0 3.5 
" style="stroke: #000000; stroke-width: 0.8"/>
      </defs>
      <g>
       <use xlink:href="#mc7f0a3c68c" x="77.94054" y="288.430125" style="stroke: #000000; stroke-width: 0.8"/>
      </g>
     </g>
     <g id="text_1">
      <!-- 0.0 -->
      <g transform="translate(69.988977 303.028562) scale(0.1 -0.1)">
       <defs>
        <path id="DejaVuSans-30" d="M 2034 4250 
Q 1547 4250 1301 3770 
Q 1056 3291 1056 2328 
Q 1056 1369 1301 889 
Q 1547 409 2034 409 
Q 2525 409 2770 889 
Q 3016 1369 3016 2328 
Q 3016 3291 2770 3770 
Q 2525 4250 2034 4250 
z
M 2034 4750 
Q 2819 4750 3233 4129 
Q 3647 3509 3647 2328 
Q 3647 1150 3233 529 
Q 2819 -91 2034 -91 
Q 1250 -91 836 529 
Q 422 1150 422 2328 
Q 422 3509 836 4129 
Q 1250 4750 2034 4750 
z
" transform="scale(0.015625)"/>
        <path id="DejaVuSans-2e" d="M 684 794 
L 1344 794 
L 1344 0 
L 684 0 
L 684 794 
z
" transform="scale(0.015625)"/>
       </defs>
       <use xlink:href="#DejaVuSans-30"/>
       <use xlink:href="#DejaVuSans-2e" transform="translate(63.623047 0)"/>
       <use xlink:href="#DejaVuSans-30" transform="translate(95.410156 0)"/>
      </g>
     </g>
    </g>
    <g id="xtick_2">
     <g id="line2d_2">
      <g>
       <use xlink:href="#mc7f0a3c68c" x="118.56298" y="288.430125" style="stroke: #000000; stroke-width: 0.8"/>
      </g>
     </g>
     <g id="text_2">
      <!-- 2.5 -->
      <g transform="translate(110.611418 303.028562) scale(0.1 -0.1)">
       <defs>
        <path id="DejaVuSans-32" d="M 1228 531 
L 3431 531 
L 3431 0 
L 469 0 
L 469 531 
Q 828 903 1448 1529 
Q 2069 2156 2228 2338 
Q 2531 2678 2651 2914 
Q 2772 3150 2772 3378 
Q 2772 3750 2511 3984 
Q 2250 4219 1831 4219 
Q 1534 4219 1204 4116 
Q 875 4013 500 3803 
L 500 4441 
Q 881 4594 1212 4672 
Q 1544 4750 1819 4750 
Q 2544 4750 2975 4387 
Q 3406 4025 3406 3419 
Q 3406 3131 3298 2873 
Q 3191 2616 2906 2266 
Q 2828 2175 2409 1742 
Q 1991 1309 1228 531 
z
" transform="scale(0.015625)"/>
        <path id="DejaVuSans-35" d="M 691 4666 
L 3169 4666 
L 3169 4134 
L 1269 4134 
L 1269 2991 
Q 1406 3038 1543 3061 
Q 1681 3084 1819 3084 
Q 2600 3084 3056 2656 
Q 3513 2228 3513 1497 
Q 3513 744 3044 326 
Q 2575 -91 1722 -91 
Q 1428 -91 1123 -41 
Q 819 9 494 109 
L 494 744 
Q 775 591 1075 516 
Q 1375 441 1709 441 
Q 2250 441 2565 725 
Q 2881 1009 2881 1497 
Q 2881 1984 2565 2268 
Q 2250 2553 1709 2553 
Q 1456 2553 1204 2497 
Q 953 2441 691 2322 
L 691 4666 
z
" transform="scale(0.015625)"/>
       </defs>
       <use xlink:href="#DejaVuSans-32"/>
       <use xlink:href="#DejaVuSans-2e" transform="translate(63.623047 0)"/>
       <use xlink:href="#DejaVuSans-35" transform="translate(95.410156 0)"/>
      </g>
     </g>
    </g>
    <g id="xtick_3">
     <g id="line2d_3">
      <g>
       <use xlink:href="#mc7f0a3c68c" x="159.185421" y="288.430125" style="stroke: #000000; stroke-width: 0.8"/>
      </g>
     </g>
     <g id="text_3">
      <!-- 5.0 -->
      <g transform="translate(151.233859 303.028562) scale(0.1 -0.1)">
       <use xlink:href="#DejaVuSans-35"/>
       <use xlink:href="#DejaVuSans-2e" transform="translate(63.623047 0)"/>
       <use xlink:href="#DejaVuSans-30" transform="translate(95.410156 0)"/>
      </g>
     </g>
    </g>
    <g id="xtick_4">
     <g id="line2d_4">
      <g>
       <use xlink:href="#mc7f0a3c68c" x="199.807862" y="288.430125" style="stroke: #000000; stroke-width: 0.8"/>
      </g>
     </g>
     <g id="text_4">
      <!-- 7.5 -->
      <g transform="translate(191.856299 303.028562) scale(0.1 -0.1)">
       <defs>
        <path id="DejaVuSans-37" d="M 525 4666 
L 3525 4666 
L 3525 4397 
L 1831 0 
L 1172 0 
L 2766 4134 
L 525 4134 
L 525 4666 
z
" transform="scale(0.015625)"/>
       </defs>
       <use xlink:href="#DejaVuSans-37"/>
       <use xlink:href="#DejaVuSans-2e" transform="translate(63.623047 0)"/>
       <use xlink:href="#DejaVuSans-35" transform="translate(95.410156 0)"/>
      </g>
     </g>
    </g>
    <g id="xtick_5">
     <g id="line2d_5">
      <g>
       <use xlink:href="#mc7f0a3c68c" x="240.430302" y="288.430125" style="stroke: #000000; stroke-width: 0.8"/>
      </g>
     </g>
     <g id="text_5">
      <!-- 10.0 -->
      <g transform="translate(229.29749 303.028562) scale(0.1 -0.1)">
       <defs>
        <path id="DejaVuSans-31" d="M 794 531 
L 1825 531 
L 1825 4091 
L 703 3866 
L 703 4441 
L 1819 4666 
L 2450 4666 
L 2450 531 
L 3481 531 
L 3481 0 
L 794 0 
L 794 531 
z
" transform="scale(0.015625)"/>
       </defs>
       <use xlink:href="#DejaVuSans-31"/>
       <use xlink:href="#DejaVuSans-30" transform="translate(63.623047 0)"/>
       <use xlink:href="#DejaVuSans-2e" transform="translate(127.246094 0)"/>
       <use xlink:href="#DejaVuSans-30" transform="translate(159.033203 0)"/>
      </g>
     </g>
    </g>
    <g id="xtick_6">
     <g id="line2d_6">
      <g>
       <use xlink:href="#mc7f0a3c68c" x="281.052743" y="288.430125" style="stroke: #000000; stroke-width: 0.8"/>
      </g>
     </g>
     <g id="text_6">
      <!-- 12.5 -->
      <g transform="translate(269.91993 303.028562) scale(0.1 -0.1)">
       <use xlink:href="#DejaVuSans-31"/>
       <use xlink:href="#DejaVuSans-32" transform="translate(63.623047 0)"/>
       <use xlink:href="#DejaVuSans-2e" transform="translate(127.246094 0)"/>
       <use xlink:href="#DejaVuSans-35" transform="translate(159.033203 0)"/>
      </g>
     </g>
    </g>
    <g id="xtick_7">
     <g id="line2d_7">
      <g>
       <use xlink:href="#mc7f0a3c68c" x="321.675184" y="288.430125" style="stroke: #000000; stroke-width: 0.8"/>
      </g>
     </g>
     <g id="text_7">
      <!-- 15.0 -->
      <g transform="translate(310.542371 303.028562) scale(0.1 -0.1)">
       <use xlink:href="#DejaVuSans-31"/>
       <use xlink:href="#DejaVuSans-35" transform="translate(63.623047 0)"/>
       <use xlink:href="#DejaVuSans-2e" transform="translate(127.246094 0)"/>
       <use xlink:href="#DejaVuSans-30" transform="translate(159.033203 0)"/>
      </g>
     </g>
    </g>
    <g id="xtick_8">
     <g id="line2d_8">
      <g>
       <use xlink:href="#mc7f0a3c68c" x="362.297624" y="288.430125" style="stroke: #000000; stroke-width: 0.8"/>
      </g>
     </g>
     <g id="text_8">
      <!-- 17.5 -->
      <g transform="translate(351.164812 303.028562) scale(0.1 -0.1)">
       <use xlink:href="#DejaVuSans-31"/>
       <use xlink:href="#DejaVuSans-37" transform="translate(63.623047 0)"/>
       <use xlink:href="#DejaVuSans-2e" transform="translate(127.246094 0)"/>
       <use xlink:href="#DejaVuSans-35" transform="translate(159.033203 0)"/>
      </g>
     </g>
    </g>
    <g id="xtick_9">
     <g id="line2d_9">
      <g>
       <use xlink:href="#mc7f0a3c68c" x="402.920065" y="288.430125" style="stroke: #000000; stroke-width: 0.8"/>
      </g>
     </g>
     <g id="text_9">
      <!-- 20.0 -->
      <g transform="translate(391.787252 303.028562) scale(0.1 -0.1)">
       <use xlink:href="#DejaVuSans-32"/>
       <use xlink:href="#DejaVuSans-30" transform="translate(63.623047 0)"/>
       <use xlink:href="#DejaVuSans-2e" transform="translate(127.246094 0)"/>
       <use xlink:href="#DejaVuSans-30" transform="translate(159.033203 0)"/>
      </g>
     </g>
    </g>
    <g id="text_10">
     <!-- time (MD units) -->
     <g transform="translate(201.436563 316.706687) scale(0.1 -0.1)">
      <defs>
       <path id="DejaVuSans-74" d="M 1172 4494 
L 1172 3500 
L 2356 3500 
L 2356 3053 
L 1172 3053 
L 1172 1153 
Q 1172 725 1289 603 
Q 1406 481 1766 481 
L 2356 481 
L 2356 0 
L 1766 0 
Q 1100 0 847 248 
Q 594 497 594 1153 
L 594 3053 
L 172 3053 
L 172 3500 
L 594 3500 
L 594 4494 
L 1172 4494 
z
" transform="scale(0.015625)"/>
       <path id="DejaVuSans-69" d="M 603 3500 
L 1178 3500 
L 1178 0 
L 603 0 
L 603 3500 
z
M 603 4863 
L 1178 4863 
L 1178 4134 
L 603 4134 
L 603 4863 
z
" transform="scale(0.015625)"/>
       <path id="DejaVuSans-6d" d="M 3328 2828 
Q 3544 3216 3844 3400 
Q 4144 3584 4550 3584 
Q 5097 3584 5394 3201 
Q 5691 2819 5691 2113 
L 5691 0 
L 5113 0 
L 5113 2094 
Q 5113 2597 4934 2840 
Q 4756 3084 4391 3084 
Q 3944 3084 3684 2787 
Q 3425 2491 3425 1978 
L 3425 0 
L 2847 0 
L 2847 2094 
Q 2847 2600 2669 2842 
Q 2491 3084 2119 3084 
Q 1678 3084 1418 2786 
Q 1159 2488 1159 1978 
L 1159 0 
L 581 0 
L 581 3500 
L 1159 3500 
L 1159 2956 
Q 1356 3278 1631 3431 
Q 1906 3584 2284 3584 
Q 2666 3584 2933 3390 
Q 3200 3197 3328 2828 
z
" transform="scale(0.015625)"/>
       <path id="DejaVuSans-65" d="M 3597 1894 
L 3597 1613 
L 953 1613 
Q 991 1019 1311 708 
Q 1631 397 2203 397 
Q 2534 397 2845 478 
Q 3156 559 3463 722 
L 3463 178 
Q 3153 47 2828 -22 
Q 2503 -91 2169 -91 
Q 1331 -91 842 396 
Q 353 884 353 1716 
Q 353 2575 817 3079 
Q 1281 3584 2069 3584 
Q 2775 3584 3186 3129 
Q 3597 2675 3597 1894 
z
M 3022 2063 
Q 3016 2534 2758 2815 
Q 2500 3097 2075 3097 
Q 1594 3097 1305 2825 
Q 1016 2553 972 2059 
L 3022 2063 
z
" transform="scale(0.015625)"/>
       <path id="DejaVuSans-20" transform="scale(0.015625)"/>
       <path id="DejaVuSans-28" d="M 1984 4856 
Q 1566 4138 1362 3434 
Q 1159 2731 1159 2009 
Q 1159 1288 1364 580 
Q 1569 -128 1984 -844 
L 1484 -844 
Q 1016 -109 783 600 
Q 550 1309 550 2009 
Q 550 2706 781 3412 
Q 1013 4119 1484 4856 
L 1984 4856 
z
" transform="scale(0.015625)"/>
       <path id="DejaVuSans-4d" d="M 628 4666 
L 1569 4666 
L 2759 1491 
L 3956 4666 
L 4897 4666 
L 4897 0 
L 4281 0 
L 4281 4097 
L 3078 897 
L 2444 897 
L 1241 4097 
L 1241 0 
L 628 0 
L 628 4666 
z
" transform="scale(0.015625)"/>
       <path id="DejaVuSans-44" d="M 1259 4147 
L 1259 519 
L 2022 519 
Q 2988 519 3436 956 
Q 3884 1394 3884 2338 
Q 3884 3275 3436 3711 
Q 2988 4147 2022 4147 
L 1259 4147 
z
M 628 4666 
L 1925 4666 
Q 3281 4666 3915 4102 
Q 4550 3538 4550 2338 
Q 4550 1131 3912 565 
Q 3275 0 1925 0 
L 628 0 
L 628 4666 
z
" transform="scale(0.015625)"/>
       <path id="DejaVuSans-75" d="M 544 1381 
L 544 3500 
L 1119 3500 
L 1119 1403 
Q 1119 906 1312 657 
Q 1506 409 1894 409 
Q 2359 409 2629 706 
Q 2900 1003 2900 1516 
L 2900 3500 
L 3475 3500 
L 3475 0 
L 2900 0 
L 2900 538 
Q 2691 219 2414 64 
Q 2138 -91 1772 -91 
Q 1169 -91 856 284 
Q 544 659 544 1381 
z
M 1991 3584 
L 1991 3584 
z
" transform="scale(0.015625)"/>
       <path id="DejaVuSans-6e" d="M 3513 2113 
L 3513 0 
L 2938 0 
L 2938 2094 
Q 2938 2591 2744 2837 
Q 2550 3084 2163 3084 
Q 1697 3084 1428 2787 
Q 1159 2491 1159 1978 
L 1159 0 
L 581 0 
L 581 3500 
L 1159 3500 
L 1159 2956 
Q 1366 3272 1645 3428 
Q 1925 3584 2291 3584 
Q 2894 3584 3203 3211 
Q 3513 2838 3513 2113 
z
" transform="scale(0.015625)"/>
       <path id="DejaVuSans-73" d="M 2834 3397 
L 2834 2853 
Q 2591 2978 2328 3040 
Q 2066 3103 1784 3103 
Q 1356 3103 1142 2972 
Q 928 2841 928 2578 
Q 928 2378 1081 2264 
Q 1234 2150 1697 2047 
L 1894 2003 
Q 2506 1872 2764 1633 
Q 3022 1394 3022 966 
Q 3022 478 2636 193 
Q 2250 -91 1575 -91 
Q 1294 -91 989 -36 
Q 684 19 347 128 
L 347 722 
Q 666 556 975 473 
Q 1284 391 1588 391 
Q 1994 391 2212 530 
Q 2431 669 2431 922 
Q 2431 1156 2273 1281 
Q 2116 1406 1581 1522 
L 1381 1569 
Q 847 1681 609 1914 
Q 372 2147 372 2553 
Q 372 3047 722 3315 
Q 1072 3584 1716 3584 
Q 2034 3584 2315 3537 
Q 2597 3491 2834 3397 
z
" transform="scale(0.015625)"/>
       <path id="DejaVuSans-29" d="M 513 4856 
L 1013 4856 
Q 1481 4119 1714 3412 
Q 1947 2706 1947 2009 
Q 1947 1309 1714 600 
Q 1481 -109 1013 -844 
L 513 -844 
Q 928 -128 1133 580 
Q 1338 1288 1338 2009 
Q 1338 2731 1133 3434 
Q 928 4138 513 4856 
z
" transform="scale(0.015625)"/>
      </defs>
      <use xlink:href="#DejaVuSans-74"/>
      <use xlink:href="#DejaVuSans-69" transform="translate(39.208984 0)"/>
      <use xlink:href="#DejaVuSans-6d" transform="translate(66.992188 0)"/>
      <use xlink:href="#DejaVuSans-65" transform="translate(164.404297 0)"/>
      <use xlink:href="#DejaVuSans-20" transform="translate(225.927734 0)"/>
      <use xlink:href="#DejaVuSans-28" transform="translate(257.714844 0)"/>
      <use xlink:href="#DejaVuSans-4d" transform="translate(296.728516 0)"/>
      <use xlink:href="#DejaVuSans-44" transform="translate(383.007812 0)"/>
      <use xlink:href="#DejaVuSans-20" transform="translate(460.009766 0)"/>
      <use xlink:href="#DejaVuSans-75" transform="translate(491.796875 0)"/>
      <use xlink:href="#DejaVuSans-6e" transform="translate(555.175781 0)"/>
      <use xlink:href="#DejaVuSans-69" transform="translate(618.554688 0)"/>
      <use xlink:href="#DejaVuSans-74" transform="translate(646.337891 0)"/>
      <use xlink:href="#DejaVuSans-73" transform="translate(685.546875 0)"/>
      <use xlink:href="#DejaVuSans-29" transform="translate(737.646484 0)"/>
     </g>
    </g>
   </g>
   <g id="matplotlib.axis_2">
    <g id="ytick_1">
     <g id="line2d_10">
      <defs>
       <path id="m8d100bc897" d="M 0 0 
L -3.5 0 
" style="stroke: #000000; stroke-width: 0.8"/>
      </defs>
      <g>
       <use xlink:href="#m8d100bc897" x="61.707813" y="256.982306" style="stroke: #000000; stroke-width: 0.8"/>
      </g>
     </g>
     <g id="text_11">
      <!-- −1000 -->
      <g transform="translate(20.878125 260.781525) scale(0.1 -0.1)">
       <defs>
        <path id="DejaVuSans-2212" d="M 678 2272 
L 4684 2272 
L 4684 1741 
L 678 1741 
L 678 2272 
z
" transform="scale(0.015625)"/>
       </defs>
       <use xlink:href="#DejaVuSans-2212"/>
       <use xlink:href="#DejaVuSans-31" transform="translate(83.789062 0)"/>
       <use xlink:href="#DejaVuSans-30" transform="translate(147.412109 0)"/>
       <use xlink:href="#DejaVuSans-30" transform="translate(211.035156 0)"/>
       <use xlink:href="#DejaVuSans-30" transform="translate(274.658203 0)"/>
      </g>
     </g>
    </g>
    <g id="ytick_2">
     <g id="line2d_11">
      <g>
       <use xlink:href="#m8d100bc897" x="61.707813" y="198.74611" style="stroke: #000000; stroke-width: 0.8"/>
      </g>
     </g>
     <g id="text_12">
      <!-- −500 -->
      <g transform="translate(27.240625 202.545329) scale(0.1 -0.1)">
       <use xlink:href="#DejaVuSans-2212"/>
       <use xlink:href="#DejaVuSans-35" transform="translate(83.789062 0)"/>
       <use xlink:href="#DejaVuSans-30" transform="translate(147.412109 0)"/>
       <use xlink:href="#DejaVuSans-30" transform="translate(211.035156 0)"/>
      </g>
     </g>
    </g>
    <g id="ytick_3">
     <g id="line2d_12">
      <g>
       <use xlink:href="#m8d100bc897" x="61.707813" y="140.509914" style="stroke: #000000; stroke-width: 0.8"/>
      </g>
     </g>
     <g id="text_13">
      <!-- 0 -->
      <g transform="translate(48.345313 144.309133) scale(0.1 -0.1)">
       <use xlink:href="#DejaVuSans-30"/>
      </g>
     </g>
    </g>
    <g id="ytick_4">
     <g id="line2d_13">
      <g>
       <use xlink:href="#m8d100bc897" x="61.707813" y="82.273718" style="stroke: #000000; stroke-width: 0.8"/>
      </g>
     </g>
     <g id="text_14">
      <!-- 500 -->
      <g transform="translate(35.620312 86.072937) scale(0.1 -0.1)">
       <use xlink:href="#DejaVuSans-35"/>
       <use xlink:href="#DejaVuSans-30" transform="translate(63.623047 0)"/>
       <use xlink:href="#DejaVuSans-30" transform="translate(127.246094 0)"/>
      </g>
     </g>
    </g>
    <g id="ytick_5">
     <g id="line2d_14">
      <g>
       <use xlink:href="#m8d100bc897" x="61.707813" y="24.037522" style="stroke: #000000; stroke-width: 0.8"/>
      </g>
     </g>
     <g id="text_15">
      <!-- 1000 -->
      <g transform="translate(29.257812 27.836741) scale(0.1 -0.1)">
       <use xlink:href="#DejaVuSans-31"/>
       <use xlink:href="#DejaVuSans-30" transform="translate(63.623047 0)"/>
       <use xlink:href="#DejaVuSans-30" transform="translate(127.246094 0)"/>
       <use xlink:href="#DejaVuSans-30" transform="translate(190.869141 0)"/>
      </g>
     </g>
    </g>
    <g id="text_16">
     <!-- Energy -->
     <g transform="translate(14.798438 172.880375) rotate(-90) scale(0.1 -0.1)">
      <defs>
       <path id="DejaVuSans-45" d="M 628 4666 
L 3578 4666 
L 3578 4134 
L 1259 4134 
L 1259 2753 
L 3481 2753 
L 3481 2222 
L 1259 2222 
L 1259 531 
L 3634 531 
L 3634 0 
L 628 0 
L 628 4666 
z
" transform="scale(0.015625)"/>
       <path id="DejaVuSans-72" d="M 2631 2963 
Q 2534 3019 2420 3045 
Q 2306 3072 2169 3072 
Q 1681 3072 1420 2755 
Q 1159 2438 1159 1844 
L 1159 0 
L 581 0 
L 581 3500 
L 1159 3500 
L 1159 2956 
Q 1341 3275 1631 3429 
Q 1922 3584 2338 3584 
Q 2397 3584 2469 3576 
Q 2541 3569 2628 3553 
L 2631 2963 
z
" transform="scale(0.015625)"/>
       <path id="DejaVuSans-67" d="M 2906 1791 
Q 2906 2416 2648 2759 
Q 2391 3103 1925 3103 
Q 1463 3103 1205 2759 
Q 947 2416 947 1791 
Q 947 1169 1205 825 
Q 1463 481 1925 481 
Q 2391 481 2648 825 
Q 2906 1169 2906 1791 
z
M 3481 434 
Q 3481 -459 3084 -895 
Q 2688 -1331 1869 -1331 
Q 1566 -1331 1297 -1286 
Q 1028 -1241 775 -1147 
L 775 -588 
Q 1028 -725 1275 -790 
Q 1522 -856 1778 -856 
Q 2344 -856 2625 -561 
Q 2906 -266 2906 331 
L 2906 616 
Q 2728 306 2450 153 
Q 2172 0 1784 0 
Q 1141 0 747 490 
Q 353 981 353 1791 
Q 353 2603 747 3093 
Q 1141 3584 1784 3584 
Q 2172 3584 2450 3431 
Q 2728 3278 2906 2969 
L 2906 3500 
L 3481 3500 
L 3481 434 
z
" transform="scale(0.015625)"/>
       <path id="DejaVuSans-79" d="M 2059 -325 
Q 1816 -950 1584 -1140 
Q 1353 -1331 966 -1331 
L 506 -1331 
L 506 -850 
L 844 -850 
Q 1081 -850 1212 -737 
Q 1344 -625 1503 -206 
L 1606 56 
L 191 3500 
L 800 3500 
L 1894 763 
L 2988 3500 
L 3597 3500 
L 2059 -325 
z
" transform="scale(0.015625)"/>
      </defs>
      <use xlink:href="#DejaVuSans-45"/>
      <use xlink:href="#DejaVuSans-6e" transform="translate(63.183594 0)"/>
      <use xlink:href="#DejaVuSans-65" transform="translate(126.5625 0)"/>
      <use xlink:href="#DejaVuSans-72" transform="translate(188.085938 0)"/>
      <use xlink:href="#DejaVuSans-67" transform="translate(227.449219 0)"/>
      <use xlink:href="#DejaVuSans-79" transform="translate(290.925781 0)"/>
     </g>
    </g>
   </g>
   <g id="line2d_15">
    <path d="M 77.94054 276.186308 
L 78.265519 276.334125 
L 78.590499 274.618709 
L 78.915478 267.112425 
L 79.240458 254.314658 
L 79.565437 247.758501 
L 80.215396 249.597161 
L 80.865355 246.994594 
L 81.190335 247.966727 
L 81.515315 247.428187 
L 81.840294 245.090996 
L 82.165274 246.23673 
L 82.490253 249.385683 
L 82.815233 247.819616 
L 83.140212 242.982024 
L 83.465192 242.033646 
L 83.790171 243.799194 
L 84.115151 244.802182 
L 84.44013 245.402189 
L 85.090089 243.244638 
L 85.415069 244.068651 
L 85.740048 244.246279 
L 86.065028 243.318423 
L 86.390007 241.599882 
L 86.714987 241.282412 
L 87.039966 239.021724 
L 87.364946 240.057592 
L 87.689926 239.048812 
L 88.664864 238.738671 
L 89.314823 240.633392 
L 89.639803 240.37115 
L 89.964782 240.621335 
L 90.289762 239.890694 
L 90.614741 239.968845 
L 90.939721 240.899356 
L 91.2647 239.74369 
L 91.58968 239.605388 
L 91.914659 240.476938 
L 92.239639 238.890356 
L 92.564618 237.877318 
L 93.214577 236.982293 
L 93.539557 238.523682 
L 93.864536 236.979378 
L 94.189516 234.377674 
L 94.514496 233.976572 
L 95.164455 235.456339 
L 95.489434 232.860683 
L 95.814414 232.478717 
L 96.139393 234.277442 
L 96.464373 232.617335 
L 96.789352 234.177273 
L 97.114332 234.152338 
L 97.439311 233.329801 
L 98.08927 231.053225 
L 98.41425 230.505847 
L 98.739229 229.101614 
L 99.389188 234.006706 
L 99.714168 232.5431 
L 100.039147 232.894135 
L 100.689107 230.638373 
L 101.014086 231.126197 
L 101.339066 230.790216 
L 101.664045 231.773381 
L 101.989025 231.268904 
L 102.314004 230.397897 
L 102.638984 228.314497 
L 102.963963 228.248439 
L 103.288943 229.747983 
L 103.613922 229.690239 
L 103.938902 229.840175 
L 104.588861 232.520143 
L 104.91384 231.092871 
L 105.23882 228.424007 
L 105.563799 228.151088 
L 106.213758 231.111664 
L 106.863717 229.617435 
L 107.188697 230.774209 
L 108.163636 227.558324 
L 108.488615 228.536301 
L 108.813595 230.323051 
L 109.138574 229.395771 
L 109.463554 228.881681 
L 109.788533 227.407406 
L 110.113513 227.985104 
L 110.438492 230.31047 
L 110.763472 230.034194 
L 111.088451 229.35895 
L 111.413431 229.892488 
L 111.73841 229.806772 
L 112.713349 224.436514 
L 113.038328 223.532026 
L 113.363308 223.992733 
L 113.688288 226.766426 
L 114.013267 226.428464 
L 114.338247 225.824908 
L 114.663226 224.162188 
L 114.988206 223.468219 
L 115.638165 229.597627 
L 116.288124 223.825906 
L 116.613103 223.937903 
L 116.938083 226.369164 
L 117.263062 225.948931 
L 117.913021 222.898851 
L 118.238001 222.355742 
L 118.56298 222.15314 
L 118.88796 220.533922 
L 119.212939 221.663252 
L 119.537919 223.957035 
L 119.862898 225.187403 
L 120.512858 223.49865 
L 120.837837 223.267634 
L 121.487796 220.801016 
L 121.812776 221.19566 
L 122.137755 219.543495 
L 122.462735 219.770725 
L 122.787714 221.637327 
L 123.112694 222.039773 
L 123.437673 221.625783 
L 123.762653 223.501255 
L 124.087632 223.495239 
L 124.412612 221.633276 
L 124.737591 221.210355 
L 125.062571 219.30591 
L 125.38755 218.571891 
L 125.71253 219.996703 
L 126.037509 220.46705 
L 126.362489 219.85394 
L 126.687469 219.802549 
L 127.012448 221.827885 
L 127.337428 220.958914 
L 127.662407 220.922109 
L 127.987387 220.331752 
L 128.312366 219.318712 
L 128.637346 221.584809 
L 128.962325 221.67148 
L 129.287305 220.695365 
L 129.612284 217.090455 
L 130.262243 220.408835 
L 130.912202 218.140872 
L 131.237182 218.364138 
L 131.887141 222.672578 
L 132.5371 223.311908 
L 132.862079 223.131095 
L 133.187059 221.224311 
L 133.512039 216.663886 
L 133.837018 215.616508 
L 134.161998 218.200943 
L 134.486977 219.599605 
L 134.811957 219.840789 
L 135.136936 220.75207 
L 135.461916 222.554979 
L 135.786895 221.401384 
L 136.436854 216.328341 
L 136.761834 216.370871 
L 137.086813 215.519871 
L 137.411793 216.064372 
L 137.736772 217.0191 
L 138.061752 216.694243 
L 138.386731 217.679445 
L 139.03669 220.889135 
L 139.36167 218.941419 
L 139.68665 215.900812 
L 140.336609 217.905223 
L 140.661588 216.755231 
L 140.986568 216.764733 
L 141.311547 217.767822 
L 141.636527 217.756508 
L 142.286486 217.198237 
L 142.611465 216.46445 
L 142.936445 214.88508 
L 143.261424 214.045735 
L 143.586404 213.564551 
L 143.911383 217.245057 
L 144.236363 217.452847 
L 144.561342 215.720785 
L 144.886322 213.080464 
L 145.211301 212.155337 
L 145.536281 213.658389 
L 145.86126 213.738328 
L 146.18624 212.39355 
L 146.51122 213.38 
L 146.836199 215.604997 
L 147.161179 215.187963 
L 147.811138 213.520548 
L 148.136117 214.213202 
L 148.461097 215.193138 
L 148.786076 215.025783 
L 149.111056 215.904602 
L 149.761015 210.870796 
L 150.735953 212.339205 
L 151.060933 212.294184 
L 151.385912 212.649459 
L 151.710892 213.419523 
L 152.035871 212.941538 
L 152.360851 213.377579 
L 153.01081 217.26783 
L 153.660769 213.676919 
L 153.985749 213.583269 
L 154.310728 214.011736 
L 154.635708 213.43446 
L 155.285667 215.642434 
L 155.610646 214.110295 
L 155.935626 213.121726 
L 156.260605 213.103081 
L 156.585585 214.376979 
L 156.910564 214.949222 
L 157.560523 213.085147 
L 158.210482 211.69105 
L 158.535462 210.694765 
L 158.860441 210.545226 
L 159.510401 213.238326 
L 160.16036 215.191482 
L 160.485339 214.351919 
L 161.135298 211.097179 
L 161.460278 209.54488 
L 162.110237 211.794374 
L 162.760196 209.525587 
L 163.085175 209.571107 
L 163.410155 211.405577 
L 164.060114 212.799969 
L 164.385093 211.62058 
L 164.710073 211.894838 
L 165.035052 211.869108 
L 165.360032 211.16183 
L 165.685012 209.422328 
L 166.009991 209.760239 
L 166.334971 210.802176 
L 166.98493 208.071708 
L 167.309909 206.487993 
L 167.634889 207.179714 
L 167.959868 209.330528 
L 168.284848 209.492633 
L 168.609827 210.550155 
L 168.934807 212.540188 
L 169.259786 213.171432 
L 169.584766 212.125869 
L 170.234725 209.424575 
L 170.559704 212.668143 
L 170.884684 212.653183 
L 171.209663 210.754272 
L 171.859622 209.267149 
L 172.509582 212.313463 
L 172.834561 211.123051 
L 173.159541 208.630105 
L 173.8095 210.879679 
L 174.459459 211.189252 
L 174.784438 211.929203 
L 175.109418 212.215995 
L 176.084356 210.752929 
L 176.409336 210.112088 
L 176.734315 208.522088 
L 177.059295 207.990188 
L 177.709254 210.503343 
L 178.034233 208.93645 
L 178.359213 208.00381 
L 178.684193 208.744122 
L 179.009172 208.607235 
L 179.334152 210.380175 
L 179.659131 208.461432 
L 179.984111 208.279599 
L 180.63407 210.542781 
L 180.959049 209.957987 
L 181.609008 206.502143 
L 181.933988 206.644635 
L 182.258967 207.191614 
L 182.583947 209.124271 
L 182.908926 210.314978 
L 183.233906 209.828829 
L 184.208844 205.374478 
L 184.533824 205.85617 
L 184.858803 206.741302 
L 185.508763 204.764716 
L 185.833742 203.360359 
L 187.13366 208.609659 
L 187.45864 206.80491 
L 187.783619 203.569171 
L 188.433578 204.137521 
L 188.758558 201.223401 
L 189.083537 201.673677 
L 189.408517 203.490704 
L 189.733496 203.514152 
L 190.383455 205.02061 
L 190.708435 205.022477 
L 191.033414 204.363928 
L 191.358394 202.694985 
L 191.683374 202.559966 
L 192.008353 204.68842 
L 192.333333 205.096903 
L 192.658312 203.806557 
L 192.983292 205.99029 
L 193.308271 206.662578 
L 193.633251 205.653266 
L 193.95823 205.762907 
L 194.28321 206.208166 
L 194.608189 206.38232 
L 194.933169 205.414054 
L 195.258148 203.024931 
L 195.583128 203.266167 
L 195.908107 205.493682 
L 196.233087 206.495493 
L 196.558066 206.371049 
L 196.883046 204.304291 
L 197.208025 205.26503 
L 197.533005 205.707908 
L 197.857984 203.546525 
L 198.182964 203.704638 
L 198.507944 204.786919 
L 198.832923 204.878004 
L 199.157903 204.563236 
L 199.807862 202.706286 
L 200.7828 204.597144 
L 201.10778 204.526917 
L 201.432759 203.267399 
L 201.757739 203.254153 
L 202.082718 203.901845 
L 202.407698 205.774342 
L 202.732677 205.270319 
L 203.057657 203.504737 
L 203.382636 203.725381 
L 203.707616 205.677396 
L 204.032595 206.309975 
L 204.357575 205.960664 
L 204.682555 203.626199 
L 205.007534 202.498018 
L 205.332514 203.118625 
L 205.657493 205.619328 
L 205.982473 206.66932 
L 206.307452 204.109289 
L 206.632432 203.193593 
L 206.957411 204.928629 
L 207.282391 205.475807 
L 207.60737 204.807396 
L 207.93235 204.53729 
L 208.582309 205.783352 
L 208.907288 206.821238 
L 209.232268 206.127585 
L 209.557247 204.649666 
L 209.882227 204.043234 
L 210.207206 204.725676 
L 210.532186 204.196072 
L 210.857165 203.157263 
L 211.182145 203.688851 
L 211.832104 203.395795 
L 212.482063 204.8946 
L 212.807043 206.40015 
L 213.457002 204.336867 
L 213.781981 203.845305 
L 214.43194 204.235989 
L 214.75692 203.202886 
L 215.081899 204.526672 
L 215.731858 206.116244 
L 216.056838 205.592059 
L 216.381817 203.882728 
L 216.706797 202.870921 
L 217.031776 202.545787 
L 217.356756 203.706032 
L 217.681736 203.787304 
L 218.006715 203.617636 
L 218.331695 203.284242 
L 218.656674 202.77741 
L 218.981654 202.034789 
L 219.306633 201.918554 
L 219.631613 200.477224 
L 219.956592 200.150124 
L 220.281572 202.193281 
L 220.606551 201.952157 
L 220.931531 200.57493 
L 221.25651 200.880061 
L 221.58149 201.943011 
L 221.906469 201.962336 
L 222.231449 202.253297 
L 222.881408 201.856867 
L 223.206387 200.437126 
L 223.531367 200.874865 
L 223.856346 202.082978 
L 224.181326 201.287603 
L 224.506306 200.817656 
L 224.831285 200.061556 
L 225.481244 198.147214 
L 225.806224 200.434075 
L 226.456183 202.652757 
L 226.781162 203.03062 
L 227.106142 200.283147 
L 227.431121 201.171384 
L 227.756101 202.559068 
L 228.08108 203.113099 
L 228.40606 201.039455 
L 228.731039 200.846761 
L 229.705978 202.733466 
L 230.355937 200.689682 
L 230.680917 199.485638 
L 231.655855 204.04021 
L 231.980835 203.675139 
L 232.305814 200.938909 
L 232.630794 200.827078 
L 232.955773 200.981539 
L 233.280753 200.722959 
L 233.605732 201.271045 
L 233.930712 201.420276 
L 234.255691 201.96174 
L 234.580671 203.581421 
L 234.90565 204.438833 
L 235.23063 203.375982 
L 235.555609 203.685251 
L 235.880589 205.050809 
L 236.205568 204.575669 
L 236.530548 201.81635 
L 236.855527 201.163956 
L 237.180507 202.332563 
L 237.505487 203.959798 
L 237.830466 203.762852 
L 238.480425 203.042712 
L 239.130384 201.011873 
L 239.780343 201.058263 
L 240.430302 202.750392 
L 240.755282 202.926887 
L 241.080261 202.169749 
L 241.73022 199.48887 
L 242.380179 199.372023 
L 242.705159 198.073095 
L 243.030138 199.343104 
L 243.355118 200.064425 
L 243.680098 198.05223 
L 244.005077 197.670352 
L 244.330057 199.459038 
L 244.655036 199.78093 
L 244.980016 198.154679 
L 245.304995 198.572893 
L 245.954954 200.602079 
L 246.279934 199.769334 
L 246.604913 196.984256 
L 247.254872 197.958029 
L 247.579852 196.915548 
L 247.904831 196.612974 
L 248.229811 195.753068 
L 248.55479 196.046733 
L 248.87977 196.777649 
L 249.204749 197.164099 
L 249.529729 196.316115 
L 249.854708 197.702285 
L 250.179688 197.8349 
L 250.504668 197.488323 
L 250.829647 196.31367 
L 251.154627 198.332619 
L 251.479606 199.599214 
L 251.804586 198.447205 
L 252.129565 197.891247 
L 252.454545 198.207584 
L 252.779524 198.126699 
L 253.104504 196.534661 
L 253.429483 195.930053 
L 253.754463 196.275679 
L 254.079442 199.634663 
L 254.729401 199.139601 
L 255.054381 199.243859 
L 255.37936 199.948261 
L 255.70434 198.37495 
L 256.354299 196.229175 
L 256.679279 196.762969 
L 257.004258 196.926636 
L 257.329238 195.770611 
L 257.654217 195.489332 
L 257.979197 196.016261 
L 258.304176 196.153175 
L 258.954135 198.443049 
L 259.279115 196.933352 
L 259.604094 196.648755 
L 259.929074 195.501805 
L 260.254053 193.164133 
L 260.904012 193.380923 
L 261.228992 195.195048 
L 261.553971 197.979543 
L 261.878951 195.931244 
L 262.20393 191.62412 
L 262.52891 194.731627 
L 262.853889 195.792989 
L 263.178869 195.525116 
L 263.503849 196.037343 
L 263.828828 195.578492 
L 264.153808 196.204943 
L 264.478787 197.437214 
L 264.803767 197.253333 
L 265.128746 197.444155 
L 265.453726 195.584453 
L 265.778705 196.193706 
L 266.103685 196.432931 
L 266.428664 195.442524 
L 266.753644 196.005033 
L 267.078623 193.925725 
L 267.728582 192.701135 
L 268.053562 194.270921 
L 268.378541 194.991277 
L 269.0285 193.022378 
L 269.35348 192.302689 
L 269.67846 193.198452 
L 270.003439 197.097476 
L 270.328419 198.86081 
L 270.978378 195.5983 
L 271.303357 193.58826 
L 271.628337 192.788841 
L 272.278296 196.728447 
L 272.603275 196.294997 
L 272.928255 196.07334 
L 273.253234 195.317692 
L 273.578214 194.182749 
L 273.903193 193.792667 
L 274.228173 193.95642 
L 274.553152 192.601037 
L 274.878132 193.121205 
L 275.528091 196.491547 
L 275.85307 196.10782 
L 276.17805 194.897475 
L 276.50303 195.239835 
L 276.828009 196.789712 
L 277.152989 197.579504 
L 277.477968 196.249314 
L 277.802948 193.805403 
L 278.127927 194.085623 
L 278.777886 195.229544 
L 279.102866 196.842789 
L 279.427845 195.72253 
L 279.752825 195.045054 
L 280.077804 195.731885 
L 280.402784 195.20446 
L 280.727763 193.351439 
L 281.052743 192.801293 
L 281.377722 194.904399 
L 281.702702 196.250022 
L 282.027681 196.060473 
L 282.352661 196.728072 
L 282.677641 195.81667 
L 283.3276 193.214421 
L 283.652579 193.317639 
L 283.977559 194.492448 
L 284.302538 193.578846 
L 284.627518 191.943634 
L 285.602456 194.264171 
L 285.927436 196.741161 
L 286.252415 197.069358 
L 286.902374 193.976882 
L 287.227354 193.522953 
L 287.552333 193.919225 
L 287.877313 195.575276 
L 288.202292 195.31417 
L 288.527272 195.497585 
L 288.852251 195.206985 
L 289.177231 193.914638 
L 289.502211 194.460299 
L 289.82719 194.633352 
L 290.802129 197.215407 
L 291.452088 197.202256 
L 291.777067 196.611617 
L 292.102047 193.750604 
L 292.427026 192.951332 
L 292.752006 193.459846 
L 293.076985 194.359661 
L 293.401965 193.523406 
L 293.726944 193.901483 
L 294.051924 193.730194 
L 294.376903 193.913988 
L 294.701883 194.491211 
L 295.026862 194.708455 
L 295.676822 192.806939 
L 296.001801 192.808565 
L 296.326781 193.766129 
L 296.97674 197.989256 
L 297.301719 198.253983 
L 297.626699 196.480201 
L 297.951678 193.530295 
L 298.276658 192.89593 
L 298.601637 191.581758 
L 299.251596 193.807864 
L 299.576576 193.744545 
L 299.901555 195.304957 
L 300.226535 196.204338 
L 300.551514 195.367839 
L 300.876494 194.959408 
L 301.201473 195.089082 
L 301.526453 196.765274 
L 301.851432 197.563813 
L 302.176412 197.23056 
L 302.501392 196.420683 
L 302.826371 196.385612 
L 303.47633 192.358238 
L 304.451269 196.065939 
L 304.776248 196.359407 
L 305.101228 198.553669 
L 305.426207 196.933249 
L 305.751187 196.432156 
L 306.076166 198.323381 
L 306.401146 198.090545 
L 306.726125 196.217107 
L 307.051105 195.711051 
L 307.701064 197.631814 
L 308.026043 197.033194 
L 308.351023 195.697237 
L 308.676003 195.84847 
L 309.000982 196.877818 
L 309.325962 196.345336 
L 309.650941 195.263492 
L 309.975921 196.010594 
L 310.3009 196.158871 
L 310.62588 194.201042 
L 310.950859 194.10668 
L 311.275839 195.549115 
L 311.600818 197.655878 
L 311.925798 197.452364 
L 312.900736 195.488826 
L 313.550695 191.663196 
L 313.875675 193.678494 
L 314.200654 194.458627 
L 314.525634 193.151434 
L 314.850613 193.279565 
L 315.500573 194.93749 
L 315.825552 194.723038 
L 316.150532 194.982596 
L 316.475511 193.45004 
L 316.800491 190.613249 
L 317.12547 192.472416 
L 317.45045 195.083778 
L 318.100409 194.592362 
L 318.425388 195.087084 
L 318.750368 193.924279 
L 319.400327 193.822273 
L 319.725306 192.849281 
L 320.050286 192.876875 
L 320.375265 193.093616 
L 320.700245 192.979854 
L 321.350204 193.117161 
L 322.000163 191.390375 
L 322.325143 189.618192 
L 322.650122 190.619638 
L 322.975102 194.229456 
L 323.300081 195.874 
L 323.625061 195.646687 
L 323.95004 193.987759 
L 324.27502 192.942563 
L 324.599999 193.088184 
L 324.924979 193.663212 
L 325.249958 195.828083 
L 325.574938 196.326205 
L 326.224897 194.419827 
L 326.549876 194.643097 
L 327.199835 193.530044 
L 327.849794 191.726627 
L 328.174774 193.290889 
L 328.499754 193.71727 
L 328.824733 193.115325 
L 329.474692 194.782095 
L 329.799672 194.452432 
L 330.124651 193.283764 
L 330.449631 192.558526 
L 331.09959 193.755386 
L 331.749549 192.172701 
L 332.074528 191.922605 
L 332.724487 190.822836 
L 333.374446 190.675523 
L 333.699426 191.882059 
L 334.024405 191.824799 
L 334.349385 192.450802 
L 334.674365 193.398555 
L 334.999344 192.63113 
L 335.324324 190.843058 
L 335.649303 191.365243 
L 335.974283 190.926516 
L 336.299262 192.934706 
L 336.624242 193.868493 
L 336.949221 192.502693 
L 337.274201 190.239842 
L 337.59918 190.195662 
L 337.92416 190.78184 
L 338.249139 190.966403 
L 338.574119 191.839124 
L 339.549057 192.637207 
L 339.874037 192.471233 
L 340.199016 191.240084 
L 340.523996 191.561356 
L 341.173955 193.657159 
L 341.498935 193.851254 
L 341.823914 193.420274 
L 342.148894 192.6639 
L 342.798853 187.40546 
L 343.123832 189.688631 
L 343.448812 189.630319 
L 343.773791 188.701154 
L 344.098771 189.509181 
L 344.42375 188.796329 
L 344.74873 187.612378 
L 345.073709 188.99792 
L 345.398689 189.659369 
L 345.723668 188.977141 
L 346.048648 188.752167 
L 346.373627 188.715481 
L 346.698607 188.203072 
L 347.023586 188.04065 
L 347.348566 188.531293 
L 347.673546 188.480551 
L 347.998525 188.94949 
L 348.323505 189.185015 
L 348.973464 186.46375 
L 349.298443 188.677594 
L 349.623423 189.646178 
L 350.273382 186.320535 
L 350.598361 187.805953 
L 351.24832 191.20721 
L 351.898279 189.923172 
L 352.223259 189.582085 
L 352.548238 188.572289 
L 352.873218 185.857952 
L 353.198197 184.760626 
L 353.848156 188.758575 
L 354.173136 189.239261 
L 354.498116 189.498476 
L 354.823095 188.506457 
L 355.148075 188.664215 
L 355.473054 187.97598 
L 355.798034 187.991918 
L 356.123013 188.496983 
L 356.447993 188.430795 
L 357.097952 190.034211 
L 357.422931 190.532571 
L 357.747911 190.647541 
L 358.39787 187.911683 
L 358.722849 187.985189 
L 359.372808 187.265982 
L 359.697788 188.294105 
L 360.022767 187.268834 
L 360.347747 184.666368 
L 360.672727 184.511731 
L 360.997706 186.845477 
L 361.322686 187.005149 
L 361.972645 189.746614 
L 362.297624 189.424345 
L 362.622604 187.67746 
L 362.947583 186.80604 
L 363.272563 186.773669 
L 363.597542 186.605365 
L 364.247501 184.708372 
L 364.572481 184.04793 
L 364.89746 184.783302 
L 365.22244 184.932315 
L 365.547419 184.474752 
L 365.872399 185.482893 
L 366.197378 187.087485 
L 366.522358 187.922849 
L 366.847337 187.565891 
L 367.172317 186.041513 
L 367.497297 185.465828 
L 368.147256 187.621497 
L 368.797215 186.08048 
L 369.447174 183.075312 
L 370.422112 188.106283 
L 370.747092 188.848542 
L 371.072071 189.033937 
L 371.397051 187.458818 
L 371.72203 188.963597 
L 372.04701 188.643318 
L 372.371989 188.096568 
L 373.021948 185.874919 
L 373.346928 187.291394 
L 373.671908 187.863778 
L 374.321867 186.687598 
L 374.646846 187.525559 
L 374.971826 186.78307 
L 375.296805 185.240832 
L 375.621785 185.78571 
L 375.946764 187.707935 
L 376.271744 187.637832 
L 376.596723 187.988488 
L 377.246682 189.579015 
L 377.571662 190.385013 
L 377.896641 188.344286 
L 378.221621 187.335831 
L 378.5466 187.929716 
L 378.87158 187.12021 
L 379.521539 189.944191 
L 379.846518 188.354436 
L 380.171498 186.137153 
L 380.821457 191.634078 
L 381.146437 191.69741 
L 381.796396 189.594843 
L 382.121375 188.167183 
L 382.446355 188.322518 
L 382.771334 187.611634 
L 383.096314 187.808123 
L 383.421293 189.797227 
L 383.746273 189.650485 
L 384.071252 188.204329 
L 384.396232 188.494731 
L 384.721211 188.546443 
L 385.046191 186.960499 
L 385.37117 186.672404 
L 385.69615 188.3855 
L 386.021129 188.62146 
L 386.346109 187.548436 
L 386.671089 185.874908 
L 387.321048 186.276808 
L 387.646027 186.329713 
L 387.971007 187.458634 
L 388.295986 187.939744 
L 388.620966 186.600438 
L 388.945945 184.3766 
L 389.270925 186.09772 
L 389.595904 188.447047 
L 389.920884 188.79085 
L 390.570843 188.46106 
L 390.895822 187.655319 
L 391.220802 187.885254 
L 391.545781 188.468872 
L 392.19574 191.255892 
L 392.52072 189.792135 
L 392.845699 187.444817 
L 393.170679 187.226709 
L 393.495659 187.473125 
L 394.145618 190.41917 
L 394.470597 190.55733 
L 394.795577 190.157229 
L 395.120556 189.281942 
L 395.445536 188.831179 
L 396.420474 188.651934 
L 396.745454 187.925598 
L 397.070433 187.8727 
L 397.720392 189.438169 
L 398.045372 189.484434 
L 398.695331 188.161099 
L 399.02031 188.43405 
L 399.34529 187.982238 
L 399.67027 187.750184 
L 399.995249 187.018932 
L 400.320229 185.362793 
L 400.645208 185.125113 
L 400.970188 188.184761 
L 401.620147 189.893711 
L 401.945126 189.58552 
L 402.270106 188.661227 
L 402.595085 188.21164 
L 402.595085 188.21164 
" clip-path="url(#p7de6ef0e58)" style="fill: none; stroke: #1f77b4; stroke-width: 1.5; stroke-linecap: square"/>
   </g>
   <g id="line2d_16">
    <path d="M 77.94054 51.444219 
L 78.265519 53.115753 
L 78.590499 53.592776 
L 78.915478 59.376097 
L 79.240458 70.810043 
L 79.565437 76.484429 
L 79.890417 72.541594 
L 80.215396 71.219252 
L 80.540376 68.595135 
L 80.865355 69.797106 
L 81.515315 63.243505 
L 81.840294 63.979295 
L 82.165274 61.961616 
L 82.490253 57.26341 
L 82.815233 58.713979 
L 83.140212 62.742968 
L 83.465192 63.398631 
L 83.790171 60.060105 
L 84.115151 58.91271 
L 84.44013 60.498753 
L 84.76511 58.934539 
L 85.090089 59.778977 
L 85.740048 58.432602 
L 86.065028 55.829687 
L 86.390007 57.40872 
L 86.714987 54.968401 
L 87.364946 53.979244 
L 87.689926 52.554491 
L 88.014905 56.352132 
L 88.339885 55.092867 
L 88.664864 56.208664 
L 88.989844 49.56563 
L 89.314823 50.267633 
L 89.964782 58.413657 
L 90.289762 57.812827 
L 90.614741 55.98101 
L 90.939721 52.31723 
L 91.58968 56.032183 
L 91.914659 54.050673 
L 92.239639 55.57736 
L 92.564618 52.996156 
L 93.214577 57.316023 
L 93.539557 51.176333 
L 94.189516 57.992472 
L 94.514496 57.831363 
L 94.839475 56.844919 
L 95.164455 60.852772 
L 95.489434 63.112403 
L 95.814414 63.47581 
L 96.139393 61.575013 
L 96.464373 61.64954 
L 97.114332 55.880947 
L 97.439311 55.714746 
L 97.764291 57.851958 
L 98.08927 56.321502 
L 98.41425 55.758923 
L 98.739229 57.855291 
L 99.064209 53.476065 
L 99.389188 51.417656 
L 99.714168 53.90827 
L 100.039147 54.846184 
L 100.364127 58.268699 
L 100.689107 60.184832 
L 101.014086 59.911839 
L 101.339066 60.568391 
L 101.664045 60.231187 
L 101.989025 59.567526 
L 102.314004 61.901448 
L 102.638984 65.396133 
L 102.963963 63.950386 
L 103.613922 66.973832 
L 103.938902 63.987257 
L 104.263881 62.438362 
L 104.588861 63.140041 
L 104.91384 64.952845 
L 105.23882 65.767576 
L 105.563799 66.037368 
L 105.888779 66.949001 
L 106.213758 65.631523 
L 106.538738 64.946814 
L 106.863717 66.91912 
L 107.188697 65.377068 
L 107.513677 67.955478 
L 108.163636 63.12398 
L 108.488615 58.147629 
L 108.813595 57.129492 
L 109.138574 54.591336 
L 109.463554 54.704301 
L 109.788533 56.57759 
L 110.113513 55.627678 
L 110.438492 50.009652 
L 110.763472 48.749437 
L 111.088451 48.346245 
L 111.413431 47.653795 
L 112.388369 51.930163 
L 112.713349 51.005297 
L 113.038328 52.079309 
L 113.363308 50.372057 
L 113.688288 49.980799 
L 114.013267 50.977337 
L 114.338247 50.823164 
L 114.663226 50.9344 
L 114.988206 51.339448 
L 115.313185 51.311258 
L 115.638165 46.812423 
L 116.288124 51.331709 
L 116.938083 49.409977 
L 117.588042 50.657243 
L 117.913021 47.379413 
L 118.238001 51.02511 
L 118.56298 50.843114 
L 118.88796 51.756008 
L 119.212939 50.919973 
L 119.537919 46.895465 
L 119.862898 46.156504 
L 120.187878 49.315071 
L 120.512858 50.504814 
L 120.837837 50.905949 
L 121.162817 50.576474 
L 121.487796 56.013861 
L 121.812776 55.540267 
L 122.137755 53.732672 
L 122.462735 54.466443 
L 122.787714 56.009828 
L 123.112694 54.778724 
L 123.437673 57.093464 
L 123.762653 50.983179 
L 124.412612 53.7954 
L 124.737591 53.296913 
L 125.062571 55.162136 
L 125.38755 56.356459 
L 125.71253 55.877771 
L 126.037509 56.937238 
L 126.687469 61.089389 
L 127.012448 56.811232 
L 127.337428 56.369293 
L 127.662407 53.591266 
L 127.987387 55.698022 
L 128.312366 56.913848 
L 128.637346 53.652163 
L 129.287305 57.209797 
L 129.612284 60.440984 
L 129.937264 55.057088 
L 130.262243 52.397477 
L 130.912202 54.707191 
L 131.237182 54.519876 
L 131.562161 50.394414 
L 131.887141 50.044951 
L 132.5371 53.469539 
L 132.862079 51.868245 
L 133.187059 54.837886 
L 133.512039 61.000285 
L 133.837018 60.19613 
L 134.161998 55.215682 
L 134.486977 54.992664 
L 134.811957 55.86741 
L 135.136936 49.86647 
L 135.461916 46.980581 
L 135.786895 46.124968 
L 136.111875 47.669862 
L 136.436854 50.544757 
L 136.761834 50.930274 
L 137.086813 50.920285 
L 137.411793 50.041851 
L 137.736772 50.742089 
L 138.061752 52.491398 
L 138.386731 51.542563 
L 138.711711 53.038482 
L 139.03669 52.064623 
L 139.36167 55.119636 
L 139.68665 55.941737 
L 140.011629 52.131213 
L 140.336609 51.920474 
L 140.661588 49.774813 
L 140.986568 49.911171 
L 141.311547 46.571824 
L 141.636527 45.802694 
L 141.961506 46.667754 
L 142.286486 49.640741 
L 142.611465 48.644416 
L 142.936445 50.506781 
L 143.261424 50.609153 
L 143.586404 50.444962 
L 143.911383 49.32658 
L 144.236363 43.365377 
L 144.561342 44.357621 
L 145.211301 50.923544 
L 145.536281 50.301329 
L 145.86126 50.473671 
L 146.18624 48.54062 
L 146.51122 50.10085 
L 146.836199 48.6462 
L 147.161179 46.179229 
L 147.811138 50.167894 
L 148.136117 48.44261 
L 148.461097 48.241026 
L 148.786076 48.755539 
L 149.111056 46.175232 
L 149.436035 48.059554 
L 149.761015 51.069141 
L 150.085994 48.817153 
L 150.410974 47.525081 
L 150.735953 49.17476 
L 151.060933 48.294756 
L 151.385912 49.982963 
L 152.035871 51.220546 
L 152.360851 48.89504 
L 152.685831 44.347117 
L 153.01081 44.869986 
L 153.660769 48.951935 
L 153.985749 51.501496 
L 154.310728 50.729477 
L 154.635708 51.160915 
L 155.285667 48.14507 
L 155.610646 47.816831 
L 155.935626 49.293847 
L 156.260605 47.005433 
L 156.585585 46.546324 
L 156.910564 42.275592 
L 157.235544 45.049355 
L 157.560523 46.527224 
L 157.885503 44.90676 
L 158.210482 47.500338 
L 158.535462 44.973253 
L 158.860441 46.471849 
L 159.185421 44.601576 
L 159.510401 47.572993 
L 159.83538 45.062352 
L 160.16036 44.33149 
L 160.485339 47.95465 
L 160.810319 48.835227 
L 161.135298 51.325555 
L 161.460278 58.811557 
L 161.785257 56.435477 
L 162.110237 52.89242 
L 162.435216 54.29305 
L 162.760196 56.883828 
L 163.085175 57.239526 
L 163.410155 53.824058 
L 163.735134 52.687024 
L 164.060114 52.371451 
L 164.385093 50.771612 
L 164.710073 53.294109 
L 165.035052 52.269458 
L 165.360032 54.78784 
L 166.334971 45.650885 
L 166.65995 44.426906 
L 167.309909 48.827774 
L 167.634889 45.608704 
L 167.959868 45.105738 
L 168.284848 47.191114 
L 168.609827 46.208513 
L 168.934807 46.287957 
L 169.584766 48.850578 
L 169.909745 49.959828 
L 170.234725 49.842759 
L 170.884684 51.934426 
L 171.209663 53.115396 
L 171.534643 57.036 
L 172.184602 55.308905 
L 172.509582 54.481086 
L 173.159541 59.191254 
L 173.48452 57.836045 
L 173.8095 53.250856 
L 174.134479 52.157898 
L 174.459459 57.122846 
L 175.109418 58.279719 
L 175.434397 61.106663 
L 175.759377 59.129538 
L 176.084356 56.187607 
L 176.409336 55.194097 
L 176.734315 57.373312 
L 177.059295 55.088148 
L 177.384274 53.598605 
L 177.709254 53.533324 
L 178.359213 56.695802 
L 179.009172 56.6634 
L 179.334152 54.238645 
L 179.659131 59.054187 
L 179.984111 60.120689 
L 180.30909 58.052876 
L 180.959049 60.733192 
L 181.284029 60.657358 
L 181.609008 63.126942 
L 181.933988 60.507576 
L 182.258967 61.255011 
L 182.908926 57.986841 
L 183.233906 58.316712 
L 183.558885 60.194129 
L 183.883865 57.844177 
L 184.208844 61.328843 
L 184.858803 54.690914 
L 185.183783 51.301363 
L 185.508763 50.102254 
L 185.833742 54.288264 
L 187.13366 44.7626 
L 187.45864 47.214942 
L 188.108599 53.722439 
L 188.433578 54.443882 
L 188.758558 58.030391 
L 189.083537 57.407091 
L 189.408517 52.45619 
L 189.733496 51.470511 
L 190.058476 54.443254 
L 190.383455 52.162254 
L 190.708435 55.679938 
L 191.033414 56.937451 
L 191.358394 57.578683 
L 191.683374 60.770197 
L 192.008353 55.440089 
L 192.333333 53.915632 
L 192.658312 54.2249 
L 192.983292 51.833326 
L 193.308271 51.859896 
L 193.633251 53.563902 
L 193.95823 53.241384 
L 194.28321 50.524968 
L 194.608189 54.494234 
L 194.933169 56.906378 
L 195.258148 62.243215 
L 195.583128 59.536852 
L 195.908107 54.720201 
L 196.233087 55.208789 
L 196.558066 54.533121 
L 196.883046 55.346617 
L 197.857984 59.494066 
L 198.507944 57.323738 
L 198.832923 54.912945 
L 199.157903 54.027042 
L 199.482882 51.900926 
L 199.807862 52.58017 
L 200.132841 50.426429 
L 200.457821 50.762228 
L 200.7828 53.861124 
L 201.10778 54.783043 
L 201.432759 55.324084 
L 201.757739 54.66215 
L 202.082718 57.224625 
L 202.407698 52.293092 
L 202.732677 53.26771 
L 203.057657 55.576167 
L 203.382636 55.192131 
L 203.707616 53.840724 
L 204.032595 53.407779 
L 204.357575 54.418818 
L 204.682555 54.8173 
L 205.332514 58.411852 
L 205.657493 58.606703 
L 205.982473 59.775064 
L 206.307452 62.875866 
L 206.632432 62.998412 
L 206.957411 61.346134 
L 207.282391 58.265765 
L 207.60737 59.781625 
L 207.93235 58.288342 
L 208.257329 59.814342 
L 208.582309 56.814579 
L 208.907288 55.626351 
L 210.207206 48.43451 
L 210.532186 50.530604 
L 210.857165 51.35247 
L 211.182145 51.320712 
L 211.507125 52.964555 
L 211.832104 53.709286 
L 212.157084 52.778753 
L 212.482063 50.847714 
L 212.807043 47.433221 
L 213.132022 51.606517 
L 213.457002 53.945752 
L 213.781981 54.224539 
L 214.106961 54.296842 
L 214.43194 51.360118 
L 214.75692 53.923332 
L 215.081899 54.698572 
L 215.406879 52.128466 
L 215.731858 52.497079 
L 216.381817 56.394489 
L 216.706797 56.655087 
L 217.031776 56.115096 
L 217.356756 53.880277 
L 217.681736 52.823569 
L 218.331695 56.742309 
L 218.981654 53.426165 
L 219.306633 58.324574 
L 219.631613 57.760143 
L 219.956592 55.240104 
L 220.281572 54.123353 
L 220.606551 55.035825 
L 220.931531 58.49204 
L 221.25651 58.256883 
L 221.58149 57.236791 
L 221.906469 57.711214 
L 222.231449 56.19766 
L 222.556428 56.623954 
L 222.881408 58.832151 
L 223.206387 58.622052 
L 223.531367 55.261402 
L 223.856346 53.499908 
L 224.181326 55.148251 
L 224.506306 54.965981 
L 224.831285 56.100771 
L 225.156265 56.587474 
L 225.481244 57.7546 
L 225.806224 54.934903 
L 226.131203 55.559674 
L 226.456183 52.98351 
L 226.781162 52.438387 
L 227.106142 56.378102 
L 227.431121 55.603371 
L 227.756101 51.610052 
L 228.08108 51.158896 
L 228.731039 53.739896 
L 229.056019 53.58723 
L 229.380998 52.315777 
L 229.705978 52.907776 
L 230.030957 55.622103 
L 230.355937 56.620164 
L 230.680917 56.04704 
L 231.005896 57.083343 
L 231.330876 54.910644 
L 231.980835 52.578432 
L 232.305814 56.056798 
L 232.630794 55.648283 
L 232.955773 60.345152 
L 233.280753 60.704421 
L 233.605732 59.955514 
L 233.930712 59.657189 
L 234.255691 57.558448 
L 234.580671 59.292155 
L 234.90565 56.331506 
L 235.23063 56.594011 
L 235.555609 57.978244 
L 235.880589 54.89895 
L 236.205568 57.388224 
L 236.530548 61.567878 
L 236.855527 59.790492 
L 237.505487 54.606518 
L 237.830466 54.150963 
L 238.155446 51.866432 
L 238.805405 57.601374 
L 239.130384 57.856837 
L 239.780343 53.256917 
L 240.105323 50.171848 
L 240.430302 49.302213 
L 240.755282 51.253394 
L 241.080261 51.437913 
L 241.405241 54.777779 
L 241.73022 54.835262 
L 242.0552 52.219171 
L 242.380179 51.172737 
L 242.705159 57.207524 
L 243.030138 54.478364 
L 243.355118 53.407882 
L 244.005077 56.280092 
L 244.330057 51.107116 
L 244.655036 52.416154 
L 244.980016 55.251188 
L 245.629975 52.48619 
L 245.954954 50.245773 
L 246.279934 50.486021 
L 246.604913 52.88874 
L 246.929893 48.701893 
L 247.254872 47.356052 
L 247.579852 49.526225 
L 248.229811 57.626486 
L 248.55479 58.957541 
L 248.87977 59.001542 
L 249.204749 56.900713 
L 249.529729 56.626398 
L 249.854708 55.266715 
L 250.179688 54.689242 
L 250.504668 56.231332 
L 250.829647 53.396082 
L 251.154627 45.910205 
L 251.479606 44.794159 
L 251.804586 45.112085 
L 252.129565 45.045199 
L 252.454545 43.110818 
L 252.779524 45.957204 
L 253.104504 45.35795 
L 253.429483 47.89215 
L 253.754463 47.078614 
L 254.079442 43.910943 
L 254.404422 44.546586 
L 254.729401 49.061377 
L 255.054381 47.9072 
L 255.37936 50.564516 
L 255.70434 50.819185 
L 256.029319 48.633314 
L 256.354299 48.832741 
L 257.004258 44.873589 
L 257.329238 47.655095 
L 257.654217 44.403991 
L 257.979197 42.82683 
L 258.304176 42.662266 
L 258.629156 42.04778 
L 258.954135 39.754851 
L 259.604094 45.379686 
L 259.929074 43.518257 
L 260.579033 50.437574 
L 260.904012 46.773926 
L 261.228992 49.48766 
L 261.553971 46.219617 
L 261.878951 47.31415 
L 262.20393 49.119045 
L 262.52891 46.608715 
L 262.853889 45.705487 
L 263.178869 46.289209 
L 263.503849 42.937973 
L 263.828828 48.766877 
L 264.153808 47.912321 
L 264.478787 47.467496 
L 264.803767 48.958645 
L 265.128746 48.171346 
L 265.453726 48.768419 
L 266.428664 51.391706 
L 266.753644 48.845923 
L 267.078623 53.299627 
L 267.403603 52.649062 
L 267.728582 53.139024 
L 268.053562 47.972191 
L 268.378541 45.026848 
L 268.703521 44.928459 
L 269.0285 51.101147 
L 269.35348 51.936701 
L 269.67846 48.814913 
L 270.003439 41.43403 
L 270.653398 45.723488 
L 270.978378 47.680343 
L 271.303357 48.312636 
L 271.628337 48.025639 
L 272.278296 43.268893 
L 272.603275 45.952261 
L 272.928255 43.873629 
L 273.253234 48.033058 
L 274.228173 45.522638 
L 274.553152 48.094179 
L 275.203111 41.854615 
L 275.528091 41.146822 
L 275.85307 45.586638 
L 276.17805 40.582485 
L 276.50303 40.835911 
L 276.828009 38.425671 
L 277.802948 45.315173 
L 278.127927 44.684315 
L 278.452907 40.020866 
L 278.777886 37.035433 
L 279.102866 35.330117 
L 279.427845 34.414125 
L 279.752825 36.855687 
L 280.077804 40.705547 
L 280.402784 40.027626 
L 280.727763 40.769316 
L 281.377722 47.561834 
L 282.027681 44.488399 
L 282.352661 44.1466 
L 282.677641 47.125722 
L 283.00262 47.697371 
L 283.3276 46.65178 
L 283.652579 48.002621 
L 283.977559 47.157955 
L 284.302538 45.577879 
L 284.627518 49.672308 
L 284.952497 47.159321 
L 285.277477 46.415873 
L 285.602456 48.010529 
L 285.927436 44.228094 
L 286.252415 43.288756 
L 286.577395 46.221359 
L 286.902374 54.648329 
L 287.227354 54.271758 
L 287.552333 51.82036 
L 287.877313 46.590952 
L 288.202292 46.832231 
L 288.527272 45.284777 
L 288.852251 48.615904 
L 289.177231 49.80339 
L 289.82719 46.810026 
L 290.15217 48.059767 
L 290.477149 48.741813 
L 290.802129 47.791907 
L 291.452088 47.03618 
L 291.777067 48.496891 
L 292.102047 47.307886 
L 292.427026 45.387392 
L 292.752006 40.927408 
L 293.076985 38.681532 
L 293.401965 41.591947 
L 293.726944 42.411953 
L 294.051924 44.281385 
L 294.376903 43.516629 
L 294.701883 43.107035 
L 295.026862 43.035542 
L 295.351842 44.642428 
L 295.676822 43.888566 
L 296.001801 44.867269 
L 296.326781 40.760983 
L 296.65176 40.874994 
L 296.97674 38.600085 
L 297.301719 41.456912 
L 297.626699 41.623018 
L 297.951678 46.290153 
L 298.601637 52.325734 
L 298.926617 46.894782 
L 299.251596 47.074835 
L 299.576576 46.546419 
L 299.901555 44.714244 
L 300.226535 44.383587 
L 300.551514 46.096319 
L 300.876494 46.203619 
L 301.201473 47.034574 
L 301.526453 44.098626 
L 301.851432 42.688111 
L 302.176412 44.560017 
L 303.151351 53.970421 
L 303.47633 56.990137 
L 303.80131 52.824954 
L 304.126289 52.443433 
L 304.451269 52.945493 
L 304.776248 54.684406 
L 305.101228 53.601681 
L 305.426207 58.459243 
L 305.751187 57.691781 
L 306.076166 53.921192 
L 306.401146 53.398163 
L 306.726125 53.196947 
L 307.051105 51.683237 
L 307.376084 53.09696 
L 307.701064 50.33987 
L 308.351023 55.343279 
L 308.676003 52.471422 
L 309.000982 51.746069 
L 309.325962 51.297113 
L 309.650941 50.526688 
L 309.975921 50.432948 
L 310.3009 48.053829 
L 310.62588 49.035367 
L 310.950859 46.806414 
L 311.275839 49.532055 
L 311.600818 44.386497 
L 311.925798 42.571478 
L 312.575757 44.653758 
L 313.225716 49.051991 
L 313.550695 50.302664 
L 313.875675 49.986241 
L 314.200654 50.679754 
L 314.525634 49.791295 
L 314.850613 54.04887 
L 315.175593 53.471255 
L 315.500573 53.966549 
L 315.825552 53.477821 
L 316.150532 52.173715 
L 316.475511 54.013252 
L 316.800491 59.386346 
L 317.12547 57.419251 
L 317.45045 54.424619 
L 318.100409 55.577163 
L 318.425388 52.857809 
L 318.750368 55.225819 
L 319.075347 55.043248 
L 319.400327 56.668331 
L 319.725306 52.670947 
L 320.050286 52.242392 
L 320.375265 52.339342 
L 320.700245 54.356417 
L 321.025224 54.396976 
L 321.350204 56.808305 
L 322.000163 58.551297 
L 322.325143 61.299016 
L 322.650122 61.351402 
L 322.975102 57.740498 
L 323.300081 59.404094 
L 323.625061 59.436251 
L 323.95004 59.335828 
L 324.27502 58.761869 
L 324.599999 57.414331 
L 324.924979 60.417613 
L 325.249958 57.909717 
L 325.574938 54.368118 
L 325.899917 54.134993 
L 326.224897 59.686901 
L 326.549876 55.711814 
L 326.874856 55.741495 
L 327.199835 59.406525 
L 327.524815 60.145188 
L 328.174774 55.939438 
L 328.499754 56.196114 
L 328.824733 56.786104 
L 329.149713 52.297963 
L 329.474692 49.927129 
L 329.799672 51.885458 
L 330.124651 50.758327 
L 330.449631 52.992756 
L 330.77461 53.24374 
L 331.424569 53.378586 
L 331.749549 56.395552 
L 332.074528 54.336258 
L 332.399508 56.519915 
L 332.724487 56.631079 
L 333.049467 57.391756 
L 333.374446 56.721868 
L 333.699426 55.403492 
L 334.024405 54.644244 
L 334.349385 51.861693 
L 334.674365 52.161938 
L 334.999344 53.460208 
L 335.649303 51.531537 
L 335.974283 54.872176 
L 336.299262 50.183987 
L 336.624242 49.544791 
L 336.949221 50.551132 
L 337.274201 53.405682 
L 337.59918 53.99657 
L 337.92416 56.752771 
L 338.574119 52.016138 
L 338.899098 53.926276 
L 339.224078 50.683032 
L 339.549057 44.718267 
L 339.874037 44.397152 
L 340.199016 44.693288 
L 340.523996 46.869426 
L 340.848975 46.164897 
L 341.173955 44.94331 
L 341.498935 44.742633 
L 341.823914 42.29529 
L 342.148894 41.448885 
L 342.473873 43.830075 
L 342.798853 49.286498 
L 343.123832 45.911474 
L 343.448812 44.869889 
L 343.773791 46.379925 
L 344.098771 48.523826 
L 344.42375 52.210424 
L 344.74873 53.714841 
L 345.073709 53.538488 
L 345.398689 52.534617 
L 345.723668 54.438663 
L 346.048648 52.783963 
L 346.373627 54.974391 
L 346.698607 53.280879 
L 347.023586 53.553449 
L 347.348566 53.601455 
L 347.673546 56.083952 
L 347.998525 54.110142 
L 348.323505 52.909818 
L 348.648484 56.552772 
L 348.973464 58.258879 
L 349.298443 53.166498 
L 349.623423 51.651821 
L 349.948402 54.331517 
L 350.273382 55.458759 
L 350.598361 53.440893 
L 350.923341 53.379015 
L 351.24832 50.996168 
L 351.5733 49.758041 
L 351.898279 53.177027 
L 352.548238 52.155963 
L 353.198197 57.046819 
L 353.523177 51.604477 
L 353.848156 51.606988 
L 354.173136 52.53433 
L 354.498116 51.001096 
L 354.823095 55.324651 
L 355.148075 55.291528 
L 355.473054 55.441712 
L 356.447993 50.402844 
L 357.097952 53.436122 
L 357.422931 53.678874 
L 358.07289 61.460452 
L 358.39787 59.737157 
L 358.722849 59.846682 
L 359.697788 55.636454 
L 360.022767 52.603524 
L 360.347747 55.333608 
L 360.672727 53.584053 
L 361.647665 50.887795 
L 361.972645 48.877896 
L 362.622604 53.628607 
L 362.947583 51.781864 
L 363.272563 51.779484 
L 363.597542 50.90743 
L 364.572481 53.390959 
L 364.89746 50.464878 
L 365.22244 53.483306 
L 365.547419 54.090414 
L 365.872399 53.562932 
L 366.197378 52.157883 
L 366.522358 46.307984 
L 366.847337 45.561775 
L 367.172317 48.92497 
L 367.497297 49.236146 
L 367.822276 51.392679 
L 368.147256 47.97289 
L 368.472235 49.397405 
L 368.797215 48.007717 
L 369.122194 52.204865 
L 369.447174 50.164477 
L 370.097133 44.626974 
L 370.422112 45.072971 
L 370.747092 42.752233 
L 371.397051 48.202293 
L 371.72203 50.609507 
L 372.04701 49.444777 
L 372.371989 52.826267 
L 372.696969 53.606358 
L 373.021948 54.079952 
L 373.346928 52.97248 
L 373.671908 48.815115 
L 373.996887 47.871784 
L 374.646846 53.417811 
L 374.971826 50.856451 
L 375.296805 55.248835 
L 375.621785 53.270436 
L 375.946764 52.671073 
L 376.271744 54.805684 
L 376.921703 57.272333 
L 377.246682 53.484641 
L 377.571662 53.394434 
L 377.896641 54.490456 
L 378.221621 53.779083 
L 378.5466 52.022852 
L 379.196559 53.66375 
L 379.521539 49.7431 
L 380.171498 53.280835 
L 380.821457 46.804876 
L 381.471416 47.983427 
L 382.121375 56.487746 
L 382.446355 56.623446 
L 382.771334 57.620033 
L 383.096314 57.178232 
L 383.421293 54.480931 
L 383.746273 53.476834 
L 384.071252 57.066902 
L 384.721211 55.18706 
L 385.046191 59.606096 
L 385.37117 59.577578 
L 385.69615 56.994345 
L 386.021129 55.690406 
L 386.671089 60.551133 
L 386.996068 60.833725 
L 387.321048 61.987751 
L 387.971007 58.970727 
L 388.295986 59.279473 
L 388.620966 63.851843 
L 388.945945 63.503138 
L 389.270925 61.543986 
L 389.595904 57.834644 
L 389.920884 57.132241 
L 390.245863 57.61832 
L 390.570843 56.43731 
L 390.895822 56.282883 
L 391.220802 58.323345 
L 391.545781 59.17954 
L 391.870761 56.847848 
L 392.19574 55.835909 
L 392.845699 58.740693 
L 393.170679 58.199812 
L 393.495659 55.719884 
L 394.145618 56.464083 
L 394.470597 56.64398 
L 394.795577 55.029562 
L 395.120556 56.198362 
L 395.445536 57.869819 
L 395.770515 57.069374 
L 396.095495 58.688167 
L 396.420474 57.305373 
L 396.745454 60.463777 
L 397.070433 60.228334 
L 397.395413 58.281569 
L 397.720392 57.432059 
L 398.045372 54.216015 
L 398.370351 53.689875 
L 398.695331 52.902365 
L 399.02031 52.456014 
L 399.34529 47.903633 
L 399.67027 46.913492 
L 399.995249 45.212295 
L 400.320229 48.861147 
L 400.645208 49.889526 
L 401.295167 44.804094 
L 401.620147 49.736079 
L 401.945126 47.314063 
L 402.595085 48.846632 
L 402.595085 48.846632 
" clip-path="url(#p7de6ef0e58)" style="fill: none; stroke: #ff7f0e; stroke-width: 1.5; stroke-linecap: square"/>
   </g>
   <g id="line2d_17">
    <path d="M 77.94054 187.120613 
L 78.265519 188.939964 
L 78.590499 187.701571 
L 79.240458 184.614786 
L 79.565437 183.733016 
L 79.890417 180.830312 
L 80.215396 180.306498 
L 80.540376 176.183217 
L 80.865355 176.281786 
L 81.190335 173.780946 
L 81.515315 170.161778 
L 81.840294 168.560377 
L 82.165274 167.688432 
L 82.490253 166.139179 
L 82.815233 166.02368 
L 83.140212 165.215078 
L 83.465192 164.922363 
L 83.790171 163.349385 
L 84.115151 163.204978 
L 84.44013 165.391028 
L 84.76511 162.752231 
L 85.090089 162.513701 
L 85.415069 162.677672 
L 85.740048 162.168967 
L 86.065028 158.638196 
L 86.390007 158.498688 
L 87.039966 152.964681 
L 87.364946 153.526921 
L 87.689926 151.093389 
L 88.014905 154.821139 
L 88.339885 153.41364 
L 88.664864 154.437421 
L 88.989844 148.940409 
L 89.314823 150.391111 
L 89.964782 158.525078 
L 90.614741 155.439941 
L 90.939721 152.706672 
L 91.2647 153.560691 
L 91.58968 155.127657 
L 91.914659 154.017697 
L 92.239639 153.957802 
L 92.564618 150.36356 
L 93.214577 153.788402 
L 93.539557 149.190101 
L 93.864536 151.583693 
L 94.189516 151.860232 
L 94.514496 151.298021 
L 94.839475 151.05286 
L 95.164455 155.799196 
L 95.489434 155.463172 
L 96.139393 155.342541 
L 96.789352 152.526999 
L 97.114332 149.52337 
L 97.439311 148.534633 
L 97.764291 149.465198 
L 98.08927 146.864813 
L 98.41425 145.754856 
L 98.739229 146.44699 
L 99.064209 144.972356 
L 99.389188 144.914448 
L 100.039147 147.230405 
L 100.364127 149.372842 
L 100.689107 150.313291 
L 101.339066 150.848693 
L 101.664045 151.494654 
L 101.989025 150.326515 
L 102.638984 153.200716 
L 102.963963 151.688911 
L 103.288943 154.813162 
L 103.613922 156.154157 
L 103.938902 153.317518 
L 104.263881 152.987206 
L 104.588861 155.150269 
L 104.91384 155.535801 
L 105.23882 153.681668 
L 105.563799 153.678541 
L 105.888779 155.848429 
L 106.213758 156.233273 
L 106.538738 154.912809 
L 106.863717 156.02664 
L 107.188697 155.641363 
L 107.513677 157.204081 
L 108.488615 146.174015 
L 108.813595 146.942629 
L 109.138574 143.477192 
L 109.463554 143.076068 
L 109.788533 143.475082 
L 110.113513 143.102868 
L 110.438492 139.810208 
L 111.088451 137.19528 
L 111.413431 137.036368 
L 111.73841 138.40448 
L 112.388369 136.794471 
L 112.713349 134.931896 
L 113.038328 135.101421 
L 113.363308 133.854876 
L 113.688288 136.237311 
L 114.013267 136.895887 
L 114.338247 136.138157 
L 114.663226 134.586673 
L 114.988206 134.297753 
L 115.313185 137.297924 
L 115.963144 134.946595 
L 116.288124 134.6477 
L 116.613103 133.798752 
L 116.938083 135.269226 
L 117.263062 135.49952 
L 117.588042 134.329121 
L 117.913021 129.76835 
L 118.238001 132.870937 
L 118.56298 132.48634 
L 118.88796 131.780016 
L 119.212939 132.07331 
L 119.537919 130.342586 
L 119.862898 130.833993 
L 120.187878 133.253199 
L 120.837837 133.663668 
L 121.162817 132.265314 
L 121.487796 136.304962 
L 121.812776 136.226014 
L 122.137755 132.766253 
L 122.462735 133.727253 
L 122.787714 137.137241 
L 123.112694 136.308584 
L 123.437673 138.209333 
L 123.762653 133.97452 
L 124.087632 135.319327 
L 124.412612 134.918762 
L 124.737591 133.997353 
L 125.062571 133.958132 
L 125.38755 134.418435 
L 125.71253 135.36456 
L 126.687469 140.382023 
L 127.012448 138.129202 
L 127.337428 136.818293 
L 127.662407 134.003461 
L 127.987387 135.51986 
L 128.312366 135.722646 
L 128.637346 134.727057 
L 128.962325 136.751635 
L 129.287305 137.395248 
L 129.612284 137.021524 
L 129.937264 133.162022 
L 130.262243 132.296398 
L 130.587223 132.218676 
L 131.237182 132.374101 
L 131.562161 130.232344 
L 132.5371 136.271533 
L 132.862079 134.489426 
L 133.187059 135.552283 
L 133.512039 137.154257 
L 134.161998 132.906711 
L 134.811957 135.198286 
L 135.136936 130.108626 
L 135.461916 129.025646 
L 135.786895 127.016438 
L 136.111875 125.738358 
L 136.761834 126.791231 
L 137.086813 125.930241 
L 137.411793 125.596308 
L 138.061752 128.675727 
L 138.386731 128.712093 
L 138.711711 132.008375 
L 139.03669 132.443844 
L 139.36167 133.551141 
L 140.011629 128.683841 
L 140.336609 129.315783 
L 140.661588 126.02013 
L 140.986568 126.16599 
L 141.311547 123.829732 
L 141.636527 123.049288 
L 141.961506 123.604986 
L 142.286486 126.329064 
L 142.611465 124.598952 
L 142.936445 124.881947 
L 143.586404 123.499599 
L 143.911383 126.061722 
L 144.236363 120.30831 
L 144.561342 119.568492 
L 144.886322 119.955234 
L 145.211301 122.568966 
L 145.536281 123.449804 
L 145.86126 123.702085 
L 146.18624 120.424255 
L 146.51122 122.970937 
L 146.836199 123.741282 
L 147.161179 120.857277 
L 147.811138 123.178528 
L 148.136117 122.145897 
L 148.461097 122.92425 
L 148.786076 123.271409 
L 149.111056 121.56992 
L 149.436035 121.247658 
L 149.761015 121.430023 
L 150.085994 119.691591 
L 150.410974 119.102232 
L 150.735953 121.004051 
L 151.060933 120.079026 
L 151.710892 123.507338 
L 152.035871 123.65217 
L 152.685831 119.521391 
L 153.01081 121.627902 
L 153.33579 121.623667 
L 153.660769 122.11894 
L 153.985749 124.574851 
L 154.310728 124.231299 
L 154.960687 124.026001 
L 155.285667 123.27759 
L 155.610646 121.417212 
L 155.935626 121.905659 
L 156.260605 119.5986 
L 156.585585 120.413389 
L 156.910564 116.7149 
L 157.235544 118.461274 
L 157.560523 119.102458 
L 157.885503 116.828529 
L 158.210482 118.681474 
L 158.535462 115.158104 
L 158.860441 116.50716 
L 159.185421 116.146572 
L 159.510401 120.301405 
L 159.83538 118.899007 
L 160.16036 119.013057 
L 160.485339 121.796654 
L 160.810319 121.266604 
L 161.135298 121.91282 
L 161.460278 127.846523 
L 161.785257 126.570979 
L 162.110237 124.17688 
L 162.435216 124.377284 
L 162.760196 125.899501 
L 163.085175 126.300719 
L 163.410155 124.719721 
L 163.735134 124.427814 
L 164.060114 124.661506 
L 164.385093 121.882277 
L 164.710073 124.679034 
L 165.035052 123.628651 
L 165.360032 125.439755 
L 166.009991 117.454631 
L 166.334971 115.943147 
L 166.65995 113.460224 
L 167.309909 114.805853 
L 167.634889 112.278505 
L 167.959868 113.926352 
L 168.284848 116.173833 
L 168.609827 116.248754 
L 169.259786 120.359791 
L 169.584766 120.466534 
L 169.909745 120.034435 
L 170.234725 118.757419 
L 170.559704 122.957726 
L 170.884684 124.077694 
L 171.209663 123.359754 
L 171.534643 126.499823 
L 171.859622 124.814131 
L 172.509582 126.284635 
L 172.834561 127.856848 
L 173.159541 127.311445 
L 173.48452 127.248848 
L 173.8095 123.620621 
L 174.134479 122.662058 
L 174.459459 127.802184 
L 175.109418 129.9858 
L 175.434397 132.360987 
L 176.409336 124.796271 
L 176.734315 125.385485 
L 177.059295 122.568422 
L 177.384274 122.316254 
L 177.709254 123.526752 
L 178.359213 124.189698 
L 178.684193 124.899324 
L 179.009172 124.76072 
L 179.334152 124.108906 
L 179.659131 127.005705 
L 179.984111 127.890374 
L 180.30909 127.183409 
L 180.63407 129.531642 
L 180.959049 130.181264 
L 181.284029 128.113315 
L 181.609008 129.119171 
L 181.933988 126.642297 
L 182.258967 127.936711 
L 182.583947 128.132794 
L 182.908926 127.791905 
L 183.233906 127.635627 
L 183.558885 128.009649 
L 183.883865 123.886045 
L 184.208844 126.193406 
L 184.858803 120.922302 
L 185.183783 116.654213 
L 185.508763 114.357057 
L 185.833742 117.138709 
L 186.158722 115.979779 
L 186.483701 115.606782 
L 187.13366 112.862344 
L 187.45864 113.509938 
L 187.783619 113.602693 
L 188.108599 117.054581 
L 188.758558 118.743878 
L 189.083537 118.570854 
L 189.408517 115.43698 
L 189.733496 114.474748 
L 190.058476 118.284935 
L 190.383455 116.67295 
L 190.708435 120.192501 
L 191.033414 120.791465 
L 191.358394 119.763754 
L 191.683374 122.820248 
L 192.008353 119.618595 
L 192.658312 117.521542 
L 192.983292 117.313702 
L 193.633251 118.707255 
L 193.95823 118.494377 
L 194.28321 116.22322 
L 194.608189 120.36664 
L 194.933169 121.810517 
L 195.258148 124.758232 
L 195.908107 119.703969 
L 196.233087 121.194368 
L 196.558066 120.394256 
L 196.883046 119.140994 
L 197.533005 123.738555 
L 197.857984 122.530677 
L 198.182964 121.761736 
L 198.507944 121.600743 
L 198.832923 119.281035 
L 199.157903 118.080364 
L 199.482882 114.880035 
L 199.807862 114.776542 
L 200.132841 113.265432 
L 200.457821 114.445024 
L 200.7828 117.948354 
L 201.10778 118.800047 
L 201.757739 117.406389 
L 202.082718 120.616556 
L 202.407698 117.55752 
L 203.057657 118.57099 
L 203.382636 118.407598 
L 203.707616 119.008206 
L 204.032595 119.207841 
L 204.357575 119.869568 
L 204.682555 117.933585 
L 205.007534 118.918087 
L 205.982473 125.93447 
L 206.307452 126.475241 
L 206.632432 125.682091 
L 206.957411 125.764849 
L 207.282391 123.231658 
L 207.60737 124.079107 
L 207.93235 122.315718 
L 208.257329 124.400706 
L 208.582309 122.088017 
L 208.907288 121.937675 
L 209.232268 119.415142 
L 209.557247 115.723476 
L 209.882227 113.448404 
L 210.207206 112.650272 
L 210.532186 114.216762 
L 210.857165 113.999818 
L 211.182145 114.499649 
L 211.507125 116.047721 
L 211.832104 116.595167 
L 212.157084 116.419231 
L 212.482063 115.2324 
L 212.807043 113.323457 
L 213.132022 116.462961 
L 213.457002 117.772705 
L 213.781981 117.559929 
L 214.106961 117.821069 
L 214.43194 115.086192 
L 214.75692 116.616304 
L 215.081899 118.715329 
L 215.406879 116.987419 
L 216.056838 119.347166 
L 216.381817 119.767303 
L 217.031776 118.150968 
L 217.681736 116.100959 
L 218.331695 119.516637 
L 218.981654 114.951039 
L 219.306633 119.733213 
L 219.631613 117.727452 
L 219.956592 114.880314 
L 220.606551 116.478069 
L 220.931531 118.557056 
L 221.58149 118.669888 
L 221.906469 119.163636 
L 222.231449 117.941042 
L 222.556428 118.182286 
L 222.881408 120.179103 
L 223.206387 118.549264 
L 223.531367 115.626353 
L 223.856346 115.072971 
L 224.181326 115.92594 
L 224.506306 115.273723 
L 224.831285 115.652412 
L 225.156265 114.98701 
L 225.481244 115.391901 
L 225.806224 114.859064 
L 226.131203 116.595441 
L 226.456183 115.126353 
L 226.781162 114.959092 
L 227.106142 116.151334 
L 227.431121 116.264841 
L 227.756101 113.659205 
L 228.08108 113.76208 
L 228.40606 113.070079 
L 228.731039 114.076743 
L 229.056019 114.537567 
L 229.380998 114.048421 
L 229.705978 115.131327 
L 230.030957 116.908095 
L 230.355937 116.799931 
L 230.680917 115.022764 
L 231.005896 117.516908 
L 231.330876 117.012833 
L 231.655855 117.054548 
L 231.980835 115.743657 
L 232.305814 116.485793 
L 232.630794 115.965447 
L 232.955773 120.816777 
L 233.280753 120.917466 
L 233.930712 120.567551 
L 234.255691 119.010274 
L 234.580671 122.363662 
L 234.90565 120.260424 
L 235.23063 119.460079 
L 235.555609 121.15358 
L 235.880589 119.439846 
L 236.530548 122.874313 
L 236.855527 120.444533 
L 237.505487 118.056402 
L 237.830466 117.403901 
L 238.155446 114.70316 
L 238.805405 119.273421 
L 239.130384 118.358796 
L 239.780343 113.805266 
L 240.105323 111.492911 
L 240.430302 111.542691 
L 240.755282 113.670367 
L 241.080261 113.097748 
L 241.405241 115.067937 
L 241.73022 113.814217 
L 242.0552 111.107098 
L 242.380179 110.034845 
L 242.705159 114.770704 
L 243.030138 113.311554 
L 243.355118 112.962392 
L 243.680098 112.248789 
L 244.005077 113.44053 
L 244.330057 110.056239 
L 244.980016 112.895953 
L 245.304995 112.011974 
L 245.629975 111.727548 
L 245.954954 110.337938 
L 246.604913 109.363082 
L 246.929893 105.649979 
L 247.254872 104.804166 
L 247.579852 105.93186 
L 248.229811 112.86964 
L 248.55479 114.49436 
L 248.87977 115.269277 
L 249.529729 112.432599 
L 249.854708 112.459086 
L 250.179688 112.014228 
L 250.504668 113.20974 
L 250.829647 109.199838 
L 251.154627 103.73291 
L 251.479606 103.883459 
L 252.129565 102.426532 
L 252.454545 100.808488 
L 252.779524 103.573989 
L 253.104504 101.382697 
L 253.429483 103.312289 
L 253.754463 102.84438 
L 254.079442 103.035692 
L 254.404422 103.411793 
L 254.729401 107.691064 
L 255.054381 106.641145 
L 255.37936 110.002864 
L 255.70434 108.684221 
L 256.029319 105.577767 
L 256.354299 104.552003 
L 257.004258 101.290312 
L 257.329238 102.915791 
L 257.654217 99.383408 
L 257.979197 98.333177 
L 258.304176 98.305527 
L 258.629156 99.066857 
L 258.954135 97.687986 
L 259.279115 98.856102 
L 259.604094 101.518526 
L 259.929074 98.510148 
L 260.254053 99.98209 
L 260.579033 103.187955 
L 260.904012 99.644935 
L 261.228992 104.172793 
L 261.553971 103.689246 
L 261.878951 102.73548 
L 262.20393 100.23325 
L 262.52891 100.830427 
L 262.853889 100.988562 
L 263.178869 101.304412 
L 263.503849 98.465402 
L 263.828828 103.835455 
L 264.153808 103.607349 
L 264.478787 104.394796 
L 264.803767 105.702063 
L 265.128746 105.105587 
L 265.453726 103.842957 
L 265.778705 105.403277 
L 266.103685 106.325068 
L 266.428664 106.324315 
L 266.753644 104.341042 
L 267.078623 106.715438 
L 267.403603 105.551429 
L 267.728582 105.330245 
L 268.053562 101.733197 
L 268.378541 99.50821 
L 268.703521 98.293643 
L 269.0285 103.613611 
L 269.35348 103.729476 
L 269.67846 101.50345 
L 270.003439 98.021591 
L 270.328419 102.225931 
L 270.978378 102.768729 
L 271.628337 100.304566 
L 271.953316 100.284679 
L 272.278296 99.487426 
L 272.603275 101.737344 
L 272.928255 99.437055 
L 273.253234 102.840835 
L 273.903193 99.286445 
L 274.228173 98.969144 
L 274.553152 100.185301 
L 274.878132 97.790423 
L 275.203111 96.366273 
L 275.528091 97.128454 
L 275.85307 101.184543 
L 276.17805 94.970046 
L 276.50303 95.565832 
L 276.828009 94.705469 
L 277.152989 97.640385 
L 277.477968 99.035855 
L 278.127927 98.260024 
L 278.452907 94.249237 
L 278.777886 91.755063 
L 279.102866 91.662992 
L 279.427845 89.62674 
L 279.752825 91.390827 
L 280.077804 95.927518 
L 280.727763 93.61084 
L 281.052743 96.796405 
L 281.377722 101.956319 
L 281.702702 101.464881 
L 282.027681 100.038958 
L 282.352661 100.364758 
L 282.677641 102.432477 
L 283.00262 101.656931 
L 283.3276 99.356287 
L 283.652579 100.810346 
L 283.977559 101.140488 
L 284.302538 98.646811 
L 284.627518 101.106028 
L 284.952497 99.430775 
L 285.277477 99.351804 
L 285.602456 101.764786 
L 285.927436 100.459341 
L 286.252415 99.8482 
L 286.577395 101.425036 
L 286.902374 108.115297 
L 287.227354 107.284797 
L 287.552333 105.229671 
L 287.877313 101.656314 
L 288.202292 101.636487 
L 288.527272 100.272447 
L 288.852251 103.312975 
L 289.177231 103.208114 
L 289.82719 100.933464 
L 290.477149 104.688651 
L 290.802129 104.4974 
L 291.452088 103.728523 
L 291.777067 104.598594 
L 292.427026 97.82881 
L 292.752006 93.877339 
L 293.076985 92.531279 
L 293.401965 94.605439 
L 293.726944 95.803522 
L 294.051924 97.501665 
L 294.376903 96.920702 
L 295.026862 97.234083 
L 295.351842 97.990901 
L 295.676822 96.18559 
L 296.001801 97.165921 
L 296.326781 94.017198 
L 296.65176 96.503145 
L 296.97674 96.079427 
L 297.301719 99.20098 
L 297.626699 97.593305 
L 298.276658 101.428998 
L 298.601637 103.397578 
L 298.926617 99.101781 
L 299.251596 100.372785 
L 299.576576 99.781049 
L 299.901555 99.509287 
L 300.226535 100.07801 
L 300.551514 100.954243 
L 300.876494 100.653113 
L 301.201473 101.613742 
L 301.526453 100.353986 
L 301.851432 99.742009 
L 302.176412 101.280663 
L 302.826371 106.310206 
L 303.151351 107.967705 
L 303.47633 108.838461 
L 303.80131 106.031186 
L 304.126289 106.83657 
L 305.101228 111.645436 
L 305.426207 114.882578 
L 305.751187 113.614023 
L 306.076166 111.734659 
L 306.401146 110.978794 
L 307.051105 106.884375 
L 307.376084 109.317348 
L 307.701064 107.461769 
L 308.026043 109.638277 
L 308.351023 110.530602 
L 308.676003 107.809978 
L 309.000982 108.113973 
L 309.325962 107.132535 
L 309.650941 105.280266 
L 309.975921 105.933627 
L 310.3009 103.702786 
L 310.62588 102.726495 
L 310.950859 100.403181 
L 311.275839 104.571257 
L 311.925798 99.513928 
L 312.250777 99.908089 
L 312.575757 100.12613 
L 312.900736 101.982491 
L 313.550695 101.455946 
L 314.200654 104.628467 
L 314.525634 102.432815 
L 314.850613 106.818521 
L 315.175593 107.074031 
L 315.500573 108.394125 
L 315.825552 107.690945 
L 316.150532 106.646396 
L 316.475511 106.953378 
L 316.800491 109.48968 
L 317.12547 109.381752 
L 317.45045 108.998484 
L 318.100409 109.659611 
L 318.425388 107.434979 
L 318.750368 108.640184 
L 319.075347 108.386676 
L 319.400327 109.980689 
L 319.725306 105.010314 
L 320.050286 104.609352 
L 320.375265 104.923044 
L 320.700245 106.826357 
L 321.025224 106.931844 
L 321.350204 109.415552 
L 322.000163 109.431757 
L 322.650122 111.461126 
L 322.975102 111.46004 
L 323.300081 114.76818 
L 323.625061 114.573024 
L 324.27502 111.194518 
L 324.599999 109.992601 
L 324.924979 113.570911 
L 325.249958 113.227885 
L 325.574938 110.184409 
L 325.899917 108.852959 
L 326.224897 113.596814 
L 326.549876 109.844996 
L 326.874856 109.318206 
L 327.199835 112.426655 
L 327.524815 112.115508 
L 327.849794 109.227342 
L 328.174774 108.720413 
L 328.499754 109.40347 
L 328.824733 109.391515 
L 329.149713 105.886414 
L 329.474692 104.19931 
L 329.799672 105.827976 
L 330.124651 103.532176 
L 330.449631 105.041367 
L 331.09959 106.596019 
L 331.424569 105.875665 
L 331.749549 108.058339 
L 332.074528 105.748949 
L 332.399508 107.262134 
L 332.724487 106.944 
L 333.049467 107.573576 
L 333.374446 106.887476 
L 333.699426 106.775637 
L 334.024405 105.959129 
L 334.349385 103.802581 
L 334.674365 105.050579 
L 334.999344 105.581423 
L 335.324324 102.95312 
L 335.649303 102.386865 
L 335.974283 105.288778 
L 336.299262 102.60878 
L 336.624242 102.90337 
L 336.949221 102.543911 
L 337.59918 103.682319 
L 337.92416 107.024697 
L 338.249139 104.585755 
L 338.574119 103.345347 
L 338.899098 105.529937 
L 339.224078 102.442503 
L 339.549057 96.845559 
L 339.874037 96.35847 
L 340.199016 95.423457 
L 340.523996 97.920868 
L 340.848975 98.217916 
L 341.173955 98.090554 
L 341.498935 98.083973 
L 341.823914 95.20565 
L 342.148894 93.602871 
L 342.473873 93.172092 
L 342.798853 96.182044 
L 343.448812 93.990293 
L 343.773791 94.571165 
L 344.42375 100.496839 
L 344.74873 100.817304 
L 345.073709 102.026493 
L 345.398689 101.684072 
L 345.723668 102.90589 
L 346.048648 101.026215 
L 346.373627 103.179958 
L 346.698607 100.974037 
L 347.023586 101.084186 
L 347.348566 101.622834 
L 347.673546 104.054588 
L 347.998525 102.549718 
L 348.323505 101.584919 
L 348.648484 103.840994 
L 348.973464 104.212715 
L 349.298443 101.334177 
L 349.623423 100.788085 
L 349.948402 101.586284 
L 350.273382 101.26938 
L 350.598361 100.736932 
L 350.923341 102.729225 
L 351.24832 101.693463 
L 351.5733 99.800732 
L 351.898279 102.590284 
L 352.223259 101.771904 
L 352.548238 100.218337 
L 352.873218 100.177316 
L 353.198197 101.297531 
L 353.523177 98.197936 
L 354.173136 101.263677 
L 354.498116 99.989658 
L 354.823095 103.321194 
L 355.148075 103.445829 
L 355.473054 102.907778 
L 356.447993 98.323725 
L 357.097952 102.960419 
L 357.422931 103.701531 
L 358.07289 109.995703 
L 358.39787 107.138926 
L 358.722849 107.321957 
L 359.372808 104.274685 
L 359.697788 103.420645 
L 360.022767 99.362444 
L 360.347747 99.490061 
L 360.672727 97.58587 
L 360.997706 99.093814 
L 361.322686 98.382672 
L 361.647665 98.870437 
L 361.972645 98.114597 
L 362.297624 99.856219 
L 362.622604 100.796153 
L 362.947583 98.07799 
L 363.272563 98.043239 
L 363.597542 97.00288 
L 364.247501 96.684496 
L 364.572481 96.928975 
L 364.89746 94.738266 
L 365.22244 97.905706 
L 365.547419 98.055251 
L 365.872399 98.535911 
L 366.197378 98.735454 
L 366.522358 93.720919 
L 366.847337 92.617752 
L 367.172317 94.456569 
L 367.497297 94.19206 
L 367.822276 97.622006 
L 368.147256 95.084473 
L 368.472235 95.761021 
L 368.797215 93.578283 
L 369.122194 96.078378 
L 369.447174 92.729875 
L 369.772153 91.799912 
L 370.097133 91.570719 
L 370.422112 92.66934 
L 370.747092 91.09086 
L 371.072071 94.366001 
L 371.397051 95.151197 
L 371.72203 99.06319 
L 372.04701 97.57818 
L 372.371989 100.41292 
L 372.696969 100.209853 
L 373.021948 99.444957 
L 373.346928 99.75396 
L 373.671908 96.168979 
L 373.996887 94.623244 
L 374.321867 96.957847 
L 374.646846 100.433456 
L 374.971826 97.129606 
L 375.296805 99.979754 
L 375.621785 98.546232 
L 375.946764 99.869095 
L 376.921703 105.688411 
L 377.246682 102.553742 
L 377.571662 103.269533 
L 377.896641 102.324828 
L 378.5466 99.442654 
L 378.87158 99.360507 
L 379.196559 101.597504 
L 379.521539 99.177377 
L 379.846518 99.681183 
L 380.496478 97.923499 
L 380.821457 97.929039 
L 381.146437 98.701289 
L 381.471416 98.179418 
L 382.121375 104.145015 
L 382.771334 104.721753 
L 383.096314 104.476441 
L 383.421293 103.768244 
L 383.746273 102.617405 
L 384.071252 104.761316 
L 384.396232 104.180122 
L 384.721211 103.223589 
L 385.046191 106.056681 
L 385.37117 105.740068 
L 386.021129 103.801952 
L 386.346109 105.328876 
L 386.996068 106.463906 
L 387.321048 107.754645 
L 387.646027 106.257245 
L 387.971007 105.919446 
L 388.295986 106.709303 
L 388.620966 109.942367 
L 388.945945 107.369824 
L 389.270925 107.131792 
L 389.595904 105.771777 
L 389.920884 105.413176 
L 390.245863 105.784511 
L 390.895822 103.428288 
L 391.220802 105.698685 
L 391.545781 107.138498 
L 391.870761 106.437803 
L 392.52072 106.610956 
L 393.170679 104.916607 
L 393.495659 102.683095 
L 394.145618 106.373339 
L 394.470597 106.691396 
L 394.795577 104.676877 
L 395.120556 104.97039 
L 395.445536 106.191084 
L 395.770515 105.311296 
L 396.095495 106.839904 
L 396.420474 105.447393 
L 396.745454 107.879461 
L 397.070433 107.591119 
L 397.395413 106.511521 
L 397.720392 106.360314 
L 398.045372 103.190535 
L 398.695331 100.553549 
L 399.02031 100.380149 
L 399.34529 95.375957 
L 399.67027 94.153761 
L 399.995249 91.721313 
L 400.320229 93.714026 
L 400.645208 94.504724 
L 400.970188 94.810007 
L 401.295167 93.4477 
L 401.620147 99.119876 
L 401.945126 96.389669 
L 402.270106 96.332486 
L 402.595085 96.548357 
L 402.595085 96.548357 
" clip-path="url(#p7de6ef0e58)" style="fill: none; stroke: #2ca02c; stroke-width: 1.5; stroke-linecap: square"/>
   </g>
   <g id="patch_3">
    <path d="M 61.707813 288.430125 
L 61.707813 22.318125 
" style="fill: none; stroke: #000000; stroke-width: 0.8; stroke-linejoin: miter; stroke-linecap: square"/>
   </g>
   <g id="patch_4">
    <path d="M 418.827813 288.430125 
L 418.827813 22.318125 
" style="fill: none; stroke: #000000; stroke-width: 0.8; stroke-linejoin: miter; stroke-linecap: square"/>
   </g>
   <g id="patch_5">
    <path d="M 61.707813 288.430125 
L 418.827813 288.430125 
" style="fill: none; stroke: #000000; stroke-width: 0.8; stroke-linejoin: miter; stroke-linecap: square"/>
   </g>
   <g id="patch_6">
    <path d="M 61.707813 22.318125 
L 418.827813 22.318125 
" style="fill: none; stroke: #000000; stroke-width: 0.8; stroke-linejoin: miter; stroke-linecap: square"/>
   </g>
   <g id="text_17">
    <!-- SLAB - energies vs time -->
    <g transform="translate(168.894063 16.318125) scale(0.12 -0.12)">
     <defs>
      <path id="DejaVuSans-53" d="M 3425 4513 
L 3425 3897 
Q 3066 4069 2747 4153 
Q 2428 4238 2131 4238 
Q 1616 4238 1336 4038 
Q 1056 3838 1056 3469 
Q 1056 3159 1242 3001 
Q 1428 2844 1947 2747 
L 2328 2669 
Q 3034 2534 3370 2195 
Q 3706 1856 3706 1288 
Q 3706 609 3251 259 
Q 2797 -91 1919 -91 
Q 1588 -91 1214 -16 
Q 841 59 441 206 
L 441 856 
Q 825 641 1194 531 
Q 1563 422 1919 422 
Q 2459 422 2753 634 
Q 3047 847 3047 1241 
Q 3047 1584 2836 1778 
Q 2625 1972 2144 2069 
L 1759 2144 
Q 1053 2284 737 2584 
Q 422 2884 422 3419 
Q 422 4038 858 4394 
Q 1294 4750 2059 4750 
Q 2388 4750 2728 4690 
Q 3069 4631 3425 4513 
z
" transform="scale(0.015625)"/>
      <path id="DejaVuSans-4c" d="M 628 4666 
L 1259 4666 
L 1259 531 
L 3531 531 
L 3531 0 
L 628 0 
L 628 4666 
z
" transform="scale(0.015625)"/>
      <path id="DejaVuSans-41" d="M 2188 4044 
L 1331 1722 
L 3047 1722 
L 2188 4044 
z
M 1831 4666 
L 2547 4666 
L 4325 0 
L 3669 0 
L 3244 1197 
L 1141 1197 
L 716 0 
L 50 0 
L 1831 4666 
z
" transform="scale(0.015625)"/>
      <path id="DejaVuSans-42" d="M 1259 2228 
L 1259 519 
L 2272 519 
Q 2781 519 3026 730 
Q 3272 941 3272 1375 
Q 3272 1813 3026 2020 
Q 2781 2228 2272 2228 
L 1259 2228 
z
M 1259 4147 
L 1259 2741 
L 2194 2741 
Q 2656 2741 2882 2914 
Q 3109 3088 3109 3444 
Q 3109 3797 2882 3972 
Q 2656 4147 2194 4147 
L 1259 4147 
z
M 628 4666 
L 2241 4666 
Q 2963 4666 3353 4366 
Q 3744 4066 3744 3513 
Q 3744 3084 3544 2831 
Q 3344 2578 2956 2516 
Q 3422 2416 3680 2098 
Q 3938 1781 3938 1306 
Q 3938 681 3513 340 
Q 3088 0 2303 0 
L 628 0 
L 628 4666 
z
" transform="scale(0.015625)"/>
      <path id="DejaVuSans-2d" d="M 313 2009 
L 1997 2009 
L 1997 1497 
L 313 1497 
L 313 2009 
z
" transform="scale(0.015625)"/>
      <path id="DejaVuSans-76" d="M 191 3500 
L 800 3500 
L 1894 563 
L 2988 3500 
L 3597 3500 
L 2284 0 
L 1503 0 
L 191 3500 
z
" transform="scale(0.015625)"/>
     </defs>
     <use xlink:href="#DejaVuSans-53"/>
     <use xlink:href="#DejaVuSans-4c" transform="translate(63.476562 0)"/>
     <use xlink:href="#DejaVuSans-41" transform="translate(121.439453 0)"/>
     <use xlink:href="#DejaVuSans-42" transform="translate(189.847656 0)"/>
     <use xlink:href="#DejaVuSans-20" transform="translate(258.451172 0)"/>
     <use xlink:href="#DejaVuSans-2d" transform="translate(290.238281 0)"/>
     <use xlink:href="#DejaVuSans-20" transform="translate(326.322266 0)"/>
     <use xlink:href="#DejaVuSans-65" transform="translate(358.109375 0)"/>
     <use xlink:href="#DejaVuSans-6e" transform="translate(419.632812 0)"/>
     <use xlink:href="#DejaVuSans-65" transform="translate(483.011719 0)"/>
     <use xlink:href="#DejaVuSans-72" transform="translate(544.535156 0)"/>
     <use xlink:href="#DejaVuSans-67" transform="translate(583.898438 0)"/>
     <use xlink:href="#DejaVuSans-69" transform="translate(647.375 0)"/>
     <use xlink:href="#DejaVuSans-65" transform="translate(675.158203 0)"/>
     <use xlink:href="#DejaVuSans-73" transform="translate(736.681641 0)"/>
     <use xlink:href="#DejaVuSans-20" transform="translate(788.78125 0)"/>
     <use xlink:href="#DejaVuSans-76" transform="translate(820.568359 0)"/>
     <use xlink:href="#DejaVuSans-73" transform="translate(879.748047 0)"/>
     <use xlink:href="#DejaVuSans-20" transform="translate(931.847656 0)"/>
     <use xlink:href="#DejaVuSans-74" transform="translate(963.634766 0)"/>
     <use xlink:href="#DejaVuSans-69" transform="translate(1002.84375 0)"/>
     <use xlink:href="#DejaVuSans-6d" transform="translate(1030.626953 0)"/>
     <use xlink:href="#DejaVuSans-65" transform="translate(1128.039062 0)"/>
    </g>
   </g>
   <g id="legend_1">
    <g id="patch_7">
     <path d="M 352.121563 283.430125 
L 411.827813 283.430125 
Q 413.827813 283.430125 413.827813 281.430125 
L 413.827813 237.561375 
Q 413.827813 235.561375 411.827813 235.561375 
L 352.121563 235.561375 
Q 350.121563 235.561375 350.121563 237.561375 
L 350.121563 281.430125 
Q 350.121563 283.430125 352.121563 283.430125 
z
" style="fill: #ffffff; opacity: 0.8; stroke: #cccccc; stroke-linejoin: miter"/>
    </g>
    <g id="line2d_18">
     <path d="M 354.121563 243.659812 
L 364.121563 243.659812 
L 374.121563 243.659812 
" style="fill: none; stroke: #1f77b4; stroke-width: 1.5; stroke-linecap: square"/>
    </g>
    <g id="text_18">
     <!-- E_pot -->
     <g transform="translate(382.121563 247.159812) scale(0.1 -0.1)">
      <defs>
       <path id="DejaVuSans-5f" d="M 3263 -1063 
L 3263 -1509 
L -63 -1509 
L -63 -1063 
L 3263 -1063 
z
" transform="scale(0.015625)"/>
       <path id="DejaVuSans-70" d="M 1159 525 
L 1159 -1331 
L 581 -1331 
L 581 3500 
L 1159 3500 
L 1159 2969 
Q 1341 3281 1617 3432 
Q 1894 3584 2278 3584 
Q 2916 3584 3314 3078 
Q 3713 2572 3713 1747 
Q 3713 922 3314 415 
Q 2916 -91 2278 -91 
Q 1894 -91 1617 61 
Q 1341 213 1159 525 
z
M 3116 1747 
Q 3116 2381 2855 2742 
Q 2594 3103 2138 3103 
Q 1681 3103 1420 2742 
Q 1159 2381 1159 1747 
Q 1159 1113 1420 752 
Q 1681 391 2138 391 
Q 2594 391 2855 752 
Q 3116 1113 3116 1747 
z
" transform="scale(0.015625)"/>
       <path id="DejaVuSans-6f" d="M 1959 3097 
Q 1497 3097 1228 2736 
Q 959 2375 959 1747 
Q 959 1119 1226 758 
Q 1494 397 1959 397 
Q 2419 397 2687 759 
Q 2956 1122 2956 1747 
Q 2956 2369 2687 2733 
Q 2419 3097 1959 3097 
z
M 1959 3584 
Q 2709 3584 3137 3096 
Q 3566 2609 3566 1747 
Q 3566 888 3137 398 
Q 2709 -91 1959 -91 
Q 1206 -91 779 398 
Q 353 888 353 1747 
Q 353 2609 779 3096 
Q 1206 3584 1959 3584 
z
" transform="scale(0.015625)"/>
      </defs>
      <use xlink:href="#DejaVuSans-45"/>
      <use xlink:href="#DejaVuSans-5f" transform="translate(63.183594 0)"/>
      <use xlink:href="#DejaVuSans-70" transform="translate(113.183594 0)"/>
      <use xlink:href="#DejaVuSans-6f" transform="translate(176.660156 0)"/>
      <use xlink:href="#DejaVuSans-74" transform="translate(237.841797 0)"/>
     </g>
    </g>
    <g id="line2d_19">
     <path d="M 354.121563 258.616062 
L 364.121563 258.616062 
L 374.121563 258.616062 
" style="fill: none; stroke: #ff7f0e; stroke-width: 1.5; stroke-linecap: square"/>
    </g>
    <g id="text_19">
     <!-- E_kin -->
     <g transform="translate(382.121563 262.116062) scale(0.1 -0.1)">
      <defs>
       <path id="DejaVuSans-6b" d="M 581 4863 
L 1159 4863 
L 1159 1991 
L 2875 3500 
L 3609 3500 
L 1753 1863 
L 3688 0 
L 2938 0 
L 1159 1709 
L 1159 0 
L 581 0 
L 581 4863 
z
" transform="scale(0.015625)"/>
      </defs>
      <use xlink:href="#DejaVuSans-45"/>
      <use xlink:href="#DejaVuSans-5f" transform="translate(63.183594 0)"/>
      <use xlink:href="#DejaVuSans-6b" transform="translate(113.183594 0)"/>
      <use xlink:href="#DejaVuSans-69" transform="translate(171.09375 0)"/>
      <use xlink:href="#DejaVuSans-6e" transform="translate(198.876953 0)"/>
     </g>
    </g>
    <g id="line2d_20">
     <path d="M 354.121563 273.572312 
L 364.121563 273.572312 
L 374.121563 273.572312 
" style="fill: none; stroke: #2ca02c; stroke-width: 1.5; stroke-linecap: square"/>
    </g>
    <g id="text_20">
     <!-- E_tot -->
     <g transform="translate(382.121563 277.072312) scale(0.1 -0.1)">
      <use xlink:href="#DejaVuSans-45"/>
      <use xlink:href="#DejaVuSans-5f" transform="translate(63.183594 0)"/>
      <use xlink:href="#DejaVuSans-74" transform="translate(113.183594 0)"/>
      <use xlink:href="#DejaVuSans-6f" transform="translate(152.392578 0)"/>
      <use xlink:href="#DejaVuSans-74" transform="translate(213.574219 0)"/>
     </g>
    </g>
   </g>
  </g>
 </g>
 <defs>
  <clipPath id="p7de6ef0e58">
   <rect x="61.707813" y="22.318125" width="357.12" height="266.112"/>
  </clipPath>
 </defs>
</svg>
