<?xml version="1.0" encoding="utf-8" standalone="no"?>
<!DOCTYPE svg PUBLIC "-//W3C//DTD SVG 1.1//EN"
  "http://www.w3.org/Graphics/SVG/1.1/DTD/svg11.dtd">
<svg xmlns:xlink="http://www.w3.org/1999/xlink" width="414.730937pt" height="311.146375pt" viewBox="0 0 414.730937 311.146375" xmlns="http://www.w3.org/2000/svg" version="1.1">
 <metadata>
  <rdf:RDF xmlns:dc="http://purl.org/dc/elements/1.1/" xmlns:cc="http://creativecommons.org/ns#" xmlns:rdf="http://www.w3.org/1999/02/22-rdf-syntax-ns#">
   <cc:Work>
    <dc:type rdf:resource="http://purl.org/dc/dcmitype/StillImage"/>
    <dc:date>2025-12-11T14:40:21.013920</dc:date>
    <dc:format>image/svg+xml</dc:format>
    <dc:creator>
     <cc:Agent>
      <dc:title>Matplotlib v3.10.5, https://matplotlib.org/</dc:title>
     </cc:Agent>
    </dc:creator>
   </cc:Work>
  </rdf:RDF>
 </metadata>
 <defs>
  <style type="text/css">*{stroke-linejoin: round; stroke-linecap: butt}</style>
 </defs>
 <g id="figure_1">
  <g id="patch_1">
   <path d="M 0 311.146375 
L 414.730937 311.146375 
L 414.730937 0 
L 0 0 
z
" style="fill: #ffffff"/>
  </g>
  <g id="axes_1">
   <g id="patch_2">
    <path d="M 50.410938 273.312 
L 407.530938 273.312 
L 407.530938 7.2 
L 50.410938 7.2 
z
" style="fill: #ffffff"/>
   </g>
   <g id="FillBetweenPolyCollection_1">
    <defs>
     <path id="m0110d79018" d="M 66.643665 -49.930375 
L 66.643665 -49.930375 
L 68.477871 -49.930375 
L 70.312078 -49.930375 
L 72.146284 -49.930375 
L 73.980491 -49.930375 
L 75.814697 -49.930375 
L 77.648904 -49.930375 
L 79.48311 -59.928646 
L 81.317317 -49.930375 
L 83.151523 -49.930375 
L 84.985729 -55.230477 
L 86.819936 -66.272553 
L 88.654142 -49.930375 
L 90.488349 -49.930375 
L 92.322555 -49.930375 
L 94.156762 -69.082441 
L 95.990968 -70.225007 
L 97.825175 -64.165465 
L 99.659381 -49.930375 
L 101.493588 -52.580061 
L 103.327794 -52.578532 
L 105.162001 -63.891179 
L 106.996207 -80.184376 
L 108.830414 -61.073637 
L 110.66462 -53.651247 
L 112.498827 -58.352155 
L 114.333033 -62.443704 
L 116.16724 -57.283863 
L 118.001446 -53.612678 
L 119.835652 -64.270486 
L 121.669859 -55.269794 
L 123.504065 -62.144565 
L 125.338272 -60.326623 
L 127.172478 -58.368309 
L 129.006685 -68.495609 
L 130.840891 -93.831603 
L 132.675098 -66.451625 
L 134.509304 -70.453186 
L 136.343511 -64.344984 
L 138.177717 -70.509796 
L 140.011924 -62.864878 
L 141.84613 -67.328626 
L 143.680337 -61.224409 
L 145.514543 -70.834936 
L 147.34875 -81.140703 
L 149.182956 -116.403195 
L 151.017162 -152.378055 
L 152.851369 -160.616554 
L 154.685575 -151.348874 
L 156.519782 -143.73738 
L 158.353988 -202.310331 
L 160.188195 -215.60454 
L 162.022401 -202.822438 
L 163.856608 -230.509297 
L 165.690814 -205.051148 
L 167.525021 -183.815453 
L 169.359227 -182.604728 
L 171.193434 -198.380652 
L 173.02764 -232.407704 
L 174.861847 -249.872692 
L 176.696053 -197.263044 
L 178.53026 -206.957319 
L 180.364466 -212.334037 
L 182.198672 -183.187229 
L 184.032879 -194.018617 
L 185.867085 -194.097684 
L 187.701292 -191.950827 
L 189.535498 -195.774965 
L 191.369705 -180.116495 
L 193.203911 -172.104024 
L 195.038118 -180.020892 
L 196.872324 -171.513998 
L 198.706531 -157.404768 
L 200.540737 -166.674937 
L 202.374944 -154.66253 
L 204.20915 -176.446187 
L 206.043357 -197.346723 
L 207.877563 -149.506431 
L 209.71177 -168.994521 
L 211.545976 -126.412276 
L 213.380182 -163.198722 
L 215.214389 -157.118037 
L 217.048595 -147.518857 
L 218.882802 -169.617612 
L 220.717008 -176.622244 
L 222.551215 -161.153169 
L 224.385421 -162.324514 
L 226.219628 -176.171108 
L 228.053834 -159.689406 
L 229.888041 -151.409981 
L 231.722247 -146.641342 
L 233.556454 -171.066163 
L 235.39066 -143.554556 
L 237.224867 -129.280758 
L 239.059073 -169.327506 
L 240.89328 -163.84574 
L 242.727486 -162.466662 
L 244.561693 -149.990032 
L 246.395899 -153.993283 
L 248.230105 -161.650891 
L 250.064312 -178.051327 
L 251.898518 -160.557238 
L 253.732725 -179.116243 
L 255.566931 -193.829819 
L 257.401138 -176.438506 
L 259.235344 -159.476345 
L 261.069551 -151.602845 
L 262.903757 -170.893643 
L 264.737964 -171.983682 
L 266.57217 -148.920722 
L 268.406377 -159.981435 
L 270.240583 -173.160883 
L 272.07479 -158.064583 
L 273.908996 -154.523975 
L 275.743203 -162.023443 
L 277.577409 -154.060671 
L 279.411615 -155.275735 
L 281.245822 -156.818788 
L 283.080028 -152.918445 
L 284.914235 -167.139992 
L 286.748441 -166.072879 
L 288.582648 -145.489699 
L 290.416854 -151.134837 
L 292.251061 -173.71556 
L 294.085267 -153.101583 
L 295.919474 -159.318332 
L 297.75368 -171.285554 
L 299.587887 -149.276963 
L 301.422093 -168.678229 
L 303.2563 -154.006393 
L 305.090506 -164.119349 
L 306.924713 -161.248932 
L 308.758919 -182.598968 
L 310.593125 -159.821869 
L 312.427332 -187.433508 
L 314.261538 -187.358884 
L 316.095745 -186.247055 
L 317.929951 -184.068047 
L 319.764158 -175.81164 
L 321.598364 -170.02261 
L 323.432571 -169.931056 
L 325.266777 -165.350339 
L 327.100984 -170.31596 
L 328.93519 -196.798822 
L 330.769397 -180.703396 
L 332.603603 -202.979447 
L 334.43781 -182.551712 
L 336.272016 -150.797248 
L 338.106223 -160.437945 
L 339.940429 -168.956808 
L 341.774635 -172.670646 
L 343.608842 -185.085847 
L 345.443048 -186.935509 
L 347.277255 -170.968501 
L 349.111461 -191.245759 
L 350.945668 -208.568426 
L 352.779874 -187.31636 
L 354.614081 -177.390034 
L 356.448287 -178.914244 
L 358.282494 -168.500558 
L 360.1167 -169.567434 
L 361.950907 -179.466588 
L 363.785113 -172.292521 
L 365.61932 -158.516234 
L 367.453526 -173.137741 
L 369.287733 -171.93276 
L 371.121939 -165.421567 
L 372.956146 -152.427521 
L 374.790352 -164.673718 
L 376.624558 -157.880042 
L 378.458765 -164.838035 
L 380.292971 -167.881777 
L 382.127178 -167.497307 
L 383.961384 -155.6392 
L 385.795591 -155.958513 
L 387.629797 -150.448839 
L 389.464004 -165.172265 
L 391.29821 -185.003213 
L 391.29821 -189.275791 
L 391.29821 -189.275791 
L 389.464004 -186.442529 
L 387.629797 -164.379058 
L 385.795591 -182.184598 
L 383.961384 -176.263035 
L 382.127178 -183.056705 
L 380.292971 -178.807643 
L 378.458765 -181.477289 
L 376.624558 -184.961877 
L 374.790352 -183.474411 
L 372.956146 -174.810168 
L 371.121939 -182.591009 
L 369.287733 -185.909874 
L 367.453526 -182.379392 
L 365.61932 -191.866866 
L 363.785113 -202.56265 
L 361.950907 -203.23587 
L 360.1167 -187.879092 
L 358.282494 -196.561047 
L 356.448287 -201.622953 
L 354.614081 -195.081419 
L 352.779874 -209.416756 
L 350.945668 -221.588548 
L 349.111461 -213.296955 
L 347.277255 -186.281156 
L 345.443048 -202.491802 
L 343.608842 -207.772823 
L 341.774635 -190.68462 
L 339.940429 -193.130817 
L 338.106223 -186.785887 
L 336.272016 -189.589054 
L 334.43781 -191.834881 
L 332.603603 -216.533795 
L 330.769397 -205.99239 
L 328.93519 -208.282862 
L 327.100984 -188.924907 
L 325.266777 -173.122229 
L 323.432571 -200.506173 
L 321.598364 -189.722336 
L 319.764158 -218.355237 
L 317.929951 -215.183974 
L 316.095745 -212.552962 
L 314.261538 -212.649855 
L 312.427332 -213.736839 
L 310.593125 -175.807455 
L 308.758919 -208.03642 
L 306.924713 -185.040508 
L 305.090506 -177.942681 
L 303.2563 -173.023161 
L 301.422093 -200.217437 
L 299.587887 -162.152218 
L 297.75368 -204.334505 
L 295.919474 -178.810241 
L 294.085267 -171.563138 
L 292.251061 -194.811591 
L 290.416854 -169.905708 
L 288.582648 -183.52804 
L 286.748441 -198.483525 
L 284.914235 -187.959738 
L 283.080028 -173.500951 
L 281.245822 -182.299259 
L 279.411615 -177.170819 
L 277.577409 -171.576065 
L 275.743203 -177.709928 
L 273.908996 -177.391731 
L 272.07479 -177.252247 
L 270.240583 -212.508482 
L 268.406377 -186.576793 
L 266.57217 -179.75933 
L 264.737964 -189.740268 
L 262.903757 -183.571159 
L 261.069551 -178.734645 
L 259.235344 -163.56895 
L 257.401138 -212.908549 
L 255.566931 -209.284723 
L 253.732725 -207.054002 
L 251.898518 -186.081273 
L 250.064312 -212.332835 
L 248.230105 -179.968103 
L 246.395899 -199.879852 
L 244.561693 -173.814358 
L 242.727486 -192.234217 
L 240.89328 -184.90699 
L 239.059073 -185.500901 
L 237.224867 -149.873111 
L 235.39066 -165.576408 
L 233.556454 -194.186346 
L 231.722247 -168.354412 
L 229.888041 -165.025439 
L 228.053834 -190.110943 
L 226.219628 -197.267874 
L 224.385421 -191.716761 
L 222.551215 -173.273694 
L 220.717008 -230.422143 
L 218.882802 -197.998039 
L 217.048595 -192.237237 
L 215.214389 -190.589912 
L 213.380182 -185.747583 
L 211.545976 -184.270817 
L 209.71177 -216.554608 
L 207.877563 -178.018851 
L 206.043357 -221.632559 
L 204.20915 -196.117499 
L 202.374944 -169.030454 
L 200.540737 -220.731719 
L 198.706531 -205.526363 
L 196.872324 -224.836362 
L 195.038118 -194.834189 
L 193.203911 -217.885905 
L 191.369705 -201.612593 
L 189.535498 -210.284315 
L 187.701292 -249.358471 
L 185.867085 -224.998359 
L 184.032879 -214.591015 
L 182.198672 -199.329637 
L 180.364466 -261.478837 
L 178.53026 -235.228365 
L 176.696053 -218.054644 
L 174.861847 -281.825641 
L 173.02764 -274.887189 
L 171.193434 -272.638968 
L 169.359227 -211.378941 
L 167.525021 -278.720718 
L 165.690814 -251.933555 
L 163.856608 -291.850375 
L 162.022401 -233.721356 
L 160.188195 -260.452865 
L 158.353988 -226.813158 
L 156.519782 -191.069406 
L 154.685575 -186.212035 
L 152.851369 -184.515196 
L 151.017162 -187.800122 
L 149.182956 -144.045818 
L 147.34875 -104.817382 
L 145.514543 -91.988007 
L 143.680337 -79.875616 
L 141.84613 -88.64981 
L 140.011924 -78.590035 
L 138.177717 -92.679891 
L 136.343511 -93.504216 
L 134.509304 -100.258839 
L 132.675098 -98.531732 
L 130.840891 -136.833824 
L 129.006685 -116.147002 
L 127.172478 -87.947423 
L 125.338272 -96.468545 
L 123.504065 -81.963734 
L 121.669859 -72.682399 
L 119.835652 -125.662166 
L 118.001446 -72.453561 
L 116.16724 -69.572943 
L 114.333033 -87.400106 
L 112.498827 -86.421353 
L 110.66462 -75.568193 
L 108.830414 -77.118772 
L 106.996207 -114.68767 
L 105.162001 -90.994835 
L 103.327794 -61.345048 
L 101.493588 -61.01446 
L 99.659381 -49.930375 
L 97.825175 -131.986775 
L 95.990968 -111.970267 
L 94.156762 -117.517042 
L 92.322555 -49.930375 
L 90.488349 -59.032364 
L 88.654142 -59.760523 
L 86.819936 -100.958432 
L 84.985729 -71.982405 
L 83.151523 -87.655725 
L 81.317317 -49.930375 
L 79.48311 -107.846947 
L 77.648904 -94.040016 
L 75.814697 -69.980212 
L 73.980491 -77.236343 
L 72.146284 -116.954115 
L 70.312078 -143.76361 
L 68.477871 -49.930375 
L 66.643665 -49.930375 
z
" style="stroke: #ff7f0e; stroke-opacity: 0.3"/>
    </defs>
    <g clip-path="url(#p6869af6fa8)">
     <use xlink:href="#m0110d79018" x="0" y="311.146375" style="fill: #ff7f0e; fill-opacity: 0.3; stroke: #ff7f0e; stroke-opacity: 0.3"/>
    </g>
   </g>
   <g id="matplotlib.axis_1">
    <g id="xtick_1">
     <g id="line2d_1">
      <defs>
       <path id="m8aadf0cdf2" d="M 0 0 
L 0 3.5 
" style="stroke: #000000; stroke-width: 0.8"/>
      </defs>
      <g>
       <use xlink:href="#m8aadf0cdf2" x="65.726562" y="273.312" style="stroke: #000000; stroke-width: 0.8"/>
      </g>
     </g>
     <g id="text_1">
      <!-- 0.0 -->
      <g transform="translate(57.774999 287.910437) scale(0.1 -0.1)">
       <defs>
        <path id="DejaVuSans-30" d="M 2034 4250 
Q 1547 4250 1301 3770 
Q 1056 3291 1056 2328 
Q 1056 1369 1301 889 
Q 1547 409 2034 409 
Q 2525 409 2770 889 
Q 3016 1369 3016 2328 
Q 3016 3291 2770 3770 
Q 2525 4250 2034 4250 
z
M 2034 4750 
Q 2819 4750 3233 4129 
Q 3647 3509 3647 2328 
Q 3647 1150 3233 529 
Q 2819 -91 2034 -91 
Q 1250 -91 836 529 
Q 422 1150 422 2328 
Q 422 3509 836 4129 
Q 1250 4750 2034 4750 
z
" transform="scale(0.015625)"/>
        <path id="DejaVuSans-2e" d="M 684 794 
L 1344 794 
L 1344 0 
L 684 0 
L 684 794 
z
" transform="scale(0.015625)"/>
       </defs>
       <use xlink:href="#DejaVuSans-30"/>
       <use xlink:href="#DejaVuSans-2e" transform="translate(63.623047 0)"/>
       <use xlink:href="#DejaVuSans-30" transform="translate(95.410156 0)"/>
      </g>
     </g>
    </g>
    <g id="xtick_2">
     <g id="line2d_2">
      <g>
       <use xlink:href="#m8aadf0cdf2" x="111.581723" y="273.312" style="stroke: #000000; stroke-width: 0.8"/>
      </g>
     </g>
     <g id="text_2">
      <!-- 0.5 -->
      <g transform="translate(103.630161 287.910437) scale(0.1 -0.1)">
       <defs>
        <path id="DejaVuSans-35" d="M 691 4666 
L 3169 4666 
L 3169 4134 
L 1269 4134 
L 1269 2991 
Q 1406 3038 1543 3061 
Q 1681 3084 1819 3084 
Q 2600 3084 3056 2656 
Q 3513 2228 3513 1497 
Q 3513 744 3044 326 
Q 2575 -91 1722 -91 
Q 1428 -91 1123 -41 
Q 819 9 494 109 
L 494 744 
Q 775 591 1075 516 
Q 1375 441 1709 441 
Q 2250 441 2565 725 
Q 2881 1009 2881 1497 
Q 2881 1984 2565 2268 
Q 2250 2553 1709 2553 
Q 1456 2553 1204 2497 
Q 953 2441 691 2322 
L 691 4666 
z
" transform="scale(0.015625)"/>
       </defs>
       <use xlink:href="#DejaVuSans-30"/>
       <use xlink:href="#DejaVuSans-2e" transform="translate(63.623047 0)"/>
       <use xlink:href="#DejaVuSans-35" transform="translate(95.410156 0)"/>
      </g>
     </g>
    </g>
    <g id="xtick_3">
     <g id="line2d_3">
      <g>
       <use xlink:href="#m8aadf0cdf2" x="157.436885" y="273.312" style="stroke: #000000; stroke-width: 0.8"/>
      </g>
     </g>
     <g id="text_3">
      <!-- 1.0 -->
      <g transform="translate(149.485323 287.910437) scale(0.1 -0.1)">
       <defs>
        <path id="DejaVuSans-31" d="M 794 531 
L 1825 531 
L 1825 4091 
L 703 3866 
L 703 4441 
L 1819 4666 
L 2450 4666 
L 2450 531 
L 3481 531 
L 3481 0 
L 794 0 
L 794 531 
z
" transform="scale(0.015625)"/>
       </defs>
       <use xlink:href="#DejaVuSans-31"/>
       <use xlink:href="#DejaVuSans-2e" transform="translate(63.623047 0)"/>
       <use xlink:href="#DejaVuSans-30" transform="translate(95.410156 0)"/>
      </g>
     </g>
    </g>
    <g id="xtick_4">
     <g id="line2d_4">
      <g>
       <use xlink:href="#m8aadf0cdf2" x="203.292047" y="273.312" style="stroke: #000000; stroke-width: 0.8"/>
      </g>
     </g>
     <g id="text_4">
      <!-- 1.5 -->
      <g transform="translate(195.340484 287.910437) scale(0.1 -0.1)">
       <use xlink:href="#DejaVuSans-31"/>
       <use xlink:href="#DejaVuSans-2e" transform="translate(63.623047 0)"/>
       <use xlink:href="#DejaVuSans-35" transform="translate(95.410156 0)"/>
      </g>
     </g>
    </g>
    <g id="xtick_5">
     <g id="line2d_5">
      <g>
       <use xlink:href="#m8aadf0cdf2" x="249.147209" y="273.312" style="stroke: #000000; stroke-width: 0.8"/>
      </g>
     </g>
     <g id="text_5">
      <!-- 2.0 -->
      <g transform="translate(241.195646 287.910437) scale(0.1 -0.1)">
       <defs>
        <path id="DejaVuSans-32" d="M 1228 531 
L 3431 531 
L 3431 0 
L 469 0 
L 469 531 
Q 828 903 1448 1529 
Q 2069 2156 2228 2338 
Q 2531 2678 2651 2914 
Q 2772 3150 2772 3378 
Q 2772 3750 2511 3984 
Q 2250 4219 1831 4219 
Q 1534 4219 1204 4116 
Q 875 4013 500 3803 
L 500 4441 
Q 881 4594 1212 4672 
Q 1544 4750 1819 4750 
Q 2544 4750 2975 4387 
Q 3406 4025 3406 3419 
Q 3406 3131 3298 2873 
Q 3191 2616 2906 2266 
Q 2828 2175 2409 1742 
Q 1991 1309 1228 531 
z
" transform="scale(0.015625)"/>
       </defs>
       <use xlink:href="#DejaVuSans-32"/>
       <use xlink:href="#DejaVuSans-2e" transform="translate(63.623047 0)"/>
       <use xlink:href="#DejaVuSans-30" transform="translate(95.410156 0)"/>
      </g>
     </g>
    </g>
    <g id="xtick_6">
     <g id="line2d_6">
      <g>
       <use xlink:href="#m8aadf0cdf2" x="295.00237" y="273.312" style="stroke: #000000; stroke-width: 0.8"/>
      </g>
     </g>
     <g id="text_6">
      <!-- 2.5 -->
      <g transform="translate(287.050808 287.910437) scale(0.1 -0.1)">
       <use xlink:href="#DejaVuSans-32"/>
       <use xlink:href="#DejaVuSans-2e" transform="translate(63.623047 0)"/>
       <use xlink:href="#DejaVuSans-35" transform="translate(95.410156 0)"/>
      </g>
     </g>
    </g>
    <g id="xtick_7">
     <g id="line2d_7">
      <g>
       <use xlink:href="#m8aadf0cdf2" x="340.857532" y="273.312" style="stroke: #000000; stroke-width: 0.8"/>
      </g>
     </g>
     <g id="text_7">
      <!-- 3.0 -->
      <g transform="translate(332.90597 287.910437) scale(0.1 -0.1)">
       <defs>
        <path id="DejaVuSans-33" d="M 2597 2516 
Q 3050 2419 3304 2112 
Q 3559 1806 3559 1356 
Q 3559 666 3084 287 
Q 2609 -91 1734 -91 
Q 1441 -91 1130 -33 
Q 819 25 488 141 
L 488 750 
Q 750 597 1062 519 
Q 1375 441 1716 441 
Q 2309 441 2620 675 
Q 2931 909 2931 1356 
Q 2931 1769 2642 2001 
Q 2353 2234 1838 2234 
L 1294 2234 
L 1294 2753 
L 1863 2753 
Q 2328 2753 2575 2939 
Q 2822 3125 2822 3475 
Q 2822 3834 2567 4026 
Q 2313 4219 1838 4219 
Q 1578 4219 1281 4162 
Q 984 4106 628 3988 
L 628 4550 
Q 988 4650 1302 4700 
Q 1616 4750 1894 4750 
Q 2613 4750 3031 4423 
Q 3450 4097 3450 3541 
Q 3450 3153 3228 2886 
Q 3006 2619 2597 2516 
z
" transform="scale(0.015625)"/>
       </defs>
       <use xlink:href="#DejaVuSans-33"/>
       <use xlink:href="#DejaVuSans-2e" transform="translate(63.623047 0)"/>
       <use xlink:href="#DejaVuSans-30" transform="translate(95.410156 0)"/>
      </g>
     </g>
    </g>
    <g id="xtick_8">
     <g id="line2d_8">
      <g>
       <use xlink:href="#m8aadf0cdf2" x="386.712694" y="273.312" style="stroke: #000000; stroke-width: 0.8"/>
      </g>
     </g>
     <g id="text_8">
      <!-- 3.5 -->
      <g transform="translate(378.761132 287.910437) scale(0.1 -0.1)">
       <use xlink:href="#DejaVuSans-33"/>
       <use xlink:href="#DejaVuSans-2e" transform="translate(63.623047 0)"/>
       <use xlink:href="#DejaVuSans-35" transform="translate(95.410156 0)"/>
      </g>
     </g>
    </g>
    <g id="text_9">
     <!-- r_xy (reduced units) -->
     <g transform="translate(178.763125 301.588562) scale(0.1 -0.1)">
      <defs>
       <path id="DejaVuSans-72" d="M 2631 2963 
Q 2534 3019 2420 3045 
Q 2306 3072 2169 3072 
Q 1681 3072 1420 2755 
Q 1159 2438 1159 1844 
L 1159 0 
L 581 0 
L 581 3500 
L 1159 3500 
L 1159 2956 
Q 1341 3275 1631 3429 
Q 1922 3584 2338 3584 
Q 2397 3584 2469 3576 
Q 2541 3569 2628 3553 
L 2631 2963 
z
" transform="scale(0.015625)"/>
       <path id="DejaVuSans-5f" d="M 3263 -1063 
L 3263 -1509 
L -63 -1509 
L -63 -1063 
L 3263 -1063 
z
" transform="scale(0.015625)"/>
       <path id="DejaVuSans-78" d="M 3513 3500 
L 2247 1797 
L 3578 0 
L 2900 0 
L 1881 1375 
L 863 0 
L 184 0 
L 1544 1831 
L 300 3500 
L 978 3500 
L 1906 2253 
L 2834 3500 
L 3513 3500 
z
" transform="scale(0.015625)"/>
       <path id="DejaVuSans-79" d="M 2059 -325 
Q 1816 -950 1584 -1140 
Q 1353 -1331 966 -1331 
L 506 -1331 
L 506 -850 
L 844 -850 
Q 1081 -850 1212 -737 
Q 1344 -625 1503 -206 
L 1606 56 
L 191 3500 
L 800 3500 
L 1894 763 
L 2988 3500 
L 3597 3500 
L 2059 -325 
z
" transform="scale(0.015625)"/>
       <path id="DejaVuSans-20" transform="scale(0.015625)"/>
       <path id="DejaVuSans-28" d="M 1984 4856 
Q 1566 4138 1362 3434 
Q 1159 2731 1159 2009 
Q 1159 1288 1364 580 
Q 1569 -128 1984 -844 
L 1484 -844 
Q 1016 -109 783 600 
Q 550 1309 550 2009 
Q 550 2706 781 3412 
Q 1013 4119 1484 4856 
L 1984 4856 
z
" transform="scale(0.015625)"/>
       <path id="DejaVuSans-65" d="M 3597 1894 
L 3597 1613 
L 953 1613 
Q 991 1019 1311 708 
Q 1631 397 2203 397 
Q 2534 397 2845 478 
Q 3156 559 3463 722 
L 3463 178 
Q 3153 47 2828 -22 
Q 2503 -91 2169 -91 
Q 1331 -91 842 396 
Q 353 884 353 1716 
Q 353 2575 817 3079 
Q 1281 3584 2069 3584 
Q 2775 3584 3186 3129 
Q 3597 2675 3597 1894 
z
M 3022 2063 
Q 3016 2534 2758 2815 
Q 2500 3097 2075 3097 
Q 1594 3097 1305 2825 
Q 1016 2553 972 2059 
L 3022 2063 
z
" transform="scale(0.015625)"/>
       <path id="DejaVuSans-64" d="M 2906 2969 
L 2906 4863 
L 3481 4863 
L 3481 0 
L 2906 0 
L 2906 525 
Q 2725 213 2448 61 
Q 2172 -91 1784 -91 
Q 1150 -91 751 415 
Q 353 922 353 1747 
Q 353 2572 751 3078 
Q 1150 3584 1784 3584 
Q 2172 3584 2448 3432 
Q 2725 3281 2906 2969 
z
M 947 1747 
Q 947 1113 1208 752 
Q 1469 391 1925 391 
Q 2381 391 2643 752 
Q 2906 1113 2906 1747 
Q 2906 2381 2643 2742 
Q 2381 3103 1925 3103 
Q 1469 3103 1208 2742 
Q 947 2381 947 1747 
z
" transform="scale(0.015625)"/>
       <path id="DejaVuSans-75" d="M 544 1381 
L 544 3500 
L 1119 3500 
L 1119 1403 
Q 1119 906 1312 657 
Q 1506 409 1894 409 
Q 2359 409 2629 706 
Q 2900 1003 2900 1516 
L 2900 3500 
L 3475 3500 
L 3475 0 
L 2900 0 
L 2900 538 
Q 2691 219 2414 64 
Q 2138 -91 1772 -91 
Q 1169 -91 856 284 
Q 544 659 544 1381 
z
M 1991 3584 
L 1991 3584 
z
" transform="scale(0.015625)"/>
       <path id="DejaVuSans-63" d="M 3122 3366 
L 3122 2828 
Q 2878 2963 2633 3030 
Q 2388 3097 2138 3097 
Q 1578 3097 1268 2742 
Q 959 2388 959 1747 
Q 959 1106 1268 751 
Q 1578 397 2138 397 
Q 2388 397 2633 464 
Q 2878 531 3122 666 
L 3122 134 
Q 2881 22 2623 -34 
Q 2366 -91 2075 -91 
Q 1284 -91 818 406 
Q 353 903 353 1747 
Q 353 2603 823 3093 
Q 1294 3584 2113 3584 
Q 2378 3584 2631 3529 
Q 2884 3475 3122 3366 
z
" transform="scale(0.015625)"/>
       <path id="DejaVuSans-6e" d="M 3513 2113 
L 3513 0 
L 2938 0 
L 2938 2094 
Q 2938 2591 2744 2837 
Q 2550 3084 2163 3084 
Q 1697 3084 1428 2787 
Q 1159 2491 1159 1978 
L 1159 0 
L 581 0 
L 581 3500 
L 1159 3500 
L 1159 2956 
Q 1366 3272 1645 3428 
Q 1925 3584 2291 3584 
Q 2894 3584 3203 3211 
Q 3513 2838 3513 2113 
z
" transform="scale(0.015625)"/>
       <path id="DejaVuSans-69" d="M 603 3500 
L 1178 3500 
L 1178 0 
L 603 0 
L 603 3500 
z
M 603 4863 
L 1178 4863 
L 1178 4134 
L 603 4134 
L 603 4863 
z
" transform="scale(0.015625)"/>
       <path id="DejaVuSans-74" d="M 1172 4494 
L 1172 3500 
L 2356 3500 
L 2356 3053 
L 1172 3053 
L 1172 1153 
Q 1172 725 1289 603 
Q 1406 481 1766 481 
L 2356 481 
L 2356 0 
L 1766 0 
Q 1100 0 847 248 
Q 594 497 594 1153 
L 594 3053 
L 172 3053 
L 172 3500 
L 594 3500 
L 594 4494 
L 1172 4494 
z
" transform="scale(0.015625)"/>
       <path id="DejaVuSans-73" d="M 2834 3397 
L 2834 2853 
Q 2591 2978 2328 3040 
Q 2066 3103 1784 3103 
Q 1356 3103 1142 2972 
Q 928 2841 928 2578 
Q 928 2378 1081 2264 
Q 1234 2150 1697 2047 
L 1894 2003 
Q 2506 1872 2764 1633 
Q 3022 1394 3022 966 
Q 3022 478 2636 193 
Q 2250 -91 1575 -91 
Q 1294 -91 989 -36 
Q 684 19 347 128 
L 347 722 
Q 666 556 975 473 
Q 1284 391 1588 391 
Q 1994 391 2212 530 
Q 2431 669 2431 922 
Q 2431 1156 2273 1281 
Q 2116 1406 1581 1522 
L 1381 1569 
Q 847 1681 609 1914 
Q 372 2147 372 2553 
Q 372 3047 722 3315 
Q 1072 3584 1716 3584 
Q 2034 3584 2315 3537 
Q 2597 3491 2834 3397 
z
" transform="scale(0.015625)"/>
       <path id="DejaVuSans-29" d="M 513 4856 
L 1013 4856 
Q 1481 4119 1714 3412 
Q 1947 2706 1947 2009 
Q 1947 1309 1714 600 
Q 1481 -109 1013 -844 
L 513 -844 
Q 928 -128 1133 580 
Q 1338 1288 1338 2009 
Q 1338 2731 1133 3434 
Q 928 4138 513 4856 
z
" transform="scale(0.015625)"/>
      </defs>
      <use xlink:href="#DejaVuSans-72"/>
      <use xlink:href="#DejaVuSans-5f" transform="translate(41.113281 0)"/>
      <use xlink:href="#DejaVuSans-78" transform="translate(91.113281 0)"/>
      <use xlink:href="#DejaVuSans-79" transform="translate(150.292969 0)"/>
      <use xlink:href="#DejaVuSans-20" transform="translate(209.472656 0)"/>
      <use xlink:href="#DejaVuSans-28" transform="translate(241.259766 0)"/>
      <use xlink:href="#DejaVuSans-72" transform="translate(280.273438 0)"/>
      <use xlink:href="#DejaVuSans-65" transform="translate(319.136719 0)"/>
      <use xlink:href="#DejaVuSans-64" transform="translate(380.660156 0)"/>
      <use xlink:href="#DejaVuSans-75" transform="translate(444.136719 0)"/>
      <use xlink:href="#DejaVuSans-63" transform="translate(507.515625 0)"/>
      <use xlink:href="#DejaVuSans-65" transform="translate(562.496094 0)"/>
      <use xlink:href="#DejaVuSans-64" transform="translate(624.019531 0)"/>
      <use xlink:href="#DejaVuSans-20" transform="translate(687.496094 0)"/>
      <use xlink:href="#DejaVuSans-75" transform="translate(719.283203 0)"/>
      <use xlink:href="#DejaVuSans-6e" transform="translate(782.662109 0)"/>
      <use xlink:href="#DejaVuSans-69" transform="translate(846.041016 0)"/>
      <use xlink:href="#DejaVuSans-74" transform="translate(873.824219 0)"/>
      <use xlink:href="#DejaVuSans-73" transform="translate(913.033203 0)"/>
      <use xlink:href="#DejaVuSans-29" transform="translate(965.132812 0)"/>
     </g>
    </g>
   </g>
   <g id="matplotlib.axis_2">
    <g id="ytick_1">
     <g id="line2d_9">
      <defs>
       <path id="m296b497b71" d="M 0 0 
L -3.5 0 
" style="stroke: #000000; stroke-width: 0.8"/>
      </defs>
      <g>
       <use xlink:href="#m296b497b71" x="50.410938" y="261.216" style="stroke: #000000; stroke-width: 0.8"/>
      </g>
     </g>
     <g id="text_10">
      <!-- 0.00 -->
      <g transform="translate(21.145313 265.015219) scale(0.1 -0.1)">
       <use xlink:href="#DejaVuSans-30"/>
       <use xlink:href="#DejaVuSans-2e" transform="translate(63.623047 0)"/>
       <use xlink:href="#DejaVuSans-30" transform="translate(95.410156 0)"/>
       <use xlink:href="#DejaVuSans-30" transform="translate(159.033203 0)"/>
      </g>
     </g>
    </g>
    <g id="ytick_2">
     <g id="line2d_10">
      <g>
       <use xlink:href="#m296b497b71" x="50.410938" y="229.233731" style="stroke: #000000; stroke-width: 0.8"/>
      </g>
     </g>
     <g id="text_11">
      <!-- 0.25 -->
      <g transform="translate(21.145313 233.03295) scale(0.1 -0.1)">
       <use xlink:href="#DejaVuSans-30"/>
       <use xlink:href="#DejaVuSans-2e" transform="translate(63.623047 0)"/>
       <use xlink:href="#DejaVuSans-32" transform="translate(95.410156 0)"/>
       <use xlink:href="#DejaVuSans-35" transform="translate(159.033203 0)"/>
      </g>
     </g>
    </g>
    <g id="ytick_3">
     <g id="line2d_11">
      <g>
       <use xlink:href="#m296b497b71" x="50.410938" y="197.251463" style="stroke: #000000; stroke-width: 0.8"/>
      </g>
     </g>
     <g id="text_12">
      <!-- 0.50 -->
      <g transform="translate(21.145313 201.050682) scale(0.1 -0.1)">
       <use xlink:href="#DejaVuSans-30"/>
       <use xlink:href="#DejaVuSans-2e" transform="translate(63.623047 0)"/>
       <use xlink:href="#DejaVuSans-35" transform="translate(95.410156 0)"/>
       <use xlink:href="#DejaVuSans-30" transform="translate(159.033203 0)"/>
      </g>
     </g>
    </g>
    <g id="ytick_4">
     <g id="line2d_12">
      <g>
       <use xlink:href="#m296b497b71" x="50.410938" y="165.269194" style="stroke: #000000; stroke-width: 0.8"/>
      </g>
     </g>
     <g id="text_13">
      <!-- 0.75 -->
      <g transform="translate(21.145313 169.068413) scale(0.1 -0.1)">
       <defs>
        <path id="DejaVuSans-37" d="M 525 4666 
L 3525 4666 
L 3525 4397 
L 1831 0 
L 1172 0 
L 2766 4134 
L 525 4134 
L 525 4666 
z
" transform="scale(0.015625)"/>
       </defs>
       <use xlink:href="#DejaVuSans-30"/>
       <use xlink:href="#DejaVuSans-2e" transform="translate(63.623047 0)"/>
       <use xlink:href="#DejaVuSans-37" transform="translate(95.410156 0)"/>
       <use xlink:href="#DejaVuSans-35" transform="translate(159.033203 0)"/>
      </g>
     </g>
    </g>
    <g id="ytick_5">
     <g id="line2d_13">
      <g>
       <use xlink:href="#m296b497b71" x="50.410938" y="133.286926" style="stroke: #000000; stroke-width: 0.8"/>
      </g>
     </g>
     <g id="text_14">
      <!-- 1.00 -->
      <g transform="translate(21.145313 137.086145) scale(0.1 -0.1)">
       <use xlink:href="#DejaVuSans-31"/>
       <use xlink:href="#DejaVuSans-2e" transform="translate(63.623047 0)"/>
       <use xlink:href="#DejaVuSans-30" transform="translate(95.410156 0)"/>
       <use xlink:href="#DejaVuSans-30" transform="translate(159.033203 0)"/>
      </g>
     </g>
    </g>
    <g id="ytick_6">
     <g id="line2d_14">
      <g>
       <use xlink:href="#m296b497b71" x="50.410938" y="101.304657" style="stroke: #000000; stroke-width: 0.8"/>
      </g>
     </g>
     <g id="text_15">
      <!-- 1.25 -->
      <g transform="translate(21.145313 105.103876) scale(0.1 -0.1)">
       <use xlink:href="#DejaVuSans-31"/>
       <use xlink:href="#DejaVuSans-2e" transform="translate(63.623047 0)"/>
       <use xlink:href="#DejaVuSans-32" transform="translate(95.410156 0)"/>
       <use xlink:href="#DejaVuSans-35" transform="translate(159.033203 0)"/>
      </g>
     </g>
    </g>
    <g id="ytick_7">
     <g id="line2d_15">
      <g>
       <use xlink:href="#m296b497b71" x="50.410938" y="69.322389" style="stroke: #000000; stroke-width: 0.8"/>
      </g>
     </g>
     <g id="text_16">
      <!-- 1.50 -->
      <g transform="translate(21.145313 73.121607) scale(0.1 -0.1)">
       <use xlink:href="#DejaVuSans-31"/>
       <use xlink:href="#DejaVuSans-2e" transform="translate(63.623047 0)"/>
       <use xlink:href="#DejaVuSans-35" transform="translate(95.410156 0)"/>
       <use xlink:href="#DejaVuSans-30" transform="translate(159.033203 0)"/>
      </g>
     </g>
    </g>
    <g id="ytick_8">
     <g id="line2d_16">
      <g>
       <use xlink:href="#m296b497b71" x="50.410938" y="37.34012" style="stroke: #000000; stroke-width: 0.8"/>
      </g>
     </g>
     <g id="text_17">
      <!-- 1.75 -->
      <g transform="translate(21.145313 41.139339) scale(0.1 -0.1)">
       <use xlink:href="#DejaVuSans-31"/>
       <use xlink:href="#DejaVuSans-2e" transform="translate(63.623047 0)"/>
       <use xlink:href="#DejaVuSans-37" transform="translate(95.410156 0)"/>
       <use xlink:href="#DejaVuSans-35" transform="translate(159.033203 0)"/>
      </g>
     </g>
    </g>
    <g id="text_18">
     <!-- g_xy(r) -->
     <g transform="translate(14.7875 157.806) rotate(-90) scale(0.1 -0.1)">
      <defs>
       <path id="DejaVuSans-67" d="M 2906 1791 
Q 2906 2416 2648 2759 
Q 2391 3103 1925 3103 
Q 1463 3103 1205 2759 
Q 947 2416 947 1791 
Q 947 1169 1205 825 
Q 1463 481 1925 481 
Q 2391 481 2648 825 
Q 2906 1169 2906 1791 
z
M 3481 434 
Q 3481 -459 3084 -895 
Q 2688 -1331 1869 -1331 
Q 1566 -1331 1297 -1286 
Q 1028 -1241 775 -1147 
L 775 -588 
Q 1028 -725 1275 -790 
Q 1522 -856 1778 -856 
Q 2344 -856 2625 -561 
Q 2906 -266 2906 331 
L 2906 616 
Q 2728 306 2450 153 
Q 2172 0 1784 0 
Q 1141 0 747 490 
Q 353 981 353 1791 
Q 353 2603 747 3093 
Q 1141 3584 1784 3584 
Q 2172 3584 2450 3431 
Q 2728 3278 2906 2969 
L 2906 3500 
L 3481 3500 
L 3481 434 
z
" transform="scale(0.015625)"/>
      </defs>
      <use xlink:href="#DejaVuSans-67"/>
      <use xlink:href="#DejaVuSans-5f" transform="translate(63.476562 0)"/>
      <use xlink:href="#DejaVuSans-78" transform="translate(113.476562 0)"/>
      <use xlink:href="#DejaVuSans-79" transform="translate(172.65625 0)"/>
      <use xlink:href="#DejaVuSans-28" transform="translate(231.835938 0)"/>
      <use xlink:href="#DejaVuSans-72" transform="translate(270.849609 0)"/>
      <use xlink:href="#DejaVuSans-29" transform="translate(311.962891 0)"/>
     </g>
    </g>
   </g>
   <g id="line2d_17">
    <path d="M 66.643665 261.216 
L 68.477871 261.216 
L 70.312078 214.299382 
L 72.146284 227.70413 
L 73.980491 247.563016 
L 75.814697 251.191082 
L 79.48311 227.258578 
L 81.317317 261.216 
L 83.151523 242.353325 
L 84.985729 247.539934 
L 86.819936 227.530883 
L 88.654142 256.300926 
L 90.488349 256.665005 
L 92.322555 261.216 
L 94.156762 217.846634 
L 95.990968 220.048738 
L 97.825175 213.070255 
L 99.659381 261.216 
L 101.493588 254.349115 
L 103.327794 254.184585 
L 106.996207 213.710352 
L 108.830414 242.05017 
L 110.66462 246.536655 
L 112.498827 238.759621 
L 114.333033 236.22447 
L 116.16724 247.717972 
L 118.001446 248.113256 
L 119.835652 216.180049 
L 121.669859 247.170279 
L 123.504065 239.092225 
L 125.338272 232.748791 
L 127.172478 237.988509 
L 129.006685 218.82507 
L 130.840891 195.813662 
L 132.675098 228.654697 
L 134.509304 225.790362 
L 136.343511 232.221775 
L 138.177717 229.551531 
L 140.011924 240.418919 
L 141.84613 233.157157 
L 143.680337 240.596362 
L 145.514543 229.734903 
L 147.34875 218.167332 
L 149.182956 180.921868 
L 151.017162 141.057287 
L 152.851369 138.5805 
L 154.685575 142.36592 
L 156.519782 143.742982 
L 158.353988 96.584631 
L 160.188195 73.117672 
L 162.022401 92.874478 
L 163.856608 49.966539 
L 165.690814 82.654024 
L 167.525021 79.878289 
L 169.359227 114.15454 
L 171.193434 75.636565 
L 173.02764 57.498929 
L 174.861847 45.297209 
L 176.696053 103.487531 
L 178.53026 90.053533 
L 180.364466 74.239938 
L 182.198672 119.887942 
L 184.032879 106.841559 
L 185.867085 101.598353 
L 187.701292 90.491726 
L 189.535498 108.116735 
L 191.369705 120.281831 
L 193.203911 116.151411 
L 195.038118 123.718834 
L 196.872324 112.971195 
L 198.706531 129.68081 
L 200.540737 117.443047 
L 202.374944 149.299883 
L 206.043357 101.656734 
L 207.877563 147.383734 
L 209.71177 118.371811 
L 211.545976 155.804829 
L 213.380182 136.673223 
L 215.214389 137.292401 
L 217.048595 141.268328 
L 218.882802 127.338549 
L 220.717008 107.624181 
L 222.551215 143.932944 
L 226.219628 124.426884 
L 228.053834 136.246201 
L 229.888041 152.928665 
L 231.722247 153.648498 
L 233.556454 128.520121 
L 235.39066 156.580893 
L 237.224867 171.56944 
L 239.059073 133.732171 
L 240.89328 136.77001 
L 242.727486 133.795936 
L 244.561693 149.24418 
L 246.395899 134.209807 
L 248.230105 140.336878 
L 250.064312 115.954294 
L 251.898518 137.82712 
L 253.732725 118.061252 
L 255.566931 109.589104 
L 257.401138 116.472848 
L 259.235344 149.623727 
L 261.069551 145.97763 
L 262.903757 133.913974 
L 264.737964 130.2844 
L 266.57217 146.806349 
L 268.406377 137.867261 
L 270.240583 118.311693 
L 272.07479 143.48796 
L 273.908996 145.188522 
L 275.743203 141.279689 
L 277.577409 148.328007 
L 281.245822 141.587351 
L 283.080028 147.936677 
L 284.914235 133.59651 
L 286.748441 128.868173 
L 288.582648 146.637505 
L 290.416854 150.626103 
L 292.251061 126.882799 
L 294.085267 148.814015 
L 295.919474 142.082088 
L 297.75368 123.336345 
L 299.587887 155.431784 
L 301.422093 126.698542 
L 303.2563 147.631598 
L 305.090506 140.11536 
L 306.924713 138.001655 
L 308.758919 115.828681 
L 310.593125 143.331713 
L 312.427332 110.561202 
L 316.095745 111.746367 
L 317.929951 111.520364 
L 319.764158 114.062936 
L 321.598364 131.273902 
L 323.432571 125.92776 
L 325.266777 141.910091 
L 327.100984 131.525941 
L 328.93519 108.605533 
L 330.769397 117.798482 
L 332.603603 101.389754 
L 334.43781 123.953078 
L 336.272016 140.953224 
L 338.106223 137.534459 
L 339.940429 130.102563 
L 341.774635 129.468742 
L 343.608842 114.71704 
L 345.443048 116.43272 
L 347.277255 132.521546 
L 349.111461 108.875018 
L 350.945668 96.067888 
L 352.779874 112.779817 
L 354.614081 124.910648 
L 356.448287 120.877776 
L 358.282494 128.615572 
L 360.1167 132.423112 
L 361.950907 119.795146 
L 363.785113 123.718789 
L 365.61932 135.954825 
L 367.453526 133.387808 
L 369.287733 132.225058 
L 371.121939 137.140087 
L 372.956146 147.52753 
L 374.790352 137.072311 
L 376.624558 139.725416 
L 378.458765 137.988713 
L 380.292971 137.801665 
L 382.127178 135.869369 
L 383.961384 145.195258 
L 385.795591 142.07482 
L 387.629797 153.732426 
L 389.464004 135.338978 
L 391.29821 124.006873 
L 391.29821 124.006873 
" clip-path="url(#p6869af6fa8)" style="fill: none; stroke: #ff7f0e; stroke-width: 1.5; stroke-linecap: square"/>
   </g>
   <g id="line2d_18">
    <path d="M 50.410938 133.286926 
L 407.530938 133.286926 
" clip-path="url(#p6869af6fa8)" style="fill: none; stroke-dasharray: 5.55,2.4; stroke-dashoffset: 0; stroke: #000000; stroke-opacity: 0.4; stroke-width: 1.5"/>
   </g>
   <g id="patch_3">
    <path d="M 50.410938 273.312 
L 50.410938 7.2 
" style="fill: none; stroke: #000000; stroke-width: 0.8; stroke-linejoin: miter; stroke-linecap: square"/>
   </g>
   <g id="patch_4">
    <path d="M 407.530938 273.312 
L 407.530938 7.2 
" style="fill: none; stroke: #000000; stroke-width: 0.8; stroke-linejoin: miter; stroke-linecap: square"/>
   </g>
   <g id="patch_5">
    <path d="M 50.410937 273.312 
L 407.530938 273.312 
" style="fill: none; stroke: #000000; stroke-width: 0.8; stroke-linejoin: miter; stroke-linecap: square"/>
   </g>
   <g id="patch_6">
    <path d="M 50.410937 7.2 
L 407.530938 7.2 
" style="fill: none; stroke: #000000; stroke-width: 0.8; stroke-linejoin: miter; stroke-linecap: square"/>
   </g>
   <g id="legend_1">
    <g id="patch_7">
     <path d="M 334.37 44.55625 
L 400.530938 44.55625 
Q 402.530938 44.55625 402.530938 42.55625 
L 402.530938 14.2 
Q 402.530938 12.2 400.530938 12.2 
L 334.37 12.2 
Q 332.37 12.2 332.37 14.2 
L 332.37 42.55625 
Q 332.37 44.55625 334.37 44.55625 
z
" style="fill: #ffffff; opacity: 0.8; stroke: #cccccc; stroke-linejoin: miter"/>
    </g>
    <g id="line2d_19">
     <path d="M 336.37 20.298437 
L 346.37 20.298437 
L 356.37 20.298437 
" style="fill: none; stroke: #ff7f0e; stroke-width: 1.5; stroke-linecap: square"/>
    </g>
    <g id="text_19">
     <!-- Mean -->
     <g transform="translate(364.37 23.798437) scale(0.1 -0.1)">
      <defs>
       <path id="DejaVuSans-4d" d="M 628 4666 
L 1569 4666 
L 2759 1491 
L 3956 4666 
L 4897 4666 
L 4897 0 
L 4281 0 
L 4281 4097 
L 3078 897 
L 2444 897 
L 1241 4097 
L 1241 0 
L 628 0 
L 628 4666 
z
" transform="scale(0.015625)"/>
       <path id="DejaVuSans-61" d="M 2194 1759 
Q 1497 1759 1228 1600 
Q 959 1441 959 1056 
Q 959 750 1161 570 
Q 1363 391 1709 391 
Q 2188 391 2477 730 
Q 2766 1069 2766 1631 
L 2766 1759 
L 2194 1759 
z
M 3341 1997 
L 3341 0 
L 2766 0 
L 2766 531 
Q 2569 213 2275 61 
Q 1981 -91 1556 -91 
Q 1019 -91 701 211 
Q 384 513 384 1019 
Q 384 1609 779 1909 
Q 1175 2209 1959 2209 
L 2766 2209 
L 2766 2266 
Q 2766 2663 2505 2880 
Q 2244 3097 1772 3097 
Q 1472 3097 1187 3025 
Q 903 2953 641 2809 
L 641 3341 
Q 956 3463 1253 3523 
Q 1550 3584 1831 3584 
Q 2591 3584 2966 3190 
Q 3341 2797 3341 1997 
z
" transform="scale(0.015625)"/>
      </defs>
      <use xlink:href="#DejaVuSans-4d"/>
      <use xlink:href="#DejaVuSans-65" transform="translate(86.279297 0)"/>
      <use xlink:href="#DejaVuSans-61" transform="translate(147.802734 0)"/>
      <use xlink:href="#DejaVuSans-6e" transform="translate(209.082031 0)"/>
     </g>
    </g>
    <g id="patch_8">
     <path d="M 336.37 38.476562 
L 356.37 38.476562 
L 356.37 31.476562 
L 336.37 31.476562 
z
" style="fill: #ff7f0e; fill-opacity: 0.3; stroke: #ff7f0e; stroke-opacity: 0.3; stroke-linejoin: miter"/>
    </g>
    <g id="text_20">
     <!-- Std Err -->
     <g transform="translate(364.37 38.476562) scale(0.1 -0.1)">
      <defs>
       <path id="DejaVuSans-53" d="M 3425 4513 
L 3425 3897 
Q 3066 4069 2747 4153 
Q 2428 4238 2131 4238 
Q 1616 4238 1336 4038 
Q 1056 3838 1056 3469 
Q 1056 3159 1242 3001 
Q 1428 2844 1947 2747 
L 2328 2669 
Q 3034 2534 3370 2195 
Q 3706 1856 3706 1288 
Q 3706 609 3251 259 
Q 2797 -91 1919 -91 
Q 1588 -91 1214 -16 
Q 841 59 441 206 
L 441 856 
Q 825 641 1194 531 
Q 1563 422 1919 422 
Q 2459 422 2753 634 
Q 3047 847 3047 1241 
Q 3047 1584 2836 1778 
Q 2625 1972 2144 2069 
L 1759 2144 
Q 1053 2284 737 2584 
Q 422 2884 422 3419 
Q 422 4038 858 4394 
Q 1294 4750 2059 4750 
Q 2388 4750 2728 4690 
Q 3069 4631 3425 4513 
z
" transform="scale(0.015625)"/>
       <path id="DejaVuSans-45" d="M 628 4666 
L 3578 4666 
L 3578 4134 
L 1259 4134 
L 1259 2753 
L 3481 2753 
L 3481 2222 
L 1259 2222 
L 1259 531 
L 3634 531 
L 3634 0 
L 628 0 
L 628 4666 
z
" transform="scale(0.015625)"/>
      </defs>
      <use xlink:href="#DejaVuSans-53"/>
      <use xlink:href="#DejaVuSans-74" transform="translate(63.476562 0)"/>
      <use xlink:href="#DejaVuSans-64" transform="translate(102.685547 0)"/>
      <use xlink:href="#DejaVuSans-20" transform="translate(166.162109 0)"/>
      <use xlink:href="#DejaVuSans-45" transform="translate(197.949219 0)"/>
      <use xlink:href="#DejaVuSans-72" transform="translate(261.132812 0)"/>
      <use xlink:href="#DejaVuSans-72" transform="translate(300.496094 0)"/>
     </g>
    </g>
   </g>
  </g>
 </g>
 <defs>
  <clipPath id="p6869af6fa8">
   <rect x="50.410938" y="7.2" width="357.12" height="266.112"/>
  </clipPath>
 </defs>
</svg>
