<?xml version="1.0" encoding="utf-8" standalone="no"?>
<!DOCTYPE svg PUBLIC "-//W3C//DTD SVG 1.1//EN"
  "http://www.w3.org/Graphics/SVG/1.1/DTD/svg11.dtd">
<svg xmlns:xlink="http://www.w3.org/1999/xlink" width="408.379375pt" height="311.190125pt" viewBox="0 0 408.379375 311.190125" xmlns="http://www.w3.org/2000/svg" version="1.1">
 <metadata>
  <rdf:RDF xmlns:dc="http://purl.org/dc/elements/1.1/" xmlns:cc="http://creativecommons.org/ns#" xmlns:rdf="http://www.w3.org/1999/02/22-rdf-syntax-ns#">
   <cc:Work>
    <dc:type rdf:resource="http://purl.org/dc/dcmitype/StillImage"/>
    <dc:date>2025-12-11T14:40:29.853706</dc:date>
    <dc:format>image/svg+xml</dc:format>
    <dc:creator>
     <cc:Agent>
      <dc:title>Matplotlib v3.10.5, https://matplotlib.org/</dc:title>
     </cc:Agent>
    </dc:creator>
   </cc:Work>
  </rdf:RDF>
 </metadata>
 <defs>
  <style type="text/css">*{stroke-linejoin: round; stroke-linecap: butt}</style>
 </defs>
 <g id="figure_1">
  <g id="patch_1">
   <path d="M 0 311.190125 
L 408.379375 311.190125 
L 408.379375 0 
L 0 0 
z
" style="fill: #ffffff"/>
  </g>
  <g id="axes_1">
   <g id="patch_2">
    <path d="M 44.059375 273.312 
L 401.179375 273.312 
L 401.179375 7.2 
L 44.059375 7.2 
z
" style="fill: #ffffff"/>
   </g>
   <g id="FillBetweenPolyCollection_1">
    <defs>
     <path id="mdee09d6560" d="M 60.292102 -215.836698 
L 60.292102 -160.70912 
L 66.944997 -96.547755 
L 76.353611 -189.519299 
L 80.145219 -49.974125 
L 89.659401 -74.209658 
L 92.41512 -155.376692 
L 95.021544 -69.643217 
L 102.141187 -128.493577 
L 108.476629 -142.978625 
L 110.453891 -139.021828 
L 112.373804 -113.255129 
L 116.059845 -197.090852 
L 124.538137 -202.029493 
L 126.12854 -202.030679 
L 130.724465 -182.717682 
L 135.088208 -214.213215 
L 137.884479 -230.9848 
L 140.599646 -169.494875 
L 141.928938 -263.925174 
L 145.812494 -219.184266 
L 147.07443 -204.454254 
L 151.97447 -209.462573 
L 156.661155 -202.489323 
L 157.802612 -218.897089 
L 160.051781 -241.111761 
L 161.160143 -216.854391 
L 166.5514 -207.738313 
L 169.674987 -199.121958 
L 172.722664 -195.593147 
L 173.722617 -202.306155 
L 176.677188 -204.136904 
L 180.517015 -206.58172 
L 181.460185 -204.248874 
L 182.396917 -179.700051 
L 187.889096 -165.148371 
L 188.784173 -186.85167 
L 189.673742 -189.714635 
L 192.310388 -177.09371 
L 195.754565 -185.695136 
L 196.603445 -185.123883 
L 202.41811 -209.853384 
L 203.231419 -159.160968 
L 204.845682 -168.40771 
L 205.646759 -158.142717 
L 208.026487 -185.642896 
L 209.593948 -142.28882 
L 211.917669 -170.598061 
L 214.966774 -172.545312 
L 217.218338 -193.53192 
L 217.962374 -183.053163 
L 220.907191 -183.144615 
L 221.635757 -213.612173 
L 223.803721 -210.381935 
L 225.945822 -150.385582 
L 227.35997 -204.502188 
L 231.538364 -229.105148 
L 232.225734 -173.948305 
L 236.968699 -171.90029 
L 237.636771 -222.510958 
L 238.302543 -197.758202 
L 239.627282 -200.128894 
L 240.286294 -182.766825 
L 242.900486 -208.591149 
L 245.480722 -208.240243 
L 247.394396 -230.859612 
L 248.660226 -223.834897 
L 249.918266 -225.817235 
L 253.030208 -209.452251 
L 253.647047 -204.765907 
L 255.486759 -203.925309 
L 258.517849 -193.850841 
L 259.718347 -207.845287 
L 260.316095 -213.145689 
L 262.690732 -209.686326 
L 267.364205 -214.937857 
L 267.941525 -174.327702 
L 269.091717 -202.556976 
L 269.664612 -219.826594 
L 271.37463 -221.055065 
L 272.507525 -230.312113 
L 274.196403 -198.512965 
L 275.872968 -211.314055 
L 278.089692 -226.086501 
L 281.375929 -157.196687 
L 283.002088 -217.864 
L 285.153226 -215.948559 
L 285.688016 -226.562271 
L 287.285326 -219.549497 
L 288.872207 -228.978701 
L 289.398885 -222.592886 
L 289.924434 -198.46466 
L 293.572262 -194.903662 
L 294.089033 -209.487957 
L 295.119382 -198.644525 
L 295.632972 -215.508308 
L 298.185346 -209.176727 
L 303.214642 -211.613548 
L 303.71221 -193.547323 
L 305.693014 -171.92076 
L 307.658925 -192.239193 
L 310.095871 -183.910294 
L 311.547376 -188.085102 
L 316.803437 -149.176485 
L 317.276244 -211.653912 
L 317.748233 -192.865474 
L 320.56324 -178.702416 
L 325.192249 -208.105218 
L 328.387692 -170.114031 
L 330.197628 -194.458287 
L 333.783562 -211.376292 
L 339.51784 -224.719702 
L 340.390183 -174.87671 
L 342.991928 -199.16304 
L 351.085289 -226.39363 
L 352.762103 -196.659594 
L 362.232244 -217.886565 
L 363.042441 -212.040619 
L 373.785202 -198.637016 
L 384.946648 -188.828978 
L 384.946648 -237.130754 
L 384.946648 -237.130754 
L 373.785202 -237.963671 
L 363.042441 -226.373105 
L 362.232244 -251.711433 
L 352.762103 -229.408517 
L 351.085289 -263.467558 
L 342.991928 -207.394447 
L 340.390183 -183.781741 
L 339.51784 -257.538178 
L 333.783562 -239.304455 
L 330.197628 -239.851643 
L 328.387692 -198.716545 
L 325.192249 -238.349287 
L 320.56324 -217.714741 
L 317.748233 -225.623192 
L 317.276244 -221.677329 
L 316.803437 -201.152676 
L 311.547376 -215.095564 
L 310.095871 -222.820004 
L 307.658925 -207.945137 
L 305.693014 -213.438045 
L 303.71221 -230.148975 
L 303.214642 -227.383745 
L 298.185346 -230.866262 
L 295.632972 -254.894206 
L 295.119382 -232.33973 
L 294.089033 -248.505002 
L 293.572262 -217.809745 
L 289.924434 -230.064417 
L 289.398885 -243.462348 
L 288.872207 -252.833898 
L 287.285326 -257.331892 
L 285.688016 -238.648054 
L 285.153226 -227.920227 
L 283.002088 -230.754951 
L 281.375929 -198.187783 
L 278.089692 -248.294047 
L 275.872968 -243.64501 
L 274.196403 -214.251255 
L 272.507525 -259.433179 
L 271.37463 -230.313354 
L 269.664612 -241.317144 
L 269.091717 -254.423977 
L 267.941525 -223.440094 
L 267.364205 -241.229051 
L 262.690732 -227.817835 
L 260.316095 -238.005911 
L 259.718347 -228.313466 
L 258.517849 -227.3443 
L 255.486759 -228.815508 
L 253.647047 -217.855283 
L 253.030208 -258.019785 
L 249.918266 -248.189428 
L 248.660226 -268.626168 
L 247.394396 -257.250317 
L 245.480722 -255.22579 
L 242.900486 -272.826642 
L 240.286294 -214.551084 
L 239.627282 -216.622372 
L 238.302543 -225.941438 
L 237.636771 -248.469475 
L 236.968699 -194.206759 
L 232.225734 -227.055831 
L 231.538364 -282.427906 
L 227.35997 -218.624841 
L 225.945822 -201.338719 
L 223.803721 -233.048527 
L 221.635757 -258.034483 
L 220.907191 -242.018369 
L 217.962374 -242.10092 
L 217.218338 -229.857826 
L 214.966774 -201.105058 
L 211.917669 -196.424122 
L 209.593948 -170.902028 
L 208.026487 -217.545613 
L 205.646759 -194.564344 
L 204.845682 -193.877277 
L 203.231419 -214.989976 
L 202.41811 -230.49647 
L 196.603445 -225.883559 
L 195.754565 -207.675075 
L 192.310388 -198.038222 
L 189.673742 -227.483942 
L 188.784173 -210.813052 
L 187.889096 -205.913371 
L 182.396917 -219.319523 
L 181.460185 -271.078699 
L 180.517015 -230.162418 
L 176.677188 -280.642517 
L 173.722617 -242.338113 
L 172.722664 -247.433266 
L 169.674987 -275.755844 
L 166.5514 -252.246064 
L 161.160143 -279.489778 
L 160.051781 -291.894125 
L 157.802612 -276.913832 
L 156.661155 -260.114117 
L 151.97447 -274.909629 
L 147.07443 -285.032726 
L 145.812494 -260.88135 
L 141.928938 -286.039251 
L 140.599646 -228.158981 
L 137.884479 -273.827043 
L 135.088208 -282.654505 
L 130.724465 -249.362519 
L 126.12854 -264.16759 
L 124.538137 -244.442707 
L 116.059845 -253.043049 
L 112.373804 -207.820014 
L 110.453891 -209.076212 
L 108.476629 -174.364628 
L 102.141187 -171.332677 
L 95.021544 -119.172889 
L 92.41512 -198.794016 
L 89.659401 -190.238534 
L 80.145219 -90.826888 
L 76.353611 -245.222511 
L 66.944997 -159.499332 
L 60.292102 -215.836698 
z
" style="stroke: #ff7f0e; stroke-opacity: 0.3"/>
    </defs>
    <g clip-path="url(#p4d8959b1f6)">
     <use xlink:href="#mdee09d6560" x="0" y="311.190125" style="fill: #ff7f0e; fill-opacity: 0.3; stroke: #ff7f0e; stroke-opacity: 0.3"/>
    </g>
   </g>
   <g id="matplotlib.axis_1">
    <g id="xtick_1">
     <g id="line2d_1">
      <defs>
       <path id="m4e28749c64" d="M 0 0 
L 0 3.5 
" style="stroke: #000000; stroke-width: 0.8"/>
      </defs>
      <g>
       <use xlink:href="#m4e28749c64" x="44.230593" y="273.312" style="stroke: #000000; stroke-width: 0.8"/>
      </g>
     </g>
     <g id="text_1">
      <!-- 0.0 -->
      <g transform="translate(36.279031 287.910437) scale(0.1 -0.1)">
       <defs>
        <path id="DejaVuSans-30" d="M 2034 4250 
Q 1547 4250 1301 3770 
Q 1056 3291 1056 2328 
Q 1056 1369 1301 889 
Q 1547 409 2034 409 
Q 2525 409 2770 889 
Q 3016 1369 3016 2328 
Q 3016 3291 2770 3770 
Q 2525 4250 2034 4250 
z
M 2034 4750 
Q 2819 4750 3233 4129 
Q 3647 3509 3647 2328 
Q 3647 1150 3233 529 
Q 2819 -91 2034 -91 
Q 1250 -91 836 529 
Q 422 1150 422 2328 
Q 422 3509 836 4129 
Q 1250 4750 2034 4750 
z
" transform="scale(0.015625)"/>
        <path id="DejaVuSans-2e" d="M 684 794 
L 1344 794 
L 1344 0 
L 684 0 
L 684 794 
z
" transform="scale(0.015625)"/>
       </defs>
       <use xlink:href="#DejaVuSans-30"/>
       <use xlink:href="#DejaVuSans-2e" transform="translate(63.623047 0)"/>
       <use xlink:href="#DejaVuSans-30" transform="translate(95.410156 0)"/>
      </g>
     </g>
    </g>
    <g id="xtick_2">
     <g id="line2d_2">
      <g>
       <use xlink:href="#m4e28749c64" x="89.732173" y="273.312" style="stroke: #000000; stroke-width: 0.8"/>
      </g>
     </g>
     <g id="text_2">
      <!-- 2.5 -->
      <g transform="translate(81.780611 287.910437) scale(0.1 -0.1)">
       <defs>
        <path id="DejaVuSans-32" d="M 1228 531 
L 3431 531 
L 3431 0 
L 469 0 
L 469 531 
Q 828 903 1448 1529 
Q 2069 2156 2228 2338 
Q 2531 2678 2651 2914 
Q 2772 3150 2772 3378 
Q 2772 3750 2511 3984 
Q 2250 4219 1831 4219 
Q 1534 4219 1204 4116 
Q 875 4013 500 3803 
L 500 4441 
Q 881 4594 1212 4672 
Q 1544 4750 1819 4750 
Q 2544 4750 2975 4387 
Q 3406 4025 3406 3419 
Q 3406 3131 3298 2873 
Q 3191 2616 2906 2266 
Q 2828 2175 2409 1742 
Q 1991 1309 1228 531 
z
" transform="scale(0.015625)"/>
        <path id="DejaVuSans-35" d="M 691 4666 
L 3169 4666 
L 3169 4134 
L 1269 4134 
L 1269 2991 
Q 1406 3038 1543 3061 
Q 1681 3084 1819 3084 
Q 2600 3084 3056 2656 
Q 3513 2228 3513 1497 
Q 3513 744 3044 326 
Q 2575 -91 1722 -91 
Q 1428 -91 1123 -41 
Q 819 9 494 109 
L 494 744 
Q 775 591 1075 516 
Q 1375 441 1709 441 
Q 2250 441 2565 725 
Q 2881 1009 2881 1497 
Q 2881 1984 2565 2268 
Q 2250 2553 1709 2553 
Q 1456 2553 1204 2497 
Q 953 2441 691 2322 
L 691 4666 
z
" transform="scale(0.015625)"/>
       </defs>
       <use xlink:href="#DejaVuSans-32"/>
       <use xlink:href="#DejaVuSans-2e" transform="translate(63.623047 0)"/>
       <use xlink:href="#DejaVuSans-35" transform="translate(95.410156 0)"/>
      </g>
     </g>
    </g>
    <g id="xtick_3">
     <g id="line2d_3">
      <g>
       <use xlink:href="#m4e28749c64" x="135.233753" y="273.312" style="stroke: #000000; stroke-width: 0.8"/>
      </g>
     </g>
     <g id="text_3">
      <!-- 5.0 -->
      <g transform="translate(127.28219 287.910437) scale(0.1 -0.1)">
       <use xlink:href="#DejaVuSans-35"/>
       <use xlink:href="#DejaVuSans-2e" transform="translate(63.623047 0)"/>
       <use xlink:href="#DejaVuSans-30" transform="translate(95.410156 0)"/>
      </g>
     </g>
    </g>
    <g id="xtick_4">
     <g id="line2d_4">
      <g>
       <use xlink:href="#m4e28749c64" x="180.735333" y="273.312" style="stroke: #000000; stroke-width: 0.8"/>
      </g>
     </g>
     <g id="text_4">
      <!-- 7.5 -->
      <g transform="translate(172.78377 287.910437) scale(0.1 -0.1)">
       <defs>
        <path id="DejaVuSans-37" d="M 525 4666 
L 3525 4666 
L 3525 4397 
L 1831 0 
L 1172 0 
L 2766 4134 
L 525 4134 
L 525 4666 
z
" transform="scale(0.015625)"/>
       </defs>
       <use xlink:href="#DejaVuSans-37"/>
       <use xlink:href="#DejaVuSans-2e" transform="translate(63.623047 0)"/>
       <use xlink:href="#DejaVuSans-35" transform="translate(95.410156 0)"/>
      </g>
     </g>
    </g>
    <g id="xtick_5">
     <g id="line2d_5">
      <g>
       <use xlink:href="#m4e28749c64" x="226.236912" y="273.312" style="stroke: #000000; stroke-width: 0.8"/>
      </g>
     </g>
     <g id="text_5">
      <!-- 10.0 -->
      <g transform="translate(215.1041 287.910437) scale(0.1 -0.1)">
       <defs>
        <path id="DejaVuSans-31" d="M 794 531 
L 1825 531 
L 1825 4091 
L 703 3866 
L 703 4441 
L 1819 4666 
L 2450 4666 
L 2450 531 
L 3481 531 
L 3481 0 
L 794 0 
L 794 531 
z
" transform="scale(0.015625)"/>
       </defs>
       <use xlink:href="#DejaVuSans-31"/>
       <use xlink:href="#DejaVuSans-30" transform="translate(63.623047 0)"/>
       <use xlink:href="#DejaVuSans-2e" transform="translate(127.246094 0)"/>
       <use xlink:href="#DejaVuSans-30" transform="translate(159.033203 0)"/>
      </g>
     </g>
    </g>
    <g id="xtick_6">
     <g id="line2d_6">
      <g>
       <use xlink:href="#m4e28749c64" x="271.738492" y="273.312" style="stroke: #000000; stroke-width: 0.8"/>
      </g>
     </g>
     <g id="text_6">
      <!-- 12.5 -->
      <g transform="translate(260.60568 287.910437) scale(0.1 -0.1)">
       <use xlink:href="#DejaVuSans-31"/>
       <use xlink:href="#DejaVuSans-32" transform="translate(63.623047 0)"/>
       <use xlink:href="#DejaVuSans-2e" transform="translate(127.246094 0)"/>
       <use xlink:href="#DejaVuSans-35" transform="translate(159.033203 0)"/>
      </g>
     </g>
    </g>
    <g id="xtick_7">
     <g id="line2d_7">
      <g>
       <use xlink:href="#m4e28749c64" x="317.240072" y="273.312" style="stroke: #000000; stroke-width: 0.8"/>
      </g>
     </g>
     <g id="text_7">
      <!-- 15.0 -->
      <g transform="translate(306.107259 287.910437) scale(0.1 -0.1)">
       <use xlink:href="#DejaVuSans-31"/>
       <use xlink:href="#DejaVuSans-35" transform="translate(63.623047 0)"/>
       <use xlink:href="#DejaVuSans-2e" transform="translate(127.246094 0)"/>
       <use xlink:href="#DejaVuSans-30" transform="translate(159.033203 0)"/>
      </g>
     </g>
    </g>
    <g id="xtick_8">
     <g id="line2d_8">
      <g>
       <use xlink:href="#m4e28749c64" x="362.741651" y="273.312" style="stroke: #000000; stroke-width: 0.8"/>
      </g>
     </g>
     <g id="text_8">
      <!-- 17.5 -->
      <g transform="translate(351.608839 287.910437) scale(0.1 -0.1)">
       <use xlink:href="#DejaVuSans-31"/>
       <use xlink:href="#DejaVuSans-37" transform="translate(63.623047 0)"/>
       <use xlink:href="#DejaVuSans-2e" transform="translate(127.246094 0)"/>
       <use xlink:href="#DejaVuSans-35" transform="translate(159.033203 0)"/>
      </g>
     </g>
    </g>
    <g id="text_9">
     <!-- |k_xy| (reduced units) -->
     <g transform="translate(168.202969 301.632312) scale(0.1 -0.1)">
      <defs>
       <path id="DejaVuSans-7c" d="M 1344 4891 
L 1344 -1509 
L 813 -1509 
L 813 4891 
L 1344 4891 
z
" transform="scale(0.015625)"/>
       <path id="DejaVuSans-6b" d="M 581 4863 
L 1159 4863 
L 1159 1991 
L 2875 3500 
L 3609 3500 
L 1753 1863 
L 3688 0 
L 2938 0 
L 1159 1709 
L 1159 0 
L 581 0 
L 581 4863 
z
" transform="scale(0.015625)"/>
       <path id="DejaVuSans-5f" d="M 3263 -1063 
L 3263 -1509 
L -63 -1509 
L -63 -1063 
L 3263 -1063 
z
" transform="scale(0.015625)"/>
       <path id="DejaVuSans-78" d="M 3513 3500 
L 2247 1797 
L 3578 0 
L 2900 0 
L 1881 1375 
L 863 0 
L 184 0 
L 1544 1831 
L 300 3500 
L 978 3500 
L 1906 2253 
L 2834 3500 
L 3513 3500 
z
" transform="scale(0.015625)"/>
       <path id="DejaVuSans-79" d="M 2059 -325 
Q 1816 -950 1584 -1140 
Q 1353 -1331 966 -1331 
L 506 -1331 
L 506 -850 
L 844 -850 
Q 1081 -850 1212 -737 
Q 1344 -625 1503 -206 
L 1606 56 
L 191 3500 
L 800 3500 
L 1894 763 
L 2988 3500 
L 3597 3500 
L 2059 -325 
z
" transform="scale(0.015625)"/>
       <path id="DejaVuSans-20" transform="scale(0.015625)"/>
       <path id="DejaVuSans-28" d="M 1984 4856 
Q 1566 4138 1362 3434 
Q 1159 2731 1159 2009 
Q 1159 1288 1364 580 
Q 1569 -128 1984 -844 
L 1484 -844 
Q 1016 -109 783 600 
Q 550 1309 550 2009 
Q 550 2706 781 3412 
Q 1013 4119 1484 4856 
L 1984 4856 
z
" transform="scale(0.015625)"/>
       <path id="DejaVuSans-72" d="M 2631 2963 
Q 2534 3019 2420 3045 
Q 2306 3072 2169 3072 
Q 1681 3072 1420 2755 
Q 1159 2438 1159 1844 
L 1159 0 
L 581 0 
L 581 3500 
L 1159 3500 
L 1159 2956 
Q 1341 3275 1631 3429 
Q 1922 3584 2338 3584 
Q 2397 3584 2469 3576 
Q 2541 3569 2628 3553 
L 2631 2963 
z
" transform="scale(0.015625)"/>
       <path id="DejaVuSans-65" d="M 3597 1894 
L 3597 1613 
L 953 1613 
Q 991 1019 1311 708 
Q 1631 397 2203 397 
Q 2534 397 2845 478 
Q 3156 559 3463 722 
L 3463 178 
Q 3153 47 2828 -22 
Q 2503 -91 2169 -91 
Q 1331 -91 842 396 
Q 353 884 353 1716 
Q 353 2575 817 3079 
Q 1281 3584 2069 3584 
Q 2775 3584 3186 3129 
Q 3597 2675 3597 1894 
z
M 3022 2063 
Q 3016 2534 2758 2815 
Q 2500 3097 2075 3097 
Q 1594 3097 1305 2825 
Q 1016 2553 972 2059 
L 3022 2063 
z
" transform="scale(0.015625)"/>
       <path id="DejaVuSans-64" d="M 2906 2969 
L 2906 4863 
L 3481 4863 
L 3481 0 
L 2906 0 
L 2906 525 
Q 2725 213 2448 61 
Q 2172 -91 1784 -91 
Q 1150 -91 751 415 
Q 353 922 353 1747 
Q 353 2572 751 3078 
Q 1150 3584 1784 3584 
Q 2172 3584 2448 3432 
Q 2725 3281 2906 2969 
z
M 947 1747 
Q 947 1113 1208 752 
Q 1469 391 1925 391 
Q 2381 391 2643 752 
Q 2906 1113 2906 1747 
Q 2906 2381 2643 2742 
Q 2381 3103 1925 3103 
Q 1469 3103 1208 2742 
Q 947 2381 947 1747 
z
" transform="scale(0.015625)"/>
       <path id="DejaVuSans-75" d="M 544 1381 
L 544 3500 
L 1119 3500 
L 1119 1403 
Q 1119 906 1312 657 
Q 1506 409 1894 409 
Q 2359 409 2629 706 
Q 2900 1003 2900 1516 
L 2900 3500 
L 3475 3500 
L 3475 0 
L 2900 0 
L 2900 538 
Q 2691 219 2414 64 
Q 2138 -91 1772 -91 
Q 1169 -91 856 284 
Q 544 659 544 1381 
z
M 1991 3584 
L 1991 3584 
z
" transform="scale(0.015625)"/>
       <path id="DejaVuSans-63" d="M 3122 3366 
L 3122 2828 
Q 2878 2963 2633 3030 
Q 2388 3097 2138 3097 
Q 1578 3097 1268 2742 
Q 959 2388 959 1747 
Q 959 1106 1268 751 
Q 1578 397 2138 397 
Q 2388 397 2633 464 
Q 2878 531 3122 666 
L 3122 134 
Q 2881 22 2623 -34 
Q 2366 -91 2075 -91 
Q 1284 -91 818 406 
Q 353 903 353 1747 
Q 353 2603 823 3093 
Q 1294 3584 2113 3584 
Q 2378 3584 2631 3529 
Q 2884 3475 3122 3366 
z
" transform="scale(0.015625)"/>
       <path id="DejaVuSans-6e" d="M 3513 2113 
L 3513 0 
L 2938 0 
L 2938 2094 
Q 2938 2591 2744 2837 
Q 2550 3084 2163 3084 
Q 1697 3084 1428 2787 
Q 1159 2491 1159 1978 
L 1159 0 
L 581 0 
L 581 3500 
L 1159 3500 
L 1159 2956 
Q 1366 3272 1645 3428 
Q 1925 3584 2291 3584 
Q 2894 3584 3203 3211 
Q 3513 2838 3513 2113 
z
" transform="scale(0.015625)"/>
       <path id="DejaVuSans-69" d="M 603 3500 
L 1178 3500 
L 1178 0 
L 603 0 
L 603 3500 
z
M 603 4863 
L 1178 4863 
L 1178 4134 
L 603 4134 
L 603 4863 
z
" transform="scale(0.015625)"/>
       <path id="DejaVuSans-74" d="M 1172 4494 
L 1172 3500 
L 2356 3500 
L 2356 3053 
L 1172 3053 
L 1172 1153 
Q 1172 725 1289 603 
Q 1406 481 1766 481 
L 2356 481 
L 2356 0 
L 1766 0 
Q 1100 0 847 248 
Q 594 497 594 1153 
L 594 3053 
L 172 3053 
L 172 3500 
L 594 3500 
L 594 4494 
L 1172 4494 
z
" transform="scale(0.015625)"/>
       <path id="DejaVuSans-73" d="M 2834 3397 
L 2834 2853 
Q 2591 2978 2328 3040 
Q 2066 3103 1784 3103 
Q 1356 3103 1142 2972 
Q 928 2841 928 2578 
Q 928 2378 1081 2264 
Q 1234 2150 1697 2047 
L 1894 2003 
Q 2506 1872 2764 1633 
Q 3022 1394 3022 966 
Q 3022 478 2636 193 
Q 2250 -91 1575 -91 
Q 1294 -91 989 -36 
Q 684 19 347 128 
L 347 722 
Q 666 556 975 473 
Q 1284 391 1588 391 
Q 1994 391 2212 530 
Q 2431 669 2431 922 
Q 2431 1156 2273 1281 
Q 2116 1406 1581 1522 
L 1381 1569 
Q 847 1681 609 1914 
Q 372 2147 372 2553 
Q 372 3047 722 3315 
Q 1072 3584 1716 3584 
Q 2034 3584 2315 3537 
Q 2597 3491 2834 3397 
z
" transform="scale(0.015625)"/>
       <path id="DejaVuSans-29" d="M 513 4856 
L 1013 4856 
Q 1481 4119 1714 3412 
Q 1947 2706 1947 2009 
Q 1947 1309 1714 600 
Q 1481 -109 1013 -844 
L 513 -844 
Q 928 -128 1133 580 
Q 1338 1288 1338 2009 
Q 1338 2731 1133 3434 
Q 928 4138 513 4856 
z
" transform="scale(0.015625)"/>
      </defs>
      <use xlink:href="#DejaVuSans-7c"/>
      <use xlink:href="#DejaVuSans-6b" transform="translate(33.691406 0)"/>
      <use xlink:href="#DejaVuSans-5f" transform="translate(91.601562 0)"/>
      <use xlink:href="#DejaVuSans-78" transform="translate(141.601562 0)"/>
      <use xlink:href="#DejaVuSans-79" transform="translate(200.78125 0)"/>
      <use xlink:href="#DejaVuSans-7c" transform="translate(259.960938 0)"/>
      <use xlink:href="#DejaVuSans-20" transform="translate(293.652344 0)"/>
      <use xlink:href="#DejaVuSans-28" transform="translate(325.439453 0)"/>
      <use xlink:href="#DejaVuSans-72" transform="translate(364.453125 0)"/>
      <use xlink:href="#DejaVuSans-65" transform="translate(403.316406 0)"/>
      <use xlink:href="#DejaVuSans-64" transform="translate(464.839844 0)"/>
      <use xlink:href="#DejaVuSans-75" transform="translate(528.316406 0)"/>
      <use xlink:href="#DejaVuSans-63" transform="translate(591.695312 0)"/>
      <use xlink:href="#DejaVuSans-65" transform="translate(646.675781 0)"/>
      <use xlink:href="#DejaVuSans-64" transform="translate(708.199219 0)"/>
      <use xlink:href="#DejaVuSans-20" transform="translate(771.675781 0)"/>
      <use xlink:href="#DejaVuSans-75" transform="translate(803.462891 0)"/>
      <use xlink:href="#DejaVuSans-6e" transform="translate(866.841797 0)"/>
      <use xlink:href="#DejaVuSans-69" transform="translate(930.220703 0)"/>
      <use xlink:href="#DejaVuSans-74" transform="translate(958.003906 0)"/>
      <use xlink:href="#DejaVuSans-73" transform="translate(997.212891 0)"/>
      <use xlink:href="#DejaVuSans-29" transform="translate(1049.3125 0)"/>
     </g>
    </g>
   </g>
   <g id="matplotlib.axis_2">
    <g id="ytick_1">
     <g id="line2d_9">
      <defs>
       <path id="mfcfde44f7f" d="M 0 0 
L -3.5 0 
" style="stroke: #000000; stroke-width: 0.8"/>
      </defs>
      <g>
       <use xlink:href="#mfcfde44f7f" x="44.059375" y="246.534884" style="stroke: #000000; stroke-width: 0.8"/>
      </g>
     </g>
     <g id="text_10">
      <!-- 0.7 -->
      <g transform="translate(21.15625 250.334103) scale(0.1 -0.1)">
       <use xlink:href="#DejaVuSans-30"/>
       <use xlink:href="#DejaVuSans-2e" transform="translate(63.623047 0)"/>
       <use xlink:href="#DejaVuSans-37" transform="translate(95.410156 0)"/>
      </g>
     </g>
    </g>
    <g id="ytick_2">
     <g id="line2d_10">
      <g>
       <use xlink:href="#mfcfde44f7f" x="44.059375" y="196.611208" style="stroke: #000000; stroke-width: 0.8"/>
      </g>
     </g>
     <g id="text_11">
      <!-- 0.8 -->
      <g transform="translate(21.15625 200.410426) scale(0.1 -0.1)">
       <defs>
        <path id="DejaVuSans-38" d="M 2034 2216 
Q 1584 2216 1326 1975 
Q 1069 1734 1069 1313 
Q 1069 891 1326 650 
Q 1584 409 2034 409 
Q 2484 409 2743 651 
Q 3003 894 3003 1313 
Q 3003 1734 2745 1975 
Q 2488 2216 2034 2216 
z
M 1403 2484 
Q 997 2584 770 2862 
Q 544 3141 544 3541 
Q 544 4100 942 4425 
Q 1341 4750 2034 4750 
Q 2731 4750 3128 4425 
Q 3525 4100 3525 3541 
Q 3525 3141 3298 2862 
Q 3072 2584 2669 2484 
Q 3125 2378 3379 2068 
Q 3634 1759 3634 1313 
Q 3634 634 3220 271 
Q 2806 -91 2034 -91 
Q 1263 -91 848 271 
Q 434 634 434 1313 
Q 434 1759 690 2068 
Q 947 2378 1403 2484 
z
M 1172 3481 
Q 1172 3119 1398 2916 
Q 1625 2713 2034 2713 
Q 2441 2713 2670 2916 
Q 2900 3119 2900 3481 
Q 2900 3844 2670 4047 
Q 2441 4250 2034 4250 
Q 1625 4250 1398 4047 
Q 1172 3844 1172 3481 
z
" transform="scale(0.015625)"/>
       </defs>
       <use xlink:href="#DejaVuSans-30"/>
       <use xlink:href="#DejaVuSans-2e" transform="translate(63.623047 0)"/>
       <use xlink:href="#DejaVuSans-38" transform="translate(95.410156 0)"/>
      </g>
     </g>
    </g>
    <g id="ytick_3">
     <g id="line2d_11">
      <g>
       <use xlink:href="#mfcfde44f7f" x="44.059375" y="146.687531" style="stroke: #000000; stroke-width: 0.8"/>
      </g>
     </g>
     <g id="text_12">
      <!-- 0.9 -->
      <g transform="translate(21.15625 150.486749) scale(0.1 -0.1)">
       <defs>
        <path id="DejaVuSans-39" d="M 703 97 
L 703 672 
Q 941 559 1184 500 
Q 1428 441 1663 441 
Q 2288 441 2617 861 
Q 2947 1281 2994 2138 
Q 2813 1869 2534 1725 
Q 2256 1581 1919 1581 
Q 1219 1581 811 2004 
Q 403 2428 403 3163 
Q 403 3881 828 4315 
Q 1253 4750 1959 4750 
Q 2769 4750 3195 4129 
Q 3622 3509 3622 2328 
Q 3622 1225 3098 567 
Q 2575 -91 1691 -91 
Q 1453 -91 1209 -44 
Q 966 3 703 97 
z
M 1959 2075 
Q 2384 2075 2632 2365 
Q 2881 2656 2881 3163 
Q 2881 3666 2632 3958 
Q 2384 4250 1959 4250 
Q 1534 4250 1286 3958 
Q 1038 3666 1038 3163 
Q 1038 2656 1286 2365 
Q 1534 2075 1959 2075 
z
" transform="scale(0.015625)"/>
       </defs>
       <use xlink:href="#DejaVuSans-30"/>
       <use xlink:href="#DejaVuSans-2e" transform="translate(63.623047 0)"/>
       <use xlink:href="#DejaVuSans-39" transform="translate(95.410156 0)"/>
      </g>
     </g>
    </g>
    <g id="ytick_4">
     <g id="line2d_12">
      <g>
       <use xlink:href="#mfcfde44f7f" x="44.059375" y="96.763854" style="stroke: #000000; stroke-width: 0.8"/>
      </g>
     </g>
     <g id="text_13">
      <!-- 1.0 -->
      <g transform="translate(21.15625 100.563073) scale(0.1 -0.1)">
       <use xlink:href="#DejaVuSans-31"/>
       <use xlink:href="#DejaVuSans-2e" transform="translate(63.623047 0)"/>
       <use xlink:href="#DejaVuSans-30" transform="translate(95.410156 0)"/>
      </g>
     </g>
    </g>
    <g id="ytick_5">
     <g id="line2d_13">
      <g>
       <use xlink:href="#mfcfde44f7f" x="44.059375" y="46.840177" style="stroke: #000000; stroke-width: 0.8"/>
      </g>
     </g>
     <g id="text_14">
      <!-- 1.1 -->
      <g transform="translate(21.15625 50.639396) scale(0.1 -0.1)">
       <use xlink:href="#DejaVuSans-31"/>
       <use xlink:href="#DejaVuSans-2e" transform="translate(63.623047 0)"/>
       <use xlink:href="#DejaVuSans-31" transform="translate(95.410156 0)"/>
      </g>
     </g>
    </g>
    <g id="text_15">
     <!-- S_xy(k) -->
     <g transform="translate(14.798437 158.645844) rotate(-90) scale(0.1 -0.1)">
      <defs>
       <path id="DejaVuSans-53" d="M 3425 4513 
L 3425 3897 
Q 3066 4069 2747 4153 
Q 2428 4238 2131 4238 
Q 1616 4238 1336 4038 
Q 1056 3838 1056 3469 
Q 1056 3159 1242 3001 
Q 1428 2844 1947 2747 
L 2328 2669 
Q 3034 2534 3370 2195 
Q 3706 1856 3706 1288 
Q 3706 609 3251 259 
Q 2797 -91 1919 -91 
Q 1588 -91 1214 -16 
Q 841 59 441 206 
L 441 856 
Q 825 641 1194 531 
Q 1563 422 1919 422 
Q 2459 422 2753 634 
Q 3047 847 3047 1241 
Q 3047 1584 2836 1778 
Q 2625 1972 2144 2069 
L 1759 2144 
Q 1053 2284 737 2584 
Q 422 2884 422 3419 
Q 422 4038 858 4394 
Q 1294 4750 2059 4750 
Q 2388 4750 2728 4690 
Q 3069 4631 3425 4513 
z
" transform="scale(0.015625)"/>
      </defs>
      <use xlink:href="#DejaVuSans-53"/>
      <use xlink:href="#DejaVuSans-5f" transform="translate(63.476562 0)"/>
      <use xlink:href="#DejaVuSans-78" transform="translate(113.476562 0)"/>
      <use xlink:href="#DejaVuSans-79" transform="translate(172.65625 0)"/>
      <use xlink:href="#DejaVuSans-28" transform="translate(231.835938 0)"/>
      <use xlink:href="#DejaVuSans-6b" transform="translate(270.849609 0)"/>
      <use xlink:href="#DejaVuSans-29" transform="translate(328.759766 0)"/>
     </g>
    </g>
   </g>
   <g id="line2d_14">
    <path d="M 60.292102 122.917216 
L 66.944997 183.166582 
L 76.353611 93.81922 
L 80.145219 240.789619 
L 89.659401 178.966029 
L 92.41512 134.104771 
L 95.021544 216.782072 
L 102.141187 161.276998 
L 108.476629 152.518499 
L 110.453891 137.141105 
L 112.373804 150.652554 
L 116.059845 86.123175 
L 124.538137 87.954025 
L 126.12854 78.090991 
L 130.724465 95.150025 
L 135.088208 62.756265 
L 137.884479 58.784204 
L 140.599646 112.363197 
L 141.928938 36.207913 
L 145.812494 71.157317 
L 147.07443 66.446635 
L 151.97447 69.004024 
L 156.661155 79.888405 
L 157.802612 63.284664 
L 160.051781 44.687182 
L 161.160143 63.018041 
L 166.5514 81.197937 
L 169.674987 73.751224 
L 172.722664 89.676919 
L 173.722617 88.867991 
L 176.677188 68.800415 
L 180.517015 92.818056 
L 181.460185 73.526339 
L 182.396917 111.680338 
L 187.889096 125.659254 
L 188.784173 112.357764 
L 189.673742 102.590837 
L 192.310388 123.624159 
L 195.754565 114.50502 
L 196.603445 105.686404 
L 202.41811 91.015198 
L 203.231419 124.114653 
L 204.845682 130.047632 
L 205.646759 134.836595 
L 208.026487 109.595871 
L 209.593948 154.594701 
L 211.917669 127.679034 
L 214.966774 124.36494 
L 217.218338 99.495252 
L 217.962374 98.613083 
L 220.907191 98.608633 
L 221.635757 75.366797 
L 223.803721 89.474894 
L 225.945822 135.327975 
L 227.35997 99.62661 
L 231.538364 55.423598 
L 232.225734 110.688057 
L 236.968699 128.136601 
L 237.636771 75.699909 
L 238.302543 99.340305 
L 239.627282 102.814492 
L 240.286294 112.53117 
L 242.900486 70.48123 
L 245.480722 79.457109 
L 247.394396 67.13516 
L 248.660226 64.959593 
L 249.918266 74.186793 
L 253.030208 77.454107 
L 253.647047 99.87953 
L 255.486759 94.819716 
L 258.517849 100.592555 
L 259.718347 93.110749 
L 260.316095 85.614325 
L 262.690732 92.438044 
L 267.364205 83.106671 
L 267.941525 112.306227 
L 269.091717 82.699649 
L 269.664612 80.618256 
L 271.37463 85.505916 
L 272.507525 66.317479 
L 274.196403 104.808015 
L 275.872968 83.710592 
L 278.089692 73.999851 
L 281.375929 133.49789 
L 283.002088 86.880649 
L 285.153226 89.255732 
L 285.688016 78.584962 
L 287.285326 72.74943 
L 288.872207 70.283825 
L 289.398885 78.162508 
L 289.924434 96.925587 
L 293.572262 104.833421 
L 294.089033 82.193645 
L 295.119382 95.697998 
L 295.632972 75.988868 
L 298.185346 91.16863 
L 303.214642 91.691478 
L 303.71221 99.341976 
L 305.693014 118.510723 
L 307.658925 111.09796 
L 310.095871 107.824976 
L 311.547376 109.599792 
L 316.803437 136.025545 
L 317.276244 94.524505 
L 317.748233 101.945792 
L 320.56324 112.981546 
L 325.192249 87.962873 
L 328.387692 126.774837 
L 330.197628 94.03516 
L 333.783562 85.849751 
L 339.51784 70.061185 
L 340.390183 131.860899 
L 342.991928 107.911381 
L 351.085289 66.259531 
L 352.762103 98.15607 
L 362.232244 76.391126 
L 363.042441 91.983263 
L 373.785202 92.889781 
L 384.946648 98.210259 
" clip-path="url(#p4d8959b1f6)" style="fill: none; stroke: #ff7f0e; stroke-width: 1.5; stroke-linecap: square"/>
   </g>
   <g id="line2d_15">
    <path d="M 44.059375 96.763854 
L 401.179375 96.763854 
" clip-path="url(#p4d8959b1f6)" style="fill: none; stroke-dasharray: 5.55,2.4; stroke-dashoffset: 0; stroke: #000000; stroke-opacity: 0.4; stroke-width: 1.5"/>
   </g>
   <g id="patch_3">
    <path d="M 44.059375 273.312 
L 44.059375 7.2 
" style="fill: none; stroke: #000000; stroke-width: 0.8; stroke-linejoin: miter; stroke-linecap: square"/>
   </g>
   <g id="patch_4">
    <path d="M 401.179375 273.312 
L 401.179375 7.2 
" style="fill: none; stroke: #000000; stroke-width: 0.8; stroke-linejoin: miter; stroke-linecap: square"/>
   </g>
   <g id="patch_5">
    <path d="M 44.059375 273.312 
L 401.179375 273.312 
" style="fill: none; stroke: #000000; stroke-width: 0.8; stroke-linejoin: miter; stroke-linecap: square"/>
   </g>
   <g id="patch_6">
    <path d="M 44.059375 7.2 
L 401.179375 7.2 
" style="fill: none; stroke: #000000; stroke-width: 0.8; stroke-linejoin: miter; stroke-linecap: square"/>
   </g>
   <g id="legend_1">
    <g id="patch_7">
     <path d="M 328.018438 44.55625 
L 394.179375 44.55625 
Q 396.179375 44.55625 396.179375 42.55625 
L 396.179375 14.2 
Q 396.179375 12.2 394.179375 12.2 
L 328.018438 12.2 
Q 326.018438 12.2 326.018438 14.2 
L 326.018438 42.55625 
Q 326.018438 44.55625 328.018438 44.55625 
z
" style="fill: #ffffff; opacity: 0.8; stroke: #cccccc; stroke-linejoin: miter"/>
    </g>
    <g id="line2d_16">
     <path d="M 330.018438 20.298437 
L 340.018438 20.298437 
L 350.018438 20.298437 
" style="fill: none; stroke: #ff7f0e; stroke-width: 1.5; stroke-linecap: square"/>
    </g>
    <g id="text_16">
     <!-- Mean -->
     <g transform="translate(358.018438 23.798437) scale(0.1 -0.1)">
      <defs>
       <path id="DejaVuSans-4d" d="M 628 4666 
L 1569 4666 
L 2759 1491 
L 3956 4666 
L 4897 4666 
L 4897 0 
L 4281 0 
L 4281 4097 
L 3078 897 
L 2444 897 
L 1241 4097 
L 1241 0 
L 628 0 
L 628 4666 
z
" transform="scale(0.015625)"/>
       <path id="DejaVuSans-61" d="M 2194 1759 
Q 1497 1759 1228 1600 
Q 959 1441 959 1056 
Q 959 750 1161 570 
Q 1363 391 1709 391 
Q 2188 391 2477 730 
Q 2766 1069 2766 1631 
L 2766 1759 
L 2194 1759 
z
M 3341 1997 
L 3341 0 
L 2766 0 
L 2766 531 
Q 2569 213 2275 61 
Q 1981 -91 1556 -91 
Q 1019 -91 701 211 
Q 384 513 384 1019 
Q 384 1609 779 1909 
Q 1175 2209 1959 2209 
L 2766 2209 
L 2766 2266 
Q 2766 2663 2505 2880 
Q 2244 3097 1772 3097 
Q 1472 3097 1187 3025 
Q 903 2953 641 2809 
L 641 3341 
Q 956 3463 1253 3523 
Q 1550 3584 1831 3584 
Q 2591 3584 2966 3190 
Q 3341 2797 3341 1997 
z
" transform="scale(0.015625)"/>
      </defs>
      <use xlink:href="#DejaVuSans-4d"/>
      <use xlink:href="#DejaVuSans-65" transform="translate(86.279297 0)"/>
      <use xlink:href="#DejaVuSans-61" transform="translate(147.802734 0)"/>
      <use xlink:href="#DejaVuSans-6e" transform="translate(209.082031 0)"/>
     </g>
    </g>
    <g id="patch_8">
     <path d="M 330.018438 38.476562 
L 350.018438 38.476562 
L 350.018438 31.476562 
L 330.018438 31.476562 
z
" style="fill: #ff7f0e; fill-opacity: 0.3; stroke: #ff7f0e; stroke-opacity: 0.3; stroke-linejoin: miter"/>
    </g>
    <g id="text_17">
     <!-- Std Err -->
     <g transform="translate(358.018438 38.476562) scale(0.1 -0.1)">
      <defs>
       <path id="DejaVuSans-45" d="M 628 4666 
L 3578 4666 
L 3578 4134 
L 1259 4134 
L 1259 2753 
L 3481 2753 
L 3481 2222 
L 1259 2222 
L 1259 531 
L 3634 531 
L 3634 0 
L 628 0 
L 628 4666 
z
" transform="scale(0.015625)"/>
      </defs>
      <use xlink:href="#DejaVuSans-53"/>
      <use xlink:href="#DejaVuSans-74" transform="translate(63.476562 0)"/>
      <use xlink:href="#DejaVuSans-64" transform="translate(102.685547 0)"/>
      <use xlink:href="#DejaVuSans-20" transform="translate(166.162109 0)"/>
      <use xlink:href="#DejaVuSans-45" transform="translate(197.949219 0)"/>
      <use xlink:href="#DejaVuSans-72" transform="translate(261.132812 0)"/>
      <use xlink:href="#DejaVuSans-72" transform="translate(300.496094 0)"/>
     </g>
    </g>
   </g>
  </g>
 </g>
 <defs>
  <clipPath id="p4d8959b1f6">
   <rect x="44.059375" y="7.2" width="357.12" height="266.112"/>
  </clipPath>
 </defs>
</svg>
