<?xml version="1.0" encoding="utf-8" standalone="no"?>
<!DOCTYPE svg PUBLIC "-//W3C//DTD SVG 1.1//EN"
  "http://www.w3.org/Graphics/SVG/1.1/DTD/svg11.dtd">
<svg xmlns:xlink="http://www.w3.org/1999/xlink" width="408.368437pt" height="311.146375pt" viewBox="0 0 408.368437 311.146375" xmlns="http://www.w3.org/2000/svg" version="1.1">
 <metadata>
  <rdf:RDF xmlns:dc="http://purl.org/dc/elements/1.1/" xmlns:cc="http://creativecommons.org/ns#" xmlns:rdf="http://www.w3.org/1999/02/22-rdf-syntax-ns#">
   <cc:Work>
    <dc:type rdf:resource="http://purl.org/dc/dcmitype/StillImage"/>
    <dc:date>2025-12-11T14:40:31.167404</dc:date>
    <dc:format>image/svg+xml</dc:format>
    <dc:creator>
     <cc:Agent>
      <dc:title>Matplotlib v3.10.5, https://matplotlib.org/</dc:title>
     </cc:Agent>
    </dc:creator>
   </cc:Work>
  </rdf:RDF>
 </metadata>
 <defs>
  <style type="text/css">*{stroke-linejoin: round; stroke-linecap: butt}</style>
 </defs>
 <g id="figure_1">
  <g id="patch_1">
   <path d="M 0 311.146375 
L 408.368437 311.146375 
L 408.368437 0 
L 0 0 
z
" style="fill: #ffffff"/>
  </g>
  <g id="axes_1">
   <g id="patch_2">
    <path d="M 44.048438 273.312 
L 401.168437 273.312 
L 401.168437 7.2 
L 44.048438 7.2 
z
" style="fill: #ffffff"/>
   </g>
   <g id="FillBetweenPolyCollection_1">
    <defs>
     <path id="m0339ae8a42" d="M 60.281165 -49.930375 
L 60.281165 -49.930375 
L 62.115371 -49.930375 
L 63.949578 -49.930375 
L 65.783784 -49.930375 
L 67.617991 -70.507454 
L 69.452197 -66.337837 
L 71.286404 -49.930375 
L 73.12061 -63.757453 
L 74.954817 -65.285833 
L 76.789023 -56.539215 
L 78.623229 -67.939177 
L 80.457436 -78.692741 
L 82.291642 -84.948361 
L 84.125849 -56.946377 
L 85.960055 -74.487287 
L 87.794262 -69.154475 
L 89.628468 -66.262904 
L 91.462675 -49.930375 
L 93.296881 -84.710074 
L 95.131088 -64.422687 
L 96.965294 -57.862416 
L 98.799501 -64.545792 
L 100.633707 -78.220058 
L 102.467914 -78.730593 
L 104.30212 -62.627462 
L 106.136327 -66.947395 
L 107.970533 -69.678077 
L 109.80474 -79.531293 
L 111.638946 -74.15601 
L 113.473152 -79.535036 
L 115.307359 -94.575383 
L 117.141565 -98.383668 
L 118.975772 -80.557717 
L 120.809978 -83.829772 
L 122.644185 -76.715201 
L 124.478391 -81.361893 
L 126.312598 -94.044246 
L 128.146804 -102.599495 
L 129.981011 -78.413036 
L 131.815217 -103.636539 
L 133.649424 -104.724674 
L 135.48363 -68.800878 
L 137.317837 -79.934651 
L 139.152043 -93.513768 
L 140.98625 -96.878774 
L 142.820456 -97.657448 
L 144.654662 -121.721513 
L 146.488869 -145.009405 
L 148.323075 -99.962154 
L 150.157282 -148.9406 
L 151.991488 -134.431929 
L 153.825695 -167.938639 
L 155.659901 -198.736659 
L 157.494108 -182.791515 
L 159.328314 -162.591928 
L 161.162521 -149.535149 
L 162.996727 -179.702907 
L 164.830934 -209.366508 
L 166.66514 -191.029108 
L 168.499347 -168.984147 
L 170.333553 -142.765168 
L 172.16776 -154.735708 
L 174.001966 -136.00582 
L 175.836172 -155.841387 
L 177.670379 -152.965653 
L 179.504585 -128.399064 
L 181.338792 -130.821558 
L 183.172998 -154.514675 
L 185.007205 -132.578259 
L 186.841411 -142.048636 
L 188.675618 -158.092311 
L 190.509824 -136.677567 
L 192.344031 -148.702585 
L 194.178237 -129.688201 
L 196.012444 -156.588713 
L 197.84665 -180.652888 
L 199.680857 -151.893825 
L 201.515063 -150.558532 
L 203.34927 -170.260337 
L 205.183476 -142.455682 
L 207.017682 -108.203456 
L 208.851889 -143.282111 
L 210.686095 -134.071132 
L 212.520302 -127.975088 
L 214.354508 -137.366576 
L 216.188715 -145.607668 
L 218.022921 -123.148257 
L 219.857128 -105.231347 
L 221.691334 -119.451156 
L 223.525541 -159.297559 
L 225.359747 -130.628991 
L 227.193954 -138.668092 
L 229.02816 -159.824815 
L 230.862367 -147.810475 
L 232.696573 -126.773234 
L 234.53078 -145.654659 
L 236.364986 -134.67636 
L 238.199193 -109.876743 
L 240.033399 -135.665684 
L 241.867605 -171.508925 
L 243.701812 -139.526505 
L 245.536018 -160.088405 
L 247.370225 -141.113298 
L 249.204431 -139.788374 
L 251.038638 -197.728665 
L 252.872844 -160.704709 
L 254.707051 -139.220488 
L 256.541257 -142.030326 
L 258.375464 -148.620974 
L 260.20967 -135.676814 
L 262.043877 -162.119878 
L 263.878083 -126.74193 
L 265.71229 -172.177757 
L 267.546496 -139.777483 
L 269.380703 -153.665851 
L 271.214909 -174.149956 
L 273.049115 -153.716043 
L 274.883322 -137.452707 
L 276.717528 -164.101542 
L 278.551735 -135.469644 
L 280.385941 -162.379439 
L 282.220148 -136.764045 
L 284.054354 -184.910732 
L 285.888561 -162.698067 
L 287.722767 -151.209347 
L 289.556974 -161.291277 
L 291.39118 -157.687154 
L 293.225387 -148.490232 
L 295.059593 -154.414077 
L 296.8938 -139.289362 
L 298.728006 -160.779244 
L 300.562213 -137.717802 
L 302.396419 -153.47417 
L 304.230625 -143.107621 
L 306.064832 -141.861124 
L 307.899038 -168.761421 
L 309.733245 -170.996014 
L 311.567451 -160.150913 
L 313.401658 -170.985891 
L 315.235864 -160.706127 
L 317.070071 -141.776383 
L 318.904277 -153.444422 
L 320.738484 -155.374644 
L 322.57269 -134.507729 
L 324.406897 -160.758191 
L 326.241103 -133.157225 
L 328.07531 -161.351757 
L 329.909516 -144.529358 
L 331.743723 -151.546253 
L 333.577929 -151.510622 
L 335.412135 -128.352074 
L 337.246342 -182.970305 
L 339.080548 -155.465791 
L 340.914755 -155.973537 
L 342.748961 -156.890577 
L 344.583168 -155.90748 
L 346.417374 -163.764511 
L 348.251581 -183.254941 
L 350.085787 -163.168164 
L 351.919994 -151.960576 
L 353.7542 -164.568172 
L 355.588407 -162.387163 
L 357.422613 -153.435984 
L 359.25682 -132.190455 
L 361.091026 -151.153243 
L 362.925233 -148.72518 
L 364.759439 -130.906192 
L 366.593646 -158.125387 
L 368.427852 -155.262589 
L 370.262058 -161.967984 
L 372.096265 -138.62206 
L 373.930471 -160.887882 
L 375.764678 -150.66311 
L 377.598884 -132.306741 
L 379.433091 -128.760162 
L 381.267297 -131.337855 
L 383.101504 -146.780006 
L 384.93571 -134.359145 
L 384.93571 -175.341743 
L 384.93571 -175.341743 
L 383.101504 -174.025678 
L 381.267297 -175.167244 
L 379.433091 -145.195369 
L 377.598884 -163.441205 
L 375.764678 -157.155358 
L 373.930471 -183.577164 
L 372.096265 -157.018144 
L 370.262058 -183.594068 
L 368.427852 -164.852247 
L 366.593646 -174.233787 
L 364.759439 -157.202931 
L 362.925233 -176.094936 
L 361.091026 -178.246876 
L 359.25682 -180.854976 
L 357.422613 -189.592749 
L 355.588407 -189.242377 
L 353.7542 -184.339764 
L 351.919994 -198.614922 
L 350.085787 -184.755616 
L 348.251581 -228.500195 
L 346.417374 -185.34281 
L 344.583168 -171.012846 
L 342.748961 -192.759552 
L 340.914755 -191.367676 
L 339.080548 -173.220154 
L 337.246342 -189.849782 
L 335.412135 -149.980295 
L 333.577929 -160.844465 
L 331.743723 -186.387061 
L 329.909516 -165.557086 
L 328.07531 -185.281622 
L 326.241103 -155.588115 
L 324.406897 -185.407478 
L 322.57269 -161.297438 
L 320.738484 -171.128309 
L 318.904277 -184.126381 
L 317.070071 -176.8669 
L 315.235864 -186.842333 
L 313.401658 -203.488028 
L 311.567451 -205.676328 
L 309.733245 -199.070797 
L 307.899038 -200.021813 
L 306.064832 -176.112407 
L 304.230625 -193.165596 
L 302.396419 -175.448549 
L 300.562213 -165.558326 
L 298.728006 -178.430741 
L 296.8938 -156.342666 
L 295.059593 -173.712477 
L 293.225387 -177.051785 
L 291.39118 -188.12555 
L 289.556974 -189.312446 
L 287.722767 -173.283695 
L 285.888561 -189.841865 
L 284.054354 -205.176543 
L 282.220148 -168.867119 
L 280.385941 -186.590651 
L 278.551735 -161.057762 
L 276.717528 -182.149366 
L 274.883322 -165.931819 
L 273.049115 -168.917389 
L 271.214909 -197.062492 
L 269.380703 -177.329713 
L 267.546496 -164.290485 
L 265.71229 -178.116177 
L 263.878083 -175.606787 
L 262.043877 -190.11692 
L 260.20967 -169.044644 
L 258.375464 -197.950671 
L 256.541257 -164.832009 
L 254.707051 -170.726849 
L 252.872844 -178.845999 
L 251.038638 -241.806785 
L 249.204431 -175.224464 
L 247.370225 -173.651403 
L 245.536018 -180.084554 
L 243.701812 -189.431954 
L 241.867605 -191.375283 
L 240.033399 -175.138066 
L 238.199193 -136.490219 
L 236.364986 -153.510026 
L 234.53078 -169.837834 
L 232.696573 -176.641448 
L 230.862367 -180.779887 
L 229.02816 -207.651416 
L 227.193954 -182.132354 
L 225.359747 -161.53651 
L 223.525541 -249.516024 
L 221.691334 -159.132975 
L 219.857128 -123.634987 
L 218.022921 -160.611763 
L 216.188715 -205.824019 
L 214.354508 -161.56413 
L 212.520302 -177.906832 
L 210.686095 -162.887638 
L 208.851889 -172.72108 
L 207.017682 -151.33468 
L 205.183476 -180.694029 
L 203.34927 -192.235962 
L 201.515063 -194.227161 
L 199.680857 -179.679184 
L 197.84665 -218.375762 
L 196.012444 -179.279618 
L 194.178237 -167.794915 
L 192.344031 -196.672115 
L 190.509824 -168.49178 
L 188.675618 -178.727573 
L 186.841411 -166.464995 
L 185.007205 -178.639666 
L 183.172998 -168.777989 
L 181.338792 -165.818341 
L 179.504585 -177.008009 
L 177.670379 -196.82273 
L 175.836172 -202.98471 
L 174.001966 -167.440201 
L 172.16776 -204.212072 
L 170.333553 -177.055977 
L 168.499347 -211.522802 
L 166.66514 -217.380286 
L 164.830934 -291.850375 
L 162.996727 -240.581736 
L 161.162521 -270.345591 
L 159.328314 -231.66844 
L 157.494108 -226.88836 
L 155.659901 -267.841512 
L 153.825695 -264.347785 
L 151.991488 -208.117212 
L 150.157282 -209.009308 
L 148.323075 -162.822877 
L 146.488869 -178.747767 
L 144.654662 -272.018169 
L 142.820456 -142.242722 
L 140.98625 -153.353796 
L 139.152043 -126.307022 
L 137.317837 -102.82548 
L 135.48363 -96.137457 
L 133.649424 -132.18087 
L 131.815217 -112.067381 
L 129.981011 -135.829378 
L 128.146804 -146.605021 
L 126.312598 -112.306369 
L 124.478391 -115.306503 
L 122.644185 -111.870712 
L 120.809978 -107.783957 
L 118.975772 -97.796295 
L 117.141565 -127.825368 
L 115.307359 -117.768801 
L 113.473152 -137.720161 
L 111.638946 -102.469431 
L 109.80474 -118.447032 
L 107.970533 -104.520348 
L 106.136327 -86.263159 
L 104.30212 -80.476109 
L 102.467914 -101.590373 
L 100.633707 -127.98046 
L 98.799501 -92.238186 
L 96.965294 -69.076069 
L 95.131088 -92.442011 
L 93.296881 -188.975206 
L 91.462675 -62.686212 
L 89.628468 -105.918092 
L 87.794262 -146.264619 
L 85.960055 -117.631079 
L 84.125849 -81.187644 
L 82.291642 -189.437544 
L 80.457436 -137.061639 
L 78.623229 -135.597289 
L 76.789023 -128.932602 
L 74.954817 -136.383151 
L 73.12061 -109.195483 
L 71.286404 -141.666683 
L 69.452197 -146.68668 
L 67.617991 -135.746581 
L 65.783784 -49.930375 
L 63.949578 -87.274418 
L 62.115371 -49.930375 
L 60.281165 -49.930375 
z
" style="stroke: #ff7f0e; stroke-opacity: 0.3"/>
    </defs>
    <g clip-path="url(#pe7ddf90f66)">
     <use xlink:href="#m0339ae8a42" x="0" y="311.146375" style="fill: #ff7f0e; fill-opacity: 0.3; stroke: #ff7f0e; stroke-opacity: 0.3"/>
    </g>
   </g>
   <g id="matplotlib.axis_1">
    <g id="xtick_1">
     <g id="line2d_1">
      <defs>
       <path id="m720ef90bfd" d="M 0 0 
L 0 3.5 
" style="stroke: #000000; stroke-width: 0.8"/>
      </defs>
      <g>
       <use xlink:href="#m720ef90bfd" x="59.364062" y="273.312" style="stroke: #000000; stroke-width: 0.8"/>
      </g>
     </g>
     <g id="text_1">
      <!-- 0.0 -->
      <g transform="translate(51.412499 287.910437) scale(0.1 -0.1)">
       <defs>
        <path id="DejaVuSans-30" d="M 2034 4250 
Q 1547 4250 1301 3770 
Q 1056 3291 1056 2328 
Q 1056 1369 1301 889 
Q 1547 409 2034 409 
Q 2525 409 2770 889 
Q 3016 1369 3016 2328 
Q 3016 3291 2770 3770 
Q 2525 4250 2034 4250 
z
M 2034 4750 
Q 2819 4750 3233 4129 
Q 3647 3509 3647 2328 
Q 3647 1150 3233 529 
Q 2819 -91 2034 -91 
Q 1250 -91 836 529 
Q 422 1150 422 2328 
Q 422 3509 836 4129 
Q 1250 4750 2034 4750 
z
" transform="scale(0.015625)"/>
        <path id="DejaVuSans-2e" d="M 684 794 
L 1344 794 
L 1344 0 
L 684 0 
L 684 794 
z
" transform="scale(0.015625)"/>
       </defs>
       <use xlink:href="#DejaVuSans-30"/>
       <use xlink:href="#DejaVuSans-2e" transform="translate(63.623047 0)"/>
       <use xlink:href="#DejaVuSans-30" transform="translate(95.410156 0)"/>
      </g>
     </g>
    </g>
    <g id="xtick_2">
     <g id="line2d_2">
      <g>
       <use xlink:href="#m720ef90bfd" x="105.219223" y="273.312" style="stroke: #000000; stroke-width: 0.8"/>
      </g>
     </g>
     <g id="text_2">
      <!-- 0.5 -->
      <g transform="translate(97.267661 287.910437) scale(0.1 -0.1)">
       <defs>
        <path id="DejaVuSans-35" d="M 691 4666 
L 3169 4666 
L 3169 4134 
L 1269 4134 
L 1269 2991 
Q 1406 3038 1543 3061 
Q 1681 3084 1819 3084 
Q 2600 3084 3056 2656 
Q 3513 2228 3513 1497 
Q 3513 744 3044 326 
Q 2575 -91 1722 -91 
Q 1428 -91 1123 -41 
Q 819 9 494 109 
L 494 744 
Q 775 591 1075 516 
Q 1375 441 1709 441 
Q 2250 441 2565 725 
Q 2881 1009 2881 1497 
Q 2881 1984 2565 2268 
Q 2250 2553 1709 2553 
Q 1456 2553 1204 2497 
Q 953 2441 691 2322 
L 691 4666 
z
" transform="scale(0.015625)"/>
       </defs>
       <use xlink:href="#DejaVuSans-30"/>
       <use xlink:href="#DejaVuSans-2e" transform="translate(63.623047 0)"/>
       <use xlink:href="#DejaVuSans-35" transform="translate(95.410156 0)"/>
      </g>
     </g>
    </g>
    <g id="xtick_3">
     <g id="line2d_3">
      <g>
       <use xlink:href="#m720ef90bfd" x="151.074385" y="273.312" style="stroke: #000000; stroke-width: 0.8"/>
      </g>
     </g>
     <g id="text_3">
      <!-- 1.0 -->
      <g transform="translate(143.122823 287.910437) scale(0.1 -0.1)">
       <defs>
        <path id="DejaVuSans-31" d="M 794 531 
L 1825 531 
L 1825 4091 
L 703 3866 
L 703 4441 
L 1819 4666 
L 2450 4666 
L 2450 531 
L 3481 531 
L 3481 0 
L 794 0 
L 794 531 
z
" transform="scale(0.015625)"/>
       </defs>
       <use xlink:href="#DejaVuSans-31"/>
       <use xlink:href="#DejaVuSans-2e" transform="translate(63.623047 0)"/>
       <use xlink:href="#DejaVuSans-30" transform="translate(95.410156 0)"/>
      </g>
     </g>
    </g>
    <g id="xtick_4">
     <g id="line2d_4">
      <g>
       <use xlink:href="#m720ef90bfd" x="196.929547" y="273.312" style="stroke: #000000; stroke-width: 0.8"/>
      </g>
     </g>
     <g id="text_4">
      <!-- 1.5 -->
      <g transform="translate(188.977984 287.910437) scale(0.1 -0.1)">
       <use xlink:href="#DejaVuSans-31"/>
       <use xlink:href="#DejaVuSans-2e" transform="translate(63.623047 0)"/>
       <use xlink:href="#DejaVuSans-35" transform="translate(95.410156 0)"/>
      </g>
     </g>
    </g>
    <g id="xtick_5">
     <g id="line2d_5">
      <g>
       <use xlink:href="#m720ef90bfd" x="242.784709" y="273.312" style="stroke: #000000; stroke-width: 0.8"/>
      </g>
     </g>
     <g id="text_5">
      <!-- 2.0 -->
      <g transform="translate(234.833146 287.910437) scale(0.1 -0.1)">
       <defs>
        <path id="DejaVuSans-32" d="M 1228 531 
L 3431 531 
L 3431 0 
L 469 0 
L 469 531 
Q 828 903 1448 1529 
Q 2069 2156 2228 2338 
Q 2531 2678 2651 2914 
Q 2772 3150 2772 3378 
Q 2772 3750 2511 3984 
Q 2250 4219 1831 4219 
Q 1534 4219 1204 4116 
Q 875 4013 500 3803 
L 500 4441 
Q 881 4594 1212 4672 
Q 1544 4750 1819 4750 
Q 2544 4750 2975 4387 
Q 3406 4025 3406 3419 
Q 3406 3131 3298 2873 
Q 3191 2616 2906 2266 
Q 2828 2175 2409 1742 
Q 1991 1309 1228 531 
z
" transform="scale(0.015625)"/>
       </defs>
       <use xlink:href="#DejaVuSans-32"/>
       <use xlink:href="#DejaVuSans-2e" transform="translate(63.623047 0)"/>
       <use xlink:href="#DejaVuSans-30" transform="translate(95.410156 0)"/>
      </g>
     </g>
    </g>
    <g id="xtick_6">
     <g id="line2d_6">
      <g>
       <use xlink:href="#m720ef90bfd" x="288.63987" y="273.312" style="stroke: #000000; stroke-width: 0.8"/>
      </g>
     </g>
     <g id="text_6">
      <!-- 2.5 -->
      <g transform="translate(280.688308 287.910437) scale(0.1 -0.1)">
       <use xlink:href="#DejaVuSans-32"/>
       <use xlink:href="#DejaVuSans-2e" transform="translate(63.623047 0)"/>
       <use xlink:href="#DejaVuSans-35" transform="translate(95.410156 0)"/>
      </g>
     </g>
    </g>
    <g id="xtick_7">
     <g id="line2d_7">
      <g>
       <use xlink:href="#m720ef90bfd" x="334.495032" y="273.312" style="stroke: #000000; stroke-width: 0.8"/>
      </g>
     </g>
     <g id="text_7">
      <!-- 3.0 -->
      <g transform="translate(326.54347 287.910437) scale(0.1 -0.1)">
       <defs>
        <path id="DejaVuSans-33" d="M 2597 2516 
Q 3050 2419 3304 2112 
Q 3559 1806 3559 1356 
Q 3559 666 3084 287 
Q 2609 -91 1734 -91 
Q 1441 -91 1130 -33 
Q 819 25 488 141 
L 488 750 
Q 750 597 1062 519 
Q 1375 441 1716 441 
Q 2309 441 2620 675 
Q 2931 909 2931 1356 
Q 2931 1769 2642 2001 
Q 2353 2234 1838 2234 
L 1294 2234 
L 1294 2753 
L 1863 2753 
Q 2328 2753 2575 2939 
Q 2822 3125 2822 3475 
Q 2822 3834 2567 4026 
Q 2313 4219 1838 4219 
Q 1578 4219 1281 4162 
Q 984 4106 628 3988 
L 628 4550 
Q 988 4650 1302 4700 
Q 1616 4750 1894 4750 
Q 2613 4750 3031 4423 
Q 3450 4097 3450 3541 
Q 3450 3153 3228 2886 
Q 3006 2619 2597 2516 
z
" transform="scale(0.015625)"/>
       </defs>
       <use xlink:href="#DejaVuSans-33"/>
       <use xlink:href="#DejaVuSans-2e" transform="translate(63.623047 0)"/>
       <use xlink:href="#DejaVuSans-30" transform="translate(95.410156 0)"/>
      </g>
     </g>
    </g>
    <g id="xtick_8">
     <g id="line2d_8">
      <g>
       <use xlink:href="#m720ef90bfd" x="380.350194" y="273.312" style="stroke: #000000; stroke-width: 0.8"/>
      </g>
     </g>
     <g id="text_8">
      <!-- 3.5 -->
      <g transform="translate(372.398632 287.910437) scale(0.1 -0.1)">
       <use xlink:href="#DejaVuSans-33"/>
       <use xlink:href="#DejaVuSans-2e" transform="translate(63.623047 0)"/>
       <use xlink:href="#DejaVuSans-35" transform="translate(95.410156 0)"/>
      </g>
     </g>
    </g>
    <g id="text_9">
     <!-- r_xy (reduced units) -->
     <g transform="translate(172.400625 301.588562) scale(0.1 -0.1)">
      <defs>
       <path id="DejaVuSans-72" d="M 2631 2963 
Q 2534 3019 2420 3045 
Q 2306 3072 2169 3072 
Q 1681 3072 1420 2755 
Q 1159 2438 1159 1844 
L 1159 0 
L 581 0 
L 581 3500 
L 1159 3500 
L 1159 2956 
Q 1341 3275 1631 3429 
Q 1922 3584 2338 3584 
Q 2397 3584 2469 3576 
Q 2541 3569 2628 3553 
L 2631 2963 
z
" transform="scale(0.015625)"/>
       <path id="DejaVuSans-5f" d="M 3263 -1063 
L 3263 -1509 
L -63 -1509 
L -63 -1063 
L 3263 -1063 
z
" transform="scale(0.015625)"/>
       <path id="DejaVuSans-78" d="M 3513 3500 
L 2247 1797 
L 3578 0 
L 2900 0 
L 1881 1375 
L 863 0 
L 184 0 
L 1544 1831 
L 300 3500 
L 978 3500 
L 1906 2253 
L 2834 3500 
L 3513 3500 
z
" transform="scale(0.015625)"/>
       <path id="DejaVuSans-79" d="M 2059 -325 
Q 1816 -950 1584 -1140 
Q 1353 -1331 966 -1331 
L 506 -1331 
L 506 -850 
L 844 -850 
Q 1081 -850 1212 -737 
Q 1344 -625 1503 -206 
L 1606 56 
L 191 3500 
L 800 3500 
L 1894 763 
L 2988 3500 
L 3597 3500 
L 2059 -325 
z
" transform="scale(0.015625)"/>
       <path id="DejaVuSans-20" transform="scale(0.015625)"/>
       <path id="DejaVuSans-28" d="M 1984 4856 
Q 1566 4138 1362 3434 
Q 1159 2731 1159 2009 
Q 1159 1288 1364 580 
Q 1569 -128 1984 -844 
L 1484 -844 
Q 1016 -109 783 600 
Q 550 1309 550 2009 
Q 550 2706 781 3412 
Q 1013 4119 1484 4856 
L 1984 4856 
z
" transform="scale(0.015625)"/>
       <path id="DejaVuSans-65" d="M 3597 1894 
L 3597 1613 
L 953 1613 
Q 991 1019 1311 708 
Q 1631 397 2203 397 
Q 2534 397 2845 478 
Q 3156 559 3463 722 
L 3463 178 
Q 3153 47 2828 -22 
Q 2503 -91 2169 -91 
Q 1331 -91 842 396 
Q 353 884 353 1716 
Q 353 2575 817 3079 
Q 1281 3584 2069 3584 
Q 2775 3584 3186 3129 
Q 3597 2675 3597 1894 
z
M 3022 2063 
Q 3016 2534 2758 2815 
Q 2500 3097 2075 3097 
Q 1594 3097 1305 2825 
Q 1016 2553 972 2059 
L 3022 2063 
z
" transform="scale(0.015625)"/>
       <path id="DejaVuSans-64" d="M 2906 2969 
L 2906 4863 
L 3481 4863 
L 3481 0 
L 2906 0 
L 2906 525 
Q 2725 213 2448 61 
Q 2172 -91 1784 -91 
Q 1150 -91 751 415 
Q 353 922 353 1747 
Q 353 2572 751 3078 
Q 1150 3584 1784 3584 
Q 2172 3584 2448 3432 
Q 2725 3281 2906 2969 
z
M 947 1747 
Q 947 1113 1208 752 
Q 1469 391 1925 391 
Q 2381 391 2643 752 
Q 2906 1113 2906 1747 
Q 2906 2381 2643 2742 
Q 2381 3103 1925 3103 
Q 1469 3103 1208 2742 
Q 947 2381 947 1747 
z
" transform="scale(0.015625)"/>
       <path id="DejaVuSans-75" d="M 544 1381 
L 544 3500 
L 1119 3500 
L 1119 1403 
Q 1119 906 1312 657 
Q 1506 409 1894 409 
Q 2359 409 2629 706 
Q 2900 1003 2900 1516 
L 2900 3500 
L 3475 3500 
L 3475 0 
L 2900 0 
L 2900 538 
Q 2691 219 2414 64 
Q 2138 -91 1772 -91 
Q 1169 -91 856 284 
Q 544 659 544 1381 
z
M 1991 3584 
L 1991 3584 
z
" transform="scale(0.015625)"/>
       <path id="DejaVuSans-63" d="M 3122 3366 
L 3122 2828 
Q 2878 2963 2633 3030 
Q 2388 3097 2138 3097 
Q 1578 3097 1268 2742 
Q 959 2388 959 1747 
Q 959 1106 1268 751 
Q 1578 397 2138 397 
Q 2388 397 2633 464 
Q 2878 531 3122 666 
L 3122 134 
Q 2881 22 2623 -34 
Q 2366 -91 2075 -91 
Q 1284 -91 818 406 
Q 353 903 353 1747 
Q 353 2603 823 3093 
Q 1294 3584 2113 3584 
Q 2378 3584 2631 3529 
Q 2884 3475 3122 3366 
z
" transform="scale(0.015625)"/>
       <path id="DejaVuSans-6e" d="M 3513 2113 
L 3513 0 
L 2938 0 
L 2938 2094 
Q 2938 2591 2744 2837 
Q 2550 3084 2163 3084 
Q 1697 3084 1428 2787 
Q 1159 2491 1159 1978 
L 1159 0 
L 581 0 
L 581 3500 
L 1159 3500 
L 1159 2956 
Q 1366 3272 1645 3428 
Q 1925 3584 2291 3584 
Q 2894 3584 3203 3211 
Q 3513 2838 3513 2113 
z
" transform="scale(0.015625)"/>
       <path id="DejaVuSans-69" d="M 603 3500 
L 1178 3500 
L 1178 0 
L 603 0 
L 603 3500 
z
M 603 4863 
L 1178 4863 
L 1178 4134 
L 603 4134 
L 603 4863 
z
" transform="scale(0.015625)"/>
       <path id="DejaVuSans-74" d="M 1172 4494 
L 1172 3500 
L 2356 3500 
L 2356 3053 
L 1172 3053 
L 1172 1153 
Q 1172 725 1289 603 
Q 1406 481 1766 481 
L 2356 481 
L 2356 0 
L 1766 0 
Q 1100 0 847 248 
Q 594 497 594 1153 
L 594 3053 
L 172 3053 
L 172 3500 
L 594 3500 
L 594 4494 
L 1172 4494 
z
" transform="scale(0.015625)"/>
       <path id="DejaVuSans-73" d="M 2834 3397 
L 2834 2853 
Q 2591 2978 2328 3040 
Q 2066 3103 1784 3103 
Q 1356 3103 1142 2972 
Q 928 2841 928 2578 
Q 928 2378 1081 2264 
Q 1234 2150 1697 2047 
L 1894 2003 
Q 2506 1872 2764 1633 
Q 3022 1394 3022 966 
Q 3022 478 2636 193 
Q 2250 -91 1575 -91 
Q 1294 -91 989 -36 
Q 684 19 347 128 
L 347 722 
Q 666 556 975 473 
Q 1284 391 1588 391 
Q 1994 391 2212 530 
Q 2431 669 2431 922 
Q 2431 1156 2273 1281 
Q 2116 1406 1581 1522 
L 1381 1569 
Q 847 1681 609 1914 
Q 372 2147 372 2553 
Q 372 3047 722 3315 
Q 1072 3584 1716 3584 
Q 2034 3584 2315 3537 
Q 2597 3491 2834 3397 
z
" transform="scale(0.015625)"/>
       <path id="DejaVuSans-29" d="M 513 4856 
L 1013 4856 
Q 1481 4119 1714 3412 
Q 1947 2706 1947 2009 
Q 1947 1309 1714 600 
Q 1481 -109 1013 -844 
L 513 -844 
Q 928 -128 1133 580 
Q 1338 1288 1338 2009 
Q 1338 2731 1133 3434 
Q 928 4138 513 4856 
z
" transform="scale(0.015625)"/>
      </defs>
      <use xlink:href="#DejaVuSans-72"/>
      <use xlink:href="#DejaVuSans-5f" transform="translate(41.113281 0)"/>
      <use xlink:href="#DejaVuSans-78" transform="translate(91.113281 0)"/>
      <use xlink:href="#DejaVuSans-79" transform="translate(150.292969 0)"/>
      <use xlink:href="#DejaVuSans-20" transform="translate(209.472656 0)"/>
      <use xlink:href="#DejaVuSans-28" transform="translate(241.259766 0)"/>
      <use xlink:href="#DejaVuSans-72" transform="translate(280.273438 0)"/>
      <use xlink:href="#DejaVuSans-65" transform="translate(319.136719 0)"/>
      <use xlink:href="#DejaVuSans-64" transform="translate(380.660156 0)"/>
      <use xlink:href="#DejaVuSans-75" transform="translate(444.136719 0)"/>
      <use xlink:href="#DejaVuSans-63" transform="translate(507.515625 0)"/>
      <use xlink:href="#DejaVuSans-65" transform="translate(562.496094 0)"/>
      <use xlink:href="#DejaVuSans-64" transform="translate(624.019531 0)"/>
      <use xlink:href="#DejaVuSans-20" transform="translate(687.496094 0)"/>
      <use xlink:href="#DejaVuSans-75" transform="translate(719.283203 0)"/>
      <use xlink:href="#DejaVuSans-6e" transform="translate(782.662109 0)"/>
      <use xlink:href="#DejaVuSans-69" transform="translate(846.041016 0)"/>
      <use xlink:href="#DejaVuSans-74" transform="translate(873.824219 0)"/>
      <use xlink:href="#DejaVuSans-73" transform="translate(913.033203 0)"/>
      <use xlink:href="#DejaVuSans-29" transform="translate(965.132812 0)"/>
     </g>
    </g>
   </g>
   <g id="matplotlib.axis_2">
    <g id="ytick_1">
     <g id="line2d_9">
      <defs>
       <path id="mfc68ca1f02" d="M 0 0 
L -3.5 0 
" style="stroke: #000000; stroke-width: 0.8"/>
      </defs>
      <g>
       <use xlink:href="#mfc68ca1f02" x="44.048438" y="261.216" style="stroke: #000000; stroke-width: 0.8"/>
      </g>
     </g>
     <g id="text_10">
      <!-- 0.0 -->
      <g transform="translate(21.145313 265.015219) scale(0.1 -0.1)">
       <use xlink:href="#DejaVuSans-30"/>
       <use xlink:href="#DejaVuSans-2e" transform="translate(63.623047 0)"/>
       <use xlink:href="#DejaVuSans-30" transform="translate(95.410156 0)"/>
      </g>
     </g>
    </g>
    <g id="ytick_2">
     <g id="line2d_10">
      <g>
       <use xlink:href="#mfc68ca1f02" x="44.048438" y="205.673879" style="stroke: #000000; stroke-width: 0.8"/>
      </g>
     </g>
     <g id="text_11">
      <!-- 0.5 -->
      <g transform="translate(21.145313 209.473098) scale(0.1 -0.1)">
       <use xlink:href="#DejaVuSans-30"/>
       <use xlink:href="#DejaVuSans-2e" transform="translate(63.623047 0)"/>
       <use xlink:href="#DejaVuSans-35" transform="translate(95.410156 0)"/>
      </g>
     </g>
    </g>
    <g id="ytick_3">
     <g id="line2d_11">
      <g>
       <use xlink:href="#mfc68ca1f02" x="44.048438" y="150.131758" style="stroke: #000000; stroke-width: 0.8"/>
      </g>
     </g>
     <g id="text_12">
      <!-- 1.0 -->
      <g transform="translate(21.145313 153.930976) scale(0.1 -0.1)">
       <use xlink:href="#DejaVuSans-31"/>
       <use xlink:href="#DejaVuSans-2e" transform="translate(63.623047 0)"/>
       <use xlink:href="#DejaVuSans-30" transform="translate(95.410156 0)"/>
      </g>
     </g>
    </g>
    <g id="ytick_4">
     <g id="line2d_12">
      <g>
       <use xlink:href="#mfc68ca1f02" x="44.048438" y="94.589636" style="stroke: #000000; stroke-width: 0.8"/>
      </g>
     </g>
     <g id="text_13">
      <!-- 1.5 -->
      <g transform="translate(21.145313 98.388855) scale(0.1 -0.1)">
       <use xlink:href="#DejaVuSans-31"/>
       <use xlink:href="#DejaVuSans-2e" transform="translate(63.623047 0)"/>
       <use xlink:href="#DejaVuSans-35" transform="translate(95.410156 0)"/>
      </g>
     </g>
    </g>
    <g id="ytick_5">
     <g id="line2d_13">
      <g>
       <use xlink:href="#mfc68ca1f02" x="44.048438" y="39.047515" style="stroke: #000000; stroke-width: 0.8"/>
      </g>
     </g>
     <g id="text_14">
      <!-- 2.0 -->
      <g transform="translate(21.145313 42.846734) scale(0.1 -0.1)">
       <use xlink:href="#DejaVuSans-32"/>
       <use xlink:href="#DejaVuSans-2e" transform="translate(63.623047 0)"/>
       <use xlink:href="#DejaVuSans-30" transform="translate(95.410156 0)"/>
      </g>
     </g>
    </g>
    <g id="text_15">
     <!-- g_xy(r) -->
     <g transform="translate(14.7875 157.806) rotate(-90) scale(0.1 -0.1)">
      <defs>
       <path id="DejaVuSans-67" d="M 2906 1791 
Q 2906 2416 2648 2759 
Q 2391 3103 1925 3103 
Q 1463 3103 1205 2759 
Q 947 2416 947 1791 
Q 947 1169 1205 825 
Q 1463 481 1925 481 
Q 2391 481 2648 825 
Q 2906 1169 2906 1791 
z
M 3481 434 
Q 3481 -459 3084 -895 
Q 2688 -1331 1869 -1331 
Q 1566 -1331 1297 -1286 
Q 1028 -1241 775 -1147 
L 775 -588 
Q 1028 -725 1275 -790 
Q 1522 -856 1778 -856 
Q 2344 -856 2625 -561 
Q 2906 -266 2906 331 
L 2906 616 
Q 2728 306 2450 153 
Q 2172 0 1784 0 
Q 1141 0 747 490 
Q 353 981 353 1791 
Q 353 2603 747 3093 
Q 1141 3584 1784 3584 
Q 2172 3584 2450 3431 
Q 2728 3278 2906 2969 
L 2906 3500 
L 3481 3500 
L 3481 434 
z
" transform="scale(0.015625)"/>
      </defs>
      <use xlink:href="#DejaVuSans-67"/>
      <use xlink:href="#DejaVuSans-5f" transform="translate(63.476562 0)"/>
      <use xlink:href="#DejaVuSans-78" transform="translate(113.476562 0)"/>
      <use xlink:href="#DejaVuSans-79" transform="translate(172.65625 0)"/>
      <use xlink:href="#DejaVuSans-28" transform="translate(231.835938 0)"/>
      <use xlink:href="#DejaVuSans-72" transform="translate(270.849609 0)"/>
      <use xlink:href="#DejaVuSans-29" transform="translate(311.962891 0)"/>
     </g>
    </g>
   </g>
   <g id="line2d_14">
    <path d="M 60.281165 261.216 
L 62.115371 261.216 
L 63.949578 242.543978 
L 65.783784 261.216 
L 67.617991 208.019358 
L 69.452197 204.634117 
L 71.286404 215.347846 
L 73.12061 224.669907 
L 74.954817 210.311883 
L 76.789023 218.410466 
L 78.623229 209.378142 
L 80.457436 203.269185 
L 82.291642 173.953422 
L 84.125849 242.079365 
L 85.960055 215.087192 
L 87.794262 203.436828 
L 89.628468 225.055877 
L 91.462675 254.838081 
L 93.296881 174.303735 
L 95.131088 232.714026 
L 96.965294 247.677132 
L 98.799501 232.754386 
L 100.633707 208.046116 
L 102.467914 220.985892 
L 104.30212 239.594589 
L 106.136327 234.541098 
L 107.970533 224.047163 
L 109.80474 212.157212 
L 111.638946 222.833655 
L 113.473152 202.518776 
L 115.307359 204.974283 
L 117.141565 198.041857 
L 118.975772 221.969369 
L 120.809978 215.33951 
L 122.644185 216.853418 
L 124.478391 212.812177 
L 126.312598 207.971068 
L 128.146804 186.544117 
L 129.981011 204.025168 
L 131.815217 203.294415 
L 133.649424 192.693603 
L 135.48363 228.677207 
L 137.317837 219.766309 
L 139.152043 201.23598 
L 140.98625 186.03009 
L 142.820456 191.19629 
L 144.654662 114.276534 
L 146.488869 149.267789 
L 148.323075 179.75386 
L 150.157282 132.171421 
L 151.991488 139.871805 
L 153.825695 95.003163 
L 155.659901 77.85729 
L 157.494108 106.306438 
L 159.328314 114.016191 
L 161.162521 101.206005 
L 162.996727 101.004054 
L 164.830934 60.537933 
L 166.66514 106.941678 
L 168.499347 120.8929 
L 170.333553 151.235803 
L 172.16776 131.672485 
L 174.001966 159.423365 
L 175.836172 131.733326 
L 177.670379 136.252184 
L 179.504585 158.442838 
L 181.338792 162.826425 
L 183.172998 149.500043 
L 185.007205 155.537412 
L 186.841411 156.88956 
L 188.675618 142.736433 
L 190.509824 158.561701 
L 192.344031 138.459025 
L 194.178237 162.404817 
L 196.012444 143.212209 
L 197.84665 111.63205 
L 199.680857 145.35987 
L 201.515063 138.753528 
L 203.34927 129.898225 
L 205.183476 149.571519 
L 207.017682 181.377307 
L 208.851889 153.14478 
L 210.686095 162.66699 
L 212.520302 158.205415 
L 214.354508 161.681022 
L 216.188715 135.430532 
L 218.022921 169.266365 
L 219.857128 196.713208 
L 221.691334 171.85431 
L 223.525541 106.739584 
L 225.359747 165.063624 
L 227.193954 150.746152 
L 229.02816 127.408259 
L 230.862367 146.851194 
L 232.696573 159.439034 
L 234.53078 153.400129 
L 236.364986 167.053182 
L 238.199193 187.962894 
L 240.033399 155.7445 
L 241.867605 129.704271 
L 243.701812 146.667145 
L 245.536018 141.059896 
L 247.370225 153.764025 
L 249.204431 153.639956 
L 251.038638 91.37865 
L 252.872844 141.371021 
L 254.707051 156.172707 
L 256.541257 157.715208 
L 258.375464 137.860552 
L 260.20967 158.785646 
L 262.043877 135.027976 
L 263.878083 159.972017 
L 265.71229 135.999408 
L 267.546496 159.112391 
L 269.380703 145.648593 
L 271.214909 125.540151 
L 273.049115 149.829659 
L 274.883322 159.454112 
L 276.717528 138.020921 
L 278.551735 162.882672 
L 280.385941 136.66133 
L 282.220148 158.330793 
L 284.054354 116.102737 
L 285.888561 134.876409 
L 287.722767 148.899854 
L 289.556974 135.844514 
L 291.39118 138.240023 
L 293.225387 148.375366 
L 295.059593 147.083098 
L 296.8938 163.330361 
L 298.728006 141.541382 
L 300.562213 159.508311 
L 302.396419 146.685016 
L 304.230625 143.009766 
L 306.064832 152.15961 
L 307.899038 126.754758 
L 309.733245 126.11297 
L 311.567451 128.232755 
L 313.401658 123.909416 
L 315.235864 137.372145 
L 317.070071 151.824734 
L 318.904277 142.360974 
L 320.738484 147.894898 
L 322.57269 163.243792 
L 324.406897 138.06354 
L 326.241103 166.773705 
L 328.07531 137.829685 
L 329.909516 156.103153 
L 331.743723 142.179718 
L 333.577929 154.968832 
L 335.412135 171.98019 
L 337.246342 124.736331 
L 339.080548 146.803403 
L 340.914755 137.475769 
L 342.748961 136.321311 
L 344.583168 147.686212 
L 346.417374 136.592714 
L 348.251581 105.268807 
L 350.085787 137.184485 
L 351.919994 135.858626 
L 353.7542 136.692407 
L 355.588407 135.331605 
L 357.422613 139.632008 
L 359.25682 154.62366 
L 361.091026 146.446315 
L 362.925233 148.736317 
L 364.759439 167.091814 
L 366.593646 144.966788 
L 368.427852 151.088957 
L 370.262058 138.365349 
L 372.096265 163.326273 
L 373.930471 138.913852 
L 375.764678 157.237141 
L 377.598884 163.272402 
L 379.433091 174.168609 
L 381.267297 157.893826 
L 383.101504 150.743533 
L 384.93571 156.295931 
L 384.93571 156.295931 
" clip-path="url(#pe7ddf90f66)" style="fill: none; stroke: #ff7f0e; stroke-width: 1.5; stroke-linecap: square"/>
   </g>
   <g id="line2d_15">
    <path d="M 44.048438 150.131758 
L 401.168437 150.131758 
" clip-path="url(#pe7ddf90f66)" style="fill: none; stroke-dasharray: 5.55,2.4; stroke-dashoffset: 0; stroke: #000000; stroke-opacity: 0.4; stroke-width: 1.5"/>
   </g>
   <g id="patch_3">
    <path d="M 44.048438 273.312 
L 44.048438 7.2 
" style="fill: none; stroke: #000000; stroke-width: 0.8; stroke-linejoin: miter; stroke-linecap: square"/>
   </g>
   <g id="patch_4">
    <path d="M 401.168437 273.312 
L 401.168437 7.2 
" style="fill: none; stroke: #000000; stroke-width: 0.8; stroke-linejoin: miter; stroke-linecap: square"/>
   </g>
   <g id="patch_5">
    <path d="M 44.048438 273.312 
L 401.168438 273.312 
" style="fill: none; stroke: #000000; stroke-width: 0.8; stroke-linejoin: miter; stroke-linecap: square"/>
   </g>
   <g id="patch_6">
    <path d="M 44.048438 7.2 
L 401.168438 7.2 
" style="fill: none; stroke: #000000; stroke-width: 0.8; stroke-linejoin: miter; stroke-linecap: square"/>
   </g>
   <g id="legend_1">
    <g id="patch_7">
     <path d="M 328.0075 44.55625 
L 394.168438 44.55625 
Q 396.168438 44.55625 396.168438 42.55625 
L 396.168438 14.2 
Q 396.168438 12.2 394.168438 12.2 
L 328.0075 12.2 
Q 326.0075 12.2 326.0075 14.2 
L 326.0075 42.55625 
Q 326.0075 44.55625 328.0075 44.55625 
z
" style="fill: #ffffff; opacity: 0.8; stroke: #cccccc; stroke-linejoin: miter"/>
    </g>
    <g id="line2d_16">
     <path d="M 330.0075 20.298437 
L 340.0075 20.298437 
L 350.0075 20.298437 
" style="fill: none; stroke: #ff7f0e; stroke-width: 1.5; stroke-linecap: square"/>
    </g>
    <g id="text_16">
     <!-- Mean -->
     <g transform="translate(358.0075 23.798437) scale(0.1 -0.1)">
      <defs>
       <path id="DejaVuSans-4d" d="M 628 4666 
L 1569 4666 
L 2759 1491 
L 3956 4666 
L 4897 4666 
L 4897 0 
L 4281 0 
L 4281 4097 
L 3078 897 
L 2444 897 
L 1241 4097 
L 1241 0 
L 628 0 
L 628 4666 
z
" transform="scale(0.015625)"/>
       <path id="DejaVuSans-61" d="M 2194 1759 
Q 1497 1759 1228 1600 
Q 959 1441 959 1056 
Q 959 750 1161 570 
Q 1363 391 1709 391 
Q 2188 391 2477 730 
Q 2766 1069 2766 1631 
L 2766 1759 
L 2194 1759 
z
M 3341 1997 
L 3341 0 
L 2766 0 
L 2766 531 
Q 2569 213 2275 61 
Q 1981 -91 1556 -91 
Q 1019 -91 701 211 
Q 384 513 384 1019 
Q 384 1609 779 1909 
Q 1175 2209 1959 2209 
L 2766 2209 
L 2766 2266 
Q 2766 2663 2505 2880 
Q 2244 3097 1772 3097 
Q 1472 3097 1187 3025 
Q 903 2953 641 2809 
L 641 3341 
Q 956 3463 1253 3523 
Q 1550 3584 1831 3584 
Q 2591 3584 2966 3190 
Q 3341 2797 3341 1997 
z
" transform="scale(0.015625)"/>
      </defs>
      <use xlink:href="#DejaVuSans-4d"/>
      <use xlink:href="#DejaVuSans-65" transform="translate(86.279297 0)"/>
      <use xlink:href="#DejaVuSans-61" transform="translate(147.802734 0)"/>
      <use xlink:href="#DejaVuSans-6e" transform="translate(209.082031 0)"/>
     </g>
    </g>
    <g id="patch_8">
     <path d="M 330.0075 38.476562 
L 350.0075 38.476562 
L 350.0075 31.476562 
L 330.0075 31.476562 
z
" style="fill: #ff7f0e; fill-opacity: 0.3; stroke: #ff7f0e; stroke-opacity: 0.3; stroke-linejoin: miter"/>
    </g>
    <g id="text_17">
     <!-- Std Err -->
     <g transform="translate(358.0075 38.476562) scale(0.1 -0.1)">
      <defs>
       <path id="DejaVuSans-53" d="M 3425 4513 
L 3425 3897 
Q 3066 4069 2747 4153 
Q 2428 4238 2131 4238 
Q 1616 4238 1336 4038 
Q 1056 3838 1056 3469 
Q 1056 3159 1242 3001 
Q 1428 2844 1947 2747 
L 2328 2669 
Q 3034 2534 3370 2195 
Q 3706 1856 3706 1288 
Q 3706 609 3251 259 
Q 2797 -91 1919 -91 
Q 1588 -91 1214 -16 
Q 841 59 441 206 
L 441 856 
Q 825 641 1194 531 
Q 1563 422 1919 422 
Q 2459 422 2753 634 
Q 3047 847 3047 1241 
Q 3047 1584 2836 1778 
Q 2625 1972 2144 2069 
L 1759 2144 
Q 1053 2284 737 2584 
Q 422 2884 422 3419 
Q 422 4038 858 4394 
Q 1294 4750 2059 4750 
Q 2388 4750 2728 4690 
Q 3069 4631 3425 4513 
z
" transform="scale(0.015625)"/>
       <path id="DejaVuSans-45" d="M 628 4666 
L 3578 4666 
L 3578 4134 
L 1259 4134 
L 1259 2753 
L 3481 2753 
L 3481 2222 
L 1259 2222 
L 1259 531 
L 3634 531 
L 3634 0 
L 628 0 
L 628 4666 
z
" transform="scale(0.015625)"/>
      </defs>
      <use xlink:href="#DejaVuSans-53"/>
      <use xlink:href="#DejaVuSans-74" transform="translate(63.476562 0)"/>
      <use xlink:href="#DejaVuSans-64" transform="translate(102.685547 0)"/>
      <use xlink:href="#DejaVuSans-20" transform="translate(166.162109 0)"/>
      <use xlink:href="#DejaVuSans-45" transform="translate(197.949219 0)"/>
      <use xlink:href="#DejaVuSans-72" transform="translate(261.132812 0)"/>
      <use xlink:href="#DejaVuSans-72" transform="translate(300.496094 0)"/>
     </g>
    </g>
   </g>
  </g>
 </g>
 <defs>
  <clipPath id="pe7ddf90f66">
   <rect x="44.048438" y="7.2" width="357.12" height="266.112"/>
  </clipPath>
 </defs>
</svg>
