<?xml version="1.0" encoding="utf-8" standalone="no"?>
<!DOCTYPE svg PUBLIC "-//W3C//DTD SVG 1.1//EN"
  "http://www.w3.org/Graphics/SVG/1.1/DTD/svg11.dtd">
<svg xmlns:xlink="http://www.w3.org/1999/xlink" width="414.730937pt" height="311.146375pt" viewBox="0 0 414.730937 311.146375" xmlns="http://www.w3.org/2000/svg" version="1.1">
 <metadata>
  <rdf:RDF xmlns:dc="http://purl.org/dc/elements/1.1/" xmlns:cc="http://creativecommons.org/ns#" xmlns:rdf="http://www.w3.org/1999/02/22-rdf-syntax-ns#">
   <cc:Work>
    <dc:type rdf:resource="http://purl.org/dc/dcmitype/StillImage"/>
    <dc:date>2025-12-11T14:40:29.284266</dc:date>
    <dc:format>image/svg+xml</dc:format>
    <dc:creator>
     <cc:Agent>
      <dc:title>Matplotlib v3.10.5, https://matplotlib.org/</dc:title>
     </cc:Agent>
    </dc:creator>
   </cc:Work>
  </rdf:RDF>
 </metadata>
 <defs>
  <style type="text/css">*{stroke-linejoin: round; stroke-linecap: butt}</style>
 </defs>
 <g id="figure_1">
  <g id="patch_1">
   <path d="M 0 311.146375 
L 414.730937 311.146375 
L 414.730937 0 
L 0 0 
z
" style="fill: #ffffff"/>
  </g>
  <g id="axes_1">
   <g id="patch_2">
    <path d="M 50.410938 273.312 
L 407.530938 273.312 
L 407.530938 7.2 
L 50.410938 7.2 
z
" style="fill: #ffffff"/>
   </g>
   <g id="FillBetweenPolyCollection_1">
    <defs>
     <path id="mf1e9204bb1" d="M 66.643665 -278.026375 
L 66.643665 -49.930375 
L 68.477871 -49.930375 
L 70.312078 -49.930375 
L 72.146284 -66.406606 
L 73.980491 -49.930375 
L 75.814697 -57.96822 
L 77.648904 -77.357995 
L 79.48311 -70.533909 
L 81.317317 -83.281197 
L 83.151523 -95.206118 
L 84.985729 -93.64807 
L 86.819936 -69.054476 
L 88.654142 -88.089845 
L 90.488349 -128.688954 
L 92.322555 -64.16382 
L 94.156762 -72.008702 
L 95.990968 -85.743629 
L 97.825175 -78.328986 
L 99.659381 -96.702889 
L 101.493588 -97.085082 
L 103.327794 -76.35556 
L 105.162001 -77.947316 
L 106.996207 -88.173638 
L 108.830414 -87.742692 
L 110.66462 -78.710114 
L 112.498827 -101.70374 
L 114.333033 -88.251515 
L 116.16724 -79.753343 
L 118.001446 -72.479939 
L 119.835652 -112.661274 
L 121.669859 -76.872056 
L 123.504065 -94.645492 
L 125.338272 -122.361063 
L 127.172478 -94.731492 
L 129.006685 -111.540478 
L 130.840891 -104.36948 
L 132.675098 -87.933264 
L 134.509304 -101.013797 
L 136.343511 -84.686875 
L 138.177717 -88.702303 
L 140.011924 -76.597378 
L 141.84613 -76.454528 
L 143.680337 -89.61338 
L 145.514543 -105.138102 
L 147.34875 -89.147838 
L 149.182956 -116.52522 
L 151.017162 -123.999617 
L 152.851369 -130.33227 
L 154.685575 -158.185375 
L 156.519782 -188.092482 
L 158.353988 -171.462536 
L 160.188195 -197.020937 
L 162.022401 -172.678414 
L 163.856608 -174.132209 
L 165.690814 -201.207244 
L 167.525021 -214.587932 
L 169.359227 -166.770335 
L 171.193434 -215.179059 
L 173.02764 -178.527277 
L 174.861847 -188.988606 
L 176.696053 -200.638218 
L 178.53026 -173.036824 
L 180.364466 -165.103366 
L 182.198672 -189.831753 
L 184.032879 -144.769 
L 185.867085 -182.203573 
L 187.701292 -142.927041 
L 189.535498 -171.571828 
L 191.369705 -203.443476 
L 193.203911 -186.832173 
L 195.038118 -181.250518 
L 196.872324 -192.785292 
L 198.706531 -164.848761 
L 200.540737 -180.112252 
L 202.374944 -144.681315 
L 204.20915 -159.79633 
L 206.043357 -163.535455 
L 207.877563 -155.247397 
L 209.71177 -167.879453 
L 211.545976 -163.655116 
L 213.380182 -145.273094 
L 215.214389 -144.482385 
L 217.048595 -163.551326 
L 218.882802 -138.912274 
L 220.717008 -142.898149 
L 222.551215 -159.200515 
L 224.385421 -171.415763 
L 226.219628 -145.417706 
L 228.053834 -163.520589 
L 229.888041 -149.842074 
L 231.722247 -184.286757 
L 233.556454 -171.829616 
L 235.39066 -177.121919 
L 237.224867 -191.199895 
L 239.059073 -186.085229 
L 240.89328 -162.820719 
L 242.727486 -149.351692 
L 244.561693 -147.366892 
L 246.395899 -165.914153 
L 248.230105 -151.425848 
L 250.064312 -155.549613 
L 251.898518 -130.30315 
L 253.732725 -151.468082 
L 255.566931 -154.945089 
L 257.401138 -159.827216 
L 259.235344 -166.793691 
L 261.069551 -166.825751 
L 262.903757 -159.79842 
L 264.737964 -163.658838 
L 266.57217 -146.204466 
L 268.406377 -157.539802 
L 270.240583 -148.823369 
L 272.07479 -137.672249 
L 273.908996 -150.86948 
L 275.743203 -156.883371 
L 277.577409 -146.439825 
L 279.411615 -157.963802 
L 281.245822 -183.397677 
L 283.080028 -164.254436 
L 284.914235 -155.848787 
L 286.748441 -151.719971 
L 288.582648 -155.330823 
L 290.416854 -157.520543 
L 292.251061 -142.435534 
L 294.085267 -177.112595 
L 295.919474 -151.867595 
L 297.75368 -175.497545 
L 299.587887 -138.898974 
L 301.422093 -150.406268 
L 303.2563 -147.645068 
L 305.090506 -167.87724 
L 306.924713 -160.047728 
L 308.758919 -163.999717 
L 310.593125 -160.761192 
L 312.427332 -154.0083 
L 314.261538 -160.118911 
L 316.095745 -160.817972 
L 317.929951 -150.124763 
L 319.764158 -154.047368 
L 321.598364 -157.493693 
L 323.432571 -157.961486 
L 325.266777 -146.320223 
L 327.100984 -170.412046 
L 328.93519 -151.46921 
L 330.769397 -176.013735 
L 332.603603 -172.022157 
L 334.43781 -142.626243 
L 336.272016 -162.213291 
L 338.106223 -150.331231 
L 339.940429 -147.706531 
L 341.774635 -145.558163 
L 343.608842 -162.379128 
L 345.443048 -187.373142 
L 347.277255 -155.509091 
L 349.111461 -147.156168 
L 350.945668 -165.817478 
L 352.779874 -152.570323 
L 354.614081 -152.205568 
L 356.448287 -152.884911 
L 358.282494 -173.625693 
L 360.1167 -165.465675 
L 361.950907 -157.926063 
L 363.785113 -161.363219 
L 365.61932 -177.569263 
L 367.453526 -151.898423 
L 369.287733 -175.910246 
L 371.121939 -177.013984 
L 372.956146 -158.75861 
L 374.790352 -179.662764 
L 376.624558 -164.350443 
L 378.458765 -152.895859 
L 380.292971 -139.879573 
L 382.127178 -158.158251 
L 383.961384 -139.77125 
L 385.795591 -149.612537 
L 387.629797 -162.974763 
L 389.464004 -150.882609 
L 391.29821 -166.622655 
L 391.29821 -179.941702 
L 391.29821 -179.941702 
L 389.464004 -167.19288 
L 387.629797 -185.61268 
L 385.795591 -163.262794 
L 383.961384 -162.729411 
L 382.127178 -175.668231 
L 380.292971 -162.872091 
L 378.458765 -171.380433 
L 376.624558 -184.999266 
L 374.790352 -193.324455 
L 372.956146 -176.331276 
L 371.121939 -186.93266 
L 369.287733 -195.67463 
L 367.453526 -170.183249 
L 365.61932 -197.492929 
L 363.785113 -178.493706 
L 361.950907 -171.867812 
L 360.1167 -175.072764 
L 358.282494 -197.500309 
L 356.448287 -183.55118 
L 354.614081 -170.819564 
L 352.779874 -172.459519 
L 350.945668 -182.86712 
L 349.111461 -160.162675 
L 347.277255 -177.15078 
L 345.443048 -208.884913 
L 343.608842 -178.987836 
L 341.774635 -175.881431 
L 339.940429 -185.860594 
L 338.106223 -167.726204 
L 336.272016 -183.894304 
L 334.43781 -160.685753 
L 332.603603 -203.636694 
L 330.769397 -186.930009 
L 328.93519 -186.139812 
L 327.100984 -177.787883 
L 325.266777 -171.670006 
L 323.432571 -187.227323 
L 321.598364 -179.772629 
L 319.764158 -188.593637 
L 317.929951 -173.381609 
L 316.095745 -178.50108 
L 314.261538 -185.948031 
L 312.427332 -176.459721 
L 310.593125 -187.51779 
L 308.758919 -178.987651 
L 306.924713 -171.99103 
L 305.090506 -187.384808 
L 303.2563 -168.622064 
L 301.422093 -169.66441 
L 299.587887 -195.367392 
L 297.75368 -205.395844 
L 295.919474 -169.881883 
L 294.085267 -188.808481 
L 292.251061 -154.258591 
L 290.416854 -175.019463 
L 288.582648 -168.988817 
L 286.748441 -174.671092 
L 284.914235 -177.834223 
L 283.080028 -188.737139 
L 281.245822 -193.881374 
L 279.411615 -174.21891 
L 277.577409 -171.4765 
L 275.743203 -192.153703 
L 273.908996 -160.760085 
L 272.07479 -149.345091 
L 270.240583 -181.291371 
L 268.406377 -182.872887 
L 266.57217 -173.673702 
L 264.737964 -203.588763 
L 262.903757 -185.339397 
L 261.069551 -190.367831 
L 259.235344 -186.761595 
L 257.401138 -187.656466 
L 255.566931 -180.421864 
L 253.732725 -185.688234 
L 251.898518 -162.661082 
L 250.064312 -175.792714 
L 248.230105 -192.348623 
L 246.395899 -188.164474 
L 244.561693 -177.943941 
L 242.727486 -182.760463 
L 240.89328 -190.888014 
L 239.059073 -251.045604 
L 237.224867 -231.240016 
L 235.39066 -188.429667 
L 233.556454 -194.913686 
L 231.722247 -238.817773 
L 229.888041 -184.332121 
L 228.053834 -187.101597 
L 226.219628 -186.277535 
L 224.385421 -196.969174 
L 222.551215 -185.645637 
L 220.717008 -183.702017 
L 218.882802 -186.130335 
L 217.048595 -188.680603 
L 215.214389 -167.550355 
L 213.380182 -171.351501 
L 211.545976 -187.536778 
L 209.71177 -183.342695 
L 207.877563 -180.329255 
L 206.043357 -217.556047 
L 204.20915 -195.917057 
L 202.374944 -165.354844 
L 200.540737 -216.339556 
L 198.706531 -209.103599 
L 196.872324 -260.330812 
L 195.038118 -206.337017 
L 193.203911 -247.371228 
L 191.369705 -250.93062 
L 189.535498 -214.086922 
L 187.701292 -189.515672 
L 185.867085 -220.517574 
L 184.032879 -191.247768 
L 182.198672 -248.253192 
L 180.364466 -214.822553 
L 178.53026 -207.533895 
L 176.696053 -226.216955 
L 174.861847 -210.762148 
L 173.02764 -233.87952 
L 171.193434 -279.703518 
L 169.359227 -242.937073 
L 167.525021 -259.188333 
L 165.690814 -229.786853 
L 163.856608 -231.976965 
L 162.022401 -225.118035 
L 160.188195 -207.869087 
L 158.353988 -215.146895 
L 156.519782 -223.38361 
L 154.685575 -235.521741 
L 152.851369 -151.915008 
L 151.017162 -151.490386 
L 149.182956 -164.377061 
L 147.34875 -110.626758 
L 145.514543 -135.771459 
L 143.680337 -111.154349 
L 141.84613 -100.714592 
L 140.011924 -90.008808 
L 138.177717 -110.725581 
L 136.343511 -102.366147 
L 134.509304 -128.583042 
L 132.675098 -110.757233 
L 130.840891 -132.994099 
L 129.006685 -150.293115 
L 127.172478 -115.392996 
L 125.338272 -187.656156 
L 123.504065 -141.435977 
L 121.669859 -114.438767 
L 119.835652 -158.401015 
L 118.001446 -104.649105 
L 116.16724 -103.098624 
L 114.333033 -116.536789 
L 112.498827 -141.751607 
L 110.66462 -108.248261 
L 108.830414 -109.597066 
L 106.996207 -122.491059 
L 105.162001 -123.75364 
L 103.327794 -102.00647 
L 101.493588 -124.047887 
L 99.659381 -143.721084 
L 97.825175 -123.623344 
L 95.990968 -129.135506 
L 94.156762 -97.508028 
L 92.322555 -126.898203 
L 90.488349 -155.881539 
L 88.654142 -146.661556 
L 86.819936 -101.405766 
L 84.985729 -140.191881 
L 83.151523 -172.263636 
L 81.317317 -192.694811 
L 79.48311 -165.042605 
L 77.648904 -135.069876 
L 75.814697 -83.36453 
L 73.980491 -171.909452 
L 72.146284 -209.539243 
L 70.312078 -125.067881 
L 68.477871 -291.850375 
L 66.643665 -278.026375 
z
" style="stroke: #ff7f0e; stroke-opacity: 0.3"/>
    </defs>
    <g clip-path="url(#pbe5a2f20fa)">
     <use xlink:href="#mf1e9204bb1" x="0" y="311.146375" style="fill: #ff7f0e; fill-opacity: 0.3; stroke: #ff7f0e; stroke-opacity: 0.3"/>
    </g>
   </g>
   <g id="matplotlib.axis_1">
    <g id="xtick_1">
     <g id="line2d_1">
      <defs>
       <path id="m089b4aaaf9" d="M 0 0 
L 0 3.5 
" style="stroke: #000000; stroke-width: 0.8"/>
      </defs>
      <g>
       <use xlink:href="#m089b4aaaf9" x="65.726562" y="273.312" style="stroke: #000000; stroke-width: 0.8"/>
      </g>
     </g>
     <g id="text_1">
      <!-- 0.0 -->
      <g transform="translate(57.774999 287.910437) scale(0.1 -0.1)">
       <defs>
        <path id="DejaVuSans-30" d="M 2034 4250 
Q 1547 4250 1301 3770 
Q 1056 3291 1056 2328 
Q 1056 1369 1301 889 
Q 1547 409 2034 409 
Q 2525 409 2770 889 
Q 3016 1369 3016 2328 
Q 3016 3291 2770 3770 
Q 2525 4250 2034 4250 
z
M 2034 4750 
Q 2819 4750 3233 4129 
Q 3647 3509 3647 2328 
Q 3647 1150 3233 529 
Q 2819 -91 2034 -91 
Q 1250 -91 836 529 
Q 422 1150 422 2328 
Q 422 3509 836 4129 
Q 1250 4750 2034 4750 
z
" transform="scale(0.015625)"/>
        <path id="DejaVuSans-2e" d="M 684 794 
L 1344 794 
L 1344 0 
L 684 0 
L 684 794 
z
" transform="scale(0.015625)"/>
       </defs>
       <use xlink:href="#DejaVuSans-30"/>
       <use xlink:href="#DejaVuSans-2e" transform="translate(63.623047 0)"/>
       <use xlink:href="#DejaVuSans-30" transform="translate(95.410156 0)"/>
      </g>
     </g>
    </g>
    <g id="xtick_2">
     <g id="line2d_2">
      <g>
       <use xlink:href="#m089b4aaaf9" x="111.581723" y="273.312" style="stroke: #000000; stroke-width: 0.8"/>
      </g>
     </g>
     <g id="text_2">
      <!-- 0.5 -->
      <g transform="translate(103.630161 287.910437) scale(0.1 -0.1)">
       <defs>
        <path id="DejaVuSans-35" d="M 691 4666 
L 3169 4666 
L 3169 4134 
L 1269 4134 
L 1269 2991 
Q 1406 3038 1543 3061 
Q 1681 3084 1819 3084 
Q 2600 3084 3056 2656 
Q 3513 2228 3513 1497 
Q 3513 744 3044 326 
Q 2575 -91 1722 -91 
Q 1428 -91 1123 -41 
Q 819 9 494 109 
L 494 744 
Q 775 591 1075 516 
Q 1375 441 1709 441 
Q 2250 441 2565 725 
Q 2881 1009 2881 1497 
Q 2881 1984 2565 2268 
Q 2250 2553 1709 2553 
Q 1456 2553 1204 2497 
Q 953 2441 691 2322 
L 691 4666 
z
" transform="scale(0.015625)"/>
       </defs>
       <use xlink:href="#DejaVuSans-30"/>
       <use xlink:href="#DejaVuSans-2e" transform="translate(63.623047 0)"/>
       <use xlink:href="#DejaVuSans-35" transform="translate(95.410156 0)"/>
      </g>
     </g>
    </g>
    <g id="xtick_3">
     <g id="line2d_3">
      <g>
       <use xlink:href="#m089b4aaaf9" x="157.436885" y="273.312" style="stroke: #000000; stroke-width: 0.8"/>
      </g>
     </g>
     <g id="text_3">
      <!-- 1.0 -->
      <g transform="translate(149.485323 287.910437) scale(0.1 -0.1)">
       <defs>
        <path id="DejaVuSans-31" d="M 794 531 
L 1825 531 
L 1825 4091 
L 703 3866 
L 703 4441 
L 1819 4666 
L 2450 4666 
L 2450 531 
L 3481 531 
L 3481 0 
L 794 0 
L 794 531 
z
" transform="scale(0.015625)"/>
       </defs>
       <use xlink:href="#DejaVuSans-31"/>
       <use xlink:href="#DejaVuSans-2e" transform="translate(63.623047 0)"/>
       <use xlink:href="#DejaVuSans-30" transform="translate(95.410156 0)"/>
      </g>
     </g>
    </g>
    <g id="xtick_4">
     <g id="line2d_4">
      <g>
       <use xlink:href="#m089b4aaaf9" x="203.292047" y="273.312" style="stroke: #000000; stroke-width: 0.8"/>
      </g>
     </g>
     <g id="text_4">
      <!-- 1.5 -->
      <g transform="translate(195.340484 287.910437) scale(0.1 -0.1)">
       <use xlink:href="#DejaVuSans-31"/>
       <use xlink:href="#DejaVuSans-2e" transform="translate(63.623047 0)"/>
       <use xlink:href="#DejaVuSans-35" transform="translate(95.410156 0)"/>
      </g>
     </g>
    </g>
    <g id="xtick_5">
     <g id="line2d_5">
      <g>
       <use xlink:href="#m089b4aaaf9" x="249.147209" y="273.312" style="stroke: #000000; stroke-width: 0.8"/>
      </g>
     </g>
     <g id="text_5">
      <!-- 2.0 -->
      <g transform="translate(241.195646 287.910437) scale(0.1 -0.1)">
       <defs>
        <path id="DejaVuSans-32" d="M 1228 531 
L 3431 531 
L 3431 0 
L 469 0 
L 469 531 
Q 828 903 1448 1529 
Q 2069 2156 2228 2338 
Q 2531 2678 2651 2914 
Q 2772 3150 2772 3378 
Q 2772 3750 2511 3984 
Q 2250 4219 1831 4219 
Q 1534 4219 1204 4116 
Q 875 4013 500 3803 
L 500 4441 
Q 881 4594 1212 4672 
Q 1544 4750 1819 4750 
Q 2544 4750 2975 4387 
Q 3406 4025 3406 3419 
Q 3406 3131 3298 2873 
Q 3191 2616 2906 2266 
Q 2828 2175 2409 1742 
Q 1991 1309 1228 531 
z
" transform="scale(0.015625)"/>
       </defs>
       <use xlink:href="#DejaVuSans-32"/>
       <use xlink:href="#DejaVuSans-2e" transform="translate(63.623047 0)"/>
       <use xlink:href="#DejaVuSans-30" transform="translate(95.410156 0)"/>
      </g>
     </g>
    </g>
    <g id="xtick_6">
     <g id="line2d_6">
      <g>
       <use xlink:href="#m089b4aaaf9" x="295.00237" y="273.312" style="stroke: #000000; stroke-width: 0.8"/>
      </g>
     </g>
     <g id="text_6">
      <!-- 2.5 -->
      <g transform="translate(287.050808 287.910437) scale(0.1 -0.1)">
       <use xlink:href="#DejaVuSans-32"/>
       <use xlink:href="#DejaVuSans-2e" transform="translate(63.623047 0)"/>
       <use xlink:href="#DejaVuSans-35" transform="translate(95.410156 0)"/>
      </g>
     </g>
    </g>
    <g id="xtick_7">
     <g id="line2d_7">
      <g>
       <use xlink:href="#m089b4aaaf9" x="340.857532" y="273.312" style="stroke: #000000; stroke-width: 0.8"/>
      </g>
     </g>
     <g id="text_7">
      <!-- 3.0 -->
      <g transform="translate(332.90597 287.910437) scale(0.1 -0.1)">
       <defs>
        <path id="DejaVuSans-33" d="M 2597 2516 
Q 3050 2419 3304 2112 
Q 3559 1806 3559 1356 
Q 3559 666 3084 287 
Q 2609 -91 1734 -91 
Q 1441 -91 1130 -33 
Q 819 25 488 141 
L 488 750 
Q 750 597 1062 519 
Q 1375 441 1716 441 
Q 2309 441 2620 675 
Q 2931 909 2931 1356 
Q 2931 1769 2642 2001 
Q 2353 2234 1838 2234 
L 1294 2234 
L 1294 2753 
L 1863 2753 
Q 2328 2753 2575 2939 
Q 2822 3125 2822 3475 
Q 2822 3834 2567 4026 
Q 2313 4219 1838 4219 
Q 1578 4219 1281 4162 
Q 984 4106 628 3988 
L 628 4550 
Q 988 4650 1302 4700 
Q 1616 4750 1894 4750 
Q 2613 4750 3031 4423 
Q 3450 4097 3450 3541 
Q 3450 3153 3228 2886 
Q 3006 2619 2597 2516 
z
" transform="scale(0.015625)"/>
       </defs>
       <use xlink:href="#DejaVuSans-33"/>
       <use xlink:href="#DejaVuSans-2e" transform="translate(63.623047 0)"/>
       <use xlink:href="#DejaVuSans-30" transform="translate(95.410156 0)"/>
      </g>
     </g>
    </g>
    <g id="xtick_8">
     <g id="line2d_8">
      <g>
       <use xlink:href="#m089b4aaaf9" x="386.712694" y="273.312" style="stroke: #000000; stroke-width: 0.8"/>
      </g>
     </g>
     <g id="text_8">
      <!-- 3.5 -->
      <g transform="translate(378.761132 287.910437) scale(0.1 -0.1)">
       <use xlink:href="#DejaVuSans-33"/>
       <use xlink:href="#DejaVuSans-2e" transform="translate(63.623047 0)"/>
       <use xlink:href="#DejaVuSans-35" transform="translate(95.410156 0)"/>
      </g>
     </g>
    </g>
    <g id="text_9">
     <!-- r_xy (reduced units) -->
     <g transform="translate(178.763125 301.588562) scale(0.1 -0.1)">
      <defs>
       <path id="DejaVuSans-72" d="M 2631 2963 
Q 2534 3019 2420 3045 
Q 2306 3072 2169 3072 
Q 1681 3072 1420 2755 
Q 1159 2438 1159 1844 
L 1159 0 
L 581 0 
L 581 3500 
L 1159 3500 
L 1159 2956 
Q 1341 3275 1631 3429 
Q 1922 3584 2338 3584 
Q 2397 3584 2469 3576 
Q 2541 3569 2628 3553 
L 2631 2963 
z
" transform="scale(0.015625)"/>
       <path id="DejaVuSans-5f" d="M 3263 -1063 
L 3263 -1509 
L -63 -1509 
L -63 -1063 
L 3263 -1063 
z
" transform="scale(0.015625)"/>
       <path id="DejaVuSans-78" d="M 3513 3500 
L 2247 1797 
L 3578 0 
L 2900 0 
L 1881 1375 
L 863 0 
L 184 0 
L 1544 1831 
L 300 3500 
L 978 3500 
L 1906 2253 
L 2834 3500 
L 3513 3500 
z
" transform="scale(0.015625)"/>
       <path id="DejaVuSans-79" d="M 2059 -325 
Q 1816 -950 1584 -1140 
Q 1353 -1331 966 -1331 
L 506 -1331 
L 506 -850 
L 844 -850 
Q 1081 -850 1212 -737 
Q 1344 -625 1503 -206 
L 1606 56 
L 191 3500 
L 800 3500 
L 1894 763 
L 2988 3500 
L 3597 3500 
L 2059 -325 
z
" transform="scale(0.015625)"/>
       <path id="DejaVuSans-20" transform="scale(0.015625)"/>
       <path id="DejaVuSans-28" d="M 1984 4856 
Q 1566 4138 1362 3434 
Q 1159 2731 1159 2009 
Q 1159 1288 1364 580 
Q 1569 -128 1984 -844 
L 1484 -844 
Q 1016 -109 783 600 
Q 550 1309 550 2009 
Q 550 2706 781 3412 
Q 1013 4119 1484 4856 
L 1984 4856 
z
" transform="scale(0.015625)"/>
       <path id="DejaVuSans-65" d="M 3597 1894 
L 3597 1613 
L 953 1613 
Q 991 1019 1311 708 
Q 1631 397 2203 397 
Q 2534 397 2845 478 
Q 3156 559 3463 722 
L 3463 178 
Q 3153 47 2828 -22 
Q 2503 -91 2169 -91 
Q 1331 -91 842 396 
Q 353 884 353 1716 
Q 353 2575 817 3079 
Q 1281 3584 2069 3584 
Q 2775 3584 3186 3129 
Q 3597 2675 3597 1894 
z
M 3022 2063 
Q 3016 2534 2758 2815 
Q 2500 3097 2075 3097 
Q 1594 3097 1305 2825 
Q 1016 2553 972 2059 
L 3022 2063 
z
" transform="scale(0.015625)"/>
       <path id="DejaVuSans-64" d="M 2906 2969 
L 2906 4863 
L 3481 4863 
L 3481 0 
L 2906 0 
L 2906 525 
Q 2725 213 2448 61 
Q 2172 -91 1784 -91 
Q 1150 -91 751 415 
Q 353 922 353 1747 
Q 353 2572 751 3078 
Q 1150 3584 1784 3584 
Q 2172 3584 2448 3432 
Q 2725 3281 2906 2969 
z
M 947 1747 
Q 947 1113 1208 752 
Q 1469 391 1925 391 
Q 2381 391 2643 752 
Q 2906 1113 2906 1747 
Q 2906 2381 2643 2742 
Q 2381 3103 1925 3103 
Q 1469 3103 1208 2742 
Q 947 2381 947 1747 
z
" transform="scale(0.015625)"/>
       <path id="DejaVuSans-75" d="M 544 1381 
L 544 3500 
L 1119 3500 
L 1119 1403 
Q 1119 906 1312 657 
Q 1506 409 1894 409 
Q 2359 409 2629 706 
Q 2900 1003 2900 1516 
L 2900 3500 
L 3475 3500 
L 3475 0 
L 2900 0 
L 2900 538 
Q 2691 219 2414 64 
Q 2138 -91 1772 -91 
Q 1169 -91 856 284 
Q 544 659 544 1381 
z
M 1991 3584 
L 1991 3584 
z
" transform="scale(0.015625)"/>
       <path id="DejaVuSans-63" d="M 3122 3366 
L 3122 2828 
Q 2878 2963 2633 3030 
Q 2388 3097 2138 3097 
Q 1578 3097 1268 2742 
Q 959 2388 959 1747 
Q 959 1106 1268 751 
Q 1578 397 2138 397 
Q 2388 397 2633 464 
Q 2878 531 3122 666 
L 3122 134 
Q 2881 22 2623 -34 
Q 2366 -91 2075 -91 
Q 1284 -91 818 406 
Q 353 903 353 1747 
Q 353 2603 823 3093 
Q 1294 3584 2113 3584 
Q 2378 3584 2631 3529 
Q 2884 3475 3122 3366 
z
" transform="scale(0.015625)"/>
       <path id="DejaVuSans-6e" d="M 3513 2113 
L 3513 0 
L 2938 0 
L 2938 2094 
Q 2938 2591 2744 2837 
Q 2550 3084 2163 3084 
Q 1697 3084 1428 2787 
Q 1159 2491 1159 1978 
L 1159 0 
L 581 0 
L 581 3500 
L 1159 3500 
L 1159 2956 
Q 1366 3272 1645 3428 
Q 1925 3584 2291 3584 
Q 2894 3584 3203 3211 
Q 3513 2838 3513 2113 
z
" transform="scale(0.015625)"/>
       <path id="DejaVuSans-69" d="M 603 3500 
L 1178 3500 
L 1178 0 
L 603 0 
L 603 3500 
z
M 603 4863 
L 1178 4863 
L 1178 4134 
L 603 4134 
L 603 4863 
z
" transform="scale(0.015625)"/>
       <path id="DejaVuSans-74" d="M 1172 4494 
L 1172 3500 
L 2356 3500 
L 2356 3053 
L 1172 3053 
L 1172 1153 
Q 1172 725 1289 603 
Q 1406 481 1766 481 
L 2356 481 
L 2356 0 
L 1766 0 
Q 1100 0 847 248 
Q 594 497 594 1153 
L 594 3053 
L 172 3053 
L 172 3500 
L 594 3500 
L 594 4494 
L 1172 4494 
z
" transform="scale(0.015625)"/>
       <path id="DejaVuSans-73" d="M 2834 3397 
L 2834 2853 
Q 2591 2978 2328 3040 
Q 2066 3103 1784 3103 
Q 1356 3103 1142 2972 
Q 928 2841 928 2578 
Q 928 2378 1081 2264 
Q 1234 2150 1697 2047 
L 1894 2003 
Q 2506 1872 2764 1633 
Q 3022 1394 3022 966 
Q 3022 478 2636 193 
Q 2250 -91 1575 -91 
Q 1294 -91 989 -36 
Q 684 19 347 128 
L 347 722 
Q 666 556 975 473 
Q 1284 391 1588 391 
Q 1994 391 2212 530 
Q 2431 669 2431 922 
Q 2431 1156 2273 1281 
Q 2116 1406 1581 1522 
L 1381 1569 
Q 847 1681 609 1914 
Q 372 2147 372 2553 
Q 372 3047 722 3315 
Q 1072 3584 1716 3584 
Q 2034 3584 2315 3537 
Q 2597 3491 2834 3397 
z
" transform="scale(0.015625)"/>
       <path id="DejaVuSans-29" d="M 513 4856 
L 1013 4856 
Q 1481 4119 1714 3412 
Q 1947 2706 1947 2009 
Q 1947 1309 1714 600 
Q 1481 -109 1013 -844 
L 513 -844 
Q 928 -128 1133 580 
Q 1338 1288 1338 2009 
Q 1338 2731 1133 3434 
Q 928 4138 513 4856 
z
" transform="scale(0.015625)"/>
      </defs>
      <use xlink:href="#DejaVuSans-72"/>
      <use xlink:href="#DejaVuSans-5f" transform="translate(41.113281 0)"/>
      <use xlink:href="#DejaVuSans-78" transform="translate(91.113281 0)"/>
      <use xlink:href="#DejaVuSans-79" transform="translate(150.292969 0)"/>
      <use xlink:href="#DejaVuSans-20" transform="translate(209.472656 0)"/>
      <use xlink:href="#DejaVuSans-28" transform="translate(241.259766 0)"/>
      <use xlink:href="#DejaVuSans-72" transform="translate(280.273438 0)"/>
      <use xlink:href="#DejaVuSans-65" transform="translate(319.136719 0)"/>
      <use xlink:href="#DejaVuSans-64" transform="translate(380.660156 0)"/>
      <use xlink:href="#DejaVuSans-75" transform="translate(444.136719 0)"/>
      <use xlink:href="#DejaVuSans-63" transform="translate(507.515625 0)"/>
      <use xlink:href="#DejaVuSans-65" transform="translate(562.496094 0)"/>
      <use xlink:href="#DejaVuSans-64" transform="translate(624.019531 0)"/>
      <use xlink:href="#DejaVuSans-20" transform="translate(687.496094 0)"/>
      <use xlink:href="#DejaVuSans-75" transform="translate(719.283203 0)"/>
      <use xlink:href="#DejaVuSans-6e" transform="translate(782.662109 0)"/>
      <use xlink:href="#DejaVuSans-69" transform="translate(846.041016 0)"/>
      <use xlink:href="#DejaVuSans-74" transform="translate(873.824219 0)"/>
      <use xlink:href="#DejaVuSans-73" transform="translate(913.033203 0)"/>
      <use xlink:href="#DejaVuSans-29" transform="translate(965.132812 0)"/>
     </g>
    </g>
   </g>
   <g id="matplotlib.axis_2">
    <g id="ytick_1">
     <g id="line2d_9">
      <defs>
       <path id="meff8e2524c" d="M 0 0 
L -3.5 0 
" style="stroke: #000000; stroke-width: 0.8"/>
      </defs>
      <g>
       <use xlink:href="#meff8e2524c" x="50.410938" y="261.216" style="stroke: #000000; stroke-width: 0.8"/>
      </g>
     </g>
     <g id="text_10">
      <!-- 0.00 -->
      <g transform="translate(21.145313 265.015219) scale(0.1 -0.1)">
       <use xlink:href="#DejaVuSans-30"/>
       <use xlink:href="#DejaVuSans-2e" transform="translate(63.623047 0)"/>
       <use xlink:href="#DejaVuSans-30" transform="translate(95.410156 0)"/>
       <use xlink:href="#DejaVuSans-30" transform="translate(159.033203 0)"/>
      </g>
     </g>
    </g>
    <g id="ytick_2">
     <g id="line2d_10">
      <g>
       <use xlink:href="#meff8e2524c" x="50.410938" y="231.531697" style="stroke: #000000; stroke-width: 0.8"/>
      </g>
     </g>
     <g id="text_11">
      <!-- 0.25 -->
      <g transform="translate(21.145313 235.330916) scale(0.1 -0.1)">
       <use xlink:href="#DejaVuSans-30"/>
       <use xlink:href="#DejaVuSans-2e" transform="translate(63.623047 0)"/>
       <use xlink:href="#DejaVuSans-32" transform="translate(95.410156 0)"/>
       <use xlink:href="#DejaVuSans-35" transform="translate(159.033203 0)"/>
      </g>
     </g>
    </g>
    <g id="ytick_3">
     <g id="line2d_11">
      <g>
       <use xlink:href="#meff8e2524c" x="50.410938" y="201.847395" style="stroke: #000000; stroke-width: 0.8"/>
      </g>
     </g>
     <g id="text_12">
      <!-- 0.50 -->
      <g transform="translate(21.145313 205.646614) scale(0.1 -0.1)">
       <use xlink:href="#DejaVuSans-30"/>
       <use xlink:href="#DejaVuSans-2e" transform="translate(63.623047 0)"/>
       <use xlink:href="#DejaVuSans-35" transform="translate(95.410156 0)"/>
       <use xlink:href="#DejaVuSans-30" transform="translate(159.033203 0)"/>
      </g>
     </g>
    </g>
    <g id="ytick_4">
     <g id="line2d_12">
      <g>
       <use xlink:href="#meff8e2524c" x="50.410938" y="172.163092" style="stroke: #000000; stroke-width: 0.8"/>
      </g>
     </g>
     <g id="text_13">
      <!-- 0.75 -->
      <g transform="translate(21.145313 175.962311) scale(0.1 -0.1)">
       <defs>
        <path id="DejaVuSans-37" d="M 525 4666 
L 3525 4666 
L 3525 4397 
L 1831 0 
L 1172 0 
L 2766 4134 
L 525 4134 
L 525 4666 
z
" transform="scale(0.015625)"/>
       </defs>
       <use xlink:href="#DejaVuSans-30"/>
       <use xlink:href="#DejaVuSans-2e" transform="translate(63.623047 0)"/>
       <use xlink:href="#DejaVuSans-37" transform="translate(95.410156 0)"/>
       <use xlink:href="#DejaVuSans-35" transform="translate(159.033203 0)"/>
      </g>
     </g>
    </g>
    <g id="ytick_5">
     <g id="line2d_13">
      <g>
       <use xlink:href="#meff8e2524c" x="50.410938" y="142.47879" style="stroke: #000000; stroke-width: 0.8"/>
      </g>
     </g>
     <g id="text_14">
      <!-- 1.00 -->
      <g transform="translate(21.145313 146.278009) scale(0.1 -0.1)">
       <use xlink:href="#DejaVuSans-31"/>
       <use xlink:href="#DejaVuSans-2e" transform="translate(63.623047 0)"/>
       <use xlink:href="#DejaVuSans-30" transform="translate(95.410156 0)"/>
       <use xlink:href="#DejaVuSans-30" transform="translate(159.033203 0)"/>
      </g>
     </g>
    </g>
    <g id="ytick_6">
     <g id="line2d_14">
      <g>
       <use xlink:href="#meff8e2524c" x="50.410938" y="112.794487" style="stroke: #000000; stroke-width: 0.8"/>
      </g>
     </g>
     <g id="text_15">
      <!-- 1.25 -->
      <g transform="translate(21.145313 116.593706) scale(0.1 -0.1)">
       <use xlink:href="#DejaVuSans-31"/>
       <use xlink:href="#DejaVuSans-2e" transform="translate(63.623047 0)"/>
       <use xlink:href="#DejaVuSans-32" transform="translate(95.410156 0)"/>
       <use xlink:href="#DejaVuSans-35" transform="translate(159.033203 0)"/>
      </g>
     </g>
    </g>
    <g id="ytick_7">
     <g id="line2d_15">
      <g>
       <use xlink:href="#meff8e2524c" x="50.410938" y="83.110185" style="stroke: #000000; stroke-width: 0.8"/>
      </g>
     </g>
     <g id="text_16">
      <!-- 1.50 -->
      <g transform="translate(21.145313 86.909403) scale(0.1 -0.1)">
       <use xlink:href="#DejaVuSans-31"/>
       <use xlink:href="#DejaVuSans-2e" transform="translate(63.623047 0)"/>
       <use xlink:href="#DejaVuSans-35" transform="translate(95.410156 0)"/>
       <use xlink:href="#DejaVuSans-30" transform="translate(159.033203 0)"/>
      </g>
     </g>
    </g>
    <g id="ytick_8">
     <g id="line2d_16">
      <g>
       <use xlink:href="#meff8e2524c" x="50.410938" y="53.425882" style="stroke: #000000; stroke-width: 0.8"/>
      </g>
     </g>
     <g id="text_17">
      <!-- 1.75 -->
      <g transform="translate(21.145313 57.225101) scale(0.1 -0.1)">
       <use xlink:href="#DejaVuSans-31"/>
       <use xlink:href="#DejaVuSans-2e" transform="translate(63.623047 0)"/>
       <use xlink:href="#DejaVuSans-37" transform="translate(95.410156 0)"/>
       <use xlink:href="#DejaVuSans-35" transform="translate(159.033203 0)"/>
      </g>
     </g>
    </g>
    <g id="ytick_9">
     <g id="line2d_17">
      <g>
       <use xlink:href="#meff8e2524c" x="50.410938" y="23.74158" style="stroke: #000000; stroke-width: 0.8"/>
      </g>
     </g>
     <g id="text_18">
      <!-- 2.00 -->
      <g transform="translate(21.145313 27.540798) scale(0.1 -0.1)">
       <use xlink:href="#DejaVuSans-32"/>
       <use xlink:href="#DejaVuSans-2e" transform="translate(63.623047 0)"/>
       <use xlink:href="#DejaVuSans-30" transform="translate(95.410156 0)"/>
       <use xlink:href="#DejaVuSans-30" transform="translate(159.033203 0)"/>
      </g>
     </g>
    </g>
    <g id="text_19">
     <!-- g_xy(r) -->
     <g transform="translate(14.7875 157.806) rotate(-90) scale(0.1 -0.1)">
      <defs>
       <path id="DejaVuSans-67" d="M 2906 1791 
Q 2906 2416 2648 2759 
Q 2391 3103 1925 3103 
Q 1463 3103 1205 2759 
Q 947 2416 947 1791 
Q 947 1169 1205 825 
Q 1463 481 1925 481 
Q 2391 481 2648 825 
Q 2906 1169 2906 1791 
z
M 3481 434 
Q 3481 -459 3084 -895 
Q 2688 -1331 1869 -1331 
Q 1566 -1331 1297 -1286 
Q 1028 -1241 775 -1147 
L 775 -588 
Q 1028 -725 1275 -790 
Q 1522 -856 1778 -856 
Q 2344 -856 2625 -561 
Q 2906 -266 2906 331 
L 2906 616 
Q 2728 306 2450 153 
Q 2172 0 1784 0 
Q 1141 0 747 490 
Q 353 981 353 1791 
Q 353 2603 747 3093 
Q 1141 3584 1784 3584 
Q 2172 3584 2450 3431 
Q 2728 3278 2906 2969 
L 2906 3500 
L 3481 3500 
L 3481 434 
z
" transform="scale(0.015625)"/>
      </defs>
      <use xlink:href="#DejaVuSans-67"/>
      <use xlink:href="#DejaVuSans-5f" transform="translate(63.476562 0)"/>
      <use xlink:href="#DejaVuSans-78" transform="translate(113.476562 0)"/>
      <use xlink:href="#DejaVuSans-79" transform="translate(172.65625 0)"/>
      <use xlink:href="#DejaVuSans-28" transform="translate(231.835938 0)"/>
      <use xlink:href="#DejaVuSans-72" transform="translate(270.849609 0)"/>
      <use xlink:href="#DejaVuSans-29" transform="translate(311.962891 0)"/>
     </g>
    </g>
   </g>
   <g id="line2d_18">
    <path d="M 66.643665 147.168 
L 68.477871 140.256 
L 70.312078 223.647247 
L 72.146284 173.173451 
L 73.980491 200.226462 
L 75.814697 240.48 
L 77.648904 204.932439 
L 79.48311 193.358118 
L 81.317317 173.158371 
L 83.151523 177.411498 
L 84.985729 194.226399 
L 86.819936 225.916254 
L 88.654142 193.770674 
L 90.488349 168.861128 
L 92.322555 215.615363 
L 94.156762 226.38801 
L 95.990968 203.706807 
L 97.825175 210.17021 
L 99.659381 190.934388 
L 101.493588 200.579891 
L 103.327794 221.96536 
L 105.162001 210.295897 
L 106.996207 205.814026 
L 108.830414 212.476496 
L 110.66462 217.667187 
L 112.498827 189.418701 
L 114.333033 208.752223 
L 116.16724 219.720391 
L 118.001446 222.581853 
L 119.835652 175.61523 
L 121.669859 215.490964 
L 123.504065 193.10564 
L 125.338272 156.137766 
L 127.172478 206.084131 
L 129.006685 180.229578 
L 130.840891 192.464585 
L 132.675098 211.801127 
L 134.509304 196.347956 
L 136.343511 217.619864 
L 138.177717 211.432433 
L 140.011924 227.843282 
L 141.84613 222.561815 
L 143.680337 210.76251 
L 145.514543 190.691594 
L 147.34875 211.259077 
L 149.182956 170.695234 
L 151.017162 173.401374 
L 152.851369 170.022736 
L 154.685575 114.292817 
L 156.519782 105.408329 
L 158.353988 117.84166 
L 160.188195 108.701363 
L 162.022401 112.248151 
L 163.856608 108.091788 
L 165.690814 95.649326 
L 167.525021 74.258242 
L 169.359227 106.292671 
L 171.193434 63.705086 
L 173.02764 104.942976 
L 174.861847 111.270998 
L 176.696053 97.718789 
L 178.53026 120.861015 
L 180.364466 121.183415 
L 182.198672 92.103902 
L 184.032879 143.137991 
L 185.867085 109.785801 
L 187.701292 144.925019 
L 189.535498 118.317 
L 191.369705 83.959327 
L 193.203911 94.044675 
L 195.038118 117.352607 
L 196.872324 84.588323 
L 198.706531 124.170195 
L 200.540737 112.920471 
L 202.374944 156.128296 
L 204.20915 133.289681 
L 206.043357 120.600624 
L 207.877563 143.358049 
L 209.71177 135.535301 
L 211.545976 135.550428 
L 213.380182 152.834077 
L 215.214389 155.130005 
L 217.048595 135.030411 
L 218.882802 148.625071 
L 220.717008 147.846292 
L 222.551215 138.723299 
L 224.385421 126.953906 
L 226.219628 145.298754 
L 228.053834 135.835282 
L 229.888041 144.059277 
L 231.722247 99.59411 
L 233.556454 127.774724 
L 235.39066 128.370582 
L 237.224867 99.926419 
L 239.059073 92.580958 
L 240.89328 134.292009 
L 242.727486 145.090297 
L 244.561693 148.490959 
L 246.395899 134.107061 
L 248.230105 139.25914 
L 250.064312 145.475212 
L 251.898518 164.664259 
L 253.732725 142.568217 
L 255.566931 143.462899 
L 257.401138 137.404534 
L 259.235344 134.368732 
L 261.069551 132.549584 
L 262.903757 138.577466 
L 264.737964 127.522574 
L 266.57217 151.207291 
L 268.406377 140.940031 
L 270.240583 146.089005 
L 272.07479 167.637705 
L 273.908996 155.331592 
L 275.743203 136.627838 
L 277.577409 152.188213 
L 279.411615 145.055019 
L 281.245822 122.506849 
L 283.080028 134.650588 
L 284.914235 144.30487 
L 286.748441 147.950844 
L 288.582648 148.986555 
L 290.416854 144.876372 
L 292.251061 162.799312 
L 294.085267 128.185837 
L 295.919474 150.271636 
L 297.75368 120.699681 
L 299.587887 144.013192 
L 301.422093 151.111036 
L 303.2563 153.012809 
L 305.090506 133.515351 
L 306.924713 145.126996 
L 308.758919 139.652691 
L 310.593125 137.006884 
L 312.427332 145.912365 
L 314.261538 138.112904 
L 316.095745 141.486849 
L 317.929951 149.393189 
L 319.764158 139.825872 
L 321.598364 142.513214 
L 323.432571 138.551971 
L 325.266777 152.151261 
L 327.100984 137.04641 
L 328.93519 142.341864 
L 330.769397 129.674503 
L 332.603603 123.31695 
L 334.43781 159.490377 
L 336.272016 138.092578 
L 338.106223 152.117658 
L 339.940429 144.362813 
L 341.774635 150.426578 
L 343.608842 140.462893 
L 345.443048 113.017348 
L 347.277255 144.816439 
L 349.111461 157.486953 
L 350.945668 136.804076 
L 352.779874 148.631454 
L 354.614081 149.633809 
L 356.448287 142.928329 
L 358.282494 125.583374 
L 360.1167 140.877155 
L 361.950907 146.249437 
L 363.785113 141.217912 
L 365.61932 123.615279 
L 367.453526 150.105539 
L 369.287733 125.353937 
L 371.121939 129.173053 
L 372.956146 143.601432 
L 374.790352 124.652765 
L 380.292971 159.770543 
L 382.127178 144.233134 
L 383.961384 159.896044 
L 385.795591 154.70871 
L 387.629797 136.852653 
L 389.464004 152.10863 
L 391.29821 137.864197 
L 391.29821 137.864197 
" clip-path="url(#pbe5a2f20fa)" style="fill: none; stroke: #ff7f0e; stroke-width: 1.5; stroke-linecap: square"/>
   </g>
   <g id="line2d_19">
    <path d="M 50.410938 142.47879 
L 407.530938 142.47879 
" clip-path="url(#pbe5a2f20fa)" style="fill: none; stroke-dasharray: 5.55,2.4; stroke-dashoffset: 0; stroke: #000000; stroke-opacity: 0.4; stroke-width: 1.5"/>
   </g>
   <g id="patch_3">
    <path d="M 50.410938 273.312 
L 50.410938 7.2 
" style="fill: none; stroke: #000000; stroke-width: 0.8; stroke-linejoin: miter; stroke-linecap: square"/>
   </g>
   <g id="patch_4">
    <path d="M 407.530938 273.312 
L 407.530938 7.2 
" style="fill: none; stroke: #000000; stroke-width: 0.8; stroke-linejoin: miter; stroke-linecap: square"/>
   </g>
   <g id="patch_5">
    <path d="M 50.410937 273.312 
L 407.530938 273.312 
" style="fill: none; stroke: #000000; stroke-width: 0.8; stroke-linejoin: miter; stroke-linecap: square"/>
   </g>
   <g id="patch_6">
    <path d="M 50.410937 7.2 
L 407.530938 7.2 
" style="fill: none; stroke: #000000; stroke-width: 0.8; stroke-linejoin: miter; stroke-linecap: square"/>
   </g>
   <g id="legend_1">
    <g id="patch_7">
     <path d="M 334.37 44.55625 
L 400.530938 44.55625 
Q 402.530938 44.55625 402.530938 42.55625 
L 402.530938 14.2 
Q 402.530938 12.2 400.530938 12.2 
L 334.37 12.2 
Q 332.37 12.2 332.37 14.2 
L 332.37 42.55625 
Q 332.37 44.55625 334.37 44.55625 
z
" style="fill: #ffffff; opacity: 0.8; stroke: #cccccc; stroke-linejoin: miter"/>
    </g>
    <g id="line2d_20">
     <path d="M 336.37 20.298437 
L 346.37 20.298437 
L 356.37 20.298437 
" style="fill: none; stroke: #ff7f0e; stroke-width: 1.5; stroke-linecap: square"/>
    </g>
    <g id="text_20">
     <!-- Mean -->
     <g transform="translate(364.37 23.798437) scale(0.1 -0.1)">
      <defs>
       <path id="DejaVuSans-4d" d="M 628 4666 
L 1569 4666 
L 2759 1491 
L 3956 4666 
L 4897 4666 
L 4897 0 
L 4281 0 
L 4281 4097 
L 3078 897 
L 2444 897 
L 1241 4097 
L 1241 0 
L 628 0 
L 628 4666 
z
" transform="scale(0.015625)"/>
       <path id="DejaVuSans-61" d="M 2194 1759 
Q 1497 1759 1228 1600 
Q 959 1441 959 1056 
Q 959 750 1161 570 
Q 1363 391 1709 391 
Q 2188 391 2477 730 
Q 2766 1069 2766 1631 
L 2766 1759 
L 2194 1759 
z
M 3341 1997 
L 3341 0 
L 2766 0 
L 2766 531 
Q 2569 213 2275 61 
Q 1981 -91 1556 -91 
Q 1019 -91 701 211 
Q 384 513 384 1019 
Q 384 1609 779 1909 
Q 1175 2209 1959 2209 
L 2766 2209 
L 2766 2266 
Q 2766 2663 2505 2880 
Q 2244 3097 1772 3097 
Q 1472 3097 1187 3025 
Q 903 2953 641 2809 
L 641 3341 
Q 956 3463 1253 3523 
Q 1550 3584 1831 3584 
Q 2591 3584 2966 3190 
Q 3341 2797 3341 1997 
z
" transform="scale(0.015625)"/>
      </defs>
      <use xlink:href="#DejaVuSans-4d"/>
      <use xlink:href="#DejaVuSans-65" transform="translate(86.279297 0)"/>
      <use xlink:href="#DejaVuSans-61" transform="translate(147.802734 0)"/>
      <use xlink:href="#DejaVuSans-6e" transform="translate(209.082031 0)"/>
     </g>
    </g>
    <g id="patch_8">
     <path d="M 336.37 38.476562 
L 356.37 38.476562 
L 356.37 31.476562 
L 336.37 31.476562 
z
" style="fill: #ff7f0e; fill-opacity: 0.3; stroke: #ff7f0e; stroke-opacity: 0.3; stroke-linejoin: miter"/>
    </g>
    <g id="text_21">
     <!-- Std Err -->
     <g transform="translate(364.37 38.476562) scale(0.1 -0.1)">
      <defs>
       <path id="DejaVuSans-53" d="M 3425 4513 
L 3425 3897 
Q 3066 4069 2747 4153 
Q 2428 4238 2131 4238 
Q 1616 4238 1336 4038 
Q 1056 3838 1056 3469 
Q 1056 3159 1242 3001 
Q 1428 2844 1947 2747 
L 2328 2669 
Q 3034 2534 3370 2195 
Q 3706 1856 3706 1288 
Q 3706 609 3251 259 
Q 2797 -91 1919 -91 
Q 1588 -91 1214 -16 
Q 841 59 441 206 
L 441 856 
Q 825 641 1194 531 
Q 1563 422 1919 422 
Q 2459 422 2753 634 
Q 3047 847 3047 1241 
Q 3047 1584 2836 1778 
Q 2625 1972 2144 2069 
L 1759 2144 
Q 1053 2284 737 2584 
Q 422 2884 422 3419 
Q 422 4038 858 4394 
Q 1294 4750 2059 4750 
Q 2388 4750 2728 4690 
Q 3069 4631 3425 4513 
z
" transform="scale(0.015625)"/>
       <path id="DejaVuSans-45" d="M 628 4666 
L 3578 4666 
L 3578 4134 
L 1259 4134 
L 1259 2753 
L 3481 2753 
L 3481 2222 
L 1259 2222 
L 1259 531 
L 3634 531 
L 3634 0 
L 628 0 
L 628 4666 
z
" transform="scale(0.015625)"/>
      </defs>
      <use xlink:href="#DejaVuSans-53"/>
      <use xlink:href="#DejaVuSans-74" transform="translate(63.476562 0)"/>
      <use xlink:href="#DejaVuSans-64" transform="translate(102.685547 0)"/>
      <use xlink:href="#DejaVuSans-20" transform="translate(166.162109 0)"/>
      <use xlink:href="#DejaVuSans-45" transform="translate(197.949219 0)"/>
      <use xlink:href="#DejaVuSans-72" transform="translate(261.132812 0)"/>
      <use xlink:href="#DejaVuSans-72" transform="translate(300.496094 0)"/>
     </g>
    </g>
   </g>
  </g>
 </g>
 <defs>
  <clipPath id="pbe5a2f20fa">
   <rect x="50.410938" y="7.2" width="357.12" height="266.112"/>
  </clipPath>
 </defs>
</svg>
