<?xml version="1.0" encoding="utf-8" standalone="no"?>
<!DOCTYPE svg PUBLIC "-//W3C//DTD SVG 1.1//EN"
  "http://www.w3.org/Graphics/SVG/1.1/DTD/svg11.dtd">
<svg xmlns:xlink="http://www.w3.org/1999/xlink" width="408.379375pt" height="311.190125pt" viewBox="0 0 408.379375 311.190125" xmlns="http://www.w3.org/2000/svg" version="1.1">
 <metadata>
  <rdf:RDF xmlns:dc="http://purl.org/dc/elements/1.1/" xmlns:cc="http://creativecommons.org/ns#" xmlns:rdf="http://www.w3.org/1999/02/22-rdf-syntax-ns#">
   <cc:Work>
    <dc:type rdf:resource="http://purl.org/dc/dcmitype/StillImage"/>
    <dc:date>2025-12-11T12:44:33.571846</dc:date>
    <dc:format>image/svg+xml</dc:format>
    <dc:creator>
     <cc:Agent>
      <dc:title>Matplotlib v3.10.5, https://matplotlib.org/</dc:title>
     </cc:Agent>
    </dc:creator>
   </cc:Work>
  </rdf:RDF>
 </metadata>
 <defs>
  <style type="text/css">*{stroke-linejoin: round; stroke-linecap: butt}</style>
 </defs>
 <g id="figure_1">
  <g id="patch_1">
   <path d="M 0 311.190125 
L 408.379375 311.190125 
L 408.379375 0 
L 0 0 
z
" style="fill: #ffffff"/>
  </g>
  <g id="axes_1">
   <g id="patch_2">
    <path d="M 44.059375 273.312 
L 401.179375 273.312 
L 401.179375 7.2 
L 44.059375 7.2 
z
" style="fill: #ffffff"/>
   </g>
   <g id="FillBetweenPolyCollection_1">
    <defs>
     <path id="m6f0b57def4" d="M 60.292102 -66.528947 
L 60.292102 -53.555407 
L 66.944997 -57.010396 
L 76.353611 -49.974125 
L 80.145219 -61.527372 
L 89.659401 -59.177884 
L 92.41512 -73.742514 
L 95.021544 -62.341954 
L 102.141187 -74.789308 
L 108.476629 -74.893894 
L 110.453891 -73.865109 
L 112.373804 -69.057829 
L 116.059845 -85.404559 
L 124.538137 -107.438145 
L 126.12854 -102.176544 
L 130.724465 -126.276009 
L 135.088208 -134.56301 
L 137.884479 -141.438964 
L 140.599646 -172.073271 
L 141.928938 -123.816505 
L 145.812494 -158.89835 
L 147.07443 -157.216355 
L 151.97447 -181.519239 
L 156.661155 -254.229839 
L 157.802612 -224.600174 
L 160.051781 -215.043317 
L 161.160143 -246.175235 
L 166.5514 -204.801918 
L 169.674987 -209.964789 
L 172.722664 -202.736555 
L 173.722617 -173.255146 
L 176.677188 -160.178272 
L 180.517015 -115.371432 
L 181.460185 -128.557082 
L 182.396917 -122.291135 
L 187.889096 -112.732897 
L 188.784173 -101.292201 
L 189.673742 -113.270582 
L 192.310388 -122.248223 
L 195.754565 -100.504317 
L 196.603445 -99.315848 
L 202.41811 -87.09471 
L 203.231419 -100.599386 
L 204.845682 -101.072943 
L 205.646759 -93.243069 
L 208.026487 -95.377977 
L 209.593948 -103.732753 
L 211.917669 -99.870468 
L 214.966774 -121.030092 
L 217.218338 -108.214559 
L 217.962374 -113.294658 
L 220.907191 -148.553481 
L 221.635757 -108.926922 
L 223.803721 -114.369211 
L 225.945822 -109.760089 
L 227.35997 -133.274087 
L 231.538364 -122.016088 
L 232.225734 -141.43517 
L 236.968699 -154.299334 
L 237.636771 -147.454354 
L 238.302543 -141.202412 
L 239.627282 -158.877517 
L 240.286294 -153.771327 
L 242.900486 -169.926592 
L 245.480722 -151.080135 
L 247.394396 -166.786648 
L 248.660226 -172.828627 
L 249.918266 -156.544586 
L 253.030208 -160.90968 
L 253.647047 -162.868361 
L 255.486759 -170.139354 
L 258.517849 -172.720772 
L 259.718347 -156.012237 
L 260.316095 -163.079247 
L 262.690732 -172.81518 
L 267.364205 -169.555744 
L 267.941525 -167.735467 
L 269.091717 -154.792597 
L 269.664612 -153.755026 
L 271.37463 -178.208206 
L 272.507525 -165.725377 
L 274.196403 -171.873629 
L 275.872968 -156.799211 
L 278.089692 -183.468745 
L 281.375929 -148.428079 
L 283.002088 -162.802972 
L 285.153226 -155.105056 
L 285.688016 -150.902854 
L 287.285326 -161.116514 
L 288.872207 -145.477797 
L 289.398885 -150.17654 
L 289.924434 -142.48958 
L 293.572262 -154.964312 
L 294.089033 -128.683627 
L 295.119382 -137.984387 
L 295.632972 -142.280606 
L 298.185346 -125.69427 
L 303.214642 -126.144105 
L 303.71221 -124.98095 
L 305.693014 -126.219527 
L 307.658925 -130.979156 
L 310.095871 -110.114143 
L 311.547376 -120.317364 
L 316.803437 -120.386029 
L 317.276244 -126.306313 
L 317.748233 -121.52593 
L 320.56324 -131.832271 
L 325.192249 -135.547219 
L 328.387692 -130.044005 
L 330.197628 -137.419548 
L 333.783562 -137.756467 
L 339.51784 -128.939521 
L 340.390183 -143.829054 
L 342.991928 -148.259451 
L 351.085289 -140.416438 
L 352.762103 -148.850143 
L 362.232244 -161.024246 
L 363.042441 -158.469049 
L 373.785202 -144.727348 
L 384.946648 -154.351955 
L 384.946648 -183.717176 
L 384.946648 -183.717176 
L 373.785202 -170.769002 
L 363.042441 -171.827417 
L 362.232244 -186.120044 
L 352.762103 -160.51797 
L 351.085289 -157.843966 
L 342.991928 -166.19139 
L 340.390183 -153.532334 
L 339.51784 -154.096573 
L 333.783562 -154.22561 
L 330.197628 -144.967348 
L 328.387692 -145.902878 
L 325.192249 -149.012515 
L 320.56324 -147.237361 
L 317.748233 -131.371163 
L 317.276244 -143.194912 
L 316.803437 -146.989845 
L 311.547376 -129.456937 
L 310.095871 -126.185312 
L 307.658925 -141.863279 
L 305.693014 -138.520342 
L 303.71221 -144.009299 
L 303.214642 -133.209169 
L 298.185346 -138.715152 
L 295.632972 -154.177525 
L 295.119382 -145.383826 
L 294.089033 -169.116985 
L 293.572262 -171.800545 
L 289.924434 -163.910814 
L 289.398885 -168.225286 
L 288.872207 -161.508384 
L 287.285326 -174.719394 
L 285.688016 -164.775617 
L 285.153226 -164.15357 
L 283.002088 -176.78311 
L 281.375929 -166.87338 
L 278.089692 -210.149333 
L 275.872968 -179.721896 
L 274.196403 -184.983141 
L 272.507525 -194.777697 
L 271.37463 -187.845775 
L 269.664612 -174.747876 
L 269.091717 -193.527962 
L 267.941525 -197.259434 
L 267.364205 -183.207699 
L 262.690732 -194.782964 
L 260.316095 -185.400138 
L 259.718347 -173.66792 
L 258.517849 -203.693245 
L 255.486759 -182.213281 
L 253.647047 -181.126593 
L 253.030208 -182.884186 
L 249.918266 -178.834169 
L 248.660226 -206.339249 
L 247.394396 -189.713495 
L 245.480722 -174.46249 
L 242.900486 -194.690122 
L 240.286294 -168.213428 
L 239.627282 -187.852259 
L 238.302543 -151.51556 
L 237.636771 -173.500555 
L 236.968699 -183.23554 
L 232.225734 -159.679262 
L 231.538364 -135.968495 
L 227.35997 -146.41152 
L 225.945822 -123.394794 
L 223.803721 -122.03899 
L 221.635757 -113.122639 
L 220.907191 -165.286592 
L 217.962374 -123.711892 
L 217.218338 -131.175359 
L 214.966774 -131.803556 
L 211.917669 -108.825468 
L 209.593948 -118.15996 
L 208.026487 -106.763603 
L 205.646759 -110.906329 
L 204.845682 -110.893272 
L 203.231419 -110.60995 
L 202.41811 -98.584594 
L 196.603445 -117.239187 
L 195.754565 -112.284154 
L 192.310388 -135.203514 
L 189.673742 -141.914493 
L 188.784173 -124.45106 
L 187.889096 -143.393292 
L 182.396917 -135.915047 
L 181.460185 -146.457272 
L 180.517015 -157.559033 
L 176.677188 -189.287175 
L 173.722617 -192.211134 
L 172.722664 -279.059285 
L 169.674987 -246.04036 
L 166.5514 -261.970451 
L 161.160143 -291.894125 
L 160.051781 -284.321453 
L 157.802612 -285.688268 
L 156.661155 -281.432664 
L 151.97447 -231.472446 
L 147.07443 -178.195526 
L 145.812494 -201.835398 
L 141.928938 -144.505415 
L 140.599646 -238.946831 
L 137.884479 -162.40967 
L 135.088208 -200.467482 
L 130.724465 -154.503592 
L 126.12854 -145.803761 
L 124.538137 -125.110876 
L 116.059845 -91.736545 
L 112.373804 -89.523904 
L 110.453891 -104.749755 
L 108.476629 -97.091913 
L 102.141187 -88.796414 
L 95.021544 -75.384595 
L 92.41512 -87.719977 
L 89.659401 -76.656685 
L 80.145219 -69.249668 
L 76.353611 -85.299579 
L 66.944997 -66.326557 
L 60.292102 -66.528947 
z
" style="stroke: #ff7f0e; stroke-opacity: 0.3"/>
    </defs>
    <g clip-path="url(#p8fea5d3403)">
     <use xlink:href="#m6f0b57def4" x="0" y="311.190125" style="fill: #ff7f0e; fill-opacity: 0.3; stroke: #ff7f0e; stroke-opacity: 0.3"/>
    </g>
   </g>
   <g id="matplotlib.axis_1">
    <g id="xtick_1">
     <g id="line2d_1">
      <defs>
       <path id="m2935b80541" d="M 0 0 
L 0 3.5 
" style="stroke: #000000; stroke-width: 0.8"/>
      </defs>
      <g>
       <use xlink:href="#m2935b80541" x="44.230593" y="273.312" style="stroke: #000000; stroke-width: 0.8"/>
      </g>
     </g>
     <g id="text_1">
      <!-- 0.0 -->
      <g transform="translate(36.279031 287.910437) scale(0.1 -0.1)">
       <defs>
        <path id="DejaVuSans-30" d="M 2034 4250 
Q 1547 4250 1301 3770 
Q 1056 3291 1056 2328 
Q 1056 1369 1301 889 
Q 1547 409 2034 409 
Q 2525 409 2770 889 
Q 3016 1369 3016 2328 
Q 3016 3291 2770 3770 
Q 2525 4250 2034 4250 
z
M 2034 4750 
Q 2819 4750 3233 4129 
Q 3647 3509 3647 2328 
Q 3647 1150 3233 529 
Q 2819 -91 2034 -91 
Q 1250 -91 836 529 
Q 422 1150 422 2328 
Q 422 3509 836 4129 
Q 1250 4750 2034 4750 
z
" transform="scale(0.015625)"/>
        <path id="DejaVuSans-2e" d="M 684 794 
L 1344 794 
L 1344 0 
L 684 0 
L 684 794 
z
" transform="scale(0.015625)"/>
       </defs>
       <use xlink:href="#DejaVuSans-30"/>
       <use xlink:href="#DejaVuSans-2e" transform="translate(63.623047 0)"/>
       <use xlink:href="#DejaVuSans-30" transform="translate(95.410156 0)"/>
      </g>
     </g>
    </g>
    <g id="xtick_2">
     <g id="line2d_2">
      <g>
       <use xlink:href="#m2935b80541" x="89.732173" y="273.312" style="stroke: #000000; stroke-width: 0.8"/>
      </g>
     </g>
     <g id="text_2">
      <!-- 2.5 -->
      <g transform="translate(81.780611 287.910437) scale(0.1 -0.1)">
       <defs>
        <path id="DejaVuSans-32" d="M 1228 531 
L 3431 531 
L 3431 0 
L 469 0 
L 469 531 
Q 828 903 1448 1529 
Q 2069 2156 2228 2338 
Q 2531 2678 2651 2914 
Q 2772 3150 2772 3378 
Q 2772 3750 2511 3984 
Q 2250 4219 1831 4219 
Q 1534 4219 1204 4116 
Q 875 4013 500 3803 
L 500 4441 
Q 881 4594 1212 4672 
Q 1544 4750 1819 4750 
Q 2544 4750 2975 4387 
Q 3406 4025 3406 3419 
Q 3406 3131 3298 2873 
Q 3191 2616 2906 2266 
Q 2828 2175 2409 1742 
Q 1991 1309 1228 531 
z
" transform="scale(0.015625)"/>
        <path id="DejaVuSans-35" d="M 691 4666 
L 3169 4666 
L 3169 4134 
L 1269 4134 
L 1269 2991 
Q 1406 3038 1543 3061 
Q 1681 3084 1819 3084 
Q 2600 3084 3056 2656 
Q 3513 2228 3513 1497 
Q 3513 744 3044 326 
Q 2575 -91 1722 -91 
Q 1428 -91 1123 -41 
Q 819 9 494 109 
L 494 744 
Q 775 591 1075 516 
Q 1375 441 1709 441 
Q 2250 441 2565 725 
Q 2881 1009 2881 1497 
Q 2881 1984 2565 2268 
Q 2250 2553 1709 2553 
Q 1456 2553 1204 2497 
Q 953 2441 691 2322 
L 691 4666 
z
" transform="scale(0.015625)"/>
       </defs>
       <use xlink:href="#DejaVuSans-32"/>
       <use xlink:href="#DejaVuSans-2e" transform="translate(63.623047 0)"/>
       <use xlink:href="#DejaVuSans-35" transform="translate(95.410156 0)"/>
      </g>
     </g>
    </g>
    <g id="xtick_3">
     <g id="line2d_3">
      <g>
       <use xlink:href="#m2935b80541" x="135.233753" y="273.312" style="stroke: #000000; stroke-width: 0.8"/>
      </g>
     </g>
     <g id="text_3">
      <!-- 5.0 -->
      <g transform="translate(127.28219 287.910437) scale(0.1 -0.1)">
       <use xlink:href="#DejaVuSans-35"/>
       <use xlink:href="#DejaVuSans-2e" transform="translate(63.623047 0)"/>
       <use xlink:href="#DejaVuSans-30" transform="translate(95.410156 0)"/>
      </g>
     </g>
    </g>
    <g id="xtick_4">
     <g id="line2d_4">
      <g>
       <use xlink:href="#m2935b80541" x="180.735333" y="273.312" style="stroke: #000000; stroke-width: 0.8"/>
      </g>
     </g>
     <g id="text_4">
      <!-- 7.5 -->
      <g transform="translate(172.78377 287.910437) scale(0.1 -0.1)">
       <defs>
        <path id="DejaVuSans-37" d="M 525 4666 
L 3525 4666 
L 3525 4397 
L 1831 0 
L 1172 0 
L 2766 4134 
L 525 4134 
L 525 4666 
z
" transform="scale(0.015625)"/>
       </defs>
       <use xlink:href="#DejaVuSans-37"/>
       <use xlink:href="#DejaVuSans-2e" transform="translate(63.623047 0)"/>
       <use xlink:href="#DejaVuSans-35" transform="translate(95.410156 0)"/>
      </g>
     </g>
    </g>
    <g id="xtick_5">
     <g id="line2d_5">
      <g>
       <use xlink:href="#m2935b80541" x="226.236912" y="273.312" style="stroke: #000000; stroke-width: 0.8"/>
      </g>
     </g>
     <g id="text_5">
      <!-- 10.0 -->
      <g transform="translate(215.1041 287.910437) scale(0.1 -0.1)">
       <defs>
        <path id="DejaVuSans-31" d="M 794 531 
L 1825 531 
L 1825 4091 
L 703 3866 
L 703 4441 
L 1819 4666 
L 2450 4666 
L 2450 531 
L 3481 531 
L 3481 0 
L 794 0 
L 794 531 
z
" transform="scale(0.015625)"/>
       </defs>
       <use xlink:href="#DejaVuSans-31"/>
       <use xlink:href="#DejaVuSans-30" transform="translate(63.623047 0)"/>
       <use xlink:href="#DejaVuSans-2e" transform="translate(127.246094 0)"/>
       <use xlink:href="#DejaVuSans-30" transform="translate(159.033203 0)"/>
      </g>
     </g>
    </g>
    <g id="xtick_6">
     <g id="line2d_6">
      <g>
       <use xlink:href="#m2935b80541" x="271.738492" y="273.312" style="stroke: #000000; stroke-width: 0.8"/>
      </g>
     </g>
     <g id="text_6">
      <!-- 12.5 -->
      <g transform="translate(260.60568 287.910437) scale(0.1 -0.1)">
       <use xlink:href="#DejaVuSans-31"/>
       <use xlink:href="#DejaVuSans-32" transform="translate(63.623047 0)"/>
       <use xlink:href="#DejaVuSans-2e" transform="translate(127.246094 0)"/>
       <use xlink:href="#DejaVuSans-35" transform="translate(159.033203 0)"/>
      </g>
     </g>
    </g>
    <g id="xtick_7">
     <g id="line2d_7">
      <g>
       <use xlink:href="#m2935b80541" x="317.240072" y="273.312" style="stroke: #000000; stroke-width: 0.8"/>
      </g>
     </g>
     <g id="text_7">
      <!-- 15.0 -->
      <g transform="translate(306.107259 287.910437) scale(0.1 -0.1)">
       <use xlink:href="#DejaVuSans-31"/>
       <use xlink:href="#DejaVuSans-35" transform="translate(63.623047 0)"/>
       <use xlink:href="#DejaVuSans-2e" transform="translate(127.246094 0)"/>
       <use xlink:href="#DejaVuSans-30" transform="translate(159.033203 0)"/>
      </g>
     </g>
    </g>
    <g id="xtick_8">
     <g id="line2d_8">
      <g>
       <use xlink:href="#m2935b80541" x="362.741651" y="273.312" style="stroke: #000000; stroke-width: 0.8"/>
      </g>
     </g>
     <g id="text_8">
      <!-- 17.5 -->
      <g transform="translate(351.608839 287.910437) scale(0.1 -0.1)">
       <use xlink:href="#DejaVuSans-31"/>
       <use xlink:href="#DejaVuSans-37" transform="translate(63.623047 0)"/>
       <use xlink:href="#DejaVuSans-2e" transform="translate(127.246094 0)"/>
       <use xlink:href="#DejaVuSans-35" transform="translate(159.033203 0)"/>
      </g>
     </g>
    </g>
    <g id="text_9">
     <!-- |k_xy| (reduced units) -->
     <g transform="translate(168.202969 301.632312) scale(0.1 -0.1)">
      <defs>
       <path id="DejaVuSans-7c" d="M 1344 4891 
L 1344 -1509 
L 813 -1509 
L 813 4891 
L 1344 4891 
z
" transform="scale(0.015625)"/>
       <path id="DejaVuSans-6b" d="M 581 4863 
L 1159 4863 
L 1159 1991 
L 2875 3500 
L 3609 3500 
L 1753 1863 
L 3688 0 
L 2938 0 
L 1159 1709 
L 1159 0 
L 581 0 
L 581 4863 
z
" transform="scale(0.015625)"/>
       <path id="DejaVuSans-5f" d="M 3263 -1063 
L 3263 -1509 
L -63 -1509 
L -63 -1063 
L 3263 -1063 
z
" transform="scale(0.015625)"/>
       <path id="DejaVuSans-78" d="M 3513 3500 
L 2247 1797 
L 3578 0 
L 2900 0 
L 1881 1375 
L 863 0 
L 184 0 
L 1544 1831 
L 300 3500 
L 978 3500 
L 1906 2253 
L 2834 3500 
L 3513 3500 
z
" transform="scale(0.015625)"/>
       <path id="DejaVuSans-79" d="M 2059 -325 
Q 1816 -950 1584 -1140 
Q 1353 -1331 966 -1331 
L 506 -1331 
L 506 -850 
L 844 -850 
Q 1081 -850 1212 -737 
Q 1344 -625 1503 -206 
L 1606 56 
L 191 3500 
L 800 3500 
L 1894 763 
L 2988 3500 
L 3597 3500 
L 2059 -325 
z
" transform="scale(0.015625)"/>
       <path id="DejaVuSans-20" transform="scale(0.015625)"/>
       <path id="DejaVuSans-28" d="M 1984 4856 
Q 1566 4138 1362 3434 
Q 1159 2731 1159 2009 
Q 1159 1288 1364 580 
Q 1569 -128 1984 -844 
L 1484 -844 
Q 1016 -109 783 600 
Q 550 1309 550 2009 
Q 550 2706 781 3412 
Q 1013 4119 1484 4856 
L 1984 4856 
z
" transform="scale(0.015625)"/>
       <path id="DejaVuSans-72" d="M 2631 2963 
Q 2534 3019 2420 3045 
Q 2306 3072 2169 3072 
Q 1681 3072 1420 2755 
Q 1159 2438 1159 1844 
L 1159 0 
L 581 0 
L 581 3500 
L 1159 3500 
L 1159 2956 
Q 1341 3275 1631 3429 
Q 1922 3584 2338 3584 
Q 2397 3584 2469 3576 
Q 2541 3569 2628 3553 
L 2631 2963 
z
" transform="scale(0.015625)"/>
       <path id="DejaVuSans-65" d="M 3597 1894 
L 3597 1613 
L 953 1613 
Q 991 1019 1311 708 
Q 1631 397 2203 397 
Q 2534 397 2845 478 
Q 3156 559 3463 722 
L 3463 178 
Q 3153 47 2828 -22 
Q 2503 -91 2169 -91 
Q 1331 -91 842 396 
Q 353 884 353 1716 
Q 353 2575 817 3079 
Q 1281 3584 2069 3584 
Q 2775 3584 3186 3129 
Q 3597 2675 3597 1894 
z
M 3022 2063 
Q 3016 2534 2758 2815 
Q 2500 3097 2075 3097 
Q 1594 3097 1305 2825 
Q 1016 2553 972 2059 
L 3022 2063 
z
" transform="scale(0.015625)"/>
       <path id="DejaVuSans-64" d="M 2906 2969 
L 2906 4863 
L 3481 4863 
L 3481 0 
L 2906 0 
L 2906 525 
Q 2725 213 2448 61 
Q 2172 -91 1784 -91 
Q 1150 -91 751 415 
Q 353 922 353 1747 
Q 353 2572 751 3078 
Q 1150 3584 1784 3584 
Q 2172 3584 2448 3432 
Q 2725 3281 2906 2969 
z
M 947 1747 
Q 947 1113 1208 752 
Q 1469 391 1925 391 
Q 2381 391 2643 752 
Q 2906 1113 2906 1747 
Q 2906 2381 2643 2742 
Q 2381 3103 1925 3103 
Q 1469 3103 1208 2742 
Q 947 2381 947 1747 
z
" transform="scale(0.015625)"/>
       <path id="DejaVuSans-75" d="M 544 1381 
L 544 3500 
L 1119 3500 
L 1119 1403 
Q 1119 906 1312 657 
Q 1506 409 1894 409 
Q 2359 409 2629 706 
Q 2900 1003 2900 1516 
L 2900 3500 
L 3475 3500 
L 3475 0 
L 2900 0 
L 2900 538 
Q 2691 219 2414 64 
Q 2138 -91 1772 -91 
Q 1169 -91 856 284 
Q 544 659 544 1381 
z
M 1991 3584 
L 1991 3584 
z
" transform="scale(0.015625)"/>
       <path id="DejaVuSans-63" d="M 3122 3366 
L 3122 2828 
Q 2878 2963 2633 3030 
Q 2388 3097 2138 3097 
Q 1578 3097 1268 2742 
Q 959 2388 959 1747 
Q 959 1106 1268 751 
Q 1578 397 2138 397 
Q 2388 397 2633 464 
Q 2878 531 3122 666 
L 3122 134 
Q 2881 22 2623 -34 
Q 2366 -91 2075 -91 
Q 1284 -91 818 406 
Q 353 903 353 1747 
Q 353 2603 823 3093 
Q 1294 3584 2113 3584 
Q 2378 3584 2631 3529 
Q 2884 3475 3122 3366 
z
" transform="scale(0.015625)"/>
       <path id="DejaVuSans-6e" d="M 3513 2113 
L 3513 0 
L 2938 0 
L 2938 2094 
Q 2938 2591 2744 2837 
Q 2550 3084 2163 3084 
Q 1697 3084 1428 2787 
Q 1159 2491 1159 1978 
L 1159 0 
L 581 0 
L 581 3500 
L 1159 3500 
L 1159 2956 
Q 1366 3272 1645 3428 
Q 1925 3584 2291 3584 
Q 2894 3584 3203 3211 
Q 3513 2838 3513 2113 
z
" transform="scale(0.015625)"/>
       <path id="DejaVuSans-69" d="M 603 3500 
L 1178 3500 
L 1178 0 
L 603 0 
L 603 3500 
z
M 603 4863 
L 1178 4863 
L 1178 4134 
L 603 4134 
L 603 4863 
z
" transform="scale(0.015625)"/>
       <path id="DejaVuSans-74" d="M 1172 4494 
L 1172 3500 
L 2356 3500 
L 2356 3053 
L 1172 3053 
L 1172 1153 
Q 1172 725 1289 603 
Q 1406 481 1766 481 
L 2356 481 
L 2356 0 
L 1766 0 
Q 1100 0 847 248 
Q 594 497 594 1153 
L 594 3053 
L 172 3053 
L 172 3500 
L 594 3500 
L 594 4494 
L 1172 4494 
z
" transform="scale(0.015625)"/>
       <path id="DejaVuSans-73" d="M 2834 3397 
L 2834 2853 
Q 2591 2978 2328 3040 
Q 2066 3103 1784 3103 
Q 1356 3103 1142 2972 
Q 928 2841 928 2578 
Q 928 2378 1081 2264 
Q 1234 2150 1697 2047 
L 1894 2003 
Q 2506 1872 2764 1633 
Q 3022 1394 3022 966 
Q 3022 478 2636 193 
Q 2250 -91 1575 -91 
Q 1294 -91 989 -36 
Q 684 19 347 128 
L 347 722 
Q 666 556 975 473 
Q 1284 391 1588 391 
Q 1994 391 2212 530 
Q 2431 669 2431 922 
Q 2431 1156 2273 1281 
Q 2116 1406 1581 1522 
L 1381 1569 
Q 847 1681 609 1914 
Q 372 2147 372 2553 
Q 372 3047 722 3315 
Q 1072 3584 1716 3584 
Q 2034 3584 2315 3537 
Q 2597 3491 2834 3397 
z
" transform="scale(0.015625)"/>
       <path id="DejaVuSans-29" d="M 513 4856 
L 1013 4856 
Q 1481 4119 1714 3412 
Q 1947 2706 1947 2009 
Q 1947 1309 1714 600 
Q 1481 -109 1013 -844 
L 513 -844 
Q 928 -128 1133 580 
Q 1338 1288 1338 2009 
Q 1338 2731 1133 3434 
Q 928 4138 513 4856 
z
" transform="scale(0.015625)"/>
      </defs>
      <use xlink:href="#DejaVuSans-7c"/>
      <use xlink:href="#DejaVuSans-6b" transform="translate(33.691406 0)"/>
      <use xlink:href="#DejaVuSans-5f" transform="translate(91.601562 0)"/>
      <use xlink:href="#DejaVuSans-78" transform="translate(141.601562 0)"/>
      <use xlink:href="#DejaVuSans-79" transform="translate(200.78125 0)"/>
      <use xlink:href="#DejaVuSans-7c" transform="translate(259.960938 0)"/>
      <use xlink:href="#DejaVuSans-20" transform="translate(293.652344 0)"/>
      <use xlink:href="#DejaVuSans-28" transform="translate(325.439453 0)"/>
      <use xlink:href="#DejaVuSans-72" transform="translate(364.453125 0)"/>
      <use xlink:href="#DejaVuSans-65" transform="translate(403.316406 0)"/>
      <use xlink:href="#DejaVuSans-64" transform="translate(464.839844 0)"/>
      <use xlink:href="#DejaVuSans-75" transform="translate(528.316406 0)"/>
      <use xlink:href="#DejaVuSans-63" transform="translate(591.695312 0)"/>
      <use xlink:href="#DejaVuSans-65" transform="translate(646.675781 0)"/>
      <use xlink:href="#DejaVuSans-64" transform="translate(708.199219 0)"/>
      <use xlink:href="#DejaVuSans-20" transform="translate(771.675781 0)"/>
      <use xlink:href="#DejaVuSans-75" transform="translate(803.462891 0)"/>
      <use xlink:href="#DejaVuSans-6e" transform="translate(866.841797 0)"/>
      <use xlink:href="#DejaVuSans-69" transform="translate(930.220703 0)"/>
      <use xlink:href="#DejaVuSans-74" transform="translate(958.003906 0)"/>
      <use xlink:href="#DejaVuSans-73" transform="translate(997.212891 0)"/>
      <use xlink:href="#DejaVuSans-29" transform="translate(1049.3125 0)"/>
     </g>
    </g>
   </g>
   <g id="matplotlib.axis_2">
    <g id="ytick_1">
     <g id="line2d_9">
      <defs>
       <path id="maf7855cb27" d="M 0 0 
L -3.5 0 
" style="stroke: #000000; stroke-width: 0.8"/>
      </defs>
      <g>
       <use xlink:href="#maf7855cb27" x="44.059375" y="257.470754" style="stroke: #000000; stroke-width: 0.8"/>
      </g>
     </g>
     <g id="text_10">
      <!-- 0.4 -->
      <g transform="translate(21.15625 261.269973) scale(0.1 -0.1)">
       <defs>
        <path id="DejaVuSans-34" d="M 2419 4116 
L 825 1625 
L 2419 1625 
L 2419 4116 
z
M 2253 4666 
L 3047 4666 
L 3047 1625 
L 3713 1625 
L 3713 1100 
L 3047 1100 
L 3047 0 
L 2419 0 
L 2419 1100 
L 313 1100 
L 313 1709 
L 2253 4666 
z
" transform="scale(0.015625)"/>
       </defs>
       <use xlink:href="#DejaVuSans-30"/>
       <use xlink:href="#DejaVuSans-2e" transform="translate(63.623047 0)"/>
       <use xlink:href="#DejaVuSans-34" transform="translate(95.410156 0)"/>
      </g>
     </g>
    </g>
    <g id="ytick_2">
     <g id="line2d_10">
      <g>
       <use xlink:href="#maf7855cb27" x="44.059375" y="224.620355" style="stroke: #000000; stroke-width: 0.8"/>
      </g>
     </g>
     <g id="text_11">
      <!-- 0.6 -->
      <g transform="translate(21.15625 228.419574) scale(0.1 -0.1)">
       <defs>
        <path id="DejaVuSans-36" d="M 2113 2584 
Q 1688 2584 1439 2293 
Q 1191 2003 1191 1497 
Q 1191 994 1439 701 
Q 1688 409 2113 409 
Q 2538 409 2786 701 
Q 3034 994 3034 1497 
Q 3034 2003 2786 2293 
Q 2538 2584 2113 2584 
z
M 3366 4563 
L 3366 3988 
Q 3128 4100 2886 4159 
Q 2644 4219 2406 4219 
Q 1781 4219 1451 3797 
Q 1122 3375 1075 2522 
Q 1259 2794 1537 2939 
Q 1816 3084 2150 3084 
Q 2853 3084 3261 2657 
Q 3669 2231 3669 1497 
Q 3669 778 3244 343 
Q 2819 -91 2113 -91 
Q 1303 -91 875 529 
Q 447 1150 447 2328 
Q 447 3434 972 4092 
Q 1497 4750 2381 4750 
Q 2619 4750 2861 4703 
Q 3103 4656 3366 4563 
z
" transform="scale(0.015625)"/>
       </defs>
       <use xlink:href="#DejaVuSans-30"/>
       <use xlink:href="#DejaVuSans-2e" transform="translate(63.623047 0)"/>
       <use xlink:href="#DejaVuSans-36" transform="translate(95.410156 0)"/>
      </g>
     </g>
    </g>
    <g id="ytick_3">
     <g id="line2d_11">
      <g>
       <use xlink:href="#maf7855cb27" x="44.059375" y="191.769956" style="stroke: #000000; stroke-width: 0.8"/>
      </g>
     </g>
     <g id="text_12">
      <!-- 0.8 -->
      <g transform="translate(21.15625 195.569175) scale(0.1 -0.1)">
       <defs>
        <path id="DejaVuSans-38" d="M 2034 2216 
Q 1584 2216 1326 1975 
Q 1069 1734 1069 1313 
Q 1069 891 1326 650 
Q 1584 409 2034 409 
Q 2484 409 2743 651 
Q 3003 894 3003 1313 
Q 3003 1734 2745 1975 
Q 2488 2216 2034 2216 
z
M 1403 2484 
Q 997 2584 770 2862 
Q 544 3141 544 3541 
Q 544 4100 942 4425 
Q 1341 4750 2034 4750 
Q 2731 4750 3128 4425 
Q 3525 4100 3525 3541 
Q 3525 3141 3298 2862 
Q 3072 2584 2669 2484 
Q 3125 2378 3379 2068 
Q 3634 1759 3634 1313 
Q 3634 634 3220 271 
Q 2806 -91 2034 -91 
Q 1263 -91 848 271 
Q 434 634 434 1313 
Q 434 1759 690 2068 
Q 947 2378 1403 2484 
z
M 1172 3481 
Q 1172 3119 1398 2916 
Q 1625 2713 2034 2713 
Q 2441 2713 2670 2916 
Q 2900 3119 2900 3481 
Q 2900 3844 2670 4047 
Q 2441 4250 2034 4250 
Q 1625 4250 1398 4047 
Q 1172 3844 1172 3481 
z
" transform="scale(0.015625)"/>
       </defs>
       <use xlink:href="#DejaVuSans-30"/>
       <use xlink:href="#DejaVuSans-2e" transform="translate(63.623047 0)"/>
       <use xlink:href="#DejaVuSans-38" transform="translate(95.410156 0)"/>
      </g>
     </g>
    </g>
    <g id="ytick_4">
     <g id="line2d_12">
      <g>
       <use xlink:href="#maf7855cb27" x="44.059375" y="158.919557" style="stroke: #000000; stroke-width: 0.8"/>
      </g>
     </g>
     <g id="text_13">
      <!-- 1.0 -->
      <g transform="translate(21.15625 162.718776) scale(0.1 -0.1)">
       <use xlink:href="#DejaVuSans-31"/>
       <use xlink:href="#DejaVuSans-2e" transform="translate(63.623047 0)"/>
       <use xlink:href="#DejaVuSans-30" transform="translate(95.410156 0)"/>
      </g>
     </g>
    </g>
    <g id="ytick_5">
     <g id="line2d_13">
      <g>
       <use xlink:href="#maf7855cb27" x="44.059375" y="126.069158" style="stroke: #000000; stroke-width: 0.8"/>
      </g>
     </g>
     <g id="text_14">
      <!-- 1.2 -->
      <g transform="translate(21.15625 129.868376) scale(0.1 -0.1)">
       <use xlink:href="#DejaVuSans-31"/>
       <use xlink:href="#DejaVuSans-2e" transform="translate(63.623047 0)"/>
       <use xlink:href="#DejaVuSans-32" transform="translate(95.410156 0)"/>
      </g>
     </g>
    </g>
    <g id="ytick_6">
     <g id="line2d_14">
      <g>
       <use xlink:href="#maf7855cb27" x="44.059375" y="93.218759" style="stroke: #000000; stroke-width: 0.8"/>
      </g>
     </g>
     <g id="text_15">
      <!-- 1.4 -->
      <g transform="translate(21.15625 97.017977) scale(0.1 -0.1)">
       <use xlink:href="#DejaVuSans-31"/>
       <use xlink:href="#DejaVuSans-2e" transform="translate(63.623047 0)"/>
       <use xlink:href="#DejaVuSans-34" transform="translate(95.410156 0)"/>
      </g>
     </g>
    </g>
    <g id="ytick_7">
     <g id="line2d_15">
      <g>
       <use xlink:href="#maf7855cb27" x="44.059375" y="60.368359" style="stroke: #000000; stroke-width: 0.8"/>
      </g>
     </g>
     <g id="text_16">
      <!-- 1.6 -->
      <g transform="translate(21.15625 64.167578) scale(0.1 -0.1)">
       <use xlink:href="#DejaVuSans-31"/>
       <use xlink:href="#DejaVuSans-2e" transform="translate(63.623047 0)"/>
       <use xlink:href="#DejaVuSans-36" transform="translate(95.410156 0)"/>
      </g>
     </g>
    </g>
    <g id="ytick_8">
     <g id="line2d_16">
      <g>
       <use xlink:href="#maf7855cb27" x="44.059375" y="27.51796" style="stroke: #000000; stroke-width: 0.8"/>
      </g>
     </g>
     <g id="text_17">
      <!-- 1.8 -->
      <g transform="translate(21.15625 31.317179) scale(0.1 -0.1)">
       <use xlink:href="#DejaVuSans-31"/>
       <use xlink:href="#DejaVuSans-2e" transform="translate(63.623047 0)"/>
       <use xlink:href="#DejaVuSans-38" transform="translate(95.410156 0)"/>
      </g>
     </g>
    </g>
    <g id="text_18">
     <!-- S_xy(k) -->
     <g transform="translate(14.798437 158.645844) rotate(-90) scale(0.1 -0.1)">
      <defs>
       <path id="DejaVuSans-53" d="M 3425 4513 
L 3425 3897 
Q 3066 4069 2747 4153 
Q 2428 4238 2131 4238 
Q 1616 4238 1336 4038 
Q 1056 3838 1056 3469 
Q 1056 3159 1242 3001 
Q 1428 2844 1947 2747 
L 2328 2669 
Q 3034 2534 3370 2195 
Q 3706 1856 3706 1288 
Q 3706 609 3251 259 
Q 2797 -91 1919 -91 
Q 1588 -91 1214 -16 
Q 841 59 441 206 
L 441 856 
Q 825 641 1194 531 
Q 1563 422 1919 422 
Q 2459 422 2753 634 
Q 3047 847 3047 1241 
Q 3047 1584 2836 1778 
Q 2625 1972 2144 2069 
L 1759 2144 
Q 1053 2284 737 2584 
Q 422 2884 422 3419 
Q 422 4038 858 4394 
Q 1294 4750 2059 4750 
Q 2388 4750 2728 4690 
Q 3069 4631 3425 4513 
z
" transform="scale(0.015625)"/>
      </defs>
      <use xlink:href="#DejaVuSans-53"/>
      <use xlink:href="#DejaVuSans-5f" transform="translate(63.476562 0)"/>
      <use xlink:href="#DejaVuSans-78" transform="translate(113.476562 0)"/>
      <use xlink:href="#DejaVuSans-79" transform="translate(172.65625 0)"/>
      <use xlink:href="#DejaVuSans-28" transform="translate(231.835938 0)"/>
      <use xlink:href="#DejaVuSans-6b" transform="translate(270.849609 0)"/>
      <use xlink:href="#DejaVuSans-29" transform="translate(328.759766 0)"/>
     </g>
    </g>
   </g>
   <g id="line2d_17">
    <path d="M 60.292102 251.147948 
L 66.944997 249.521648 
L 76.353611 243.553273 
L 80.145219 245.801605 
L 89.659401 243.272841 
L 92.41512 230.45888 
L 95.021544 242.326851 
L 102.141187 229.397264 
L 108.476629 225.197222 
L 110.453891 221.882693 
L 112.373804 231.899259 
L 116.059845 222.619573 
L 124.538137 194.915615 
L 126.12854 187.199973 
L 130.724465 170.800325 
L 135.088208 143.674879 
L 137.884479 159.265808 
L 140.599646 105.680074 
L 141.928938 177.029165 
L 145.812494 130.823251 
L 147.07443 143.484185 
L 151.97447 104.694283 
L 156.661155 43.358874 
L 157.802612 56.045904 
L 160.051781 61.50774 
L 161.160143 42.155445 
L 166.5514 77.80394 
L 169.674987 83.18755 
L 172.722664 70.292205 
L 173.722617 128.456985 
L 176.677188 136.457401 
L 180.517015 174.724893 
L 181.460185 173.682948 
L 182.396917 182.087034 
L 187.889096 183.127031 
L 188.784173 198.318495 
L 189.673742 183.597588 
L 192.310388 182.464256 
L 195.754565 204.795889 
L 196.603445 202.912607 
L 202.41811 218.350473 
L 203.231419 205.585457 
L 204.845682 205.207017 
L 205.646759 209.115426 
L 208.026487 210.119335 
L 209.593948 200.243768 
L 211.917669 206.842157 
L 214.966774 184.773301 
L 217.218338 191.495166 
L 217.962374 192.68685 
L 220.907191 154.270088 
L 221.635757 200.165344 
L 223.803721 192.986024 
L 225.945822 194.612683 
L 227.35997 171.347322 
L 231.538364 182.197833 
L 232.225734 160.632909 
L 236.968699 142.422688 
L 237.636771 150.712671 
L 238.302543 164.831139 
L 239.627282 137.825237 
L 240.286294 150.197748 
L 242.900486 128.881768 
L 245.480722 148.418812 
L 247.394396 132.940054 
L 248.660226 121.606187 
L 249.918266 143.500747 
L 253.030208 139.293192 
L 253.647047 139.192648 
L 255.486759 135.013807 
L 258.517849 122.983116 
L 259.718347 146.350047 
L 260.316095 136.950433 
L 262.690732 127.391053 
L 267.364205 134.808403 
L 267.941525 128.692675 
L 269.091717 137.029846 
L 269.664612 146.938674 
L 271.37463 128.163135 
L 272.507525 130.938588 
L 274.196403 132.76174 
L 275.872968 142.929572 
L 278.089692 114.381086 
L 281.375929 153.539396 
L 283.002088 141.397084 
L 285.153226 151.560812 
L 285.688016 153.35089 
L 287.285326 143.272171 
L 288.872207 157.697035 
L 289.398885 151.989212 
L 289.924434 157.989928 
L 293.572262 147.807697 
L 294.089033 162.289819 
L 295.119382 169.506018 
L 295.632972 162.96106 
L 298.185346 178.985414 
L 303.214642 181.513488 
L 303.71221 176.695001 
L 305.693014 178.820191 
L 307.658925 174.768908 
L 310.095871 193.040398 
L 311.547376 186.302974 
L 316.803437 177.502188 
L 317.276244 176.439512 
L 317.748233 184.741579 
L 320.56324 171.655309 
L 325.192249 168.910258 
L 328.387692 173.216683 
L 330.197628 169.996677 
L 333.783562 165.199087 
L 339.51784 169.672078 
L 340.390183 162.509431 
L 342.991928 153.964705 
L 351.085289 162.059923 
L 352.762103 156.506068 
L 362.232244 137.61798 
L 363.042441 146.041892 
L 373.785202 153.44195 
L 384.946648 142.15556 
" clip-path="url(#p8fea5d3403)" style="fill: none; stroke: #ff7f0e; stroke-width: 1.5; stroke-linecap: square"/>
   </g>
   <g id="line2d_18">
    <path d="M 44.059375 158.919557 
L 401.179375 158.919557 
" clip-path="url(#p8fea5d3403)" style="fill: none; stroke-dasharray: 5.55,2.4; stroke-dashoffset: 0; stroke: #000000; stroke-opacity: 0.4; stroke-width: 1.5"/>
   </g>
   <g id="patch_3">
    <path d="M 44.059375 273.312 
L 44.059375 7.2 
" style="fill: none; stroke: #000000; stroke-width: 0.8; stroke-linejoin: miter; stroke-linecap: square"/>
   </g>
   <g id="patch_4">
    <path d="M 401.179375 273.312 
L 401.179375 7.2 
" style="fill: none; stroke: #000000; stroke-width: 0.8; stroke-linejoin: miter; stroke-linecap: square"/>
   </g>
   <g id="patch_5">
    <path d="M 44.059375 273.312 
L 401.179375 273.312 
" style="fill: none; stroke: #000000; stroke-width: 0.8; stroke-linejoin: miter; stroke-linecap: square"/>
   </g>
   <g id="patch_6">
    <path d="M 44.059375 7.2 
L 401.179375 7.2 
" style="fill: none; stroke: #000000; stroke-width: 0.8; stroke-linejoin: miter; stroke-linecap: square"/>
   </g>
   <g id="legend_1">
    <g id="patch_7">
     <path d="M 328.018438 44.55625 
L 394.179375 44.55625 
Q 396.179375 44.55625 396.179375 42.55625 
L 396.179375 14.2 
Q 396.179375 12.2 394.179375 12.2 
L 328.018438 12.2 
Q 326.018438 12.2 326.018438 14.2 
L 326.018438 42.55625 
Q 326.018438 44.55625 328.018438 44.55625 
z
" style="fill: #ffffff; opacity: 0.8; stroke: #cccccc; stroke-linejoin: miter"/>
    </g>
    <g id="line2d_19">
     <path d="M 330.018438 20.298437 
L 340.018438 20.298437 
L 350.018438 20.298437 
" style="fill: none; stroke: #ff7f0e; stroke-width: 1.5; stroke-linecap: square"/>
    </g>
    <g id="text_19">
     <!-- Mean -->
     <g transform="translate(358.018438 23.798437) scale(0.1 -0.1)">
      <defs>
       <path id="DejaVuSans-4d" d="M 628 4666 
L 1569 4666 
L 2759 1491 
L 3956 4666 
L 4897 4666 
L 4897 0 
L 4281 0 
L 4281 4097 
L 3078 897 
L 2444 897 
L 1241 4097 
L 1241 0 
L 628 0 
L 628 4666 
z
" transform="scale(0.015625)"/>
       <path id="DejaVuSans-61" d="M 2194 1759 
Q 1497 1759 1228 1600 
Q 959 1441 959 1056 
Q 959 750 1161 570 
Q 1363 391 1709 391 
Q 2188 391 2477 730 
Q 2766 1069 2766 1631 
L 2766 1759 
L 2194 1759 
z
M 3341 1997 
L 3341 0 
L 2766 0 
L 2766 531 
Q 2569 213 2275 61 
Q 1981 -91 1556 -91 
Q 1019 -91 701 211 
Q 384 513 384 1019 
Q 384 1609 779 1909 
Q 1175 2209 1959 2209 
L 2766 2209 
L 2766 2266 
Q 2766 2663 2505 2880 
Q 2244 3097 1772 3097 
Q 1472 3097 1187 3025 
Q 903 2953 641 2809 
L 641 3341 
Q 956 3463 1253 3523 
Q 1550 3584 1831 3584 
Q 2591 3584 2966 3190 
Q 3341 2797 3341 1997 
z
" transform="scale(0.015625)"/>
      </defs>
      <use xlink:href="#DejaVuSans-4d"/>
      <use xlink:href="#DejaVuSans-65" transform="translate(86.279297 0)"/>
      <use xlink:href="#DejaVuSans-61" transform="translate(147.802734 0)"/>
      <use xlink:href="#DejaVuSans-6e" transform="translate(209.082031 0)"/>
     </g>
    </g>
    <g id="patch_8">
     <path d="M 330.018438 38.476562 
L 350.018438 38.476562 
L 350.018438 31.476562 
L 330.018438 31.476562 
z
" style="fill: #ff7f0e; fill-opacity: 0.3; stroke: #ff7f0e; stroke-opacity: 0.3; stroke-linejoin: miter"/>
    </g>
    <g id="text_20">
     <!-- Std Err -->
     <g transform="translate(358.018438 38.476562) scale(0.1 -0.1)">
      <defs>
       <path id="DejaVuSans-45" d="M 628 4666 
L 3578 4666 
L 3578 4134 
L 1259 4134 
L 1259 2753 
L 3481 2753 
L 3481 2222 
L 1259 2222 
L 1259 531 
L 3634 531 
L 3634 0 
L 628 0 
L 628 4666 
z
" transform="scale(0.015625)"/>
      </defs>
      <use xlink:href="#DejaVuSans-53"/>
      <use xlink:href="#DejaVuSans-74" transform="translate(63.476562 0)"/>
      <use xlink:href="#DejaVuSans-64" transform="translate(102.685547 0)"/>
      <use xlink:href="#DejaVuSans-20" transform="translate(166.162109 0)"/>
      <use xlink:href="#DejaVuSans-45" transform="translate(197.949219 0)"/>
      <use xlink:href="#DejaVuSans-72" transform="translate(261.132812 0)"/>
      <use xlink:href="#DejaVuSans-72" transform="translate(300.496094 0)"/>
     </g>
    </g>
   </g>
  </g>
 </g>
 <defs>
  <clipPath id="p8fea5d3403">
   <rect x="44.059375" y="7.2" width="357.12" height="266.112"/>
  </clipPath>
 </defs>
</svg>
