<?xml version="1.0" encoding="utf-8" standalone="no"?>
<!DOCTYPE svg PUBLIC "-//W3C//DTD SVG 1.1//EN"
  "http://www.w3.org/Graphics/SVG/1.1/DTD/svg11.dtd">
<svg xmlns:xlink="http://www.w3.org/1999/xlink" width="398.560625pt" height="310.86825pt" viewBox="0 0 398.560625 310.86825" xmlns="http://www.w3.org/2000/svg" version="1.1">
 <metadata>
  <rdf:RDF xmlns:dc="http://purl.org/dc/elements/1.1/" xmlns:cc="http://creativecommons.org/ns#" xmlns:rdf="http://www.w3.org/1999/02/22-rdf-syntax-ns#">
   <cc:Work>
    <dc:type rdf:resource="http://purl.org/dc/dcmitype/StillImage"/>
    <dc:date>2025-12-11T12:44:25.075886</dc:date>
    <dc:format>image/svg+xml</dc:format>
    <dc:creator>
     <cc:Agent>
      <dc:title>Matplotlib v3.10.5, https://matplotlib.org/</dc:title>
     </cc:Agent>
    </dc:creator>
   </cc:Work>
  </rdf:RDF>
 </metadata>
 <defs>
  <style type="text/css">*{stroke-linejoin: round; stroke-linecap: butt}</style>
 </defs>
 <g id="figure_1">
  <g id="patch_1">
   <path d="M 0 310.86825 
L 398.560625 310.86825 
L 398.560625 0 
L 0 0 
z
" style="fill: #ffffff"/>
  </g>
  <g id="axes_1">
   <g id="patch_2">
    <path d="M 34.240625 273.312 
L 391.360625 273.312 
L 391.360625 7.2 
L 34.240625 7.2 
z
" style="fill: #ffffff"/>
   </g>
   <g id="FillBetweenPolyCollection_1">
    <defs>
     <path id="m50be53f229" d="M 50.473352 -49.65225 
L 50.473352 -49.65225 
L 52.104782 -49.65225 
L 53.736212 -49.65225 
L 55.367642 -49.65225 
L 56.999072 -49.65225 
L 58.630502 -49.65225 
L 60.261932 -49.65225 
L 61.893361 -49.65225 
L 63.524791 -49.65225 
L 65.156221 -49.65225 
L 66.787651 -49.65225 
L 68.419081 -49.65225 
L 70.050511 -49.65225 
L 71.681941 -49.65225 
L 73.313371 -49.65225 
L 74.9448 -49.65225 
L 76.57623 -49.65225 
L 78.20766 -49.65225 
L 79.83909 -49.65225 
L 81.47052 -49.65225 
L 83.10195 -49.65225 
L 84.73338 -49.65225 
L 86.36481 -49.65225 
L 87.996239 -49.65225 
L 89.627669 -49.65225 
L 91.259099 -49.65225 
L 92.890529 -49.65225 
L 94.521959 -49.65225 
L 96.153389 -49.65225 
L 97.784819 -49.65225 
L 99.416249 -49.65225 
L 101.047678 -49.65225 
L 102.679108 -49.65225 
L 104.310538 -49.65225 
L 105.941968 -49.65225 
L 107.573398 -49.65225 
L 109.204828 -49.65225 
L 110.836258 -49.65225 
L 112.467688 -49.65225 
L 114.099117 -49.65225 
L 115.730547 -49.65225 
L 117.361977 -49.65225 
L 118.993407 -49.65225 
L 120.624837 -49.65225 
L 122.256267 -49.65225 
L 123.887697 -49.703578 
L 125.519127 -50.056892 
L 127.150556 -53.439747 
L 128.781986 -67.287021 
L 130.413416 -96.904597 
L 132.044846 -144.568863 
L 133.676276 -199.31727 
L 135.307706 -242.835415 
L 136.939136 -274.924521 
L 138.570566 -288.457128 
L 140.201995 -284.920448 
L 141.833425 -268.385153 
L 143.464855 -251.700772 
L 145.096285 -232.265324 
L 146.727715 -211.256888 
L 148.359145 -194.558575 
L 149.990575 -177.780314 
L 151.622005 -164.0545 
L 153.253435 -150.626344 
L 154.884864 -141.32219 
L 156.516294 -131.981127 
L 158.147724 -124.663249 
L 159.779154 -118.226221 
L 161.410584 -113.358549 
L 163.042014 -108.507946 
L 164.673444 -105.93529 
L 166.304874 -103.644495 
L 167.936303 -100.344102 
L 169.567733 -97.436719 
L 171.199163 -97.368354 
L 172.830593 -95.920404 
L 174.462023 -95.508513 
L 176.093453 -95.746202 
L 177.724883 -95.195046 
L 179.356313 -95.073372 
L 180.987742 -95.829303 
L 182.619172 -96.134081 
L 184.250602 -96.693978 
L 185.882032 -98.380002 
L 187.513462 -100.093567 
L 189.144892 -102.139394 
L 190.776322 -105.019898 
L 192.407752 -107.127572 
L 194.039181 -110.536143 
L 195.670611 -113.528933 
L 197.302041 -116.647993 
L 198.933471 -119.589627 
L 200.564901 -122.912107 
L 202.196331 -125.545123 
L 203.827761 -129.244356 
L 205.459191 -131.495195 
L 207.09062 -133.095096 
L 208.72205 -135.099814 
L 210.35348 -137.416813 
L 211.98491 -139.234044 
L 213.61634 -140.585969 
L 215.24777 -142.041557 
L 216.8792 -142.462544 
L 218.51063 -142.506804 
L 220.142059 -142.815931 
L 221.773489 -142.307914 
L 223.404919 -140.574244 
L 225.036349 -140.625124 
L 226.667779 -138.366499 
L 228.299209 -136.567083 
L 229.930639 -135.110547 
L 231.562069 -132.613802 
L 233.193498 -129.168551 
L 234.824928 -127.627029 
L 236.456358 -125.373375 
L 238.087788 -122.687541 
L 239.719218 -120.763047 
L 241.350648 -117.635627 
L 242.982078 -115.951253 
L 244.613508 -114.629442 
L 246.244937 -112.837928 
L 247.876367 -111.933947 
L 249.507797 -110.78545 
L 251.139227 -110.313252 
L 252.770657 -108.851092 
L 254.402087 -108.472283 
L 256.033517 -108.00066 
L 257.664947 -108.097594 
L 259.296376 -107.930922 
L 260.927806 -108.190058 
L 262.559236 -108.829368 
L 264.190666 -109.851719 
L 265.822096 -110.82505 
L 267.453526 -111.780737 
L 269.084956 -112.323869 
L 270.716386 -113.728576 
L 272.347815 -114.68028 
L 273.979245 -115.960697 
L 275.610675 -116.985785 
L 277.242105 -118.327207 
L 278.873535 -119.680883 
L 280.504965 -119.938139 
L 282.136395 -121.000426 
L 283.767825 -121.627125 
L 285.399255 -122.420566 
L 287.030684 -123.069771 
L 288.662114 -123.694488 
L 290.293544 -123.487556 
L 291.924974 -123.188501 
L 293.556404 -123.09432 
L 295.187834 -122.851524 
L 296.819264 -122.519625 
L 298.450694 -122.718166 
L 300.082123 -121.853828 
L 301.713553 -120.833876 
L 303.344983 -120.723578 
L 304.976413 -119.231964 
L 306.607843 -118.715855 
L 308.239273 -117.896078 
L 309.870703 -117.007532 
L 311.502133 -116.324159 
L 313.133562 -115.480049 
L 314.764992 -115.189961 
L 316.396422 -114.624466 
L 318.027852 -113.744213 
L 319.659282 -113.521096 
L 321.290712 -112.662341 
L 322.922142 -112.555086 
L 324.553572 -111.707339 
L 326.185001 -111.727893 
L 327.816431 -110.680068 
L 329.447861 -110.650582 
L 331.079291 -109.894045 
L 332.710721 -109.904295 
L 334.342151 -109.747842 
L 335.973581 -109.369738 
L 337.605011 -109.026359 
L 339.23644 -109.058708 
L 340.86787 -108.857451 
L 342.4993 -107.840651 
L 344.13073 -107.23689 
L 345.76216 -106.623907 
L 347.39359 -106.288542 
L 349.02502 -105.864002 
L 350.65645 -104.719925 
L 352.287879 -104.322097 
L 353.919309 -104.093014 
L 355.550739 -103.456355 
L 357.182169 -102.676454 
L 358.813599 -102.791332 
L 360.445029 -101.998641 
L 362.076459 -101.469152 
L 363.707889 -100.790881 
L 365.339318 -100.166393 
L 366.970748 -99.068068 
L 368.602178 -98.070647 
L 370.233608 -97.592585 
L 371.865038 -96.555938 
L 373.496468 -95.697099 
L 375.127898 -94.712633 
L 375.127898 -95.215971 
L 375.127898 -95.215971 
L 373.496468 -96.018543 
L 371.865038 -97.115685 
L 370.233608 -98.03052 
L 368.602178 -98.402427 
L 366.970748 -99.63371 
L 365.339318 -100.60188 
L 363.707889 -101.383005 
L 362.076459 -102.26407 
L 360.445029 -102.662814 
L 358.813599 -103.646676 
L 357.182169 -103.518374 
L 355.550739 -104.123487 
L 353.919309 -104.879593 
L 352.287879 -104.87629 
L 350.65645 -105.451929 
L 349.02502 -106.131745 
L 347.39359 -106.927691 
L 345.76216 -107.723264 
L 344.13073 -108.042785 
L 342.4993 -108.562002 
L 340.86787 -109.522592 
L 339.23644 -109.637418 
L 337.605011 -109.599245 
L 335.973581 -110.089578 
L 334.342151 -110.287102 
L 332.710721 -110.528036 
L 331.079291 -110.541111 
L 329.447861 -111.19262 
L 327.816431 -111.266847 
L 326.185001 -112.171943 
L 324.553572 -112.157694 
L 322.922142 -113.100133 
L 321.290712 -113.214931 
L 319.659282 -114.390076 
L 318.027852 -114.616907 
L 316.396422 -115.412375 
L 314.764992 -115.615746 
L 313.133562 -116.240497 
L 311.502133 -117.059817 
L 309.870703 -117.469814 
L 308.239273 -118.527477 
L 306.607843 -119.26593 
L 304.976413 -120.225734 
L 303.344983 -121.196457 
L 301.713553 -121.264411 
L 300.082123 -122.255337 
L 298.450694 -123.340162 
L 296.819264 -123.208255 
L 295.187834 -123.526259 
L 293.556404 -123.739921 
L 291.924974 -124.309368 
L 290.293544 -124.932422 
L 288.662114 -124.472731 
L 287.030684 -124.173093 
L 285.399255 -123.511939 
L 283.767825 -123.088492 
L 282.136395 -121.953483 
L 280.504965 -121.155593 
L 278.873535 -120.934122 
L 277.242105 -119.279755 
L 275.610675 -118.193711 
L 273.979245 -116.869952 
L 272.347815 -115.585538 
L 270.716386 -114.73615 
L 269.084956 -113.667658 
L 267.453526 -112.626567 
L 265.822096 -112.189813 
L 264.190666 -111.14098 
L 262.559236 -110.034468 
L 260.927806 -109.158876 
L 259.296376 -108.564644 
L 257.664947 -108.768743 
L 256.033517 -108.994509 
L 254.402087 -109.275118 
L 252.770657 -109.638426 
L 251.139227 -110.869433 
L 249.507797 -111.573753 
L 247.876367 -112.487966 
L 246.244937 -114.137604 
L 244.613508 -115.709185 
L 242.982078 -117.131912 
L 241.350648 -119.165917 
L 239.719218 -122.00442 
L 238.087788 -123.530761 
L 236.456358 -125.828006 
L 234.824928 -127.922411 
L 233.193498 -130.641927 
L 231.562069 -134.174314 
L 229.930639 -136.612919 
L 228.299209 -138.64609 
L 226.667779 -139.623927 
L 225.036349 -141.93732 
L 223.404919 -141.668238 
L 221.773489 -142.914894 
L 220.142059 -143.712852 
L 218.51063 -143.304421 
L 216.8792 -143.141843 
L 215.24777 -143.575652 
L 213.61634 -141.712505 
L 211.98491 -140.097769 
L 210.35348 -138.456574 
L 208.72205 -136.226975 
L 207.09062 -135.014237 
L 205.459191 -132.957838 
L 203.827761 -130.883015 
L 202.196331 -127.864257 
L 200.564901 -125.014476 
L 198.933471 -121.357875 
L 197.302041 -118.250661 
L 195.670611 -115.167546 
L 194.039181 -111.837006 
L 192.407752 -108.070313 
L 190.776322 -106.152576 
L 189.144892 -102.931699 
L 187.513462 -100.911664 
L 185.882032 -99.59505 
L 184.250602 -97.573596 
L 182.619172 -97.464074 
L 180.987742 -96.433202 
L 179.356313 -96.065385 
L 177.724883 -95.766832 
L 176.093453 -96.138412 
L 174.462023 -96.335553 
L 172.830593 -97.399485 
L 171.199163 -98.178347 
L 169.567733 -98.472701 
L 167.936303 -101.717803 
L 166.304874 -104.953527 
L 164.673444 -107.298898 
L 163.042014 -109.533101 
L 161.410584 -115.086262 
L 159.779154 -119.950545 
L 158.147724 -126.266277 
L 156.516294 -133.392078 
L 154.884864 -142.491739 
L 153.253435 -152.822099 
L 151.622005 -165.652192 
L 149.990575 -179.022951 
L 148.359145 -196.015098 
L 146.727715 -214.234509 
L 145.096285 -233.821876 
L 143.464855 -255.422227 
L 141.833425 -273.154101 
L 140.201995 -288.043089 
L 138.570566 -291.57225 
L 136.939136 -279.62822 
L 135.307706 -247.245073 
L 133.676276 -204.03233 
L 132.044846 -148.572228 
L 130.413416 -100.168372 
L 128.781986 -68.554681 
L 127.150556 -54.059565 
L 125.519127 -50.171515 
L 123.887697 -49.724109 
L 122.256267 -49.65225 
L 120.624837 -49.65225 
L 118.993407 -49.65225 
L 117.361977 -49.65225 
L 115.730547 -49.65225 
L 114.099117 -49.65225 
L 112.467688 -49.65225 
L 110.836258 -49.65225 
L 109.204828 -49.65225 
L 107.573398 -49.65225 
L 105.941968 -49.65225 
L 104.310538 -49.65225 
L 102.679108 -49.65225 
L 101.047678 -49.65225 
L 99.416249 -49.65225 
L 97.784819 -49.65225 
L 96.153389 -49.65225 
L 94.521959 -49.65225 
L 92.890529 -49.65225 
L 91.259099 -49.65225 
L 89.627669 -49.65225 
L 87.996239 -49.65225 
L 86.36481 -49.65225 
L 84.73338 -49.65225 
L 83.10195 -49.65225 
L 81.47052 -49.65225 
L 79.83909 -49.65225 
L 78.20766 -49.65225 
L 76.57623 -49.65225 
L 74.9448 -49.65225 
L 73.313371 -49.65225 
L 71.681941 -49.65225 
L 70.050511 -49.65225 
L 68.419081 -49.65225 
L 66.787651 -49.65225 
L 65.156221 -49.65225 
L 63.524791 -49.65225 
L 61.893361 -49.65225 
L 60.261932 -49.65225 
L 58.630502 -49.65225 
L 56.999072 -49.65225 
L 55.367642 -49.65225 
L 53.736212 -49.65225 
L 52.104782 -49.65225 
L 50.473352 -49.65225 
z
" style="stroke: #1f77b4; stroke-opacity: 0.3"/>
    </defs>
    <g clip-path="url(#p73c3af8a05)">
     <use xlink:href="#m50be53f229" x="0" y="310.86825" style="fill: #1f77b4; fill-opacity: 0.3; stroke: #1f77b4; stroke-opacity: 0.3"/>
    </g>
   </g>
   <g id="matplotlib.axis_1">
    <g id="xtick_1">
     <g id="line2d_1">
      <defs>
       <path id="m9fce1c1c92" d="M 0 0 
L 0 3.5 
" style="stroke: #000000; stroke-width: 0.8"/>
      </defs>
      <g>
       <use xlink:href="#m9fce1c1c92" x="49.657637" y="273.312" style="stroke: #000000; stroke-width: 0.8"/>
      </g>
     </g>
     <g id="text_1">
      <!-- 0.0 -->
      <g transform="translate(41.706075 287.910437) scale(0.1 -0.1)">
       <defs>
        <path id="DejaVuSans-30" d="M 2034 4250 
Q 1547 4250 1301 3770 
Q 1056 3291 1056 2328 
Q 1056 1369 1301 889 
Q 1547 409 2034 409 
Q 2525 409 2770 889 
Q 3016 1369 3016 2328 
Q 3016 3291 2770 3770 
Q 2525 4250 2034 4250 
z
M 2034 4750 
Q 2819 4750 3233 4129 
Q 3647 3509 3647 2328 
Q 3647 1150 3233 529 
Q 2819 -91 2034 -91 
Q 1250 -91 836 529 
Q 422 1150 422 2328 
Q 422 3509 836 4129 
Q 1250 4750 2034 4750 
z
" transform="scale(0.015625)"/>
        <path id="DejaVuSans-2e" d="M 684 794 
L 1344 794 
L 1344 0 
L 684 0 
L 684 794 
z
" transform="scale(0.015625)"/>
       </defs>
       <use xlink:href="#DejaVuSans-30"/>
       <use xlink:href="#DejaVuSans-2e" transform="translate(63.623047 0)"/>
       <use xlink:href="#DejaVuSans-30" transform="translate(95.410156 0)"/>
      </g>
     </g>
    </g>
    <g id="xtick_2">
     <g id="line2d_2">
      <g>
       <use xlink:href="#m9fce1c1c92" x="90.443384" y="273.312" style="stroke: #000000; stroke-width: 0.8"/>
      </g>
     </g>
     <g id="text_2">
      <!-- 0.5 -->
      <g transform="translate(82.491822 287.910437) scale(0.1 -0.1)">
       <defs>
        <path id="DejaVuSans-35" d="M 691 4666 
L 3169 4666 
L 3169 4134 
L 1269 4134 
L 1269 2991 
Q 1406 3038 1543 3061 
Q 1681 3084 1819 3084 
Q 2600 3084 3056 2656 
Q 3513 2228 3513 1497 
Q 3513 744 3044 326 
Q 2575 -91 1722 -91 
Q 1428 -91 1123 -41 
Q 819 9 494 109 
L 494 744 
Q 775 591 1075 516 
Q 1375 441 1709 441 
Q 2250 441 2565 725 
Q 2881 1009 2881 1497 
Q 2881 1984 2565 2268 
Q 2250 2553 1709 2553 
Q 1456 2553 1204 2497 
Q 953 2441 691 2322 
L 691 4666 
z
" transform="scale(0.015625)"/>
       </defs>
       <use xlink:href="#DejaVuSans-30"/>
       <use xlink:href="#DejaVuSans-2e" transform="translate(63.623047 0)"/>
       <use xlink:href="#DejaVuSans-35" transform="translate(95.410156 0)"/>
      </g>
     </g>
    </g>
    <g id="xtick_3">
     <g id="line2d_3">
      <g>
       <use xlink:href="#m9fce1c1c92" x="131.229131" y="273.312" style="stroke: #000000; stroke-width: 0.8"/>
      </g>
     </g>
     <g id="text_3">
      <!-- 1.0 -->
      <g transform="translate(123.277569 287.910437) scale(0.1 -0.1)">
       <defs>
        <path id="DejaVuSans-31" d="M 794 531 
L 1825 531 
L 1825 4091 
L 703 3866 
L 703 4441 
L 1819 4666 
L 2450 4666 
L 2450 531 
L 3481 531 
L 3481 0 
L 794 0 
L 794 531 
z
" transform="scale(0.015625)"/>
       </defs>
       <use xlink:href="#DejaVuSans-31"/>
       <use xlink:href="#DejaVuSans-2e" transform="translate(63.623047 0)"/>
       <use xlink:href="#DejaVuSans-30" transform="translate(95.410156 0)"/>
      </g>
     </g>
    </g>
    <g id="xtick_4">
     <g id="line2d_4">
      <g>
       <use xlink:href="#m9fce1c1c92" x="172.014878" y="273.312" style="stroke: #000000; stroke-width: 0.8"/>
      </g>
     </g>
     <g id="text_4">
      <!-- 1.5 -->
      <g transform="translate(164.063316 287.910437) scale(0.1 -0.1)">
       <use xlink:href="#DejaVuSans-31"/>
       <use xlink:href="#DejaVuSans-2e" transform="translate(63.623047 0)"/>
       <use xlink:href="#DejaVuSans-35" transform="translate(95.410156 0)"/>
      </g>
     </g>
    </g>
    <g id="xtick_5">
     <g id="line2d_5">
      <g>
       <use xlink:href="#m9fce1c1c92" x="212.800625" y="273.312" style="stroke: #000000; stroke-width: 0.8"/>
      </g>
     </g>
     <g id="text_5">
      <!-- 2.0 -->
      <g transform="translate(204.849063 287.910437) scale(0.1 -0.1)">
       <defs>
        <path id="DejaVuSans-32" d="M 1228 531 
L 3431 531 
L 3431 0 
L 469 0 
L 469 531 
Q 828 903 1448 1529 
Q 2069 2156 2228 2338 
Q 2531 2678 2651 2914 
Q 2772 3150 2772 3378 
Q 2772 3750 2511 3984 
Q 2250 4219 1831 4219 
Q 1534 4219 1204 4116 
Q 875 4013 500 3803 
L 500 4441 
Q 881 4594 1212 4672 
Q 1544 4750 1819 4750 
Q 2544 4750 2975 4387 
Q 3406 4025 3406 3419 
Q 3406 3131 3298 2873 
Q 3191 2616 2906 2266 
Q 2828 2175 2409 1742 
Q 1991 1309 1228 531 
z
" transform="scale(0.015625)"/>
       </defs>
       <use xlink:href="#DejaVuSans-32"/>
       <use xlink:href="#DejaVuSans-2e" transform="translate(63.623047 0)"/>
       <use xlink:href="#DejaVuSans-30" transform="translate(95.410156 0)"/>
      </g>
     </g>
    </g>
    <g id="xtick_6">
     <g id="line2d_6">
      <g>
       <use xlink:href="#m9fce1c1c92" x="253.586372" y="273.312" style="stroke: #000000; stroke-width: 0.8"/>
      </g>
     </g>
     <g id="text_6">
      <!-- 2.5 -->
      <g transform="translate(245.634809 287.910437) scale(0.1 -0.1)">
       <use xlink:href="#DejaVuSans-32"/>
       <use xlink:href="#DejaVuSans-2e" transform="translate(63.623047 0)"/>
       <use xlink:href="#DejaVuSans-35" transform="translate(95.410156 0)"/>
      </g>
     </g>
    </g>
    <g id="xtick_7">
     <g id="line2d_7">
      <g>
       <use xlink:href="#m9fce1c1c92" x="294.372119" y="273.312" style="stroke: #000000; stroke-width: 0.8"/>
      </g>
     </g>
     <g id="text_7">
      <!-- 3.0 -->
      <g transform="translate(286.420556 287.910437) scale(0.1 -0.1)">
       <defs>
        <path id="DejaVuSans-33" d="M 2597 2516 
Q 3050 2419 3304 2112 
Q 3559 1806 3559 1356 
Q 3559 666 3084 287 
Q 2609 -91 1734 -91 
Q 1441 -91 1130 -33 
Q 819 25 488 141 
L 488 750 
Q 750 597 1062 519 
Q 1375 441 1716 441 
Q 2309 441 2620 675 
Q 2931 909 2931 1356 
Q 2931 1769 2642 2001 
Q 2353 2234 1838 2234 
L 1294 2234 
L 1294 2753 
L 1863 2753 
Q 2328 2753 2575 2939 
Q 2822 3125 2822 3475 
Q 2822 3834 2567 4026 
Q 2313 4219 1838 4219 
Q 1578 4219 1281 4162 
Q 984 4106 628 3988 
L 628 4550 
Q 988 4650 1302 4700 
Q 1616 4750 1894 4750 
Q 2613 4750 3031 4423 
Q 3450 4097 3450 3541 
Q 3450 3153 3228 2886 
Q 3006 2619 2597 2516 
z
" transform="scale(0.015625)"/>
       </defs>
       <use xlink:href="#DejaVuSans-33"/>
       <use xlink:href="#DejaVuSans-2e" transform="translate(63.623047 0)"/>
       <use xlink:href="#DejaVuSans-30" transform="translate(95.410156 0)"/>
      </g>
     </g>
    </g>
    <g id="xtick_8">
     <g id="line2d_8">
      <g>
       <use xlink:href="#m9fce1c1c92" x="335.157866" y="273.312" style="stroke: #000000; stroke-width: 0.8"/>
      </g>
     </g>
     <g id="text_8">
      <!-- 3.5 -->
      <g transform="translate(327.206303 287.910437) scale(0.1 -0.1)">
       <use xlink:href="#DejaVuSans-33"/>
       <use xlink:href="#DejaVuSans-2e" transform="translate(63.623047 0)"/>
       <use xlink:href="#DejaVuSans-35" transform="translate(95.410156 0)"/>
      </g>
     </g>
    </g>
    <g id="xtick_9">
     <g id="line2d_9">
      <g>
       <use xlink:href="#m9fce1c1c92" x="375.943613" y="273.312" style="stroke: #000000; stroke-width: 0.8"/>
      </g>
     </g>
     <g id="text_9">
      <!-- 4.0 -->
      <g transform="translate(367.99205 287.910437) scale(0.1 -0.1)">
       <defs>
        <path id="DejaVuSans-34" d="M 2419 4116 
L 825 1625 
L 2419 1625 
L 2419 4116 
z
M 2253 4666 
L 3047 4666 
L 3047 1625 
L 3713 1625 
L 3713 1100 
L 3047 1100 
L 3047 0 
L 2419 0 
L 2419 1100 
L 313 1100 
L 313 1709 
L 2253 4666 
z
" transform="scale(0.015625)"/>
       </defs>
       <use xlink:href="#DejaVuSans-34"/>
       <use xlink:href="#DejaVuSans-2e" transform="translate(63.623047 0)"/>
       <use xlink:href="#DejaVuSans-30" transform="translate(95.410156 0)"/>
      </g>
     </g>
    </g>
    <g id="text_10">
     <!-- r (reduced units) -->
     <g transform="translate(171.011563 301.588562) scale(0.1 -0.1)">
      <defs>
       <path id="DejaVuSans-72" d="M 2631 2963 
Q 2534 3019 2420 3045 
Q 2306 3072 2169 3072 
Q 1681 3072 1420 2755 
Q 1159 2438 1159 1844 
L 1159 0 
L 581 0 
L 581 3500 
L 1159 3500 
L 1159 2956 
Q 1341 3275 1631 3429 
Q 1922 3584 2338 3584 
Q 2397 3584 2469 3576 
Q 2541 3569 2628 3553 
L 2631 2963 
z
" transform="scale(0.015625)"/>
       <path id="DejaVuSans-20" transform="scale(0.015625)"/>
       <path id="DejaVuSans-28" d="M 1984 4856 
Q 1566 4138 1362 3434 
Q 1159 2731 1159 2009 
Q 1159 1288 1364 580 
Q 1569 -128 1984 -844 
L 1484 -844 
Q 1016 -109 783 600 
Q 550 1309 550 2009 
Q 550 2706 781 3412 
Q 1013 4119 1484 4856 
L 1984 4856 
z
" transform="scale(0.015625)"/>
       <path id="DejaVuSans-65" d="M 3597 1894 
L 3597 1613 
L 953 1613 
Q 991 1019 1311 708 
Q 1631 397 2203 397 
Q 2534 397 2845 478 
Q 3156 559 3463 722 
L 3463 178 
Q 3153 47 2828 -22 
Q 2503 -91 2169 -91 
Q 1331 -91 842 396 
Q 353 884 353 1716 
Q 353 2575 817 3079 
Q 1281 3584 2069 3584 
Q 2775 3584 3186 3129 
Q 3597 2675 3597 1894 
z
M 3022 2063 
Q 3016 2534 2758 2815 
Q 2500 3097 2075 3097 
Q 1594 3097 1305 2825 
Q 1016 2553 972 2059 
L 3022 2063 
z
" transform="scale(0.015625)"/>
       <path id="DejaVuSans-64" d="M 2906 2969 
L 2906 4863 
L 3481 4863 
L 3481 0 
L 2906 0 
L 2906 525 
Q 2725 213 2448 61 
Q 2172 -91 1784 -91 
Q 1150 -91 751 415 
Q 353 922 353 1747 
Q 353 2572 751 3078 
Q 1150 3584 1784 3584 
Q 2172 3584 2448 3432 
Q 2725 3281 2906 2969 
z
M 947 1747 
Q 947 1113 1208 752 
Q 1469 391 1925 391 
Q 2381 391 2643 752 
Q 2906 1113 2906 1747 
Q 2906 2381 2643 2742 
Q 2381 3103 1925 3103 
Q 1469 3103 1208 2742 
Q 947 2381 947 1747 
z
" transform="scale(0.015625)"/>
       <path id="DejaVuSans-75" d="M 544 1381 
L 544 3500 
L 1119 3500 
L 1119 1403 
Q 1119 906 1312 657 
Q 1506 409 1894 409 
Q 2359 409 2629 706 
Q 2900 1003 2900 1516 
L 2900 3500 
L 3475 3500 
L 3475 0 
L 2900 0 
L 2900 538 
Q 2691 219 2414 64 
Q 2138 -91 1772 -91 
Q 1169 -91 856 284 
Q 544 659 544 1381 
z
M 1991 3584 
L 1991 3584 
z
" transform="scale(0.015625)"/>
       <path id="DejaVuSans-63" d="M 3122 3366 
L 3122 2828 
Q 2878 2963 2633 3030 
Q 2388 3097 2138 3097 
Q 1578 3097 1268 2742 
Q 959 2388 959 1747 
Q 959 1106 1268 751 
Q 1578 397 2138 397 
Q 2388 397 2633 464 
Q 2878 531 3122 666 
L 3122 134 
Q 2881 22 2623 -34 
Q 2366 -91 2075 -91 
Q 1284 -91 818 406 
Q 353 903 353 1747 
Q 353 2603 823 3093 
Q 1294 3584 2113 3584 
Q 2378 3584 2631 3529 
Q 2884 3475 3122 3366 
z
" transform="scale(0.015625)"/>
       <path id="DejaVuSans-6e" d="M 3513 2113 
L 3513 0 
L 2938 0 
L 2938 2094 
Q 2938 2591 2744 2837 
Q 2550 3084 2163 3084 
Q 1697 3084 1428 2787 
Q 1159 2491 1159 1978 
L 1159 0 
L 581 0 
L 581 3500 
L 1159 3500 
L 1159 2956 
Q 1366 3272 1645 3428 
Q 1925 3584 2291 3584 
Q 2894 3584 3203 3211 
Q 3513 2838 3513 2113 
z
" transform="scale(0.015625)"/>
       <path id="DejaVuSans-69" d="M 603 3500 
L 1178 3500 
L 1178 0 
L 603 0 
L 603 3500 
z
M 603 4863 
L 1178 4863 
L 1178 4134 
L 603 4134 
L 603 4863 
z
" transform="scale(0.015625)"/>
       <path id="DejaVuSans-74" d="M 1172 4494 
L 1172 3500 
L 2356 3500 
L 2356 3053 
L 1172 3053 
L 1172 1153 
Q 1172 725 1289 603 
Q 1406 481 1766 481 
L 2356 481 
L 2356 0 
L 1766 0 
Q 1100 0 847 248 
Q 594 497 594 1153 
L 594 3053 
L 172 3053 
L 172 3500 
L 594 3500 
L 594 4494 
L 1172 4494 
z
" transform="scale(0.015625)"/>
       <path id="DejaVuSans-73" d="M 2834 3397 
L 2834 2853 
Q 2591 2978 2328 3040 
Q 2066 3103 1784 3103 
Q 1356 3103 1142 2972 
Q 928 2841 928 2578 
Q 928 2378 1081 2264 
Q 1234 2150 1697 2047 
L 1894 2003 
Q 2506 1872 2764 1633 
Q 3022 1394 3022 966 
Q 3022 478 2636 193 
Q 2250 -91 1575 -91 
Q 1294 -91 989 -36 
Q 684 19 347 128 
L 347 722 
Q 666 556 975 473 
Q 1284 391 1588 391 
Q 1994 391 2212 530 
Q 2431 669 2431 922 
Q 2431 1156 2273 1281 
Q 2116 1406 1581 1522 
L 1381 1569 
Q 847 1681 609 1914 
Q 372 2147 372 2553 
Q 372 3047 722 3315 
Q 1072 3584 1716 3584 
Q 2034 3584 2315 3537 
Q 2597 3491 2834 3397 
z
" transform="scale(0.015625)"/>
       <path id="DejaVuSans-29" d="M 513 4856 
L 1013 4856 
Q 1481 4119 1714 3412 
Q 1947 2706 1947 2009 
Q 1947 1309 1714 600 
Q 1481 -109 1013 -844 
L 513 -844 
Q 928 -128 1133 580 
Q 1338 1288 1338 2009 
Q 1338 2731 1133 3434 
Q 928 4138 513 4856 
z
" transform="scale(0.015625)"/>
      </defs>
      <use xlink:href="#DejaVuSans-72"/>
      <use xlink:href="#DejaVuSans-20" transform="translate(41.113281 0)"/>
      <use xlink:href="#DejaVuSans-28" transform="translate(72.900391 0)"/>
      <use xlink:href="#DejaVuSans-72" transform="translate(111.914062 0)"/>
      <use xlink:href="#DejaVuSans-65" transform="translate(150.777344 0)"/>
      <use xlink:href="#DejaVuSans-64" transform="translate(212.300781 0)"/>
      <use xlink:href="#DejaVuSans-75" transform="translate(275.777344 0)"/>
      <use xlink:href="#DejaVuSans-63" transform="translate(339.15625 0)"/>
      <use xlink:href="#DejaVuSans-65" transform="translate(394.136719 0)"/>
      <use xlink:href="#DejaVuSans-64" transform="translate(455.660156 0)"/>
      <use xlink:href="#DejaVuSans-20" transform="translate(519.136719 0)"/>
      <use xlink:href="#DejaVuSans-75" transform="translate(550.923828 0)"/>
      <use xlink:href="#DejaVuSans-6e" transform="translate(614.302734 0)"/>
      <use xlink:href="#DejaVuSans-69" transform="translate(677.681641 0)"/>
      <use xlink:href="#DejaVuSans-74" transform="translate(705.464844 0)"/>
      <use xlink:href="#DejaVuSans-73" transform="translate(744.673828 0)"/>
      <use xlink:href="#DejaVuSans-29" transform="translate(796.773438 0)"/>
     </g>
    </g>
   </g>
   <g id="matplotlib.axis_2">
    <g id="ytick_1">
     <g id="line2d_10">
      <defs>
       <path id="m3ed34c2cdf" d="M 0 0 
L -3.5 0 
" style="stroke: #000000; stroke-width: 0.8"/>
      </defs>
      <g>
       <use xlink:href="#m3ed34c2cdf" x="34.240625" y="261.216" style="stroke: #000000; stroke-width: 0.8"/>
      </g>
     </g>
     <g id="text_11">
      <!-- 0 -->
      <g transform="translate(20.878125 265.015219) scale(0.1 -0.1)">
       <use xlink:href="#DejaVuSans-30"/>
      </g>
     </g>
    </g>
    <g id="ytick_2">
     <g id="line2d_11">
      <g>
       <use xlink:href="#m3ed34c2cdf" x="34.240625" y="215.360466" style="stroke: #000000; stroke-width: 0.8"/>
      </g>
     </g>
     <g id="text_12">
      <!-- 1 -->
      <g transform="translate(20.878125 219.159684) scale(0.1 -0.1)">
       <use xlink:href="#DejaVuSans-31"/>
      </g>
     </g>
    </g>
    <g id="ytick_3">
     <g id="line2d_12">
      <g>
       <use xlink:href="#m3ed34c2cdf" x="34.240625" y="169.504931" style="stroke: #000000; stroke-width: 0.8"/>
      </g>
     </g>
     <g id="text_13">
      <!-- 2 -->
      <g transform="translate(20.878125 173.30415) scale(0.1 -0.1)">
       <use xlink:href="#DejaVuSans-32"/>
      </g>
     </g>
    </g>
    <g id="ytick_4">
     <g id="line2d_13">
      <g>
       <use xlink:href="#m3ed34c2cdf" x="34.240625" y="123.649397" style="stroke: #000000; stroke-width: 0.8"/>
      </g>
     </g>
     <g id="text_14">
      <!-- 3 -->
      <g transform="translate(20.878125 127.448615) scale(0.1 -0.1)">
       <use xlink:href="#DejaVuSans-33"/>
      </g>
     </g>
    </g>
    <g id="ytick_5">
     <g id="line2d_14">
      <g>
       <use xlink:href="#m3ed34c2cdf" x="34.240625" y="77.793862" style="stroke: #000000; stroke-width: 0.8"/>
      </g>
     </g>
     <g id="text_15">
      <!-- 4 -->
      <g transform="translate(20.878125 81.593081) scale(0.1 -0.1)">
       <use xlink:href="#DejaVuSans-34"/>
      </g>
     </g>
    </g>
    <g id="ytick_6">
     <g id="line2d_15">
      <g>
       <use xlink:href="#m3ed34c2cdf" x="34.240625" y="31.938328" style="stroke: #000000; stroke-width: 0.8"/>
      </g>
     </g>
     <g id="text_16">
      <!-- 5 -->
      <g transform="translate(20.878125 35.737546) scale(0.1 -0.1)">
       <use xlink:href="#DejaVuSans-35"/>
      </g>
     </g>
    </g>
    <g id="text_17">
     <!-- g(r) -->
     <g transform="translate(14.798438 149.38725) rotate(-90) scale(0.1 -0.1)">
      <defs>
       <path id="DejaVuSans-67" d="M 2906 1791 
Q 2906 2416 2648 2759 
Q 2391 3103 1925 3103 
Q 1463 3103 1205 2759 
Q 947 2416 947 1791 
Q 947 1169 1205 825 
Q 1463 481 1925 481 
Q 2391 481 2648 825 
Q 2906 1169 2906 1791 
z
M 3481 434 
Q 3481 -459 3084 -895 
Q 2688 -1331 1869 -1331 
Q 1566 -1331 1297 -1286 
Q 1028 -1241 775 -1147 
L 775 -588 
Q 1028 -725 1275 -790 
Q 1522 -856 1778 -856 
Q 2344 -856 2625 -561 
Q 2906 -266 2906 331 
L 2906 616 
Q 2728 306 2450 153 
Q 2172 0 1784 0 
Q 1141 0 747 490 
Q 353 981 353 1791 
Q 353 2603 747 3093 
Q 1141 3584 1784 3584 
Q 2172 3584 2450 3431 
Q 2728 3278 2906 2969 
L 2906 3500 
L 3481 3500 
L 3481 434 
z
" transform="scale(0.015625)"/>
      </defs>
      <use xlink:href="#DejaVuSans-67"/>
      <use xlink:href="#DejaVuSans-28" transform="translate(63.476562 0)"/>
      <use xlink:href="#DejaVuSans-72" transform="translate(102.490234 0)"/>
      <use xlink:href="#DejaVuSans-29" transform="translate(143.603516 0)"/>
     </g>
    </g>
   </g>
   <g id="line2d_16">
    <path d="M 50.473352 261.216 
L 123.887697 261.154407 
L 125.519127 260.754047 
L 127.150556 257.118594 
L 128.781986 242.947399 
L 130.413416 212.331766 
L 132.044846 164.297704 
L 133.676276 109.19345 
L 135.307706 65.828006 
L 136.939136 33.59188 
L 138.570566 20.853561 
L 140.201995 24.386482 
L 141.833425 40.098623 
L 143.464855 57.306751 
L 146.727715 98.122552 
L 149.990575 132.466617 
L 153.253435 159.144029 
L 156.516294 178.181648 
L 158.147724 185.403487 
L 159.779154 191.779867 
L 163.042014 201.847726 
L 166.304874 206.569239 
L 169.567733 212.91354 
L 171.199163 213.0949 
L 172.830593 214.208306 
L 174.462023 214.946217 
L 176.093453 214.925943 
L 177.724883 215.387311 
L 179.356313 215.298871 
L 182.619172 214.069172 
L 184.250602 213.734463 
L 185.882032 211.880724 
L 187.513462 210.365635 
L 189.144892 208.332703 
L 190.776322 205.282013 
L 192.407752 203.269308 
L 194.039181 199.681675 
L 200.564901 186.904959 
L 202.196331 184.16356 
L 203.827761 180.804564 
L 205.459191 178.641733 
L 207.09062 176.813583 
L 208.72205 175.204856 
L 210.35348 172.931556 
L 211.98491 171.202344 
L 213.61634 169.719013 
L 215.24777 168.059645 
L 218.51063 167.962637 
L 220.142059 167.603858 
L 221.773489 168.256846 
L 223.404919 169.747009 
L 225.036349 169.587028 
L 226.667779 171.873037 
L 228.299209 173.261664 
L 229.930639 175.006517 
L 231.562069 177.474192 
L 233.193498 180.963011 
L 236.456358 185.267559 
L 238.087788 187.759099 
L 239.719218 189.484516 
L 241.350648 192.467478 
L 242.982078 194.326668 
L 244.613508 195.698936 
L 246.244937 197.380484 
L 247.876367 198.657294 
L 249.507797 199.688649 
L 251.139227 200.276907 
L 252.770657 201.623491 
L 256.033517 202.370666 
L 257.664947 202.435082 
L 259.296376 202.620467 
L 260.927806 202.193783 
L 262.559236 201.436332 
L 265.822096 199.360818 
L 269.084956 197.872486 
L 270.716386 196.635887 
L 272.347815 195.735341 
L 275.610675 193.278502 
L 277.242105 192.064769 
L 278.873535 190.560747 
L 280.504965 190.321384 
L 283.767825 188.510442 
L 288.662114 186.784641 
L 290.293544 186.658261 
L 291.924974 187.119316 
L 296.819264 188.00431 
L 298.450694 187.839086 
L 301.713553 189.819107 
L 303.344983 189.908232 
L 304.976413 191.139401 
L 308.239273 192.656472 
L 309.870703 193.629577 
L 311.502133 194.176262 
L 313.133562 195.007977 
L 316.396422 195.84983 
L 318.027852 196.68769 
L 319.659282 196.912664 
L 321.290712 197.929614 
L 322.922142 198.04064 
L 324.553572 198.935734 
L 326.185001 198.918332 
L 327.816431 199.894792 
L 329.447861 199.946649 
L 331.079291 200.650672 
L 332.710721 200.652084 
L 335.973581 201.138592 
L 337.605011 201.555448 
L 339.23644 201.520187 
L 340.86787 201.678228 
L 342.4993 202.666923 
L 349.02502 204.870377 
L 350.65645 205.782323 
L 352.287879 206.269056 
L 353.919309 206.381946 
L 357.182169 207.770836 
L 358.813599 207.649246 
L 360.445029 208.537523 
L 362.076459 209.001639 
L 365.339318 210.484114 
L 368.602178 212.631713 
L 370.233608 213.056697 
L 375.127898 215.903948 
L 375.127898 215.903948 
" clip-path="url(#p73c3af8a05)" style="fill: none; stroke: #1f77b4; stroke-width: 1.5; stroke-linecap: square"/>
   </g>
   <g id="line2d_17">
    <path d="M 34.240625 215.360466 
L 391.360625 215.360466 
" clip-path="url(#p73c3af8a05)" style="fill: none; stroke-dasharray: 5.55,2.4; stroke-dashoffset: 0; stroke: #000000; stroke-opacity: 0.4; stroke-width: 1.5"/>
   </g>
   <g id="patch_3">
    <path d="M 34.240625 273.312 
L 34.240625 7.2 
" style="fill: none; stroke: #000000; stroke-width: 0.8; stroke-linejoin: miter; stroke-linecap: square"/>
   </g>
   <g id="patch_4">
    <path d="M 391.360625 273.312 
L 391.360625 7.2 
" style="fill: none; stroke: #000000; stroke-width: 0.8; stroke-linejoin: miter; stroke-linecap: square"/>
   </g>
   <g id="patch_5">
    <path d="M 34.240625 273.312 
L 391.360625 273.312 
" style="fill: none; stroke: #000000; stroke-width: 0.8; stroke-linejoin: miter; stroke-linecap: square"/>
   </g>
   <g id="patch_6">
    <path d="M 34.240625 7.2 
L 391.360625 7.2 
" style="fill: none; stroke: #000000; stroke-width: 0.8; stroke-linejoin: miter; stroke-linecap: square"/>
   </g>
   <g id="legend_1">
    <g id="patch_7">
     <path d="M 318.199688 44.55625 
L 384.360625 44.55625 
Q 386.360625 44.55625 386.360625 42.55625 
L 386.360625 14.2 
Q 386.360625 12.2 384.360625 12.2 
L 318.199688 12.2 
Q 316.199688 12.2 316.199688 14.2 
L 316.199688 42.55625 
Q 316.199688 44.55625 318.199688 44.55625 
z
" style="fill: #ffffff; opacity: 0.8; stroke: #cccccc; stroke-linejoin: miter"/>
    </g>
    <g id="line2d_18">
     <path d="M 320.199688 20.298437 
L 330.199688 20.298437 
L 340.199688 20.298437 
" style="fill: none; stroke: #1f77b4; stroke-width: 1.5; stroke-linecap: square"/>
    </g>
    <g id="text_18">
     <!-- Mean -->
     <g transform="translate(348.199688 23.798437) scale(0.1 -0.1)">
      <defs>
       <path id="DejaVuSans-4d" d="M 628 4666 
L 1569 4666 
L 2759 1491 
L 3956 4666 
L 4897 4666 
L 4897 0 
L 4281 0 
L 4281 4097 
L 3078 897 
L 2444 897 
L 1241 4097 
L 1241 0 
L 628 0 
L 628 4666 
z
" transform="scale(0.015625)"/>
       <path id="DejaVuSans-61" d="M 2194 1759 
Q 1497 1759 1228 1600 
Q 959 1441 959 1056 
Q 959 750 1161 570 
Q 1363 391 1709 391 
Q 2188 391 2477 730 
Q 2766 1069 2766 1631 
L 2766 1759 
L 2194 1759 
z
M 3341 1997 
L 3341 0 
L 2766 0 
L 2766 531 
Q 2569 213 2275 61 
Q 1981 -91 1556 -91 
Q 1019 -91 701 211 
Q 384 513 384 1019 
Q 384 1609 779 1909 
Q 1175 2209 1959 2209 
L 2766 2209 
L 2766 2266 
Q 2766 2663 2505 2880 
Q 2244 3097 1772 3097 
Q 1472 3097 1187 3025 
Q 903 2953 641 2809 
L 641 3341 
Q 956 3463 1253 3523 
Q 1550 3584 1831 3584 
Q 2591 3584 2966 3190 
Q 3341 2797 3341 1997 
z
" transform="scale(0.015625)"/>
      </defs>
      <use xlink:href="#DejaVuSans-4d"/>
      <use xlink:href="#DejaVuSans-65" transform="translate(86.279297 0)"/>
      <use xlink:href="#DejaVuSans-61" transform="translate(147.802734 0)"/>
      <use xlink:href="#DejaVuSans-6e" transform="translate(209.082031 0)"/>
     </g>
    </g>
    <g id="patch_8">
     <path d="M 320.199688 38.476562 
L 340.199688 38.476562 
L 340.199688 31.476562 
L 320.199688 31.476562 
z
" style="fill: #1f77b4; fill-opacity: 0.3; stroke: #1f77b4; stroke-opacity: 0.3; stroke-linejoin: miter"/>
    </g>
    <g id="text_19">
     <!-- Std Err -->
     <g transform="translate(348.199688 38.476562) scale(0.1 -0.1)">
      <defs>
       <path id="DejaVuSans-53" d="M 3425 4513 
L 3425 3897 
Q 3066 4069 2747 4153 
Q 2428 4238 2131 4238 
Q 1616 4238 1336 4038 
Q 1056 3838 1056 3469 
Q 1056 3159 1242 3001 
Q 1428 2844 1947 2747 
L 2328 2669 
Q 3034 2534 3370 2195 
Q 3706 1856 3706 1288 
Q 3706 609 3251 259 
Q 2797 -91 1919 -91 
Q 1588 -91 1214 -16 
Q 841 59 441 206 
L 441 856 
Q 825 641 1194 531 
Q 1563 422 1919 422 
Q 2459 422 2753 634 
Q 3047 847 3047 1241 
Q 3047 1584 2836 1778 
Q 2625 1972 2144 2069 
L 1759 2144 
Q 1053 2284 737 2584 
Q 422 2884 422 3419 
Q 422 4038 858 4394 
Q 1294 4750 2059 4750 
Q 2388 4750 2728 4690 
Q 3069 4631 3425 4513 
z
" transform="scale(0.015625)"/>
       <path id="DejaVuSans-45" d="M 628 4666 
L 3578 4666 
L 3578 4134 
L 1259 4134 
L 1259 2753 
L 3481 2753 
L 3481 2222 
L 1259 2222 
L 1259 531 
L 3634 531 
L 3634 0 
L 628 0 
L 628 4666 
z
" transform="scale(0.015625)"/>
      </defs>
      <use xlink:href="#DejaVuSans-53"/>
      <use xlink:href="#DejaVuSans-74" transform="translate(63.476562 0)"/>
      <use xlink:href="#DejaVuSans-64" transform="translate(102.685547 0)"/>
      <use xlink:href="#DejaVuSans-20" transform="translate(166.162109 0)"/>
      <use xlink:href="#DejaVuSans-45" transform="translate(197.949219 0)"/>
      <use xlink:href="#DejaVuSans-72" transform="translate(261.132812 0)"/>
      <use xlink:href="#DejaVuSans-72" transform="translate(300.496094 0)"/>
     </g>
    </g>
   </g>
  </g>
 </g>
 <defs>
  <clipPath id="p73c3af8a05">
   <rect x="34.240625" y="7.2" width="357.12" height="266.112"/>
  </clipPath>
 </defs>
</svg>
