<?xml version="1.0" encoding="utf-8" standalone="no"?>
<!DOCTYPE svg PUBLIC "-//W3C//DTD SVG 1.1//EN"
  "http://www.w3.org/Graphics/SVG/1.1/DTD/svg11.dtd">
<svg xmlns:xlink="http://www.w3.org/1999/xlink" width="408.368437pt" height="311.146375pt" viewBox="0 0 408.368437 311.146375" xmlns="http://www.w3.org/2000/svg" version="1.1">
 <metadata>
  <rdf:RDF xmlns:dc="http://purl.org/dc/elements/1.1/" xmlns:cc="http://creativecommons.org/ns#" xmlns:rdf="http://www.w3.org/1999/02/22-rdf-syntax-ns#">
   <cc:Work>
    <dc:type rdf:resource="http://purl.org/dc/dcmitype/StillImage"/>
    <dc:date>2025-12-11T12:44:33.294703</dc:date>
    <dc:format>image/svg+xml</dc:format>
    <dc:creator>
     <cc:Agent>
      <dc:title>Matplotlib v3.10.5, https://matplotlib.org/</dc:title>
     </cc:Agent>
    </dc:creator>
   </cc:Work>
  </rdf:RDF>
 </metadata>
 <defs>
  <style type="text/css">*{stroke-linejoin: round; stroke-linecap: butt}</style>
 </defs>
 <g id="figure_1">
  <g id="patch_1">
   <path d="M 0 311.146375 
L 408.368437 311.146375 
L 408.368437 0 
L 0 0 
z
" style="fill: #ffffff"/>
  </g>
  <g id="axes_1">
   <g id="patch_2">
    <path d="M 44.048438 273.312 
L 401.168437 273.312 
L 401.168437 7.2 
L 44.048438 7.2 
z
" style="fill: #ffffff"/>
   </g>
   <g id="FillBetweenPolyCollection_1">
    <defs>
     <path id="m54ac7a6cea" d="M 60.281165 -49.930375 
L 60.281165 -49.930375 
L 62.115371 -49.930375 
L 63.949578 -49.930375 
L 65.783784 -49.930375 
L 67.617991 -49.930375 
L 69.452197 -49.930375 
L 71.286404 -49.930375 
L 73.12061 -49.930375 
L 74.954817 -49.930375 
L 76.789023 -49.930375 
L 78.623229 -49.930375 
L 80.457436 -49.930375 
L 82.291642 -49.930375 
L 84.125849 -49.930375 
L 85.960055 -49.930375 
L 87.794262 -49.930375 
L 89.628468 -49.930375 
L 91.462675 -49.930375 
L 93.296881 -49.930375 
L 95.131088 -49.930375 
L 96.965294 -49.930375 
L 98.799501 -49.930375 
L 100.633707 -49.930375 
L 102.467914 -49.930375 
L 104.30212 -49.930375 
L 106.136327 -49.930375 
L 107.970533 -49.930375 
L 109.80474 -49.930375 
L 111.638946 -49.930375 
L 113.473152 -49.930375 
L 115.307359 -49.930375 
L 117.141565 -49.930375 
L 118.975772 -49.930375 
L 120.809978 -49.930375 
L 122.644185 -49.930375 
L 124.478391 -49.930375 
L 126.312598 -49.930375 
L 128.146804 -49.930375 
L 129.981011 -49.930375 
L 131.815217 -49.930375 
L 133.649424 -49.930375 
L 135.48363 -49.930375 
L 137.317837 -50.804083 
L 139.152043 -50.417408 
L 140.98625 -50.689381 
L 142.820456 -56.002134 
L 144.654662 -65.143226 
L 146.488869 -80.359546 
L 148.323075 -96.784039 
L 150.157282 -167.419355 
L 151.991488 -208.044958 
L 153.825695 -244.689083 
L 155.659901 -246.948068 
L 157.494108 -246.965589 
L 159.328314 -283.358653 
L 161.162521 -268.396467 
L 162.996727 -257.24951 
L 164.830934 -237.935048 
L 166.66514 -226.486844 
L 168.499347 -193.657463 
L 170.333553 -196.899396 
L 172.16776 -154.290103 
L 174.001966 -148.043085 
L 175.836172 -143.270035 
L 177.670379 -123.269701 
L 179.504585 -119.215975 
L 181.338792 -110.528135 
L 183.172998 -112.142669 
L 185.007205 -101.403244 
L 186.841411 -100.118649 
L 188.675618 -96.637817 
L 190.509824 -102.97053 
L 192.344031 -92.748585 
L 194.178237 -94.469462 
L 196.012444 -94.310666 
L 197.84665 -93.43382 
L 199.680857 -95.204541 
L 201.515063 -101.972055 
L 203.34927 -93.063213 
L 205.183476 -92.855978 
L 207.017682 -94.232034 
L 208.851889 -98.702745 
L 210.686095 -94.553486 
L 212.520302 -107.814391 
L 214.354508 -101.214681 
L 216.188715 -111.095032 
L 218.022921 -109.188456 
L 219.857128 -114.971606 
L 221.691334 -114.537375 
L 223.525541 -115.086524 
L 225.359747 -118.51646 
L 227.193954 -121.376707 
L 229.02816 -130.409358 
L 230.862367 -139.965909 
L 232.696573 -133.626788 
L 234.53078 -145.466181 
L 236.364986 -142.113702 
L 238.199193 -145.699424 
L 240.033399 -151.700443 
L 241.867605 -148.213583 
L 243.701812 -148.808494 
L 245.536018 -142.88196 
L 247.370225 -138.604337 
L 249.204431 -136.739417 
L 251.038638 -143.19688 
L 252.872844 -144.257045 
L 254.707051 -147.227684 
L 256.541257 -143.661177 
L 258.375464 -134.637289 
L 260.20967 -139.475003 
L 262.043877 -126.085153 
L 263.878083 -132.379993 
L 265.71229 -124.175854 
L 267.546496 -127.728546 
L 269.380703 -125.171676 
L 271.214909 -116.443507 
L 273.049115 -120.200255 
L 274.883322 -113.183613 
L 276.717528 -120.2437 
L 278.551735 -118.269652 
L 280.385941 -122.618771 
L 282.220148 -114.822312 
L 284.054354 -122.034949 
L 285.888561 -114.994781 
L 287.722767 -117.018744 
L 289.556974 -120.214349 
L 291.39118 -118.556672 
L 293.225387 -121.589545 
L 295.059593 -120.947676 
L 296.8938 -124.22495 
L 298.728006 -117.054494 
L 300.562213 -111.57237 
L 302.396419 -115.040564 
L 304.230625 -122.163265 
L 306.064832 -113.955872 
L 307.899038 -120.48597 
L 309.733245 -115.944986 
L 311.567451 -122.347485 
L 313.401658 -126.017015 
L 315.235864 -127.721743 
L 317.070071 -132.3202 
L 318.904277 -130.789134 
L 320.738484 -134.25648 
L 322.57269 -139.057584 
L 324.406897 -139.229616 
L 326.241103 -138.506475 
L 328.07531 -141.675516 
L 329.909516 -140.68281 
L 331.743723 -142.145335 
L 333.577929 -143.247332 
L 335.412135 -140.743861 
L 337.246342 -141.381174 
L 339.080548 -136.358089 
L 340.914755 -128.73239 
L 342.748961 -133.023205 
L 344.583168 -129.335032 
L 346.417374 -134.410438 
L 348.251581 -135.63277 
L 350.085787 -133.527367 
L 351.919994 -128.777804 
L 353.7542 -127.281083 
L 355.588407 -126.939422 
L 357.422613 -127.519473 
L 359.25682 -126.009657 
L 361.091026 -130.108164 
L 362.925233 -116.40712 
L 364.759439 -126.65469 
L 366.593646 -124.31025 
L 368.427852 -121.707695 
L 370.262058 -117.393677 
L 372.096265 -119.447434 
L 373.930471 -120.058457 
L 375.764678 -117.165534 
L 377.598884 -114.803476 
L 379.433091 -122.400567 
L 381.267297 -119.286935 
L 383.101504 -116.504274 
L 384.93571 -117.892797 
L 384.93571 -126.424866 
L 384.93571 -126.424866 
L 383.101504 -126.378118 
L 381.267297 -132.119676 
L 379.433091 -132.171577 
L 377.598884 -129.835082 
L 375.764678 -128.032043 
L 373.930471 -133.544679 
L 372.096265 -132.384599 
L 370.262058 -125.071393 
L 368.427852 -136.027411 
L 366.593646 -129.996305 
L 364.759439 -138.996336 
L 362.925233 -130.147317 
L 361.091026 -139.380495 
L 359.25682 -134.821755 
L 357.422613 -137.079394 
L 355.588407 -134.328929 
L 353.7542 -136.440019 
L 351.919994 -137.657212 
L 350.085787 -140.080472 
L 348.251581 -145.413205 
L 346.417374 -143.553295 
L 344.583168 -139.832333 
L 342.748961 -140.654459 
L 340.914755 -136.119116 
L 339.080548 -142.813104 
L 337.246342 -148.423669 
L 335.412135 -148.897844 
L 333.577929 -153.279791 
L 331.743723 -151.458437 
L 329.909516 -153.467666 
L 328.07531 -147.644588 
L 326.241103 -147.863391 
L 324.406897 -154.64769 
L 322.57269 -145.164842 
L 320.738484 -142.282627 
L 318.904277 -139.201092 
L 317.070071 -138.795753 
L 315.235864 -140.909465 
L 313.401658 -132.359923 
L 311.567451 -130.188189 
L 309.733245 -123.527296 
L 307.899038 -130.292116 
L 306.064832 -121.957006 
L 304.230625 -126.560129 
L 302.396419 -120.851431 
L 300.562213 -125.332153 
L 298.728006 -121.912201 
L 296.8938 -129.799332 
L 295.059593 -125.179888 
L 293.225387 -130.613236 
L 291.39118 -128.657593 
L 289.556974 -126.902115 
L 287.722767 -128.730639 
L 285.888561 -128.428934 
L 284.054354 -128.947219 
L 282.220148 -124.844844 
L 280.385941 -130.745333 
L 278.551735 -134.404364 
L 276.717528 -133.661691 
L 274.883322 -122.414334 
L 273.049115 -133.778454 
L 271.214909 -131.248663 
L 269.380703 -142.719579 
L 267.546496 -136.763378 
L 265.71229 -139.005856 
L 263.878083 -141.807401 
L 262.043877 -135.157564 
L 260.20967 -144.064995 
L 258.375464 -140.040076 
L 256.541257 -149.868739 
L 254.707051 -156.962915 
L 252.872844 -163.448998 
L 251.038638 -148.55603 
L 249.204431 -150.89543 
L 247.370225 -151.735367 
L 245.536018 -155.773804 
L 243.701812 -159.44551 
L 241.867605 -159.645815 
L 240.033399 -166.0033 
L 238.199193 -156.558974 
L 236.364986 -159.986449 
L 234.53078 -158.856922 
L 232.696573 -148.38137 
L 230.862367 -157.241544 
L 229.02816 -148.619378 
L 227.193954 -129.757892 
L 225.359747 -126.307669 
L 223.525541 -123.107191 
L 221.691334 -128.784743 
L 219.857128 -126.480626 
L 218.022921 -121.483243 
L 216.188715 -116.064414 
L 214.354508 -113.615133 
L 212.520302 -119.652813 
L 210.686095 -106.782121 
L 208.851889 -105.271012 
L 207.017682 -108.674936 
L 205.183476 -104.743439 
L 203.34927 -97.032958 
L 201.515063 -110.326332 
L 199.680857 -103.239776 
L 197.84665 -102.251764 
L 196.012444 -101.214541 
L 194.178237 -106.546322 
L 192.344031 -101.411051 
L 190.509824 -109.703309 
L 188.675618 -103.261755 
L 186.841411 -108.975958 
L 185.007205 -109.83408 
L 183.172998 -123.530276 
L 181.338792 -125.876956 
L 179.504585 -134.073192 
L 177.670379 -133.270541 
L 175.836172 -159.700904 
L 174.001966 -164.18558 
L 172.16776 -164.957963 
L 170.333553 -204.700107 
L 168.499347 -212.652148 
L 166.66514 -244.86123 
L 164.830934 -264.550885 
L 162.996727 -273.930403 
L 161.162521 -291.850375 
L 159.328314 -290.777785 
L 157.494108 -281.790765 
L 155.659901 -252.58162 
L 153.825695 -250.903151 
L 151.991488 -228.834922 
L 150.157282 -179.867242 
L 148.323075 -115.095253 
L 146.488869 -91.86538 
L 144.654662 -70.950663 
L 142.820456 -57.319524 
L 140.98625 -53.187753 
L 139.152043 -52.060754 
L 137.317837 -52.163088 
L 135.48363 -49.930375 
L 133.649424 -49.930375 
L 131.815217 -49.930375 
L 129.981011 -49.930375 
L 128.146804 -49.930375 
L 126.312598 -49.930375 
L 124.478391 -49.930375 
L 122.644185 -49.930375 
L 120.809978 -49.930375 
L 118.975772 -49.930375 
L 117.141565 -49.930375 
L 115.307359 -49.930375 
L 113.473152 -49.930375 
L 111.638946 -49.930375 
L 109.80474 -49.930375 
L 107.970533 -49.930375 
L 106.136327 -49.930375 
L 104.30212 -49.930375 
L 102.467914 -49.930375 
L 100.633707 -49.930375 
L 98.799501 -49.930375 
L 96.965294 -49.930375 
L 95.131088 -49.930375 
L 93.296881 -49.930375 
L 91.462675 -49.930375 
L 89.628468 -49.930375 
L 87.794262 -49.930375 
L 85.960055 -49.930375 
L 84.125849 -49.930375 
L 82.291642 -49.930375 
L 80.457436 -49.930375 
L 78.623229 -49.930375 
L 76.789023 -49.930375 
L 74.954817 -49.930375 
L 73.12061 -49.930375 
L 71.286404 -49.930375 
L 69.452197 -49.930375 
L 67.617991 -49.930375 
L 65.783784 -49.930375 
L 63.949578 -49.930375 
L 62.115371 -49.930375 
L 60.281165 -49.930375 
z
" style="stroke: #ff7f0e; stroke-opacity: 0.3"/>
    </defs>
    <g clip-path="url(#p368fb95752)">
     <use xlink:href="#m54ac7a6cea" x="0" y="311.146375" style="fill: #ff7f0e; fill-opacity: 0.3; stroke: #ff7f0e; stroke-opacity: 0.3"/>
    </g>
   </g>
   <g id="matplotlib.axis_1">
    <g id="xtick_1">
     <g id="line2d_1">
      <defs>
       <path id="me808a706ee" d="M 0 0 
L 0 3.5 
" style="stroke: #000000; stroke-width: 0.8"/>
      </defs>
      <g>
       <use xlink:href="#me808a706ee" x="59.364062" y="273.312" style="stroke: #000000; stroke-width: 0.8"/>
      </g>
     </g>
     <g id="text_1">
      <!-- 0.0 -->
      <g transform="translate(51.412499 287.910437) scale(0.1 -0.1)">
       <defs>
        <path id="DejaVuSans-30" d="M 2034 4250 
Q 1547 4250 1301 3770 
Q 1056 3291 1056 2328 
Q 1056 1369 1301 889 
Q 1547 409 2034 409 
Q 2525 409 2770 889 
Q 3016 1369 3016 2328 
Q 3016 3291 2770 3770 
Q 2525 4250 2034 4250 
z
M 2034 4750 
Q 2819 4750 3233 4129 
Q 3647 3509 3647 2328 
Q 3647 1150 3233 529 
Q 2819 -91 2034 -91 
Q 1250 -91 836 529 
Q 422 1150 422 2328 
Q 422 3509 836 4129 
Q 1250 4750 2034 4750 
z
" transform="scale(0.015625)"/>
        <path id="DejaVuSans-2e" d="M 684 794 
L 1344 794 
L 1344 0 
L 684 0 
L 684 794 
z
" transform="scale(0.015625)"/>
       </defs>
       <use xlink:href="#DejaVuSans-30"/>
       <use xlink:href="#DejaVuSans-2e" transform="translate(63.623047 0)"/>
       <use xlink:href="#DejaVuSans-30" transform="translate(95.410156 0)"/>
      </g>
     </g>
    </g>
    <g id="xtick_2">
     <g id="line2d_2">
      <g>
       <use xlink:href="#me808a706ee" x="105.219223" y="273.312" style="stroke: #000000; stroke-width: 0.8"/>
      </g>
     </g>
     <g id="text_2">
      <!-- 0.5 -->
      <g transform="translate(97.267661 287.910437) scale(0.1 -0.1)">
       <defs>
        <path id="DejaVuSans-35" d="M 691 4666 
L 3169 4666 
L 3169 4134 
L 1269 4134 
L 1269 2991 
Q 1406 3038 1543 3061 
Q 1681 3084 1819 3084 
Q 2600 3084 3056 2656 
Q 3513 2228 3513 1497 
Q 3513 744 3044 326 
Q 2575 -91 1722 -91 
Q 1428 -91 1123 -41 
Q 819 9 494 109 
L 494 744 
Q 775 591 1075 516 
Q 1375 441 1709 441 
Q 2250 441 2565 725 
Q 2881 1009 2881 1497 
Q 2881 1984 2565 2268 
Q 2250 2553 1709 2553 
Q 1456 2553 1204 2497 
Q 953 2441 691 2322 
L 691 4666 
z
" transform="scale(0.015625)"/>
       </defs>
       <use xlink:href="#DejaVuSans-30"/>
       <use xlink:href="#DejaVuSans-2e" transform="translate(63.623047 0)"/>
       <use xlink:href="#DejaVuSans-35" transform="translate(95.410156 0)"/>
      </g>
     </g>
    </g>
    <g id="xtick_3">
     <g id="line2d_3">
      <g>
       <use xlink:href="#me808a706ee" x="151.074385" y="273.312" style="stroke: #000000; stroke-width: 0.8"/>
      </g>
     </g>
     <g id="text_3">
      <!-- 1.0 -->
      <g transform="translate(143.122823 287.910437) scale(0.1 -0.1)">
       <defs>
        <path id="DejaVuSans-31" d="M 794 531 
L 1825 531 
L 1825 4091 
L 703 3866 
L 703 4441 
L 1819 4666 
L 2450 4666 
L 2450 531 
L 3481 531 
L 3481 0 
L 794 0 
L 794 531 
z
" transform="scale(0.015625)"/>
       </defs>
       <use xlink:href="#DejaVuSans-31"/>
       <use xlink:href="#DejaVuSans-2e" transform="translate(63.623047 0)"/>
       <use xlink:href="#DejaVuSans-30" transform="translate(95.410156 0)"/>
      </g>
     </g>
    </g>
    <g id="xtick_4">
     <g id="line2d_4">
      <g>
       <use xlink:href="#me808a706ee" x="196.929547" y="273.312" style="stroke: #000000; stroke-width: 0.8"/>
      </g>
     </g>
     <g id="text_4">
      <!-- 1.5 -->
      <g transform="translate(188.977984 287.910437) scale(0.1 -0.1)">
       <use xlink:href="#DejaVuSans-31"/>
       <use xlink:href="#DejaVuSans-2e" transform="translate(63.623047 0)"/>
       <use xlink:href="#DejaVuSans-35" transform="translate(95.410156 0)"/>
      </g>
     </g>
    </g>
    <g id="xtick_5">
     <g id="line2d_5">
      <g>
       <use xlink:href="#me808a706ee" x="242.784709" y="273.312" style="stroke: #000000; stroke-width: 0.8"/>
      </g>
     </g>
     <g id="text_5">
      <!-- 2.0 -->
      <g transform="translate(234.833146 287.910437) scale(0.1 -0.1)">
       <defs>
        <path id="DejaVuSans-32" d="M 1228 531 
L 3431 531 
L 3431 0 
L 469 0 
L 469 531 
Q 828 903 1448 1529 
Q 2069 2156 2228 2338 
Q 2531 2678 2651 2914 
Q 2772 3150 2772 3378 
Q 2772 3750 2511 3984 
Q 2250 4219 1831 4219 
Q 1534 4219 1204 4116 
Q 875 4013 500 3803 
L 500 4441 
Q 881 4594 1212 4672 
Q 1544 4750 1819 4750 
Q 2544 4750 2975 4387 
Q 3406 4025 3406 3419 
Q 3406 3131 3298 2873 
Q 3191 2616 2906 2266 
Q 2828 2175 2409 1742 
Q 1991 1309 1228 531 
z
" transform="scale(0.015625)"/>
       </defs>
       <use xlink:href="#DejaVuSans-32"/>
       <use xlink:href="#DejaVuSans-2e" transform="translate(63.623047 0)"/>
       <use xlink:href="#DejaVuSans-30" transform="translate(95.410156 0)"/>
      </g>
     </g>
    </g>
    <g id="xtick_6">
     <g id="line2d_6">
      <g>
       <use xlink:href="#me808a706ee" x="288.63987" y="273.312" style="stroke: #000000; stroke-width: 0.8"/>
      </g>
     </g>
     <g id="text_6">
      <!-- 2.5 -->
      <g transform="translate(280.688308 287.910437) scale(0.1 -0.1)">
       <use xlink:href="#DejaVuSans-32"/>
       <use xlink:href="#DejaVuSans-2e" transform="translate(63.623047 0)"/>
       <use xlink:href="#DejaVuSans-35" transform="translate(95.410156 0)"/>
      </g>
     </g>
    </g>
    <g id="xtick_7">
     <g id="line2d_7">
      <g>
       <use xlink:href="#me808a706ee" x="334.495032" y="273.312" style="stroke: #000000; stroke-width: 0.8"/>
      </g>
     </g>
     <g id="text_7">
      <!-- 3.0 -->
      <g transform="translate(326.54347 287.910437) scale(0.1 -0.1)">
       <defs>
        <path id="DejaVuSans-33" d="M 2597 2516 
Q 3050 2419 3304 2112 
Q 3559 1806 3559 1356 
Q 3559 666 3084 287 
Q 2609 -91 1734 -91 
Q 1441 -91 1130 -33 
Q 819 25 488 141 
L 488 750 
Q 750 597 1062 519 
Q 1375 441 1716 441 
Q 2309 441 2620 675 
Q 2931 909 2931 1356 
Q 2931 1769 2642 2001 
Q 2353 2234 1838 2234 
L 1294 2234 
L 1294 2753 
L 1863 2753 
Q 2328 2753 2575 2939 
Q 2822 3125 2822 3475 
Q 2822 3834 2567 4026 
Q 2313 4219 1838 4219 
Q 1578 4219 1281 4162 
Q 984 4106 628 3988 
L 628 4550 
Q 988 4650 1302 4700 
Q 1616 4750 1894 4750 
Q 2613 4750 3031 4423 
Q 3450 4097 3450 3541 
Q 3450 3153 3228 2886 
Q 3006 2619 2597 2516 
z
" transform="scale(0.015625)"/>
       </defs>
       <use xlink:href="#DejaVuSans-33"/>
       <use xlink:href="#DejaVuSans-2e" transform="translate(63.623047 0)"/>
       <use xlink:href="#DejaVuSans-30" transform="translate(95.410156 0)"/>
      </g>
     </g>
    </g>
    <g id="xtick_8">
     <g id="line2d_8">
      <g>
       <use xlink:href="#me808a706ee" x="380.350194" y="273.312" style="stroke: #000000; stroke-width: 0.8"/>
      </g>
     </g>
     <g id="text_8">
      <!-- 3.5 -->
      <g transform="translate(372.398632 287.910437) scale(0.1 -0.1)">
       <use xlink:href="#DejaVuSans-33"/>
       <use xlink:href="#DejaVuSans-2e" transform="translate(63.623047 0)"/>
       <use xlink:href="#DejaVuSans-35" transform="translate(95.410156 0)"/>
      </g>
     </g>
    </g>
    <g id="text_9">
     <!-- r_xy (reduced units) -->
     <g transform="translate(172.400625 301.588562) scale(0.1 -0.1)">
      <defs>
       <path id="DejaVuSans-72" d="M 2631 2963 
Q 2534 3019 2420 3045 
Q 2306 3072 2169 3072 
Q 1681 3072 1420 2755 
Q 1159 2438 1159 1844 
L 1159 0 
L 581 0 
L 581 3500 
L 1159 3500 
L 1159 2956 
Q 1341 3275 1631 3429 
Q 1922 3584 2338 3584 
Q 2397 3584 2469 3576 
Q 2541 3569 2628 3553 
L 2631 2963 
z
" transform="scale(0.015625)"/>
       <path id="DejaVuSans-5f" d="M 3263 -1063 
L 3263 -1509 
L -63 -1509 
L -63 -1063 
L 3263 -1063 
z
" transform="scale(0.015625)"/>
       <path id="DejaVuSans-78" d="M 3513 3500 
L 2247 1797 
L 3578 0 
L 2900 0 
L 1881 1375 
L 863 0 
L 184 0 
L 1544 1831 
L 300 3500 
L 978 3500 
L 1906 2253 
L 2834 3500 
L 3513 3500 
z
" transform="scale(0.015625)"/>
       <path id="DejaVuSans-79" d="M 2059 -325 
Q 1816 -950 1584 -1140 
Q 1353 -1331 966 -1331 
L 506 -1331 
L 506 -850 
L 844 -850 
Q 1081 -850 1212 -737 
Q 1344 -625 1503 -206 
L 1606 56 
L 191 3500 
L 800 3500 
L 1894 763 
L 2988 3500 
L 3597 3500 
L 2059 -325 
z
" transform="scale(0.015625)"/>
       <path id="DejaVuSans-20" transform="scale(0.015625)"/>
       <path id="DejaVuSans-28" d="M 1984 4856 
Q 1566 4138 1362 3434 
Q 1159 2731 1159 2009 
Q 1159 1288 1364 580 
Q 1569 -128 1984 -844 
L 1484 -844 
Q 1016 -109 783 600 
Q 550 1309 550 2009 
Q 550 2706 781 3412 
Q 1013 4119 1484 4856 
L 1984 4856 
z
" transform="scale(0.015625)"/>
       <path id="DejaVuSans-65" d="M 3597 1894 
L 3597 1613 
L 953 1613 
Q 991 1019 1311 708 
Q 1631 397 2203 397 
Q 2534 397 2845 478 
Q 3156 559 3463 722 
L 3463 178 
Q 3153 47 2828 -22 
Q 2503 -91 2169 -91 
Q 1331 -91 842 396 
Q 353 884 353 1716 
Q 353 2575 817 3079 
Q 1281 3584 2069 3584 
Q 2775 3584 3186 3129 
Q 3597 2675 3597 1894 
z
M 3022 2063 
Q 3016 2534 2758 2815 
Q 2500 3097 2075 3097 
Q 1594 3097 1305 2825 
Q 1016 2553 972 2059 
L 3022 2063 
z
" transform="scale(0.015625)"/>
       <path id="DejaVuSans-64" d="M 2906 2969 
L 2906 4863 
L 3481 4863 
L 3481 0 
L 2906 0 
L 2906 525 
Q 2725 213 2448 61 
Q 2172 -91 1784 -91 
Q 1150 -91 751 415 
Q 353 922 353 1747 
Q 353 2572 751 3078 
Q 1150 3584 1784 3584 
Q 2172 3584 2448 3432 
Q 2725 3281 2906 2969 
z
M 947 1747 
Q 947 1113 1208 752 
Q 1469 391 1925 391 
Q 2381 391 2643 752 
Q 2906 1113 2906 1747 
Q 2906 2381 2643 2742 
Q 2381 3103 1925 3103 
Q 1469 3103 1208 2742 
Q 947 2381 947 1747 
z
" transform="scale(0.015625)"/>
       <path id="DejaVuSans-75" d="M 544 1381 
L 544 3500 
L 1119 3500 
L 1119 1403 
Q 1119 906 1312 657 
Q 1506 409 1894 409 
Q 2359 409 2629 706 
Q 2900 1003 2900 1516 
L 2900 3500 
L 3475 3500 
L 3475 0 
L 2900 0 
L 2900 538 
Q 2691 219 2414 64 
Q 2138 -91 1772 -91 
Q 1169 -91 856 284 
Q 544 659 544 1381 
z
M 1991 3584 
L 1991 3584 
z
" transform="scale(0.015625)"/>
       <path id="DejaVuSans-63" d="M 3122 3366 
L 3122 2828 
Q 2878 2963 2633 3030 
Q 2388 3097 2138 3097 
Q 1578 3097 1268 2742 
Q 959 2388 959 1747 
Q 959 1106 1268 751 
Q 1578 397 2138 397 
Q 2388 397 2633 464 
Q 2878 531 3122 666 
L 3122 134 
Q 2881 22 2623 -34 
Q 2366 -91 2075 -91 
Q 1284 -91 818 406 
Q 353 903 353 1747 
Q 353 2603 823 3093 
Q 1294 3584 2113 3584 
Q 2378 3584 2631 3529 
Q 2884 3475 3122 3366 
z
" transform="scale(0.015625)"/>
       <path id="DejaVuSans-6e" d="M 3513 2113 
L 3513 0 
L 2938 0 
L 2938 2094 
Q 2938 2591 2744 2837 
Q 2550 3084 2163 3084 
Q 1697 3084 1428 2787 
Q 1159 2491 1159 1978 
L 1159 0 
L 581 0 
L 581 3500 
L 1159 3500 
L 1159 2956 
Q 1366 3272 1645 3428 
Q 1925 3584 2291 3584 
Q 2894 3584 3203 3211 
Q 3513 2838 3513 2113 
z
" transform="scale(0.015625)"/>
       <path id="DejaVuSans-69" d="M 603 3500 
L 1178 3500 
L 1178 0 
L 603 0 
L 603 3500 
z
M 603 4863 
L 1178 4863 
L 1178 4134 
L 603 4134 
L 603 4863 
z
" transform="scale(0.015625)"/>
       <path id="DejaVuSans-74" d="M 1172 4494 
L 1172 3500 
L 2356 3500 
L 2356 3053 
L 1172 3053 
L 1172 1153 
Q 1172 725 1289 603 
Q 1406 481 1766 481 
L 2356 481 
L 2356 0 
L 1766 0 
Q 1100 0 847 248 
Q 594 497 594 1153 
L 594 3053 
L 172 3053 
L 172 3500 
L 594 3500 
L 594 4494 
L 1172 4494 
z
" transform="scale(0.015625)"/>
       <path id="DejaVuSans-73" d="M 2834 3397 
L 2834 2853 
Q 2591 2978 2328 3040 
Q 2066 3103 1784 3103 
Q 1356 3103 1142 2972 
Q 928 2841 928 2578 
Q 928 2378 1081 2264 
Q 1234 2150 1697 2047 
L 1894 2003 
Q 2506 1872 2764 1633 
Q 3022 1394 3022 966 
Q 3022 478 2636 193 
Q 2250 -91 1575 -91 
Q 1294 -91 989 -36 
Q 684 19 347 128 
L 347 722 
Q 666 556 975 473 
Q 1284 391 1588 391 
Q 1994 391 2212 530 
Q 2431 669 2431 922 
Q 2431 1156 2273 1281 
Q 2116 1406 1581 1522 
L 1381 1569 
Q 847 1681 609 1914 
Q 372 2147 372 2553 
Q 372 3047 722 3315 
Q 1072 3584 1716 3584 
Q 2034 3584 2315 3537 
Q 2597 3491 2834 3397 
z
" transform="scale(0.015625)"/>
       <path id="DejaVuSans-29" d="M 513 4856 
L 1013 4856 
Q 1481 4119 1714 3412 
Q 1947 2706 1947 2009 
Q 1947 1309 1714 600 
Q 1481 -109 1013 -844 
L 513 -844 
Q 928 -128 1133 580 
Q 1338 1288 1338 2009 
Q 1338 2731 1133 3434 
Q 928 4138 513 4856 
z
" transform="scale(0.015625)"/>
      </defs>
      <use xlink:href="#DejaVuSans-72"/>
      <use xlink:href="#DejaVuSans-5f" transform="translate(41.113281 0)"/>
      <use xlink:href="#DejaVuSans-78" transform="translate(91.113281 0)"/>
      <use xlink:href="#DejaVuSans-79" transform="translate(150.292969 0)"/>
      <use xlink:href="#DejaVuSans-20" transform="translate(209.472656 0)"/>
      <use xlink:href="#DejaVuSans-28" transform="translate(241.259766 0)"/>
      <use xlink:href="#DejaVuSans-72" transform="translate(280.273438 0)"/>
      <use xlink:href="#DejaVuSans-65" transform="translate(319.136719 0)"/>
      <use xlink:href="#DejaVuSans-64" transform="translate(380.660156 0)"/>
      <use xlink:href="#DejaVuSans-75" transform="translate(444.136719 0)"/>
      <use xlink:href="#DejaVuSans-63" transform="translate(507.515625 0)"/>
      <use xlink:href="#DejaVuSans-65" transform="translate(562.496094 0)"/>
      <use xlink:href="#DejaVuSans-64" transform="translate(624.019531 0)"/>
      <use xlink:href="#DejaVuSans-20" transform="translate(687.496094 0)"/>
      <use xlink:href="#DejaVuSans-75" transform="translate(719.283203 0)"/>
      <use xlink:href="#DejaVuSans-6e" transform="translate(782.662109 0)"/>
      <use xlink:href="#DejaVuSans-69" transform="translate(846.041016 0)"/>
      <use xlink:href="#DejaVuSans-74" transform="translate(873.824219 0)"/>
      <use xlink:href="#DejaVuSans-73" transform="translate(913.033203 0)"/>
      <use xlink:href="#DejaVuSans-29" transform="translate(965.132812 0)"/>
     </g>
    </g>
   </g>
   <g id="matplotlib.axis_2">
    <g id="ytick_1">
     <g id="line2d_9">
      <defs>
       <path id="mf57af2d781" d="M 0 0 
L -3.5 0 
" style="stroke: #000000; stroke-width: 0.8"/>
      </defs>
      <g>
       <use xlink:href="#mf57af2d781" x="44.048438" y="261.216" style="stroke: #000000; stroke-width: 0.8"/>
      </g>
     </g>
     <g id="text_10">
      <!-- 0.0 -->
      <g transform="translate(21.145313 265.015219) scale(0.1 -0.1)">
       <use xlink:href="#DejaVuSans-30"/>
       <use xlink:href="#DejaVuSans-2e" transform="translate(63.623047 0)"/>
       <use xlink:href="#DejaVuSans-30" transform="translate(95.410156 0)"/>
      </g>
     </g>
    </g>
    <g id="ytick_2">
     <g id="line2d_10">
      <g>
       <use xlink:href="#mf57af2d781" x="44.048438" y="221.412101" style="stroke: #000000; stroke-width: 0.8"/>
      </g>
     </g>
     <g id="text_11">
      <!-- 0.5 -->
      <g transform="translate(21.145313 225.21132) scale(0.1 -0.1)">
       <use xlink:href="#DejaVuSans-30"/>
       <use xlink:href="#DejaVuSans-2e" transform="translate(63.623047 0)"/>
       <use xlink:href="#DejaVuSans-35" transform="translate(95.410156 0)"/>
      </g>
     </g>
    </g>
    <g id="ytick_3">
     <g id="line2d_11">
      <g>
       <use xlink:href="#mf57af2d781" x="44.048438" y="181.608202" style="stroke: #000000; stroke-width: 0.8"/>
      </g>
     </g>
     <g id="text_12">
      <!-- 1.0 -->
      <g transform="translate(21.145313 185.40742) scale(0.1 -0.1)">
       <use xlink:href="#DejaVuSans-31"/>
       <use xlink:href="#DejaVuSans-2e" transform="translate(63.623047 0)"/>
       <use xlink:href="#DejaVuSans-30" transform="translate(95.410156 0)"/>
      </g>
     </g>
    </g>
    <g id="ytick_4">
     <g id="line2d_12">
      <g>
       <use xlink:href="#mf57af2d781" x="44.048438" y="141.804302" style="stroke: #000000; stroke-width: 0.8"/>
      </g>
     </g>
     <g id="text_13">
      <!-- 1.5 -->
      <g transform="translate(21.145313 145.603521) scale(0.1 -0.1)">
       <use xlink:href="#DejaVuSans-31"/>
       <use xlink:href="#DejaVuSans-2e" transform="translate(63.623047 0)"/>
       <use xlink:href="#DejaVuSans-35" transform="translate(95.410156 0)"/>
      </g>
     </g>
    </g>
    <g id="ytick_5">
     <g id="line2d_13">
      <g>
       <use xlink:href="#mf57af2d781" x="44.048438" y="102.000403" style="stroke: #000000; stroke-width: 0.8"/>
      </g>
     </g>
     <g id="text_14">
      <!-- 2.0 -->
      <g transform="translate(21.145313 105.799622) scale(0.1 -0.1)">
       <use xlink:href="#DejaVuSans-32"/>
       <use xlink:href="#DejaVuSans-2e" transform="translate(63.623047 0)"/>
       <use xlink:href="#DejaVuSans-30" transform="translate(95.410156 0)"/>
      </g>
     </g>
    </g>
    <g id="ytick_6">
     <g id="line2d_14">
      <g>
       <use xlink:href="#mf57af2d781" x="44.048438" y="62.196504" style="stroke: #000000; stroke-width: 0.8"/>
      </g>
     </g>
     <g id="text_15">
      <!-- 2.5 -->
      <g transform="translate(21.145313 65.995723) scale(0.1 -0.1)">
       <use xlink:href="#DejaVuSans-32"/>
       <use xlink:href="#DejaVuSans-2e" transform="translate(63.623047 0)"/>
       <use xlink:href="#DejaVuSans-35" transform="translate(95.410156 0)"/>
      </g>
     </g>
    </g>
    <g id="ytick_7">
     <g id="line2d_15">
      <g>
       <use xlink:href="#mf57af2d781" x="44.048438" y="22.392605" style="stroke: #000000; stroke-width: 0.8"/>
      </g>
     </g>
     <g id="text_16">
      <!-- 3.0 -->
      <g transform="translate(21.145313 26.191824) scale(0.1 -0.1)">
       <use xlink:href="#DejaVuSans-33"/>
       <use xlink:href="#DejaVuSans-2e" transform="translate(63.623047 0)"/>
       <use xlink:href="#DejaVuSans-30" transform="translate(95.410156 0)"/>
      </g>
     </g>
    </g>
    <g id="text_17">
     <!-- g_xy(r) -->
     <g transform="translate(14.7875 157.806) rotate(-90) scale(0.1 -0.1)">
      <defs>
       <path id="DejaVuSans-67" d="M 2906 1791 
Q 2906 2416 2648 2759 
Q 2391 3103 1925 3103 
Q 1463 3103 1205 2759 
Q 947 2416 947 1791 
Q 947 1169 1205 825 
Q 1463 481 1925 481 
Q 2391 481 2648 825 
Q 2906 1169 2906 1791 
z
M 3481 434 
Q 3481 -459 3084 -895 
Q 2688 -1331 1869 -1331 
Q 1566 -1331 1297 -1286 
Q 1028 -1241 775 -1147 
L 775 -588 
Q 1028 -725 1275 -790 
Q 1522 -856 1778 -856 
Q 2344 -856 2625 -561 
Q 2906 -266 2906 331 
L 2906 616 
Q 2728 306 2450 153 
Q 2172 0 1784 0 
Q 1141 0 747 490 
Q 353 981 353 1791 
Q 353 2603 747 3093 
Q 1141 3584 1784 3584 
Q 2172 3584 2450 3431 
Q 2728 3278 2906 2969 
L 2906 3500 
L 3481 3500 
L 3481 434 
z
" transform="scale(0.015625)"/>
      </defs>
      <use xlink:href="#DejaVuSans-67"/>
      <use xlink:href="#DejaVuSans-5f" transform="translate(63.476562 0)"/>
      <use xlink:href="#DejaVuSans-78" transform="translate(113.476562 0)"/>
      <use xlink:href="#DejaVuSans-79" transform="translate(172.65625 0)"/>
      <use xlink:href="#DejaVuSans-28" transform="translate(231.835938 0)"/>
      <use xlink:href="#DejaVuSans-72" transform="translate(270.849609 0)"/>
      <use xlink:href="#DejaVuSans-29" transform="translate(311.962891 0)"/>
     </g>
    </g>
   </g>
   <g id="line2d_16">
    <path d="M 60.281165 261.216 
L 135.48363 261.216 
L 137.317837 259.662789 
L 139.152043 259.907294 
L 140.98625 259.207808 
L 142.820456 254.485546 
L 144.654662 243.09943 
L 146.488869 225.033912 
L 148.323075 205.206729 
L 150.157282 137.503077 
L 151.991488 92.706435 
L 153.825695 63.350258 
L 155.659901 61.381531 
L 157.494108 46.768198 
L 159.328314 24.078156 
L 161.162521 31.022954 
L 166.66514 75.472338 
L 168.499347 107.99157 
L 170.333553 110.346623 
L 172.16776 151.522342 
L 174.001966 155.032042 
L 175.836172 159.660905 
L 177.670379 182.876254 
L 179.504585 184.501791 
L 181.338792 192.943829 
L 183.172998 193.309902 
L 185.007205 205.527713 
L 186.841411 206.599072 
L 188.675618 211.196589 
L 190.509824 204.809456 
L 192.344031 214.066557 
L 194.178237 210.638483 
L 196.012444 213.383772 
L 197.84665 213.303583 
L 199.680857 211.924217 
L 201.515063 204.997182 
L 203.34927 216.09829 
L 205.183476 212.346667 
L 207.017682 209.69289 
L 208.851889 209.159496 
L 210.686095 210.478572 
L 212.520302 197.412773 
L 214.354508 203.731468 
L 216.188715 197.566652 
L 218.022921 195.810526 
L 219.857128 190.420259 
L 221.691334 189.485316 
L 223.525541 192.049518 
L 227.193954 185.579075 
L 229.02816 171.632007 
L 230.862367 162.542649 
L 232.696573 170.142296 
L 234.53078 158.984823 
L 236.364986 160.0963 
L 238.199193 160.017176 
L 240.033399 152.294504 
L 241.867605 157.216676 
L 243.701812 157.019373 
L 245.536018 161.818493 
L 247.370225 165.976523 
L 249.204431 167.328952 
L 251.038638 165.26992 
L 252.872844 157.293353 
L 254.707051 159.051075 
L 256.541257 164.381417 
L 258.375464 173.807693 
L 260.20967 169.376376 
L 262.043877 180.525016 
L 263.878083 174.052678 
L 265.71229 179.55552 
L 267.546496 178.900413 
L 269.380703 177.200748 
L 271.214909 187.30029 
L 273.049115 184.15702 
L 274.883322 193.347401 
L 276.717528 184.193679 
L 278.551735 184.809367 
L 280.385941 184.464323 
L 282.220148 191.312797 
L 284.054354 185.655291 
L 285.888561 189.434517 
L 287.722767 188.271684 
L 289.556974 187.588143 
L 291.39118 187.539243 
L 293.225387 185.044984 
L 295.059593 188.082593 
L 296.8938 184.134234 
L 298.728006 191.663027 
L 300.562213 192.694114 
L 302.396419 193.200377 
L 304.230625 186.784678 
L 306.064832 193.189936 
L 307.899038 185.757332 
L 309.733245 191.410234 
L 311.567451 184.878538 
L 313.401658 181.957906 
L 315.235864 176.830771 
L 317.070071 175.588398 
L 318.904277 176.151262 
L 320.738484 172.876822 
L 322.57269 169.035162 
L 324.406897 164.207722 
L 326.241103 167.961442 
L 328.07531 166.486323 
L 329.909516 164.071137 
L 331.743723 164.344489 
L 333.577929 162.882813 
L 335.412135 166.325522 
L 337.246342 166.243953 
L 339.080548 171.560778 
L 340.914755 178.720622 
L 342.748961 174.307543 
L 344.583168 176.562692 
L 346.417374 172.164509 
L 348.251581 170.623387 
L 351.919994 177.928867 
L 355.588407 180.5122 
L 357.422613 178.846941 
L 359.25682 180.730669 
L 361.091026 176.402045 
L 362.925233 187.869156 
L 364.759439 178.320862 
L 366.593646 183.993098 
L 368.427852 182.278822 
L 370.262058 189.91384 
L 372.096265 185.230358 
L 373.930471 184.344807 
L 375.764678 188.547587 
L 377.598884 188.827096 
L 379.433091 183.860303 
L 381.267297 185.44307 
L 383.101504 189.705179 
L 384.93571 188.987543 
L 384.93571 188.987543 
" clip-path="url(#p368fb95752)" style="fill: none; stroke: #ff7f0e; stroke-width: 1.5; stroke-linecap: square"/>
   </g>
   <g id="line2d_17">
    <path d="M 44.048438 181.608202 
L 401.168437 181.608202 
" clip-path="url(#p368fb95752)" style="fill: none; stroke-dasharray: 5.55,2.4; stroke-dashoffset: 0; stroke: #000000; stroke-opacity: 0.4; stroke-width: 1.5"/>
   </g>
   <g id="patch_3">
    <path d="M 44.048438 273.312 
L 44.048438 7.2 
" style="fill: none; stroke: #000000; stroke-width: 0.8; stroke-linejoin: miter; stroke-linecap: square"/>
   </g>
   <g id="patch_4">
    <path d="M 401.168437 273.312 
L 401.168437 7.2 
" style="fill: none; stroke: #000000; stroke-width: 0.8; stroke-linejoin: miter; stroke-linecap: square"/>
   </g>
   <g id="patch_5">
    <path d="M 44.048438 273.312 
L 401.168438 273.312 
" style="fill: none; stroke: #000000; stroke-width: 0.8; stroke-linejoin: miter; stroke-linecap: square"/>
   </g>
   <g id="patch_6">
    <path d="M 44.048438 7.2 
L 401.168438 7.2 
" style="fill: none; stroke: #000000; stroke-width: 0.8; stroke-linejoin: miter; stroke-linecap: square"/>
   </g>
   <g id="legend_1">
    <g id="patch_7">
     <path d="M 328.0075 44.55625 
L 394.168438 44.55625 
Q 396.168438 44.55625 396.168438 42.55625 
L 396.168438 14.2 
Q 396.168438 12.2 394.168438 12.2 
L 328.0075 12.2 
Q 326.0075 12.2 326.0075 14.2 
L 326.0075 42.55625 
Q 326.0075 44.55625 328.0075 44.55625 
z
" style="fill: #ffffff; opacity: 0.8; stroke: #cccccc; stroke-linejoin: miter"/>
    </g>
    <g id="line2d_18">
     <path d="M 330.0075 20.298437 
L 340.0075 20.298437 
L 350.0075 20.298437 
" style="fill: none; stroke: #ff7f0e; stroke-width: 1.5; stroke-linecap: square"/>
    </g>
    <g id="text_18">
     <!-- Mean -->
     <g transform="translate(358.0075 23.798437) scale(0.1 -0.1)">
      <defs>
       <path id="DejaVuSans-4d" d="M 628 4666 
L 1569 4666 
L 2759 1491 
L 3956 4666 
L 4897 4666 
L 4897 0 
L 4281 0 
L 4281 4097 
L 3078 897 
L 2444 897 
L 1241 4097 
L 1241 0 
L 628 0 
L 628 4666 
z
" transform="scale(0.015625)"/>
       <path id="DejaVuSans-61" d="M 2194 1759 
Q 1497 1759 1228 1600 
Q 959 1441 959 1056 
Q 959 750 1161 570 
Q 1363 391 1709 391 
Q 2188 391 2477 730 
Q 2766 1069 2766 1631 
L 2766 1759 
L 2194 1759 
z
M 3341 1997 
L 3341 0 
L 2766 0 
L 2766 531 
Q 2569 213 2275 61 
Q 1981 -91 1556 -91 
Q 1019 -91 701 211 
Q 384 513 384 1019 
Q 384 1609 779 1909 
Q 1175 2209 1959 2209 
L 2766 2209 
L 2766 2266 
Q 2766 2663 2505 2880 
Q 2244 3097 1772 3097 
Q 1472 3097 1187 3025 
Q 903 2953 641 2809 
L 641 3341 
Q 956 3463 1253 3523 
Q 1550 3584 1831 3584 
Q 2591 3584 2966 3190 
Q 3341 2797 3341 1997 
z
" transform="scale(0.015625)"/>
      </defs>
      <use xlink:href="#DejaVuSans-4d"/>
      <use xlink:href="#DejaVuSans-65" transform="translate(86.279297 0)"/>
      <use xlink:href="#DejaVuSans-61" transform="translate(147.802734 0)"/>
      <use xlink:href="#DejaVuSans-6e" transform="translate(209.082031 0)"/>
     </g>
    </g>
    <g id="patch_8">
     <path d="M 330.0075 38.476562 
L 350.0075 38.476562 
L 350.0075 31.476562 
L 330.0075 31.476562 
z
" style="fill: #ff7f0e; fill-opacity: 0.3; stroke: #ff7f0e; stroke-opacity: 0.3; stroke-linejoin: miter"/>
    </g>
    <g id="text_19">
     <!-- Std Err -->
     <g transform="translate(358.0075 38.476562) scale(0.1 -0.1)">
      <defs>
       <path id="DejaVuSans-53" d="M 3425 4513 
L 3425 3897 
Q 3066 4069 2747 4153 
Q 2428 4238 2131 4238 
Q 1616 4238 1336 4038 
Q 1056 3838 1056 3469 
Q 1056 3159 1242 3001 
Q 1428 2844 1947 2747 
L 2328 2669 
Q 3034 2534 3370 2195 
Q 3706 1856 3706 1288 
Q 3706 609 3251 259 
Q 2797 -91 1919 -91 
Q 1588 -91 1214 -16 
Q 841 59 441 206 
L 441 856 
Q 825 641 1194 531 
Q 1563 422 1919 422 
Q 2459 422 2753 634 
Q 3047 847 3047 1241 
Q 3047 1584 2836 1778 
Q 2625 1972 2144 2069 
L 1759 2144 
Q 1053 2284 737 2584 
Q 422 2884 422 3419 
Q 422 4038 858 4394 
Q 1294 4750 2059 4750 
Q 2388 4750 2728 4690 
Q 3069 4631 3425 4513 
z
" transform="scale(0.015625)"/>
       <path id="DejaVuSans-45" d="M 628 4666 
L 3578 4666 
L 3578 4134 
L 1259 4134 
L 1259 2753 
L 3481 2753 
L 3481 2222 
L 1259 2222 
L 1259 531 
L 3634 531 
L 3634 0 
L 628 0 
L 628 4666 
z
" transform="scale(0.015625)"/>
      </defs>
      <use xlink:href="#DejaVuSans-53"/>
      <use xlink:href="#DejaVuSans-74" transform="translate(63.476562 0)"/>
      <use xlink:href="#DejaVuSans-64" transform="translate(102.685547 0)"/>
      <use xlink:href="#DejaVuSans-20" transform="translate(166.162109 0)"/>
      <use xlink:href="#DejaVuSans-45" transform="translate(197.949219 0)"/>
      <use xlink:href="#DejaVuSans-72" transform="translate(261.132812 0)"/>
      <use xlink:href="#DejaVuSans-72" transform="translate(300.496094 0)"/>
     </g>
    </g>
   </g>
  </g>
 </g>
 <defs>
  <clipPath id="p368fb95752">
   <rect x="44.048438" y="7.2" width="357.12" height="266.112"/>
  </clipPath>
 </defs>
</svg>
