<?xml version="1.0" encoding="utf-8" standalone="no"?>
<!DOCTYPE svg PUBLIC "-//W3C//DTD SVG 1.1//EN"
  "http://www.w3.org/Graphics/SVG/1.1/DTD/svg11.dtd">
<svg xmlns:xlink="http://www.w3.org/1999/xlink" width="408.368437pt" height="311.146375pt" viewBox="0 0 408.368437 311.146375" xmlns="http://www.w3.org/2000/svg" version="1.1">
 <metadata>
  <rdf:RDF xmlns:dc="http://purl.org/dc/elements/1.1/" xmlns:cc="http://creativecommons.org/ns#" xmlns:rdf="http://www.w3.org/1999/02/22-rdf-syntax-ns#">
   <cc:Work>
    <dc:type rdf:resource="http://purl.org/dc/dcmitype/StillImage"/>
    <dc:date>2025-12-11T14:04:56.850268</dc:date>
    <dc:format>image/svg+xml</dc:format>
    <dc:creator>
     <cc:Agent>
      <dc:title>Matplotlib v3.10.5, https://matplotlib.org/</dc:title>
     </cc:Agent>
    </dc:creator>
   </cc:Work>
  </rdf:RDF>
 </metadata>
 <defs>
  <style type="text/css">*{stroke-linejoin: round; stroke-linecap: butt}</style>
 </defs>
 <g id="figure_1">
  <g id="patch_1">
   <path d="M 0 311.146375 
L 408.368437 311.146375 
L 408.368437 0 
L 0 0 
z
" style="fill: #ffffff"/>
  </g>
  <g id="axes_1">
   <g id="patch_2">
    <path d="M 44.048438 273.312 
L 401.168437 273.312 
L 401.168437 7.2 
L 44.048438 7.2 
z
" style="fill: #ffffff"/>
   </g>
   <g id="FillBetweenPolyCollection_1">
    <defs>
     <path id="m0df6210805" d="M 60.281165 -49.930375 
L 60.281165 -49.930375 
L 62.115371 -49.930375 
L 63.949578 -49.930375 
L 65.783784 -49.930375 
L 67.617991 -49.930375 
L 69.452197 -49.930375 
L 71.286404 -49.930375 
L 73.12061 -49.930375 
L 74.954817 -49.930375 
L 76.789023 -49.930375 
L 78.623229 -49.930375 
L 80.457436 -49.930375 
L 82.291642 -49.930375 
L 84.125849 -49.930375 
L 85.960055 -49.930375 
L 87.794262 -49.930375 
L 89.628468 -49.930375 
L 91.462675 -49.930375 
L 93.296881 -49.930375 
L 95.131088 -49.930375 
L 96.965294 -49.930375 
L 98.799501 -49.930375 
L 100.633707 -49.930375 
L 102.467914 -49.930375 
L 104.30212 -49.930375 
L 106.136327 -49.930375 
L 107.970533 -49.930375 
L 109.80474 -49.930375 
L 111.638946 -49.930375 
L 113.473152 -49.930375 
L 115.307359 -49.930375 
L 117.141565 -49.930375 
L 118.975772 -49.930375 
L 120.809978 -49.930375 
L 122.644185 -49.930375 
L 124.478391 -49.930375 
L 126.312598 -49.930375 
L 128.146804 -49.930375 
L 129.981011 -49.930375 
L 131.815217 -49.930375 
L 133.649424 -49.930375 
L 135.48363 -50.472753 
L 137.317837 -49.930375 
L 139.152043 -51.327775 
L 140.98625 -53.417716 
L 142.820456 -65.187847 
L 144.654662 -87.559557 
L 146.488869 -98.484746 
L 148.323075 -130.533234 
L 150.157282 -148.694141 
L 151.991488 -200.042765 
L 153.825695 -206.127083 
L 155.659901 -232.254393 
L 157.494108 -252.641193 
L 159.328314 -249.049421 
L 161.162521 -247.732708 
L 162.996727 -252.775684 
L 164.830934 -243.426631 
L 166.66514 -206.231168 
L 168.499347 -209.22272 
L 170.333553 -194.7394 
L 172.16776 -184.763627 
L 174.001966 -194.645313 
L 175.836172 -167.941191 
L 177.670379 -164.416114 
L 179.504585 -137.444939 
L 181.338792 -155.311176 
L 183.172998 -127.842713 
L 185.007205 -132.566649 
L 186.841411 -133.40404 
L 188.675618 -148.068128 
L 190.509824 -121.977508 
L 192.344031 -129.560886 
L 194.178237 -116.785848 
L 196.012444 -113.362995 
L 197.84665 -117.271113 
L 199.680857 -113.731328 
L 201.515063 -119.095637 
L 203.34927 -114.476544 
L 205.183476 -103.482811 
L 207.017682 -105.028943 
L 208.851889 -101.905471 
L 210.686095 -122.028687 
L 212.520302 -108.546236 
L 214.354508 -129.968577 
L 216.188715 -117.532816 
L 218.022921 -128.481012 
L 219.857128 -126.93101 
L 221.691334 -122.498429 
L 223.525541 -126.210276 
L 225.359747 -146.72232 
L 227.193954 -132.350014 
L 229.02816 -142.781168 
L 230.862367 -134.825448 
L 232.696573 -144.279971 
L 234.53078 -159.939772 
L 236.364986 -146.299402 
L 238.199193 -155.476447 
L 240.033399 -161.18165 
L 241.867605 -160.064064 
L 243.701812 -150.883284 
L 245.536018 -155.191 
L 247.370225 -159.505744 
L 249.204431 -151.276275 
L 251.038638 -152.954117 
L 252.872844 -158.716734 
L 254.707051 -152.175277 
L 256.541257 -152.748684 
L 258.375464 -152.134457 
L 260.20967 -162.399231 
L 262.043877 -149.258638 
L 263.878083 -139.252611 
L 265.71229 -141.558761 
L 267.546496 -137.723812 
L 269.380703 -153.013758 
L 271.214909 -147.916235 
L 273.049115 -143.564442 
L 274.883322 -139.788212 
L 276.717528 -131.010922 
L 278.551735 -134.758821 
L 280.385941 -139.91807 
L 282.220148 -146.330877 
L 284.054354 -128.826609 
L 285.888561 -130.196386 
L 287.722767 -136.523178 
L 289.556974 -136.604408 
L 291.39118 -131.953655 
L 293.225387 -131.492399 
L 295.059593 -131.137995 
L 296.8938 -120.375122 
L 298.728006 -127.756245 
L 300.562213 -126.754872 
L 302.396419 -132.584669 
L 304.230625 -136.978162 
L 306.064832 -140.942883 
L 307.899038 -133.841558 
L 309.733245 -135.068341 
L 311.567451 -142.147275 
L 313.401658 -146.420061 
L 315.235864 -139.501751 
L 317.070071 -133.992238 
L 318.904277 -147.158064 
L 320.738484 -139.789563 
L 322.57269 -149.700862 
L 324.406897 -150.719774 
L 326.241103 -147.570512 
L 328.07531 -153.712976 
L 329.909516 -143.254164 
L 331.743723 -150.019617 
L 333.577929 -153.086064 
L 335.412135 -146.36238 
L 337.246342 -138.16397 
L 339.080548 -143.316668 
L 340.914755 -146.538666 
L 342.748961 -147.104481 
L 344.583168 -145.29962 
L 346.417374 -136.920396 
L 348.251581 -138.345168 
L 350.085787 -134.573457 
L 351.919994 -140.30193 
L 353.7542 -128.675787 
L 355.588407 -153.241872 
L 357.422613 -144.243775 
L 359.25682 -140.569922 
L 361.091026 -136.536266 
L 362.925233 -141.179741 
L 364.759439 -141.912369 
L 366.593646 -141.931197 
L 368.427852 -148.063436 
L 370.262058 -150.913961 
L 372.096265 -147.03405 
L 373.930471 -133.766673 
L 375.764678 -144.282507 
L 377.598884 -145.473848 
L 379.433091 -149.022008 
L 381.267297 -148.012677 
L 383.101504 -141.966787 
L 384.93571 -140.292327 
L 384.93571 -146.500528 
L 384.93571 -146.500528 
L 383.101504 -154.106449 
L 381.267297 -156.711693 
L 379.433091 -157.568086 
L 377.598884 -157.484066 
L 375.764678 -159.112933 
L 373.930471 -150.818254 
L 372.096265 -160.015491 
L 370.262058 -162.793177 
L 368.427852 -156.402947 
L 366.593646 -149.211863 
L 364.759439 -159.697838 
L 362.925233 -145.947014 
L 361.091026 -146.425341 
L 359.25682 -145.788598 
L 357.422613 -153.624672 
L 355.588407 -158.923771 
L 353.7542 -140.032626 
L 351.919994 -148.230761 
L 350.085787 -149.474642 
L 348.251581 -155.326548 
L 346.417374 -155.947591 
L 344.583168 -158.029413 
L 342.748961 -164.873024 
L 340.914755 -158.729085 
L 339.080548 -155.491545 
L 337.246342 -144.67771 
L 335.412135 -165.535307 
L 333.577929 -167.301872 
L 331.743723 -163.49367 
L 329.909516 -158.695855 
L 328.07531 -162.102525 
L 326.241103 -163.284342 
L 324.406897 -160.492446 
L 322.57269 -155.349797 
L 320.738484 -154.140757 
L 318.904277 -156.859078 
L 317.070071 -140.922431 
L 315.235864 -148.263371 
L 313.401658 -158.723625 
L 311.567451 -159.373949 
L 309.733245 -152.241772 
L 307.899038 -159.831528 
L 306.064832 -161.812443 
L 304.230625 -145.088813 
L 302.396419 -151.877364 
L 300.562213 -150.816168 
L 298.728006 -146.328446 
L 296.8938 -137.33755 
L 295.059593 -137.241207 
L 293.225387 -136.255908 
L 291.39118 -143.52328 
L 289.556974 -145.450107 
L 287.722767 -147.455342 
L 285.888561 -150.811241 
L 284.054354 -146.743728 
L 282.220148 -153.162118 
L 280.385941 -147.818986 
L 278.551735 -156.411826 
L 276.717528 -148.383853 
L 274.883322 -161.905288 
L 273.049115 -153.050302 
L 271.214909 -159.097683 
L 269.380703 -163.322961 
L 267.546496 -158.921353 
L 265.71229 -151.91937 
L 263.878083 -158.246026 
L 262.043877 -163.387619 
L 260.20967 -171.55777 
L 258.375464 -161.727815 
L 256.541257 -164.933575 
L 254.707051 -166.704304 
L 252.872844 -164.138965 
L 251.038638 -174.325822 
L 249.204431 -169.3632 
L 247.370225 -169.152484 
L 245.536018 -178.437498 
L 243.701812 -169.471218 
L 241.867605 -183.61093 
L 240.033399 -177.234222 
L 238.199193 -170.345529 
L 236.364986 -162.68036 
L 234.53078 -171.492756 
L 232.696573 -157.440055 
L 230.862367 -143.796678 
L 229.02816 -159.463023 
L 227.193954 -150.772101 
L 225.359747 -154.188484 
L 223.525541 -141.566192 
L 221.691334 -130.668503 
L 219.857128 -136.661066 
L 218.022921 -152.823362 
L 216.188715 -133.034312 
L 214.354508 -143.309442 
L 212.520302 -122.409657 
L 210.686095 -143.322237 
L 208.851889 -111.625217 
L 207.017682 -118.015011 
L 205.183476 -118.431911 
L 203.34927 -129.193139 
L 201.515063 -127.068339 
L 199.680857 -131.954593 
L 197.84665 -132.516338 
L 196.012444 -127.869516 
L 194.178237 -131.138588 
L 192.344031 -137.307468 
L 190.509824 -137.757528 
L 188.675618 -158.892296 
L 186.841411 -154.286985 
L 185.007205 -140.547923 
L 183.172998 -145.2401 
L 181.338792 -166.133947 
L 179.504585 -166.674247 
L 177.670379 -199.036828 
L 175.836172 -176.843914 
L 174.001966 -218.255899 
L 172.16776 -205.847422 
L 170.333553 -223.103752 
L 168.499347 -255.220085 
L 166.66514 -238.68825 
L 164.830934 -257.391552 
L 162.996727 -291.850375 
L 161.162521 -261.653587 
L 159.328314 -271.221367 
L 157.494108 -285.094622 
L 155.659901 -258.484735 
L 153.825695 -241.166174 
L 151.991488 -228.019664 
L 150.157282 -168.799912 
L 148.323075 -151.578561 
L 146.488869 -117.550231 
L 144.654662 -100.130336 
L 142.820456 -72.726282 
L 140.98625 -59.191574 
L 139.152043 -54.931396 
L 137.317837 -51.592685 
L 135.48363 -53.358481 
L 133.649424 -49.930375 
L 131.815217 -49.930375 
L 129.981011 -49.930375 
L 128.146804 -49.930375 
L 126.312598 -49.930375 
L 124.478391 -49.930375 
L 122.644185 -49.930375 
L 120.809978 -49.930375 
L 118.975772 -49.930375 
L 117.141565 -49.930375 
L 115.307359 -49.930375 
L 113.473152 -49.930375 
L 111.638946 -49.930375 
L 109.80474 -49.930375 
L 107.970533 -49.930375 
L 106.136327 -49.930375 
L 104.30212 -49.930375 
L 102.467914 -49.930375 
L 100.633707 -49.930375 
L 98.799501 -49.930375 
L 96.965294 -49.930375 
L 95.131088 -49.930375 
L 93.296881 -49.930375 
L 91.462675 -49.930375 
L 89.628468 -49.930375 
L 87.794262 -49.930375 
L 85.960055 -49.930375 
L 84.125849 -49.930375 
L 82.291642 -49.930375 
L 80.457436 -49.930375 
L 78.623229 -49.930375 
L 76.789023 -49.930375 
L 74.954817 -49.930375 
L 73.12061 -49.930375 
L 71.286404 -49.930375 
L 69.452197 -49.930375 
L 67.617991 -49.930375 
L 65.783784 -49.930375 
L 63.949578 -49.930375 
L 62.115371 -49.930375 
L 60.281165 -49.930375 
z
" style="stroke: #ff7f0e; stroke-opacity: 0.3"/>
    </defs>
    <g clip-path="url(#pcf05208f12)">
     <use xlink:href="#m0df6210805" x="0" y="311.146375" style="fill: #ff7f0e; fill-opacity: 0.3; stroke: #ff7f0e; stroke-opacity: 0.3"/>
    </g>
   </g>
   <g id="matplotlib.axis_1">
    <g id="xtick_1">
     <g id="line2d_1">
      <defs>
       <path id="mb6051a098a" d="M 0 0 
L 0 3.5 
" style="stroke: #000000; stroke-width: 0.8"/>
      </defs>
      <g>
       <use xlink:href="#mb6051a098a" x="59.364062" y="273.312" style="stroke: #000000; stroke-width: 0.8"/>
      </g>
     </g>
     <g id="text_1">
      <!-- 0.0 -->
      <g transform="translate(51.412499 287.910437) scale(0.1 -0.1)">
       <defs>
        <path id="DejaVuSans-30" d="M 2034 4250 
Q 1547 4250 1301 3770 
Q 1056 3291 1056 2328 
Q 1056 1369 1301 889 
Q 1547 409 2034 409 
Q 2525 409 2770 889 
Q 3016 1369 3016 2328 
Q 3016 3291 2770 3770 
Q 2525 4250 2034 4250 
z
M 2034 4750 
Q 2819 4750 3233 4129 
Q 3647 3509 3647 2328 
Q 3647 1150 3233 529 
Q 2819 -91 2034 -91 
Q 1250 -91 836 529 
Q 422 1150 422 2328 
Q 422 3509 836 4129 
Q 1250 4750 2034 4750 
z
" transform="scale(0.015625)"/>
        <path id="DejaVuSans-2e" d="M 684 794 
L 1344 794 
L 1344 0 
L 684 0 
L 684 794 
z
" transform="scale(0.015625)"/>
       </defs>
       <use xlink:href="#DejaVuSans-30"/>
       <use xlink:href="#DejaVuSans-2e" transform="translate(63.623047 0)"/>
       <use xlink:href="#DejaVuSans-30" transform="translate(95.410156 0)"/>
      </g>
     </g>
    </g>
    <g id="xtick_2">
     <g id="line2d_2">
      <g>
       <use xlink:href="#mb6051a098a" x="105.219223" y="273.312" style="stroke: #000000; stroke-width: 0.8"/>
      </g>
     </g>
     <g id="text_2">
      <!-- 0.5 -->
      <g transform="translate(97.267661 287.910437) scale(0.1 -0.1)">
       <defs>
        <path id="DejaVuSans-35" d="M 691 4666 
L 3169 4666 
L 3169 4134 
L 1269 4134 
L 1269 2991 
Q 1406 3038 1543 3061 
Q 1681 3084 1819 3084 
Q 2600 3084 3056 2656 
Q 3513 2228 3513 1497 
Q 3513 744 3044 326 
Q 2575 -91 1722 -91 
Q 1428 -91 1123 -41 
Q 819 9 494 109 
L 494 744 
Q 775 591 1075 516 
Q 1375 441 1709 441 
Q 2250 441 2565 725 
Q 2881 1009 2881 1497 
Q 2881 1984 2565 2268 
Q 2250 2553 1709 2553 
Q 1456 2553 1204 2497 
Q 953 2441 691 2322 
L 691 4666 
z
" transform="scale(0.015625)"/>
       </defs>
       <use xlink:href="#DejaVuSans-30"/>
       <use xlink:href="#DejaVuSans-2e" transform="translate(63.623047 0)"/>
       <use xlink:href="#DejaVuSans-35" transform="translate(95.410156 0)"/>
      </g>
     </g>
    </g>
    <g id="xtick_3">
     <g id="line2d_3">
      <g>
       <use xlink:href="#mb6051a098a" x="151.074385" y="273.312" style="stroke: #000000; stroke-width: 0.8"/>
      </g>
     </g>
     <g id="text_3">
      <!-- 1.0 -->
      <g transform="translate(143.122823 287.910437) scale(0.1 -0.1)">
       <defs>
        <path id="DejaVuSans-31" d="M 794 531 
L 1825 531 
L 1825 4091 
L 703 3866 
L 703 4441 
L 1819 4666 
L 2450 4666 
L 2450 531 
L 3481 531 
L 3481 0 
L 794 0 
L 794 531 
z
" transform="scale(0.015625)"/>
       </defs>
       <use xlink:href="#DejaVuSans-31"/>
       <use xlink:href="#DejaVuSans-2e" transform="translate(63.623047 0)"/>
       <use xlink:href="#DejaVuSans-30" transform="translate(95.410156 0)"/>
      </g>
     </g>
    </g>
    <g id="xtick_4">
     <g id="line2d_4">
      <g>
       <use xlink:href="#mb6051a098a" x="196.929547" y="273.312" style="stroke: #000000; stroke-width: 0.8"/>
      </g>
     </g>
     <g id="text_4">
      <!-- 1.5 -->
      <g transform="translate(188.977984 287.910437) scale(0.1 -0.1)">
       <use xlink:href="#DejaVuSans-31"/>
       <use xlink:href="#DejaVuSans-2e" transform="translate(63.623047 0)"/>
       <use xlink:href="#DejaVuSans-35" transform="translate(95.410156 0)"/>
      </g>
     </g>
    </g>
    <g id="xtick_5">
     <g id="line2d_5">
      <g>
       <use xlink:href="#mb6051a098a" x="242.784709" y="273.312" style="stroke: #000000; stroke-width: 0.8"/>
      </g>
     </g>
     <g id="text_5">
      <!-- 2.0 -->
      <g transform="translate(234.833146 287.910437) scale(0.1 -0.1)">
       <defs>
        <path id="DejaVuSans-32" d="M 1228 531 
L 3431 531 
L 3431 0 
L 469 0 
L 469 531 
Q 828 903 1448 1529 
Q 2069 2156 2228 2338 
Q 2531 2678 2651 2914 
Q 2772 3150 2772 3378 
Q 2772 3750 2511 3984 
Q 2250 4219 1831 4219 
Q 1534 4219 1204 4116 
Q 875 4013 500 3803 
L 500 4441 
Q 881 4594 1212 4672 
Q 1544 4750 1819 4750 
Q 2544 4750 2975 4387 
Q 3406 4025 3406 3419 
Q 3406 3131 3298 2873 
Q 3191 2616 2906 2266 
Q 2828 2175 2409 1742 
Q 1991 1309 1228 531 
z
" transform="scale(0.015625)"/>
       </defs>
       <use xlink:href="#DejaVuSans-32"/>
       <use xlink:href="#DejaVuSans-2e" transform="translate(63.623047 0)"/>
       <use xlink:href="#DejaVuSans-30" transform="translate(95.410156 0)"/>
      </g>
     </g>
    </g>
    <g id="xtick_6">
     <g id="line2d_6">
      <g>
       <use xlink:href="#mb6051a098a" x="288.63987" y="273.312" style="stroke: #000000; stroke-width: 0.8"/>
      </g>
     </g>
     <g id="text_6">
      <!-- 2.5 -->
      <g transform="translate(280.688308 287.910437) scale(0.1 -0.1)">
       <use xlink:href="#DejaVuSans-32"/>
       <use xlink:href="#DejaVuSans-2e" transform="translate(63.623047 0)"/>
       <use xlink:href="#DejaVuSans-35" transform="translate(95.410156 0)"/>
      </g>
     </g>
    </g>
    <g id="xtick_7">
     <g id="line2d_7">
      <g>
       <use xlink:href="#mb6051a098a" x="334.495032" y="273.312" style="stroke: #000000; stroke-width: 0.8"/>
      </g>
     </g>
     <g id="text_7">
      <!-- 3.0 -->
      <g transform="translate(326.54347 287.910437) scale(0.1 -0.1)">
       <defs>
        <path id="DejaVuSans-33" d="M 2597 2516 
Q 3050 2419 3304 2112 
Q 3559 1806 3559 1356 
Q 3559 666 3084 287 
Q 2609 -91 1734 -91 
Q 1441 -91 1130 -33 
Q 819 25 488 141 
L 488 750 
Q 750 597 1062 519 
Q 1375 441 1716 441 
Q 2309 441 2620 675 
Q 2931 909 2931 1356 
Q 2931 1769 2642 2001 
Q 2353 2234 1838 2234 
L 1294 2234 
L 1294 2753 
L 1863 2753 
Q 2328 2753 2575 2939 
Q 2822 3125 2822 3475 
Q 2822 3834 2567 4026 
Q 2313 4219 1838 4219 
Q 1578 4219 1281 4162 
Q 984 4106 628 3988 
L 628 4550 
Q 988 4650 1302 4700 
Q 1616 4750 1894 4750 
Q 2613 4750 3031 4423 
Q 3450 4097 3450 3541 
Q 3450 3153 3228 2886 
Q 3006 2619 2597 2516 
z
" transform="scale(0.015625)"/>
       </defs>
       <use xlink:href="#DejaVuSans-33"/>
       <use xlink:href="#DejaVuSans-2e" transform="translate(63.623047 0)"/>
       <use xlink:href="#DejaVuSans-30" transform="translate(95.410156 0)"/>
      </g>
     </g>
    </g>
    <g id="xtick_8">
     <g id="line2d_8">
      <g>
       <use xlink:href="#mb6051a098a" x="380.350194" y="273.312" style="stroke: #000000; stroke-width: 0.8"/>
      </g>
     </g>
     <g id="text_8">
      <!-- 3.5 -->
      <g transform="translate(372.398632 287.910437) scale(0.1 -0.1)">
       <use xlink:href="#DejaVuSans-33"/>
       <use xlink:href="#DejaVuSans-2e" transform="translate(63.623047 0)"/>
       <use xlink:href="#DejaVuSans-35" transform="translate(95.410156 0)"/>
      </g>
     </g>
    </g>
    <g id="text_9">
     <!-- r_xy (reduced units) -->
     <g transform="translate(172.400625 301.588562) scale(0.1 -0.1)">
      <defs>
       <path id="DejaVuSans-72" d="M 2631 2963 
Q 2534 3019 2420 3045 
Q 2306 3072 2169 3072 
Q 1681 3072 1420 2755 
Q 1159 2438 1159 1844 
L 1159 0 
L 581 0 
L 581 3500 
L 1159 3500 
L 1159 2956 
Q 1341 3275 1631 3429 
Q 1922 3584 2338 3584 
Q 2397 3584 2469 3576 
Q 2541 3569 2628 3553 
L 2631 2963 
z
" transform="scale(0.015625)"/>
       <path id="DejaVuSans-5f" d="M 3263 -1063 
L 3263 -1509 
L -63 -1509 
L -63 -1063 
L 3263 -1063 
z
" transform="scale(0.015625)"/>
       <path id="DejaVuSans-78" d="M 3513 3500 
L 2247 1797 
L 3578 0 
L 2900 0 
L 1881 1375 
L 863 0 
L 184 0 
L 1544 1831 
L 300 3500 
L 978 3500 
L 1906 2253 
L 2834 3500 
L 3513 3500 
z
" transform="scale(0.015625)"/>
       <path id="DejaVuSans-79" d="M 2059 -325 
Q 1816 -950 1584 -1140 
Q 1353 -1331 966 -1331 
L 506 -1331 
L 506 -850 
L 844 -850 
Q 1081 -850 1212 -737 
Q 1344 -625 1503 -206 
L 1606 56 
L 191 3500 
L 800 3500 
L 1894 763 
L 2988 3500 
L 3597 3500 
L 2059 -325 
z
" transform="scale(0.015625)"/>
       <path id="DejaVuSans-20" transform="scale(0.015625)"/>
       <path id="DejaVuSans-28" d="M 1984 4856 
Q 1566 4138 1362 3434 
Q 1159 2731 1159 2009 
Q 1159 1288 1364 580 
Q 1569 -128 1984 -844 
L 1484 -844 
Q 1016 -109 783 600 
Q 550 1309 550 2009 
Q 550 2706 781 3412 
Q 1013 4119 1484 4856 
L 1984 4856 
z
" transform="scale(0.015625)"/>
       <path id="DejaVuSans-65" d="M 3597 1894 
L 3597 1613 
L 953 1613 
Q 991 1019 1311 708 
Q 1631 397 2203 397 
Q 2534 397 2845 478 
Q 3156 559 3463 722 
L 3463 178 
Q 3153 47 2828 -22 
Q 2503 -91 2169 -91 
Q 1331 -91 842 396 
Q 353 884 353 1716 
Q 353 2575 817 3079 
Q 1281 3584 2069 3584 
Q 2775 3584 3186 3129 
Q 3597 2675 3597 1894 
z
M 3022 2063 
Q 3016 2534 2758 2815 
Q 2500 3097 2075 3097 
Q 1594 3097 1305 2825 
Q 1016 2553 972 2059 
L 3022 2063 
z
" transform="scale(0.015625)"/>
       <path id="DejaVuSans-64" d="M 2906 2969 
L 2906 4863 
L 3481 4863 
L 3481 0 
L 2906 0 
L 2906 525 
Q 2725 213 2448 61 
Q 2172 -91 1784 -91 
Q 1150 -91 751 415 
Q 353 922 353 1747 
Q 353 2572 751 3078 
Q 1150 3584 1784 3584 
Q 2172 3584 2448 3432 
Q 2725 3281 2906 2969 
z
M 947 1747 
Q 947 1113 1208 752 
Q 1469 391 1925 391 
Q 2381 391 2643 752 
Q 2906 1113 2906 1747 
Q 2906 2381 2643 2742 
Q 2381 3103 1925 3103 
Q 1469 3103 1208 2742 
Q 947 2381 947 1747 
z
" transform="scale(0.015625)"/>
       <path id="DejaVuSans-75" d="M 544 1381 
L 544 3500 
L 1119 3500 
L 1119 1403 
Q 1119 906 1312 657 
Q 1506 409 1894 409 
Q 2359 409 2629 706 
Q 2900 1003 2900 1516 
L 2900 3500 
L 3475 3500 
L 3475 0 
L 2900 0 
L 2900 538 
Q 2691 219 2414 64 
Q 2138 -91 1772 -91 
Q 1169 -91 856 284 
Q 544 659 544 1381 
z
M 1991 3584 
L 1991 3584 
z
" transform="scale(0.015625)"/>
       <path id="DejaVuSans-63" d="M 3122 3366 
L 3122 2828 
Q 2878 2963 2633 3030 
Q 2388 3097 2138 3097 
Q 1578 3097 1268 2742 
Q 959 2388 959 1747 
Q 959 1106 1268 751 
Q 1578 397 2138 397 
Q 2388 397 2633 464 
Q 2878 531 3122 666 
L 3122 134 
Q 2881 22 2623 -34 
Q 2366 -91 2075 -91 
Q 1284 -91 818 406 
Q 353 903 353 1747 
Q 353 2603 823 3093 
Q 1294 3584 2113 3584 
Q 2378 3584 2631 3529 
Q 2884 3475 3122 3366 
z
" transform="scale(0.015625)"/>
       <path id="DejaVuSans-6e" d="M 3513 2113 
L 3513 0 
L 2938 0 
L 2938 2094 
Q 2938 2591 2744 2837 
Q 2550 3084 2163 3084 
Q 1697 3084 1428 2787 
Q 1159 2491 1159 1978 
L 1159 0 
L 581 0 
L 581 3500 
L 1159 3500 
L 1159 2956 
Q 1366 3272 1645 3428 
Q 1925 3584 2291 3584 
Q 2894 3584 3203 3211 
Q 3513 2838 3513 2113 
z
" transform="scale(0.015625)"/>
       <path id="DejaVuSans-69" d="M 603 3500 
L 1178 3500 
L 1178 0 
L 603 0 
L 603 3500 
z
M 603 4863 
L 1178 4863 
L 1178 4134 
L 603 4134 
L 603 4863 
z
" transform="scale(0.015625)"/>
       <path id="DejaVuSans-74" d="M 1172 4494 
L 1172 3500 
L 2356 3500 
L 2356 3053 
L 1172 3053 
L 1172 1153 
Q 1172 725 1289 603 
Q 1406 481 1766 481 
L 2356 481 
L 2356 0 
L 1766 0 
Q 1100 0 847 248 
Q 594 497 594 1153 
L 594 3053 
L 172 3053 
L 172 3500 
L 594 3500 
L 594 4494 
L 1172 4494 
z
" transform="scale(0.015625)"/>
       <path id="DejaVuSans-73" d="M 2834 3397 
L 2834 2853 
Q 2591 2978 2328 3040 
Q 2066 3103 1784 3103 
Q 1356 3103 1142 2972 
Q 928 2841 928 2578 
Q 928 2378 1081 2264 
Q 1234 2150 1697 2047 
L 1894 2003 
Q 2506 1872 2764 1633 
Q 3022 1394 3022 966 
Q 3022 478 2636 193 
Q 2250 -91 1575 -91 
Q 1294 -91 989 -36 
Q 684 19 347 128 
L 347 722 
Q 666 556 975 473 
Q 1284 391 1588 391 
Q 1994 391 2212 530 
Q 2431 669 2431 922 
Q 2431 1156 2273 1281 
Q 2116 1406 1581 1522 
L 1381 1569 
Q 847 1681 609 1914 
Q 372 2147 372 2553 
Q 372 3047 722 3315 
Q 1072 3584 1716 3584 
Q 2034 3584 2315 3537 
Q 2597 3491 2834 3397 
z
" transform="scale(0.015625)"/>
       <path id="DejaVuSans-29" d="M 513 4856 
L 1013 4856 
Q 1481 4119 1714 3412 
Q 1947 2706 1947 2009 
Q 1947 1309 1714 600 
Q 1481 -109 1013 -844 
L 513 -844 
Q 928 -128 1133 580 
Q 1338 1288 1338 2009 
Q 1338 2731 1133 3434 
Q 928 4138 513 4856 
z
" transform="scale(0.015625)"/>
      </defs>
      <use xlink:href="#DejaVuSans-72"/>
      <use xlink:href="#DejaVuSans-5f" transform="translate(41.113281 0)"/>
      <use xlink:href="#DejaVuSans-78" transform="translate(91.113281 0)"/>
      <use xlink:href="#DejaVuSans-79" transform="translate(150.292969 0)"/>
      <use xlink:href="#DejaVuSans-20" transform="translate(209.472656 0)"/>
      <use xlink:href="#DejaVuSans-28" transform="translate(241.259766 0)"/>
      <use xlink:href="#DejaVuSans-72" transform="translate(280.273438 0)"/>
      <use xlink:href="#DejaVuSans-65" transform="translate(319.136719 0)"/>
      <use xlink:href="#DejaVuSans-64" transform="translate(380.660156 0)"/>
      <use xlink:href="#DejaVuSans-75" transform="translate(444.136719 0)"/>
      <use xlink:href="#DejaVuSans-63" transform="translate(507.515625 0)"/>
      <use xlink:href="#DejaVuSans-65" transform="translate(562.496094 0)"/>
      <use xlink:href="#DejaVuSans-64" transform="translate(624.019531 0)"/>
      <use xlink:href="#DejaVuSans-20" transform="translate(687.496094 0)"/>
      <use xlink:href="#DejaVuSans-75" transform="translate(719.283203 0)"/>
      <use xlink:href="#DejaVuSans-6e" transform="translate(782.662109 0)"/>
      <use xlink:href="#DejaVuSans-69" transform="translate(846.041016 0)"/>
      <use xlink:href="#DejaVuSans-74" transform="translate(873.824219 0)"/>
      <use xlink:href="#DejaVuSans-73" transform="translate(913.033203 0)"/>
      <use xlink:href="#DejaVuSans-29" transform="translate(965.132812 0)"/>
     </g>
    </g>
   </g>
   <g id="matplotlib.axis_2">
    <g id="ytick_1">
     <g id="line2d_9">
      <defs>
       <path id="m2a42f60d03" d="M 0 0 
L -3.5 0 
" style="stroke: #000000; stroke-width: 0.8"/>
      </defs>
      <g>
       <use xlink:href="#m2a42f60d03" x="44.048438" y="261.216" style="stroke: #000000; stroke-width: 0.8"/>
      </g>
     </g>
     <g id="text_10">
      <!-- 0.0 -->
      <g transform="translate(21.145313 265.015219) scale(0.1 -0.1)">
       <use xlink:href="#DejaVuSans-30"/>
       <use xlink:href="#DejaVuSans-2e" transform="translate(63.623047 0)"/>
       <use xlink:href="#DejaVuSans-30" transform="translate(95.410156 0)"/>
      </g>
     </g>
    </g>
    <g id="ytick_2">
     <g id="line2d_10">
      <g>
       <use xlink:href="#m2a42f60d03" x="44.048438" y="213.581718" style="stroke: #000000; stroke-width: 0.8"/>
      </g>
     </g>
     <g id="text_11">
      <!-- 0.5 -->
      <g transform="translate(21.145313 217.380937) scale(0.1 -0.1)">
       <use xlink:href="#DejaVuSans-30"/>
       <use xlink:href="#DejaVuSans-2e" transform="translate(63.623047 0)"/>
       <use xlink:href="#DejaVuSans-35" transform="translate(95.410156 0)"/>
      </g>
     </g>
    </g>
    <g id="ytick_3">
     <g id="line2d_11">
      <g>
       <use xlink:href="#m2a42f60d03" x="44.048438" y="165.947437" style="stroke: #000000; stroke-width: 0.8"/>
      </g>
     </g>
     <g id="text_12">
      <!-- 1.0 -->
      <g transform="translate(21.145313 169.746655) scale(0.1 -0.1)">
       <use xlink:href="#DejaVuSans-31"/>
       <use xlink:href="#DejaVuSans-2e" transform="translate(63.623047 0)"/>
       <use xlink:href="#DejaVuSans-30" transform="translate(95.410156 0)"/>
      </g>
     </g>
    </g>
    <g id="ytick_4">
     <g id="line2d_12">
      <g>
       <use xlink:href="#m2a42f60d03" x="44.048438" y="118.313155" style="stroke: #000000; stroke-width: 0.8"/>
      </g>
     </g>
     <g id="text_13">
      <!-- 1.5 -->
      <g transform="translate(21.145313 122.112374) scale(0.1 -0.1)">
       <use xlink:href="#DejaVuSans-31"/>
       <use xlink:href="#DejaVuSans-2e" transform="translate(63.623047 0)"/>
       <use xlink:href="#DejaVuSans-35" transform="translate(95.410156 0)"/>
      </g>
     </g>
    </g>
    <g id="ytick_5">
     <g id="line2d_13">
      <g>
       <use xlink:href="#m2a42f60d03" x="44.048438" y="70.678873" style="stroke: #000000; stroke-width: 0.8"/>
      </g>
     </g>
     <g id="text_14">
      <!-- 2.0 -->
      <g transform="translate(21.145313 74.478092) scale(0.1 -0.1)">
       <use xlink:href="#DejaVuSans-32"/>
       <use xlink:href="#DejaVuSans-2e" transform="translate(63.623047 0)"/>
       <use xlink:href="#DejaVuSans-30" transform="translate(95.410156 0)"/>
      </g>
     </g>
    </g>
    <g id="ytick_6">
     <g id="line2d_14">
      <g>
       <use xlink:href="#m2a42f60d03" x="44.048438" y="23.044591" style="stroke: #000000; stroke-width: 0.8"/>
      </g>
     </g>
     <g id="text_15">
      <!-- 2.5 -->
      <g transform="translate(21.145313 26.84381) scale(0.1 -0.1)">
       <use xlink:href="#DejaVuSans-32"/>
       <use xlink:href="#DejaVuSans-2e" transform="translate(63.623047 0)"/>
       <use xlink:href="#DejaVuSans-35" transform="translate(95.410156 0)"/>
      </g>
     </g>
    </g>
    <g id="text_16">
     <!-- g_xy(r) -->
     <g transform="translate(14.7875 157.806) rotate(-90) scale(0.1 -0.1)">
      <defs>
       <path id="DejaVuSans-67" d="M 2906 1791 
Q 2906 2416 2648 2759 
Q 2391 3103 1925 3103 
Q 1463 3103 1205 2759 
Q 947 2416 947 1791 
Q 947 1169 1205 825 
Q 1463 481 1925 481 
Q 2391 481 2648 825 
Q 2906 1169 2906 1791 
z
M 3481 434 
Q 3481 -459 3084 -895 
Q 2688 -1331 1869 -1331 
Q 1566 -1331 1297 -1286 
Q 1028 -1241 775 -1147 
L 775 -588 
Q 1028 -725 1275 -790 
Q 1522 -856 1778 -856 
Q 2344 -856 2625 -561 
Q 2906 -266 2906 331 
L 2906 616 
Q 2728 306 2450 153 
Q 2172 0 1784 0 
Q 1141 0 747 490 
Q 353 981 353 1791 
Q 353 2603 747 3093 
Q 1141 3584 1784 3584 
Q 2172 3584 2450 3431 
Q 2728 3278 2906 2969 
L 2906 3500 
L 3481 3500 
L 3481 434 
z
" transform="scale(0.015625)"/>
      </defs>
      <use xlink:href="#DejaVuSans-67"/>
      <use xlink:href="#DejaVuSans-5f" transform="translate(63.476562 0)"/>
      <use xlink:href="#DejaVuSans-78" transform="translate(113.476562 0)"/>
      <use xlink:href="#DejaVuSans-79" transform="translate(172.65625 0)"/>
      <use xlink:href="#DejaVuSans-28" transform="translate(231.835938 0)"/>
      <use xlink:href="#DejaVuSans-72" transform="translate(270.849609 0)"/>
      <use xlink:href="#DejaVuSans-29" transform="translate(311.962891 0)"/>
     </g>
    </g>
   </g>
   <g id="line2d_15">
    <path d="M 60.281165 261.216 
L 133.649424 261.216 
L 135.48363 259.230758 
L 137.317837 260.384845 
L 139.152043 258.01679 
L 140.98625 254.84173 
L 142.820456 242.18931 
L 144.654662 217.301429 
L 146.488869 203.128887 
L 148.323075 170.090477 
L 150.157282 152.399349 
L 151.991488 97.11516 
L 153.825695 87.499747 
L 155.659901 65.776811 
L 157.494108 42.278467 
L 159.328314 51.010981 
L 161.162521 56.453228 
L 162.996727 38.833346 
L 164.830934 60.737284 
L 166.66514 88.686666 
L 168.499347 78.924972 
L 170.333553 102.224799 
L 172.16776 115.840851 
L 174.001966 104.695769 
L 175.836172 138.753822 
L 177.670379 129.419904 
L 179.504585 159.086782 
L 181.338792 150.423813 
L 183.172998 174.604969 
L 185.007205 174.589089 
L 186.841411 167.300863 
L 188.675618 157.666163 
L 190.509824 181.278857 
L 192.344031 177.712198 
L 194.178237 187.184157 
L 196.012444 190.53012 
L 197.84665 186.25265 
L 199.680857 188.303415 
L 201.515063 188.064387 
L 203.34927 189.311533 
L 205.183476 200.189014 
L 207.017682 199.624398 
L 208.851889 204.381031 
L 210.686095 178.470913 
L 212.520302 195.668429 
L 214.354508 174.507365 
L 216.188715 185.862811 
L 218.022921 170.494188 
L 219.857128 179.350337 
L 221.691334 184.562909 
L 223.525541 177.258141 
L 225.359747 160.690973 
L 227.193954 169.585318 
L 229.02816 160.024279 
L 230.862367 171.835312 
L 232.696573 160.286362 
L 234.53078 145.430111 
L 236.364986 156.656494 
L 238.199193 148.235387 
L 240.033399 141.938439 
L 241.867605 139.308878 
L 243.701812 150.969124 
L 245.536018 144.332126 
L 247.370225 146.817261 
L 249.204431 150.826637 
L 251.038638 147.506406 
L 252.872844 149.718526 
L 254.707051 151.706584 
L 256.541257 152.305245 
L 258.375464 154.215239 
L 260.20967 144.167875 
L 262.043877 154.823247 
L 263.878083 162.397056 
L 265.71229 164.40731 
L 267.546496 162.823793 
L 269.380703 152.978016 
L 271.214909 157.639416 
L 273.049115 162.839003 
L 274.883322 160.299625 
L 276.717528 171.448987 
L 278.551735 165.561051 
L 280.385941 167.277847 
L 282.220148 161.399878 
L 284.054354 173.361207 
L 285.888561 170.642561 
L 287.722767 169.157115 
L 289.556974 170.119118 
L 291.39118 173.407908 
L 293.225387 177.272221 
L 295.059593 176.956774 
L 296.8938 182.290039 
L 298.728006 174.104029 
L 300.562213 172.360855 
L 302.396419 168.915358 
L 304.230625 170.112887 
L 306.064832 159.768712 
L 307.899038 164.309832 
L 309.733245 167.491319 
L 311.567451 160.385763 
L 313.401658 158.574532 
L 315.235864 167.263814 
L 317.070071 173.68904 
L 318.904277 159.137804 
L 320.738484 164.181215 
L 322.57269 158.621045 
L 324.406897 155.540265 
L 326.241103 155.718948 
L 328.07531 153.238625 
L 329.909516 160.171365 
L 331.743723 154.389732 
L 333.577929 150.952407 
L 335.412135 155.197531 
L 337.246342 169.725535 
L 339.080548 161.742269 
L 342.748961 155.157623 
L 344.583168 159.481859 
L 346.417374 164.712382 
L 348.251581 164.310517 
L 350.085787 169.122326 
L 351.919994 166.88003 
L 353.7542 176.792168 
L 355.588407 155.063553 
L 357.422613 162.212151 
L 359.25682 167.967115 
L 361.091026 169.665571 
L 362.925233 167.582997 
L 364.759439 160.341271 
L 366.593646 165.574845 
L 368.427852 158.913184 
L 370.262058 154.292806 
L 372.096265 157.621604 
L 373.930471 168.853912 
L 375.764678 159.448655 
L 377.598884 159.667418 
L 379.433091 157.851328 
L 381.267297 158.78419 
L 383.101504 163.109757 
L 384.93571 167.749947 
L 384.93571 167.749947 
" clip-path="url(#pcf05208f12)" style="fill: none; stroke: #ff7f0e; stroke-width: 1.5; stroke-linecap: square"/>
   </g>
   <g id="line2d_16">
    <path d="M 44.048438 165.947437 
L 401.168437 165.947437 
" clip-path="url(#pcf05208f12)" style="fill: none; stroke-dasharray: 5.55,2.4; stroke-dashoffset: 0; stroke: #000000; stroke-opacity: 0.4; stroke-width: 1.5"/>
   </g>
   <g id="patch_3">
    <path d="M 44.048438 273.312 
L 44.048438 7.2 
" style="fill: none; stroke: #000000; stroke-width: 0.8; stroke-linejoin: miter; stroke-linecap: square"/>
   </g>
   <g id="patch_4">
    <path d="M 401.168437 273.312 
L 401.168437 7.2 
" style="fill: none; stroke: #000000; stroke-width: 0.8; stroke-linejoin: miter; stroke-linecap: square"/>
   </g>
   <g id="patch_5">
    <path d="M 44.048438 273.312 
L 401.168438 273.312 
" style="fill: none; stroke: #000000; stroke-width: 0.8; stroke-linejoin: miter; stroke-linecap: square"/>
   </g>
   <g id="patch_6">
    <path d="M 44.048438 7.2 
L 401.168438 7.2 
" style="fill: none; stroke: #000000; stroke-width: 0.8; stroke-linejoin: miter; stroke-linecap: square"/>
   </g>
   <g id="legend_1">
    <g id="patch_7">
     <path d="M 328.0075 44.55625 
L 394.168438 44.55625 
Q 396.168438 44.55625 396.168438 42.55625 
L 396.168438 14.2 
Q 396.168438 12.2 394.168438 12.2 
L 328.0075 12.2 
Q 326.0075 12.2 326.0075 14.2 
L 326.0075 42.55625 
Q 326.0075 44.55625 328.0075 44.55625 
z
" style="fill: #ffffff; opacity: 0.8; stroke: #cccccc; stroke-linejoin: miter"/>
    </g>
    <g id="line2d_17">
     <path d="M 330.0075 20.298437 
L 340.0075 20.298437 
L 350.0075 20.298437 
" style="fill: none; stroke: #ff7f0e; stroke-width: 1.5; stroke-linecap: square"/>
    </g>
    <g id="text_17">
     <!-- Mean -->
     <g transform="translate(358.0075 23.798437) scale(0.1 -0.1)">
      <defs>
       <path id="DejaVuSans-4d" d="M 628 4666 
L 1569 4666 
L 2759 1491 
L 3956 4666 
L 4897 4666 
L 4897 0 
L 4281 0 
L 4281 4097 
L 3078 897 
L 2444 897 
L 1241 4097 
L 1241 0 
L 628 0 
L 628 4666 
z
" transform="scale(0.015625)"/>
       <path id="DejaVuSans-61" d="M 2194 1759 
Q 1497 1759 1228 1600 
Q 959 1441 959 1056 
Q 959 750 1161 570 
Q 1363 391 1709 391 
Q 2188 391 2477 730 
Q 2766 1069 2766 1631 
L 2766 1759 
L 2194 1759 
z
M 3341 1997 
L 3341 0 
L 2766 0 
L 2766 531 
Q 2569 213 2275 61 
Q 1981 -91 1556 -91 
Q 1019 -91 701 211 
Q 384 513 384 1019 
Q 384 1609 779 1909 
Q 1175 2209 1959 2209 
L 2766 2209 
L 2766 2266 
Q 2766 2663 2505 2880 
Q 2244 3097 1772 3097 
Q 1472 3097 1187 3025 
Q 903 2953 641 2809 
L 641 3341 
Q 956 3463 1253 3523 
Q 1550 3584 1831 3584 
Q 2591 3584 2966 3190 
Q 3341 2797 3341 1997 
z
" transform="scale(0.015625)"/>
      </defs>
      <use xlink:href="#DejaVuSans-4d"/>
      <use xlink:href="#DejaVuSans-65" transform="translate(86.279297 0)"/>
      <use xlink:href="#DejaVuSans-61" transform="translate(147.802734 0)"/>
      <use xlink:href="#DejaVuSans-6e" transform="translate(209.082031 0)"/>
     </g>
    </g>
    <g id="patch_8">
     <path d="M 330.0075 38.476562 
L 350.0075 38.476562 
L 350.0075 31.476562 
L 330.0075 31.476562 
z
" style="fill: #ff7f0e; fill-opacity: 0.3; stroke: #ff7f0e; stroke-opacity: 0.3; stroke-linejoin: miter"/>
    </g>
    <g id="text_18">
     <!-- Std Err -->
     <g transform="translate(358.0075 38.476562) scale(0.1 -0.1)">
      <defs>
       <path id="DejaVuSans-53" d="M 3425 4513 
L 3425 3897 
Q 3066 4069 2747 4153 
Q 2428 4238 2131 4238 
Q 1616 4238 1336 4038 
Q 1056 3838 1056 3469 
Q 1056 3159 1242 3001 
Q 1428 2844 1947 2747 
L 2328 2669 
Q 3034 2534 3370 2195 
Q 3706 1856 3706 1288 
Q 3706 609 3251 259 
Q 2797 -91 1919 -91 
Q 1588 -91 1214 -16 
Q 841 59 441 206 
L 441 856 
Q 825 641 1194 531 
Q 1563 422 1919 422 
Q 2459 422 2753 634 
Q 3047 847 3047 1241 
Q 3047 1584 2836 1778 
Q 2625 1972 2144 2069 
L 1759 2144 
Q 1053 2284 737 2584 
Q 422 2884 422 3419 
Q 422 4038 858 4394 
Q 1294 4750 2059 4750 
Q 2388 4750 2728 4690 
Q 3069 4631 3425 4513 
z
" transform="scale(0.015625)"/>
       <path id="DejaVuSans-45" d="M 628 4666 
L 3578 4666 
L 3578 4134 
L 1259 4134 
L 1259 2753 
L 3481 2753 
L 3481 2222 
L 1259 2222 
L 1259 531 
L 3634 531 
L 3634 0 
L 628 0 
L 628 4666 
z
" transform="scale(0.015625)"/>
      </defs>
      <use xlink:href="#DejaVuSans-53"/>
      <use xlink:href="#DejaVuSans-74" transform="translate(63.476562 0)"/>
      <use xlink:href="#DejaVuSans-64" transform="translate(102.685547 0)"/>
      <use xlink:href="#DejaVuSans-20" transform="translate(166.162109 0)"/>
      <use xlink:href="#DejaVuSans-45" transform="translate(197.949219 0)"/>
      <use xlink:href="#DejaVuSans-72" transform="translate(261.132812 0)"/>
      <use xlink:href="#DejaVuSans-72" transform="translate(300.496094 0)"/>
     </g>
    </g>
   </g>
  </g>
 </g>
 <defs>
  <clipPath id="pcf05208f12">
   <rect x="44.048438" y="7.2" width="357.12" height="266.112"/>
  </clipPath>
 </defs>
</svg>
