<?xml version="1.0" encoding="utf-8" standalone="no"?>
<!DOCTYPE svg PUBLIC "-//W3C//DTD SVG 1.1//EN"
  "http://www.w3.org/Graphics/SVG/1.1/DTD/svg11.dtd">
<svg xmlns:xlink="http://www.w3.org/1999/xlink" width="426.027812pt" height="325.986375pt" viewBox="0 0 426.027812 325.986375" xmlns="http://www.w3.org/2000/svg" version="1.1">
 <metadata>
  <rdf:RDF xmlns:dc="http://purl.org/dc/elements/1.1/" xmlns:cc="http://creativecommons.org/ns#" xmlns:rdf="http://www.w3.org/1999/02/22-rdf-syntax-ns#">
   <cc:Work>
    <dc:type rdf:resource="http://purl.org/dc/dcmitype/StillImage"/>
    <dc:date>2025-12-10T14:52:39.161528</dc:date>
    <dc:format>image/svg+xml</dc:format>
    <dc:creator>
     <cc:Agent>
      <dc:title>Matplotlib v3.10.1, https://matplotlib.org/</dc:title>
     </cc:Agent>
    </dc:creator>
   </cc:Work>
  </rdf:RDF>
 </metadata>
 <defs>
  <style type="text/css">*{stroke-linejoin: round; stroke-linecap: butt}</style>
 </defs>
 <g id="figure_1">
  <g id="patch_1">
   <path d="M 0 325.986375 
L 426.027812 325.986375 
L 426.027812 0 
L 0 0 
z
" style="fill: #ffffff"/>
  </g>
  <g id="axes_1">
   <g id="patch_2">
    <path d="M 61.707813 288.430125 
L 418.827813 288.430125 
L 418.827813 22.318125 
L 61.707813 22.318125 
z
" style="fill: #ffffff"/>
   </g>
   <g id="matplotlib.axis_1">
    <g id="xtick_1">
     <g id="line2d_1">
      <defs>
       <path id="m54f4b9d5c4" d="M 0 0 
L 0 3.5 
" style="stroke: #000000; stroke-width: 0.8"/>
      </defs>
      <g>
       <use xlink:href="#m54f4b9d5c4" x="77.94054" y="288.430125" style="stroke: #000000; stroke-width: 0.8"/>
      </g>
     </g>
     <g id="text_1">
      <!-- 0.0 -->
      <g transform="translate(69.988977 303.028562) scale(0.1 -0.1)">
       <defs>
        <path id="DejaVuSans-30" d="M 2034 4250 
Q 1547 4250 1301 3770 
Q 1056 3291 1056 2328 
Q 1056 1369 1301 889 
Q 1547 409 2034 409 
Q 2525 409 2770 889 
Q 3016 1369 3016 2328 
Q 3016 3291 2770 3770 
Q 2525 4250 2034 4250 
z
M 2034 4750 
Q 2819 4750 3233 4129 
Q 3647 3509 3647 2328 
Q 3647 1150 3233 529 
Q 2819 -91 2034 -91 
Q 1250 -91 836 529 
Q 422 1150 422 2328 
Q 422 3509 836 4129 
Q 1250 4750 2034 4750 
z
" transform="scale(0.015625)"/>
        <path id="DejaVuSans-2e" d="M 684 794 
L 1344 794 
L 1344 0 
L 684 0 
L 684 794 
z
" transform="scale(0.015625)"/>
       </defs>
       <use xlink:href="#DejaVuSans-30"/>
       <use xlink:href="#DejaVuSans-2e" transform="translate(63.623047 0)"/>
       <use xlink:href="#DejaVuSans-30" transform="translate(95.410156 0)"/>
      </g>
     </g>
    </g>
    <g id="xtick_2">
     <g id="line2d_2">
      <g>
       <use xlink:href="#m54f4b9d5c4" x="118.56298" y="288.430125" style="stroke: #000000; stroke-width: 0.8"/>
      </g>
     </g>
     <g id="text_2">
      <!-- 2.5 -->
      <g transform="translate(110.611418 303.028562) scale(0.1 -0.1)">
       <defs>
        <path id="DejaVuSans-32" d="M 1228 531 
L 3431 531 
L 3431 0 
L 469 0 
L 469 531 
Q 828 903 1448 1529 
Q 2069 2156 2228 2338 
Q 2531 2678 2651 2914 
Q 2772 3150 2772 3378 
Q 2772 3750 2511 3984 
Q 2250 4219 1831 4219 
Q 1534 4219 1204 4116 
Q 875 4013 500 3803 
L 500 4441 
Q 881 4594 1212 4672 
Q 1544 4750 1819 4750 
Q 2544 4750 2975 4387 
Q 3406 4025 3406 3419 
Q 3406 3131 3298 2873 
Q 3191 2616 2906 2266 
Q 2828 2175 2409 1742 
Q 1991 1309 1228 531 
z
" transform="scale(0.015625)"/>
        <path id="DejaVuSans-35" d="M 691 4666 
L 3169 4666 
L 3169 4134 
L 1269 4134 
L 1269 2991 
Q 1406 3038 1543 3061 
Q 1681 3084 1819 3084 
Q 2600 3084 3056 2656 
Q 3513 2228 3513 1497 
Q 3513 744 3044 326 
Q 2575 -91 1722 -91 
Q 1428 -91 1123 -41 
Q 819 9 494 109 
L 494 744 
Q 775 591 1075 516 
Q 1375 441 1709 441 
Q 2250 441 2565 725 
Q 2881 1009 2881 1497 
Q 2881 1984 2565 2268 
Q 2250 2553 1709 2553 
Q 1456 2553 1204 2497 
Q 953 2441 691 2322 
L 691 4666 
z
" transform="scale(0.015625)"/>
       </defs>
       <use xlink:href="#DejaVuSans-32"/>
       <use xlink:href="#DejaVuSans-2e" transform="translate(63.623047 0)"/>
       <use xlink:href="#DejaVuSans-35" transform="translate(95.410156 0)"/>
      </g>
     </g>
    </g>
    <g id="xtick_3">
     <g id="line2d_3">
      <g>
       <use xlink:href="#m54f4b9d5c4" x="159.185421" y="288.430125" style="stroke: #000000; stroke-width: 0.8"/>
      </g>
     </g>
     <g id="text_3">
      <!-- 5.0 -->
      <g transform="translate(151.233859 303.028562) scale(0.1 -0.1)">
       <use xlink:href="#DejaVuSans-35"/>
       <use xlink:href="#DejaVuSans-2e" transform="translate(63.623047 0)"/>
       <use xlink:href="#DejaVuSans-30" transform="translate(95.410156 0)"/>
      </g>
     </g>
    </g>
    <g id="xtick_4">
     <g id="line2d_4">
      <g>
       <use xlink:href="#m54f4b9d5c4" x="199.807862" y="288.430125" style="stroke: #000000; stroke-width: 0.8"/>
      </g>
     </g>
     <g id="text_4">
      <!-- 7.5 -->
      <g transform="translate(191.856299 303.028562) scale(0.1 -0.1)">
       <defs>
        <path id="DejaVuSans-37" d="M 525 4666 
L 3525 4666 
L 3525 4397 
L 1831 0 
L 1172 0 
L 2766 4134 
L 525 4134 
L 525 4666 
z
" transform="scale(0.015625)"/>
       </defs>
       <use xlink:href="#DejaVuSans-37"/>
       <use xlink:href="#DejaVuSans-2e" transform="translate(63.623047 0)"/>
       <use xlink:href="#DejaVuSans-35" transform="translate(95.410156 0)"/>
      </g>
     </g>
    </g>
    <g id="xtick_5">
     <g id="line2d_5">
      <g>
       <use xlink:href="#m54f4b9d5c4" x="240.430302" y="288.430125" style="stroke: #000000; stroke-width: 0.8"/>
      </g>
     </g>
     <g id="text_5">
      <!-- 10.0 -->
      <g transform="translate(229.29749 303.028562) scale(0.1 -0.1)">
       <defs>
        <path id="DejaVuSans-31" d="M 794 531 
L 1825 531 
L 1825 4091 
L 703 3866 
L 703 4441 
L 1819 4666 
L 2450 4666 
L 2450 531 
L 3481 531 
L 3481 0 
L 794 0 
L 794 531 
z
" transform="scale(0.015625)"/>
       </defs>
       <use xlink:href="#DejaVuSans-31"/>
       <use xlink:href="#DejaVuSans-30" transform="translate(63.623047 0)"/>
       <use xlink:href="#DejaVuSans-2e" transform="translate(127.246094 0)"/>
       <use xlink:href="#DejaVuSans-30" transform="translate(159.033203 0)"/>
      </g>
     </g>
    </g>
    <g id="xtick_6">
     <g id="line2d_6">
      <g>
       <use xlink:href="#m54f4b9d5c4" x="281.052743" y="288.430125" style="stroke: #000000; stroke-width: 0.8"/>
      </g>
     </g>
     <g id="text_6">
      <!-- 12.5 -->
      <g transform="translate(269.91993 303.028562) scale(0.1 -0.1)">
       <use xlink:href="#DejaVuSans-31"/>
       <use xlink:href="#DejaVuSans-32" transform="translate(63.623047 0)"/>
       <use xlink:href="#DejaVuSans-2e" transform="translate(127.246094 0)"/>
       <use xlink:href="#DejaVuSans-35" transform="translate(159.033203 0)"/>
      </g>
     </g>
    </g>
    <g id="xtick_7">
     <g id="line2d_7">
      <g>
       <use xlink:href="#m54f4b9d5c4" x="321.675184" y="288.430125" style="stroke: #000000; stroke-width: 0.8"/>
      </g>
     </g>
     <g id="text_7">
      <!-- 15.0 -->
      <g transform="translate(310.542371 303.028562) scale(0.1 -0.1)">
       <use xlink:href="#DejaVuSans-31"/>
       <use xlink:href="#DejaVuSans-35" transform="translate(63.623047 0)"/>
       <use xlink:href="#DejaVuSans-2e" transform="translate(127.246094 0)"/>
       <use xlink:href="#DejaVuSans-30" transform="translate(159.033203 0)"/>
      </g>
     </g>
    </g>
    <g id="xtick_8">
     <g id="line2d_8">
      <g>
       <use xlink:href="#m54f4b9d5c4" x="362.297624" y="288.430125" style="stroke: #000000; stroke-width: 0.8"/>
      </g>
     </g>
     <g id="text_8">
      <!-- 17.5 -->
      <g transform="translate(351.164812 303.028562) scale(0.1 -0.1)">
       <use xlink:href="#DejaVuSans-31"/>
       <use xlink:href="#DejaVuSans-37" transform="translate(63.623047 0)"/>
       <use xlink:href="#DejaVuSans-2e" transform="translate(127.246094 0)"/>
       <use xlink:href="#DejaVuSans-35" transform="translate(159.033203 0)"/>
      </g>
     </g>
    </g>
    <g id="xtick_9">
     <g id="line2d_9">
      <g>
       <use xlink:href="#m54f4b9d5c4" x="402.920065" y="288.430125" style="stroke: #000000; stroke-width: 0.8"/>
      </g>
     </g>
     <g id="text_9">
      <!-- 20.0 -->
      <g transform="translate(391.787252 303.028562) scale(0.1 -0.1)">
       <use xlink:href="#DejaVuSans-32"/>
       <use xlink:href="#DejaVuSans-30" transform="translate(63.623047 0)"/>
       <use xlink:href="#DejaVuSans-2e" transform="translate(127.246094 0)"/>
       <use xlink:href="#DejaVuSans-30" transform="translate(159.033203 0)"/>
      </g>
     </g>
    </g>
    <g id="text_10">
     <!-- time (MD units) -->
     <g transform="translate(201.436563 316.706687) scale(0.1 -0.1)">
      <defs>
       <path id="DejaVuSans-74" d="M 1172 4494 
L 1172 3500 
L 2356 3500 
L 2356 3053 
L 1172 3053 
L 1172 1153 
Q 1172 725 1289 603 
Q 1406 481 1766 481 
L 2356 481 
L 2356 0 
L 1766 0 
Q 1100 0 847 248 
Q 594 497 594 1153 
L 594 3053 
L 172 3053 
L 172 3500 
L 594 3500 
L 594 4494 
L 1172 4494 
z
" transform="scale(0.015625)"/>
       <path id="DejaVuSans-69" d="M 603 3500 
L 1178 3500 
L 1178 0 
L 603 0 
L 603 3500 
z
M 603 4863 
L 1178 4863 
L 1178 4134 
L 603 4134 
L 603 4863 
z
" transform="scale(0.015625)"/>
       <path id="DejaVuSans-6d" d="M 3328 2828 
Q 3544 3216 3844 3400 
Q 4144 3584 4550 3584 
Q 5097 3584 5394 3201 
Q 5691 2819 5691 2113 
L 5691 0 
L 5113 0 
L 5113 2094 
Q 5113 2597 4934 2840 
Q 4756 3084 4391 3084 
Q 3944 3084 3684 2787 
Q 3425 2491 3425 1978 
L 3425 0 
L 2847 0 
L 2847 2094 
Q 2847 2600 2669 2842 
Q 2491 3084 2119 3084 
Q 1678 3084 1418 2786 
Q 1159 2488 1159 1978 
L 1159 0 
L 581 0 
L 581 3500 
L 1159 3500 
L 1159 2956 
Q 1356 3278 1631 3431 
Q 1906 3584 2284 3584 
Q 2666 3584 2933 3390 
Q 3200 3197 3328 2828 
z
" transform="scale(0.015625)"/>
       <path id="DejaVuSans-65" d="M 3597 1894 
L 3597 1613 
L 953 1613 
Q 991 1019 1311 708 
Q 1631 397 2203 397 
Q 2534 397 2845 478 
Q 3156 559 3463 722 
L 3463 178 
Q 3153 47 2828 -22 
Q 2503 -91 2169 -91 
Q 1331 -91 842 396 
Q 353 884 353 1716 
Q 353 2575 817 3079 
Q 1281 3584 2069 3584 
Q 2775 3584 3186 3129 
Q 3597 2675 3597 1894 
z
M 3022 2063 
Q 3016 2534 2758 2815 
Q 2500 3097 2075 3097 
Q 1594 3097 1305 2825 
Q 1016 2553 972 2059 
L 3022 2063 
z
" transform="scale(0.015625)"/>
       <path id="DejaVuSans-20" transform="scale(0.015625)"/>
       <path id="DejaVuSans-28" d="M 1984 4856 
Q 1566 4138 1362 3434 
Q 1159 2731 1159 2009 
Q 1159 1288 1364 580 
Q 1569 -128 1984 -844 
L 1484 -844 
Q 1016 -109 783 600 
Q 550 1309 550 2009 
Q 550 2706 781 3412 
Q 1013 4119 1484 4856 
L 1984 4856 
z
" transform="scale(0.015625)"/>
       <path id="DejaVuSans-4d" d="M 628 4666 
L 1569 4666 
L 2759 1491 
L 3956 4666 
L 4897 4666 
L 4897 0 
L 4281 0 
L 4281 4097 
L 3078 897 
L 2444 897 
L 1241 4097 
L 1241 0 
L 628 0 
L 628 4666 
z
" transform="scale(0.015625)"/>
       <path id="DejaVuSans-44" d="M 1259 4147 
L 1259 519 
L 2022 519 
Q 2988 519 3436 956 
Q 3884 1394 3884 2338 
Q 3884 3275 3436 3711 
Q 2988 4147 2022 4147 
L 1259 4147 
z
M 628 4666 
L 1925 4666 
Q 3281 4666 3915 4102 
Q 4550 3538 4550 2338 
Q 4550 1131 3912 565 
Q 3275 0 1925 0 
L 628 0 
L 628 4666 
z
" transform="scale(0.015625)"/>
       <path id="DejaVuSans-75" d="M 544 1381 
L 544 3500 
L 1119 3500 
L 1119 1403 
Q 1119 906 1312 657 
Q 1506 409 1894 409 
Q 2359 409 2629 706 
Q 2900 1003 2900 1516 
L 2900 3500 
L 3475 3500 
L 3475 0 
L 2900 0 
L 2900 538 
Q 2691 219 2414 64 
Q 2138 -91 1772 -91 
Q 1169 -91 856 284 
Q 544 659 544 1381 
z
M 1991 3584 
L 1991 3584 
z
" transform="scale(0.015625)"/>
       <path id="DejaVuSans-6e" d="M 3513 2113 
L 3513 0 
L 2938 0 
L 2938 2094 
Q 2938 2591 2744 2837 
Q 2550 3084 2163 3084 
Q 1697 3084 1428 2787 
Q 1159 2491 1159 1978 
L 1159 0 
L 581 0 
L 581 3500 
L 1159 3500 
L 1159 2956 
Q 1366 3272 1645 3428 
Q 1925 3584 2291 3584 
Q 2894 3584 3203 3211 
Q 3513 2838 3513 2113 
z
" transform="scale(0.015625)"/>
       <path id="DejaVuSans-73" d="M 2834 3397 
L 2834 2853 
Q 2591 2978 2328 3040 
Q 2066 3103 1784 3103 
Q 1356 3103 1142 2972 
Q 928 2841 928 2578 
Q 928 2378 1081 2264 
Q 1234 2150 1697 2047 
L 1894 2003 
Q 2506 1872 2764 1633 
Q 3022 1394 3022 966 
Q 3022 478 2636 193 
Q 2250 -91 1575 -91 
Q 1294 -91 989 -36 
Q 684 19 347 128 
L 347 722 
Q 666 556 975 473 
Q 1284 391 1588 391 
Q 1994 391 2212 530 
Q 2431 669 2431 922 
Q 2431 1156 2273 1281 
Q 2116 1406 1581 1522 
L 1381 1569 
Q 847 1681 609 1914 
Q 372 2147 372 2553 
Q 372 3047 722 3315 
Q 1072 3584 1716 3584 
Q 2034 3584 2315 3537 
Q 2597 3491 2834 3397 
z
" transform="scale(0.015625)"/>
       <path id="DejaVuSans-29" d="M 513 4856 
L 1013 4856 
Q 1481 4119 1714 3412 
Q 1947 2706 1947 2009 
Q 1947 1309 1714 600 
Q 1481 -109 1013 -844 
L 513 -844 
Q 928 -128 1133 580 
Q 1338 1288 1338 2009 
Q 1338 2731 1133 3434 
Q 928 4138 513 4856 
z
" transform="scale(0.015625)"/>
      </defs>
      <use xlink:href="#DejaVuSans-74"/>
      <use xlink:href="#DejaVuSans-69" transform="translate(39.208984 0)"/>
      <use xlink:href="#DejaVuSans-6d" transform="translate(66.992188 0)"/>
      <use xlink:href="#DejaVuSans-65" transform="translate(164.404297 0)"/>
      <use xlink:href="#DejaVuSans-20" transform="translate(225.927734 0)"/>
      <use xlink:href="#DejaVuSans-28" transform="translate(257.714844 0)"/>
      <use xlink:href="#DejaVuSans-4d" transform="translate(296.728516 0)"/>
      <use xlink:href="#DejaVuSans-44" transform="translate(383.007812 0)"/>
      <use xlink:href="#DejaVuSans-20" transform="translate(460.009766 0)"/>
      <use xlink:href="#DejaVuSans-75" transform="translate(491.796875 0)"/>
      <use xlink:href="#DejaVuSans-6e" transform="translate(555.175781 0)"/>
      <use xlink:href="#DejaVuSans-69" transform="translate(618.554688 0)"/>
      <use xlink:href="#DejaVuSans-74" transform="translate(646.337891 0)"/>
      <use xlink:href="#DejaVuSans-73" transform="translate(685.546875 0)"/>
      <use xlink:href="#DejaVuSans-29" transform="translate(737.646484 0)"/>
     </g>
    </g>
   </g>
   <g id="matplotlib.axis_2">
    <g id="ytick_1">
     <g id="line2d_10">
      <defs>
       <path id="m39a650b2ca" d="M 0 0 
L -3.5 0 
" style="stroke: #000000; stroke-width: 0.8"/>
      </defs>
      <g>
       <use xlink:href="#m39a650b2ca" x="61.707813" y="275.724088" style="stroke: #000000; stroke-width: 0.8"/>
      </g>
     </g>
     <g id="text_11">
      <!-- −1500 -->
      <g transform="translate(20.878125 279.523307) scale(0.1 -0.1)">
       <defs>
        <path id="DejaVuSans-2212" d="M 678 2272 
L 4684 2272 
L 4684 1741 
L 678 1741 
L 678 2272 
z
" transform="scale(0.015625)"/>
       </defs>
       <use xlink:href="#DejaVuSans-2212"/>
       <use xlink:href="#DejaVuSans-31" transform="translate(83.789062 0)"/>
       <use xlink:href="#DejaVuSans-35" transform="translate(147.412109 0)"/>
       <use xlink:href="#DejaVuSans-30" transform="translate(211.035156 0)"/>
       <use xlink:href="#DejaVuSans-30" transform="translate(274.658203 0)"/>
      </g>
     </g>
    </g>
    <g id="ytick_2">
     <g id="line2d_11">
      <g>
       <use xlink:href="#m39a650b2ca" x="61.707813" y="239.18516" style="stroke: #000000; stroke-width: 0.8"/>
      </g>
     </g>
     <g id="text_12">
      <!-- −1250 -->
      <g transform="translate(20.878125 242.984379) scale(0.1 -0.1)">
       <use xlink:href="#DejaVuSans-2212"/>
       <use xlink:href="#DejaVuSans-31" transform="translate(83.789062 0)"/>
       <use xlink:href="#DejaVuSans-32" transform="translate(147.412109 0)"/>
       <use xlink:href="#DejaVuSans-35" transform="translate(211.035156 0)"/>
       <use xlink:href="#DejaVuSans-30" transform="translate(274.658203 0)"/>
      </g>
     </g>
    </g>
    <g id="ytick_3">
     <g id="line2d_12">
      <g>
       <use xlink:href="#m39a650b2ca" x="61.707813" y="202.646232" style="stroke: #000000; stroke-width: 0.8"/>
      </g>
     </g>
     <g id="text_13">
      <!-- −1000 -->
      <g transform="translate(20.878125 206.44545) scale(0.1 -0.1)">
       <use xlink:href="#DejaVuSans-2212"/>
       <use xlink:href="#DejaVuSans-31" transform="translate(83.789062 0)"/>
       <use xlink:href="#DejaVuSans-30" transform="translate(147.412109 0)"/>
       <use xlink:href="#DejaVuSans-30" transform="translate(211.035156 0)"/>
       <use xlink:href="#DejaVuSans-30" transform="translate(274.658203 0)"/>
      </g>
     </g>
    </g>
    <g id="ytick_4">
     <g id="line2d_13">
      <g>
       <use xlink:href="#m39a650b2ca" x="61.707813" y="166.107303" style="stroke: #000000; stroke-width: 0.8"/>
      </g>
     </g>
     <g id="text_14">
      <!-- −750 -->
      <g transform="translate(27.240625 169.906522) scale(0.1 -0.1)">
       <use xlink:href="#DejaVuSans-2212"/>
       <use xlink:href="#DejaVuSans-37" transform="translate(83.789062 0)"/>
       <use xlink:href="#DejaVuSans-35" transform="translate(147.412109 0)"/>
       <use xlink:href="#DejaVuSans-30" transform="translate(211.035156 0)"/>
      </g>
     </g>
    </g>
    <g id="ytick_5">
     <g id="line2d_14">
      <g>
       <use xlink:href="#m39a650b2ca" x="61.707813" y="129.568375" style="stroke: #000000; stroke-width: 0.8"/>
      </g>
     </g>
     <g id="text_15">
      <!-- −500 -->
      <g transform="translate(27.240625 133.367594) scale(0.1 -0.1)">
       <use xlink:href="#DejaVuSans-2212"/>
       <use xlink:href="#DejaVuSans-35" transform="translate(83.789062 0)"/>
       <use xlink:href="#DejaVuSans-30" transform="translate(147.412109 0)"/>
       <use xlink:href="#DejaVuSans-30" transform="translate(211.035156 0)"/>
      </g>
     </g>
    </g>
    <g id="ytick_6">
     <g id="line2d_15">
      <g>
       <use xlink:href="#m39a650b2ca" x="61.707813" y="93.029447" style="stroke: #000000; stroke-width: 0.8"/>
      </g>
     </g>
     <g id="text_16">
      <!-- −250 -->
      <g transform="translate(27.240625 96.828665) scale(0.1 -0.1)">
       <use xlink:href="#DejaVuSans-2212"/>
       <use xlink:href="#DejaVuSans-32" transform="translate(83.789062 0)"/>
       <use xlink:href="#DejaVuSans-35" transform="translate(147.412109 0)"/>
       <use xlink:href="#DejaVuSans-30" transform="translate(211.035156 0)"/>
      </g>
     </g>
    </g>
    <g id="ytick_7">
     <g id="line2d_16">
      <g>
       <use xlink:href="#m39a650b2ca" x="61.707813" y="56.490518" style="stroke: #000000; stroke-width: 0.8"/>
      </g>
     </g>
     <g id="text_17">
      <!-- 0 -->
      <g transform="translate(48.345313 60.289737) scale(0.1 -0.1)">
       <use xlink:href="#DejaVuSans-30"/>
      </g>
     </g>
    </g>
    <g id="text_18">
     <!-- Energy -->
     <g transform="translate(14.798438 172.880375) rotate(-90) scale(0.1 -0.1)">
      <defs>
       <path id="DejaVuSans-45" d="M 628 4666 
L 3578 4666 
L 3578 4134 
L 1259 4134 
L 1259 2753 
L 3481 2753 
L 3481 2222 
L 1259 2222 
L 1259 531 
L 3634 531 
L 3634 0 
L 628 0 
L 628 4666 
z
" transform="scale(0.015625)"/>
       <path id="DejaVuSans-72" d="M 2631 2963 
Q 2534 3019 2420 3045 
Q 2306 3072 2169 3072 
Q 1681 3072 1420 2755 
Q 1159 2438 1159 1844 
L 1159 0 
L 581 0 
L 581 3500 
L 1159 3500 
L 1159 2956 
Q 1341 3275 1631 3429 
Q 1922 3584 2338 3584 
Q 2397 3584 2469 3576 
Q 2541 3569 2628 3553 
L 2631 2963 
z
" transform="scale(0.015625)"/>
       <path id="DejaVuSans-67" d="M 2906 1791 
Q 2906 2416 2648 2759 
Q 2391 3103 1925 3103 
Q 1463 3103 1205 2759 
Q 947 2416 947 1791 
Q 947 1169 1205 825 
Q 1463 481 1925 481 
Q 2391 481 2648 825 
Q 2906 1169 2906 1791 
z
M 3481 434 
Q 3481 -459 3084 -895 
Q 2688 -1331 1869 -1331 
Q 1566 -1331 1297 -1286 
Q 1028 -1241 775 -1147 
L 775 -588 
Q 1028 -725 1275 -790 
Q 1522 -856 1778 -856 
Q 2344 -856 2625 -561 
Q 2906 -266 2906 331 
L 2906 616 
Q 2728 306 2450 153 
Q 2172 0 1784 0 
Q 1141 0 747 490 
Q 353 981 353 1791 
Q 353 2603 747 3093 
Q 1141 3584 1784 3584 
Q 2172 3584 2450 3431 
Q 2728 3278 2906 2969 
L 2906 3500 
L 3481 3500 
L 3481 434 
z
" transform="scale(0.015625)"/>
       <path id="DejaVuSans-79" d="M 2059 -325 
Q 1816 -950 1584 -1140 
Q 1353 -1331 966 -1331 
L 506 -1331 
L 506 -850 
L 844 -850 
Q 1081 -850 1212 -737 
Q 1344 -625 1503 -206 
L 1606 56 
L 191 3500 
L 800 3500 
L 1894 763 
L 2988 3500 
L 3597 3500 
L 2059 -325 
z
" transform="scale(0.015625)"/>
      </defs>
      <use xlink:href="#DejaVuSans-45"/>
      <use xlink:href="#DejaVuSans-6e" transform="translate(63.183594 0)"/>
      <use xlink:href="#DejaVuSans-65" transform="translate(126.5625 0)"/>
      <use xlink:href="#DejaVuSans-72" transform="translate(188.085938 0)"/>
      <use xlink:href="#DejaVuSans-67" transform="translate(227.449219 0)"/>
      <use xlink:href="#DejaVuSans-79" transform="translate(290.925781 0)"/>
     </g>
    </g>
   </g>
   <g id="line2d_17">
    <path d="M 77.94054 226.672137 
L 78.265519 226.87859 
L 78.915478 227.526534 
L 79.240458 227.565034 
L 79.565437 227.169173 
L 80.215396 225.463404 
L 80.540376 225.090646 
L 80.865355 225.358933 
L 82.165274 227.758741 
L 82.815233 228.719041 
L 83.140212 228.946168 
L 83.465192 229.360305 
L 84.76511 231.975064 
L 85.415069 233.393338 
L 86.065028 233.906921 
L 86.390007 234.34228 
L 86.714987 234.575257 
L 87.364946 234.252095 
L 87.689926 234.461722 
L 88.989844 237.371619 
L 89.314823 238.02622 
L 89.639803 238.415098 
L 89.964782 238.986854 
L 90.939721 241.62479 
L 91.2647 241.64846 
L 91.58968 241.388708 
L 91.914659 241.479841 
L 92.564618 242.905874 
L 92.889598 243.713485 
L 93.539557 244.414264 
L 94.189516 246.272183 
L 94.514496 246.84282 
L 95.164455 247.465989 
L 95.489434 247.644211 
L 96.139393 247.492206 
L 96.464373 247.562561 
L 96.789352 247.337906 
L 97.114332 247.332192 
L 97.439311 247.857697 
L 98.41425 250.306157 
L 98.739229 250.422528 
L 99.064209 250.213846 
L 99.389188 250.437981 
L 100.364127 253.351725 
L 100.689107 253.598715 
L 101.339066 253.042643 
L 101.664045 253.378862 
L 102.314004 254.636868 
L 102.638984 255.198101 
L 102.963963 255.375271 
L 103.613922 255.274259 
L 103.938902 255.723988 
L 104.588861 257.266731 
L 104.91384 258.082963 
L 105.23882 258.577356 
L 105.563799 258.485818 
L 106.213758 257.986765 
L 106.538738 258.080545 
L 106.863717 258.86516 
L 107.188697 260.152154 
L 107.513677 260.954492 
L 107.838656 261.113836 
L 108.163636 260.771864 
L 108.488615 260.253978 
L 108.813595 260.002104 
L 109.138574 259.896826 
L 109.463554 260.301443 
L 110.113513 261.984192 
L 110.763472 261.710408 
L 111.088451 261.957963 
L 111.73841 262.914192 
L 112.06339 262.891364 
L 112.388369 262.388294 
L 112.713349 262.369013 
L 113.038328 262.907644 
L 115.313185 264.969082 
L 115.963144 264.775472 
L 116.288124 265.288644 
L 116.938083 266.585479 
L 117.913021 267.234551 
L 118.238001 267.130468 
L 118.56298 267.154362 
L 119.862898 268.650296 
L 120.187878 268.44584 
L 120.512858 268.060529 
L 120.837837 267.976026 
L 121.162817 267.75263 
L 121.487796 267.909071 
L 122.137755 269.523097 
L 122.462735 269.946553 
L 123.112694 270.009901 
L 123.762653 270.918242 
L 124.412612 271.541031 
L 124.737591 271.246573 
L 125.38755 270.363665 
L 126.037509 270.310161 
L 127.337428 272.266466 
L 127.662407 271.783639 
L 128.637346 271.248854 
L 128.962325 271.118805 
L 130.262243 272.234916 
L 131.562161 272.767919 
L 132.21212 273.869495 
L 132.5371 273.988383 
L 133.837018 272.942448 
L 134.161998 272.768781 
L 134.486977 273.1496 
L 134.811957 273.913354 
L 135.136936 274.311398 
L 135.461916 273.986051 
L 135.786895 273.493391 
L 137.086813 272.512376 
L 137.411793 272.441995 
L 137.736772 272.592925 
L 138.386731 273.36066 
L 139.03669 273.845623 
L 139.36167 273.865422 
L 140.011629 272.858674 
L 140.336609 272.713398 
L 140.986568 273.708381 
L 141.311547 273.901147 
L 141.961506 273.950292 
L 142.286486 273.832435 
L 142.936445 272.682375 
L 143.261424 272.579414 
L 143.911383 273.210815 
L 144.236363 273.118204 
L 144.886322 272.482884 
L 145.211301 271.991785 
L 145.536281 272.084362 
L 146.18624 273.128024 
L 146.51122 273.304013 
L 148.136117 272.364571 
L 148.786076 272.762041 
L 149.111056 272.808875 
L 150.085994 273.561667 
L 150.410974 273.382561 
L 150.735953 273.017284 
L 151.060933 272.306168 
L 151.385912 271.313617 
L 151.710892 270.693982 
L 152.035871 270.507223 
L 152.360851 270.764802 
L 152.685831 271.489144 
L 153.01081 271.79703 
L 153.985749 271.807621 
L 154.635708 271.599255 
L 155.285667 271.934828 
L 155.610646 271.524699 
L 155.935626 271.30234 
L 156.260605 271.941667 
L 156.910564 273.798162 
L 157.235544 273.816466 
L 157.885503 272.357632 
L 158.210482 271.999784 
L 158.535462 272.206481 
L 159.185421 272.916034 
L 160.16036 273.007499 
L 160.485339 273.187414 
L 160.810319 273.088559 
L 161.135298 272.797638 
L 161.785257 272.817936 
L 162.435216 271.87992 
L 162.760196 271.874211 
L 163.410155 272.437376 
L 164.060114 272.612696 
L 164.710073 273.38701 
L 165.035052 273.436667 
L 166.009991 274.305844 
L 167.309909 273.221186 
L 167.634889 273.11727 
L 167.959868 273.183637 
L 168.284848 272.967335 
L 168.934807 272.277397 
L 169.584766 273.024462 
L 169.909745 273.055624 
L 170.559704 272.470905 
L 171.534643 272.021979 
L 172.184602 272.45142 
L 172.509582 272.275786 
L 172.834561 271.753526 
L 173.159541 271.567263 
L 173.48452 271.982529 
L 173.8095 272.114821 
L 174.134479 271.893181 
L 175.434397 272.346623 
L 176.084356 273.189034 
L 176.409336 273.127057 
L 176.734315 272.251882 
L 177.059295 271.725139 
L 177.384274 271.752246 
L 178.034233 272.593758 
L 178.684193 272.841169 
L 179.009172 273.171962 
L 179.659131 273.428991 
L 179.984111 273.30124 
L 180.30909 273.026907 
L 180.63407 273.372977 
L 180.959049 273.890121 
L 181.284029 274.098282 
L 182.258967 273.82962 
L 182.583947 273.309357 
L 182.908926 272.563186 
L 183.233906 272.137641 
L 183.558885 272.369388 
L 184.208844 273.636789 
L 184.533824 273.719306 
L 185.183783 272.752983 
L 185.833742 272.998045 
L 186.158722 272.799769 
L 186.808681 272.671636 
L 187.45864 272.198482 
L 187.783619 272.385089 
L 188.108599 273.266927 
L 188.433578 273.776513 
L 189.083537 273.093787 
L 189.733496 273.318889 
L 190.383455 273.109645 
L 190.708435 273.142267 
L 191.358394 274.30398 
L 191.683374 274.245116 
L 192.008353 273.773019 
L 192.333333 273.780966 
L 192.983292 274.922025 
L 193.308271 275.137998 
L 193.633251 274.958061 
L 194.28321 274.394967 
L 194.608189 274.301942 
L 194.933169 274.697035 
L 195.583128 275.933108 
L 195.908107 275.855997 
L 196.558066 274.953429 
L 196.883046 274.796291 
L 197.208025 274.878953 
L 197.533005 275.102021 
L 197.857984 275.091479 
L 198.507944 274.100055 
L 199.482882 273.565166 
L 199.807862 273.854471 
L 200.7828 273.575479 
L 201.10778 273.746459 
L 201.432759 274.252466 
L 201.757739 274.387165 
L 202.082718 273.918008 
L 202.407698 273.220934 
L 202.732677 273.015377 
L 203.707616 274.357178 
L 204.032595 274.60897 
L 204.357575 274.540214 
L 205.007534 273.648307 
L 205.657493 272.608083 
L 205.982473 272.430949 
L 206.632432 272.474858 
L 207.60737 273.064768 
L 208.257329 273.054761 
L 208.582309 273.211866 
L 208.907288 273.53172 
L 209.232268 273.564867 
L 209.882227 273.426834 
L 210.207206 273.416681 
L 210.532186 273.259303 
L 211.507125 272.119387 
L 211.832104 272.372008 
L 212.482063 273.154924 
L 212.807043 273.371596 
L 213.132022 273.380931 
L 213.457002 273.671813 
L 213.781981 273.802214 
L 214.106961 273.396482 
L 214.43194 273.204786 
L 214.75692 273.55609 
L 215.081899 274.155169 
L 215.406879 274.437839 
L 215.731858 274.357014 
L 216.706797 272.257306 
L 217.356756 271.858546 
L 217.681736 272.150951 
L 218.006715 272.774792 
L 218.331695 273.049939 
L 218.981654 272.940376 
L 219.631613 272.771052 
L 219.956592 272.57199 
L 220.281572 272.576827 
L 220.606551 273.071889 
L 220.931531 273.800728 
L 221.25651 273.812017 
L 221.58149 273.468439 
L 221.906469 273.440462 
L 222.556428 273.942756 
L 222.881408 273.980467 
L 223.531367 273.142709 
L 223.856346 273.360073 
L 224.181326 273.823165 
L 224.506306 273.957865 
L 225.156265 273.295332 
L 225.806224 273.96487 
L 226.781162 273.183817 
L 227.106142 273.706977 
L 227.431121 273.957545 
L 228.40606 273.125476 
L 228.731039 272.8869 
L 229.380998 272.083313 
L 229.705978 272.146574 
L 230.680917 273.501138 
L 231.005896 273.760458 
L 231.330876 273.841854 
L 231.655855 273.653435 
L 232.305814 272.664319 
L 232.630794 272.768083 
L 232.955773 273.016627 
L 233.605732 273.026464 
L 233.930712 272.95526 
L 234.580671 273.523599 
L 235.23063 273.702909 
L 235.555609 274.085303 
L 235.880589 274.021019 
L 236.530548 273.119258 
L 236.855527 273.031066 
L 237.505487 273.40314 
L 237.830466 273.403389 
L 238.155446 273.003743 
L 239.130384 271.004498 
L 239.455364 271.318772 
L 239.780343 271.965727 
L 240.430302 272.394106 
L 240.755282 272.161151 
L 241.405241 270.438193 
L 241.73022 270.818705 
L 242.0552 271.567683 
L 242.380179 271.750304 
L 243.355118 271.017731 
L 243.680098 271.088501 
L 244.330057 271.457462 
L 244.655036 271.28146 
L 244.980016 271.291292 
L 245.304995 271.415487 
L 245.954954 271.95652 
L 246.279934 271.830912 
L 246.604913 271.25131 
L 246.929893 271.023816 
L 247.254872 271.115234 
L 247.579852 271.481138 
L 247.904831 271.572505 
L 248.229811 271.428995 
L 248.55479 271.624208 
L 249.204749 273.056155 
L 249.529729 272.897188 
L 250.504668 271.246198 
L 250.829647 271.335576 
L 251.804586 273.572164 
L 252.129565 273.694004 
L 253.104504 273.5331 
L 253.754463 273.977247 
L 254.404422 274.076836 
L 254.729401 273.947235 
L 255.70434 272.405679 
L 256.029319 272.346115 
L 257.004258 273.6469 
L 257.654217 273.852351 
L 257.979197 273.800419 
L 258.954135 273.114931 
L 259.279115 273.21607 
L 259.929074 273.945896 
L 260.254053 273.937464 
L 261.228992 272.632359 
L 261.553971 272.691817 
L 262.52891 273.365948 
L 262.853889 273.236216 
L 263.503849 272.411587 
L 263.828828 272.330426 
L 264.153808 272.5616 
L 264.803767 273.641161 
L 265.128746 273.361056 
L 265.453726 272.923622 
L 265.778705 272.798742 
L 266.103685 272.940101 
L 266.428664 273.357471 
L 266.753644 273.394238 
L 267.403603 272.288755 
L 267.728582 272.391498 
L 268.378541 273.26844 
L 268.703521 273.473799 
L 269.0285 273.952273 
L 269.35348 274.227474 
L 269.67846 274.16737 
L 270.328419 273.615922 
L 270.653398 273.781348 
L 270.978378 274.35036 
L 271.303357 274.54961 
L 271.953316 274.419493 
L 272.603275 274.015213 
L 272.928255 274.247493 
L 273.578214 275.179777 
L 273.903193 275.287993 
L 274.228173 275.155026 
L 274.553152 274.841944 
L 274.878132 274.337113 
L 275.203111 274.411703 
L 275.528091 274.960529 
L 275.85307 274.986804 
L 276.50303 273.99395 
L 276.828009 274.052963 
L 277.477968 274.813859 
L 278.127927 274.766146 
L 279.102866 273.937726 
L 279.427845 274.030983 
L 279.752825 274.402685 
L 280.077804 274.165945 
L 280.727763 273.248779 
L 281.377722 273.27065 
L 281.702702 272.656658 
L 282.027681 272.424538 
L 283.00262 273.81393 
L 283.652579 274.085837 
L 283.977559 273.895219 
L 284.627518 272.636194 
L 284.952497 272.367352 
L 285.277477 272.433186 
L 286.252415 272.078462 
L 286.577395 272.294037 
L 286.902374 272.348489 
L 287.877313 271.717828 
L 288.202292 271.722791 
L 288.527272 271.848409 
L 288.852251 272.32934 
L 289.82719 274.553143 
L 290.15217 274.178696 
L 290.802129 273.241321 
L 291.127108 273.19864 
L 291.452088 273.421176 
L 291.777067 273.418106 
L 292.427026 271.732361 
L 292.752006 271.798628 
L 293.401965 272.715573 
L 293.726944 272.98245 
L 294.376903 273.108943 
L 295.026862 272.57746 
L 295.351842 272.79093 
L 296.326781 272.11144 
L 296.65176 272.108965 
L 296.97674 271.895316 
L 297.301719 271.946941 
L 297.626699 272.74097 
L 297.951678 273.875281 
L 298.276658 274.184376 
L 299.251596 272.546773 
L 299.576576 272.878794 
L 300.226535 273.822642 
L 300.551514 273.957172 
L 300.876494 273.766507 
L 301.526453 272.910798 
L 301.851432 272.921958 
L 302.501392 273.57712 
L 302.826371 273.665474 
L 303.151351 273.433545 
L 303.47633 273.397687 
L 304.126289 273.965829 
L 304.451269 274.121841 
L 304.776248 274.043917 
L 306.076166 272.011007 
L 306.401146 271.810204 
L 307.051105 272.588527 
L 307.701064 273.778798 
L 308.026043 273.960364 
L 308.351023 273.595319 
L 309.000982 271.88437 
L 309.325962 271.499378 
L 309.650941 271.435875 
L 310.3009 272.367443 
L 310.62588 272.85775 
L 310.950859 273.07411 
L 311.600818 272.302644 
L 311.925798 272.348682 
L 312.575757 272.945754 
L 312.900736 272.831764 
L 313.550695 271.416753 
L 313.875675 271.243438 
L 314.200654 271.682675 
L 314.850613 273.166666 
L 315.175593 273.685348 
L 315.500573 273.549078 
L 316.150532 272.720912 
L 316.475511 272.444218 
L 316.800491 272.563046 
L 317.12547 272.883646 
L 317.775429 273.984001 
L 318.100409 274.61607 
L 318.425388 274.856276 
L 318.750368 274.533773 
L 319.400327 273.519007 
L 319.725306 273.170765 
L 320.700245 273.022031 
L 321.675184 273.758584 
L 322.000163 273.360309 
L 322.975102 274.217236 
L 323.300081 274.004633 
L 323.625061 273.514448 
L 324.27502 272.991004 
L 324.599999 273.092269 
L 325.574938 272.467508 
L 326.224897 272.449692 
L 326.549876 272.665093 
L 326.874856 272.555646 
L 327.199835 272.261217 
L 327.524815 272.222485 
L 328.499754 273.302004 
L 328.824733 273.480022 
L 329.149713 273.395601 
L 329.474692 273.062313 
L 329.799672 272.996796 
L 330.449631 273.796338 
L 330.77461 273.920533 
L 331.424569 273.69844 
L 332.074528 273.250804 
L 332.399508 272.789334 
L 332.724487 272.590379 
L 333.699426 273.957673 
L 334.024405 273.76883 
L 334.349385 273.267451 
L 334.674365 273.099279 
L 334.999344 273.297588 
L 335.649303 273.854763 
L 336.299262 273.001666 
L 336.949221 273.497747 
L 337.274201 273.001245 
L 337.59918 272.140941 
L 337.92416 272.133967 
L 338.574119 273.42041 
L 338.899098 273.490797 
L 339.224078 273.252635 
L 339.549057 272.865422 
L 340.199016 272.888003 
L 340.848975 273.492168 
L 341.823914 272.81006 
L 342.148894 272.226797 
L 342.473873 272.010536 
L 342.798853 272.178474 
L 343.123832 272.669553 
L 343.448812 272.720515 
L 344.098771 271.850471 
L 344.42375 271.684264 
L 344.74873 271.816118 
L 345.073709 272.18498 
L 345.398689 272.323638 
L 345.723668 272.157157 
L 346.373627 272.043965 
L 347.023586 271.243662 
L 347.348566 271.114709 
L 347.998525 272.26064 
L 348.323505 272.321449 
L 348.648484 271.888249 
L 348.973464 271.709141 
L 349.298443 272.249098 
L 349.948402 273.512408 
L 350.273382 273.75546 
L 350.598361 273.582238 
L 351.24832 272.669971 
L 352.223259 272.446471 
L 352.548238 272.129059 
L 352.873218 272.097034 
L 353.198197 272.184861 
L 353.523177 271.850784 
L 354.173136 270.558639 
L 354.498116 270.808749 
L 355.148075 271.865174 
L 355.798034 271.571246 
L 356.123013 271.698251 
L 356.772972 272.730486 
L 357.097952 273.191054 
L 357.422931 273.427391 
L 358.07289 272.95517 
L 358.722849 273.288768 
L 359.047829 272.993816 
L 359.372808 272.534892 
L 360.022767 272.448313 
L 360.347747 272.125434 
L 361.647665 271.94017 
L 362.297624 272.349661 
L 362.947583 271.628057 
L 363.272563 271.743267 
L 363.922522 272.903945 
L 364.247501 273.190146 
L 364.572481 273.049026 
L 364.89746 273.258397 
L 365.22244 273.094184 
L 365.547419 272.731916 
L 365.872399 272.714271 
L 366.522358 273.206504 
L 366.847337 272.924147 
L 367.172317 272.368862 
L 367.497297 272.15141 
L 367.822276 272.171034 
L 368.147256 272.448532 
L 368.472235 272.968225 
L 368.797215 273.124942 
L 369.447174 272.754506 
L 369.772153 272.879628 
L 370.097133 272.850195 
L 370.747092 273.327622 
L 371.072071 273.317914 
L 371.397051 273.179052 
L 372.04701 273.163667 
L 372.371989 272.95075 
L 372.696969 272.996341 
L 373.346928 273.414932 
L 373.671908 273.269348 
L 374.321867 272.50499 
L 374.646846 272.692432 
L 375.296805 273.476819 
L 376.271744 275.276342 
L 376.596723 275.565093 
L 377.896641 275.095165 
L 378.87158 273.573255 
L 379.196559 273.545974 
L 379.846518 274.492954 
L 380.171498 274.638095 
L 380.496478 274.388536 
L 380.821457 273.906694 
L 381.146437 274.088928 
L 381.471416 274.931586 
L 381.796396 275.454843 
L 382.121375 275.16759 
L 382.446355 274.674772 
L 382.771334 274.658117 
L 383.096314 275.108578 
L 383.421293 275.789998 
L 383.746273 275.845676 
L 384.721211 273.474978 
L 385.69615 274.892213 
L 386.021129 274.843734 
L 386.671089 273.925934 
L 386.996068 274.016366 
L 387.646027 274.466351 
L 388.295986 273.858789 
L 388.945945 274.635545 
L 389.270925 274.351157 
L 389.595904 273.818699 
L 389.920884 273.809417 
L 391.220802 274.651388 
L 391.870761 274.571893 
L 392.52072 273.245785 
L 392.845699 273.531351 
L 393.495659 274.772029 
L 393.820638 274.62356 
L 394.145618 274.243944 
L 394.795577 274.286344 
L 395.445536 275.134458 
L 395.770515 275.022004 
L 396.420474 274.024429 
L 396.745454 273.610232 
L 397.070433 273.564088 
L 398.045372 275.507189 
L 398.370351 275.556172 
L 398.695331 275.339949 
L 399.34529 274.452967 
L 399.67027 274.559878 
L 400.320229 275.590593 
L 400.970188 275.012728 
L 401.295167 275.267054 
L 401.945126 276.289018 
L 402.270106 276.334125 
L 402.595085 275.785585 
L 402.595085 275.785585 
" clip-path="url(#p3cc250691a)" style="fill: none; stroke: #1f77b4; stroke-width: 1.5; stroke-linecap: square"/>
   </g>
   <g id="line2d_18">
    <path d="M 77.94054 39.459488 
L 78.265519 39.09923 
L 78.915478 38.995477 
L 79.240458 38.677213 
L 79.565437 39.657269 
L 79.890417 39.826994 
L 80.215396 40.316653 
L 80.540376 39.272343 
L 80.865355 38.95881 
L 81.515315 37.704168 
L 81.840294 37.509611 
L 82.165274 37.972555 
L 82.490253 37.956864 
L 83.140212 37.314368 
L 83.465192 37.453272 
L 83.790171 36.586091 
L 84.115151 36.542016 
L 84.44013 36.325963 
L 84.76511 36.438546 
L 85.090089 36.195455 
L 85.415069 35.643677 
L 85.740048 36.055342 
L 86.065028 36.870911 
L 86.390007 36.82925 
L 86.714987 36.097938 
L 87.039966 36.838337 
L 87.364946 38.270043 
L 87.689926 38.052327 
L 88.339885 36.051312 
L 88.664864 36.486994 
L 88.989844 36.668042 
L 89.639803 36.465489 
L 89.964782 36.826775 
L 90.289762 36.333002 
L 90.614741 36.18957 
L 90.939721 35.398554 
L 91.2647 35.492022 
L 91.58968 35.991695 
L 91.914659 36.146844 
L 92.239639 36.681324 
L 92.564618 35.610451 
L 92.889598 34.948278 
L 93.214577 34.99331 
L 93.864536 35.608851 
L 94.514496 34.640512 
L 94.839475 34.414125 
L 95.164455 34.853051 
L 95.489434 35.101734 
L 96.139393 36.711653 
L 96.464373 36.37161 
L 96.789352 37.004944 
L 97.114332 36.782051 
L 97.439311 37.417055 
L 98.41425 35.72636 
L 99.064209 36.743664 
L 99.389188 36.624918 
L 100.039147 35.065762 
L 100.364127 34.995201 
L 100.689107 36.044245 
L 101.014086 36.693388 
L 101.339066 37.613894 
L 101.664045 37.413808 
L 101.989025 36.761915 
L 102.314004 37.017599 
L 102.638984 36.503303 
L 102.963963 36.380229 
L 103.288943 37.573415 
L 103.613922 37.851166 
L 103.938902 37.820528 
L 104.263881 36.973589 
L 104.588861 37.045078 
L 104.91384 35.913631 
L 105.23882 35.591411 
L 105.888779 37.324323 
L 106.213758 37.43557 
L 106.538738 37.933157 
L 106.863717 37.656488 
L 107.188697 36.805729 
L 107.513677 36.491009 
L 107.838656 37.091727 
L 108.163636 38.384211 
L 108.488615 38.966525 
L 108.813595 39.083463 
L 109.463554 38.767306 
L 110.113513 36.444335 
L 110.438492 37.517743 
L 110.763472 37.184573 
L 111.088451 37.424567 
L 111.413431 37.171405 
L 111.73841 36.616427 
L 112.388369 37.336525 
L 112.713349 37.401115 
L 113.038328 36.719133 
L 113.363308 37.061968 
L 113.688288 36.778359 
L 114.013267 36.30347 
L 114.663226 37.449933 
L 114.988206 36.908645 
L 115.313185 37.410817 
L 115.638165 37.568779 
L 115.963144 37.546456 
L 116.288124 37.185631 
L 116.613103 36.515581 
L 116.938083 36.584949 
L 117.588042 36.12203 
L 117.913021 36.463091 
L 118.238001 37.236644 
L 118.56298 37.452663 
L 118.88796 36.464752 
L 119.212939 36.504669 
L 119.537919 36.690523 
L 119.862898 36.469753 
L 120.512858 38.847096 
L 120.837837 38.747256 
L 121.162817 38.851644 
L 121.812776 38.028174 
L 122.137755 37.749629 
L 122.462735 37.025092 
L 123.112694 37.439499 
L 123.437673 37.979632 
L 123.762653 38.174057 
L 124.087632 37.599297 
L 124.412612 37.474587 
L 124.737591 38.25027 
L 125.062571 38.551039 
L 125.71253 38.836335 
L 126.037509 39.06471 
L 126.362489 38.211072 
L 126.687469 38.449176 
L 127.012448 37.636737 
L 127.337428 37.523647 
L 127.662407 38.359378 
L 129.287305 40.802848 
L 130.912202 39.591313 
L 131.237182 39.682717 
L 131.562161 39.253342 
L 131.887141 39.118316 
L 132.5371 39.705192 
L 133.187059 40.961769 
L 133.837018 40.988087 
L 134.161998 41.586579 
L 134.486977 41.575265 
L 134.811957 40.491875 
L 135.136936 39.847165 
L 135.461916 39.954938 
L 135.786895 40.317161 
L 136.111875 40.23909 
L 136.436854 40.461581 
L 136.761834 41.104282 
L 137.086813 41.1116 
L 137.411793 41.254632 
L 137.736772 41.071421 
L 138.061752 40.084104 
L 138.386731 39.936347 
L 138.711711 39.969979 
L 139.03669 39.709748 
L 139.36167 39.966777 
L 139.68665 40.692287 
L 140.011629 41.114359 
L 140.336609 42.222671 
L 140.661588 40.860678 
L 140.986568 40.756828 
L 141.636527 39.888763 
L 141.961506 39.850225 
L 142.286486 39.4942 
L 142.611465 39.676683 
L 142.936445 40.550605 
L 143.261424 40.710225 
L 143.586404 39.606697 
L 143.911383 39.094576 
L 144.236363 39.355821 
L 144.561342 39.159655 
L 145.536281 39.384967 
L 145.86126 38.710393 
L 146.18624 38.581827 
L 146.51122 37.967396 
L 146.836199 38.877695 
L 147.161179 39.307204 
L 147.486158 39.016022 
L 147.811138 38.897873 
L 148.136117 38.945565 
L 148.786076 38.067251 
L 149.111056 38.85356 
L 149.436035 38.103474 
L 149.761015 37.920807 
L 150.085994 37.574833 
L 150.410974 37.978127 
L 150.735953 38.595052 
L 151.060933 38.77523 
L 151.710892 39.967775 
L 152.035871 40.154089 
L 152.360851 39.996483 
L 153.01081 38.493387 
L 153.33579 38.585566 
L 153.660769 38.914525 
L 153.985749 38.181585 
L 154.310728 38.681641 
L 154.635708 38.862546 
L 154.960687 38.515536 
L 155.285667 38.409644 
L 155.610646 39.183893 
L 155.935626 39.659541 
L 156.260605 39.1271 
L 156.910564 37.606548 
L 157.235544 37.05856 
L 157.885503 39.523456 
L 158.210482 40.140474 
L 158.535462 39.523634 
L 158.860441 39.338716 
L 159.185421 38.496963 
L 159.510401 38.283058 
L 159.83538 38.212934 
L 160.485339 38.834223 
L 160.810319 38.569588 
L 161.135298 39.426746 
L 161.460278 38.676989 
L 161.785257 38.637732 
L 162.435216 39.920938 
L 162.760196 39.967008 
L 163.085175 39.417099 
L 163.410155 39.323048 
L 163.735134 39.007398 
L 164.060114 38.536827 
L 164.710073 38.920552 
L 165.035052 38.906143 
L 165.360032 39.532727 
L 165.685012 39.496761 
L 166.009991 39.092804 
L 166.65995 39.634279 
L 166.98493 39.949931 
L 167.309909 39.775857 
L 167.634889 39.180437 
L 167.959868 38.925178 
L 168.284848 38.837546 
L 168.609827 40.084361 
L 168.934807 40.434923 
L 169.259786 40.113313 
L 169.584766 38.477792 
L 170.559704 38.831346 
L 170.884684 38.452365 
L 171.534643 39.236145 
L 171.859622 39.137095 
L 172.184602 38.884094 
L 172.509582 38.82119 
L 172.834561 39.072759 
L 173.159541 39.152318 
L 173.48452 38.587401 
L 173.8095 38.59104 
L 174.134479 39.129525 
L 174.459459 39.049242 
L 175.109418 39.785784 
L 175.434397 39.707379 
L 175.759377 38.861451 
L 176.084356 38.342519 
L 176.409336 38.270779 
L 176.734315 39.579431 
L 177.384274 40.409256 
L 177.709254 39.555569 
L 178.034233 39.127654 
L 178.684193 39.693754 
L 179.009172 39.040962 
L 179.659131 38.958846 
L 179.984111 38.994038 
L 180.30909 39.353074 
L 180.63407 39.171683 
L 180.959049 38.687703 
L 181.609008 38.614974 
L 181.933988 38.95305 
L 182.258967 38.905439 
L 182.583947 40.185249 
L 182.908926 40.926486 
L 183.233906 41.172435 
L 183.558885 40.848404 
L 184.533824 38.365329 
L 185.183783 39.693708 
L 185.508763 39.147206 
L 185.833742 39.390982 
L 186.158722 39.359322 
L 186.808681 40.077856 
L 187.13366 40.196756 
L 187.45864 40.846481 
L 187.783619 40.161676 
L 188.108599 39.08922 
L 188.433578 38.545257 
L 189.083537 39.382619 
L 189.408517 39.000647 
L 189.733496 39.556314 
L 190.058476 39.879152 
L 190.383455 39.682583 
L 191.033414 40.137399 
L 191.358394 39.308681 
L 192.008353 40.461006 
L 192.333333 40.685111 
L 192.658312 39.218557 
L 192.983292 38.662856 
L 193.308271 39.463564 
L 194.28321 40.229504 
L 194.608189 40.652868 
L 194.933169 40.412875 
L 195.258148 39.722502 
L 195.908107 39.586908 
L 196.233087 40.451339 
L 196.558066 40.854566 
L 196.883046 40.819497 
L 197.208025 40.606133 
L 197.533005 39.450522 
L 197.857984 39.212565 
L 198.182964 39.862275 
L 198.507944 40.251521 
L 198.832923 40.254932 
L 199.157903 40.607667 
L 199.482882 40.377265 
L 199.807862 39.919342 
L 200.132841 40.135345 
L 200.457821 39.749933 
L 200.7828 39.704166 
L 201.10778 39.118102 
L 201.432759 37.872646 
L 201.757739 37.897459 
L 202.082718 38.265068 
L 202.407698 39.300783 
L 203.057657 39.390764 
L 203.382636 39.136064 
L 204.357575 38.845868 
L 204.682555 39.322187 
L 205.332514 40.991788 
L 205.657493 41.005696 
L 206.307452 41.414339 
L 206.632432 41.45529 
L 206.957411 40.615862 
L 207.282391 40.953153 
L 207.60737 40.983406 
L 207.93235 40.504461 
L 208.257329 40.463527 
L 208.582309 39.95935 
L 208.907288 39.703918 
L 209.232268 39.966153 
L 209.557247 40.513924 
L 209.882227 40.058162 
L 210.207206 40.12312 
L 210.857165 39.332237 
L 211.182145 40.175565 
L 211.507125 40.193303 
L 212.482063 38.95815 
L 212.807043 39.514131 
L 213.781981 39.863044 
L 214.106961 40.333426 
L 214.43194 40.559848 
L 215.081899 39.398013 
L 215.406879 39.325011 
L 215.731858 38.886924 
L 216.056838 39.497563 
L 216.381817 39.870992 
L 216.706797 40.650482 
L 217.356756 40.336427 
L 217.681736 39.693822 
L 218.006715 38.342347 
L 218.331695 38.336188 
L 218.981654 38.98148 
L 219.306633 38.677783 
L 219.631613 38.76415 
L 219.956592 39.639636 
L 220.606551 39.089554 
L 221.25651 38.113239 
L 221.58149 38.568635 
L 221.906469 38.485917 
L 222.231449 38.043393 
L 222.881408 37.866299 
L 223.206387 38.2593 
L 223.531367 39.377564 
L 224.506306 38.208483 
L 225.156265 39.082787 
L 225.481244 38.393672 
L 225.806224 38.251061 
L 226.131203 38.638641 
L 226.456183 39.467657 
L 227.106142 39.446506 
L 227.756101 40.413857 
L 228.08108 40.057684 
L 228.731039 40.819201 
L 229.056019 41.069132 
L 229.380998 40.831524 
L 230.030957 39.607234 
L 230.355937 39.442711 
L 230.680917 39.012022 
L 231.005896 38.790395 
L 231.330876 38.29922 
L 231.655855 38.506189 
L 231.980835 38.966526 
L 232.305814 40.021739 
L 232.630794 40.49192 
L 232.955773 40.048696 
L 233.280753 39.417144 
L 233.930712 40.07529 
L 234.580671 39.281615 
L 234.90565 39.346861 
L 235.555609 38.283191 
L 235.880589 38.242826 
L 236.530548 39.683223 
L 236.855527 39.611737 
L 238.155446 38.206104 
L 238.805405 39.555281 
L 239.130384 40.856812 
L 239.780343 39.540867 
L 240.430302 38.958033 
L 240.755282 38.792172 
L 241.405241 41.078565 
L 241.73022 40.525158 
L 242.0552 39.669183 
L 242.380179 39.704025 
L 242.705159 40.054826 
L 243.355118 39.650297 
L 243.680098 39.655155 
L 244.005077 39.08562 
L 244.330057 38.770123 
L 244.655036 39.70301 
L 244.980016 39.09728 
L 245.304995 39.182722 
L 245.954954 38.805135 
L 246.279934 38.670792 
L 246.604913 39.758939 
L 246.929893 39.878878 
L 247.254872 39.509586 
L 247.579852 39.521803 
L 247.904831 39.129979 
L 248.229811 39.729815 
L 248.55479 39.313743 
L 248.87977 38.506848 
L 249.204749 38.679607 
L 249.529729 38.088796 
L 249.854708 38.701253 
L 250.179688 39.923288 
L 250.829647 39.825861 
L 251.154627 38.868768 
L 252.129565 37.840854 
L 252.779524 39.351082 
L 253.104504 39.63707 
L 253.429483 39.170863 
L 253.754463 39.668271 
L 254.404422 39.586763 
L 254.729401 39.495398 
L 255.054381 40.340161 
L 255.70434 41.323487 
L 256.029319 41.281386 
L 256.354299 40.811541 
L 256.679279 40.012099 
L 257.004258 40.00853 
L 257.329238 40.178094 
L 257.654217 39.963176 
L 257.979197 39.939695 
L 258.304176 39.803711 
L 258.629156 40.178466 
L 258.954135 40.091517 
L 259.279115 40.791239 
L 259.604094 40.00327 
L 259.929074 38.811845 
L 260.254053 39.068203 
L 260.579033 40.050029 
L 260.904012 40.256382 
L 261.228992 40.689219 
L 261.553971 40.790633 
L 261.878951 40.342675 
L 262.20393 40.313306 
L 262.52891 40.059583 
L 262.853889 40.238852 
L 263.178869 40.727525 
L 263.503849 40.680929 
L 263.828828 41.018561 
L 264.153808 40.708223 
L 264.478787 40.209663 
L 264.803767 39.480248 
L 265.128746 40.472445 
L 265.453726 40.983239 
L 265.778705 41.283957 
L 266.103685 40.720123 
L 266.428664 39.899026 
L 266.753644 39.437911 
L 267.078623 40.245313 
L 267.403603 41.374072 
L 268.053562 41.613509 
L 268.378541 41.010809 
L 268.703521 40.968348 
L 269.0285 40.113163 
L 269.35348 39.749439 
L 270.003439 40.512185 
L 270.328419 41.177301 
L 270.653398 40.983496 
L 270.978378 40.558542 
L 271.303357 40.597957 
L 271.628337 40.384944 
L 271.953316 39.964449 
L 272.603275 41.280906 
L 272.928255 41.145185 
L 273.253234 40.134069 
L 273.903193 39.388026 
L 274.228173 39.242759 
L 274.878132 39.821072 
L 275.203111 39.735492 
L 275.528091 39.000421 
L 276.17805 38.656709 
L 276.50303 39.177 
L 276.828009 38.80364 
L 277.152989 39.359123 
L 277.477968 38.837708 
L 277.802948 38.85947 
L 278.127927 39.293604 
L 278.452907 39.338096 
L 278.777886 39.503022 
L 279.102866 40.002161 
L 279.427845 39.88063 
L 279.752825 38.513141 
L 280.077804 38.801828 
L 280.402784 40.104131 
L 280.727763 40.630921 
L 281.052743 40.112548 
L 281.377722 40.029009 
L 281.702702 41.433179 
L 282.027681 41.446678 
L 282.352661 40.483352 
L 282.677641 38.49842 
L 283.00262 38.553642 
L 283.3276 38.147947 
L 283.652579 38.165101 
L 283.977559 37.946461 
L 284.302538 39.069319 
L 284.627518 39.481418 
L 284.952497 39.238871 
L 285.602456 38.386409 
L 286.252415 39.437909 
L 286.577395 38.784873 
L 286.902374 39.172313 
L 287.227354 39.337035 
L 287.552333 40.053908 
L 288.202292 40.6769 
L 288.852251 40.49022 
L 289.177231 38.7967 
L 289.502211 37.990803 
L 289.82719 37.785128 
L 290.477149 38.813509 
L 290.802129 38.920025 
L 291.452088 38.626718 
L 291.777067 38.431853 
L 292.427026 40.831636 
L 292.752006 40.913394 
L 293.726944 38.914932 
L 294.376903 38.189321 
L 294.701883 38.42998 
L 295.026862 38.940854 
L 295.351842 38.859309 
L 296.001801 39.781167 
L 296.65176 39.378712 
L 296.97674 40.017553 
L 297.301719 39.919438 
L 297.626699 39.625351 
L 297.951678 38.474283 
L 298.276658 38.989564 
L 299.251596 41.234148 
L 299.576576 40.513968 
L 299.901555 40.246854 
L 300.551514 39.021217 
L 300.876494 38.963925 
L 301.201473 39.246834 
L 301.526453 39.93181 
L 301.851432 39.608122 
L 302.176412 39.581538 
L 302.501392 38.871827 
L 302.826371 39.561337 
L 303.151351 39.631609 
L 303.47633 39.454516 
L 304.126289 39.387404 
L 304.451269 40.137638 
L 304.776248 40.012958 
L 305.101228 40.161703 
L 305.426207 40.169598 
L 305.751187 39.507783 
L 306.076166 39.170491 
L 306.401146 39.617422 
L 306.726125 39.374089 
L 307.051105 39.896743 
L 307.376084 39.208686 
L 307.701064 38.199788 
L 308.026043 37.912385 
L 308.351023 38.249231 
L 309.000982 40.395616 
L 309.325962 40.835319 
L 309.650941 41.080895 
L 309.975921 40.780371 
L 310.62588 39.05703 
L 310.950859 38.978535 
L 311.600818 39.870243 
L 311.925798 39.720201 
L 312.250777 39.287606 
L 312.575757 38.650736 
L 312.900736 38.517029 
L 313.550695 40.888727 
L 313.875675 40.738744 
L 314.200654 40.110053 
L 314.525634 38.566617 
L 314.850613 37.793141 
L 315.175593 37.495599 
L 315.500573 37.46896 
L 315.825552 38.544736 
L 316.150532 38.138071 
L 316.475511 39.227721 
L 317.12547 39.287311 
L 317.45045 39.618752 
L 317.775429 38.935429 
L 318.425388 38.402507 
L 318.750368 38.569865 
L 319.075347 39.619383 
L 319.400327 39.784062 
L 319.725306 39.269748 
L 320.050286 39.368983 
L 320.375265 39.173803 
L 320.700245 39.858901 
L 321.025224 39.704821 
L 321.350204 39.85557 
L 321.675184 39.842691 
L 322.000163 40.193139 
L 322.650122 39.696152 
L 322.975102 40.130831 
L 323.300081 39.733571 
L 323.625061 40.024015 
L 323.95004 40.090809 
L 324.27502 40.448211 
L 324.599999 40.411143 
L 324.924979 39.952943 
L 325.249958 39.949906 
L 325.574938 39.577747 
L 325.899917 40.220475 
L 326.224897 39.829607 
L 326.549876 39.765366 
L 326.874856 39.531592 
L 327.199835 40.11124 
L 327.524815 39.640757 
L 327.849794 38.771932 
L 328.174774 38.583414 
L 328.499754 38.961523 
L 328.824733 38.393184 
L 329.149713 38.566142 
L 329.474692 39.237018 
L 329.799672 39.45742 
L 330.449631 38.675291 
L 330.77461 38.615365 
L 331.09959 38.897287 
L 331.424569 38.915945 
L 331.749549 39.193984 
L 332.074528 39.168027 
L 332.399508 38.992093 
L 332.724487 39.984866 
L 333.374446 38.283407 
L 333.699426 39.192234 
L 334.024405 39.127534 
L 334.674365 39.375008 
L 334.999344 39.869062 
L 335.324324 39.450991 
L 335.974283 39.379573 
L 336.299262 39.715339 
L 336.624242 38.784873 
L 336.949221 38.651238 
L 337.59918 39.697833 
L 337.92416 39.776158 
L 338.899098 38.59037 
L 339.224078 38.380444 
L 339.549057 38.730058 
L 339.874037 38.382739 
L 340.848975 38.558881 
L 341.173955 38.356704 
L 341.498935 37.992981 
L 341.823914 38.299938 
L 342.148894 38.923598 
L 342.473873 39.199539 
L 342.798853 39.021021 
L 343.123832 38.087484 
L 343.448812 38.120582 
L 343.773791 38.592805 
L 344.098771 39.705103 
L 344.42375 39.981587 
L 345.073709 38.413442 
L 345.723668 38.439116 
L 346.373627 38.68434 
L 346.698607 39.381933 
L 347.023586 39.078401 
L 347.348566 39.669666 
L 347.673546 38.797932 
L 347.998525 38.538657 
L 348.323505 38.716565 
L 348.973464 39.891196 
L 349.298443 39.127706 
L 349.623423 38.963752 
L 349.948402 38.355585 
L 350.273382 37.510637 
L 350.598361 37.631857 
L 350.923341 38.413679 
L 351.24832 38.598267 
L 351.5733 39.387617 
L 351.898279 39.504266 
L 352.223259 39.110858 
L 352.548238 39.8468 
L 352.873218 39.558604 
L 353.198197 38.897841 
L 353.523177 39.272125 
L 354.173136 40.543935 
L 354.498116 39.675403 
L 354.823095 38.348549 
L 355.148075 37.952773 
L 355.473054 38.537861 
L 355.798034 38.755763 
L 356.123013 38.683368 
L 356.447993 37.881614 
L 357.097952 37.27949 
L 357.422931 37.633294 
L 357.747911 38.268238 
L 358.07289 38.313486 
L 358.39787 39.034153 
L 358.722849 38.261276 
L 359.047829 37.864847 
L 359.372808 38.613809 
L 359.697788 38.685336 
L 360.022767 39.102737 
L 360.347747 38.882719 
L 360.672727 39.286199 
L 360.997706 38.92324 
L 361.322686 39.015523 
L 361.647665 39.853822 
L 361.972645 39.328818 
L 362.297624 39.087743 
L 362.622604 39.217742 
L 362.947583 40.142545 
L 363.272563 39.780175 
L 363.597542 39.108807 
L 363.922522 38.9909 
L 364.247501 38.442466 
L 364.572481 38.631032 
L 364.89746 38.203355 
L 365.22244 39.124903 
L 365.547419 39.628938 
L 365.872399 39.733443 
L 366.197378 39.644665 
L 366.522358 39.357762 
L 367.172317 39.336902 
L 367.497297 39.32863 
L 367.822276 40.116702 
L 368.472235 39.026081 
L 368.797215 39.487912 
L 369.122194 39.741127 
L 369.447174 38.872875 
L 369.772153 39.12251 
L 370.097133 39.519527 
L 370.422112 39.256666 
L 371.072071 39.399705 
L 371.72203 38.940077 
L 372.04701 39.96231 
L 372.371989 40.324246 
L 372.696969 40.12623 
L 373.021948 39.759473 
L 373.346928 39.151627 
L 373.671908 39.370447 
L 373.996887 39.444302 
L 374.646846 40.119471 
L 374.971826 39.895959 
L 375.296805 40.208063 
L 376.271744 38.687163 
L 376.921703 39.136222 
L 377.246682 39.237047 
L 377.571662 39.19963 
L 377.896641 38.972795 
L 378.5466 39.85862 
L 379.196559 41.08276 
L 379.521539 40.535319 
L 379.846518 40.284648 
L 380.496478 40.226945 
L 380.821457 40.482043 
L 381.146437 40.568186 
L 381.471416 39.632065 
L 381.796396 39.388726 
L 382.446355 41.099215 
L 383.096314 39.89002 
L 383.421293 39.577024 
L 383.746273 39.079946 
L 384.071252 39.424967 
L 384.396232 40.275975 
L 384.721211 40.809307 
L 385.69615 39.343801 
L 386.021129 39.77047 
L 386.346109 39.680839 
L 386.671089 40.22892 
L 386.996068 40.178406 
L 387.321048 39.489893 
L 387.646027 39.399 
L 388.295986 40.087106 
L 388.620966 39.73511 
L 388.945945 39.20048 
L 389.595904 39.301624 
L 389.920884 39.522082 
L 390.245863 39.11116 
L 390.570843 39.104915 
L 391.545781 38.004126 
L 391.870761 37.979459 
L 392.19574 38.718872 
L 392.52072 39.031283 
L 392.845699 38.815 
L 393.170679 38.092125 
L 393.820638 37.744059 
L 394.145618 38.941195 
L 394.470597 39.107081 
L 394.795577 39.518501 
L 395.120556 39.094273 
L 395.445536 38.948987 
L 396.095495 39.830069 
L 396.420474 39.980379 
L 396.745454 40.641146 
L 397.070433 40.79281 
L 397.395413 40.149366 
L 397.720392 38.916771 
L 398.045372 39.190499 
L 398.370351 39.007616 
L 399.02031 40.342662 
L 399.34529 41.496173 
L 399.67027 41.053946 
L 399.995249 39.866245 
L 400.320229 39.114832 
L 400.645208 40.070635 
L 400.970188 40.577639 
L 401.620147 39.953265 
L 401.945126 39.309961 
L 402.270106 39.484274 
L 402.595085 40.295261 
L 402.595085 40.295261 
" clip-path="url(#p3cc250691a)" style="fill: none; stroke: #ff7f0e; stroke-width: 1.5; stroke-linecap: square"/>
   </g>
   <g id="line2d_19">
    <path d="M 77.94054 209.641107 
L 78.265519 209.487302 
L 78.915478 210.031493 
L 79.240458 209.751728 
L 79.565437 210.335923 
L 79.890417 209.682024 
L 80.215396 209.289538 
L 80.540376 207.872471 
L 80.865355 207.827225 
L 81.190335 207.927863 
L 81.515315 207.885691 
L 81.840294 208.247575 
L 82.165274 209.240778 
L 82.490253 209.763893 
L 82.815233 209.835889 
L 83.140212 209.770017 
L 83.465192 210.323058 
L 83.790171 210.059432 
L 84.44013 210.984879 
L 84.76511 211.923092 
L 85.090089 212.512239 
L 85.415069 212.546496 
L 85.740048 213.209173 
L 86.065028 214.287314 
L 86.390007 214.681012 
L 86.714987 214.182677 
L 87.039966 214.790166 
L 87.364946 216.031619 
L 87.689926 216.02353 
L 88.339885 215.675908 
L 88.664864 216.816184 
L 89.314823 218.04212 
L 89.639803 218.390069 
L 89.964782 219.32311 
L 90.289762 219.812132 
L 90.614741 220.679507 
L 90.939721 220.532826 
L 91.2647 220.649963 
L 91.914659 221.136167 
L 92.239639 222.270164 
L 92.564618 222.025807 
L 92.889598 222.171244 
L 93.214577 222.574801 
L 93.539557 223.291542 
L 93.864536 224.493014 
L 94.514496 224.992813 
L 94.839475 225.09629 
L 95.164455 225.828521 
L 95.489434 226.255427 
L 96.139393 227.71334 
L 96.464373 227.443653 
L 96.789352 227.852332 
L 97.114332 227.623725 
L 97.439311 228.784234 
L 98.08927 229.475503 
L 98.41425 229.541999 
L 98.739229 230.248372 
L 99.389188 230.57238 
L 99.714168 230.72966 
L 100.039147 231.136779 
L 100.364127 231.856408 
L 100.689107 233.152441 
L 101.014086 233.490009 
L 101.339066 234.166018 
L 101.989025 234.344807 
L 102.314004 235.163949 
L 102.963963 235.264982 
L 103.288943 236.357333 
L 103.938902 237.053998 
L 104.263881 236.877929 
L 104.588861 237.821291 
L 104.91384 237.506076 
L 105.23882 237.678249 
L 105.563799 238.501569 
L 105.888779 238.992919 
L 106.213758 238.931817 
L 106.863717 240.03113 
L 107.513677 240.954983 
L 108.163636 242.665557 
L 108.488615 242.729985 
L 109.138574 242.346081 
L 109.463554 242.57823 
L 110.113513 241.938008 
L 110.438492 242.899502 
L 110.763472 242.404462 
L 111.088451 242.892012 
L 111.413431 243.144949 
L 111.73841 243.040101 
L 112.06339 243.4696 
L 112.388369 243.234301 
L 112.713349 243.27961 
L 113.038328 243.136258 
L 113.363308 243.769261 
L 113.688288 243.904565 
L 114.013267 243.624795 
L 114.663226 245.404453 
L 114.988206 245.171231 
L 115.313185 245.88938 
L 116.288124 245.983757 
L 116.613103 246.102392 
L 116.938083 246.67991 
L 117.588042 246.652694 
L 118.56298 248.116506 
L 118.88796 247.536176 
L 119.537919 248.712814 
L 119.862898 248.62953 
L 120.512858 250.417107 
L 121.487796 249.806091 
L 122.137755 250.782207 
L 122.462735 250.481126 
L 123.112694 250.958882 
L 123.437673 252.008964 
L 123.762653 252.601781 
L 124.087632 252.349482 
L 124.412612 252.5251 
L 124.737591 253.006324 
L 125.38755 252.537967 
L 126.037509 252.884352 
L 126.362489 252.535125 
L 126.687469 253.36394 
L 127.012448 253.171203 
L 127.337428 253.299595 
L 128.637346 254.710644 
L 129.287305 255.735901 
L 129.612284 255.844903 
L 130.262243 255.716972 
L 130.587223 255.60244 
L 130.912202 255.632105 
L 131.237182 255.790365 
L 131.562161 255.530743 
L 131.887141 255.943896 
L 132.21212 256.805665 
L 133.187059 257.906143 
L 133.512039 257.766884 
L 133.837018 257.440017 
L 134.486977 258.234347 
L 135.136936 257.668044 
L 136.111875 256.97134 
L 136.436854 257.032152 
L 136.761834 257.402953 
L 137.086813 257.133457 
L 137.736772 257.173827 
L 138.061752 256.628862 
L 139.68665 257.573234 
L 140.011629 257.482515 
L 140.336609 258.445551 
L 140.661588 257.66564 
L 140.986568 257.974691 
L 141.311547 257.771698 
L 141.636527 257.337389 
L 141.961506 257.309999 
L 142.611465 256.42992 
L 142.936445 256.742462 
L 143.261424 256.799121 
L 143.586404 256.068371 
L 143.911383 255.814873 
L 144.236363 255.983506 
L 144.886322 255.195081 
L 145.211301 254.813675 
L 145.536281 254.97881 
L 145.86126 254.864159 
L 146.18624 255.219332 
L 146.51122 254.780891 
L 146.836199 255.514665 
L 147.161179 255.76588 
L 147.486158 255.208402 
L 147.811138 254.889553 
L 148.136117 254.819617 
L 148.786076 254.338774 
L 149.111056 255.171917 
L 149.436035 254.711469 
L 149.761015 254.831582 
L 150.085994 254.645981 
L 150.735953 255.121818 
L 151.385912 254.251963 
L 152.035871 254.170794 
L 152.685831 254.30746 
L 153.01081 253.799898 
L 153.33579 253.909034 
L 153.660769 254.226317 
L 153.985749 253.498687 
L 154.310728 253.873981 
L 154.635708 253.971282 
L 154.960687 253.801245 
L 155.285667 253.853953 
L 155.935626 254.471362 
L 156.585585 254.658424 
L 156.910564 254.914191 
L 157.235544 254.384507 
L 157.885503 255.390569 
L 158.210482 255.64974 
L 158.535462 255.239596 
L 158.860441 255.467218 
L 159.185421 254.922478 
L 159.83538 254.637355 
L 160.485339 255.531119 
L 160.810319 255.167629 
L 161.135298 255.733865 
L 161.460278 254.956984 
L 161.785257 254.965149 
L 162.110237 255.275041 
L 162.760196 255.3507 
L 163.085175 255.12738 
L 163.410155 255.269905 
L 164.060114 254.659005 
L 164.710073 255.817044 
L 165.035052 255.852291 
L 165.360032 256.726112 
L 165.685012 257.040279 
L 166.334971 256.856286 
L 166.98493 256.854138 
L 167.309909 256.506524 
L 167.634889 255.807188 
L 168.284848 255.314363 
L 168.609827 256.199444 
L 169.259786 256.211803 
L 169.584766 255.011735 
L 169.909745 255.124443 
L 170.234725 254.81632 
L 170.559704 254.811732 
L 170.884684 254.321196 
L 171.534643 254.767606 
L 172.184602 254.844996 
L 173.159541 254.229062 
L 173.48452 254.079412 
L 173.8095 254.215343 
L 174.134479 254.532188 
L 174.459459 254.537534 
L 175.109418 255.486584 
L 175.434397 255.563484 
L 175.759377 255.15599 
L 176.409336 254.907317 
L 176.734315 255.340795 
L 177.059295 255.201994 
L 177.384274 255.670984 
L 177.709254 255.291586 
L 178.034233 255.230894 
L 178.684193 256.044405 
L 179.009172 255.722405 
L 179.659131 255.897318 
L 179.984111 255.80476 
L 180.959049 256.087306 
L 181.284029 256.312474 
L 181.609008 256.127556 
L 181.933988 256.417769 
L 182.258967 256.244541 
L 182.583947 257.004087 
L 182.908926 256.999154 
L 184.208844 256.360513 
L 184.533824 255.594117 
L 184.858803 255.705348 
L 185.183783 255.956172 
L 185.508763 255.555534 
L 185.833742 255.898509 
L 186.158722 255.668572 
L 186.808681 256.258973 
L 187.13366 256.145324 
L 187.45864 256.554444 
L 187.783619 256.056247 
L 188.108599 255.865628 
L 188.758558 255.903161 
L 189.083537 255.985887 
L 189.408517 255.733425 
L 189.733496 256.384684 
L 190.058476 256.589875 
L 190.383455 256.30171 
L 190.708435 256.566478 
L 191.033414 257.374864 
L 191.358394 257.122143 
L 191.683374 257.61599 
L 192.333333 257.975558 
L 192.658312 257.053327 
L 192.983292 257.094362 
L 193.308271 258.111043 
L 193.95823 258.160361 
L 194.28321 258.133952 
L 194.608189 258.464291 
L 194.933169 258.619391 
L 195.258148 258.602833 
L 195.583128 259.121411 
L 195.908107 258.952387 
L 196.233087 259.344051 
L 196.558066 259.317476 
L 197.208025 258.994568 
L 197.533005 258.062024 
L 197.857984 257.813526 
L 198.182964 257.994817 
L 198.832923 257.677374 
L 199.157903 257.737219 
L 199.807862 257.283294 
L 200.132841 257.402912 
L 200.457821 256.861665 
L 200.7828 256.789127 
L 201.10778 256.374043 
L 201.432759 255.634594 
L 201.757739 255.794106 
L 202.082718 255.692557 
L 202.407698 256.031198 
L 202.732677 255.828672 
L 203.057657 256.39569 
L 204.032595 257.098643 
L 204.357575 256.895564 
L 204.682555 256.989847 
L 205.007534 257.459577 
L 205.332514 257.520348 
L 205.657493 257.123261 
L 206.307452 257.345525 
L 206.632432 257.439629 
L 206.957411 256.839428 
L 207.282391 257.36907 
L 207.60737 257.557655 
L 207.93235 257.088389 
L 208.257329 257.02777 
L 208.582309 256.680697 
L 208.907288 256.74512 
L 209.557247 257.469652 
L 209.882227 256.994478 
L 210.207206 257.049282 
L 210.857165 255.69695 
L 211.182145 256.054366 
L 211.832104 255.633371 
L 212.482063 255.622556 
L 212.807043 256.395209 
L 213.132022 256.547432 
L 213.457002 256.983314 
L 214.106961 257.23939 
L 214.43194 257.274116 
L 214.75692 256.941987 
L 215.406879 257.272332 
L 215.731858 256.75342 
L 216.056838 256.610537 
L 216.381817 256.086833 
L 216.706797 256.41727 
L 217.681736 255.354254 
L 218.006715 254.62662 
L 218.981654 255.431337 
L 219.306633 255.045445 
L 219.631613 255.044684 
L 219.956592 255.721108 
L 220.281572 255.433473 
L 220.931531 255.909422 
L 221.25651 255.434738 
L 221.58149 255.546556 
L 222.231449 255.241297 
L 222.556428 255.367763 
L 223.206387 255.336109 
L 223.531367 256.029754 
L 223.856346 255.854674 
L 224.181326 255.830191 
L 224.506306 255.675829 
L 225.156265 255.8876 
L 225.481244 255.515642 
L 226.456183 256.243516 
L 226.781162 256.195363 
L 227.106142 256.662965 
L 227.431121 257.336573 
L 227.756101 257.55484 
L 228.08108 256.912767 
L 228.40606 257.170467 
L 228.731039 257.215583 
L 229.056019 257.025617 
L 229.705978 255.845096 
L 230.030957 255.737983 
L 230.355937 256.128172 
L 230.680917 256.022642 
L 231.005896 256.060335 
L 231.330876 255.650555 
L 231.655855 255.669106 
L 231.980835 255.560755 
L 232.630794 256.769484 
L 232.955773 256.574805 
L 233.280753 255.998141 
L 233.930712 256.540032 
L 234.90565 256.419425 
L 235.23063 255.953726 
L 235.880589 255.773326 
L 236.530548 256.311963 
L 237.505487 255.817942 
L 237.830466 255.488998 
L 238.155446 254.719328 
L 238.480425 254.698201 
L 238.805405 254.563185 
L 239.130384 255.370792 
L 239.455364 255.0295 
L 240.105323 254.979321 
L 240.430302 254.861621 
L 240.755282 254.462804 
L 241.080261 254.56119 
L 241.405241 255.02624 
L 242.0552 254.746348 
L 242.380179 254.963811 
L 242.705159 255.032327 
L 243.030138 254.464354 
L 243.355118 254.17751 
L 243.680098 254.253137 
L 244.005077 253.869895 
L 244.330057 253.737066 
L 244.655036 254.493951 
L 244.980016 253.898053 
L 245.304995 254.10769 
L 245.629975 254.128972 
L 245.954954 254.271136 
L 246.279934 254.011186 
L 246.604913 254.51973 
L 246.929893 254.412175 
L 247.254872 254.134301 
L 247.579852 254.512422 
L 247.904831 254.211966 
L 248.229811 254.668291 
L 248.55479 254.447432 
L 248.87977 254.487584 
L 249.204749 255.245243 
L 249.529729 254.495466 
L 249.854708 254.574214 
L 250.179688 255.060048 
L 250.504668 254.669083 
L 250.829647 254.670918 
L 251.154627 254.48544 
L 251.479606 255.002628 
L 251.804586 255.247592 
L 252.129565 255.04434 
L 252.779524 256.410694 
L 253.104504 256.679652 
L 253.429483 256.457022 
L 253.754463 257.155 
L 254.079442 257.244406 
L 254.404422 257.173081 
L 254.729401 256.952114 
L 255.054381 257.270546 
L 255.37936 257.040063 
L 255.70434 257.238647 
L 256.679279 256.899399 
L 257.329238 257.442534 
L 257.979197 257.249595 
L 258.304176 256.896577 
L 258.629156 256.962956 
L 258.954135 256.71593 
L 259.279115 257.51679 
L 259.604094 257.129124 
L 259.929074 256.267222 
L 260.254053 256.515148 
L 260.579033 257.037418 
L 260.904012 256.744672 
L 261.553971 256.991932 
L 261.878951 256.774823 
L 262.20393 257.017326 
L 262.52891 256.935012 
L 263.178869 256.977636 
L 263.503849 256.601997 
L 263.828828 256.858469 
L 264.153808 256.779305 
L 264.478787 256.934482 
L 264.803767 256.630891 
L 265.128746 257.342983 
L 265.778705 257.59218 
L 266.753644 256.341631 
L 267.078623 256.559882 
L 267.403603 257.172308 
L 267.728582 257.350645 
L 268.053562 257.943436 
L 268.378541 257.78873 
L 268.703521 257.951629 
L 269.0285 257.574917 
L 269.35348 257.486394 
L 269.67846 257.794739 
L 270.003439 257.885936 
L 270.328419 258.302704 
L 270.653398 258.274325 
L 271.303357 258.657049 
L 271.628337 258.408997 
L 271.953316 257.893423 
L 272.603275 258.8056 
L 272.928255 258.90216 
L 273.253234 258.39145 
L 273.578214 258.455561 
L 274.228173 257.907267 
L 274.553152 257.942306 
L 274.878132 257.667666 
L 275.203111 257.656677 
L 275.85307 257.294447 
L 276.17805 256.581968 
L 276.50303 256.680431 
L 276.828009 256.366084 
L 277.152989 257.269305 
L 277.477968 257.161048 
L 277.802948 257.185103 
L 278.127927 257.569231 
L 278.777886 257.183119 
L 279.102866 257.449369 
L 279.427845 257.421095 
L 279.752825 256.425308 
L 280.077804 256.477255 
L 280.402784 257.209999 
L 280.727763 257.389182 
L 281.052743 256.861102 
L 281.377722 256.809141 
L 281.702702 257.599319 
L 282.027681 257.380697 
L 282.352661 256.936161 
L 282.677641 255.557809 
L 283.00262 255.877053 
L 283.3276 255.614833 
L 283.652579 255.76042 
L 283.977559 255.351161 
L 284.302538 255.777001 
L 284.627518 255.627094 
L 285.602456 254.171749 
L 285.927436 254.416942 
L 286.252415 255.025852 
L 286.577395 254.588392 
L 286.902374 255.030283 
L 287.227354 254.998861 
L 287.877313 255.662044 
L 288.202292 255.909172 
L 288.527272 255.923658 
L 288.852251 256.329041 
L 289.177231 255.453283 
L 290.15217 256.03166 
L 290.477149 255.950786 
L 291.127108 255.510307 
L 291.452088 255.557375 
L 291.777067 255.359441 
L 292.752006 256.221503 
L 293.076985 256.097737 
L 293.401965 255.573016 
L 293.726944 255.406863 
L 294.376903 254.807745 
L 294.701883 254.724628 
L 295.026862 255.027796 
L 296.001801 255.483162 
L 296.65176 254.997158 
L 296.97674 255.422351 
L 297.301719 255.375861 
L 297.626699 255.875803 
L 297.951678 255.859045 
L 298.276658 256.683422 
L 298.926617 257.344977 
L 299.251596 257.290403 
L 299.576576 256.902243 
L 299.901555 257.192297 
L 300.226535 257.035019 
L 300.551514 256.48787 
L 301.201473 256.019484 
L 301.526453 256.352089 
L 301.851432 256.039561 
L 302.176412 256.31753 
L 302.501392 255.958428 
L 302.826371 256.736293 
L 303.47633 256.361684 
L 304.126289 256.862715 
L 304.451269 257.768961 
L 304.776248 257.566356 
L 305.101228 257.201268 
L 305.426207 256.656212 
L 306.076166 254.69098 
L 306.401146 254.937107 
L 306.726125 255.012962 
L 307.051105 255.994751 
L 307.376084 255.903006 
L 307.701064 255.488067 
L 308.351023 255.354031 
L 309.975921 256.110116 
L 310.3009 255.931257 
L 310.62588 255.424262 
L 311.275839 255.641566 
L 311.600818 255.682369 
L 312.250777 255.467638 
L 312.900736 254.858275 
L 313.550695 255.814961 
L 314.200654 255.30221 
L 314.525634 254.559957 
L 314.850613 254.469289 
L 315.175593 254.690429 
L 315.500573 254.52752 
L 315.825552 255.159562 
L 316.150532 254.368464 
L 316.475511 255.181421 
L 316.800491 255.353239 
L 317.12547 255.680439 
L 317.45045 256.514872 
L 317.775429 256.428912 
L 318.100409 256.781392 
L 318.425388 256.768264 
L 318.750368 256.61312 
L 319.075347 257.134447 
L 319.400327 256.812551 
L 319.725306 255.949995 
L 320.050286 256.029488 
L 320.375265 255.821348 
L 320.700245 256.390414 
L 321.025224 256.504942 
L 321.350204 257.060436 
L 322.000163 257.06293 
L 322.650122 257.208029 
L 322.975102 257.857548 
L 323.300081 257.247685 
L 323.95004 256.831966 
L 324.599999 257.012894 
L 324.924979 256.31861 
L 325.249958 256.068715 
L 325.574938 255.554737 
L 325.899917 256.140631 
L 326.224897 255.788781 
L 326.549876 255.93994 
L 326.874856 255.596719 
L 327.199835 255.881938 
L 327.849794 254.869617 
L 328.174774 255.101551 
L 328.499754 255.773008 
L 328.824733 255.382688 
L 329.149713 255.471224 
L 329.474692 255.808813 
L 330.124651 256.025364 
L 330.77461 256.045379 
L 331.09959 256.236202 
L 331.424569 256.123866 
L 331.749549 256.197026 
L 332.074528 255.928313 
L 332.399508 255.290908 
L 332.724487 256.084727 
L 333.374446 255.468855 
L 333.699426 256.659389 
L 334.674365 255.983769 
L 334.999344 256.676132 
L 335.324324 256.593539 
L 335.649303 256.722746 
L 335.974283 256.308364 
L 336.299262 256.226486 
L 336.624242 255.549764 
L 337.274201 255.702073 
L 337.59918 255.348255 
L 337.92416 255.419607 
L 338.249139 255.726212 
L 338.899098 255.590649 
L 339.224078 255.142561 
L 339.549057 255.104961 
L 339.874037 254.732346 
L 340.199016 254.82171 
L 340.523996 255.029404 
L 340.848975 255.56053 
L 341.498935 254.738945 
L 341.823914 254.619479 
L 342.798853 254.708977 
L 343.123832 254.266519 
L 343.773791 254.328518 
L 344.098771 255.065056 
L 344.42375 255.175332 
L 344.74873 254.471398 
L 345.073709 254.107904 
L 345.398689 254.211168 
L 345.723668 254.105755 
L 346.373627 254.237787 
L 346.698607 254.498401 
L 347.023586 253.831545 
L 347.348566 254.293857 
L 347.673546 254.039806 
L 348.973464 255.109818 
L 349.298443 254.886286 
L 349.623423 255.4889 
L 349.948402 255.377475 
L 350.273382 254.775578 
L 350.598361 254.723576 
L 350.923341 255.084905 
L 351.24832 254.777719 
L 351.5733 255.492484 
L 351.898279 255.638484 
L 352.223259 255.066811 
L 352.548238 255.485341 
L 352.873218 255.16512 
L 353.198197 254.592184 
L 354.173136 254.612056 
L 354.823095 253.294798 
L 355.148075 253.327428 
L 355.473054 253.772729 
L 356.123013 253.8911 
L 356.447993 253.518427 
L 356.772972 253.843618 
L 357.097952 253.980025 
L 357.747911 254.966123 
L 358.07289 254.778137 
L 358.39787 255.684118 
L 359.047829 254.368145 
L 359.372808 254.658183 
L 359.697788 254.664076 
L 360.022767 255.060531 
L 360.347747 254.517635 
L 360.672727 254.859214 
L 360.997706 254.492231 
L 361.322686 254.554179 
L 361.647665 255.303473 
L 361.972645 254.970692 
L 362.297624 254.946885 
L 362.622604 254.786903 
L 362.947583 255.280083 
L 363.272563 255.032924 
L 363.597542 254.977719 
L 363.922522 255.404327 
L 364.247501 255.142094 
L 364.572481 255.18954 
L 364.89746 254.971233 
L 365.22244 255.728568 
L 366.197378 256.164748 
L 366.522358 256.073748 
L 366.847337 255.742772 
L 367.172317 255.215245 
L 367.497297 254.989521 
L 367.822276 255.797218 
L 368.147256 255.494328 
L 368.472235 255.503787 
L 368.797215 256.122336 
L 369.122194 256.172275 
L 369.447174 255.136863 
L 370.097133 255.879203 
L 370.422112 255.848674 
L 370.747092 256.146346 
L 371.072071 256.2271 
L 371.72203 255.633138 
L 372.04701 256.635459 
L 372.371989 256.784478 
L 373.021948 256.470021 
L 373.346928 256.07604 
L 373.671908 256.149276 
L 373.996887 255.827642 
L 374.321867 255.854883 
L 374.646846 256.321385 
L 374.971826 256.49604 
L 375.296805 257.194363 
L 376.271744 257.472986 
L 376.596723 258.022303 
L 376.921703 258.063826 
L 378.5466 257.375731 
L 379.196559 258.138216 
L 379.521539 258.135357 
L 380.171498 258.38916 
L 380.821457 257.898219 
L 381.146437 258.166595 
L 381.471416 258.073133 
L 381.796396 258.35305 
L 382.121375 258.939946 
L 382.446355 259.283469 
L 382.771334 258.599558 
L 383.096314 258.508079 
L 383.421293 258.876504 
L 384.396232 257.708501 
L 385.046191 257.781998 
L 385.69615 257.745496 
L 386.021129 258.123686 
L 386.346109 257.61247 
L 386.996068 257.704254 
L 387.321048 257.306972 
L 388.295986 257.455377 
L 388.945945 257.345507 
L 389.270925 257.078457 
L 389.595904 256.629804 
L 389.920884 256.84098 
L 390.245863 256.654867 
L 390.570843 256.924268 
L 390.895822 256.761933 
L 391.545781 256.147528 
L 391.870761 256.060834 
L 392.19574 256.170876 
L 392.52072 255.78655 
L 393.170679 255.88265 
L 393.495659 256.180992 
L 393.820638 255.877101 
L 394.145618 256.69462 
L 394.470597 256.827399 
L 394.795577 257.314326 
L 395.120556 257.290884 
L 395.770515 257.913846 
L 396.095495 257.813247 
L 396.420474 257.514289 
L 396.745454 257.76086 
L 397.395413 257.862428 
L 397.720392 257.489748 
L 398.045372 258.20717 
L 398.370351 258.07327 
L 399.34529 259.458622 
L 399.67027 259.123306 
L 399.995249 258.50894 
L 400.320229 258.214907 
L 400.645208 258.918221 
L 400.970188 259.099848 
L 401.295167 259.097979 
L 401.620147 259.261579 
L 401.945126 259.10846 
L 402.595085 259.590328 
L 402.595085 259.590328 
" clip-path="url(#p3cc250691a)" style="fill: none; stroke: #2ca02c; stroke-width: 1.5; stroke-linecap: square"/>
   </g>
   <g id="patch_3">
    <path d="M 61.707813 288.430125 
L 61.707813 22.318125 
" style="fill: none; stroke: #000000; stroke-width: 0.8; stroke-linejoin: miter; stroke-linecap: square"/>
   </g>
   <g id="patch_4">
    <path d="M 418.827813 288.430125 
L 418.827813 22.318125 
" style="fill: none; stroke: #000000; stroke-width: 0.8; stroke-linejoin: miter; stroke-linecap: square"/>
   </g>
   <g id="patch_5">
    <path d="M 61.707813 288.430125 
L 418.827813 288.430125 
" style="fill: none; stroke: #000000; stroke-width: 0.8; stroke-linejoin: miter; stroke-linecap: square"/>
   </g>
   <g id="patch_6">
    <path d="M 61.707813 22.318125 
L 418.827813 22.318125 
" style="fill: none; stroke: #000000; stroke-width: 0.8; stroke-linejoin: miter; stroke-linecap: square"/>
   </g>
   <g id="text_19">
    <!-- SLAB - energies vs time -->
    <g transform="translate(168.894063 16.318125) scale(0.12 -0.12)">
     <defs>
      <path id="DejaVuSans-53" d="M 3425 4513 
L 3425 3897 
Q 3066 4069 2747 4153 
Q 2428 4238 2131 4238 
Q 1616 4238 1336 4038 
Q 1056 3838 1056 3469 
Q 1056 3159 1242 3001 
Q 1428 2844 1947 2747 
L 2328 2669 
Q 3034 2534 3370 2195 
Q 3706 1856 3706 1288 
Q 3706 609 3251 259 
Q 2797 -91 1919 -91 
Q 1588 -91 1214 -16 
Q 841 59 441 206 
L 441 856 
Q 825 641 1194 531 
Q 1563 422 1919 422 
Q 2459 422 2753 634 
Q 3047 847 3047 1241 
Q 3047 1584 2836 1778 
Q 2625 1972 2144 2069 
L 1759 2144 
Q 1053 2284 737 2584 
Q 422 2884 422 3419 
Q 422 4038 858 4394 
Q 1294 4750 2059 4750 
Q 2388 4750 2728 4690 
Q 3069 4631 3425 4513 
z
" transform="scale(0.015625)"/>
      <path id="DejaVuSans-4c" d="M 628 4666 
L 1259 4666 
L 1259 531 
L 3531 531 
L 3531 0 
L 628 0 
L 628 4666 
z
" transform="scale(0.015625)"/>
      <path id="DejaVuSans-41" d="M 2188 4044 
L 1331 1722 
L 3047 1722 
L 2188 4044 
z
M 1831 4666 
L 2547 4666 
L 4325 0 
L 3669 0 
L 3244 1197 
L 1141 1197 
L 716 0 
L 50 0 
L 1831 4666 
z
" transform="scale(0.015625)"/>
      <path id="DejaVuSans-42" d="M 1259 2228 
L 1259 519 
L 2272 519 
Q 2781 519 3026 730 
Q 3272 941 3272 1375 
Q 3272 1813 3026 2020 
Q 2781 2228 2272 2228 
L 1259 2228 
z
M 1259 4147 
L 1259 2741 
L 2194 2741 
Q 2656 2741 2882 2914 
Q 3109 3088 3109 3444 
Q 3109 3797 2882 3972 
Q 2656 4147 2194 4147 
L 1259 4147 
z
M 628 4666 
L 2241 4666 
Q 2963 4666 3353 4366 
Q 3744 4066 3744 3513 
Q 3744 3084 3544 2831 
Q 3344 2578 2956 2516 
Q 3422 2416 3680 2098 
Q 3938 1781 3938 1306 
Q 3938 681 3513 340 
Q 3088 0 2303 0 
L 628 0 
L 628 4666 
z
" transform="scale(0.015625)"/>
      <path id="DejaVuSans-2d" d="M 313 2009 
L 1997 2009 
L 1997 1497 
L 313 1497 
L 313 2009 
z
" transform="scale(0.015625)"/>
      <path id="DejaVuSans-76" d="M 191 3500 
L 800 3500 
L 1894 563 
L 2988 3500 
L 3597 3500 
L 2284 0 
L 1503 0 
L 191 3500 
z
" transform="scale(0.015625)"/>
     </defs>
     <use xlink:href="#DejaVuSans-53"/>
     <use xlink:href="#DejaVuSans-4c" transform="translate(63.476562 0)"/>
     <use xlink:href="#DejaVuSans-41" transform="translate(121.439453 0)"/>
     <use xlink:href="#DejaVuSans-42" transform="translate(189.847656 0)"/>
     <use xlink:href="#DejaVuSans-20" transform="translate(258.451172 0)"/>
     <use xlink:href="#DejaVuSans-2d" transform="translate(290.238281 0)"/>
     <use xlink:href="#DejaVuSans-20" transform="translate(326.322266 0)"/>
     <use xlink:href="#DejaVuSans-65" transform="translate(358.109375 0)"/>
     <use xlink:href="#DejaVuSans-6e" transform="translate(419.632812 0)"/>
     <use xlink:href="#DejaVuSans-65" transform="translate(483.011719 0)"/>
     <use xlink:href="#DejaVuSans-72" transform="translate(544.535156 0)"/>
     <use xlink:href="#DejaVuSans-67" transform="translate(583.898438 0)"/>
     <use xlink:href="#DejaVuSans-69" transform="translate(647.375 0)"/>
     <use xlink:href="#DejaVuSans-65" transform="translate(675.158203 0)"/>
     <use xlink:href="#DejaVuSans-73" transform="translate(736.681641 0)"/>
     <use xlink:href="#DejaVuSans-20" transform="translate(788.78125 0)"/>
     <use xlink:href="#DejaVuSans-76" transform="translate(820.568359 0)"/>
     <use xlink:href="#DejaVuSans-73" transform="translate(879.748047 0)"/>
     <use xlink:href="#DejaVuSans-20" transform="translate(931.847656 0)"/>
     <use xlink:href="#DejaVuSans-74" transform="translate(963.634766 0)"/>
     <use xlink:href="#DejaVuSans-69" transform="translate(1002.84375 0)"/>
     <use xlink:href="#DejaVuSans-6d" transform="translate(1030.626953 0)"/>
     <use xlink:href="#DejaVuSans-65" transform="translate(1128.039062 0)"/>
    </g>
   </g>
   <g id="legend_1">
    <g id="patch_7">
     <path d="M 352.121563 179.3085 
L 411.827813 179.3085 
Q 413.827813 179.3085 413.827813 177.3085 
L 413.827813 133.43975 
Q 413.827813 131.43975 411.827813 131.43975 
L 352.121563 131.43975 
Q 350.121563 131.43975 350.121563 133.43975 
L 350.121563 177.3085 
Q 350.121563 179.3085 352.121563 179.3085 
z
" style="fill: #ffffff; opacity: 0.8; stroke: #cccccc; stroke-linejoin: miter"/>
    </g>
    <g id="line2d_20">
     <path d="M 354.121563 139.538187 
L 364.121563 139.538187 
L 374.121563 139.538187 
" style="fill: none; stroke: #1f77b4; stroke-width: 1.5; stroke-linecap: square"/>
    </g>
    <g id="text_20">
     <!-- E_pot -->
     <g transform="translate(382.121563 143.038187) scale(0.1 -0.1)">
      <defs>
       <path id="DejaVuSans-5f" d="M 3263 -1063 
L 3263 -1509 
L -63 -1509 
L -63 -1063 
L 3263 -1063 
z
" transform="scale(0.015625)"/>
       <path id="DejaVuSans-70" d="M 1159 525 
L 1159 -1331 
L 581 -1331 
L 581 3500 
L 1159 3500 
L 1159 2969 
Q 1341 3281 1617 3432 
Q 1894 3584 2278 3584 
Q 2916 3584 3314 3078 
Q 3713 2572 3713 1747 
Q 3713 922 3314 415 
Q 2916 -91 2278 -91 
Q 1894 -91 1617 61 
Q 1341 213 1159 525 
z
M 3116 1747 
Q 3116 2381 2855 2742 
Q 2594 3103 2138 3103 
Q 1681 3103 1420 2742 
Q 1159 2381 1159 1747 
Q 1159 1113 1420 752 
Q 1681 391 2138 391 
Q 2594 391 2855 752 
Q 3116 1113 3116 1747 
z
" transform="scale(0.015625)"/>
       <path id="DejaVuSans-6f" d="M 1959 3097 
Q 1497 3097 1228 2736 
Q 959 2375 959 1747 
Q 959 1119 1226 758 
Q 1494 397 1959 397 
Q 2419 397 2687 759 
Q 2956 1122 2956 1747 
Q 2956 2369 2687 2733 
Q 2419 3097 1959 3097 
z
M 1959 3584 
Q 2709 3584 3137 3096 
Q 3566 2609 3566 1747 
Q 3566 888 3137 398 
Q 2709 -91 1959 -91 
Q 1206 -91 779 398 
Q 353 888 353 1747 
Q 353 2609 779 3096 
Q 1206 3584 1959 3584 
z
" transform="scale(0.015625)"/>
      </defs>
      <use xlink:href="#DejaVuSans-45"/>
      <use xlink:href="#DejaVuSans-5f" transform="translate(63.183594 0)"/>
      <use xlink:href="#DejaVuSans-70" transform="translate(113.183594 0)"/>
      <use xlink:href="#DejaVuSans-6f" transform="translate(176.660156 0)"/>
      <use xlink:href="#DejaVuSans-74" transform="translate(237.841797 0)"/>
     </g>
    </g>
    <g id="line2d_21">
     <path d="M 354.121563 154.494438 
L 364.121563 154.494438 
L 374.121563 154.494438 
" style="fill: none; stroke: #ff7f0e; stroke-width: 1.5; stroke-linecap: square"/>
    </g>
    <g id="text_21">
     <!-- E_kin -->
     <g transform="translate(382.121563 157.994438) scale(0.1 -0.1)">
      <defs>
       <path id="DejaVuSans-6b" d="M 581 4863 
L 1159 4863 
L 1159 1991 
L 2875 3500 
L 3609 3500 
L 1753 1863 
L 3688 0 
L 2938 0 
L 1159 1709 
L 1159 0 
L 581 0 
L 581 4863 
z
" transform="scale(0.015625)"/>
      </defs>
      <use xlink:href="#DejaVuSans-45"/>
      <use xlink:href="#DejaVuSans-5f" transform="translate(63.183594 0)"/>
      <use xlink:href="#DejaVuSans-6b" transform="translate(113.183594 0)"/>
      <use xlink:href="#DejaVuSans-69" transform="translate(171.09375 0)"/>
      <use xlink:href="#DejaVuSans-6e" transform="translate(198.876953 0)"/>
     </g>
    </g>
    <g id="line2d_22">
     <path d="M 354.121563 169.450687 
L 364.121563 169.450687 
L 374.121563 169.450687 
" style="fill: none; stroke: #2ca02c; stroke-width: 1.5; stroke-linecap: square"/>
    </g>
    <g id="text_22">
     <!-- E_tot -->
     <g transform="translate(382.121563 172.950687) scale(0.1 -0.1)">
      <use xlink:href="#DejaVuSans-45"/>
      <use xlink:href="#DejaVuSans-5f" transform="translate(63.183594 0)"/>
      <use xlink:href="#DejaVuSans-74" transform="translate(113.183594 0)"/>
      <use xlink:href="#DejaVuSans-6f" transform="translate(152.392578 0)"/>
      <use xlink:href="#DejaVuSans-74" transform="translate(213.574219 0)"/>
     </g>
    </g>
   </g>
  </g>
 </g>
 <defs>
  <clipPath id="p3cc250691a">
   <rect x="61.707813" y="22.318125" width="357.12" height="266.112"/>
  </clipPath>
 </defs>
</svg>
