<?xml version="1.0" encoding="utf-8" standalone="no"?>
<!DOCTYPE svg PUBLIC "-//W3C//DTD SVG 1.1//EN"
  "http://www.w3.org/Graphics/SVG/1.1/DTD/svg11.dtd">
<svg xmlns:xlink="http://www.w3.org/1999/xlink" width="408.368437pt" height="311.146375pt" viewBox="0 0 408.368437 311.146375" xmlns="http://www.w3.org/2000/svg" version="1.1">
 <metadata>
  <rdf:RDF xmlns:dc="http://purl.org/dc/elements/1.1/" xmlns:cc="http://creativecommons.org/ns#" xmlns:rdf="http://www.w3.org/1999/02/22-rdf-syntax-ns#">
   <cc:Work>
    <dc:type rdf:resource="http://purl.org/dc/dcmitype/StillImage"/>
    <dc:date>2025-12-11T13:32:15.209425</dc:date>
    <dc:format>image/svg+xml</dc:format>
    <dc:creator>
     <cc:Agent>
      <dc:title>Matplotlib v3.10.5, https://matplotlib.org/</dc:title>
     </cc:Agent>
    </dc:creator>
   </cc:Work>
  </rdf:RDF>
 </metadata>
 <defs>
  <style type="text/css">*{stroke-linejoin: round; stroke-linecap: butt}</style>
 </defs>
 <g id="figure_1">
  <g id="patch_1">
   <path d="M 0 311.146375 
L 408.368437 311.146375 
L 408.368437 0 
L 0 0 
z
" style="fill: #ffffff"/>
  </g>
  <g id="axes_1">
   <g id="patch_2">
    <path d="M 44.048438 273.312 
L 401.168437 273.312 
L 401.168437 7.2 
L 44.048438 7.2 
z
" style="fill: #ffffff"/>
   </g>
   <g id="FillBetweenPolyCollection_1">
    <defs>
     <path id="m3829105d08" d="M 60.281165 -49.930375 
L 60.281165 -49.930375 
L 62.115371 -49.930375 
L 63.949578 -49.930375 
L 65.783784 -49.930375 
L 67.617991 -49.930375 
L 69.452197 -49.930375 
L 71.286404 -49.930375 
L 73.12061 -49.930375 
L 74.954817 -49.930375 
L 76.789023 -49.930375 
L 78.623229 -49.930375 
L 80.457436 -49.930375 
L 82.291642 -49.930375 
L 84.125849 -49.930375 
L 85.960055 -49.930375 
L 87.794262 -49.930375 
L 89.628468 -49.930375 
L 91.462675 -49.930375 
L 93.296881 -49.930375 
L 95.131088 -49.930375 
L 96.965294 -49.930375 
L 98.799501 -49.930375 
L 100.633707 -49.930375 
L 102.467914 -49.930375 
L 104.30212 -49.930375 
L 106.136327 -49.930375 
L 107.970533 -49.930375 
L 109.80474 -49.930375 
L 111.638946 -49.930375 
L 113.473152 -49.930375 
L 115.307359 -49.930375 
L 117.141565 -49.930375 
L 118.975772 -49.930375 
L 120.809978 -49.930375 
L 122.644185 -49.930375 
L 124.478391 -49.930375 
L 126.312598 -49.930375 
L 128.146804 -49.930375 
L 129.981011 -49.930375 
L 131.815217 -49.930375 
L 133.649424 -49.930375 
L 135.48363 -49.930375 
L 137.317837 -50.361918 
L 139.152043 -51.548806 
L 140.98625 -51.786467 
L 142.820456 -55.357527 
L 144.654662 -74.658511 
L 146.488869 -88.30991 
L 148.323075 -127.033754 
L 150.157282 -148.060434 
L 151.991488 -204.490056 
L 153.825695 -234.070544 
L 155.659901 -234.34643 
L 157.494108 -250.656392 
L 159.328314 -253.190285 
L 161.162521 -249.243727 
L 162.996727 -242.860835 
L 164.830934 -232.14629 
L 166.66514 -224.254926 
L 168.499347 -203.432969 
L 170.333553 -201.655573 
L 172.16776 -196.847449 
L 174.001966 -181.632023 
L 175.836172 -174.783521 
L 177.670379 -177.922085 
L 179.504585 -159.088128 
L 181.338792 -158.381247 
L 183.172998 -139.589782 
L 185.007205 -158.065387 
L 186.841411 -129.255234 
L 188.675618 -123.65067 
L 190.509824 -116.344564 
L 192.344031 -130.233994 
L 194.178237 -116.20896 
L 196.012444 -116.553007 
L 197.84665 -110.519093 
L 199.680857 -117.465212 
L 201.515063 -107.410305 
L 203.34927 -113.325566 
L 205.183476 -111.459703 
L 207.017682 -101.549299 
L 208.851889 -115.754541 
L 210.686095 -102.720946 
L 212.520302 -98.304851 
L 214.354508 -110.881884 
L 216.188715 -108.852204 
L 218.022921 -116.732811 
L 219.857128 -120.667172 
L 221.691334 -113.218226 
L 223.525541 -111.525497 
L 225.359747 -121.972125 
L 227.193954 -133.081205 
L 229.02816 -134.83501 
L 230.862367 -137.900094 
L 232.696573 -141.461321 
L 234.53078 -145.451065 
L 236.364986 -150.395656 
L 238.199193 -146.572393 
L 240.033399 -139.417828 
L 241.867605 -157.450965 
L 243.701812 -158.201633 
L 245.536018 -165.721804 
L 247.370225 -162.523142 
L 249.204431 -173.675216 
L 251.038638 -158.801188 
L 252.872844 -161.818231 
L 254.707051 -162.268847 
L 256.541257 -154.306077 
L 258.375464 -154.456669 
L 260.20967 -152.601534 
L 262.043877 -141.921001 
L 263.878083 -144.735661 
L 265.71229 -152.400706 
L 267.546496 -145.773461 
L 269.380703 -157.189412 
L 271.214909 -148.777279 
L 273.049115 -140.886616 
L 274.883322 -131.524449 
L 276.717528 -133.415836 
L 278.551735 -138.857533 
L 280.385941 -130.438332 
L 282.220148 -129.59173 
L 284.054354 -134.563725 
L 285.888561 -131.88901 
L 287.722767 -136.639278 
L 289.556974 -133.065211 
L 291.39118 -127.374895 
L 293.225387 -139.173574 
L 295.059593 -138.580116 
L 296.8938 -123.604732 
L 298.728006 -123.642807 
L 300.562213 -129.188205 
L 302.396419 -126.45753 
L 304.230625 -126.398546 
L 306.064832 -124.113743 
L 307.899038 -128.058615 
L 309.733245 -126.159708 
L 311.567451 -136.121508 
L 313.401658 -127.577745 
L 315.235864 -134.262633 
L 317.070071 -132.123599 
L 318.904277 -127.198175 
L 320.738484 -137.87426 
L 322.57269 -138.69168 
L 324.406897 -148.36963 
L 326.241103 -143.315539 
L 328.07531 -150.177121 
L 329.909516 -140.824437 
L 331.743723 -142.111815 
L 333.577929 -147.31015 
L 335.412135 -152.384944 
L 337.246342 -154.194623 
L 339.080548 -143.021085 
L 340.914755 -147.255586 
L 342.748961 -147.075585 
L 344.583168 -146.802933 
L 346.417374 -146.891128 
L 348.251581 -148.318987 
L 350.085787 -148.058502 
L 351.919994 -137.649408 
L 353.7542 -146.465509 
L 355.588407 -135.483077 
L 357.422613 -141.490186 
L 359.25682 -135.104189 
L 361.091026 -150.095161 
L 362.925233 -132.91632 
L 364.759439 -137.842205 
L 366.593646 -146.947082 
L 368.427852 -150.220107 
L 370.262058 -145.325946 
L 372.096265 -142.274258 
L 373.930471 -134.391065 
L 375.764678 -142.588859 
L 377.598884 -138.471506 
L 379.433091 -142.682956 
L 381.267297 -142.755991 
L 383.101504 -134.56788 
L 384.93571 -143.044538 
L 384.93571 -155.109063 
L 384.93571 -155.109063 
L 383.101504 -148.120143 
L 381.267297 -148.167204 
L 379.433091 -153.167606 
L 377.598884 -150.349226 
L 375.764678 -156.516229 
L 373.930471 -155.084851 
L 372.096265 -147.110504 
L 370.262058 -160.694593 
L 368.427852 -158.494087 
L 366.593646 -166.339659 
L 364.759439 -150.467169 
L 362.925233 -142.667629 
L 361.091026 -164.159082 
L 359.25682 -146.474646 
L 357.422613 -151.373796 
L 355.588407 -148.516884 
L 353.7542 -158.996275 
L 351.919994 -153.28999 
L 350.085787 -153.831625 
L 348.251581 -160.769392 
L 346.417374 -153.597273 
L 344.583168 -164.242745 
L 342.748961 -157.311654 
L 340.914755 -156.991541 
L 339.080548 -162.819399 
L 337.246342 -160.170271 
L 335.412135 -165.679589 
L 333.577929 -155.398166 
L 331.743723 -159.171708 
L 329.909516 -151.582141 
L 328.07531 -162.768522 
L 326.241103 -152.78698 
L 324.406897 -156.300927 
L 322.57269 -144.799823 
L 320.738484 -152.930587 
L 318.904277 -136.140895 
L 317.070071 -139.780998 
L 315.235864 -145.642147 
L 313.401658 -143.821218 
L 311.567451 -148.331734 
L 309.733245 -143.376397 
L 307.899038 -140.514302 
L 306.064832 -141.437558 
L 304.230625 -138.647465 
L 302.396419 -143.699443 
L 300.562213 -137.509408 
L 298.728006 -133.553572 
L 296.8938 -133.155607 
L 295.059593 -148.324755 
L 293.225387 -150.057425 
L 291.39118 -137.725833 
L 289.556974 -146.655045 
L 287.722767 -145.377884 
L 285.888561 -139.121245 
L 284.054354 -142.439779 
L 282.220148 -145.73411 
L 280.385941 -143.458956 
L 278.551735 -152.742147 
L 276.717528 -147.12067 
L 274.883322 -144.51296 
L 273.049115 -154.556915 
L 271.214909 -166.124822 
L 269.380703 -173.357712 
L 267.546496 -158.729195 
L 265.71229 -165.914046 
L 263.878083 -164.467681 
L 262.043877 -156.772754 
L 260.20967 -160.314797 
L 258.375464 -168.847477 
L 256.541257 -169.296189 
L 254.707051 -184.263592 
L 252.872844 -176.553829 
L 251.038638 -180.411252 
L 249.204431 -191.644909 
L 247.370225 -177.844797 
L 245.536018 -176.609412 
L 243.701812 -172.757091 
L 241.867605 -174.413661 
L 240.033399 -161.013576 
L 238.199193 -164.504469 
L 236.364986 -156.820924 
L 234.53078 -160.509054 
L 232.696573 -157.879713 
L 230.862367 -150.537019 
L 229.02816 -153.667746 
L 227.193954 -142.664662 
L 225.359747 -136.30887 
L 223.525541 -134.645145 
L 221.691334 -131.138927 
L 219.857128 -131.100722 
L 218.022921 -128.374973 
L 216.188715 -120.410266 
L 214.354508 -118.594187 
L 212.520302 -109.961125 
L 210.686095 -108.316213 
L 208.851889 -123.884227 
L 207.017682 -112.25908 
L 205.183476 -122.360905 
L 203.34927 -123.055527 
L 201.515063 -115.156727 
L 199.680857 -129.05549 
L 197.84665 -119.826436 
L 196.012444 -134.81669 
L 194.178237 -121.730163 
L 192.344031 -150.06788 
L 190.509824 -139.082881 
L 188.675618 -135.598537 
L 186.841411 -138.321688 
L 185.007205 -171.52412 
L 183.172998 -157.356446 
L 181.338792 -189.464718 
L 179.504585 -177.224985 
L 177.670379 -187.260917 
L 175.836172 -195.245559 
L 174.001966 -203.875494 
L 172.16776 -219.100618 
L 170.333553 -222.111763 
L 168.499347 -225.749829 
L 166.66514 -259.641944 
L 164.830934 -269.414013 
L 162.996727 -256.913209 
L 161.162521 -289.541882 
L 159.328314 -289.026127 
L 157.494108 -291.850375 
L 155.659901 -262.730968 
L 153.825695 -254.017781 
L 151.991488 -215.309997 
L 150.157282 -167.667268 
L 148.323075 -138.66624 
L 146.488869 -94.037319 
L 144.654662 -78.2107 
L 142.820456 -57.468499 
L 140.98625 -54.827486 
L 139.152043 -54.261242 
L 137.317837 -51.732762 
L 135.48363 -51.421905 
L 133.649424 -49.930375 
L 131.815217 -49.930375 
L 129.981011 -49.930375 
L 128.146804 -49.930375 
L 126.312598 -49.930375 
L 124.478391 -49.930375 
L 122.644185 -49.930375 
L 120.809978 -49.930375 
L 118.975772 -49.930375 
L 117.141565 -49.930375 
L 115.307359 -49.930375 
L 113.473152 -49.930375 
L 111.638946 -49.930375 
L 109.80474 -49.930375 
L 107.970533 -49.930375 
L 106.136327 -49.930375 
L 104.30212 -49.930375 
L 102.467914 -49.930375 
L 100.633707 -49.930375 
L 98.799501 -49.930375 
L 96.965294 -49.930375 
L 95.131088 -49.930375 
L 93.296881 -49.930375 
L 91.462675 -49.930375 
L 89.628468 -49.930375 
L 87.794262 -49.930375 
L 85.960055 -49.930375 
L 84.125849 -49.930375 
L 82.291642 -49.930375 
L 80.457436 -49.930375 
L 78.623229 -49.930375 
L 76.789023 -49.930375 
L 74.954817 -49.930375 
L 73.12061 -49.930375 
L 71.286404 -49.930375 
L 69.452197 -49.930375 
L 67.617991 -49.930375 
L 65.783784 -49.930375 
L 63.949578 -49.930375 
L 62.115371 -49.930375 
L 60.281165 -49.930375 
z
" style="stroke: #ff7f0e; stroke-opacity: 0.3"/>
    </defs>
    <g clip-path="url(#p53bfa68196)">
     <use xlink:href="#m3829105d08" x="0" y="311.146375" style="fill: #ff7f0e; fill-opacity: 0.3; stroke: #ff7f0e; stroke-opacity: 0.3"/>
    </g>
   </g>
   <g id="matplotlib.axis_1">
    <g id="xtick_1">
     <g id="line2d_1">
      <defs>
       <path id="m8e4349b0a4" d="M 0 0 
L 0 3.5 
" style="stroke: #000000; stroke-width: 0.8"/>
      </defs>
      <g>
       <use xlink:href="#m8e4349b0a4" x="59.364062" y="273.312" style="stroke: #000000; stroke-width: 0.8"/>
      </g>
     </g>
     <g id="text_1">
      <!-- 0.0 -->
      <g transform="translate(51.412499 287.910437) scale(0.1 -0.1)">
       <defs>
        <path id="DejaVuSans-30" d="M 2034 4250 
Q 1547 4250 1301 3770 
Q 1056 3291 1056 2328 
Q 1056 1369 1301 889 
Q 1547 409 2034 409 
Q 2525 409 2770 889 
Q 3016 1369 3016 2328 
Q 3016 3291 2770 3770 
Q 2525 4250 2034 4250 
z
M 2034 4750 
Q 2819 4750 3233 4129 
Q 3647 3509 3647 2328 
Q 3647 1150 3233 529 
Q 2819 -91 2034 -91 
Q 1250 -91 836 529 
Q 422 1150 422 2328 
Q 422 3509 836 4129 
Q 1250 4750 2034 4750 
z
" transform="scale(0.015625)"/>
        <path id="DejaVuSans-2e" d="M 684 794 
L 1344 794 
L 1344 0 
L 684 0 
L 684 794 
z
" transform="scale(0.015625)"/>
       </defs>
       <use xlink:href="#DejaVuSans-30"/>
       <use xlink:href="#DejaVuSans-2e" transform="translate(63.623047 0)"/>
       <use xlink:href="#DejaVuSans-30" transform="translate(95.410156 0)"/>
      </g>
     </g>
    </g>
    <g id="xtick_2">
     <g id="line2d_2">
      <g>
       <use xlink:href="#m8e4349b0a4" x="105.219223" y="273.312" style="stroke: #000000; stroke-width: 0.8"/>
      </g>
     </g>
     <g id="text_2">
      <!-- 0.5 -->
      <g transform="translate(97.267661 287.910437) scale(0.1 -0.1)">
       <defs>
        <path id="DejaVuSans-35" d="M 691 4666 
L 3169 4666 
L 3169 4134 
L 1269 4134 
L 1269 2991 
Q 1406 3038 1543 3061 
Q 1681 3084 1819 3084 
Q 2600 3084 3056 2656 
Q 3513 2228 3513 1497 
Q 3513 744 3044 326 
Q 2575 -91 1722 -91 
Q 1428 -91 1123 -41 
Q 819 9 494 109 
L 494 744 
Q 775 591 1075 516 
Q 1375 441 1709 441 
Q 2250 441 2565 725 
Q 2881 1009 2881 1497 
Q 2881 1984 2565 2268 
Q 2250 2553 1709 2553 
Q 1456 2553 1204 2497 
Q 953 2441 691 2322 
L 691 4666 
z
" transform="scale(0.015625)"/>
       </defs>
       <use xlink:href="#DejaVuSans-30"/>
       <use xlink:href="#DejaVuSans-2e" transform="translate(63.623047 0)"/>
       <use xlink:href="#DejaVuSans-35" transform="translate(95.410156 0)"/>
      </g>
     </g>
    </g>
    <g id="xtick_3">
     <g id="line2d_3">
      <g>
       <use xlink:href="#m8e4349b0a4" x="151.074385" y="273.312" style="stroke: #000000; stroke-width: 0.8"/>
      </g>
     </g>
     <g id="text_3">
      <!-- 1.0 -->
      <g transform="translate(143.122823 287.910437) scale(0.1 -0.1)">
       <defs>
        <path id="DejaVuSans-31" d="M 794 531 
L 1825 531 
L 1825 4091 
L 703 3866 
L 703 4441 
L 1819 4666 
L 2450 4666 
L 2450 531 
L 3481 531 
L 3481 0 
L 794 0 
L 794 531 
z
" transform="scale(0.015625)"/>
       </defs>
       <use xlink:href="#DejaVuSans-31"/>
       <use xlink:href="#DejaVuSans-2e" transform="translate(63.623047 0)"/>
       <use xlink:href="#DejaVuSans-30" transform="translate(95.410156 0)"/>
      </g>
     </g>
    </g>
    <g id="xtick_4">
     <g id="line2d_4">
      <g>
       <use xlink:href="#m8e4349b0a4" x="196.929547" y="273.312" style="stroke: #000000; stroke-width: 0.8"/>
      </g>
     </g>
     <g id="text_4">
      <!-- 1.5 -->
      <g transform="translate(188.977984 287.910437) scale(0.1 -0.1)">
       <use xlink:href="#DejaVuSans-31"/>
       <use xlink:href="#DejaVuSans-2e" transform="translate(63.623047 0)"/>
       <use xlink:href="#DejaVuSans-35" transform="translate(95.410156 0)"/>
      </g>
     </g>
    </g>
    <g id="xtick_5">
     <g id="line2d_5">
      <g>
       <use xlink:href="#m8e4349b0a4" x="242.784709" y="273.312" style="stroke: #000000; stroke-width: 0.8"/>
      </g>
     </g>
     <g id="text_5">
      <!-- 2.0 -->
      <g transform="translate(234.833146 287.910437) scale(0.1 -0.1)">
       <defs>
        <path id="DejaVuSans-32" d="M 1228 531 
L 3431 531 
L 3431 0 
L 469 0 
L 469 531 
Q 828 903 1448 1529 
Q 2069 2156 2228 2338 
Q 2531 2678 2651 2914 
Q 2772 3150 2772 3378 
Q 2772 3750 2511 3984 
Q 2250 4219 1831 4219 
Q 1534 4219 1204 4116 
Q 875 4013 500 3803 
L 500 4441 
Q 881 4594 1212 4672 
Q 1544 4750 1819 4750 
Q 2544 4750 2975 4387 
Q 3406 4025 3406 3419 
Q 3406 3131 3298 2873 
Q 3191 2616 2906 2266 
Q 2828 2175 2409 1742 
Q 1991 1309 1228 531 
z
" transform="scale(0.015625)"/>
       </defs>
       <use xlink:href="#DejaVuSans-32"/>
       <use xlink:href="#DejaVuSans-2e" transform="translate(63.623047 0)"/>
       <use xlink:href="#DejaVuSans-30" transform="translate(95.410156 0)"/>
      </g>
     </g>
    </g>
    <g id="xtick_6">
     <g id="line2d_6">
      <g>
       <use xlink:href="#m8e4349b0a4" x="288.63987" y="273.312" style="stroke: #000000; stroke-width: 0.8"/>
      </g>
     </g>
     <g id="text_6">
      <!-- 2.5 -->
      <g transform="translate(280.688308 287.910437) scale(0.1 -0.1)">
       <use xlink:href="#DejaVuSans-32"/>
       <use xlink:href="#DejaVuSans-2e" transform="translate(63.623047 0)"/>
       <use xlink:href="#DejaVuSans-35" transform="translate(95.410156 0)"/>
      </g>
     </g>
    </g>
    <g id="xtick_7">
     <g id="line2d_7">
      <g>
       <use xlink:href="#m8e4349b0a4" x="334.495032" y="273.312" style="stroke: #000000; stroke-width: 0.8"/>
      </g>
     </g>
     <g id="text_7">
      <!-- 3.0 -->
      <g transform="translate(326.54347 287.910437) scale(0.1 -0.1)">
       <defs>
        <path id="DejaVuSans-33" d="M 2597 2516 
Q 3050 2419 3304 2112 
Q 3559 1806 3559 1356 
Q 3559 666 3084 287 
Q 2609 -91 1734 -91 
Q 1441 -91 1130 -33 
Q 819 25 488 141 
L 488 750 
Q 750 597 1062 519 
Q 1375 441 1716 441 
Q 2309 441 2620 675 
Q 2931 909 2931 1356 
Q 2931 1769 2642 2001 
Q 2353 2234 1838 2234 
L 1294 2234 
L 1294 2753 
L 1863 2753 
Q 2328 2753 2575 2939 
Q 2822 3125 2822 3475 
Q 2822 3834 2567 4026 
Q 2313 4219 1838 4219 
Q 1578 4219 1281 4162 
Q 984 4106 628 3988 
L 628 4550 
Q 988 4650 1302 4700 
Q 1616 4750 1894 4750 
Q 2613 4750 3031 4423 
Q 3450 4097 3450 3541 
Q 3450 3153 3228 2886 
Q 3006 2619 2597 2516 
z
" transform="scale(0.015625)"/>
       </defs>
       <use xlink:href="#DejaVuSans-33"/>
       <use xlink:href="#DejaVuSans-2e" transform="translate(63.623047 0)"/>
       <use xlink:href="#DejaVuSans-30" transform="translate(95.410156 0)"/>
      </g>
     </g>
    </g>
    <g id="xtick_8">
     <g id="line2d_8">
      <g>
       <use xlink:href="#m8e4349b0a4" x="380.350194" y="273.312" style="stroke: #000000; stroke-width: 0.8"/>
      </g>
     </g>
     <g id="text_8">
      <!-- 3.5 -->
      <g transform="translate(372.398632 287.910437) scale(0.1 -0.1)">
       <use xlink:href="#DejaVuSans-33"/>
       <use xlink:href="#DejaVuSans-2e" transform="translate(63.623047 0)"/>
       <use xlink:href="#DejaVuSans-35" transform="translate(95.410156 0)"/>
      </g>
     </g>
    </g>
    <g id="text_9">
     <!-- r_xy (reduced units) -->
     <g transform="translate(172.400625 301.588562) scale(0.1 -0.1)">
      <defs>
       <path id="DejaVuSans-72" d="M 2631 2963 
Q 2534 3019 2420 3045 
Q 2306 3072 2169 3072 
Q 1681 3072 1420 2755 
Q 1159 2438 1159 1844 
L 1159 0 
L 581 0 
L 581 3500 
L 1159 3500 
L 1159 2956 
Q 1341 3275 1631 3429 
Q 1922 3584 2338 3584 
Q 2397 3584 2469 3576 
Q 2541 3569 2628 3553 
L 2631 2963 
z
" transform="scale(0.015625)"/>
       <path id="DejaVuSans-5f" d="M 3263 -1063 
L 3263 -1509 
L -63 -1509 
L -63 -1063 
L 3263 -1063 
z
" transform="scale(0.015625)"/>
       <path id="DejaVuSans-78" d="M 3513 3500 
L 2247 1797 
L 3578 0 
L 2900 0 
L 1881 1375 
L 863 0 
L 184 0 
L 1544 1831 
L 300 3500 
L 978 3500 
L 1906 2253 
L 2834 3500 
L 3513 3500 
z
" transform="scale(0.015625)"/>
       <path id="DejaVuSans-79" d="M 2059 -325 
Q 1816 -950 1584 -1140 
Q 1353 -1331 966 -1331 
L 506 -1331 
L 506 -850 
L 844 -850 
Q 1081 -850 1212 -737 
Q 1344 -625 1503 -206 
L 1606 56 
L 191 3500 
L 800 3500 
L 1894 763 
L 2988 3500 
L 3597 3500 
L 2059 -325 
z
" transform="scale(0.015625)"/>
       <path id="DejaVuSans-20" transform="scale(0.015625)"/>
       <path id="DejaVuSans-28" d="M 1984 4856 
Q 1566 4138 1362 3434 
Q 1159 2731 1159 2009 
Q 1159 1288 1364 580 
Q 1569 -128 1984 -844 
L 1484 -844 
Q 1016 -109 783 600 
Q 550 1309 550 2009 
Q 550 2706 781 3412 
Q 1013 4119 1484 4856 
L 1984 4856 
z
" transform="scale(0.015625)"/>
       <path id="DejaVuSans-65" d="M 3597 1894 
L 3597 1613 
L 953 1613 
Q 991 1019 1311 708 
Q 1631 397 2203 397 
Q 2534 397 2845 478 
Q 3156 559 3463 722 
L 3463 178 
Q 3153 47 2828 -22 
Q 2503 -91 2169 -91 
Q 1331 -91 842 396 
Q 353 884 353 1716 
Q 353 2575 817 3079 
Q 1281 3584 2069 3584 
Q 2775 3584 3186 3129 
Q 3597 2675 3597 1894 
z
M 3022 2063 
Q 3016 2534 2758 2815 
Q 2500 3097 2075 3097 
Q 1594 3097 1305 2825 
Q 1016 2553 972 2059 
L 3022 2063 
z
" transform="scale(0.015625)"/>
       <path id="DejaVuSans-64" d="M 2906 2969 
L 2906 4863 
L 3481 4863 
L 3481 0 
L 2906 0 
L 2906 525 
Q 2725 213 2448 61 
Q 2172 -91 1784 -91 
Q 1150 -91 751 415 
Q 353 922 353 1747 
Q 353 2572 751 3078 
Q 1150 3584 1784 3584 
Q 2172 3584 2448 3432 
Q 2725 3281 2906 2969 
z
M 947 1747 
Q 947 1113 1208 752 
Q 1469 391 1925 391 
Q 2381 391 2643 752 
Q 2906 1113 2906 1747 
Q 2906 2381 2643 2742 
Q 2381 3103 1925 3103 
Q 1469 3103 1208 2742 
Q 947 2381 947 1747 
z
" transform="scale(0.015625)"/>
       <path id="DejaVuSans-75" d="M 544 1381 
L 544 3500 
L 1119 3500 
L 1119 1403 
Q 1119 906 1312 657 
Q 1506 409 1894 409 
Q 2359 409 2629 706 
Q 2900 1003 2900 1516 
L 2900 3500 
L 3475 3500 
L 3475 0 
L 2900 0 
L 2900 538 
Q 2691 219 2414 64 
Q 2138 -91 1772 -91 
Q 1169 -91 856 284 
Q 544 659 544 1381 
z
M 1991 3584 
L 1991 3584 
z
" transform="scale(0.015625)"/>
       <path id="DejaVuSans-63" d="M 3122 3366 
L 3122 2828 
Q 2878 2963 2633 3030 
Q 2388 3097 2138 3097 
Q 1578 3097 1268 2742 
Q 959 2388 959 1747 
Q 959 1106 1268 751 
Q 1578 397 2138 397 
Q 2388 397 2633 464 
Q 2878 531 3122 666 
L 3122 134 
Q 2881 22 2623 -34 
Q 2366 -91 2075 -91 
Q 1284 -91 818 406 
Q 353 903 353 1747 
Q 353 2603 823 3093 
Q 1294 3584 2113 3584 
Q 2378 3584 2631 3529 
Q 2884 3475 3122 3366 
z
" transform="scale(0.015625)"/>
       <path id="DejaVuSans-6e" d="M 3513 2113 
L 3513 0 
L 2938 0 
L 2938 2094 
Q 2938 2591 2744 2837 
Q 2550 3084 2163 3084 
Q 1697 3084 1428 2787 
Q 1159 2491 1159 1978 
L 1159 0 
L 581 0 
L 581 3500 
L 1159 3500 
L 1159 2956 
Q 1366 3272 1645 3428 
Q 1925 3584 2291 3584 
Q 2894 3584 3203 3211 
Q 3513 2838 3513 2113 
z
" transform="scale(0.015625)"/>
       <path id="DejaVuSans-69" d="M 603 3500 
L 1178 3500 
L 1178 0 
L 603 0 
L 603 3500 
z
M 603 4863 
L 1178 4863 
L 1178 4134 
L 603 4134 
L 603 4863 
z
" transform="scale(0.015625)"/>
       <path id="DejaVuSans-74" d="M 1172 4494 
L 1172 3500 
L 2356 3500 
L 2356 3053 
L 1172 3053 
L 1172 1153 
Q 1172 725 1289 603 
Q 1406 481 1766 481 
L 2356 481 
L 2356 0 
L 1766 0 
Q 1100 0 847 248 
Q 594 497 594 1153 
L 594 3053 
L 172 3053 
L 172 3500 
L 594 3500 
L 594 4494 
L 1172 4494 
z
" transform="scale(0.015625)"/>
       <path id="DejaVuSans-73" d="M 2834 3397 
L 2834 2853 
Q 2591 2978 2328 3040 
Q 2066 3103 1784 3103 
Q 1356 3103 1142 2972 
Q 928 2841 928 2578 
Q 928 2378 1081 2264 
Q 1234 2150 1697 2047 
L 1894 2003 
Q 2506 1872 2764 1633 
Q 3022 1394 3022 966 
Q 3022 478 2636 193 
Q 2250 -91 1575 -91 
Q 1294 -91 989 -36 
Q 684 19 347 128 
L 347 722 
Q 666 556 975 473 
Q 1284 391 1588 391 
Q 1994 391 2212 530 
Q 2431 669 2431 922 
Q 2431 1156 2273 1281 
Q 2116 1406 1581 1522 
L 1381 1569 
Q 847 1681 609 1914 
Q 372 2147 372 2553 
Q 372 3047 722 3315 
Q 1072 3584 1716 3584 
Q 2034 3584 2315 3537 
Q 2597 3491 2834 3397 
z
" transform="scale(0.015625)"/>
       <path id="DejaVuSans-29" d="M 513 4856 
L 1013 4856 
Q 1481 4119 1714 3412 
Q 1947 2706 1947 2009 
Q 1947 1309 1714 600 
Q 1481 -109 1013 -844 
L 513 -844 
Q 928 -128 1133 580 
Q 1338 1288 1338 2009 
Q 1338 2731 1133 3434 
Q 928 4138 513 4856 
z
" transform="scale(0.015625)"/>
      </defs>
      <use xlink:href="#DejaVuSans-72"/>
      <use xlink:href="#DejaVuSans-5f" transform="translate(41.113281 0)"/>
      <use xlink:href="#DejaVuSans-78" transform="translate(91.113281 0)"/>
      <use xlink:href="#DejaVuSans-79" transform="translate(150.292969 0)"/>
      <use xlink:href="#DejaVuSans-20" transform="translate(209.472656 0)"/>
      <use xlink:href="#DejaVuSans-28" transform="translate(241.259766 0)"/>
      <use xlink:href="#DejaVuSans-72" transform="translate(280.273438 0)"/>
      <use xlink:href="#DejaVuSans-65" transform="translate(319.136719 0)"/>
      <use xlink:href="#DejaVuSans-64" transform="translate(380.660156 0)"/>
      <use xlink:href="#DejaVuSans-75" transform="translate(444.136719 0)"/>
      <use xlink:href="#DejaVuSans-63" transform="translate(507.515625 0)"/>
      <use xlink:href="#DejaVuSans-65" transform="translate(562.496094 0)"/>
      <use xlink:href="#DejaVuSans-64" transform="translate(624.019531 0)"/>
      <use xlink:href="#DejaVuSans-20" transform="translate(687.496094 0)"/>
      <use xlink:href="#DejaVuSans-75" transform="translate(719.283203 0)"/>
      <use xlink:href="#DejaVuSans-6e" transform="translate(782.662109 0)"/>
      <use xlink:href="#DejaVuSans-69" transform="translate(846.041016 0)"/>
      <use xlink:href="#DejaVuSans-74" transform="translate(873.824219 0)"/>
      <use xlink:href="#DejaVuSans-73" transform="translate(913.033203 0)"/>
      <use xlink:href="#DejaVuSans-29" transform="translate(965.132812 0)"/>
     </g>
    </g>
   </g>
   <g id="matplotlib.axis_2">
    <g id="ytick_1">
     <g id="line2d_9">
      <defs>
       <path id="mc7ad2b3fad" d="M 0 0 
L -3.5 0 
" style="stroke: #000000; stroke-width: 0.8"/>
      </defs>
      <g>
       <use xlink:href="#mc7ad2b3fad" x="44.048438" y="261.216" style="stroke: #000000; stroke-width: 0.8"/>
      </g>
     </g>
     <g id="text_10">
      <!-- 0.0 -->
      <g transform="translate(21.145313 265.015219) scale(0.1 -0.1)">
       <use xlink:href="#DejaVuSans-30"/>
       <use xlink:href="#DejaVuSans-2e" transform="translate(63.623047 0)"/>
       <use xlink:href="#DejaVuSans-30" transform="translate(95.410156 0)"/>
      </g>
     </g>
    </g>
    <g id="ytick_2">
     <g id="line2d_10">
      <g>
       <use xlink:href="#mc7ad2b3fad" x="44.048438" y="214.264302" style="stroke: #000000; stroke-width: 0.8"/>
      </g>
     </g>
     <g id="text_11">
      <!-- 0.5 -->
      <g transform="translate(21.145313 218.063521) scale(0.1 -0.1)">
       <use xlink:href="#DejaVuSans-30"/>
       <use xlink:href="#DejaVuSans-2e" transform="translate(63.623047 0)"/>
       <use xlink:href="#DejaVuSans-35" transform="translate(95.410156 0)"/>
      </g>
     </g>
    </g>
    <g id="ytick_3">
     <g id="line2d_11">
      <g>
       <use xlink:href="#mc7ad2b3fad" x="44.048438" y="167.312604" style="stroke: #000000; stroke-width: 0.8"/>
      </g>
     </g>
     <g id="text_12">
      <!-- 1.0 -->
      <g transform="translate(21.145313 171.111823) scale(0.1 -0.1)">
       <use xlink:href="#DejaVuSans-31"/>
       <use xlink:href="#DejaVuSans-2e" transform="translate(63.623047 0)"/>
       <use xlink:href="#DejaVuSans-30" transform="translate(95.410156 0)"/>
      </g>
     </g>
    </g>
    <g id="ytick_4">
     <g id="line2d_12">
      <g>
       <use xlink:href="#mc7ad2b3fad" x="44.048438" y="120.360907" style="stroke: #000000; stroke-width: 0.8"/>
      </g>
     </g>
     <g id="text_13">
      <!-- 1.5 -->
      <g transform="translate(21.145313 124.160125) scale(0.1 -0.1)">
       <use xlink:href="#DejaVuSans-31"/>
       <use xlink:href="#DejaVuSans-2e" transform="translate(63.623047 0)"/>
       <use xlink:href="#DejaVuSans-35" transform="translate(95.410156 0)"/>
      </g>
     </g>
    </g>
    <g id="ytick_5">
     <g id="line2d_13">
      <g>
       <use xlink:href="#mc7ad2b3fad" x="44.048438" y="73.409209" style="stroke: #000000; stroke-width: 0.8"/>
      </g>
     </g>
     <g id="text_14">
      <!-- 2.0 -->
      <g transform="translate(21.145313 77.208428) scale(0.1 -0.1)">
       <use xlink:href="#DejaVuSans-32"/>
       <use xlink:href="#DejaVuSans-2e" transform="translate(63.623047 0)"/>
       <use xlink:href="#DejaVuSans-30" transform="translate(95.410156 0)"/>
      </g>
     </g>
    </g>
    <g id="ytick_6">
     <g id="line2d_14">
      <g>
       <use xlink:href="#mc7ad2b3fad" x="44.048438" y="26.457511" style="stroke: #000000; stroke-width: 0.8"/>
      </g>
     </g>
     <g id="text_15">
      <!-- 2.5 -->
      <g transform="translate(21.145313 30.25673) scale(0.1 -0.1)">
       <use xlink:href="#DejaVuSans-32"/>
       <use xlink:href="#DejaVuSans-2e" transform="translate(63.623047 0)"/>
       <use xlink:href="#DejaVuSans-35" transform="translate(95.410156 0)"/>
      </g>
     </g>
    </g>
    <g id="text_16">
     <!-- g_xy(r) -->
     <g transform="translate(14.7875 157.806) rotate(-90) scale(0.1 -0.1)">
      <defs>
       <path id="DejaVuSans-67" d="M 2906 1791 
Q 2906 2416 2648 2759 
Q 2391 3103 1925 3103 
Q 1463 3103 1205 2759 
Q 947 2416 947 1791 
Q 947 1169 1205 825 
Q 1463 481 1925 481 
Q 2391 481 2648 825 
Q 2906 1169 2906 1791 
z
M 3481 434 
Q 3481 -459 3084 -895 
Q 2688 -1331 1869 -1331 
Q 1566 -1331 1297 -1286 
Q 1028 -1241 775 -1147 
L 775 -588 
Q 1028 -725 1275 -790 
Q 1522 -856 1778 -856 
Q 2344 -856 2625 -561 
Q 2906 -266 2906 331 
L 2906 616 
Q 2728 306 2450 153 
Q 2172 0 1784 0 
Q 1141 0 747 490 
Q 353 981 353 1791 
Q 353 2603 747 3093 
Q 1141 3584 1784 3584 
Q 2172 3584 2450 3431 
Q 2728 3278 2906 2969 
L 2906 3500 
L 3481 3500 
L 3481 434 
z
" transform="scale(0.015625)"/>
      </defs>
      <use xlink:href="#DejaVuSans-67"/>
      <use xlink:href="#DejaVuSans-5f" transform="translate(63.476562 0)"/>
      <use xlink:href="#DejaVuSans-78" transform="translate(113.476562 0)"/>
      <use xlink:href="#DejaVuSans-79" transform="translate(172.65625 0)"/>
      <use xlink:href="#DejaVuSans-28" transform="translate(231.835938 0)"/>
      <use xlink:href="#DejaVuSans-72" transform="translate(270.849609 0)"/>
      <use xlink:href="#DejaVuSans-29" transform="translate(311.962891 0)"/>
     </g>
    </g>
   </g>
   <g id="line2d_15">
    <path d="M 60.281165 261.216 
L 133.649424 261.216 
L 135.48363 260.470235 
L 137.317837 260.099035 
L 139.152043 258.241351 
L 140.98625 257.839398 
L 142.820456 254.733362 
L 144.654662 234.71177 
L 146.488869 219.972761 
L 148.323075 178.296378 
L 150.157282 153.282524 
L 151.991488 101.246349 
L 153.825695 67.102213 
L 155.659901 62.607676 
L 157.494108 39.892991 
L 159.328314 40.038169 
L 161.162521 41.75357 
L 162.996727 61.259353 
L 164.830934 60.366224 
L 166.66514 69.19794 
L 168.499347 96.554976 
L 170.333553 99.262707 
L 172.16776 103.172341 
L 174.001966 118.392616 
L 175.836172 126.131835 
L 177.670379 128.554874 
L 179.504585 142.989818 
L 181.338792 137.223393 
L 183.172998 162.673261 
L 185.007205 146.351621 
L 186.841411 177.357914 
L 188.675618 181.521771 
L 190.509824 183.432653 
L 192.344031 170.995438 
L 194.178237 192.176813 
L 196.012444 185.461526 
L 197.84665 195.973611 
L 199.680857 187.886024 
L 201.515063 199.862859 
L 203.34927 192.955829 
L 205.183476 194.236071 
L 207.017682 204.242186 
L 208.851889 191.326991 
L 210.686095 205.627796 
L 212.520302 207.013387 
L 214.354508 196.40834 
L 216.188715 196.51514 
L 218.022921 188.592483 
L 219.857128 185.262428 
L 221.691334 188.967799 
L 223.525541 188.061054 
L 225.359747 182.005878 
L 227.193954 173.273441 
L 229.02816 166.894997 
L 230.862367 166.927819 
L 232.696573 161.475858 
L 234.53078 158.166316 
L 236.364986 157.538085 
L 238.199193 155.607944 
L 240.033399 160.930673 
L 241.867605 145.214062 
L 243.701812 145.667013 
L 245.536018 139.980767 
L 247.370225 140.962406 
L 249.204431 128.486312 
L 251.038638 141.540155 
L 252.872844 141.960345 
L 254.707051 137.880155 
L 256.541257 149.345242 
L 258.375464 149.494302 
L 260.20967 154.68821 
L 262.043877 161.799498 
L 263.878083 156.544704 
L 265.71229 151.988999 
L 267.546496 158.895047 
L 269.380703 145.872813 
L 271.214909 153.695324 
L 274.883322 173.12767 
L 276.717528 170.878122 
L 278.551735 165.346535 
L 280.385941 174.197731 
L 282.220148 173.483455 
L 284.054354 172.644623 
L 285.888561 175.641247 
L 287.722767 170.137794 
L 289.556974 171.286247 
L 291.39118 178.596011 
L 293.225387 166.530876 
L 295.059593 167.693939 
L 296.8938 182.766205 
L 298.728006 182.548186 
L 300.562213 177.797569 
L 302.396419 176.067888 
L 304.230625 178.623369 
L 306.064832 178.370725 
L 307.899038 176.859917 
L 309.733245 176.378323 
L 311.567451 168.919754 
L 313.401658 175.446894 
L 315.235864 171.193985 
L 317.070071 175.194076 
L 318.904277 179.47684 
L 320.738484 165.743952 
L 322.57269 169.400623 
L 324.406897 158.811097 
L 326.241103 163.095115 
L 328.07531 154.673553 
L 329.909516 164.943086 
L 331.743723 160.504614 
L 333.577929 159.792217 
L 335.412135 152.114108 
L 337.246342 153.963928 
L 339.080548 158.226133 
L 340.914755 159.022812 
L 342.748961 158.952756 
L 344.583168 155.623536 
L 346.417374 160.902175 
L 348.251581 156.602186 
L 350.085787 160.201312 
L 351.919994 165.676676 
L 353.7542 158.415483 
L 355.588407 169.146395 
L 357.422613 164.714384 
L 359.25682 170.356957 
L 361.091026 154.019253 
L 362.925233 173.354401 
L 364.759439 166.991688 
L 366.593646 154.503004 
L 368.427852 156.789278 
L 370.262058 158.136105 
L 372.096265 166.453994 
L 373.930471 166.408417 
L 375.764678 161.593831 
L 377.598884 166.736009 
L 379.433091 163.221094 
L 381.267297 165.684777 
L 383.101504 169.802363 
L 384.93571 162.069575 
L 384.93571 162.069575 
" clip-path="url(#p53bfa68196)" style="fill: none; stroke: #ff7f0e; stroke-width: 1.5; stroke-linecap: square"/>
   </g>
   <g id="line2d_16">
    <path d="M 44.048438 167.312604 
L 401.168437 167.312604 
" clip-path="url(#p53bfa68196)" style="fill: none; stroke-dasharray: 5.55,2.4; stroke-dashoffset: 0; stroke: #000000; stroke-opacity: 0.4; stroke-width: 1.5"/>
   </g>
   <g id="patch_3">
    <path d="M 44.048438 273.312 
L 44.048438 7.2 
" style="fill: none; stroke: #000000; stroke-width: 0.8; stroke-linejoin: miter; stroke-linecap: square"/>
   </g>
   <g id="patch_4">
    <path d="M 401.168437 273.312 
L 401.168437 7.2 
" style="fill: none; stroke: #000000; stroke-width: 0.8; stroke-linejoin: miter; stroke-linecap: square"/>
   </g>
   <g id="patch_5">
    <path d="M 44.048438 273.312 
L 401.168438 273.312 
" style="fill: none; stroke: #000000; stroke-width: 0.8; stroke-linejoin: miter; stroke-linecap: square"/>
   </g>
   <g id="patch_6">
    <path d="M 44.048438 7.2 
L 401.168438 7.2 
" style="fill: none; stroke: #000000; stroke-width: 0.8; stroke-linejoin: miter; stroke-linecap: square"/>
   </g>
   <g id="legend_1">
    <g id="patch_7">
     <path d="M 328.0075 44.55625 
L 394.168438 44.55625 
Q 396.168438 44.55625 396.168438 42.55625 
L 396.168438 14.2 
Q 396.168438 12.2 394.168438 12.2 
L 328.0075 12.2 
Q 326.0075 12.2 326.0075 14.2 
L 326.0075 42.55625 
Q 326.0075 44.55625 328.0075 44.55625 
z
" style="fill: #ffffff; opacity: 0.8; stroke: #cccccc; stroke-linejoin: miter"/>
    </g>
    <g id="line2d_17">
     <path d="M 330.0075 20.298437 
L 340.0075 20.298437 
L 350.0075 20.298437 
" style="fill: none; stroke: #ff7f0e; stroke-width: 1.5; stroke-linecap: square"/>
    </g>
    <g id="text_17">
     <!-- Mean -->
     <g transform="translate(358.0075 23.798437) scale(0.1 -0.1)">
      <defs>
       <path id="DejaVuSans-4d" d="M 628 4666 
L 1569 4666 
L 2759 1491 
L 3956 4666 
L 4897 4666 
L 4897 0 
L 4281 0 
L 4281 4097 
L 3078 897 
L 2444 897 
L 1241 4097 
L 1241 0 
L 628 0 
L 628 4666 
z
" transform="scale(0.015625)"/>
       <path id="DejaVuSans-61" d="M 2194 1759 
Q 1497 1759 1228 1600 
Q 959 1441 959 1056 
Q 959 750 1161 570 
Q 1363 391 1709 391 
Q 2188 391 2477 730 
Q 2766 1069 2766 1631 
L 2766 1759 
L 2194 1759 
z
M 3341 1997 
L 3341 0 
L 2766 0 
L 2766 531 
Q 2569 213 2275 61 
Q 1981 -91 1556 -91 
Q 1019 -91 701 211 
Q 384 513 384 1019 
Q 384 1609 779 1909 
Q 1175 2209 1959 2209 
L 2766 2209 
L 2766 2266 
Q 2766 2663 2505 2880 
Q 2244 3097 1772 3097 
Q 1472 3097 1187 3025 
Q 903 2953 641 2809 
L 641 3341 
Q 956 3463 1253 3523 
Q 1550 3584 1831 3584 
Q 2591 3584 2966 3190 
Q 3341 2797 3341 1997 
z
" transform="scale(0.015625)"/>
      </defs>
      <use xlink:href="#DejaVuSans-4d"/>
      <use xlink:href="#DejaVuSans-65" transform="translate(86.279297 0)"/>
      <use xlink:href="#DejaVuSans-61" transform="translate(147.802734 0)"/>
      <use xlink:href="#DejaVuSans-6e" transform="translate(209.082031 0)"/>
     </g>
    </g>
    <g id="patch_8">
     <path d="M 330.0075 38.476562 
L 350.0075 38.476562 
L 350.0075 31.476562 
L 330.0075 31.476562 
z
" style="fill: #ff7f0e; fill-opacity: 0.3; stroke: #ff7f0e; stroke-opacity: 0.3; stroke-linejoin: miter"/>
    </g>
    <g id="text_18">
     <!-- Std Err -->
     <g transform="translate(358.0075 38.476562) scale(0.1 -0.1)">
      <defs>
       <path id="DejaVuSans-53" d="M 3425 4513 
L 3425 3897 
Q 3066 4069 2747 4153 
Q 2428 4238 2131 4238 
Q 1616 4238 1336 4038 
Q 1056 3838 1056 3469 
Q 1056 3159 1242 3001 
Q 1428 2844 1947 2747 
L 2328 2669 
Q 3034 2534 3370 2195 
Q 3706 1856 3706 1288 
Q 3706 609 3251 259 
Q 2797 -91 1919 -91 
Q 1588 -91 1214 -16 
Q 841 59 441 206 
L 441 856 
Q 825 641 1194 531 
Q 1563 422 1919 422 
Q 2459 422 2753 634 
Q 3047 847 3047 1241 
Q 3047 1584 2836 1778 
Q 2625 1972 2144 2069 
L 1759 2144 
Q 1053 2284 737 2584 
Q 422 2884 422 3419 
Q 422 4038 858 4394 
Q 1294 4750 2059 4750 
Q 2388 4750 2728 4690 
Q 3069 4631 3425 4513 
z
" transform="scale(0.015625)"/>
       <path id="DejaVuSans-45" d="M 628 4666 
L 3578 4666 
L 3578 4134 
L 1259 4134 
L 1259 2753 
L 3481 2753 
L 3481 2222 
L 1259 2222 
L 1259 531 
L 3634 531 
L 3634 0 
L 628 0 
L 628 4666 
z
" transform="scale(0.015625)"/>
      </defs>
      <use xlink:href="#DejaVuSans-53"/>
      <use xlink:href="#DejaVuSans-74" transform="translate(63.476562 0)"/>
      <use xlink:href="#DejaVuSans-64" transform="translate(102.685547 0)"/>
      <use xlink:href="#DejaVuSans-20" transform="translate(166.162109 0)"/>
      <use xlink:href="#DejaVuSans-45" transform="translate(197.949219 0)"/>
      <use xlink:href="#DejaVuSans-72" transform="translate(261.132812 0)"/>
      <use xlink:href="#DejaVuSans-72" transform="translate(300.496094 0)"/>
     </g>
    </g>
   </g>
  </g>
 </g>
 <defs>
  <clipPath id="p53bfa68196">
   <rect x="44.048438" y="7.2" width="357.12" height="266.112"/>
  </clipPath>
 </defs>
</svg>
