<?xml version="1.0" encoding="utf-8" standalone="no"?>
<!DOCTYPE svg PUBLIC "-//W3C//DTD SVG 1.1//EN"
  "http://www.w3.org/Graphics/SVG/1.1/DTD/svg11.dtd">
<svg xmlns:xlink="http://www.w3.org/1999/xlink" width="408.10125pt" height="310.86825pt" viewBox="0 0 408.10125 310.86825" xmlns="http://www.w3.org/2000/svg" version="1.1">
 <metadata>
  <rdf:RDF xmlns:dc="http://purl.org/dc/elements/1.1/" xmlns:cc="http://creativecommons.org/ns#" xmlns:rdf="http://www.w3.org/1999/02/22-rdf-syntax-ns#">
   <cc:Work>
    <dc:type rdf:resource="http://purl.org/dc/dcmitype/StillImage"/>
    <dc:date>2025-12-11T13:32:06.609993</dc:date>
    <dc:format>image/svg+xml</dc:format>
    <dc:creator>
     <cc:Agent>
      <dc:title>Matplotlib v3.10.5, https://matplotlib.org/</dc:title>
     </cc:Agent>
    </dc:creator>
   </cc:Work>
  </rdf:RDF>
 </metadata>
 <defs>
  <style type="text/css">*{stroke-linejoin: round; stroke-linecap: butt}</style>
 </defs>
 <g id="figure_1">
  <g id="patch_1">
   <path d="M 0 310.86825 
L 408.10125 310.86825 
L 408.10125 0 
L 0 0 
z
" style="fill: #ffffff"/>
  </g>
  <g id="axes_1">
   <g id="patch_2">
    <path d="M 43.78125 273.312 
L 400.90125 273.312 
L 400.90125 7.2 
L 43.78125 7.2 
z
" style="fill: #ffffff"/>
   </g>
   <g id="FillBetweenPolyCollection_1">
    <defs>
     <path id="m53c9bf6d32" d="M 60.013977 -49.65225 
L 60.013977 -49.65225 
L 62.192867 -49.65225 
L 64.371756 -49.65225 
L 66.550646 -49.65225 
L 68.729536 -49.65225 
L 70.908425 -49.65225 
L 73.087315 -49.65225 
L 75.266204 -49.65225 
L 77.445094 -49.65225 
L 79.623983 -49.65225 
L 81.802873 -49.65225 
L 83.981763 -49.65225 
L 86.160652 -49.65225 
L 88.339542 -49.65225 
L 90.518431 -49.65225 
L 92.697321 -49.65225 
L 94.87621 -49.65225 
L 97.0551 -49.65225 
L 99.233989 -49.65225 
L 101.412879 -49.65225 
L 103.591769 -49.65225 
L 105.770658 -49.65225 
L 107.949548 -49.65225 
L 110.128437 -49.65225 
L 112.307327 -49.65225 
L 114.486216 -49.65225 
L 116.665106 -49.65225 
L 118.843996 -49.65225 
L 121.022885 -49.65225 
L 123.201775 -49.65225 
L 125.380664 -49.65225 
L 127.559554 -49.65225 
L 129.738443 -49.65225 
L 131.917333 -49.65225 
L 134.096223 -49.65225 
L 136.275112 -49.65225 
L 138.454002 -49.65225 
L 140.632891 -49.65225 
L 142.811781 -49.65225 
L 144.99067 -49.65225 
L 147.16956 -49.65225 
L 149.34845 -49.65225 
L 151.527339 -49.65225 
L 153.706229 -49.65225 
L 155.885118 -49.66386 
L 158.064008 -49.935247 
L 160.242897 -52.314209 
L 162.421787 -60.604271 
L 164.600676 -83.776605 
L 166.779566 -117.588053 
L 168.958456 -170.656928 
L 171.137345 -209.406536 
L 173.316235 -246.388765 
L 175.495124 -272.602867 
L 177.674014 -280.789956 
L 179.852903 -275.84727 
L 182.031793 -267.932757 
L 184.210683 -255.26071 
L 186.389572 -241.874949 
L 188.568462 -226.650795 
L 190.747351 -210.299136 
L 192.926241 -197.611 
L 195.10513 -184.88387 
L 197.28402 -173.312645 
L 199.46291 -166.571336 
L 201.641799 -160.123857 
L 203.820689 -152.682153 
L 205.999578 -144.260914 
L 208.178468 -141.339535 
L 210.357357 -135.401825 
L 212.536247 -132.631203 
L 214.715137 -129.336509 
L 216.894026 -123.415781 
L 219.072916 -121.063842 
L 221.251805 -120.217993 
L 223.430695 -117.738782 
L 225.609584 -116.435721 
L 227.788474 -115.643784 
L 229.967363 -114.809836 
L 232.146253 -113.525126 
L 234.325143 -114.34886 
L 236.504032 -113.95143 
L 238.682922 -113.976791 
L 240.861811 -115.761121 
L 243.040701 -116.916608 
L 245.21959 -117.51699 
L 247.39848 -119.081779 
L 249.57737 -120.942869 
L 251.756259 -121.05934 
L 253.935149 -124.423649 
L 256.114038 -124.797038 
L 258.292928 -127.680523 
L 260.471817 -129.970197 
L 262.650707 -133.100865 
L 264.829597 -134.943532 
L 267.008486 -135.503301 
L 269.187376 -138.798715 
L 271.366265 -141.310238 
L 273.545155 -144.014771 
L 275.724044 -146.166153 
L 277.902934 -148.033917 
L 280.081824 -147.785661 
L 282.260713 -150.326663 
L 284.439603 -150.848061 
L 286.618492 -151.938737 
L 288.797382 -151.533794 
L 290.976271 -152.259117 
L 293.155161 -152.530338 
L 295.33405 -152.386239 
L 297.51294 -149.632126 
L 299.69183 -149.651801 
L 301.870719 -147.959336 
L 304.049609 -146.097643 
L 306.228498 -145.060253 
L 308.407388 -143.094066 
L 310.586277 -139.926209 
L 312.765167 -138.903648 
L 314.944057 -136.899392 
L 317.122946 -136.614022 
L 319.301836 -133.634555 
L 321.480725 -132.592684 
L 323.659615 -131.838392 
L 325.838504 -130.684412 
L 328.017394 -129.656577 
L 330.196284 -128.448598 
L 332.375173 -128.175665 
L 334.554063 -127.361693 
L 336.732952 -126.76567 
L 338.911842 -126.038763 
L 341.090731 -126.358476 
L 343.269621 -127.183525 
L 345.448511 -127.739984 
L 347.6274 -126.592998 
L 349.80629 -127.624804 
L 351.985179 -127.930233 
L 354.164069 -127.880437 
L 356.342958 -128.486311 
L 358.521848 -128.260146 
L 360.700737 -128.334416 
L 362.879627 -128.698216 
L 365.058517 -129.910389 
L 367.237406 -130.804868 
L 369.416296 -131.901978 
L 371.595185 -132.221557 
L 373.774075 -132.790071 
L 375.952964 -132.014761 
L 378.131854 -133.640532 
L 380.310744 -132.554539 
L 382.489633 -134.651613 
L 384.668523 -134.051596 
L 384.668523 -136.813925 
L 384.668523 -136.813925 
L 382.489633 -137.026047 
L 380.310744 -135.852187 
L 378.131854 -136.480158 
L 375.952964 -134.959376 
L 373.774075 -135.507186 
L 371.595185 -135.034597 
L 369.416296 -134.503697 
L 367.237406 -133.924397 
L 365.058517 -132.638955 
L 362.879627 -131.463462 
L 360.700737 -131.505467 
L 358.521848 -130.491144 
L 356.342958 -131.42553 
L 354.164069 -130.072128 
L 351.985179 -129.944225 
L 349.80629 -129.093077 
L 347.6274 -128.955735 
L 345.448511 -129.593852 
L 343.269621 -129.311116 
L 341.090731 -128.293624 
L 338.911842 -128.791954 
L 336.732952 -128.788419 
L 334.554063 -129.612421 
L 332.375173 -130.786357 
L 330.196284 -130.647118 
L 328.017394 -132.080091 
L 325.838504 -132.952172 
L 323.659615 -133.887571 
L 321.480725 -135.437148 
L 319.301836 -136.445916 
L 317.122946 -138.85722 
L 314.944057 -139.52104 
L 312.765167 -141.47506 
L 310.586277 -143.148026 
L 308.407388 -145.144993 
L 306.228498 -147.6093 
L 304.049609 -148.885952 
L 301.870719 -151.093799 
L 299.69183 -153.475075 
L 297.51294 -153.806384 
L 295.33405 -156.530361 
L 293.155161 -156.372589 
L 290.976271 -156.916884 
L 288.797382 -156.491821 
L 286.618492 -157.140466 
L 284.439603 -155.859306 
L 282.260713 -154.711461 
L 280.081824 -151.861268 
L 277.902934 -152.624785 
L 275.724044 -149.849156 
L 273.545155 -148.263201 
L 271.366265 -145.375225 
L 269.187376 -143.159896 
L 267.008486 -139.673889 
L 264.829597 -138.197115 
L 262.650707 -135.826451 
L 260.471817 -132.883992 
L 258.292928 -130.797986 
L 256.114038 -127.572313 
L 253.935149 -127.342287 
L 251.756259 -123.46338 
L 249.57737 -123.276966 
L 247.39848 -121.238832 
L 245.21959 -119.103175 
L 243.040701 -118.536974 
L 240.861811 -116.643801 
L 238.682922 -114.728891 
L 236.504032 -116.109678 
L 234.325143 -116.665321 
L 232.146253 -114.67641 
L 229.967363 -116.889077 
L 227.788474 -117.360716 
L 225.609584 -117.755942 
L 223.430695 -119.081971 
L 221.251805 -121.676376 
L 219.072916 -123.485222 
L 216.894026 -125.167599 
L 214.715137 -130.807342 
L 212.536247 -133.444304 
L 210.357357 -137.840376 
L 208.178468 -143.136136 
L 205.999578 -145.832975 
L 203.820689 -154.190871 
L 201.641799 -163.877372 
L 199.46291 -170.225161 
L 197.28402 -178.465663 
L 195.10513 -190.00944 
L 192.926241 -203.378953 
L 190.747351 -216.026856 
L 188.568462 -232.958247 
L 186.389572 -250.972107 
L 184.210683 -266.803399 
L 182.031793 -277.700818 
L 179.852903 -288.325367 
L 177.674014 -291.57225 
L 175.495124 -284.971166 
L 173.316235 -259.388525 
L 171.137345 -219.615062 
L 168.958456 -177.127425 
L 166.779566 -123.613997 
L 164.600676 -85.877165 
L 162.421787 -62.069908 
L 160.242897 -52.778098 
L 158.064008 -50.085485 
L 155.885118 -49.700543 
L 153.706229 -49.65225 
L 151.527339 -49.65225 
L 149.34845 -49.65225 
L 147.16956 -49.65225 
L 144.99067 -49.65225 
L 142.811781 -49.65225 
L 140.632891 -49.65225 
L 138.454002 -49.65225 
L 136.275112 -49.65225 
L 134.096223 -49.65225 
L 131.917333 -49.65225 
L 129.738443 -49.65225 
L 127.559554 -49.65225 
L 125.380664 -49.65225 
L 123.201775 -49.65225 
L 121.022885 -49.65225 
L 118.843996 -49.65225 
L 116.665106 -49.65225 
L 114.486216 -49.65225 
L 112.307327 -49.65225 
L 110.128437 -49.65225 
L 107.949548 -49.65225 
L 105.770658 -49.65225 
L 103.591769 -49.65225 
L 101.412879 -49.65225 
L 99.233989 -49.65225 
L 97.0551 -49.65225 
L 94.87621 -49.65225 
L 92.697321 -49.65225 
L 90.518431 -49.65225 
L 88.339542 -49.65225 
L 86.160652 -49.65225 
L 83.981763 -49.65225 
L 81.802873 -49.65225 
L 79.623983 -49.65225 
L 77.445094 -49.65225 
L 75.266204 -49.65225 
L 73.087315 -49.65225 
L 70.908425 -49.65225 
L 68.729536 -49.65225 
L 66.550646 -49.65225 
L 64.371756 -49.65225 
L 62.192867 -49.65225 
L 60.013977 -49.65225 
z
" style="stroke: #1f77b4; stroke-opacity: 0.3"/>
    </defs>
    <g clip-path="url(#p5ddd2d9f48)">
     <use xlink:href="#m53c9bf6d32" x="0" y="310.86825" style="fill: #1f77b4; fill-opacity: 0.3; stroke: #1f77b4; stroke-opacity: 0.3"/>
    </g>
   </g>
   <g id="matplotlib.axis_1">
    <g id="xtick_1">
     <g id="line2d_1">
      <defs>
       <path id="m2c5dec0331" d="M 0 0 
L 0 3.5 
" style="stroke: #000000; stroke-width: 0.8"/>
      </defs>
      <g>
       <use xlink:href="#m2c5dec0331" x="58.924532" y="273.312" style="stroke: #000000; stroke-width: 0.8"/>
      </g>
     </g>
     <g id="text_1">
      <!-- 0.0 -->
      <g transform="translate(50.97297 287.910437) scale(0.1 -0.1)">
       <defs>
        <path id="DejaVuSans-30" d="M 2034 4250 
Q 1547 4250 1301 3770 
Q 1056 3291 1056 2328 
Q 1056 1369 1301 889 
Q 1547 409 2034 409 
Q 2525 409 2770 889 
Q 3016 1369 3016 2328 
Q 3016 3291 2770 3770 
Q 2525 4250 2034 4250 
z
M 2034 4750 
Q 2819 4750 3233 4129 
Q 3647 3509 3647 2328 
Q 3647 1150 3233 529 
Q 2819 -91 2034 -91 
Q 1250 -91 836 529 
Q 422 1150 422 2328 
Q 422 3509 836 4129 
Q 1250 4750 2034 4750 
z
" transform="scale(0.015625)"/>
        <path id="DejaVuSans-2e" d="M 684 794 
L 1344 794 
L 1344 0 
L 684 0 
L 684 794 
z
" transform="scale(0.015625)"/>
       </defs>
       <use xlink:href="#DejaVuSans-30"/>
       <use xlink:href="#DejaVuSans-2e" transform="translate(63.623047 0)"/>
       <use xlink:href="#DejaVuSans-30" transform="translate(95.410156 0)"/>
      </g>
     </g>
    </g>
    <g id="xtick_2">
     <g id="line2d_2">
      <g>
       <use xlink:href="#m2c5dec0331" x="113.396772" y="273.312" style="stroke: #000000; stroke-width: 0.8"/>
      </g>
     </g>
     <g id="text_2">
      <!-- 0.5 -->
      <g transform="translate(105.445209 287.910437) scale(0.1 -0.1)">
       <defs>
        <path id="DejaVuSans-35" d="M 691 4666 
L 3169 4666 
L 3169 4134 
L 1269 4134 
L 1269 2991 
Q 1406 3038 1543 3061 
Q 1681 3084 1819 3084 
Q 2600 3084 3056 2656 
Q 3513 2228 3513 1497 
Q 3513 744 3044 326 
Q 2575 -91 1722 -91 
Q 1428 -91 1123 -41 
Q 819 9 494 109 
L 494 744 
Q 775 591 1075 516 
Q 1375 441 1709 441 
Q 2250 441 2565 725 
Q 2881 1009 2881 1497 
Q 2881 1984 2565 2268 
Q 2250 2553 1709 2553 
Q 1456 2553 1204 2497 
Q 953 2441 691 2322 
L 691 4666 
z
" transform="scale(0.015625)"/>
       </defs>
       <use xlink:href="#DejaVuSans-30"/>
       <use xlink:href="#DejaVuSans-2e" transform="translate(63.623047 0)"/>
       <use xlink:href="#DejaVuSans-35" transform="translate(95.410156 0)"/>
      </g>
     </g>
    </g>
    <g id="xtick_3">
     <g id="line2d_3">
      <g>
       <use xlink:href="#m2c5dec0331" x="167.869011" y="273.312" style="stroke: #000000; stroke-width: 0.8"/>
      </g>
     </g>
     <g id="text_3">
      <!-- 1.0 -->
      <g transform="translate(159.917448 287.910437) scale(0.1 -0.1)">
       <defs>
        <path id="DejaVuSans-31" d="M 794 531 
L 1825 531 
L 1825 4091 
L 703 3866 
L 703 4441 
L 1819 4666 
L 2450 4666 
L 2450 531 
L 3481 531 
L 3481 0 
L 794 0 
L 794 531 
z
" transform="scale(0.015625)"/>
       </defs>
       <use xlink:href="#DejaVuSans-31"/>
       <use xlink:href="#DejaVuSans-2e" transform="translate(63.623047 0)"/>
       <use xlink:href="#DejaVuSans-30" transform="translate(95.410156 0)"/>
      </g>
     </g>
    </g>
    <g id="xtick_4">
     <g id="line2d_4">
      <g>
       <use xlink:href="#m2c5dec0331" x="222.34125" y="273.312" style="stroke: #000000; stroke-width: 0.8"/>
      </g>
     </g>
     <g id="text_4">
      <!-- 1.5 -->
      <g transform="translate(214.389687 287.910437) scale(0.1 -0.1)">
       <use xlink:href="#DejaVuSans-31"/>
       <use xlink:href="#DejaVuSans-2e" transform="translate(63.623047 0)"/>
       <use xlink:href="#DejaVuSans-35" transform="translate(95.410156 0)"/>
      </g>
     </g>
    </g>
    <g id="xtick_5">
     <g id="line2d_5">
      <g>
       <use xlink:href="#m2c5dec0331" x="276.813489" y="273.312" style="stroke: #000000; stroke-width: 0.8"/>
      </g>
     </g>
     <g id="text_5">
      <!-- 2.0 -->
      <g transform="translate(268.861927 287.910437) scale(0.1 -0.1)">
       <defs>
        <path id="DejaVuSans-32" d="M 1228 531 
L 3431 531 
L 3431 0 
L 469 0 
L 469 531 
Q 828 903 1448 1529 
Q 2069 2156 2228 2338 
Q 2531 2678 2651 2914 
Q 2772 3150 2772 3378 
Q 2772 3750 2511 3984 
Q 2250 4219 1831 4219 
Q 1534 4219 1204 4116 
Q 875 4013 500 3803 
L 500 4441 
Q 881 4594 1212 4672 
Q 1544 4750 1819 4750 
Q 2544 4750 2975 4387 
Q 3406 4025 3406 3419 
Q 3406 3131 3298 2873 
Q 3191 2616 2906 2266 
Q 2828 2175 2409 1742 
Q 1991 1309 1228 531 
z
" transform="scale(0.015625)"/>
       </defs>
       <use xlink:href="#DejaVuSans-32"/>
       <use xlink:href="#DejaVuSans-2e" transform="translate(63.623047 0)"/>
       <use xlink:href="#DejaVuSans-30" transform="translate(95.410156 0)"/>
      </g>
     </g>
    </g>
    <g id="xtick_6">
     <g id="line2d_6">
      <g>
       <use xlink:href="#m2c5dec0331" x="331.285728" y="273.312" style="stroke: #000000; stroke-width: 0.8"/>
      </g>
     </g>
     <g id="text_6">
      <!-- 2.5 -->
      <g transform="translate(323.334166 287.910437) scale(0.1 -0.1)">
       <use xlink:href="#DejaVuSans-32"/>
       <use xlink:href="#DejaVuSans-2e" transform="translate(63.623047 0)"/>
       <use xlink:href="#DejaVuSans-35" transform="translate(95.410156 0)"/>
      </g>
     </g>
    </g>
    <g id="xtick_7">
     <g id="line2d_7">
      <g>
       <use xlink:href="#m2c5dec0331" x="385.757968" y="273.312" style="stroke: #000000; stroke-width: 0.8"/>
      </g>
     </g>
     <g id="text_7">
      <!-- 3.0 -->
      <g transform="translate(377.806405 287.910437) scale(0.1 -0.1)">
       <defs>
        <path id="DejaVuSans-33" d="M 2597 2516 
Q 3050 2419 3304 2112 
Q 3559 1806 3559 1356 
Q 3559 666 3084 287 
Q 2609 -91 1734 -91 
Q 1441 -91 1130 -33 
Q 819 25 488 141 
L 488 750 
Q 750 597 1062 519 
Q 1375 441 1716 441 
Q 2309 441 2620 675 
Q 2931 909 2931 1356 
Q 2931 1769 2642 2001 
Q 2353 2234 1838 2234 
L 1294 2234 
L 1294 2753 
L 1863 2753 
Q 2328 2753 2575 2939 
Q 2822 3125 2822 3475 
Q 2822 3834 2567 4026 
Q 2313 4219 1838 4219 
Q 1578 4219 1281 4162 
Q 984 4106 628 3988 
L 628 4550 
Q 988 4650 1302 4700 
Q 1616 4750 1894 4750 
Q 2613 4750 3031 4423 
Q 3450 4097 3450 3541 
Q 3450 3153 3228 2886 
Q 3006 2619 2597 2516 
z
" transform="scale(0.015625)"/>
       </defs>
       <use xlink:href="#DejaVuSans-33"/>
       <use xlink:href="#DejaVuSans-2e" transform="translate(63.623047 0)"/>
       <use xlink:href="#DejaVuSans-30" transform="translate(95.410156 0)"/>
      </g>
     </g>
    </g>
    <g id="text_8">
     <!-- r (reduced units) -->
     <g transform="translate(180.552188 301.588562) scale(0.1 -0.1)">
      <defs>
       <path id="DejaVuSans-72" d="M 2631 2963 
Q 2534 3019 2420 3045 
Q 2306 3072 2169 3072 
Q 1681 3072 1420 2755 
Q 1159 2438 1159 1844 
L 1159 0 
L 581 0 
L 581 3500 
L 1159 3500 
L 1159 2956 
Q 1341 3275 1631 3429 
Q 1922 3584 2338 3584 
Q 2397 3584 2469 3576 
Q 2541 3569 2628 3553 
L 2631 2963 
z
" transform="scale(0.015625)"/>
       <path id="DejaVuSans-20" transform="scale(0.015625)"/>
       <path id="DejaVuSans-28" d="M 1984 4856 
Q 1566 4138 1362 3434 
Q 1159 2731 1159 2009 
Q 1159 1288 1364 580 
Q 1569 -128 1984 -844 
L 1484 -844 
Q 1016 -109 783 600 
Q 550 1309 550 2009 
Q 550 2706 781 3412 
Q 1013 4119 1484 4856 
L 1984 4856 
z
" transform="scale(0.015625)"/>
       <path id="DejaVuSans-65" d="M 3597 1894 
L 3597 1613 
L 953 1613 
Q 991 1019 1311 708 
Q 1631 397 2203 397 
Q 2534 397 2845 478 
Q 3156 559 3463 722 
L 3463 178 
Q 3153 47 2828 -22 
Q 2503 -91 2169 -91 
Q 1331 -91 842 396 
Q 353 884 353 1716 
Q 353 2575 817 3079 
Q 1281 3584 2069 3584 
Q 2775 3584 3186 3129 
Q 3597 2675 3597 1894 
z
M 3022 2063 
Q 3016 2534 2758 2815 
Q 2500 3097 2075 3097 
Q 1594 3097 1305 2825 
Q 1016 2553 972 2059 
L 3022 2063 
z
" transform="scale(0.015625)"/>
       <path id="DejaVuSans-64" d="M 2906 2969 
L 2906 4863 
L 3481 4863 
L 3481 0 
L 2906 0 
L 2906 525 
Q 2725 213 2448 61 
Q 2172 -91 1784 -91 
Q 1150 -91 751 415 
Q 353 922 353 1747 
Q 353 2572 751 3078 
Q 1150 3584 1784 3584 
Q 2172 3584 2448 3432 
Q 2725 3281 2906 2969 
z
M 947 1747 
Q 947 1113 1208 752 
Q 1469 391 1925 391 
Q 2381 391 2643 752 
Q 2906 1113 2906 1747 
Q 2906 2381 2643 2742 
Q 2381 3103 1925 3103 
Q 1469 3103 1208 2742 
Q 947 2381 947 1747 
z
" transform="scale(0.015625)"/>
       <path id="DejaVuSans-75" d="M 544 1381 
L 544 3500 
L 1119 3500 
L 1119 1403 
Q 1119 906 1312 657 
Q 1506 409 1894 409 
Q 2359 409 2629 706 
Q 2900 1003 2900 1516 
L 2900 3500 
L 3475 3500 
L 3475 0 
L 2900 0 
L 2900 538 
Q 2691 219 2414 64 
Q 2138 -91 1772 -91 
Q 1169 -91 856 284 
Q 544 659 544 1381 
z
M 1991 3584 
L 1991 3584 
z
" transform="scale(0.015625)"/>
       <path id="DejaVuSans-63" d="M 3122 3366 
L 3122 2828 
Q 2878 2963 2633 3030 
Q 2388 3097 2138 3097 
Q 1578 3097 1268 2742 
Q 959 2388 959 1747 
Q 959 1106 1268 751 
Q 1578 397 2138 397 
Q 2388 397 2633 464 
Q 2878 531 3122 666 
L 3122 134 
Q 2881 22 2623 -34 
Q 2366 -91 2075 -91 
Q 1284 -91 818 406 
Q 353 903 353 1747 
Q 353 2603 823 3093 
Q 1294 3584 2113 3584 
Q 2378 3584 2631 3529 
Q 2884 3475 3122 3366 
z
" transform="scale(0.015625)"/>
       <path id="DejaVuSans-6e" d="M 3513 2113 
L 3513 0 
L 2938 0 
L 2938 2094 
Q 2938 2591 2744 2837 
Q 2550 3084 2163 3084 
Q 1697 3084 1428 2787 
Q 1159 2491 1159 1978 
L 1159 0 
L 581 0 
L 581 3500 
L 1159 3500 
L 1159 2956 
Q 1366 3272 1645 3428 
Q 1925 3584 2291 3584 
Q 2894 3584 3203 3211 
Q 3513 2838 3513 2113 
z
" transform="scale(0.015625)"/>
       <path id="DejaVuSans-69" d="M 603 3500 
L 1178 3500 
L 1178 0 
L 603 0 
L 603 3500 
z
M 603 4863 
L 1178 4863 
L 1178 4134 
L 603 4134 
L 603 4863 
z
" transform="scale(0.015625)"/>
       <path id="DejaVuSans-74" d="M 1172 4494 
L 1172 3500 
L 2356 3500 
L 2356 3053 
L 1172 3053 
L 1172 1153 
Q 1172 725 1289 603 
Q 1406 481 1766 481 
L 2356 481 
L 2356 0 
L 1766 0 
Q 1100 0 847 248 
Q 594 497 594 1153 
L 594 3053 
L 172 3053 
L 172 3500 
L 594 3500 
L 594 4494 
L 1172 4494 
z
" transform="scale(0.015625)"/>
       <path id="DejaVuSans-73" d="M 2834 3397 
L 2834 2853 
Q 2591 2978 2328 3040 
Q 2066 3103 1784 3103 
Q 1356 3103 1142 2972 
Q 928 2841 928 2578 
Q 928 2378 1081 2264 
Q 1234 2150 1697 2047 
L 1894 2003 
Q 2506 1872 2764 1633 
Q 3022 1394 3022 966 
Q 3022 478 2636 193 
Q 2250 -91 1575 -91 
Q 1294 -91 989 -36 
Q 684 19 347 128 
L 347 722 
Q 666 556 975 473 
Q 1284 391 1588 391 
Q 1994 391 2212 530 
Q 2431 669 2431 922 
Q 2431 1156 2273 1281 
Q 2116 1406 1581 1522 
L 1381 1569 
Q 847 1681 609 1914 
Q 372 2147 372 2553 
Q 372 3047 722 3315 
Q 1072 3584 1716 3584 
Q 2034 3584 2315 3537 
Q 2597 3491 2834 3397 
z
" transform="scale(0.015625)"/>
       <path id="DejaVuSans-29" d="M 513 4856 
L 1013 4856 
Q 1481 4119 1714 3412 
Q 1947 2706 1947 2009 
Q 1947 1309 1714 600 
Q 1481 -109 1013 -844 
L 513 -844 
Q 928 -128 1133 580 
Q 1338 1288 1338 2009 
Q 1338 2731 1133 3434 
Q 928 4138 513 4856 
z
" transform="scale(0.015625)"/>
      </defs>
      <use xlink:href="#DejaVuSans-72"/>
      <use xlink:href="#DejaVuSans-20" transform="translate(41.113281 0)"/>
      <use xlink:href="#DejaVuSans-28" transform="translate(72.900391 0)"/>
      <use xlink:href="#DejaVuSans-72" transform="translate(111.914062 0)"/>
      <use xlink:href="#DejaVuSans-65" transform="translate(150.777344 0)"/>
      <use xlink:href="#DejaVuSans-64" transform="translate(212.300781 0)"/>
      <use xlink:href="#DejaVuSans-75" transform="translate(275.777344 0)"/>
      <use xlink:href="#DejaVuSans-63" transform="translate(339.15625 0)"/>
      <use xlink:href="#DejaVuSans-65" transform="translate(394.136719 0)"/>
      <use xlink:href="#DejaVuSans-64" transform="translate(455.660156 0)"/>
      <use xlink:href="#DejaVuSans-20" transform="translate(519.136719 0)"/>
      <use xlink:href="#DejaVuSans-75" transform="translate(550.923828 0)"/>
      <use xlink:href="#DejaVuSans-6e" transform="translate(614.302734 0)"/>
      <use xlink:href="#DejaVuSans-69" transform="translate(677.681641 0)"/>
      <use xlink:href="#DejaVuSans-74" transform="translate(705.464844 0)"/>
      <use xlink:href="#DejaVuSans-73" transform="translate(744.673828 0)"/>
      <use xlink:href="#DejaVuSans-29" transform="translate(796.773438 0)"/>
     </g>
    </g>
   </g>
   <g id="matplotlib.axis_2">
    <g id="ytick_1">
     <g id="line2d_8">
      <defs>
       <path id="ma2753e01ef" d="M 0 0 
L -3.5 0 
" style="stroke: #000000; stroke-width: 0.8"/>
      </defs>
      <g>
       <use xlink:href="#ma2753e01ef" x="43.78125" y="261.216" style="stroke: #000000; stroke-width: 0.8"/>
      </g>
     </g>
     <g id="text_9">
      <!-- 0.0 -->
      <g transform="translate(20.878125 265.015219) scale(0.1 -0.1)">
       <use xlink:href="#DejaVuSans-30"/>
       <use xlink:href="#DejaVuSans-2e" transform="translate(63.623047 0)"/>
       <use xlink:href="#DejaVuSans-30" transform="translate(95.410156 0)"/>
      </g>
     </g>
    </g>
    <g id="ytick_2">
     <g id="line2d_9">
      <g>
       <use xlink:href="#ma2753e01ef" x="43.78125" y="218.557876" style="stroke: #000000; stroke-width: 0.8"/>
      </g>
     </g>
     <g id="text_10">
      <!-- 0.5 -->
      <g transform="translate(20.878125 222.357095) scale(0.1 -0.1)">
       <use xlink:href="#DejaVuSans-30"/>
       <use xlink:href="#DejaVuSans-2e" transform="translate(63.623047 0)"/>
       <use xlink:href="#DejaVuSans-35" transform="translate(95.410156 0)"/>
      </g>
     </g>
    </g>
    <g id="ytick_3">
     <g id="line2d_10">
      <g>
       <use xlink:href="#ma2753e01ef" x="43.78125" y="175.899752" style="stroke: #000000; stroke-width: 0.8"/>
      </g>
     </g>
     <g id="text_11">
      <!-- 1.0 -->
      <g transform="translate(20.878125 179.69897) scale(0.1 -0.1)">
       <use xlink:href="#DejaVuSans-31"/>
       <use xlink:href="#DejaVuSans-2e" transform="translate(63.623047 0)"/>
       <use xlink:href="#DejaVuSans-30" transform="translate(95.410156 0)"/>
      </g>
     </g>
    </g>
    <g id="ytick_4">
     <g id="line2d_11">
      <g>
       <use xlink:href="#ma2753e01ef" x="43.78125" y="133.241627" style="stroke: #000000; stroke-width: 0.8"/>
      </g>
     </g>
     <g id="text_12">
      <!-- 1.5 -->
      <g transform="translate(20.878125 137.040846) scale(0.1 -0.1)">
       <use xlink:href="#DejaVuSans-31"/>
       <use xlink:href="#DejaVuSans-2e" transform="translate(63.623047 0)"/>
       <use xlink:href="#DejaVuSans-35" transform="translate(95.410156 0)"/>
      </g>
     </g>
    </g>
    <g id="ytick_5">
     <g id="line2d_12">
      <g>
       <use xlink:href="#ma2753e01ef" x="43.78125" y="90.583503" style="stroke: #000000; stroke-width: 0.8"/>
      </g>
     </g>
     <g id="text_13">
      <!-- 2.0 -->
      <g transform="translate(20.878125 94.382722) scale(0.1 -0.1)">
       <use xlink:href="#DejaVuSans-32"/>
       <use xlink:href="#DejaVuSans-2e" transform="translate(63.623047 0)"/>
       <use xlink:href="#DejaVuSans-30" transform="translate(95.410156 0)"/>
      </g>
     </g>
    </g>
    <g id="ytick_6">
     <g id="line2d_13">
      <g>
       <use xlink:href="#ma2753e01ef" x="43.78125" y="47.925379" style="stroke: #000000; stroke-width: 0.8"/>
      </g>
     </g>
     <g id="text_14">
      <!-- 2.5 -->
      <g transform="translate(20.878125 51.724598) scale(0.1 -0.1)">
       <use xlink:href="#DejaVuSans-32"/>
       <use xlink:href="#DejaVuSans-2e" transform="translate(63.623047 0)"/>
       <use xlink:href="#DejaVuSans-35" transform="translate(95.410156 0)"/>
      </g>
     </g>
    </g>
    <g id="text_15">
     <!-- g(r) -->
     <g transform="translate(14.798438 149.38725) rotate(-90) scale(0.1 -0.1)">
      <defs>
       <path id="DejaVuSans-67" d="M 2906 1791 
Q 2906 2416 2648 2759 
Q 2391 3103 1925 3103 
Q 1463 3103 1205 2759 
Q 947 2416 947 1791 
Q 947 1169 1205 825 
Q 1463 481 1925 481 
Q 2391 481 2648 825 
Q 2906 1169 2906 1791 
z
M 3481 434 
Q 3481 -459 3084 -895 
Q 2688 -1331 1869 -1331 
Q 1566 -1331 1297 -1286 
Q 1028 -1241 775 -1147 
L 775 -588 
Q 1028 -725 1275 -790 
Q 1522 -856 1778 -856 
Q 2344 -856 2625 -561 
Q 2906 -266 2906 331 
L 2906 616 
Q 2728 306 2450 153 
Q 2172 0 1784 0 
Q 1141 0 747 490 
Q 353 981 353 1791 
Q 353 2603 747 3093 
Q 1141 3584 1784 3584 
Q 2172 3584 2450 3431 
Q 2728 3278 2906 2969 
L 2906 3500 
L 3481 3500 
L 3481 434 
z
" transform="scale(0.015625)"/>
      </defs>
      <use xlink:href="#DejaVuSans-67"/>
      <use xlink:href="#DejaVuSans-28" transform="translate(63.476562 0)"/>
      <use xlink:href="#DejaVuSans-72" transform="translate(102.490234 0)"/>
      <use xlink:href="#DejaVuSans-29" transform="translate(143.603516 0)"/>
     </g>
    </g>
   </g>
   <g id="line2d_14">
    <path d="M 60.013977 261.216 
L 155.885118 261.186049 
L 158.064008 260.857884 
L 160.242897 258.322096 
L 162.421787 249.53116 
L 164.600676 226.041365 
L 166.779566 190.267225 
L 168.958456 136.976073 
L 171.137345 96.357451 
L 173.316235 57.979605 
L 175.495124 32.081233 
L 177.674014 24.687147 
L 179.852903 28.781932 
L 182.031793 38.051462 
L 184.210683 49.836196 
L 186.389572 64.444722 
L 190.747351 97.705254 
L 195.10513 123.421595 
L 197.28402 134.979096 
L 199.46291 142.470002 
L 201.641799 148.867636 
L 205.999578 165.821305 
L 208.178468 168.630415 
L 210.357357 174.247149 
L 212.536247 177.830497 
L 214.715137 180.796325 
L 216.894026 186.57656 
L 219.072916 188.593718 
L 221.251805 189.921066 
L 223.430695 192.457874 
L 225.609584 193.772419 
L 229.967363 195.018794 
L 232.146253 196.767482 
L 234.325143 195.361159 
L 236.504032 195.837696 
L 238.682922 196.515409 
L 240.861811 194.665789 
L 243.040701 193.141459 
L 245.21959 192.558167 
L 249.57737 188.758332 
L 251.756259 188.60689 
L 253.935149 184.985282 
L 256.114038 184.683575 
L 258.292928 181.628996 
L 260.471817 179.441156 
L 262.650707 176.404592 
L 264.829597 174.297927 
L 267.008486 173.279655 
L 269.187376 169.888944 
L 271.366265 167.525519 
L 273.545155 164.729264 
L 275.724044 162.860595 
L 277.902934 160.538899 
L 280.081824 161.044785 
L 282.260713 158.349188 
L 284.439603 157.514566 
L 286.618492 156.328649 
L 288.797382 156.855442 
L 290.976271 156.28025 
L 293.155161 156.416786 
L 295.33405 156.40995 
L 297.51294 159.148995 
L 299.69183 159.304812 
L 304.049609 163.376452 
L 306.228498 164.533474 
L 308.407388 166.74872 
L 310.586277 169.331133 
L 312.765167 170.678896 
L 314.944057 172.658034 
L 317.122946 173.132629 
L 319.301836 175.828015 
L 321.480725 176.853334 
L 325.838504 179.049958 
L 328.017394 179.999916 
L 330.196284 181.320392 
L 332.375173 181.387239 
L 334.554063 182.381193 
L 336.732952 183.091205 
L 338.911842 183.452892 
L 341.090731 183.5422 
L 343.269621 182.62093 
L 345.448511 182.201332 
L 347.6274 183.093883 
L 351.985179 181.931021 
L 354.164069 181.891968 
L 356.342958 180.91233 
L 358.521848 181.492605 
L 360.700737 180.948308 
L 362.879627 180.787411 
L 367.237406 178.503617 
L 369.416296 177.665412 
L 373.774075 176.719621 
L 375.952964 177.381181 
L 378.131854 175.807905 
L 380.310744 176.664887 
L 382.489633 175.02942 
L 384.668523 175.43549 
L 384.668523 175.43549 
" clip-path="url(#p5ddd2d9f48)" style="fill: none; stroke: #1f77b4; stroke-width: 1.5; stroke-linecap: square"/>
   </g>
   <g id="line2d_15">
    <path d="M 43.78125 175.899752 
L 400.90125 175.899752 
" clip-path="url(#p5ddd2d9f48)" style="fill: none; stroke-dasharray: 5.55,2.4; stroke-dashoffset: 0; stroke: #000000; stroke-opacity: 0.4; stroke-width: 1.5"/>
   </g>
   <g id="patch_3">
    <path d="M 43.78125 273.312 
L 43.78125 7.2 
" style="fill: none; stroke: #000000; stroke-width: 0.8; stroke-linejoin: miter; stroke-linecap: square"/>
   </g>
   <g id="patch_4">
    <path d="M 400.90125 273.312 
L 400.90125 7.2 
" style="fill: none; stroke: #000000; stroke-width: 0.8; stroke-linejoin: miter; stroke-linecap: square"/>
   </g>
   <g id="patch_5">
    <path d="M 43.78125 273.312 
L 400.90125 273.312 
" style="fill: none; stroke: #000000; stroke-width: 0.8; stroke-linejoin: miter; stroke-linecap: square"/>
   </g>
   <g id="patch_6">
    <path d="M 43.78125 7.2 
L 400.90125 7.2 
" style="fill: none; stroke: #000000; stroke-width: 0.8; stroke-linejoin: miter; stroke-linecap: square"/>
   </g>
   <g id="legend_1">
    <g id="patch_7">
     <path d="M 327.740313 44.55625 
L 393.90125 44.55625 
Q 395.90125 44.55625 395.90125 42.55625 
L 395.90125 14.2 
Q 395.90125 12.2 393.90125 12.2 
L 327.740313 12.2 
Q 325.740313 12.2 325.740313 14.2 
L 325.740313 42.55625 
Q 325.740313 44.55625 327.740313 44.55625 
z
" style="fill: #ffffff; opacity: 0.8; stroke: #cccccc; stroke-linejoin: miter"/>
    </g>
    <g id="line2d_16">
     <path d="M 329.740313 20.298437 
L 339.740313 20.298437 
L 349.740313 20.298437 
" style="fill: none; stroke: #1f77b4; stroke-width: 1.5; stroke-linecap: square"/>
    </g>
    <g id="text_16">
     <!-- Mean -->
     <g transform="translate(357.740313 23.798437) scale(0.1 -0.1)">
      <defs>
       <path id="DejaVuSans-4d" d="M 628 4666 
L 1569 4666 
L 2759 1491 
L 3956 4666 
L 4897 4666 
L 4897 0 
L 4281 0 
L 4281 4097 
L 3078 897 
L 2444 897 
L 1241 4097 
L 1241 0 
L 628 0 
L 628 4666 
z
" transform="scale(0.015625)"/>
       <path id="DejaVuSans-61" d="M 2194 1759 
Q 1497 1759 1228 1600 
Q 959 1441 959 1056 
Q 959 750 1161 570 
Q 1363 391 1709 391 
Q 2188 391 2477 730 
Q 2766 1069 2766 1631 
L 2766 1759 
L 2194 1759 
z
M 3341 1997 
L 3341 0 
L 2766 0 
L 2766 531 
Q 2569 213 2275 61 
Q 1981 -91 1556 -91 
Q 1019 -91 701 211 
Q 384 513 384 1019 
Q 384 1609 779 1909 
Q 1175 2209 1959 2209 
L 2766 2209 
L 2766 2266 
Q 2766 2663 2505 2880 
Q 2244 3097 1772 3097 
Q 1472 3097 1187 3025 
Q 903 2953 641 2809 
L 641 3341 
Q 956 3463 1253 3523 
Q 1550 3584 1831 3584 
Q 2591 3584 2966 3190 
Q 3341 2797 3341 1997 
z
" transform="scale(0.015625)"/>
      </defs>
      <use xlink:href="#DejaVuSans-4d"/>
      <use xlink:href="#DejaVuSans-65" transform="translate(86.279297 0)"/>
      <use xlink:href="#DejaVuSans-61" transform="translate(147.802734 0)"/>
      <use xlink:href="#DejaVuSans-6e" transform="translate(209.082031 0)"/>
     </g>
    </g>
    <g id="patch_8">
     <path d="M 329.740313 38.476562 
L 349.740313 38.476562 
L 349.740313 31.476562 
L 329.740313 31.476562 
z
" style="fill: #1f77b4; fill-opacity: 0.3; stroke: #1f77b4; stroke-opacity: 0.3; stroke-linejoin: miter"/>
    </g>
    <g id="text_17">
     <!-- Std Err -->
     <g transform="translate(357.740313 38.476562) scale(0.1 -0.1)">
      <defs>
       <path id="DejaVuSans-53" d="M 3425 4513 
L 3425 3897 
Q 3066 4069 2747 4153 
Q 2428 4238 2131 4238 
Q 1616 4238 1336 4038 
Q 1056 3838 1056 3469 
Q 1056 3159 1242 3001 
Q 1428 2844 1947 2747 
L 2328 2669 
Q 3034 2534 3370 2195 
Q 3706 1856 3706 1288 
Q 3706 609 3251 259 
Q 2797 -91 1919 -91 
Q 1588 -91 1214 -16 
Q 841 59 441 206 
L 441 856 
Q 825 641 1194 531 
Q 1563 422 1919 422 
Q 2459 422 2753 634 
Q 3047 847 3047 1241 
Q 3047 1584 2836 1778 
Q 2625 1972 2144 2069 
L 1759 2144 
Q 1053 2284 737 2584 
Q 422 2884 422 3419 
Q 422 4038 858 4394 
Q 1294 4750 2059 4750 
Q 2388 4750 2728 4690 
Q 3069 4631 3425 4513 
z
" transform="scale(0.015625)"/>
       <path id="DejaVuSans-45" d="M 628 4666 
L 3578 4666 
L 3578 4134 
L 1259 4134 
L 1259 2753 
L 3481 2753 
L 3481 2222 
L 1259 2222 
L 1259 531 
L 3634 531 
L 3634 0 
L 628 0 
L 628 4666 
z
" transform="scale(0.015625)"/>
      </defs>
      <use xlink:href="#DejaVuSans-53"/>
      <use xlink:href="#DejaVuSans-74" transform="translate(63.476562 0)"/>
      <use xlink:href="#DejaVuSans-64" transform="translate(102.685547 0)"/>
      <use xlink:href="#DejaVuSans-20" transform="translate(166.162109 0)"/>
      <use xlink:href="#DejaVuSans-45" transform="translate(197.949219 0)"/>
      <use xlink:href="#DejaVuSans-72" transform="translate(261.132812 0)"/>
      <use xlink:href="#DejaVuSans-72" transform="translate(300.496094 0)"/>
     </g>
    </g>
   </g>
  </g>
 </g>
 <defs>
  <clipPath id="p5ddd2d9f48">
   <rect x="43.78125" y="7.2" width="357.12" height="266.112"/>
  </clipPath>
 </defs>
</svg>
