<?xml version="1.0" encoding="utf-8" standalone="no"?>
<!DOCTYPE svg PUBLIC "-//W3C//DTD SVG 1.1//EN"
  "http://www.w3.org/Graphics/SVG/1.1/DTD/svg11.dtd">
<svg xmlns:xlink="http://www.w3.org/1999/xlink" width="854.972125pt" height="349.746125pt" viewBox="0 0 854.972125 349.746125" xmlns="http://www.w3.org/2000/svg" version="1.1">
 <metadata>
  <rdf:RDF xmlns:dc="http://purl.org/dc/elements/1.1/" xmlns:cc="http://creativecommons.org/ns#" xmlns:rdf="http://www.w3.org/1999/02/22-rdf-syntax-ns#">
   <cc:Work>
    <dc:type rdf:resource="http://purl.org/dc/dcmitype/StillImage"/>
    <dc:date>2025-12-10T14:57:33.283469</dc:date>
    <dc:format>image/svg+xml</dc:format>
    <dc:creator>
     <cc:Agent>
      <dc:title>Matplotlib v3.10.1, https://matplotlib.org/</dc:title>
     </cc:Agent>
    </dc:creator>
   </cc:Work>
  </rdf:RDF>
 </metadata>
 <defs>
  <style type="text/css">*{stroke-linejoin: round; stroke-linecap: butt}</style>
 </defs>
 <g id="figure_1">
  <g id="patch_1">
   <path d="M 0 349.746125 
L 854.972125 349.746125 
L 854.972125 0 
L 0 0 
z
" style="fill: #ffffff"/>
  </g>
  <g id="axes_1">
   <g id="patch_2">
    <path d="M 44.803125 311.068 
L 425.964625 311.068 
L 425.964625 22.32 
L 44.803125 22.32 
z
" style="fill: #ffffff"/>
   </g>
   <g id="matplotlib.axis_1">
    <g id="xtick_1">
     <g id="line2d_1">
      <defs>
       <path id="m870d10fa15" d="M 0 0 
L 0 3.5 
" style="stroke: #000000; stroke-width: 0.8"/>
      </defs>
      <g>
       <use xlink:href="#m870d10fa15" x="61.149805" y="311.068" style="stroke: #000000; stroke-width: 0.8"/>
      </g>
     </g>
     <g id="text_1">
      <!-- 0.0 -->
      <g transform="translate(53.198242 325.666437) scale(0.1 -0.1)">
       <defs>
        <path id="DejaVuSans-30" d="M 2034 4250 
Q 1547 4250 1301 3770 
Q 1056 3291 1056 2328 
Q 1056 1369 1301 889 
Q 1547 409 2034 409 
Q 2525 409 2770 889 
Q 3016 1369 3016 2328 
Q 3016 3291 2770 3770 
Q 2525 4250 2034 4250 
z
M 2034 4750 
Q 2819 4750 3233 4129 
Q 3647 3509 3647 2328 
Q 3647 1150 3233 529 
Q 2819 -91 2034 -91 
Q 1250 -91 836 529 
Q 422 1150 422 2328 
Q 422 3509 836 4129 
Q 1250 4750 2034 4750 
z
" transform="scale(0.015625)"/>
        <path id="DejaVuSans-2e" d="M 684 794 
L 1344 794 
L 1344 0 
L 684 0 
L 684 794 
z
" transform="scale(0.015625)"/>
       </defs>
       <use xlink:href="#DejaVuSans-30"/>
       <use xlink:href="#DejaVuSans-2e" transform="translate(63.623047 0)"/>
       <use xlink:href="#DejaVuSans-30" transform="translate(95.410156 0)"/>
      </g>
     </g>
    </g>
    <g id="xtick_2">
     <g id="line2d_2">
      <g>
       <use xlink:href="#m870d10fa15" x="110.091959" y="311.068" style="stroke: #000000; stroke-width: 0.8"/>
      </g>
     </g>
     <g id="text_2">
      <!-- 0.5 -->
      <g transform="translate(102.140397 325.666437) scale(0.1 -0.1)">
       <defs>
        <path id="DejaVuSans-35" d="M 691 4666 
L 3169 4666 
L 3169 4134 
L 1269 4134 
L 1269 2991 
Q 1406 3038 1543 3061 
Q 1681 3084 1819 3084 
Q 2600 3084 3056 2656 
Q 3513 2228 3513 1497 
Q 3513 744 3044 326 
Q 2575 -91 1722 -91 
Q 1428 -91 1123 -41 
Q 819 9 494 109 
L 494 744 
Q 775 591 1075 516 
Q 1375 441 1709 441 
Q 2250 441 2565 725 
Q 2881 1009 2881 1497 
Q 2881 1984 2565 2268 
Q 2250 2553 1709 2553 
Q 1456 2553 1204 2497 
Q 953 2441 691 2322 
L 691 4666 
z
" transform="scale(0.015625)"/>
       </defs>
       <use xlink:href="#DejaVuSans-30"/>
       <use xlink:href="#DejaVuSans-2e" transform="translate(63.623047 0)"/>
       <use xlink:href="#DejaVuSans-35" transform="translate(95.410156 0)"/>
      </g>
     </g>
    </g>
    <g id="xtick_3">
     <g id="line2d_3">
      <g>
       <use xlink:href="#m870d10fa15" x="159.034114" y="311.068" style="stroke: #000000; stroke-width: 0.8"/>
      </g>
     </g>
     <g id="text_3">
      <!-- 1.0 -->
      <g transform="translate(151.082551 325.666437) scale(0.1 -0.1)">
       <defs>
        <path id="DejaVuSans-31" d="M 794 531 
L 1825 531 
L 1825 4091 
L 703 3866 
L 703 4441 
L 1819 4666 
L 2450 4666 
L 2450 531 
L 3481 531 
L 3481 0 
L 794 0 
L 794 531 
z
" transform="scale(0.015625)"/>
       </defs>
       <use xlink:href="#DejaVuSans-31"/>
       <use xlink:href="#DejaVuSans-2e" transform="translate(63.623047 0)"/>
       <use xlink:href="#DejaVuSans-30" transform="translate(95.410156 0)"/>
      </g>
     </g>
    </g>
    <g id="xtick_4">
     <g id="line2d_4">
      <g>
       <use xlink:href="#m870d10fa15" x="207.976268" y="311.068" style="stroke: #000000; stroke-width: 0.8"/>
      </g>
     </g>
     <g id="text_4">
      <!-- 1.5 -->
      <g transform="translate(200.024706 325.666437) scale(0.1 -0.1)">
       <use xlink:href="#DejaVuSans-31"/>
       <use xlink:href="#DejaVuSans-2e" transform="translate(63.623047 0)"/>
       <use xlink:href="#DejaVuSans-35" transform="translate(95.410156 0)"/>
      </g>
     </g>
    </g>
    <g id="xtick_5">
     <g id="line2d_5">
      <g>
       <use xlink:href="#m870d10fa15" x="256.918423" y="311.068" style="stroke: #000000; stroke-width: 0.8"/>
      </g>
     </g>
     <g id="text_5">
      <!-- 2.0 -->
      <g transform="translate(248.966861 325.666437) scale(0.1 -0.1)">
       <defs>
        <path id="DejaVuSans-32" d="M 1228 531 
L 3431 531 
L 3431 0 
L 469 0 
L 469 531 
Q 828 903 1448 1529 
Q 2069 2156 2228 2338 
Q 2531 2678 2651 2914 
Q 2772 3150 2772 3378 
Q 2772 3750 2511 3984 
Q 2250 4219 1831 4219 
Q 1534 4219 1204 4116 
Q 875 4013 500 3803 
L 500 4441 
Q 881 4594 1212 4672 
Q 1544 4750 1819 4750 
Q 2544 4750 2975 4387 
Q 3406 4025 3406 3419 
Q 3406 3131 3298 2873 
Q 3191 2616 2906 2266 
Q 2828 2175 2409 1742 
Q 1991 1309 1228 531 
z
" transform="scale(0.015625)"/>
       </defs>
       <use xlink:href="#DejaVuSans-32"/>
       <use xlink:href="#DejaVuSans-2e" transform="translate(63.623047 0)"/>
       <use xlink:href="#DejaVuSans-30" transform="translate(95.410156 0)"/>
      </g>
     </g>
    </g>
    <g id="xtick_6">
     <g id="line2d_6">
      <g>
       <use xlink:href="#m870d10fa15" x="305.860578" y="311.068" style="stroke: #000000; stroke-width: 0.8"/>
      </g>
     </g>
     <g id="text_6">
      <!-- 2.5 -->
      <g transform="translate(297.909015 325.666437) scale(0.1 -0.1)">
       <use xlink:href="#DejaVuSans-32"/>
       <use xlink:href="#DejaVuSans-2e" transform="translate(63.623047 0)"/>
       <use xlink:href="#DejaVuSans-35" transform="translate(95.410156 0)"/>
      </g>
     </g>
    </g>
    <g id="xtick_7">
     <g id="line2d_7">
      <g>
       <use xlink:href="#m870d10fa15" x="354.802732" y="311.068" style="stroke: #000000; stroke-width: 0.8"/>
      </g>
     </g>
     <g id="text_7">
      <!-- 3.0 -->
      <g transform="translate(346.85117 325.666437) scale(0.1 -0.1)">
       <defs>
        <path id="DejaVuSans-33" d="M 2597 2516 
Q 3050 2419 3304 2112 
Q 3559 1806 3559 1356 
Q 3559 666 3084 287 
Q 2609 -91 1734 -91 
Q 1441 -91 1130 -33 
Q 819 25 488 141 
L 488 750 
Q 750 597 1062 519 
Q 1375 441 1716 441 
Q 2309 441 2620 675 
Q 2931 909 2931 1356 
Q 2931 1769 2642 2001 
Q 2353 2234 1838 2234 
L 1294 2234 
L 1294 2753 
L 1863 2753 
Q 2328 2753 2575 2939 
Q 2822 3125 2822 3475 
Q 2822 3834 2567 4026 
Q 2313 4219 1838 4219 
Q 1578 4219 1281 4162 
Q 984 4106 628 3988 
L 628 4550 
Q 988 4650 1302 4700 
Q 1616 4750 1894 4750 
Q 2613 4750 3031 4423 
Q 3450 4097 3450 3541 
Q 3450 3153 3228 2886 
Q 3006 2619 2597 2516 
z
" transform="scale(0.015625)"/>
       </defs>
       <use xlink:href="#DejaVuSans-33"/>
       <use xlink:href="#DejaVuSans-2e" transform="translate(63.623047 0)"/>
       <use xlink:href="#DejaVuSans-30" transform="translate(95.410156 0)"/>
      </g>
     </g>
    </g>
    <g id="xtick_8">
     <g id="line2d_8">
      <g>
       <use xlink:href="#m870d10fa15" x="403.744887" y="311.068" style="stroke: #000000; stroke-width: 0.8"/>
      </g>
     </g>
     <g id="text_8">
      <!-- 3.5 -->
      <g transform="translate(395.793324 325.666437) scale(0.1 -0.1)">
       <use xlink:href="#DejaVuSans-33"/>
       <use xlink:href="#DejaVuSans-2e" transform="translate(63.623047 0)"/>
       <use xlink:href="#DejaVuSans-35" transform="translate(95.410156 0)"/>
      </g>
     </g>
    </g>
    <g id="text_9">
     <!-- $r_{xy}$ -->
     <g transform="translate(229.033875 338.32425) scale(0.1 -0.1)">
      <defs>
       <path id="DejaVuSans-Oblique-72" d="M 2853 2969 
Q 2766 3016 2653 3041 
Q 2541 3066 2413 3066 
Q 1953 3066 1609 2717 
Q 1266 2369 1153 1784 
L 800 0 
L 225 0 
L 909 3500 
L 1484 3500 
L 1375 2956 
Q 1603 3259 1920 3421 
Q 2238 3584 2597 3584 
Q 2691 3584 2781 3573 
Q 2872 3563 2963 3538 
L 2853 2969 
z
" transform="scale(0.015625)"/>
       <path id="DejaVuSans-Oblique-78" d="M 3841 3500 
L 2234 1784 
L 3219 0 
L 2559 0 
L 1819 1388 
L 531 0 
L -166 0 
L 1556 1844 
L 641 3500 
L 1300 3500 
L 1972 2234 
L 3144 3500 
L 3841 3500 
z
" transform="scale(0.015625)"/>
       <path id="DejaVuSans-Oblique-79" d="M 1588 -325 
Q 1188 -997 936 -1164 
Q 684 -1331 294 -1331 
L -159 -1331 
L -63 -850 
L 269 -850 
Q 509 -850 678 -719 
Q 847 -588 1056 -206 
L 1234 128 
L 459 3500 
L 1069 3500 
L 1650 819 
L 3256 3500 
L 3859 3500 
L 1588 -325 
z
" transform="scale(0.015625)"/>
      </defs>
      <use xlink:href="#DejaVuSans-Oblique-72"/>
      <use xlink:href="#DejaVuSans-Oblique-78" transform="translate(41.113281 -16.40625) scale(0.7)"/>
      <use xlink:href="#DejaVuSans-Oblique-79" transform="translate(82.539062 -16.40625) scale(0.7)"/>
     </g>
    </g>
   </g>
   <g id="matplotlib.axis_2">
    <g id="ytick_1">
     <g id="line2d_9">
      <defs>
       <path id="me27a81d1d8" d="M 0 0 
L -3.5 0 
" style="stroke: #000000; stroke-width: 0.8"/>
      </defs>
      <g>
       <use xlink:href="#me27a81d1d8" x="44.803125" y="297.943091" style="stroke: #000000; stroke-width: 0.8"/>
      </g>
     </g>
     <g id="text_10">
      <!-- 0.0 -->
      <g transform="translate(21.9 301.74231) scale(0.1 -0.1)">
       <use xlink:href="#DejaVuSans-30"/>
       <use xlink:href="#DejaVuSans-2e" transform="translate(63.623047 0)"/>
       <use xlink:href="#DejaVuSans-30" transform="translate(95.410156 0)"/>
      </g>
     </g>
    </g>
    <g id="ytick_2">
     <g id="line2d_10">
      <g>
       <use xlink:href="#me27a81d1d8" x="44.803125" y="253.464967" style="stroke: #000000; stroke-width: 0.8"/>
      </g>
     </g>
     <g id="text_11">
      <!-- 0.5 -->
      <g transform="translate(21.9 257.264185) scale(0.1 -0.1)">
       <use xlink:href="#DejaVuSans-30"/>
       <use xlink:href="#DejaVuSans-2e" transform="translate(63.623047 0)"/>
       <use xlink:href="#DejaVuSans-35" transform="translate(95.410156 0)"/>
      </g>
     </g>
    </g>
    <g id="ytick_3">
     <g id="line2d_11">
      <g>
       <use xlink:href="#me27a81d1d8" x="44.803125" y="208.986842" style="stroke: #000000; stroke-width: 0.8"/>
      </g>
     </g>
     <g id="text_12">
      <!-- 1.0 -->
      <g transform="translate(21.9 212.786061) scale(0.1 -0.1)">
       <use xlink:href="#DejaVuSans-31"/>
       <use xlink:href="#DejaVuSans-2e" transform="translate(63.623047 0)"/>
       <use xlink:href="#DejaVuSans-30" transform="translate(95.410156 0)"/>
      </g>
     </g>
    </g>
    <g id="ytick_4">
     <g id="line2d_12">
      <g>
       <use xlink:href="#me27a81d1d8" x="44.803125" y="164.508718" style="stroke: #000000; stroke-width: 0.8"/>
      </g>
     </g>
     <g id="text_13">
      <!-- 1.5 -->
      <g transform="translate(21.9 168.307937) scale(0.1 -0.1)">
       <use xlink:href="#DejaVuSans-31"/>
       <use xlink:href="#DejaVuSans-2e" transform="translate(63.623047 0)"/>
       <use xlink:href="#DejaVuSans-35" transform="translate(95.410156 0)"/>
      </g>
     </g>
    </g>
    <g id="ytick_5">
     <g id="line2d_13">
      <g>
       <use xlink:href="#me27a81d1d8" x="44.803125" y="120.030594" style="stroke: #000000; stroke-width: 0.8"/>
      </g>
     </g>
     <g id="text_14">
      <!-- 2.0 -->
      <g transform="translate(21.9 123.829813) scale(0.1 -0.1)">
       <use xlink:href="#DejaVuSans-32"/>
       <use xlink:href="#DejaVuSans-2e" transform="translate(63.623047 0)"/>
       <use xlink:href="#DejaVuSans-30" transform="translate(95.410156 0)"/>
      </g>
     </g>
    </g>
    <g id="ytick_6">
     <g id="line2d_14">
      <g>
       <use xlink:href="#me27a81d1d8" x="44.803125" y="75.55247" style="stroke: #000000; stroke-width: 0.8"/>
      </g>
     </g>
     <g id="text_15">
      <!-- 2.5 -->
      <g transform="translate(21.9 79.351688) scale(0.1 -0.1)">
       <use xlink:href="#DejaVuSans-32"/>
       <use xlink:href="#DejaVuSans-2e" transform="translate(63.623047 0)"/>
       <use xlink:href="#DejaVuSans-35" transform="translate(95.410156 0)"/>
      </g>
     </g>
    </g>
    <g id="ytick_7">
     <g id="line2d_15">
      <g>
       <use xlink:href="#me27a81d1d8" x="44.803125" y="31.074345" style="stroke: #000000; stroke-width: 0.8"/>
      </g>
     </g>
     <g id="text_16">
      <!-- 3.0 -->
      <g transform="translate(21.9 34.873564) scale(0.1 -0.1)">
       <use xlink:href="#DejaVuSans-33"/>
       <use xlink:href="#DejaVuSans-2e" transform="translate(63.623047 0)"/>
       <use xlink:href="#DejaVuSans-30" transform="translate(95.410156 0)"/>
      </g>
     </g>
    </g>
    <g id="text_17">
     <!-- $g_{xy}(r)$ -->
     <g transform="translate(14.8 180.144) rotate(-90) scale(0.1 -0.1)">
      <defs>
       <path id="DejaVuSans-Oblique-67" d="M 3816 3500 
L 3219 434 
Q 3047 -456 2561 -893 
Q 2075 -1331 1253 -1331 
Q 950 -1331 690 -1286 
Q 431 -1241 206 -1147 
L 313 -588 
Q 525 -725 762 -790 
Q 1000 -856 1269 -856 
Q 1816 -856 2167 -557 
Q 2519 -259 2631 300 
L 2681 563 
Q 2441 288 2122 144 
Q 1803 0 1434 0 
Q 903 0 598 351 
Q 294 703 294 1319 
Q 294 1803 478 2267 
Q 663 2731 997 3091 
Q 1219 3328 1514 3456 
Q 1809 3584 2131 3584 
Q 2484 3584 2746 3420 
Q 3009 3256 3138 2956 
L 3238 3500 
L 3816 3500 
z
M 2950 2216 
Q 2950 2641 2750 2872 
Q 2550 3103 2181 3103 
Q 1953 3103 1747 3012 
Q 1541 2922 1394 2759 
Q 1156 2491 1023 2127 
Q 891 1763 891 1375 
Q 891 944 1092 712 
Q 1294 481 1672 481 
Q 2219 481 2584 976 
Q 2950 1472 2950 2216 
z
" transform="scale(0.015625)"/>
       <path id="DejaVuSans-28" d="M 1984 4856 
Q 1566 4138 1362 3434 
Q 1159 2731 1159 2009 
Q 1159 1288 1364 580 
Q 1569 -128 1984 -844 
L 1484 -844 
Q 1016 -109 783 600 
Q 550 1309 550 2009 
Q 550 2706 781 3412 
Q 1013 4119 1484 4856 
L 1984 4856 
z
" transform="scale(0.015625)"/>
       <path id="DejaVuSans-29" d="M 513 4856 
L 1013 4856 
Q 1481 4119 1714 3412 
Q 1947 2706 1947 2009 
Q 1947 1309 1714 600 
Q 1481 -109 1013 -844 
L 513 -844 
Q 928 -128 1133 580 
Q 1338 1288 1338 2009 
Q 1338 2731 1133 3434 
Q 928 4138 513 4856 
z
" transform="scale(0.015625)"/>
      </defs>
      <use xlink:href="#DejaVuSans-Oblique-67" transform="translate(0 0.125)"/>
      <use xlink:href="#DejaVuSans-Oblique-78" transform="translate(63.476562 -16.28125) scale(0.7)"/>
      <use xlink:href="#DejaVuSans-Oblique-79" transform="translate(104.902344 -16.28125) scale(0.7)"/>
      <use xlink:href="#DejaVuSans-28" transform="translate(149.0625 0.125)"/>
      <use xlink:href="#DejaVuSans-Oblique-72" transform="translate(188.076172 0.125)"/>
      <use xlink:href="#DejaVuSans-29" transform="translate(229.189453 0.125)"/>
     </g>
    </g>
   </g>
   <g id="line2d_16">
    <path d="M 62.128648 297.943091 
L 66.04402 297.943091 
L 68.001706 35.444909 
L 69.959392 297.943091 
L 77.790137 297.943091 
L 79.747823 201.233234 
L 81.70551 210.443697 
L 83.663196 297.943091 
L 85.620882 224.4436 
L 87.578568 297.943091 
L 89.536254 297.943091 
L 91.49394 238.669308 
L 93.451627 242.261658 
L 95.409313 297.943091 
L 97.366999 148.957636 
L 99.324685 297.943091 
L 107.15543 297.943091 
L 109.113116 260.443351 
L 111.070802 225.884766 
L 113.028489 297.943091 
L 114.986175 264.534231 
L 116.943861 297.943091 
L 118.901547 297.943091 
L 120.859233 267.820349 
L 122.816919 239.610162 
L 126.732292 243.092725 
L 128.689978 244.68259 
L 130.647664 297.943091 
L 132.60535 197.258857 
L 134.563037 273.443261 
L 136.520723 274.07962 
L 138.478409 228.165093 
L 140.436095 252.573035 
L 142.393781 231.527888 
L 146.309154 234.581461 
L 148.26684 174.067544 
L 150.224526 217.17442 
L 152.182212 139.87967 
L 154.139898 162.549292 
L 156.097585 165.340917 
L 158.055271 186.580226 
L 161.970643 48.187539 
L 163.928329 175.443939 
L 165.886015 74.696974 
L 167.843702 112.508595 
L 169.801388 182.065515 
L 171.759074 86.55075 
L 173.71676 122.183439 
L 175.674446 203.712974 
L 177.632133 220.737743 
L 179.589819 191.642174 
L 181.547505 178.431724 
L 183.505191 150.944109 
L 185.462877 182.195861 
L 187.420563 226.722654 
L 189.37825 255.86323 
L 191.335936 228.864622 
L 193.293622 270.721057 
L 197.208994 271.504425 
L 199.166681 245.815792 
L 201.124367 285.09353 
L 203.082053 196.564483 
L 205.039739 222.94361 
L 206.997425 273.278832 
L 208.955112 212.761562 
L 210.912798 261.913929 
L 212.870484 250.524065 
L 214.82817 216.016907 
L 216.785856 274.830043 
L 220.701229 207.759666 
L 222.658915 197.716512 
L 224.616601 231.925584 
L 226.574287 243.579562 
L 228.531973 233.469853 
L 230.48966 212.972581 
L 232.447346 161.444036 
L 234.405032 194.130251 
L 236.362718 205.555463 
L 238.320404 247.183774 
L 240.27809 187.493036 
L 242.235777 198.619455 
L 244.193463 170.203334 
L 246.151149 200.721542 
L 248.108835 211.359921 
L 250.066521 174.174518 
L 252.024208 156.597916 
L 253.981894 130.050853 
L 257.897266 206.525814 
L 259.854952 225.529799 
L 261.812638 226.236271 
L 263.770325 173.668589 
L 265.728011 157.274209 
L 267.685697 184.732975 
L 269.643383 194.422681 
L 271.601069 195.385662 
L 273.558756 187.863208 
L 275.516442 205.64921 
L 277.474128 156.597916 
L 279.431814 182.585146 
L 281.3895 248.94343 
L 283.347187 200.8072 
L 285.304873 241.775358 
L 287.262559 258.170639 
L 289.220245 242.739611 
L 291.177931 172.837574 
L 293.135617 243.671315 
L 295.093304 221.060778 
L 297.05099 175.952235 
L 299.008676 260.134711 
L 300.966362 230.443558 
L 302.924048 216.111674 
L 306.839421 232.057093 
L 308.797107 247.103522 
L 310.754793 204.267269 
L 312.712479 255.044555 
L 314.670165 248.281273 
L 316.627852 185.300193 
L 318.585538 221.090011 
L 320.543224 228.603949 
L 322.50091 167.18557 
L 324.458596 202.311783 
L 326.416283 223.358737 
L 328.373969 217.17442 
L 330.331655 170.989425 
L 332.289341 211.707226 
L 334.247027 199.153453 
L 336.204713 180.23928 
L 338.1624 220.028436 
L 340.120086 194.785911 
L 342.077772 163.492803 
L 344.035458 208.929867 
L 345.993144 228.484809 
L 347.950831 147.432188 
L 349.908517 229.426616 
L 351.866203 180.3934 
L 353.823889 175.034243 
L 355.781575 224.687784 
L 357.739261 194.849746 
L 359.696948 189.501219 
L 361.654634 214.148883 
L 363.61232 196.851558 
L 365.570006 191.593345 
L 367.527692 233.366861 
L 369.485379 192.943818 
L 371.443065 187.809784 
L 373.400751 263.382202 
L 375.358437 223.527718 
L 377.316123 201.233234 
L 379.27381 230.097407 
L 381.231496 185.558548 
L 383.189182 214.167075 
L 385.146868 231.327238 
L 387.104554 226.209354 
L 389.06224 193.727395 
L 391.019927 254.323215 
L 392.977613 178.696129 
L 394.935299 222.503731 
L 396.892985 228.300716 
L 398.850671 196.74814 
L 400.808358 186.740691 
L 402.766044 245.293026 
L 404.72373 177.537942 
L 406.681416 214.657549 
L 408.639102 204.774722 
L 408.639102 204.774722 
" clip-path="url(#pcbe795d574)" style="fill: none; stroke: #1f77b4; stroke-width: 1.5; stroke-linecap: square"/>
   </g>
   <g id="line2d_17">
    <path d="M 44.803125 208.986842 
L 425.964625 208.986842 
" clip-path="url(#pcbe795d574)" style="fill: none; stroke-dasharray: 5.55,2.4; stroke-dashoffset: 0; stroke: #000000; stroke-opacity: 0.4; stroke-width: 1.5"/>
   </g>
   <g id="patch_3">
    <path d="M 44.803125 311.068 
L 44.803125 22.32 
" style="fill: none; stroke: #000000; stroke-width: 0.8; stroke-linejoin: miter; stroke-linecap: square"/>
   </g>
   <g id="patch_4">
    <path d="M 425.964625 311.068 
L 425.964625 22.32 
" style="fill: none; stroke: #000000; stroke-width: 0.8; stroke-linejoin: miter; stroke-linecap: square"/>
   </g>
   <g id="patch_5">
    <path d="M 44.803125 311.068 
L 425.964625 311.068 
" style="fill: none; stroke: #000000; stroke-width: 0.8; stroke-linejoin: miter; stroke-linecap: square"/>
   </g>
   <g id="patch_6">
    <path d="M 44.803125 22.32 
L 425.964625 22.32 
" style="fill: none; stroke: #000000; stroke-width: 0.8; stroke-linejoin: miter; stroke-linecap: square"/>
   </g>
   <g id="text_18">
    <!-- offset=0.00 - $g_{xy}(r)$ -->
    <g transform="translate(177.843875 16.32) scale(0.12 -0.12)">
     <defs>
      <path id="DejaVuSans-6f" d="M 1959 3097 
Q 1497 3097 1228 2736 
Q 959 2375 959 1747 
Q 959 1119 1226 758 
Q 1494 397 1959 397 
Q 2419 397 2687 759 
Q 2956 1122 2956 1747 
Q 2956 2369 2687 2733 
Q 2419 3097 1959 3097 
z
M 1959 3584 
Q 2709 3584 3137 3096 
Q 3566 2609 3566 1747 
Q 3566 888 3137 398 
Q 2709 -91 1959 -91 
Q 1206 -91 779 398 
Q 353 888 353 1747 
Q 353 2609 779 3096 
Q 1206 3584 1959 3584 
z
" transform="scale(0.015625)"/>
      <path id="DejaVuSans-66" d="M 2375 4863 
L 2375 4384 
L 1825 4384 
Q 1516 4384 1395 4259 
Q 1275 4134 1275 3809 
L 1275 3500 
L 2222 3500 
L 2222 3053 
L 1275 3053 
L 1275 0 
L 697 0 
L 697 3053 
L 147 3053 
L 147 3500 
L 697 3500 
L 697 3744 
Q 697 4328 969 4595 
Q 1241 4863 1831 4863 
L 2375 4863 
z
" transform="scale(0.015625)"/>
      <path id="DejaVuSans-73" d="M 2834 3397 
L 2834 2853 
Q 2591 2978 2328 3040 
Q 2066 3103 1784 3103 
Q 1356 3103 1142 2972 
Q 928 2841 928 2578 
Q 928 2378 1081 2264 
Q 1234 2150 1697 2047 
L 1894 2003 
Q 2506 1872 2764 1633 
Q 3022 1394 3022 966 
Q 3022 478 2636 193 
Q 2250 -91 1575 -91 
Q 1294 -91 989 -36 
Q 684 19 347 128 
L 347 722 
Q 666 556 975 473 
Q 1284 391 1588 391 
Q 1994 391 2212 530 
Q 2431 669 2431 922 
Q 2431 1156 2273 1281 
Q 2116 1406 1581 1522 
L 1381 1569 
Q 847 1681 609 1914 
Q 372 2147 372 2553 
Q 372 3047 722 3315 
Q 1072 3584 1716 3584 
Q 2034 3584 2315 3537 
Q 2597 3491 2834 3397 
z
" transform="scale(0.015625)"/>
      <path id="DejaVuSans-65" d="M 3597 1894 
L 3597 1613 
L 953 1613 
Q 991 1019 1311 708 
Q 1631 397 2203 397 
Q 2534 397 2845 478 
Q 3156 559 3463 722 
L 3463 178 
Q 3153 47 2828 -22 
Q 2503 -91 2169 -91 
Q 1331 -91 842 396 
Q 353 884 353 1716 
Q 353 2575 817 3079 
Q 1281 3584 2069 3584 
Q 2775 3584 3186 3129 
Q 3597 2675 3597 1894 
z
M 3022 2063 
Q 3016 2534 2758 2815 
Q 2500 3097 2075 3097 
Q 1594 3097 1305 2825 
Q 1016 2553 972 2059 
L 3022 2063 
z
" transform="scale(0.015625)"/>
      <path id="DejaVuSans-74" d="M 1172 4494 
L 1172 3500 
L 2356 3500 
L 2356 3053 
L 1172 3053 
L 1172 1153 
Q 1172 725 1289 603 
Q 1406 481 1766 481 
L 2356 481 
L 2356 0 
L 1766 0 
Q 1100 0 847 248 
Q 594 497 594 1153 
L 594 3053 
L 172 3053 
L 172 3500 
L 594 3500 
L 594 4494 
L 1172 4494 
z
" transform="scale(0.015625)"/>
      <path id="DejaVuSans-3d" d="M 678 2906 
L 4684 2906 
L 4684 2381 
L 678 2381 
L 678 2906 
z
M 678 1631 
L 4684 1631 
L 4684 1100 
L 678 1100 
L 678 1631 
z
" transform="scale(0.015625)"/>
      <path id="DejaVuSans-20" transform="scale(0.015625)"/>
      <path id="DejaVuSans-2d" d="M 313 2009 
L 1997 2009 
L 1997 1497 
L 313 1497 
L 313 2009 
z
" transform="scale(0.015625)"/>
     </defs>
     <use xlink:href="#DejaVuSans-6f" transform="translate(0 0.015625)"/>
     <use xlink:href="#DejaVuSans-66" transform="translate(61.181641 0.015625)"/>
     <use xlink:href="#DejaVuSans-66" transform="translate(96.386719 0.015625)"/>
     <use xlink:href="#DejaVuSans-73" transform="translate(131.591797 0.015625)"/>
     <use xlink:href="#DejaVuSans-65" transform="translate(183.691406 0.015625)"/>
     <use xlink:href="#DejaVuSans-74" transform="translate(245.214844 0.015625)"/>
     <use xlink:href="#DejaVuSans-3d" transform="translate(284.423828 0.015625)"/>
     <use xlink:href="#DejaVuSans-30" transform="translate(368.212891 0.015625)"/>
     <use xlink:href="#DejaVuSans-2e" transform="translate(431.835938 0.015625)"/>
     <use xlink:href="#DejaVuSans-30" transform="translate(463.623047 0.015625)"/>
     <use xlink:href="#DejaVuSans-30" transform="translate(527.246094 0.015625)"/>
     <use xlink:href="#DejaVuSans-20" transform="translate(590.869141 0.015625)"/>
     <use xlink:href="#DejaVuSans-2d" transform="translate(622.65625 0.015625)"/>
     <use xlink:href="#DejaVuSans-20" transform="translate(658.740234 0.015625)"/>
     <use xlink:href="#DejaVuSans-Oblique-67" transform="translate(690.527344 0.015625)"/>
     <use xlink:href="#DejaVuSans-Oblique-78" transform="translate(754.003906 -16.390625) scale(0.7)"/>
     <use xlink:href="#DejaVuSans-Oblique-79" transform="translate(795.429688 -16.390625) scale(0.7)"/>
     <use xlink:href="#DejaVuSans-28" transform="translate(839.589844 0.015625)"/>
     <use xlink:href="#DejaVuSans-Oblique-72" transform="translate(878.603516 0.015625)"/>
     <use xlink:href="#DejaVuSans-29" transform="translate(919.716797 0.015625)"/>
    </g>
   </g>
  </g>
  <g id="axes_2">
   <g id="patch_7">
    <path d="M 466.610625 311.068 
L 847.772125 311.068 
L 847.772125 22.32 
L 466.610625 22.32 
z
" style="fill: #ffffff"/>
   </g>
   <g id="matplotlib.axis_3">
    <g id="xtick_9">
     <g id="line2d_18">
      <g>
       <use xlink:href="#m870d10fa15" x="466.79337" y="311.068" style="stroke: #000000; stroke-width: 0.8"/>
      </g>
     </g>
     <g id="text_19">
      <!-- 0.0 -->
      <g transform="translate(458.841807 325.666437) scale(0.1 -0.1)">
       <use xlink:href="#DejaVuSans-30"/>
       <use xlink:href="#DejaVuSans-2e" transform="translate(63.623047 0)"/>
       <use xlink:href="#DejaVuSans-30" transform="translate(95.410156 0)"/>
      </g>
     </g>
    </g>
    <g id="xtick_10">
     <g id="line2d_19">
      <g>
       <use xlink:href="#m870d10fa15" x="515.358139" y="311.068" style="stroke: #000000; stroke-width: 0.8"/>
      </g>
     </g>
     <g id="text_20">
      <!-- 2.5 -->
      <g transform="translate(507.406577 325.666437) scale(0.1 -0.1)">
       <use xlink:href="#DejaVuSans-32"/>
       <use xlink:href="#DejaVuSans-2e" transform="translate(63.623047 0)"/>
       <use xlink:href="#DejaVuSans-35" transform="translate(95.410156 0)"/>
      </g>
     </g>
    </g>
    <g id="xtick_11">
     <g id="line2d_20">
      <g>
       <use xlink:href="#m870d10fa15" x="563.922908" y="311.068" style="stroke: #000000; stroke-width: 0.8"/>
      </g>
     </g>
     <g id="text_21">
      <!-- 5.0 -->
      <g transform="translate(555.971346 325.666437) scale(0.1 -0.1)">
       <use xlink:href="#DejaVuSans-35"/>
       <use xlink:href="#DejaVuSans-2e" transform="translate(63.623047 0)"/>
       <use xlink:href="#DejaVuSans-30" transform="translate(95.410156 0)"/>
      </g>
     </g>
    </g>
    <g id="xtick_12">
     <g id="line2d_21">
      <g>
       <use xlink:href="#m870d10fa15" x="612.487678" y="311.068" style="stroke: #000000; stroke-width: 0.8"/>
      </g>
     </g>
     <g id="text_22">
      <!-- 7.5 -->
      <g transform="translate(604.536115 325.666437) scale(0.1 -0.1)">
       <defs>
        <path id="DejaVuSans-37" d="M 525 4666 
L 3525 4666 
L 3525 4397 
L 1831 0 
L 1172 0 
L 2766 4134 
L 525 4134 
L 525 4666 
z
" transform="scale(0.015625)"/>
       </defs>
       <use xlink:href="#DejaVuSans-37"/>
       <use xlink:href="#DejaVuSans-2e" transform="translate(63.623047 0)"/>
       <use xlink:href="#DejaVuSans-35" transform="translate(95.410156 0)"/>
      </g>
     </g>
    </g>
    <g id="xtick_13">
     <g id="line2d_22">
      <g>
       <use xlink:href="#m870d10fa15" x="661.052447" y="311.068" style="stroke: #000000; stroke-width: 0.8"/>
      </g>
     </g>
     <g id="text_23">
      <!-- 10.0 -->
      <g transform="translate(649.919634 325.666437) scale(0.1 -0.1)">
       <use xlink:href="#DejaVuSans-31"/>
       <use xlink:href="#DejaVuSans-30" transform="translate(63.623047 0)"/>
       <use xlink:href="#DejaVuSans-2e" transform="translate(127.246094 0)"/>
       <use xlink:href="#DejaVuSans-30" transform="translate(159.033203 0)"/>
      </g>
     </g>
    </g>
    <g id="xtick_14">
     <g id="line2d_23">
      <g>
       <use xlink:href="#m870d10fa15" x="709.617216" y="311.068" style="stroke: #000000; stroke-width: 0.8"/>
      </g>
     </g>
     <g id="text_24">
      <!-- 12.5 -->
      <g transform="translate(698.484403 325.666437) scale(0.1 -0.1)">
       <use xlink:href="#DejaVuSans-31"/>
       <use xlink:href="#DejaVuSans-32" transform="translate(63.623047 0)"/>
       <use xlink:href="#DejaVuSans-2e" transform="translate(127.246094 0)"/>
       <use xlink:href="#DejaVuSans-35" transform="translate(159.033203 0)"/>
      </g>
     </g>
    </g>
    <g id="xtick_15">
     <g id="line2d_24">
      <g>
       <use xlink:href="#m870d10fa15" x="758.181985" y="311.068" style="stroke: #000000; stroke-width: 0.8"/>
      </g>
     </g>
     <g id="text_25">
      <!-- 15.0 -->
      <g transform="translate(747.049173 325.666437) scale(0.1 -0.1)">
       <use xlink:href="#DejaVuSans-31"/>
       <use xlink:href="#DejaVuSans-35" transform="translate(63.623047 0)"/>
       <use xlink:href="#DejaVuSans-2e" transform="translate(127.246094 0)"/>
       <use xlink:href="#DejaVuSans-30" transform="translate(159.033203 0)"/>
      </g>
     </g>
    </g>
    <g id="xtick_16">
     <g id="line2d_25">
      <g>
       <use xlink:href="#m870d10fa15" x="806.746754" y="311.068" style="stroke: #000000; stroke-width: 0.8"/>
      </g>
     </g>
     <g id="text_26">
      <!-- 17.5 -->
      <g transform="translate(795.613942 325.666437) scale(0.1 -0.1)">
       <use xlink:href="#DejaVuSans-31"/>
       <use xlink:href="#DejaVuSans-37" transform="translate(63.623047 0)"/>
       <use xlink:href="#DejaVuSans-2e" transform="translate(127.246094 0)"/>
       <use xlink:href="#DejaVuSans-35" transform="translate(159.033203 0)"/>
      </g>
     </g>
    </g>
    <g id="text_27">
     <!-- $|k_{xy}|$ -->
     <g transform="translate(646.641375 339.446125) scale(0.1 -0.1)">
      <defs>
       <path id="DejaVuSans-7c" d="M 1344 4891 
L 1344 -1509 
L 813 -1509 
L 813 4891 
L 1344 4891 
z
" transform="scale(0.015625)"/>
       <path id="DejaVuSans-Oblique-6b" d="M 1172 4863 
L 1747 4863 
L 1197 2028 
L 3169 3500 
L 3916 3500 
L 1716 1825 
L 3322 0 
L 2625 0 
L 1131 1709 
L 800 0 
L 225 0 
L 1172 4863 
z
" transform="scale(0.015625)"/>
      </defs>
      <use xlink:href="#DejaVuSans-7c" transform="translate(0 0.578125)"/>
      <use xlink:href="#DejaVuSans-Oblique-6b" transform="translate(33.691406 0.578125)"/>
      <use xlink:href="#DejaVuSans-Oblique-78" transform="translate(91.601562 -15.828125) scale(0.7)"/>
      <use xlink:href="#DejaVuSans-Oblique-79" transform="translate(133.027344 -15.828125) scale(0.7)"/>
      <use xlink:href="#DejaVuSans-7c" transform="translate(177.1875 0.578125)"/>
     </g>
    </g>
   </g>
   <g id="matplotlib.axis_4">
    <g id="ytick_8">
     <g id="line2d_26">
      <g>
       <use xlink:href="#me27a81d1d8" x="466.610625" y="298.303747" style="stroke: #000000; stroke-width: 0.8"/>
      </g>
     </g>
     <g id="text_28">
      <!-- 0 -->
      <g transform="translate(453.248125 302.102965) scale(0.1 -0.1)">
       <use xlink:href="#DejaVuSans-30"/>
      </g>
     </g>
    </g>
    <g id="ytick_9">
     <g id="line2d_27">
      <g>
       <use xlink:href="#me27a81d1d8" x="466.610625" y="247.00331" style="stroke: #000000; stroke-width: 0.8"/>
      </g>
     </g>
     <g id="text_29">
      <!-- 1 -->
      <g transform="translate(453.248125 250.802529) scale(0.1 -0.1)">
       <use xlink:href="#DejaVuSans-31"/>
      </g>
     </g>
    </g>
    <g id="ytick_10">
     <g id="line2d_28">
      <g>
       <use xlink:href="#me27a81d1d8" x="466.610625" y="195.702874" style="stroke: #000000; stroke-width: 0.8"/>
      </g>
     </g>
     <g id="text_30">
      <!-- 2 -->
      <g transform="translate(453.248125 199.502092) scale(0.1 -0.1)">
       <use xlink:href="#DejaVuSans-32"/>
      </g>
     </g>
    </g>
    <g id="ytick_11">
     <g id="line2d_29">
      <g>
       <use xlink:href="#me27a81d1d8" x="466.610625" y="144.402437" style="stroke: #000000; stroke-width: 0.8"/>
      </g>
     </g>
     <g id="text_31">
      <!-- 3 -->
      <g transform="translate(453.248125 148.201656) scale(0.1 -0.1)">
       <use xlink:href="#DejaVuSans-33"/>
      </g>
     </g>
    </g>
    <g id="ytick_12">
     <g id="line2d_30">
      <g>
       <use xlink:href="#me27a81d1d8" x="466.610625" y="93.102001" style="stroke: #000000; stroke-width: 0.8"/>
      </g>
     </g>
     <g id="text_32">
      <!-- 4 -->
      <g transform="translate(453.248125 96.901219) scale(0.1 -0.1)">
       <defs>
        <path id="DejaVuSans-34" d="M 2419 4116 
L 825 1625 
L 2419 1625 
L 2419 4116 
z
M 2253 4666 
L 3047 4666 
L 3047 1625 
L 3713 1625 
L 3713 1100 
L 3047 1100 
L 3047 0 
L 2419 0 
L 2419 1100 
L 313 1100 
L 313 1709 
L 2253 4666 
z
" transform="scale(0.015625)"/>
       </defs>
       <use xlink:href="#DejaVuSans-34"/>
      </g>
     </g>
    </g>
    <g id="ytick_13">
     <g id="line2d_31">
      <g>
       <use xlink:href="#me27a81d1d8" x="466.610625" y="41.801564" style="stroke: #000000; stroke-width: 0.8"/>
      </g>
     </g>
     <g id="text_33">
      <!-- 5 -->
      <g transform="translate(453.248125 45.600783) scale(0.1 -0.1)">
       <use xlink:href="#DejaVuSans-35"/>
      </g>
     </g>
    </g>
    <g id="text_34">
     <!-- $S_{xy}(k)$ -->
     <g transform="translate(446.148125 180.944) rotate(-90) scale(0.1 -0.1)">
      <defs>
       <path id="DejaVuSans-Oblique-53" d="M 3859 4513 
L 3738 3897 
Q 3422 4066 3111 4152 
Q 2800 4238 2509 4238 
Q 1944 4238 1609 3991 
Q 1275 3744 1275 3334 
Q 1275 3109 1398 2989 
Q 1522 2869 2034 2731 
L 2413 2638 
Q 3053 2472 3303 2217 
Q 3553 1963 3553 1503 
Q 3553 797 2998 353 
Q 2444 -91 1538 -91 
Q 1166 -91 791 -17 
Q 416 56 38 206 
L 166 856 
Q 513 641 861 531 
Q 1209 422 1556 422 
Q 2147 422 2503 684 
Q 2859 947 2859 1369 
Q 2859 1650 2717 1795 
Q 2575 1941 2106 2059 
L 1728 2156 
Q 1081 2325 845 2545 
Q 609 2766 609 3163 
Q 609 3859 1145 4304 
Q 1681 4750 2541 4750 
Q 2875 4750 3203 4690 
Q 3531 4631 3859 4513 
z
" transform="scale(0.015625)"/>
      </defs>
      <use xlink:href="#DejaVuSans-Oblique-53" transform="translate(0 0.015625)"/>
      <use xlink:href="#DejaVuSans-Oblique-78" transform="translate(63.476562 -16.390625) scale(0.7)"/>
      <use xlink:href="#DejaVuSans-Oblique-79" transform="translate(104.902344 -16.390625) scale(0.7)"/>
      <use xlink:href="#DejaVuSans-28" transform="translate(149.0625 0.015625)"/>
      <use xlink:href="#DejaVuSans-Oblique-6b" transform="translate(188.076172 0.015625)"/>
      <use xlink:href="#DejaVuSans-29" transform="translate(245.986328 0.015625)"/>
     </g>
    </g>
   </g>
   <g id="line2d_32">
    <path d="M 483.936148 288.410049 
L 491.036919 291.399055 
L 501.078925 287.238566 
L 505.125786 282.746753 
L 515.280468 287.641307 
L 518.221703 293.87032 
L 521.003593 288.543979 
L 528.602534 280.855137 
L 535.364481 291.858509 
L 537.474853 292.718169 
L 539.524016 264.890905 
L 543.458203 281.978064 
L 552.507259 284.629361 
L 554.204728 284.718414 
L 559.110053 279.587622 
L 563.767565 297.943091 
L 566.752082 285.659224 
L 569.650037 276.265904 
L 571.068816 253.761626 
L 575.213816 270.347395 
L 576.560706 243.245174 
L 581.790619 271.088573 
L 586.792814 35.444909 
L 588.011114 216.126152 
L 590.411698 237.440631 
L 591.594676 158.375847 
L 597.348876 204.676648 
L 600.682744 90.745856 
L 603.935592 85.863096 
L 605.002863 197.090385 
L 608.156337 200.964022 
L 612.254663 247.494695 
L 613.261327 247.430381 
L 614.26112 236.315888 
L 620.123036 268.877054 
L 621.07837 270.232037 
L 622.027825 274.573978 
L 624.841972 261.778707 
L 628.518012 291.795103 
L 629.424039 232.063623 
L 635.63015 239.4203 
L 636.498212 272.342203 
L 638.221148 238.905553 
L 639.076154 291.95297 
L 641.616087 270.272669 
L 643.289069 271.878893 
L 645.769224 256.44777 
L 649.023597 269.694439 
L 651.426737 274.804004 
L 652.220863 276.122729 
L 655.363925 274.036669 
L 656.141539 285.31519 
L 658.455452 238.566 
L 660.74176 261.415639 
L 662.251109 285.120591 
L 666.710795 254.955445 
L 667.444439 258.621326 
L 672.506703 197.676998 
L 673.21975 258.438808 
L 673.930342 258.120757 
L 675.344262 263.985231 
L 676.04764 238.822682 
L 678.83782 278.169061 
L 681.59176 241.213733 
L 683.634263 254.565543 
L 684.985309 278.224718 
L 686.328042 259.688018 
L 689.649481 190.553193 
L 690.307846 221.787409 
L 692.271408 224.695457 
L 695.506552 263.589048 
L 696.787868 257.414377 
L 697.425857 266.611577 
L 699.960356 229.564635 
L 704.94845 240.944897 
L 705.564635 221.657091 
L 706.792259 123.307109 
L 707.403722 274.603134 
L 709.228858 235.789115 
L 710.43802 223.516597 
L 712.240595 249.594761 
L 714.030027 223.128064 
L 716.395982 234.020679 
L 719.90345 224.95218 
L 721.639083 258.378094 
L 723.935037 226.645319 
L 724.505829 191.724181 
L 726.210671 289.298579 
L 727.904382 265.231041 
L 728.466516 226.932365 
L 729.027445 242.47849 
L 732.920847 251.868649 
L 733.472407 276.672125 
L 734.572119 253.890289 
L 735.120285 205.136875 
L 737.844486 264.689278 
L 743.212356 254.994957 
L 743.743421 234.568732 
L 745.857574 260.061472 
L 747.955831 242.899773 
L 750.556834 252.345328 
L 752.106054 272.979992 
L 757.715956 210.037487 
L 758.220592 227.868875 
L 758.724356 258.736066 
L 761.728871 260.799814 
L 766.669508 224.441298 
L 770.080069 251.91739 
L 772.011851 210.25462 
L 775.839191 273.560568 
L 781.959505 260.794799 
L 782.890573 265.430861 
L 785.667469 192.767909 
L 794.305679 228.290875 
L 796.095378 248.966941 
L 806.203053 219.600897 
L 807.067793 265.379863 
L 818.533762 278.450472 
L 830.446602 190.771824 
" clip-path="url(#pfee62c62f3)" style="fill: none; stroke: #1f77b4; stroke-width: 1.5; stroke-linecap: square"/>
   </g>
   <g id="line2d_33">
    <path d="M 466.610625 247.00331 
L 847.772125 247.00331 
" clip-path="url(#pfee62c62f3)" style="fill: none; stroke-dasharray: 5.55,2.4; stroke-dashoffset: 0; stroke: #000000; stroke-opacity: 0.4; stroke-width: 1.5"/>
   </g>
   <g id="patch_8">
    <path d="M 466.610625 311.068 
L 466.610625 22.32 
" style="fill: none; stroke: #000000; stroke-width: 0.8; stroke-linejoin: miter; stroke-linecap: square"/>
   </g>
   <g id="patch_9">
    <path d="M 847.772125 311.068 
L 847.772125 22.32 
" style="fill: none; stroke: #000000; stroke-width: 0.8; stroke-linejoin: miter; stroke-linecap: square"/>
   </g>
   <g id="patch_10">
    <path d="M 466.610625 311.068 
L 847.772125 311.068 
" style="fill: none; stroke: #000000; stroke-width: 0.8; stroke-linejoin: miter; stroke-linecap: square"/>
   </g>
   <g id="patch_11">
    <path d="M 466.610625 22.32 
L 847.772125 22.32 
" style="fill: none; stroke: #000000; stroke-width: 0.8; stroke-linejoin: miter; stroke-linecap: square"/>
   </g>
   <g id="text_35">
    <!-- offset=0.00 - $S_{xy}(k)$ -->
    <g transform="translate(598.631375 16.32) scale(0.12 -0.12)">
     <use xlink:href="#DejaVuSans-6f" transform="translate(0 0.015625)"/>
     <use xlink:href="#DejaVuSans-66" transform="translate(61.181641 0.015625)"/>
     <use xlink:href="#DejaVuSans-66" transform="translate(96.386719 0.015625)"/>
     <use xlink:href="#DejaVuSans-73" transform="translate(131.591797 0.015625)"/>
     <use xlink:href="#DejaVuSans-65" transform="translate(183.691406 0.015625)"/>
     <use xlink:href="#DejaVuSans-74" transform="translate(245.214844 0.015625)"/>
     <use xlink:href="#DejaVuSans-3d" transform="translate(284.423828 0.015625)"/>
     <use xlink:href="#DejaVuSans-30" transform="translate(368.212891 0.015625)"/>
     <use xlink:href="#DejaVuSans-2e" transform="translate(431.835938 0.015625)"/>
     <use xlink:href="#DejaVuSans-30" transform="translate(463.623047 0.015625)"/>
     <use xlink:href="#DejaVuSans-30" transform="translate(527.246094 0.015625)"/>
     <use xlink:href="#DejaVuSans-20" transform="translate(590.869141 0.015625)"/>
     <use xlink:href="#DejaVuSans-2d" transform="translate(622.65625 0.015625)"/>
     <use xlink:href="#DejaVuSans-20" transform="translate(658.740234 0.015625)"/>
     <use xlink:href="#DejaVuSans-Oblique-53" transform="translate(690.527344 0.015625)"/>
     <use xlink:href="#DejaVuSans-Oblique-78" transform="translate(754.003906 -16.390625) scale(0.7)"/>
     <use xlink:href="#DejaVuSans-Oblique-79" transform="translate(795.429688 -16.390625) scale(0.7)"/>
     <use xlink:href="#DejaVuSans-28" transform="translate(839.589844 0.015625)"/>
     <use xlink:href="#DejaVuSans-Oblique-6b" transform="translate(878.603516 0.015625)"/>
     <use xlink:href="#DejaVuSans-29" transform="translate(936.513672 0.015625)"/>
    </g>
   </g>
  </g>
 </g>
 <defs>
  <clipPath id="pcbe795d574">
   <rect x="44.803125" y="22.32" width="381.1615" height="288.748"/>
  </clipPath>
  <clipPath id="pfee62c62f3">
   <rect x="466.610625" y="22.32" width="381.1615" height="288.748"/>
  </clipPath>
 </defs>
</svg>
