<?xml version="1.0" encoding="utf-8" standalone="no"?>
<!DOCTYPE svg PUBLIC "-//W3C//DTD SVG 1.1//EN"
  "http://www.w3.org/Graphics/SVG/1.1/DTD/svg11.dtd">
<svg xmlns:xlink="http://www.w3.org/1999/xlink" width="854.9525pt" height="350.018125pt" viewBox="0 0 854.9525 350.018125" xmlns="http://www.w3.org/2000/svg" version="1.1">
 <metadata>
  <rdf:RDF xmlns:dc="http://purl.org/dc/elements/1.1/" xmlns:cc="http://creativecommons.org/ns#" xmlns:rdf="http://www.w3.org/1999/02/22-rdf-syntax-ns#">
   <cc:Work>
    <dc:type rdf:resource="http://purl.org/dc/dcmitype/StillImage"/>
    <dc:date>2025-12-10T14:57:32.800168</dc:date>
    <dc:format>image/svg+xml</dc:format>
    <dc:creator>
     <cc:Agent>
      <dc:title>Matplotlib v3.10.1, https://matplotlib.org/</dc:title>
     </cc:Agent>
    </dc:creator>
   </cc:Work>
  </rdf:RDF>
 </metadata>
 <defs>
  <style type="text/css">*{stroke-linejoin: round; stroke-linecap: butt}</style>
 </defs>
 <g id="figure_1">
  <g id="patch_1">
   <path d="M 0 350.018125 
L 854.9525 350.018125 
L 854.9525 0 
L 0 0 
z
" style="fill: #ffffff"/>
  </g>
  <g id="axes_1">
   <g id="patch_2">
    <path d="M 34.2625 312.04 
L 418.4975 312.04 
L 418.4975 22.32 
L 34.2625 22.32 
z
" style="fill: #ffffff"/>
   </g>
   <g id="matplotlib.axis_1">
    <g id="xtick_1">
     <g id="line2d_1">
      <defs>
       <path id="m1b18c3ac85" d="M 0 0 
L 0 3.5 
" style="stroke: #000000; stroke-width: 0.8"/>
      </defs>
      <g>
       <use xlink:href="#m1b18c3ac85" x="50.850078" y="312.04" style="stroke: #000000; stroke-width: 0.8"/>
      </g>
     </g>
     <g id="text_1">
      <!-- 0.0 -->
      <g transform="translate(42.898515 326.638438) scale(0.1 -0.1)">
       <defs>
        <path id="DejaVuSans-30" d="M 2034 4250 
Q 1547 4250 1301 3770 
Q 1056 3291 1056 2328 
Q 1056 1369 1301 889 
Q 1547 409 2034 409 
Q 2525 409 2770 889 
Q 3016 1369 3016 2328 
Q 3016 3291 2770 3770 
Q 2525 4250 2034 4250 
z
M 2034 4750 
Q 2819 4750 3233 4129 
Q 3647 3509 3647 2328 
Q 3647 1150 3233 529 
Q 2819 -91 2034 -91 
Q 1250 -91 836 529 
Q 422 1150 422 2328 
Q 422 3509 836 4129 
Q 1250 4750 2034 4750 
z
" transform="scale(0.015625)"/>
        <path id="DejaVuSans-2e" d="M 684 794 
L 1344 794 
L 1344 0 
L 684 0 
L 684 794 
z
" transform="scale(0.015625)"/>
       </defs>
       <use xlink:href="#DejaVuSans-30"/>
       <use xlink:href="#DejaVuSans-2e" transform="translate(63.623047 0)"/>
       <use xlink:href="#DejaVuSans-30" transform="translate(95.410156 0)"/>
      </g>
     </g>
    </g>
    <g id="xtick_2">
     <g id="line2d_2">
      <g>
       <use xlink:href="#m1b18c3ac85" x="94.732558" y="312.04" style="stroke: #000000; stroke-width: 0.8"/>
      </g>
     </g>
     <g id="text_2">
      <!-- 0.5 -->
      <g transform="translate(86.780996 326.638438) scale(0.1 -0.1)">
       <defs>
        <path id="DejaVuSans-35" d="M 691 4666 
L 3169 4666 
L 3169 4134 
L 1269 4134 
L 1269 2991 
Q 1406 3038 1543 3061 
Q 1681 3084 1819 3084 
Q 2600 3084 3056 2656 
Q 3513 2228 3513 1497 
Q 3513 744 3044 326 
Q 2575 -91 1722 -91 
Q 1428 -91 1123 -41 
Q 819 9 494 109 
L 494 744 
Q 775 591 1075 516 
Q 1375 441 1709 441 
Q 2250 441 2565 725 
Q 2881 1009 2881 1497 
Q 2881 1984 2565 2268 
Q 2250 2553 1709 2553 
Q 1456 2553 1204 2497 
Q 953 2441 691 2322 
L 691 4666 
z
" transform="scale(0.015625)"/>
       </defs>
       <use xlink:href="#DejaVuSans-30"/>
       <use xlink:href="#DejaVuSans-2e" transform="translate(63.623047 0)"/>
       <use xlink:href="#DejaVuSans-35" transform="translate(95.410156 0)"/>
      </g>
     </g>
    </g>
    <g id="xtick_3">
     <g id="line2d_3">
      <g>
       <use xlink:href="#m1b18c3ac85" x="138.615039" y="312.04" style="stroke: #000000; stroke-width: 0.8"/>
      </g>
     </g>
     <g id="text_3">
      <!-- 1.0 -->
      <g transform="translate(130.663476 326.638438) scale(0.1 -0.1)">
       <defs>
        <path id="DejaVuSans-31" d="M 794 531 
L 1825 531 
L 1825 4091 
L 703 3866 
L 703 4441 
L 1819 4666 
L 2450 4666 
L 2450 531 
L 3481 531 
L 3481 0 
L 794 0 
L 794 531 
z
" transform="scale(0.015625)"/>
       </defs>
       <use xlink:href="#DejaVuSans-31"/>
       <use xlink:href="#DejaVuSans-2e" transform="translate(63.623047 0)"/>
       <use xlink:href="#DejaVuSans-30" transform="translate(95.410156 0)"/>
      </g>
     </g>
    </g>
    <g id="xtick_4">
     <g id="line2d_4">
      <g>
       <use xlink:href="#m1b18c3ac85" x="182.497519" y="312.04" style="stroke: #000000; stroke-width: 0.8"/>
      </g>
     </g>
     <g id="text_4">
      <!-- 1.5 -->
      <g transform="translate(174.545957 326.638438) scale(0.1 -0.1)">
       <use xlink:href="#DejaVuSans-31"/>
       <use xlink:href="#DejaVuSans-2e" transform="translate(63.623047 0)"/>
       <use xlink:href="#DejaVuSans-35" transform="translate(95.410156 0)"/>
      </g>
     </g>
    </g>
    <g id="xtick_5">
     <g id="line2d_5">
      <g>
       <use xlink:href="#m1b18c3ac85" x="226.38" y="312.04" style="stroke: #000000; stroke-width: 0.8"/>
      </g>
     </g>
     <g id="text_5">
      <!-- 2.0 -->
      <g transform="translate(218.428438 326.638438) scale(0.1 -0.1)">
       <defs>
        <path id="DejaVuSans-32" d="M 1228 531 
L 3431 531 
L 3431 0 
L 469 0 
L 469 531 
Q 828 903 1448 1529 
Q 2069 2156 2228 2338 
Q 2531 2678 2651 2914 
Q 2772 3150 2772 3378 
Q 2772 3750 2511 3984 
Q 2250 4219 1831 4219 
Q 1534 4219 1204 4116 
Q 875 4013 500 3803 
L 500 4441 
Q 881 4594 1212 4672 
Q 1544 4750 1819 4750 
Q 2544 4750 2975 4387 
Q 3406 4025 3406 3419 
Q 3406 3131 3298 2873 
Q 3191 2616 2906 2266 
Q 2828 2175 2409 1742 
Q 1991 1309 1228 531 
z
" transform="scale(0.015625)"/>
       </defs>
       <use xlink:href="#DejaVuSans-32"/>
       <use xlink:href="#DejaVuSans-2e" transform="translate(63.623047 0)"/>
       <use xlink:href="#DejaVuSans-30" transform="translate(95.410156 0)"/>
      </g>
     </g>
    </g>
    <g id="xtick_6">
     <g id="line2d_6">
      <g>
       <use xlink:href="#m1b18c3ac85" x="270.262481" y="312.04" style="stroke: #000000; stroke-width: 0.8"/>
      </g>
     </g>
     <g id="text_6">
      <!-- 2.5 -->
      <g transform="translate(262.310918 326.638438) scale(0.1 -0.1)">
       <use xlink:href="#DejaVuSans-32"/>
       <use xlink:href="#DejaVuSans-2e" transform="translate(63.623047 0)"/>
       <use xlink:href="#DejaVuSans-35" transform="translate(95.410156 0)"/>
      </g>
     </g>
    </g>
    <g id="xtick_7">
     <g id="line2d_7">
      <g>
       <use xlink:href="#m1b18c3ac85" x="314.144961" y="312.04" style="stroke: #000000; stroke-width: 0.8"/>
      </g>
     </g>
     <g id="text_7">
      <!-- 3.0 -->
      <g transform="translate(306.193399 326.638438) scale(0.1 -0.1)">
       <defs>
        <path id="DejaVuSans-33" d="M 2597 2516 
Q 3050 2419 3304 2112 
Q 3559 1806 3559 1356 
Q 3559 666 3084 287 
Q 2609 -91 1734 -91 
Q 1441 -91 1130 -33 
Q 819 25 488 141 
L 488 750 
Q 750 597 1062 519 
Q 1375 441 1716 441 
Q 2309 441 2620 675 
Q 2931 909 2931 1356 
Q 2931 1769 2642 2001 
Q 2353 2234 1838 2234 
L 1294 2234 
L 1294 2753 
L 1863 2753 
Q 2328 2753 2575 2939 
Q 2822 3125 2822 3475 
Q 2822 3834 2567 4026 
Q 2313 4219 1838 4219 
Q 1578 4219 1281 4162 
Q 984 4106 628 3988 
L 628 4550 
Q 988 4650 1302 4700 
Q 1616 4750 1894 4750 
Q 2613 4750 3031 4423 
Q 3450 4097 3450 3541 
Q 3450 3153 3228 2886 
Q 3006 2619 2597 2516 
z
" transform="scale(0.015625)"/>
       </defs>
       <use xlink:href="#DejaVuSans-33"/>
       <use xlink:href="#DejaVuSans-2e" transform="translate(63.623047 0)"/>
       <use xlink:href="#DejaVuSans-30" transform="translate(95.410156 0)"/>
      </g>
     </g>
    </g>
    <g id="xtick_8">
     <g id="line2d_8">
      <g>
       <use xlink:href="#m1b18c3ac85" x="358.027442" y="312.04" style="stroke: #000000; stroke-width: 0.8"/>
      </g>
     </g>
     <g id="text_8">
      <!-- 3.5 -->
      <g transform="translate(350.075879 326.638438) scale(0.1 -0.1)">
       <use xlink:href="#DejaVuSans-33"/>
       <use xlink:href="#DejaVuSans-2e" transform="translate(63.623047 0)"/>
       <use xlink:href="#DejaVuSans-35" transform="translate(95.410156 0)"/>
      </g>
     </g>
    </g>
    <g id="xtick_9">
     <g id="line2d_9">
      <g>
       <use xlink:href="#m1b18c3ac85" x="401.909922" y="312.04" style="stroke: #000000; stroke-width: 0.8"/>
      </g>
     </g>
     <g id="text_9">
      <!-- 4.0 -->
      <g transform="translate(393.95836 326.638438) scale(0.1 -0.1)">
       <defs>
        <path id="DejaVuSans-34" d="M 2419 4116 
L 825 1625 
L 2419 1625 
L 2419 4116 
z
M 2253 4666 
L 3047 4666 
L 3047 1625 
L 3713 1625 
L 3713 1100 
L 3047 1100 
L 3047 0 
L 2419 0 
L 2419 1100 
L 313 1100 
L 313 1709 
L 2253 4666 
z
" transform="scale(0.015625)"/>
       </defs>
       <use xlink:href="#DejaVuSans-34"/>
       <use xlink:href="#DejaVuSans-2e" transform="translate(63.623047 0)"/>
       <use xlink:href="#DejaVuSans-30" transform="translate(95.410156 0)"/>
      </g>
     </g>
    </g>
    <g id="text_10">
     <!-- $r$ -->
     <g transform="translate(224.28 340.316562) scale(0.1 -0.1)">
      <defs>
       <path id="DejaVuSans-Oblique-72" d="M 2853 2969 
Q 2766 3016 2653 3041 
Q 2541 3066 2413 3066 
Q 1953 3066 1609 2717 
Q 1266 2369 1153 1784 
L 800 0 
L 225 0 
L 909 3500 
L 1484 3500 
L 1375 2956 
Q 1603 3259 1920 3421 
Q 2238 3584 2597 3584 
Q 2691 3584 2781 3573 
Q 2872 3563 2963 3538 
L 2853 2969 
z
" transform="scale(0.015625)"/>
      </defs>
      <use xlink:href="#DejaVuSans-Oblique-72"/>
     </g>
    </g>
   </g>
   <g id="matplotlib.axis_2">
    <g id="ytick_1">
     <g id="line2d_10">
      <defs>
       <path id="me0752dc8d4" d="M 0 0 
L -3.5 0 
" style="stroke: #000000; stroke-width: 0.8"/>
      </defs>
      <g>
       <use xlink:href="#me0752dc8d4" x="34.2625" y="312.04" style="stroke: #000000; stroke-width: 0.8"/>
      </g>
     </g>
     <g id="text_11">
      <!-- 0 -->
      <g transform="translate(20.9 315.839219) scale(0.1 -0.1)">
       <use xlink:href="#DejaVuSans-30"/>
      </g>
     </g>
    </g>
    <g id="ytick_2">
     <g id="line2d_11">
      <g>
       <use xlink:href="#me0752dc8d4" x="34.2625" y="255.935503" style="stroke: #000000; stroke-width: 0.8"/>
      </g>
     </g>
     <g id="text_12">
      <!-- 1 -->
      <g transform="translate(20.9 259.734722) scale(0.1 -0.1)">
       <use xlink:href="#DejaVuSans-31"/>
      </g>
     </g>
    </g>
    <g id="ytick_3">
     <g id="line2d_12">
      <g>
       <use xlink:href="#me0752dc8d4" x="34.2625" y="199.831006" style="stroke: #000000; stroke-width: 0.8"/>
      </g>
     </g>
     <g id="text_13">
      <!-- 2 -->
      <g transform="translate(20.9 203.630225) scale(0.1 -0.1)">
       <use xlink:href="#DejaVuSans-32"/>
      </g>
     </g>
    </g>
    <g id="ytick_4">
     <g id="line2d_13">
      <g>
       <use xlink:href="#me0752dc8d4" x="34.2625" y="143.726509" style="stroke: #000000; stroke-width: 0.8"/>
      </g>
     </g>
     <g id="text_14">
      <!-- 3 -->
      <g transform="translate(20.9 147.525728) scale(0.1 -0.1)">
       <use xlink:href="#DejaVuSans-33"/>
      </g>
     </g>
    </g>
    <g id="ytick_5">
     <g id="line2d_14">
      <g>
       <use xlink:href="#me0752dc8d4" x="34.2625" y="87.622013" style="stroke: #000000; stroke-width: 0.8"/>
      </g>
     </g>
     <g id="text_15">
      <!-- 4 -->
      <g transform="translate(20.9 91.421231) scale(0.1 -0.1)">
       <use xlink:href="#DejaVuSans-34"/>
      </g>
     </g>
    </g>
    <g id="ytick_6">
     <g id="line2d_15">
      <g>
       <use xlink:href="#me0752dc8d4" x="34.2625" y="31.517516" style="stroke: #000000; stroke-width: 0.8"/>
      </g>
     </g>
     <g id="text_16">
      <!-- 5 -->
      <g transform="translate(20.9 35.316734) scale(0.1 -0.1)">
       <use xlink:href="#DejaVuSans-35"/>
      </g>
     </g>
    </g>
    <g id="text_17">
     <!-- $g(r)$ -->
     <g transform="translate(14.8 176.33) rotate(-90) scale(0.1 -0.1)">
      <defs>
       <path id="DejaVuSans-Oblique-67" d="M 3816 3500 
L 3219 434 
Q 3047 -456 2561 -893 
Q 2075 -1331 1253 -1331 
Q 950 -1331 690 -1286 
Q 431 -1241 206 -1147 
L 313 -588 
Q 525 -725 762 -790 
Q 1000 -856 1269 -856 
Q 1816 -856 2167 -557 
Q 2519 -259 2631 300 
L 2681 563 
Q 2441 288 2122 144 
Q 1803 0 1434 0 
Q 903 0 598 351 
Q 294 703 294 1319 
Q 294 1803 478 2267 
Q 663 2731 997 3091 
Q 1219 3328 1514 3456 
Q 1809 3584 2131 3584 
Q 2484 3584 2746 3420 
Q 3009 3256 3138 2956 
L 3238 3500 
L 3816 3500 
z
M 2950 2216 
Q 2950 2641 2750 2872 
Q 2550 3103 2181 3103 
Q 1953 3103 1747 3012 
Q 1541 2922 1394 2759 
Q 1156 2491 1023 2127 
Q 891 1763 891 1375 
Q 891 944 1092 712 
Q 1294 481 1672 481 
Q 2219 481 2584 976 
Q 2950 1472 2950 2216 
z
" transform="scale(0.015625)"/>
       <path id="DejaVuSans-28" d="M 1984 4856 
Q 1566 4138 1362 3434 
Q 1159 2731 1159 2009 
Q 1159 1288 1364 580 
Q 1569 -128 1984 -844 
L 1484 -844 
Q 1016 -109 783 600 
Q 550 1309 550 2009 
Q 550 2706 781 3412 
Q 1013 4119 1484 4856 
L 1984 4856 
z
" transform="scale(0.015625)"/>
       <path id="DejaVuSans-29" d="M 513 4856 
L 1013 4856 
Q 1481 4119 1714 3412 
Q 1947 2706 1947 2009 
Q 1947 1309 1714 600 
Q 1481 -109 1013 -844 
L 513 -844 
Q 928 -128 1133 580 
Q 1338 1288 1338 2009 
Q 1338 2731 1133 3434 
Q 928 4138 513 4856 
z
" transform="scale(0.015625)"/>
      </defs>
      <use xlink:href="#DejaVuSans-Oblique-67" transform="translate(0 0.125)"/>
      <use xlink:href="#DejaVuSans-28" transform="translate(63.476562 0.125)"/>
      <use xlink:href="#DejaVuSans-Oblique-72" transform="translate(102.490234 0.125)"/>
      <use xlink:href="#DejaVuSans-29" transform="translate(143.603516 0.125)"/>
     </g>
    </g>
   </g>
   <g id="line2d_16">
    <path d="M 51.727727 312.04 
L 132.471492 312.04 
L 134.226791 302.820324 
L 135.98209 285.509753 
L 137.737389 235.632456 
L 139.492688 197.844238 
L 141.247988 143.412168 
L 143.003287 108.264988 
L 144.758586 101.275875 
L 146.513885 80.925257 
L 148.269185 48.658182 
L 150.024484 83.96446 
L 151.779783 101.265984 
L 155.290381 150.45262 
L 157.045681 144.383545 
L 158.80098 177.291114 
L 160.556279 173.58044 
L 162.311578 201.12228 
L 165.822177 222.338523 
L 169.332775 227.57532 
L 171.088074 241.106723 
L 172.843374 256.053264 
L 174.598673 247.166836 
L 176.353972 236.761412 
L 178.109271 248.717802 
L 179.864571 242.727745 
L 181.61987 252.071965 
L 183.375169 244.526538 
L 185.130468 253.38922 
L 186.885767 256.62473 
L 188.641067 242.836577 
L 190.396366 261.023505 
L 192.151665 249.442619 
L 193.906964 247.837477 
L 195.662264 270.779028 
L 197.417563 258.33518 
L 199.172862 253.77196 
L 200.928161 248.01284 
L 202.68346 257.825375 
L 204.43876 233.245471 
L 206.194059 235.016059 
L 207.949358 241.921587 
L 209.704657 233.302972 
L 211.459957 237.49927 
L 213.215256 236.670975 
L 214.970555 239.464276 
L 216.725854 211.874149 
L 218.481153 240.191329 
L 220.236453 211.515273 
L 221.991752 236.543824 
L 223.747051 204.835575 
L 225.50235 238.497714 
L 227.25765 197.732118 
L 230.768248 212.049417 
L 232.523547 206.20451 
L 234.278847 209.172836 
L 236.034146 229.80373 
L 237.789445 199.244543 
L 239.544744 220.234433 
L 241.300043 233.404915 
L 243.055343 207.075361 
L 244.810642 221.744263 
L 246.565941 231.722998 
L 248.32124 208.489656 
L 250.07654 223.224849 
L 251.831839 231.116373 
L 253.587138 215.358382 
L 255.342437 230.039186 
L 257.097736 222.38851 
L 258.853036 235.005908 
L 260.608335 229.734472 
L 262.363634 239.690807 
L 264.118933 238.763075 
L 265.874233 251.044614 
L 267.629532 243.163037 
L 269.384831 242.922966 
L 271.14013 236.095383 
L 272.895429 234.041395 
L 274.650729 249.336413 
L 276.406028 244.639327 
L 278.161327 242.575129 
L 279.916626 243.024888 
L 281.671926 239.258555 
L 283.427225 242.72281 
L 285.182524 237.921254 
L 286.937823 238.444323 
L 288.693122 240.659615 
L 290.448422 244.49285 
L 292.203721 224.015903 
L 293.95902 229.07806 
L 295.714319 240.418497 
L 297.469619 229.842422 
L 299.224918 236.714466 
L 300.980217 236.23129 
L 302.735516 243.850562 
L 304.490815 231.341309 
L 306.246115 226.05964 
L 308.001414 228.683319 
L 309.756713 238.415235 
L 311.512012 229.498491 
L 313.267312 227.806766 
L 315.022611 232.136914 
L 316.77791 222.765323 
L 318.533209 244.952915 
L 320.288508 235.671069 
L 322.043808 229.684573 
L 323.799107 229.880084 
L 325.554406 224.981215 
L 327.309705 231.114827 
L 329.065005 233.788849 
L 330.820304 235.175827 
L 332.575603 237.341969 
L 336.086201 231.291463 
L 337.841501 226.05072 
L 339.5968 246.696155 
L 341.352099 237.230317 
L 343.107398 241.878199 
L 344.862698 244.5671 
L 346.617997 234.008955 
L 348.373296 233.478824 
L 350.128595 245.131622 
L 351.883894 236.007743 
L 353.639194 249.820074 
L 355.394493 241.205863 
L 357.149792 239.965887 
L 358.905091 235.381672 
L 360.660391 238.918947 
L 362.41569 252.945907 
L 364.170989 250.668155 
L 365.926288 247.476232 
L 367.681587 252.659162 
L 369.436887 241.944922 
L 371.192186 240.524931 
L 372.947485 249.951417 
L 374.702784 244.205899 
L 376.458084 248.562572 
L 378.213383 254.6242 
L 379.968682 247.838516 
L 381.723981 242.077861 
L 383.47928 241.366062 
L 385.23458 253.284056 
L 386.989879 245.103598 
L 388.745178 254.217924 
L 390.500477 260.647739 
L 392.255777 250.17696 
L 394.011076 259.788873 
L 395.766375 256.009281 
L 397.521674 258.708503 
L 401.032273 261.863147 
L 401.032273 261.863147 
" clip-path="url(#pb9d23063af)" style="fill: none; stroke: #1f77b4; stroke-width: 1.5; stroke-linecap: square"/>
   </g>
   <g id="line2d_17">
    <path d="M 34.2625 255.935503 
L 418.4975 255.935503 
" clip-path="url(#pb9d23063af)" style="fill: none; stroke-dasharray: 5.55,2.4; stroke-dashoffset: 0; stroke: #000000; stroke-opacity: 0.4; stroke-width: 1.5"/>
   </g>
   <g id="patch_3">
    <path d="M 34.2625 312.04 
L 34.2625 22.32 
" style="fill: none; stroke: #000000; stroke-width: 0.8; stroke-linejoin: miter; stroke-linecap: square"/>
   </g>
   <g id="patch_4">
    <path d="M 418.4975 312.04 
L 418.4975 22.32 
" style="fill: none; stroke: #000000; stroke-width: 0.8; stroke-linejoin: miter; stroke-linecap: square"/>
   </g>
   <g id="patch_5">
    <path d="M 34.2625 312.04 
L 418.4975 312.04 
" style="fill: none; stroke: #000000; stroke-width: 0.8; stroke-linejoin: miter; stroke-linecap: square"/>
   </g>
   <g id="patch_6">
    <path d="M 34.2625 22.32 
L 418.4975 22.32 
" style="fill: none; stroke: #000000; stroke-width: 0.8; stroke-linejoin: miter; stroke-linecap: square"/>
   </g>
   <g id="text_18">
    <!-- SLAB - 3D $g(r)$ -->
    <g transform="translate(183.96 16.32) scale(0.12 -0.12)">
     <defs>
      <path id="DejaVuSans-53" d="M 3425 4513 
L 3425 3897 
Q 3066 4069 2747 4153 
Q 2428 4238 2131 4238 
Q 1616 4238 1336 4038 
Q 1056 3838 1056 3469 
Q 1056 3159 1242 3001 
Q 1428 2844 1947 2747 
L 2328 2669 
Q 3034 2534 3370 2195 
Q 3706 1856 3706 1288 
Q 3706 609 3251 259 
Q 2797 -91 1919 -91 
Q 1588 -91 1214 -16 
Q 841 59 441 206 
L 441 856 
Q 825 641 1194 531 
Q 1563 422 1919 422 
Q 2459 422 2753 634 
Q 3047 847 3047 1241 
Q 3047 1584 2836 1778 
Q 2625 1972 2144 2069 
L 1759 2144 
Q 1053 2284 737 2584 
Q 422 2884 422 3419 
Q 422 4038 858 4394 
Q 1294 4750 2059 4750 
Q 2388 4750 2728 4690 
Q 3069 4631 3425 4513 
z
" transform="scale(0.015625)"/>
      <path id="DejaVuSans-4c" d="M 628 4666 
L 1259 4666 
L 1259 531 
L 3531 531 
L 3531 0 
L 628 0 
L 628 4666 
z
" transform="scale(0.015625)"/>
      <path id="DejaVuSans-41" d="M 2188 4044 
L 1331 1722 
L 3047 1722 
L 2188 4044 
z
M 1831 4666 
L 2547 4666 
L 4325 0 
L 3669 0 
L 3244 1197 
L 1141 1197 
L 716 0 
L 50 0 
L 1831 4666 
z
" transform="scale(0.015625)"/>
      <path id="DejaVuSans-42" d="M 1259 2228 
L 1259 519 
L 2272 519 
Q 2781 519 3026 730 
Q 3272 941 3272 1375 
Q 3272 1813 3026 2020 
Q 2781 2228 2272 2228 
L 1259 2228 
z
M 1259 4147 
L 1259 2741 
L 2194 2741 
Q 2656 2741 2882 2914 
Q 3109 3088 3109 3444 
Q 3109 3797 2882 3972 
Q 2656 4147 2194 4147 
L 1259 4147 
z
M 628 4666 
L 2241 4666 
Q 2963 4666 3353 4366 
Q 3744 4066 3744 3513 
Q 3744 3084 3544 2831 
Q 3344 2578 2956 2516 
Q 3422 2416 3680 2098 
Q 3938 1781 3938 1306 
Q 3938 681 3513 340 
Q 3088 0 2303 0 
L 628 0 
L 628 4666 
z
" transform="scale(0.015625)"/>
      <path id="DejaVuSans-20" transform="scale(0.015625)"/>
      <path id="DejaVuSans-2d" d="M 313 2009 
L 1997 2009 
L 1997 1497 
L 313 1497 
L 313 2009 
z
" transform="scale(0.015625)"/>
      <path id="DejaVuSans-44" d="M 1259 4147 
L 1259 519 
L 2022 519 
Q 2988 519 3436 956 
Q 3884 1394 3884 2338 
Q 3884 3275 3436 3711 
Q 2988 4147 2022 4147 
L 1259 4147 
z
M 628 4666 
L 1925 4666 
Q 3281 4666 3915 4102 
Q 4550 3538 4550 2338 
Q 4550 1131 3912 565 
Q 3275 0 1925 0 
L 628 0 
L 628 4666 
z
" transform="scale(0.015625)"/>
     </defs>
     <use xlink:href="#DejaVuSans-53" transform="translate(0 0.125)"/>
     <use xlink:href="#DejaVuSans-4c" transform="translate(63.476562 0.125)"/>
     <use xlink:href="#DejaVuSans-41" transform="translate(119.189453 0.125)"/>
     <use xlink:href="#DejaVuSans-42" transform="translate(187.597656 0.125)"/>
     <use xlink:href="#DejaVuSans-20" transform="translate(256.201172 0.125)"/>
     <use xlink:href="#DejaVuSans-2d" transform="translate(287.988281 0.125)"/>
     <use xlink:href="#DejaVuSans-20" transform="translate(324.072266 0.125)"/>
     <use xlink:href="#DejaVuSans-33" transform="translate(355.859375 0.125)"/>
     <use xlink:href="#DejaVuSans-44" transform="translate(414.982422 0.125)"/>
     <use xlink:href="#DejaVuSans-20" transform="translate(491.984375 0.125)"/>
     <use xlink:href="#DejaVuSans-Oblique-67" transform="translate(523.771484 0.125)"/>
     <use xlink:href="#DejaVuSans-28" transform="translate(587.248047 0.125)"/>
     <use xlink:href="#DejaVuSans-Oblique-72" transform="translate(626.261719 0.125)"/>
     <use xlink:href="#DejaVuSans-29" transform="translate(667.375 0.125)"/>
    </g>
   </g>
  </g>
  <g id="axes_2">
   <g id="patch_7">
    <path d="M 463.5175 312.04 
L 847.7525 312.04 
L 847.7525 22.32 
L 463.5175 22.32 
z
" style="fill: #ffffff"/>
   </g>
   <g id="matplotlib.axis_3">
    <g id="xtick_10">
     <g id="line2d_18">
      <g>
       <use xlink:href="#m1b18c3ac85" x="463.5175" y="312.04" style="stroke: #000000; stroke-width: 0.8"/>
      </g>
     </g>
     <g id="text_19">
      <!-- 0 -->
      <g transform="translate(460.33625 326.638438) scale(0.1 -0.1)">
       <use xlink:href="#DejaVuSans-30"/>
      </g>
     </g>
    </g>
    <g id="xtick_11">
     <g id="line2d_19">
      <g>
       <use xlink:href="#m1b18c3ac85" x="514.748833" y="312.04" style="stroke: #000000; stroke-width: 0.8"/>
      </g>
     </g>
     <g id="text_20">
      <!-- 2 -->
      <g transform="translate(511.567583 326.638438) scale(0.1 -0.1)">
       <use xlink:href="#DejaVuSans-32"/>
      </g>
     </g>
    </g>
    <g id="xtick_12">
     <g id="line2d_20">
      <g>
       <use xlink:href="#m1b18c3ac85" x="565.980167" y="312.04" style="stroke: #000000; stroke-width: 0.8"/>
      </g>
     </g>
     <g id="text_21">
      <!-- 4 -->
      <g transform="translate(562.798917 326.638438) scale(0.1 -0.1)">
       <use xlink:href="#DejaVuSans-34"/>
      </g>
     </g>
    </g>
    <g id="xtick_13">
     <g id="line2d_21">
      <g>
       <use xlink:href="#m1b18c3ac85" x="617.2115" y="312.04" style="stroke: #000000; stroke-width: 0.8"/>
      </g>
     </g>
     <g id="text_22">
      <!-- 6 -->
      <g transform="translate(614.03025 326.638438) scale(0.1 -0.1)">
       <defs>
        <path id="DejaVuSans-36" d="M 2113 2584 
Q 1688 2584 1439 2293 
Q 1191 2003 1191 1497 
Q 1191 994 1439 701 
Q 1688 409 2113 409 
Q 2538 409 2786 701 
Q 3034 994 3034 1497 
Q 3034 2003 2786 2293 
Q 2538 2584 2113 2584 
z
M 3366 4563 
L 3366 3988 
Q 3128 4100 2886 4159 
Q 2644 4219 2406 4219 
Q 1781 4219 1451 3797 
Q 1122 3375 1075 2522 
Q 1259 2794 1537 2939 
Q 1816 3084 2150 3084 
Q 2853 3084 3261 2657 
Q 3669 2231 3669 1497 
Q 3669 778 3244 343 
Q 2819 -91 2113 -91 
Q 1303 -91 875 529 
Q 447 1150 447 2328 
Q 447 3434 972 4092 
Q 1497 4750 2381 4750 
Q 2619 4750 2861 4703 
Q 3103 4656 3366 4563 
z
" transform="scale(0.015625)"/>
       </defs>
       <use xlink:href="#DejaVuSans-36"/>
      </g>
     </g>
    </g>
    <g id="xtick_14">
     <g id="line2d_22">
      <g>
       <use xlink:href="#m1b18c3ac85" x="668.442833" y="312.04" style="stroke: #000000; stroke-width: 0.8"/>
      </g>
     </g>
     <g id="text_23">
      <!-- 8 -->
      <g transform="translate(665.261583 326.638438) scale(0.1 -0.1)">
       <defs>
        <path id="DejaVuSans-38" d="M 2034 2216 
Q 1584 2216 1326 1975 
Q 1069 1734 1069 1313 
Q 1069 891 1326 650 
Q 1584 409 2034 409 
Q 2484 409 2743 651 
Q 3003 894 3003 1313 
Q 3003 1734 2745 1975 
Q 2488 2216 2034 2216 
z
M 1403 2484 
Q 997 2584 770 2862 
Q 544 3141 544 3541 
Q 544 4100 942 4425 
Q 1341 4750 2034 4750 
Q 2731 4750 3128 4425 
Q 3525 4100 3525 3541 
Q 3525 3141 3298 2862 
Q 3072 2584 2669 2484 
Q 3125 2378 3379 2068 
Q 3634 1759 3634 1313 
Q 3634 634 3220 271 
Q 2806 -91 2034 -91 
Q 1263 -91 848 271 
Q 434 634 434 1313 
Q 434 1759 690 2068 
Q 947 2378 1403 2484 
z
M 1172 3481 
Q 1172 3119 1398 2916 
Q 1625 2713 2034 2713 
Q 2441 2713 2670 2916 
Q 2900 3119 2900 3481 
Q 2900 3844 2670 4047 
Q 2441 4250 2034 4250 
Q 1625 4250 1398 4047 
Q 1172 3844 1172 3481 
z
" transform="scale(0.015625)"/>
       </defs>
       <use xlink:href="#DejaVuSans-38"/>
      </g>
     </g>
    </g>
    <g id="xtick_15">
     <g id="line2d_23">
      <g>
       <use xlink:href="#m1b18c3ac85" x="719.674167" y="312.04" style="stroke: #000000; stroke-width: 0.8"/>
      </g>
     </g>
     <g id="text_24">
      <!-- 10 -->
      <g transform="translate(713.311667 326.638438) scale(0.1 -0.1)">
       <use xlink:href="#DejaVuSans-31"/>
       <use xlink:href="#DejaVuSans-30" transform="translate(63.623047 0)"/>
      </g>
     </g>
    </g>
    <g id="xtick_16">
     <g id="line2d_24">
      <g>
       <use xlink:href="#m1b18c3ac85" x="770.9055" y="312.04" style="stroke: #000000; stroke-width: 0.8"/>
      </g>
     </g>
     <g id="text_25">
      <!-- 12 -->
      <g transform="translate(764.543 326.638438) scale(0.1 -0.1)">
       <use xlink:href="#DejaVuSans-31"/>
       <use xlink:href="#DejaVuSans-32" transform="translate(63.623047 0)"/>
      </g>
     </g>
    </g>
    <g id="xtick_17">
     <g id="line2d_25">
      <g>
       <use xlink:href="#m1b18c3ac85" x="822.136833" y="312.04" style="stroke: #000000; stroke-width: 0.8"/>
      </g>
     </g>
     <g id="text_26">
      <!-- 14 -->
      <g transform="translate(815.774333 326.638438) scale(0.1 -0.1)">
       <use xlink:href="#DejaVuSans-31"/>
       <use xlink:href="#DejaVuSans-34" transform="translate(63.623047 0)"/>
      </g>
     </g>
    </g>
    <g id="text_27">
     <!-- $|k|$ -->
     <g transform="translate(649.335 340.418125) scale(0.1 -0.1)">
      <defs>
       <path id="DejaVuSans-7c" d="M 1344 4891 
L 1344 -1509 
L 813 -1509 
L 813 4891 
L 1344 4891 
z
" transform="scale(0.015625)"/>
       <path id="DejaVuSans-Oblique-6b" d="M 1172 4863 
L 1747 4863 
L 1197 2028 
L 3169 3500 
L 3916 3500 
L 1716 1825 
L 3322 0 
L 2625 0 
L 1131 1709 
L 800 0 
L 225 0 
L 1172 4863 
z
" transform="scale(0.015625)"/>
      </defs>
      <use xlink:href="#DejaVuSans-7c" transform="translate(0 0.578125)"/>
      <use xlink:href="#DejaVuSans-Oblique-6b" transform="translate(33.691406 0.578125)"/>
      <use xlink:href="#DejaVuSans-7c" transform="translate(91.601562 0.578125)"/>
     </g>
    </g>
   </g>
   <g id="matplotlib.axis_4">
    <g id="ytick_7">
     <g id="line2d_26">
      <g>
       <use xlink:href="#me0752dc8d4" x="463.5175" y="312.04" style="stroke: #000000; stroke-width: 0.8"/>
      </g>
     </g>
     <g id="text_28">
      <!-- 0 -->
      <g transform="translate(450.155 315.839219) scale(0.1 -0.1)">
       <use xlink:href="#DejaVuSans-30"/>
      </g>
     </g>
    </g>
    <g id="ytick_8">
     <g id="line2d_27">
      <g>
       <use xlink:href="#me0752dc8d4" x="463.5175" y="275.9999" style="stroke: #000000; stroke-width: 0.8"/>
      </g>
     </g>
     <g id="text_29">
      <!-- 10 -->
      <g transform="translate(443.7925 279.799118) scale(0.1 -0.1)">
       <use xlink:href="#DejaVuSans-31"/>
       <use xlink:href="#DejaVuSans-30" transform="translate(63.623047 0)"/>
      </g>
     </g>
    </g>
    <g id="ytick_9">
     <g id="line2d_28">
      <g>
       <use xlink:href="#me0752dc8d4" x="463.5175" y="239.959799" style="stroke: #000000; stroke-width: 0.8"/>
      </g>
     </g>
     <g id="text_30">
      <!-- 20 -->
      <g transform="translate(443.7925 243.759018) scale(0.1 -0.1)">
       <use xlink:href="#DejaVuSans-32"/>
       <use xlink:href="#DejaVuSans-30" transform="translate(63.623047 0)"/>
      </g>
     </g>
    </g>
    <g id="ytick_10">
     <g id="line2d_29">
      <g>
       <use xlink:href="#me0752dc8d4" x="463.5175" y="203.919699" style="stroke: #000000; stroke-width: 0.8"/>
      </g>
     </g>
     <g id="text_31">
      <!-- 30 -->
      <g transform="translate(443.7925 207.718918) scale(0.1 -0.1)">
       <use xlink:href="#DejaVuSans-33"/>
       <use xlink:href="#DejaVuSans-30" transform="translate(63.623047 0)"/>
      </g>
     </g>
    </g>
    <g id="ytick_11">
     <g id="line2d_30">
      <g>
       <use xlink:href="#me0752dc8d4" x="463.5175" y="167.879599" style="stroke: #000000; stroke-width: 0.8"/>
      </g>
     </g>
     <g id="text_32">
      <!-- 40 -->
      <g transform="translate(443.7925 171.678817) scale(0.1 -0.1)">
       <use xlink:href="#DejaVuSans-34"/>
       <use xlink:href="#DejaVuSans-30" transform="translate(63.623047 0)"/>
      </g>
     </g>
    </g>
    <g id="ytick_12">
     <g id="line2d_31">
      <g>
       <use xlink:href="#me0752dc8d4" x="463.5175" y="131.839498" style="stroke: #000000; stroke-width: 0.8"/>
      </g>
     </g>
     <g id="text_33">
      <!-- 50 -->
      <g transform="translate(443.7925 135.638717) scale(0.1 -0.1)">
       <use xlink:href="#DejaVuSans-35"/>
       <use xlink:href="#DejaVuSans-30" transform="translate(63.623047 0)"/>
      </g>
     </g>
    </g>
    <g id="ytick_13">
     <g id="line2d_32">
      <g>
       <use xlink:href="#me0752dc8d4" x="463.5175" y="95.799398" style="stroke: #000000; stroke-width: 0.8"/>
      </g>
     </g>
     <g id="text_34">
      <!-- 60 -->
      <g transform="translate(443.7925 99.598617) scale(0.1 -0.1)">
       <use xlink:href="#DejaVuSans-36"/>
       <use xlink:href="#DejaVuSans-30" transform="translate(63.623047 0)"/>
      </g>
     </g>
    </g>
    <g id="ytick_14">
     <g id="line2d_33">
      <g>
       <use xlink:href="#me0752dc8d4" x="463.5175" y="59.759298" style="stroke: #000000; stroke-width: 0.8"/>
      </g>
     </g>
     <g id="text_35">
      <!-- 70 -->
      <g transform="translate(443.7925 63.558516) scale(0.1 -0.1)">
       <defs>
        <path id="DejaVuSans-37" d="M 525 4666 
L 3525 4666 
L 3525 4397 
L 1831 0 
L 1172 0 
L 2766 4134 
L 525 4134 
L 525 4666 
z
" transform="scale(0.015625)"/>
       </defs>
       <use xlink:href="#DejaVuSans-37"/>
       <use xlink:href="#DejaVuSans-30" transform="translate(63.623047 0)"/>
      </g>
     </g>
    </g>
    <g id="ytick_15">
     <g id="line2d_34">
      <g>
       <use xlink:href="#me0752dc8d4" x="463.5175" y="23.719197" style="stroke: #000000; stroke-width: 0.8"/>
      </g>
     </g>
     <g id="text_36">
      <!-- 80 -->
      <g transform="translate(443.7925 27.518416) scale(0.1 -0.1)">
       <use xlink:href="#DejaVuSans-38"/>
       <use xlink:href="#DejaVuSans-30" transform="translate(63.623047 0)"/>
      </g>
     </g>
    </g>
    <g id="text_37">
     <!-- $S(k)$ -->
     <g transform="translate(437.712812 177.18) rotate(-90) scale(0.1 -0.1)">
      <defs>
       <path id="DejaVuSans-Oblique-53" d="M 3859 4513 
L 3738 3897 
Q 3422 4066 3111 4152 
Q 2800 4238 2509 4238 
Q 1944 4238 1609 3991 
Q 1275 3744 1275 3334 
Q 1275 3109 1398 2989 
Q 1522 2869 2034 2731 
L 2413 2638 
Q 3053 2472 3303 2217 
Q 3553 1963 3553 1503 
Q 3553 797 2998 353 
Q 2444 -91 1538 -91 
Q 1166 -91 791 -17 
Q 416 56 38 206 
L 166 856 
Q 513 641 861 531 
Q 1209 422 1556 422 
Q 2147 422 2503 684 
Q 2859 947 2859 1369 
Q 2859 1650 2717 1795 
Q 2575 1941 2106 2059 
L 1728 2156 
Q 1081 2325 845 2545 
Q 609 2766 609 3163 
Q 609 3859 1145 4304 
Q 1681 4750 2541 4750 
Q 2875 4750 3203 4690 
Q 3531 4631 3859 4513 
z
" transform="scale(0.015625)"/>
      </defs>
      <use xlink:href="#DejaVuSans-Oblique-53" transform="translate(0 0.015625)"/>
      <use xlink:href="#DejaVuSans-28" transform="translate(63.476562 0.015625)"/>
      <use xlink:href="#DejaVuSans-Oblique-6b" transform="translate(102.490234 0.015625)"/>
      <use xlink:href="#DejaVuSans-29" transform="translate(160.400391 0.015625)"/>
     </g>
    </g>
   </g>
   <g id="line2d_35">
    <path d="M 476.929832 48.658182 
L 486.122553 311.620476 
L 489.802079 311.125926 
L 490.342163 309.657803 
L 495.485873 309.432124 
L 498.185461 311.117218 
L 498.59671 311.214729 
L 503.754495 308.027583 
L 505.249256 310.703111 
L 508.727607 311.196177 
L 509.669469 311.696875 
L 510.675155 311.782552 
L 514.063936 311.116377 
L 516.086658 311.508288 
L 517.166827 309.282357 
L 520.740789 311.255071 
L 521.734668 311.530178 
L 524.039971 311.504198 
L 525.969299 311.05894 
L 527.454246 311.585716 
L 528.123676 311.180287 
L 528.845887 310.949782 
L 530.579159 311.723054 
L 531.33266 311.730508 
L 532.646268 311.595089 
L 532.853422 311.731659 
L 533.675921 311.033563 
L 534.286522 311.909631 
L 535.000955 311.59415 
L 536.24834 311.40838 
L 536.445262 311.822551 
L 537.227692 311.411959 
L 537.809107 311.244945 
L 539.061681 311.461516 
L 539.868315 311.029152 
L 542.371236 311.054532 
L 543.99149 311.764935 
L 544.395308 311.630856 
L 545.021179 311.863806 
L 545.547374 311.37271 
L 546.117381 311.322428 
L 547.106085 311.84173 
L 547.494927 311.323529 
L 549.322 311.524351 
L 549.987993 311.383619 
L 550.108723 311.81282 
L 552.893865 311.577402 
L 553.937714 311.657768 
L 554.412305 310.795967 
L 554.927049 311.428412 
L 556.173712 310.800168 
L 556.720523 311.281386 
L 557.403822 311.388874 
L 557.83281 310.937417 
L 558.549102 311.532298 
L 558.891301 311.054731 
L 559.422619 311.838114 
L 560.086801 311.488524 
L 560.355935 311.727785 
L 560.503922 310.715598 
L 561.533572 311.193986 
L 562.486338 311.223261 
L 562.697227 310.853994 
L 563.103415 311.145135 
L 564.610372 310.211693 
L 565.035081 311.534376 
L 565.496221 311.588345 
L 566.298678 310.751582 
L 567.521383 311.570739 
L 567.722083 311.318789 
L 568.655815 310.959859 
L 568.755131 311.256446 
L 569.064247 310.844187 
L 570.816154 310.857111 
L 571.155539 311.311328 
L 572.323679 310.983789 
L 573.171453 311.260804 
L 573.408547 311.463486 
L 575.477216 310.985516 
L 576.09228 310.961535 
L 576.542767 310.808042 
L 577.106888 311.397721 
L 577.335783 310.948992 
L 578.339404 311.374063 
L 578.781109 310.726063 
L 579.334327 311.097959 
L 579.558829 309.683659 
L 579.682355 311.118827 
L 579.951837 311.050356 
L 580.543386 310.598373 
L 581.519728 310.448824 
L 581.86133 310.559326 
L 582.125861 311.409214 
L 583.491359 310.926579 
L 584.228485 304.002991 
L 584.562443 310.647717 
L 584.831287 310.845232 
L 585.249438 311.536141 
L 585.602369 310.970432 
L 585.98609 310.802145 
L 586.326825 310.876926 
L 586.655092 310.161241 
L 587.845659 311.307214 
L 588.38991 310.207308 
L 588.421097 310.981933 
L 588.629295 310.580996 
L 588.712768 308.374852 
L 590.450148 310.314007 
L 590.655023 310.111691 
L 591.390993 310.998677 
L 591.727018 310.324473 
L 592.092462 310.020557 
L 592.417057 310.286628 
L 592.44727 310.904298 
L 592.729852 310.264562 
L 593.864945 311.005934 
L 594.174274 310.777434 
L 594.384166 310.188071 
L 594.940394 310.176464 
L 595.326479 309.572971 
L 595.810527 309.583824 
L 596.007113 310.639229 
L 596.547252 309.236047 
L 596.870286 309.716662 
L 597.572138 309.290611 
L 597.640817 311.887103 
L 597.727907 309.057378 
L 598.028353 310.300938 
L 598.261148 310.40155 
L 599.147821 311.38886 
L 599.809372 309.100585 
L 600.115631 308.332091 
L 601.018672 308.250937 
L 601.398032 310.369625 
L 601.48275 309.698279 
L 601.671266 309.708424 
L 601.775037 309.177739 
L 601.973406 311.03582 
L 602.189344 309.832668 
L 602.264659 309.910221 
L 602.499264 310.98643 
L 603.834342 309.508737 
L 604.094036 307.320132 
L 604.990464 310.08516 
L 605.055544 309.447701 
L 605.643516 309.014707 
L 605.82652 309.078112 
L 606.484411 309.470117 
L 606.78504 308.717643 
L 606.849305 309.019404 
L 607.112167 305.229422 
L 607.429949 308.665535 
L 607.908968 310.230515 
L 608.260466 307.758105 
L 608.880551 308.529405 
L 608.979179 308.025284 
L 609.167738 310.119597 
L 609.373025 309.321808 
L 609.444632 309.467798 
L 610.450656 306.83298 
L 610.725138 306.783442 
L 610.937885 309.198343 
L 611.053149 307.5276 
L 611.114324 308.273132 
L 611.405542 309.354373 
L 612.038722 308.467826 
L 612.100715 305.374538 
L 612.179334 308.042733 
L 612.774849 304.696529 
L 613.749127 307.143983 
L 613.810414 306.774188 
L 614.338444 307.80061 
L 614.476914 310.0379 
L 614.605862 309.914036 
L 614.821333 309.468024 
L 615.156808 309.815571 
L 615.748806 309.004442 
L 616.023059 305.389226 
L 616.500631 307.341058 
L 617.248779 309.618301 
L 617.689268 307.987334 
L 617.824731 299.096627 
L 617.883223 310.304496 
L 617.950884 307.014354 
L 619.362654 306.975413 
L 619.471692 304.825204 
L 620.404388 308.143089 
L 620.463076 307.623485 
L 620.968797 307.476817 
L 620.993532 306.402457 
L 621.224973 308.485878 
L 621.752874 298.34194 
L 622.156308 307.22423 
L 622.320284 304.833102 
L 622.836788 307.074045 
L 623.041141 306.526499 
L 623.359366 307.383143 
L 623.921093 307.897794 
L 624.010479 306.873664 
L 624.31139 306.740674 
L 624.46548 311.585381 
L 625.345336 306.491263 
L 625.594595 302.792374 
L 625.787848 309.210242 
L 625.892571 303.282303 
L 626.045162 308.932705 
L 626.788592 305.83907 
L 626.844986 299.329413 
L 627.075715 306.991723 
L 627.458502 306.285851 
L 627.577247 303.637867 
L 627.609637 307.997689 
L 628.084773 298.248191 
L 628.401872 306.751394 
L 628.630425 301.783096 
L 628.717262 307.204168 
L 628.883316 304.497304 
L 629.323851 308.928518 
L 630.014388 301.612913 
L 630.256667 296.448391 
L 630.600365 309.538718 
L 630.69467 297.205857 
L 631.417514 308.680819 
L 631.472354 301.505211 
L 632.069027 303.482687 
L 632.216032 307.214773 
L 632.932385 301.479075 
L 633.478107 306.515696 
L 634.952055 304.249209 
L 635.126501 306.5438 
L 635.187366 309.815728 
L 635.377035 305.207184 
L 635.672458 302.07692 
L 636.043346 308.486421 
L 636.194135 304.748287 
L 636.458487 294.213337 
L 636.608914 305.967691 
L 636.699947 306.127726 
L 636.857305 309.013878 
L 637.749794 306.164948 
L 637.877812 310.014928 
L 638.027016 298.604259 
L 638.169005 309.712888 
L 638.913552 306.153818 
L 639.366219 307.901972 
L 639.484996 299.564293 
L 639.62581 304.184949 
L 639.780556 303.225197 
L 640.068611 292.550147 
L 640.364224 305.990325 
L 640.577336 297.108059 
L 640.784235 307.739882 
L 641.040729 300.731867 
L 641.22415 308.344189 
L 641.868618 307.108512 
L 642.094815 304.598467 
L 642.24844 308.650937 
L 642.270231 305.478737 
L 642.365303 305.70004 
L 642.474157 308.682802 
L 643.643767 307.675843 
L 643.693878 303.396478 
L 643.838269 306.386557 
L 643.925654 304.96471 
L 644.357927 300.446865 
L 644.595689 306.386789 
L 644.646539 303.396347 
L 644.854619 300.667942 
L 645.056644 308.409195 
L 645.084914 303.861654 
L 645.307109 304.031248 
L 645.765267 303.254125 
L 646.258134 305.702788 
L 646.336598 309.022307 
L 646.486662 300.933956 
L 646.707157 309.857321 
L 647.509552 302.898602 
L 647.728822 306.170288 
L 648.039979 306.914629 
L 648.125375 304.631129 
L 648.273002 307.055323 
L 648.780221 308.070215 
L 648.829923 309.465366 
L 648.892966 306.853586 
L 649.23079 308.960705 
L 649.279393 305.057092 
L 649.370879 306.378325 
L 649.504209 308.033234 
L 649.923546 304.871274 
L 650.405447 308.804258 
L 650.601477 309.618975 
L 650.740541 307.633781 
L 651.290144 297.878316 
L 651.567151 307.755963 
L 651.629276 306.754581 
L 651.84375 306.287487 
L 651.962194 309.033349 
L 651.989429 307.786646 
L 652.148119 309.375458 
L 652.376074 307.859014 
L 652.645907 311.254896 
L 652.982612 308.736232 
L 653.497759 307.14564 
L 653.552741 307.978649 
L 653.580703 307.9686 
L 653.99202 305.782391 
L 654.216818 305.35245 
L 654.265103 308.42249 
L 654.701795 301.91142 
L 654.790688 307.15231 
L 655.327739 303.756953 
L 655.796096 306.874821 
L 655.986636 306.07504 
L 656.033533 308.469836 
L 656.391879 306.121391 
L 656.655161 308.832607 
L 656.656102 308.475084 
L 657.120307 309.556403 
L 657.194371 309.433154 
L 657.336028 308.031646 
L 657.490344 308.374802 
L 657.712028 305.946756 
L 657.973522 310.402815 
L 657.974457 308.245354 
L 658.435522 309.524531 
L 658.509086 305.865529 
L 658.756835 308.688166 
L 659.502661 307.275626 
L 659.549645 304.809367 
L 659.609241 309.40552 
L 659.814997 308.849445 
L 659.928634 306.569069 
L 659.974591 307.176046 
L 660.187181 309.155026 
L 660.801995 307.925821 
L 660.848669 308.365597 
L 661.225168 309.223319 
L 661.356765 309.04298 
L 661.455175 304.750857 
L 661.482022 308.532431 
L 661.619696 308.303431 
L 661.876955 305.524984 
L 662.092827 309.326994 
L 662.513255 308.305176 
L 662.539045 307.632401 
L 662.68933 307.296893 
L 662.741775 308.199265 
L 663.160836 310.324726 
L 663.479837 309.309235 
L 663.818683 309.267289 
L 663.968009 308.047376 
L 664.436514 308.012394 
L 664.702476 309.024034 
L 665.193825 307.817871 
L 665.238582 308.355507 
L 665.3167 307.413836 
L 665.703244 309.442819 
L 665.961428 309.335839 
L 665.968439 308.659592 
L 666.147621 309.982161 
L 666.353742 309.877128 
L 666.372943 308.692875 
L 666.552662 309.667026 
L 666.713055 306.432892 
L 666.962981 308.960402 
L 667.226536 307.923951 
L 667.276921 310.182247 
L 667.404612 309.941598 
L 667.474941 310.025043 
L 667.609463 307.854011 
L 667.96657 310.506903 
L 668.215852 309.173311 
L 668.526988 306.975955 
L 668.723802 310.782983 
L 668.959232 308.805871 
L 669.079857 306.777244 
L 669.212446 308.147292 
L 669.668151 307.250953 
L 669.719702 308.34863 
L 669.965108 309.185599 
L 670.199124 308.122673 
L 670.903805 311.63117 
L 670.955049 309.719339 
L 671.306406 307.348115 
L 671.525266 302.825959 
L 671.550813 309.197075 
L 671.925795 309.77826 
L 671.926667 309.685237 
L 672.13214 308.52995 
L 672.23227 309.985691 
L 672.356931 308.680319 
L 672.532375 308.531902 
L 672.700017 309.476305 
L 672.749953 308.396898 
L 673.149008 307.218034 
L 673.645033 310.153683 
L 673.775607 308.7224 
L 673.79413 309.603573 
L 673.917866 309.956618 
L 673.992763 307.905301 
L 674.364264 306.424312 
L 674.610994 308.16035 
L 674.617718 310.238289 
L 675.086041 308.936831 
L 675.128706 307.468324 
L 675.203174 308.39125 
L 675.774498 309.431103 
L 675.81788 308.303419 
L 675.824566 310.255387 
L 676.167878 307.956202 
L 676.534732 307.90968 
L 676.773148 306.492158 
L 676.774 309.392065 
L 677.072667 307.222049 
L 677.194504 307.68353 
L 677.389978 307.799751 
L 677.730781 308.851821 
L 677.967866 310.487097 
L 678.265719 309.244439 
L 678.38688 309.451102 
L 678.453616 310.338481 
L 678.793579 307.729405 
L 678.920188 310.810225 
L 679.45218 309.89832 
L 679.742264 308.473599 
L 679.862598 310.714839 
L 679.977146 308.31396 
L 680.535902 309.878724 
L 680.584872 309.175166 
L 681.040349 310.521834 
L 681.129858 307.361565 
L 681.710019 309.171363 
L 681.752222 309.107489 
L 682.092717 309.652821 
L 682.116198 308.824486 
L 682.300787 306.629429 
L 682.449644 308.84348 
L 682.682453 310.248484 
L 683.465483 309.217784 
L 683.845132 309.167686 
L 684.087692 310.555548 
L 684.418162 309.045596 
L 684.459024 309.370956 
L 684.535949 309.296368 
L 684.576791 309.93811 
L 684.648077 309.347424 
L 685.236599 307.354918 
L 685.243001 309.350602 
L 685.571752 310.094224 
L 685.594865 308.203782 
L 685.612402 310.568873 
L 686.151457 310.261407 
L 686.392322 309.393316 
L 686.438375 309.796763 
L 686.555096 308.769676 
L 686.923141 309.492682 
L 687.06892 308.965862 
L 687.296112 309.780123 
L 687.296924 309.584835 
L 687.581565 310.224556 
L 687.697691 309.14543 
L 687.761656 309.797794 
L 688.208901 309.54324 
L 688.66706 310.264704 
L 688.673364 308.887269 
L 688.718951 309.327311 
L 688.898133 309.231076 
L 688.997113 307.919291 
L 689.222365 310.416137 
L 689.568034 308.848933 
L 689.758289 310.476206 
L 689.79899 309.332424 
L 690.150043 309.797523 
L 690.242217 310.684891 
L 690.351524 309.082191 
L 690.695475 310.391256 
L 690.696275 309.592711 
L 690.884786 310.915338 
L 691.091055 309.952917 
L 691.154067 309.001035 
L 691.274603 310.807847 
L 691.451776 310.494181 
L 692.097155 310.59576 
L 692.273691 310.269342 
L 692.524332 308.905611 
L 692.593145 310.396914 
L 692.934528 309.346077 
L 693.121202 308.049525 
L 693.161307 308.742993 
L 693.524162 308.001278 
L 693.598057 308.773075 
L 693.637289 310.49677 
L 693.70577 310.022882 
L 694.044717 308.952424 
L 694.23128 310.110427 
L 694.43456 308.665808 
L 694.593241 308.656701 
L 694.632305 311.234745 
L 695.151154 310.878071 
L 695.381887 308.597013 
L 695.600159 309.674547 
L 695.84721 309.259237 
L 696.250769 307.914 
L 696.25155 310.378027 
L 696.525252 310.38812 
L 697.128573 307.321176 
L 697.569272 309.842355 
L 697.61919 309.092851 
L 697.791564 310.723499 
L 697.997811 309.796122 
L 698.658352 310.559155 
L 698.664388 309.924209 
L 698.974401 309.399309 
L 698.996198 310.036705 
L 699.190116 310.238926 
L 699.521186 308.977442 
L 699.521956 309.566488 
L 699.703424 308.634681 
L 699.742411 309.575733 
L 699.901998 309.556754 
L 700.057011 307.278429 
L 700.078709 308.99387 
L 700.205159 309.557843 
L 700.249293 310.765109 
L 700.38687 308.663993 
L 700.602067 310.504044 
L 701.040767 310.730686 
L 701.156289 309.998364 
L 701.244195 308.557548 
L 701.3261 308.908284 
L 701.901695 309.811463 
L 702.207503 309.610358 
L 702.245321 311.277277 
L 702.354317 308.978807 
L 702.420299 309.557141 
L 702.926681 310.47351 
L 703.275515 309.532685 
L 703.313165 307.908926 
L 703.465218 310.650914 
L 703.600952 310.832916 
L 703.812514 308.636576 
L 704.035693 309.216571 
L 704.527657 308.613764 
L 704.874177 309.203789 
L 705.138112 310.336603 
L 705.305127 309.977006 
L 705.504969 306.00088 
L 705.542272 310.137315 
L 705.607385 309.130301 
L 705.719979 310.23976 
L 706.145074 309.353021 
L 706.150924 311.218998 
L 706.193227 309.355345 
L 706.558492 309.927587 
L 706.660464 309.354631 
L 706.981376 310.696196 
L 707.158034 308.94768 
L 707.195829 309.471092 
L 707.201654 310.002001 
L 707.350537 310.163154 
L 707.607468 309.487355 
L 707.687238 308.480635 
L 708.028538 308.362023 
L 708.396119 310.328076 
L 708.454679 310.203025 
L 708.54576 310.671872 
L 708.566706 309.260753 
L 708.864206 309.365199 
L 709.331401 308.967464 
L 709.495568 310.319609 
L 709.607121 307.846837 
L 709.728678 308.162022 
L 709.771105 309.323101 
L 709.792684 309.240364 
L 710.110257 309.086612 
L 710.283938 310.000484 
L 710.327006 308.6056 
L 710.658917 310.385105 
L 711.317144 309.304309 
L 711.360032 307.189953 
L 711.654183 309.264809 
L 711.690561 307.82237 
L 712.173088 311.457759 
L 712.173818 310.211573 
L 712.430013 310.063218 
L 712.534552 310.868834 
L 712.994873 308.806993 
L 713.198476 306.612528 
L 713.199204 308.800661 
L 713.558457 310.054732 
L 713.615808 311.227587 
L 713.809016 307.913991 
L 713.845081 309.00435 
L 713.908035 308.754436 
L 714.474501 307.282258 
L 714.635306 309.714396 
L 714.724145 309.533598 
L 714.760079 309.137057 
L 714.827729 309.441532 
L 714.926347 311.033149 
L 715.407589 310.267941 
L 715.449781 309.048465 
L 715.739163 310.419717 
L 715.940552 307.891191 
L 716.048538 308.264879 
L 716.249681 307.920075 
L 716.605322 309.77416 
L 716.770379 309.867064 
L 716.929727 309.656784 
L 717.058253 309.999162 
L 717.669261 308.299749 
L 717.777228 305.139086 
L 717.792546 310.282325 
L 717.89488 310.218978 
L 718.264228 309.807879 
L 718.861944 309.595618 
L 718.897296 308.214391 
L 719.264485 311.295085 
L 719.474192 309.138109 
L 719.61594 309.024867 
L 719.779058 307.777512 
L 719.794256 308.558499 
L 719.936536 309.929506 
L 720.470446 310.531214 
L 720.667423 307.081104 
L 720.774132 308.464574 
L 720.931001 308.448366 
L 721.057531 310.192992 
L 721.254764 310.175408 
L 721.255469 308.65719 
L 721.502645 309.720854 
L 721.603509 309.418384 
L 722.047684 310.533601 
L 722.410405 310.357667 
L 722.451455 309.044974 
L 722.646927 309.301049 
L 722.767844 310.572889 
L 722.833406 308.513706 
L 722.92898 308.799154 
L 723.430837 308.923765 
L 723.436298 308.740088 
L 723.716798 309.303849 
L 723.736523 310.12433 
L 723.816803 308.181168 
L 724.212391 311.116093 
L 724.376682 309.667368 
L 724.411983 308.092291 
L 724.456766 309.018449 
L 724.69687 309.073068 
L 724.831049 309.295585 
L 724.871024 310.282124 
L 724.995647 308.039958 
L 725.190606 309.489255 
L 725.434069 310.031552 
L 725.692855 308.799963 
L 725.846783 310.492466 
L 726.363288 307.109921 
L 726.680368 307.391449 
L 726.779247 310.207714 
L 726.839109 309.101937 
L 727.135458 306.991394 
L 727.333528 308.985418 
L 727.476433 307.866008 
L 727.910742 308.708148 
L 728.102867 310.140233 
L 728.103554 310.06043 
L 728.305574 309.146069 
L 728.442597 309.624028 
L 728.496727 308.487477 
L 728.600283 309.597088 
L 728.752524 308.078102 
L 729.307347 309.067791 
L 729.459183 310.134267 
L 729.577005 308.60919 
L 729.836413 310.446379 
L 730.223072 308.659418 
L 730.266879 309.786337 
L 730.501757 310.705109 
L 730.535568 310.393152 
L 730.692019 308.003531 
L 731.457012 310.602113 
L 731.55413 305.583598 
L 731.626775 309.691347 
L 731.646596 309.003024 
L 731.938314 306.692318 
L 732.132166 309.754534 
L 732.408873 308.327121 
L 732.427961 308.46107 
L 732.539206 309.978518 
L 732.888475 309.845516 
L 733.124986 309.225889 
L 733.45381 309.010108 
L 733.835295 310.930326 
L 734.033035 309.270916 
L 734.398655 307.810508 
L 734.778141 306.120924 
L 734.970634 309.585403 
L 734.975863 309.16594 
L 735.109521 308.492101 
L 735.244451 308.609666 
L 735.277672 307.359511 
L 735.718389 310.335039 
L 735.95311 309.827342 
L 736.048626 307.548769 
L 736.201914 309.492105 
L 736.469295 309.458856 
L 736.6554 309.157569 
L 736.984505 306.80432 
L 737.036944 309.50452 
L 737.213619 308.632945 
L 737.746148 310.384374 
L 737.784903 308.237118 
L 737.822328 308.50392 
L 737.969454 305.680128 
L 738.083623 309.07625 
L 738.235776 307.503615 
L 738.676254 309.628224 
L 738.70972 309.044963 
L 738.846721 309.366538 
L 738.97982 307.943077 
L 739.16423 310.66484 
L 739.447342 305.739256 
L 739.448 310.044737 
L 739.603226 310.517201 
L 739.773121 309.538706 
L 739.825031 308.228424 
L 739.905774 309.942484 
L 739.924344 306.296608 
L 740.032573 309.842156 
L 740.070351 309.193164 
L 740.372389 309.566205 
L 740.748162 307.597253 
L 740.955014 310.023863 
L 741.011818 308.522335 
L 741.293701 310.133537 
L 741.481029 308.691224 
L 741.486135 310.611516 
L 741.841965 309.655573 
L 741.931014 306.215058 
L 742.365655 307.421176 
L 742.398679 306.224804 
L 742.403768 309.269818 
L 742.697546 308.658459 
L 742.944774 307.792278 
L 743.126569 310.023199 
L 743.355077 309.680043 
L 743.448067 308.8004 
L 743.597305 308.608303 
L 743.704115 307.814551 
L 743.857633 309.806925 
L 744.039484 308.337835 
L 744.266601 308.29285 
L 744.410351 309.481896 
L 744.670573 308.228289 
L 744.767528 305.699085 
L 745.489948 309.182048 
L 746.006875 309.679215 
L 746.039473 305.975687 
L 746.302572 308.863381 
L 746.320722 306.979718 
L 746.48221 309.968896 
L 746.758008 306.86533 
L 746.942365 308.36566 
L 747.075388 306.878734 
L 747.204626 309.839101 
L 747.364971 310.038718 
L 747.659255 306.815005 
L 748.025405 308.743319 
L 748.121856 308.209103 
L 748.135541 309.956722 
L 748.19526 308.037283 
L 748.226969 309.734327 
L 748.26366 308.379035 
L 748.557016 307.239764 
L 748.744549 309.358413 
L 749.031803 309.959189 
L 749.091335 305.245367 
L 749.178125 309.000989 
L 749.451322 307.536613 
L 749.601755 309.848256 
L 749.633944 308.405856 
L 749.638904 309.6728 
L 749.765716 309.296678 
L 749.89374 304.122681 
L 750.05258 308.146954 
L 750.530473 309.359985 
L 750.566236 308.329562 
L 750.706833 309.648072 
L 751.056189 308.512582 
L 751.232858 307.091038 
L 751.454933 307.920528 
L 751.545308 310.200969 
L 752.268546 308.419031 
L 752.300437 306.590445 
L 752.340895 309.953235 
L 752.480629 307.564049 
L 752.733589 309.967694 
L 753.003431 307.621037 
L 753.188713 308.382057 
L 753.313972 307.583866 
L 753.458132 310.189212 
L 753.530185 307.887224 
L 754.032806 307.377754 
L 754.064504 307.019736 
L 754.104717 308.887212 
L 754.243603 308.451245 
L 754.320342 309.607375 
L 754.337992 309.553631 
L 754.440859 309.659781 
L 754.476766 308.97676 
L 754.588713 309.984093 
L 754.763864 308.526233 
L 754.982625 307.808222 
L 755.22855 307.896185 
L 755.371764 309.160816 
L 755.639791 306.979584 
L 755.786417 308.129613 
L 756.103086 308.24379 
L 756.161179 305.9552 
L 756.192025 308.648748 
L 756.245872 307.469439 
L 756.695544 309.282849 
L 756.944251 309.426728 
L 756.975016 306.894855 
L 757.210225 306.450119 
L 757.383195 305.820066 
L 757.383813 309.43746 
L 757.689112 306.067909 
L 757.932776 310.194543 
L 757.968257 307.584528 
L 758.251337 306.978522 
L 758.251954 307.812083 
L 758.468128 308.871752 
L 758.556354 307.080218 
L 758.60496 309.06063 
L 758.711149 308.680787 
L 758.768729 311.738906 
L 758.944976 307.320175 
L 759.293584 308.01771 
L 759.469519 306.274373 
L 759.575398 309.172043 
L 759.71651 308.416496 
L 760.12509 308.407318 
L 760.156136 308.881298 
L 760.406726 309.312179 
L 760.559944 307.074398 
L 760.6696 310.154939 
L 760.98523 306.833411 
L 761.28329 309.176642 
L 761.91292 306.75666 
L 762.048173 307.890539 
L 762.140095 303.691808 
L 762.275245 309.034079 
L 762.554856 309.486244 
L 762.97731 309.488283 
L 763.007454 307.406009 
L 763.094344 307.909914 
L 763.14695 307.081983 
L 763.550858 308.959026 
L 763.586281 309.849103 
L 763.829281 307.947824 
L 763.846372 309.70462 
L 763.980755 309.783733 
L 764.436528 305.849698 
L 764.470639 308.413773 
L 764.695885 308.71503 
L 764.937991 307.709961 
L 765.106529 311.054742 
L 765.107131 309.633686 
L 765.40462 308.748034 
L 765.694224 310.003437 
L 765.784437 308.027062 
L 766.125166 310.657969 
L 766.163777 308.477483 
L 766.456741 307.502374 
L 766.796117 306.34817 
L 766.9683 308.093782 
L 766.972978 307.243261 
L 767.092548 307.338647 
L 767.213268 308.380029 
L 767.380544 307.000899 
L 767.63739 309.483296 
L 767.778832 308.564949 
L 767.809098 305.692466 
L 767.847495 308.510152 
L 767.933003 305.074951 
L 768.05339 310.526852 
L 768.070243 306.646159 
L 768.309669 303.888352 
L 768.476939 307.76769 
L 768.818123 305.498057 
L 768.920761 308.789952 
L 769.040164 305.891176 
L 769.453662 310.27272 
L 769.483762 305.922152 
L 769.488401 308.542545 
L 769.841173 308.539258 
L 770.287648 309.748507 
L 770.317666 307.317773 
L 770.559962 307.979999 
L 770.589362 308.401737 
L 770.979468 309.340651 
L 770.980059 307.118004 
L 771.153924 309.871035 
L 771.407622 307.29969 
L 771.504788 308.252607 
L 771.538706 305.066883 
L 771.809915 306.97391 
L 772.016589 307.002705 
L 772.147414 307.559355 
L 772.248945 306.882367 
L 772.472527 309.411472 
L 772.843665 306.096291 
L 773.046237 309.073474 
L 773.210362 305.521056 
L 773.630859 308.59519 
L 773.635436 307.523292 
L 773.887106 306.922873 
L 773.954418 308.612729 
L 774.122048 306.824478 
L 774.692717 309.56937 
L 774.943533 306.292712 
L 775.107242 307.628681 
L 775.31173 306.361354 
L 775.529149 307.483935 
L 775.625032 309.878103 
L 775.658503 308.445072 
L 775.926135 306.657839 
L 776.359389 306.024948 
L 776.413721 306.885374 
L 776.909027 304.029508 
L 776.913556 305.678886 
L 777.162596 306.833588 
L 777.175014 307.519698 
L 777.291276 305.672393 
L 777.556939 308.660417 
L 777.843222 307.943339 
L 778.104485 302.364459 
L 778.208027 308.924852 
L 778.369461 305.939877 
L 778.370038 309.068424 
L 778.655007 305.262608 
L 778.700513 308.142908 
L 778.932446 305.972977 
L 779.345324 306.875577 
L 779.382319 305.490068 
L 779.510095 303.049779 
L 779.663035 307.663345 
L 779.741434 307.1438 
L 779.988248 301.229776 
L 780.124172 309.61852 
L 780.157741 308.45007 
L 780.272334 302.502454 
L 780.548358 310.40477 
L 780.794544 307.003206 
L 780.795117 308.875569 
L 780.930123 307.831006 
L 780.959135 300.339404 
L 780.995941 303.90651 
L 781.077909 307.145933 
L 781.123068 302.906138 
L 781.209471 309.377044 
L 781.336512 308.31362 
L 781.799685 307.637336 
L 781.926491 308.793035 
L 782.106607 307.935206 
L 782.156075 306.387296 
L 782.40159 307.661563 
L 782.535917 306.559993 
L 782.564782 307.218944 
L 782.87929 307.419651 
L 782.907556 307.829203 
L 782.9569 306.21678 
L 783.201231 306.904843 
L 783.33579 307.941789 
L 783.369021 304.64188 
L 783.482465 308.543831 
L 783.625206 308.559139 
L 784.166816 306.272949 
L 784.324686 307.24605 
L 784.503457 308.595728 
L 784.63747 306.964877 
L 784.795674 307.179939 
L 784.994564 308.47765 
L 785.075513 306.906354 
L 785.217547 306.71288 
L 785.29844 308.090526 
L 785.432121 308.166252 
L 785.723496 305.986968 
L 785.913573 306.341455 
L 786.010769 308.565007 
L 786.14032 306.59194 
L 786.543986 306.929803 
L 786.54838 308.706096 
L 786.77412 309.191403 
L 786.854623 307.309052 
L 787.17261 310.213219 
L 787.173172 308.102458 
L 787.305518 307.314986 
L 787.333959 308.198606 
L 787.450396 308.239523 
L 787.563532 309.080037 
L 787.671689 307.839521 
L 787.703916 308.105456 
L 787.804393 308.825214 
L 787.961613 307.300617 
L 788.282327 308.24246 
L 788.366826 308.121277 
L 788.431138 305.765644 
L 788.491069 308.154503 
L 788.912513 307.767891 
L 789.136614 305.840817 
L 789.164337 308.338833 
L 789.244249 307.617175 
L 789.292633 307.244756 
L 789.532217 309.562589 
L 789.692398 308.330537 
L 789.807994 309.325492 
L 789.920313 303.849218 
L 789.936037 308.242519 
L 790.059683 305.082475 
L 790.159436 306.827746 
L 790.479106 307.939218 
L 790.633929 304.8612 
L 790.841171 309.741976 
L 791.290913 309.003613 
L 791.588957 307.294953 
L 791.636995 307.620772 
L 791.720076 309.215019 
L 792.005873 304.918573 
L 792.069473 309.144747 
L 792.652046 308.041813 
L 792.925211 309.155326 
L 793.036467 307.381187 
L 793.115441 308.799023 
L 793.174521 306.305882 
L 793.190641 308.7326 
L 793.427944 307.88818 
L 793.585685 308.080925 
L 793.621083 303.865148 
L 793.74335 309.333453 
L 793.826452 308.273476 
L 793.917025 306.611768 
L 794.39416 309.992915 
L 794.736999 308.74421 
L 794.973196 309.209833 
L 795.102429 307.268926 
L 795.130201 308.425134 
L 795.134481 308.933877 
L 795.381584 309.179151 
L 795.432802 308.021846 
L 795.899768 307.389576 
L 795.904038 308.373151 
L 796.150569 306.946309 
L 796.358095 307.858901 
L 796.511276 303.520041 
L 796.702628 309.420085 
L 796.995835 308.584731 
L 797.02716 306.829264 
L 797.277114 311.110431 
L 797.277659 308.175142 
L 797.546497 308.667122 
L 797.68323 306.484483 
L 798.232762 307.267736 
L 798.353344 308.267053 
L 798.419977 307.378911 
L 798.446931 310.944084 
L 798.571673 305.964148 
L 798.96038 307.830948 
L 799.259529 308.442224 
L 799.333353 308.509338 
L 799.414531 304.978652 
L 799.565778 307.929499 
L 799.693787 306.615311 
L 799.957556 310.618438 
L 800.514936 306.804626 
L 800.634702 309.25982 
L 800.716105 308.787255 
L 800.727656 307.953989 
L 800.778062 309.917026 
L 801.24184 309.317175 
L 801.457765 308.362379 
L 801.534771 307.22026 
L 801.561477 308.57436 
L 801.608098 305.591208 
L 801.966109 308.848494 
L 801.997512 307.694 
L 802.228109 307.48183 
L 802.239607 309.744899 
L 802.347269 305.512354 
L 802.593301 303.085871 
L 802.781759 308.015337 
L 802.858464 306.119826 
L 802.981585 309.106274 
L 803.345968 311.103992 
L 803.346503 307.026952 
L 803.610543 309.635323 
L 803.652711 308.561489 
L 803.821328 308.603219 
L 803.947737 308.219955 
L 804.254471 308.212791 
L 804.403038 308.09744 
L 804.494965 308.282229 
L 804.544814 306.80524 
L 804.97235 309.360381 
L 804.99932 310.296892 
L 805.003476 309.561577 
L 805.232045 308.207136 
L 805.365704 307.111089 
L 805.594031 310.276061 
L 805.594562 309.222604 
L 805.719784 307.618808 
L 805.746695 308.614304 
L 805.780836 308.633514 
L 805.963924 308.261853 
L 806.191852 307.483554 
L 806.724153 309.503171 
L 806.735502 311.054657 
L 806.811324 307.730921 
L 806.841754 306.737797 
L 806.857232 307.119639 
L 807.085096 311.795426 
L 807.236569 307.682769 
L 807.554762 309.831214 
L 807.600572 308.165478 
L 807.827416 306.87932 
L 807.983211 308.576194 
L 808.088551 305.851054 
L 808.194912 306.302812 
L 808.568665 306.531922 
L 808.569192 308.187706 
L 808.829239 307.453593 
L 808.950232 309.008203 
L 809.067075 307.42287 
L 809.308326 310.701892 
L 809.568343 307.690517 
L 809.609784 308.405427 
L 809.700328 308.76038 
L 809.775501 307.747275 
L 810.19711 309.05171 
L 810.230813 306.573096 
L 810.486572 309.424488 
L 810.558008 306.028666 
L 810.906795 308.498725 
L 810.937389 309.523845 
L 811.162056 310.428126 
L 811.222152 309.221468 
L 811.641488 308.362628 
L 811.66794 307.04432 
L 811.881478 307.588437 
L 811.982087 307.38222 
L 812.012066 309.093029 
L 812.105536 307.53663 
L 812.2518 308.150589 
L 812.43452 308.085215 
L 812.714517 307.748182 
L 812.744433 306.668858 
L 812.983665 307.876832 
L 813.136643 307.468988 
L 813.345226 309.281007 
L 813.419616 308.123177 
L 813.445415 308.523231 
L 813.862608 307.958559 
L 814.074808 307.286023 
L 814.089449 310.394001 
L 814.100559 308.233103 
L 814.442298 305.641657 
L 814.595158 309.88171 
L 814.698514 305.284692 
L 815.025071 309.398223 
L 815.169605 306.853512 
L 815.170121 308.699679 
L 815.351325 307.209155 
L 815.425291 309.120967 
L 815.466043 307.597893 
L 815.603364 309.51812 
L 815.751174 305.073572 
L 816.043612 309.752662 
L 816.047639 309.063788 
L 816.076756 308.028306 
L 816.191238 310.720609 
L 816.39853 307.867078 
L 816.619722 306.221466 
L 816.87436 308.217242 
L 817.051703 309.73918 
L 817.121813 307.713493 
L 817.342553 309.158397 
L 817.59667 308.889807 
L 817.637172 306.958756 
L 817.82862 309.789459 
L 818.244147 307.338367 
L 818.35793 305.897443 
L 818.435268 308.729185 
L 818.519563 307.663659 
L 818.548989 309.279867 
L 818.563957 306.650403 
L 818.904888 307.725947 
L 818.9308 309.772871 
L 819.16536 307.061112 
L 819.238532 310.238934 
L 819.282837 308.034249 
L 819.652925 307.568439 
L 819.883027 309.857833 
L 820.219736 309.768771 
L 820.369611 309.055453 
L 820.398376 309.653744 
L 820.588344 306.617997 
L 820.67213 308.628894 
L 820.934777 308.00169 
L 820.935286 308.656059 
L 821.113568 309.180053 
L 821.186342 308.29844 
L 821.361549 308.070595 
L 821.430814 309.623517 
L 821.506981 307.735506 
L 821.827333 306.965754 
L 822.027408 309.423778 
L 822.511086 310.031828 
L 822.714225 306.686387 
L 822.931531 309.09481 
L 823.192528 308.36017 
L 823.218131 309.225123 
L 823.424816 308.694676 
L 823.439076 308.082657 
L 823.551217 310.252454 
L 823.641692 308.554256 
L 823.783273 308.824751 
L 824.148239 308.167599 
L 824.206171 309.581367 
L 824.260159 303.290289 
L 824.841804 304.530807 
L 824.866788 308.836717 
L 824.938806 308.364449 
L 824.982412 309.437789 
L 825.342747 308.019105 
L 825.548219 309.797944 
L 825.573153 308.974285 
L 825.673879 309.727846 
L 826.052101 305.536821 
L 826.378673 309.432522 
L 826.784421 309.098885 
L 827.096718 307.957548 
L 827.171699 307.222385 
L 827.487065 309.322106 
L 827.65924 309.319748 
L 828.013034 308.041515 
L 828.156312 308.665686 
L 828.160205 309.72657 
L 828.259717 309.271889 
L 828.374267 308.588045 
L 828.431528 309.42045 
L 828.713315 311.236965 
L 828.888299 308.381804 
L 828.959525 309.838715 
L 828.998768 309.027061 
L 829.059814 308.203013 
L 829.073855 308.65381 
L 829.412751 308.696333 
L 829.586905 307.957118 
L 829.772107 309.197336 
L 829.882309 308.180694 
L 829.896814 310.510766 
L 830.110358 309.278815 
L 830.227209 310.31297 
L 830.525965 308.642324 
L 830.923269 309.989689 
L 830.948333 308.523034 
L 830.952196 309.076252 
L 831.150671 307.998029 
L 831.175226 310.123287 
L 831.501109 306.58606 
L 831.501603 308.091608 
L 831.940144 309.217833 
L 832.195257 309.322249 
L 832.477524 309.103429 
L 832.632974 307.905599 
L 833.028504 309.399893 
L 833.060125 307.960054 
L 833.229704 306.07454 
L 833.254121 310.138614 
L 833.300094 307.532129 
L 833.694421 309.56302 
L 833.719297 309.506701 
L 833.990381 307.058476 
L 834.057285 308.935241 
L 834.130857 308.322539 
L 834.267942 310.069687 
L 834.268432 309.078424 
L 834.408804 308.814728 
L 834.623086 307.276476 
L 834.819599 306.802808 
L 835.237089 309.469532 
L 835.310917 308.223462 
L 835.391386 309.881024 
L 835.644133 309.515464 
L 835.983697 309.497343 
L 836.053566 308.835012 
L 836.1201 309.955977 
L 836.444981 310.734643 
L 836.473481 308.016506 
L 836.682774 306.138606 
L 836.693211 308.572319 
L 836.790936 308.446732 
L 837.157904 307.584551 
L 837.366814 309.447967 
L 837.474778 308.891407 
L 837.561886 310.174077 
L 837.697714 307.363962 
L 837.6982 308.454034 
L 837.938017 308.201706 
L 838.129487 309.98856 
L 838.523005 308.888716 
L 838.786836 309.686979 
L 838.852885 308.545333 
L 839.199917 308.848492 
L 839.203695 308.403439 
L 839.467048 309.71893 
L 839.532978 309.000333 
L 839.74057 310.927131 
L 839.741052 308.154033 
L 839.854913 308.545633 
L 839.879383 307.473519 
L 839.910428 309.878988 
L 839.979568 310.353306 
L 840.076922 308.081611 
L 840.197736 308.530375 
L 840.284214 306.537258 
L 840.768414 309.483788 
L 841.234648 308.993631 
L 841.238406 309.290441 
L 841.565917 310.610637 
L 841.886122 310.406241 
L 841.91046 310.844602 
L 842.447725 307.24408 
L 842.588812 309.242261 
L 842.90115 307.698857 
L 843.478019 307.44885 
L 843.587981 310.281118 
L 843.659709 309.393468 
L 844.149848 309.343654 
L 844.194505 308.588048 
L 844.259616 310.205963 
L 844.605449 308.801825 
L 844.796817 309.53193 
L 844.865071 310.493146 
L 844.930069 306.695458 
L 845.466326 308.93665 
L 845.670695 309.333225 
L 845.970807 307.251488 
L 846.253566 309.903548 
L 846.471865 308.528048 
L 846.61147 310.204759 
L 846.825389 308.496366 
L 847.137978 311.325372 
L 847.37237 307.738987 
L 847.46785 310.353654 
L 847.481218 309.650955 
L 847.803408 308.495272 
L 847.803408 308.495272 
" clip-path="url(#p53a4d92233)" style="fill: none; stroke: #1f77b4; stroke-width: 1.5; stroke-linecap: square"/>
   </g>
   <g id="line2d_36">
    <path d="M 463.5175 308.43599 
L 847.7525 308.43599 
" clip-path="url(#p53a4d92233)" style="fill: none; stroke-dasharray: 5.55,2.4; stroke-dashoffset: 0; stroke: #000000; stroke-opacity: 0.4; stroke-width: 1.5"/>
   </g>
   <g id="patch_8">
    <path d="M 463.5175 312.04 
L 463.5175 22.32 
" style="fill: none; stroke: #000000; stroke-width: 0.8; stroke-linejoin: miter; stroke-linecap: square"/>
   </g>
   <g id="patch_9">
    <path d="M 847.7525 312.04 
L 847.7525 22.32 
" style="fill: none; stroke: #000000; stroke-width: 0.8; stroke-linejoin: miter; stroke-linecap: square"/>
   </g>
   <g id="patch_10">
    <path d="M 463.5175 312.04 
L 847.7525 312.04 
" style="fill: none; stroke: #000000; stroke-width: 0.8; stroke-linejoin: miter; stroke-linecap: square"/>
   </g>
   <g id="patch_11">
    <path d="M 463.5175 22.32 
L 847.7525 22.32 
" style="fill: none; stroke: #000000; stroke-width: 0.8; stroke-linejoin: miter; stroke-linecap: square"/>
   </g>
   <g id="text_38">
    <!-- SLAB - 3D $S(k)$ -->
    <g transform="translate(612.195 16.32) scale(0.12 -0.12)">
     <use xlink:href="#DejaVuSans-53" transform="translate(0 0.015625)"/>
     <use xlink:href="#DejaVuSans-4c" transform="translate(63.476562 0.015625)"/>
     <use xlink:href="#DejaVuSans-41" transform="translate(119.189453 0.015625)"/>
     <use xlink:href="#DejaVuSans-42" transform="translate(187.597656 0.015625)"/>
     <use xlink:href="#DejaVuSans-20" transform="translate(256.201172 0.015625)"/>
     <use xlink:href="#DejaVuSans-2d" transform="translate(287.988281 0.015625)"/>
     <use xlink:href="#DejaVuSans-20" transform="translate(324.072266 0.015625)"/>
     <use xlink:href="#DejaVuSans-33" transform="translate(355.859375 0.015625)"/>
     <use xlink:href="#DejaVuSans-44" transform="translate(414.982422 0.015625)"/>
     <use xlink:href="#DejaVuSans-20" transform="translate(491.984375 0.015625)"/>
     <use xlink:href="#DejaVuSans-Oblique-53" transform="translate(523.771484 0.015625)"/>
     <use xlink:href="#DejaVuSans-28" transform="translate(587.248047 0.015625)"/>
     <use xlink:href="#DejaVuSans-Oblique-6b" transform="translate(626.261719 0.015625)"/>
     <use xlink:href="#DejaVuSans-29" transform="translate(684.171875 0.015625)"/>
    </g>
   </g>
  </g>
 </g>
 <defs>
  <clipPath id="pb9d23063af">
   <rect x="34.2625" y="22.32" width="384.235" height="289.72"/>
  </clipPath>
  <clipPath id="p53a4d92233">
   <rect x="463.5175" y="22.32" width="384.235" height="289.72"/>
  </clipPath>
 </defs>
</svg>
