<?xml version="1.0" encoding="utf-8" standalone="no"?>
<!DOCTYPE svg PUBLIC "-//W3C//DTD SVG 1.1//EN"
  "http://www.w3.org/Graphics/SVG/1.1/DTD/svg11.dtd">
<svg xmlns:xlink="http://www.w3.org/1999/xlink" width="414.46375pt" height="325.986375pt" viewBox="0 0 414.46375 325.986375" xmlns="http://www.w3.org/2000/svg" version="1.1">
 <metadata>
  <rdf:RDF xmlns:dc="http://purl.org/dc/elements/1.1/" xmlns:cc="http://creativecommons.org/ns#" xmlns:rdf="http://www.w3.org/1999/02/22-rdf-syntax-ns#">
   <cc:Work>
    <dc:type rdf:resource="http://purl.org/dc/dcmitype/StillImage"/>
    <dc:date>2025-12-10T14:57:32.006331</dc:date>
    <dc:format>image/svg+xml</dc:format>
    <dc:creator>
     <cc:Agent>
      <dc:title>Matplotlib v3.10.1, https://matplotlib.org/</dc:title>
     </cc:Agent>
    </dc:creator>
   </cc:Work>
  </rdf:RDF>
 </metadata>
 <defs>
  <style type="text/css">*{stroke-linejoin: round; stroke-linecap: butt}</style>
 </defs>
 <g id="figure_1">
  <g id="patch_1">
   <path d="M 0 325.986375 
L 414.46375 325.986375 
L 414.46375 0 
L 0 0 
z
" style="fill: #ffffff"/>
  </g>
  <g id="axes_1">
   <g id="patch_2">
    <path d="M 50.14375 288.430125 
L 407.26375 288.430125 
L 407.26375 22.318125 
L 50.14375 22.318125 
z
" style="fill: #ffffff"/>
   </g>
   <g id="matplotlib.axis_1">
    <g id="xtick_1">
     <g id="line2d_1">
      <defs>
       <path id="m7a0dfa5215" d="M 0 0 
L 0 3.5 
" style="stroke: #000000; stroke-width: 0.8"/>
      </defs>
      <g>
       <use xlink:href="#m7a0dfa5215" x="66.376477" y="288.430125" style="stroke: #000000; stroke-width: 0.8"/>
      </g>
     </g>
     <g id="text_1">
      <!-- 0.0 -->
      <g transform="translate(58.424915 303.028562) scale(0.1 -0.1)">
       <defs>
        <path id="DejaVuSans-30" d="M 2034 4250 
Q 1547 4250 1301 3770 
Q 1056 3291 1056 2328 
Q 1056 1369 1301 889 
Q 1547 409 2034 409 
Q 2525 409 2770 889 
Q 3016 1369 3016 2328 
Q 3016 3291 2770 3770 
Q 2525 4250 2034 4250 
z
M 2034 4750 
Q 2819 4750 3233 4129 
Q 3647 3509 3647 2328 
Q 3647 1150 3233 529 
Q 2819 -91 2034 -91 
Q 1250 -91 836 529 
Q 422 1150 422 2328 
Q 422 3509 836 4129 
Q 1250 4750 2034 4750 
z
" transform="scale(0.015625)"/>
        <path id="DejaVuSans-2e" d="M 684 794 
L 1344 794 
L 1344 0 
L 684 0 
L 684 794 
z
" transform="scale(0.015625)"/>
       </defs>
       <use xlink:href="#DejaVuSans-30"/>
       <use xlink:href="#DejaVuSans-2e" transform="translate(63.623047 0)"/>
       <use xlink:href="#DejaVuSans-30" transform="translate(95.410156 0)"/>
      </g>
     </g>
    </g>
    <g id="xtick_2">
     <g id="line2d_2">
      <g>
       <use xlink:href="#m7a0dfa5215" x="106.998918" y="288.430125" style="stroke: #000000; stroke-width: 0.8"/>
      </g>
     </g>
     <g id="text_2">
      <!-- 2.5 -->
      <g transform="translate(99.047355 303.028562) scale(0.1 -0.1)">
       <defs>
        <path id="DejaVuSans-32" d="M 1228 531 
L 3431 531 
L 3431 0 
L 469 0 
L 469 531 
Q 828 903 1448 1529 
Q 2069 2156 2228 2338 
Q 2531 2678 2651 2914 
Q 2772 3150 2772 3378 
Q 2772 3750 2511 3984 
Q 2250 4219 1831 4219 
Q 1534 4219 1204 4116 
Q 875 4013 500 3803 
L 500 4441 
Q 881 4594 1212 4672 
Q 1544 4750 1819 4750 
Q 2544 4750 2975 4387 
Q 3406 4025 3406 3419 
Q 3406 3131 3298 2873 
Q 3191 2616 2906 2266 
Q 2828 2175 2409 1742 
Q 1991 1309 1228 531 
z
" transform="scale(0.015625)"/>
        <path id="DejaVuSans-35" d="M 691 4666 
L 3169 4666 
L 3169 4134 
L 1269 4134 
L 1269 2991 
Q 1406 3038 1543 3061 
Q 1681 3084 1819 3084 
Q 2600 3084 3056 2656 
Q 3513 2228 3513 1497 
Q 3513 744 3044 326 
Q 2575 -91 1722 -91 
Q 1428 -91 1123 -41 
Q 819 9 494 109 
L 494 744 
Q 775 591 1075 516 
Q 1375 441 1709 441 
Q 2250 441 2565 725 
Q 2881 1009 2881 1497 
Q 2881 1984 2565 2268 
Q 2250 2553 1709 2553 
Q 1456 2553 1204 2497 
Q 953 2441 691 2322 
L 691 4666 
z
" transform="scale(0.015625)"/>
       </defs>
       <use xlink:href="#DejaVuSans-32"/>
       <use xlink:href="#DejaVuSans-2e" transform="translate(63.623047 0)"/>
       <use xlink:href="#DejaVuSans-35" transform="translate(95.410156 0)"/>
      </g>
     </g>
    </g>
    <g id="xtick_3">
     <g id="line2d_3">
      <g>
       <use xlink:href="#m7a0dfa5215" x="147.621359" y="288.430125" style="stroke: #000000; stroke-width: 0.8"/>
      </g>
     </g>
     <g id="text_3">
      <!-- 5.0 -->
      <g transform="translate(139.669796 303.028562) scale(0.1 -0.1)">
       <use xlink:href="#DejaVuSans-35"/>
       <use xlink:href="#DejaVuSans-2e" transform="translate(63.623047 0)"/>
       <use xlink:href="#DejaVuSans-30" transform="translate(95.410156 0)"/>
      </g>
     </g>
    </g>
    <g id="xtick_4">
     <g id="line2d_4">
      <g>
       <use xlink:href="#m7a0dfa5215" x="188.243799" y="288.430125" style="stroke: #000000; stroke-width: 0.8"/>
      </g>
     </g>
     <g id="text_4">
      <!-- 7.5 -->
      <g transform="translate(180.292237 303.028562) scale(0.1 -0.1)">
       <defs>
        <path id="DejaVuSans-37" d="M 525 4666 
L 3525 4666 
L 3525 4397 
L 1831 0 
L 1172 0 
L 2766 4134 
L 525 4134 
L 525 4666 
z
" transform="scale(0.015625)"/>
       </defs>
       <use xlink:href="#DejaVuSans-37"/>
       <use xlink:href="#DejaVuSans-2e" transform="translate(63.623047 0)"/>
       <use xlink:href="#DejaVuSans-35" transform="translate(95.410156 0)"/>
      </g>
     </g>
    </g>
    <g id="xtick_5">
     <g id="line2d_5">
      <g>
       <use xlink:href="#m7a0dfa5215" x="228.86624" y="288.430125" style="stroke: #000000; stroke-width: 0.8"/>
      </g>
     </g>
     <g id="text_5">
      <!-- 10.0 -->
      <g transform="translate(217.733427 303.028562) scale(0.1 -0.1)">
       <defs>
        <path id="DejaVuSans-31" d="M 794 531 
L 1825 531 
L 1825 4091 
L 703 3866 
L 703 4441 
L 1819 4666 
L 2450 4666 
L 2450 531 
L 3481 531 
L 3481 0 
L 794 0 
L 794 531 
z
" transform="scale(0.015625)"/>
       </defs>
       <use xlink:href="#DejaVuSans-31"/>
       <use xlink:href="#DejaVuSans-30" transform="translate(63.623047 0)"/>
       <use xlink:href="#DejaVuSans-2e" transform="translate(127.246094 0)"/>
       <use xlink:href="#DejaVuSans-30" transform="translate(159.033203 0)"/>
      </g>
     </g>
    </g>
    <g id="xtick_6">
     <g id="line2d_6">
      <g>
       <use xlink:href="#m7a0dfa5215" x="269.48868" y="288.430125" style="stroke: #000000; stroke-width: 0.8"/>
      </g>
     </g>
     <g id="text_6">
      <!-- 12.5 -->
      <g transform="translate(258.355868 303.028562) scale(0.1 -0.1)">
       <use xlink:href="#DejaVuSans-31"/>
       <use xlink:href="#DejaVuSans-32" transform="translate(63.623047 0)"/>
       <use xlink:href="#DejaVuSans-2e" transform="translate(127.246094 0)"/>
       <use xlink:href="#DejaVuSans-35" transform="translate(159.033203 0)"/>
      </g>
     </g>
    </g>
    <g id="xtick_7">
     <g id="line2d_7">
      <g>
       <use xlink:href="#m7a0dfa5215" x="310.111121" y="288.430125" style="stroke: #000000; stroke-width: 0.8"/>
      </g>
     </g>
     <g id="text_7">
      <!-- 15.0 -->
      <g transform="translate(298.978309 303.028562) scale(0.1 -0.1)">
       <use xlink:href="#DejaVuSans-31"/>
       <use xlink:href="#DejaVuSans-35" transform="translate(63.623047 0)"/>
       <use xlink:href="#DejaVuSans-2e" transform="translate(127.246094 0)"/>
       <use xlink:href="#DejaVuSans-30" transform="translate(159.033203 0)"/>
      </g>
     </g>
    </g>
    <g id="xtick_8">
     <g id="line2d_8">
      <g>
       <use xlink:href="#m7a0dfa5215" x="350.733562" y="288.430125" style="stroke: #000000; stroke-width: 0.8"/>
      </g>
     </g>
     <g id="text_8">
      <!-- 17.5 -->
      <g transform="translate(339.600749 303.028562) scale(0.1 -0.1)">
       <use xlink:href="#DejaVuSans-31"/>
       <use xlink:href="#DejaVuSans-37" transform="translate(63.623047 0)"/>
       <use xlink:href="#DejaVuSans-2e" transform="translate(127.246094 0)"/>
       <use xlink:href="#DejaVuSans-35" transform="translate(159.033203 0)"/>
      </g>
     </g>
    </g>
    <g id="xtick_9">
     <g id="line2d_9">
      <g>
       <use xlink:href="#m7a0dfa5215" x="391.356002" y="288.430125" style="stroke: #000000; stroke-width: 0.8"/>
      </g>
     </g>
     <g id="text_9">
      <!-- 20.0 -->
      <g transform="translate(380.22319 303.028562) scale(0.1 -0.1)">
       <use xlink:href="#DejaVuSans-32"/>
       <use xlink:href="#DejaVuSans-30" transform="translate(63.623047 0)"/>
       <use xlink:href="#DejaVuSans-2e" transform="translate(127.246094 0)"/>
       <use xlink:href="#DejaVuSans-30" transform="translate(159.033203 0)"/>
      </g>
     </g>
    </g>
    <g id="text_10">
     <!-- time (MD units) -->
     <g transform="translate(189.8725 316.706687) scale(0.1 -0.1)">
      <defs>
       <path id="DejaVuSans-74" d="M 1172 4494 
L 1172 3500 
L 2356 3500 
L 2356 3053 
L 1172 3053 
L 1172 1153 
Q 1172 725 1289 603 
Q 1406 481 1766 481 
L 2356 481 
L 2356 0 
L 1766 0 
Q 1100 0 847 248 
Q 594 497 594 1153 
L 594 3053 
L 172 3053 
L 172 3500 
L 594 3500 
L 594 4494 
L 1172 4494 
z
" transform="scale(0.015625)"/>
       <path id="DejaVuSans-69" d="M 603 3500 
L 1178 3500 
L 1178 0 
L 603 0 
L 603 3500 
z
M 603 4863 
L 1178 4863 
L 1178 4134 
L 603 4134 
L 603 4863 
z
" transform="scale(0.015625)"/>
       <path id="DejaVuSans-6d" d="M 3328 2828 
Q 3544 3216 3844 3400 
Q 4144 3584 4550 3584 
Q 5097 3584 5394 3201 
Q 5691 2819 5691 2113 
L 5691 0 
L 5113 0 
L 5113 2094 
Q 5113 2597 4934 2840 
Q 4756 3084 4391 3084 
Q 3944 3084 3684 2787 
Q 3425 2491 3425 1978 
L 3425 0 
L 2847 0 
L 2847 2094 
Q 2847 2600 2669 2842 
Q 2491 3084 2119 3084 
Q 1678 3084 1418 2786 
Q 1159 2488 1159 1978 
L 1159 0 
L 581 0 
L 581 3500 
L 1159 3500 
L 1159 2956 
Q 1356 3278 1631 3431 
Q 1906 3584 2284 3584 
Q 2666 3584 2933 3390 
Q 3200 3197 3328 2828 
z
" transform="scale(0.015625)"/>
       <path id="DejaVuSans-65" d="M 3597 1894 
L 3597 1613 
L 953 1613 
Q 991 1019 1311 708 
Q 1631 397 2203 397 
Q 2534 397 2845 478 
Q 3156 559 3463 722 
L 3463 178 
Q 3153 47 2828 -22 
Q 2503 -91 2169 -91 
Q 1331 -91 842 396 
Q 353 884 353 1716 
Q 353 2575 817 3079 
Q 1281 3584 2069 3584 
Q 2775 3584 3186 3129 
Q 3597 2675 3597 1894 
z
M 3022 2063 
Q 3016 2534 2758 2815 
Q 2500 3097 2075 3097 
Q 1594 3097 1305 2825 
Q 1016 2553 972 2059 
L 3022 2063 
z
" transform="scale(0.015625)"/>
       <path id="DejaVuSans-20" transform="scale(0.015625)"/>
       <path id="DejaVuSans-28" d="M 1984 4856 
Q 1566 4138 1362 3434 
Q 1159 2731 1159 2009 
Q 1159 1288 1364 580 
Q 1569 -128 1984 -844 
L 1484 -844 
Q 1016 -109 783 600 
Q 550 1309 550 2009 
Q 550 2706 781 3412 
Q 1013 4119 1484 4856 
L 1984 4856 
z
" transform="scale(0.015625)"/>
       <path id="DejaVuSans-4d" d="M 628 4666 
L 1569 4666 
L 2759 1491 
L 3956 4666 
L 4897 4666 
L 4897 0 
L 4281 0 
L 4281 4097 
L 3078 897 
L 2444 897 
L 1241 4097 
L 1241 0 
L 628 0 
L 628 4666 
z
" transform="scale(0.015625)"/>
       <path id="DejaVuSans-44" d="M 1259 4147 
L 1259 519 
L 2022 519 
Q 2988 519 3436 956 
Q 3884 1394 3884 2338 
Q 3884 3275 3436 3711 
Q 2988 4147 2022 4147 
L 1259 4147 
z
M 628 4666 
L 1925 4666 
Q 3281 4666 3915 4102 
Q 4550 3538 4550 2338 
Q 4550 1131 3912 565 
Q 3275 0 1925 0 
L 628 0 
L 628 4666 
z
" transform="scale(0.015625)"/>
       <path id="DejaVuSans-75" d="M 544 1381 
L 544 3500 
L 1119 3500 
L 1119 1403 
Q 1119 906 1312 657 
Q 1506 409 1894 409 
Q 2359 409 2629 706 
Q 2900 1003 2900 1516 
L 2900 3500 
L 3475 3500 
L 3475 0 
L 2900 0 
L 2900 538 
Q 2691 219 2414 64 
Q 2138 -91 1772 -91 
Q 1169 -91 856 284 
Q 544 659 544 1381 
z
M 1991 3584 
L 1991 3584 
z
" transform="scale(0.015625)"/>
       <path id="DejaVuSans-6e" d="M 3513 2113 
L 3513 0 
L 2938 0 
L 2938 2094 
Q 2938 2591 2744 2837 
Q 2550 3084 2163 3084 
Q 1697 3084 1428 2787 
Q 1159 2491 1159 1978 
L 1159 0 
L 581 0 
L 581 3500 
L 1159 3500 
L 1159 2956 
Q 1366 3272 1645 3428 
Q 1925 3584 2291 3584 
Q 2894 3584 3203 3211 
Q 3513 2838 3513 2113 
z
" transform="scale(0.015625)"/>
       <path id="DejaVuSans-73" d="M 2834 3397 
L 2834 2853 
Q 2591 2978 2328 3040 
Q 2066 3103 1784 3103 
Q 1356 3103 1142 2972 
Q 928 2841 928 2578 
Q 928 2378 1081 2264 
Q 1234 2150 1697 2047 
L 1894 2003 
Q 2506 1872 2764 1633 
Q 3022 1394 3022 966 
Q 3022 478 2636 193 
Q 2250 -91 1575 -91 
Q 1294 -91 989 -36 
Q 684 19 347 128 
L 347 722 
Q 666 556 975 473 
Q 1284 391 1588 391 
Q 1994 391 2212 530 
Q 2431 669 2431 922 
Q 2431 1156 2273 1281 
Q 2116 1406 1581 1522 
L 1381 1569 
Q 847 1681 609 1914 
Q 372 2147 372 2553 
Q 372 3047 722 3315 
Q 1072 3584 1716 3584 
Q 2034 3584 2315 3537 
Q 2597 3491 2834 3397 
z
" transform="scale(0.015625)"/>
       <path id="DejaVuSans-29" d="M 513 4856 
L 1013 4856 
Q 1481 4119 1714 3412 
Q 1947 2706 1947 2009 
Q 1947 1309 1714 600 
Q 1481 -109 1013 -844 
L 513 -844 
Q 928 -128 1133 580 
Q 1338 1288 1338 2009 
Q 1338 2731 1133 3434 
Q 928 4138 513 4856 
z
" transform="scale(0.015625)"/>
      </defs>
      <use xlink:href="#DejaVuSans-74"/>
      <use xlink:href="#DejaVuSans-69" transform="translate(39.208984 0)"/>
      <use xlink:href="#DejaVuSans-6d" transform="translate(66.992188 0)"/>
      <use xlink:href="#DejaVuSans-65" transform="translate(164.404297 0)"/>
      <use xlink:href="#DejaVuSans-20" transform="translate(225.927734 0)"/>
      <use xlink:href="#DejaVuSans-28" transform="translate(257.714844 0)"/>
      <use xlink:href="#DejaVuSans-4d" transform="translate(296.728516 0)"/>
      <use xlink:href="#DejaVuSans-44" transform="translate(383.007812 0)"/>
      <use xlink:href="#DejaVuSans-20" transform="translate(460.009766 0)"/>
      <use xlink:href="#DejaVuSans-75" transform="translate(491.796875 0)"/>
      <use xlink:href="#DejaVuSans-6e" transform="translate(555.175781 0)"/>
      <use xlink:href="#DejaVuSans-69" transform="translate(618.554688 0)"/>
      <use xlink:href="#DejaVuSans-74" transform="translate(646.337891 0)"/>
      <use xlink:href="#DejaVuSans-73" transform="translate(685.546875 0)"/>
      <use xlink:href="#DejaVuSans-29" transform="translate(737.646484 0)"/>
     </g>
    </g>
   </g>
   <g id="matplotlib.axis_2">
    <g id="ytick_1">
     <g id="line2d_10">
      <defs>
       <path id="m5b0df5c8b2" d="M 0 0 
L -3.5 0 
" style="stroke: #000000; stroke-width: 0.8"/>
      </defs>
      <g>
       <use xlink:href="#m5b0df5c8b2" x="50.14375" y="242.708578" style="stroke: #000000; stroke-width: 0.8"/>
      </g>
     </g>
     <g id="text_11">
      <!-- 0.60 -->
      <g transform="translate(20.878125 246.507796) scale(0.1 -0.1)">
       <defs>
        <path id="DejaVuSans-36" d="M 2113 2584 
Q 1688 2584 1439 2293 
Q 1191 2003 1191 1497 
Q 1191 994 1439 701 
Q 1688 409 2113 409 
Q 2538 409 2786 701 
Q 3034 994 3034 1497 
Q 3034 2003 2786 2293 
Q 2538 2584 2113 2584 
z
M 3366 4563 
L 3366 3988 
Q 3128 4100 2886 4159 
Q 2644 4219 2406 4219 
Q 1781 4219 1451 3797 
Q 1122 3375 1075 2522 
Q 1259 2794 1537 2939 
Q 1816 3084 2150 3084 
Q 2853 3084 3261 2657 
Q 3669 2231 3669 1497 
Q 3669 778 3244 343 
Q 2819 -91 2113 -91 
Q 1303 -91 875 529 
Q 447 1150 447 2328 
Q 447 3434 972 4092 
Q 1497 4750 2381 4750 
Q 2619 4750 2861 4703 
Q 3103 4656 3366 4563 
z
" transform="scale(0.015625)"/>
       </defs>
       <use xlink:href="#DejaVuSans-30"/>
       <use xlink:href="#DejaVuSans-2e" transform="translate(63.623047 0)"/>
       <use xlink:href="#DejaVuSans-36" transform="translate(95.410156 0)"/>
       <use xlink:href="#DejaVuSans-30" transform="translate(159.033203 0)"/>
      </g>
     </g>
    </g>
    <g id="ytick_2">
     <g id="line2d_11">
      <g>
       <use xlink:href="#m5b0df5c8b2" x="50.14375" y="194.622706" style="stroke: #000000; stroke-width: 0.8"/>
      </g>
     </g>
     <g id="text_12">
      <!-- 0.65 -->
      <g transform="translate(20.878125 198.421925) scale(0.1 -0.1)">
       <use xlink:href="#DejaVuSans-30"/>
       <use xlink:href="#DejaVuSans-2e" transform="translate(63.623047 0)"/>
       <use xlink:href="#DejaVuSans-36" transform="translate(95.410156 0)"/>
       <use xlink:href="#DejaVuSans-35" transform="translate(159.033203 0)"/>
      </g>
     </g>
    </g>
    <g id="ytick_3">
     <g id="line2d_12">
      <g>
       <use xlink:href="#m5b0df5c8b2" x="50.14375" y="146.536834" style="stroke: #000000; stroke-width: 0.8"/>
      </g>
     </g>
     <g id="text_13">
      <!-- 0.70 -->
      <g transform="translate(20.878125 150.336053) scale(0.1 -0.1)">
       <use xlink:href="#DejaVuSans-30"/>
       <use xlink:href="#DejaVuSans-2e" transform="translate(63.623047 0)"/>
       <use xlink:href="#DejaVuSans-37" transform="translate(95.410156 0)"/>
       <use xlink:href="#DejaVuSans-30" transform="translate(159.033203 0)"/>
      </g>
     </g>
    </g>
    <g id="ytick_4">
     <g id="line2d_13">
      <g>
       <use xlink:href="#m5b0df5c8b2" x="50.14375" y="98.450963" style="stroke: #000000; stroke-width: 0.8"/>
      </g>
     </g>
     <g id="text_14">
      <!-- 0.75 -->
      <g transform="translate(20.878125 102.250181) scale(0.1 -0.1)">
       <use xlink:href="#DejaVuSans-30"/>
       <use xlink:href="#DejaVuSans-2e" transform="translate(63.623047 0)"/>
       <use xlink:href="#DejaVuSans-37" transform="translate(95.410156 0)"/>
       <use xlink:href="#DejaVuSans-35" transform="translate(159.033203 0)"/>
      </g>
     </g>
    </g>
    <g id="ytick_5">
     <g id="line2d_14">
      <g>
       <use xlink:href="#m5b0df5c8b2" x="50.14375" y="50.365091" style="stroke: #000000; stroke-width: 0.8"/>
      </g>
     </g>
     <g id="text_15">
      <!-- 0.80 -->
      <g transform="translate(20.878125 54.16431) scale(0.1 -0.1)">
       <defs>
        <path id="DejaVuSans-38" d="M 2034 2216 
Q 1584 2216 1326 1975 
Q 1069 1734 1069 1313 
Q 1069 891 1326 650 
Q 1584 409 2034 409 
Q 2484 409 2743 651 
Q 3003 894 3003 1313 
Q 3003 1734 2745 1975 
Q 2488 2216 2034 2216 
z
M 1403 2484 
Q 997 2584 770 2862 
Q 544 3141 544 3541 
Q 544 4100 942 4425 
Q 1341 4750 2034 4750 
Q 2731 4750 3128 4425 
Q 3525 4100 3525 3541 
Q 3525 3141 3298 2862 
Q 3072 2584 2669 2484 
Q 3125 2378 3379 2068 
Q 3634 1759 3634 1313 
Q 3634 634 3220 271 
Q 2806 -91 2034 -91 
Q 1263 -91 848 271 
Q 434 634 434 1313 
Q 434 1759 690 2068 
Q 947 2378 1403 2484 
z
M 1172 3481 
Q 1172 3119 1398 2916 
Q 1625 2713 2034 2713 
Q 2441 2713 2670 2916 
Q 2900 3119 2900 3481 
Q 2900 3844 2670 4047 
Q 2441 4250 2034 4250 
Q 1625 4250 1398 4047 
Q 1172 3844 1172 3481 
z
" transform="scale(0.015625)"/>
       </defs>
       <use xlink:href="#DejaVuSans-30"/>
       <use xlink:href="#DejaVuSans-2e" transform="translate(63.623047 0)"/>
       <use xlink:href="#DejaVuSans-38" transform="translate(95.410156 0)"/>
       <use xlink:href="#DejaVuSans-30" transform="translate(159.033203 0)"/>
      </g>
     </g>
    </g>
    <g id="text_16">
     <!-- Temperature -->
     <g transform="translate(14.798438 187.043656) rotate(-90) scale(0.1 -0.1)">
      <defs>
       <path id="DejaVuSans-54" d="M -19 4666 
L 3928 4666 
L 3928 4134 
L 2272 4134 
L 2272 0 
L 1638 0 
L 1638 4134 
L -19 4134 
L -19 4666 
z
" transform="scale(0.015625)"/>
       <path id="DejaVuSans-70" d="M 1159 525 
L 1159 -1331 
L 581 -1331 
L 581 3500 
L 1159 3500 
L 1159 2969 
Q 1341 3281 1617 3432 
Q 1894 3584 2278 3584 
Q 2916 3584 3314 3078 
Q 3713 2572 3713 1747 
Q 3713 922 3314 415 
Q 2916 -91 2278 -91 
Q 1894 -91 1617 61 
Q 1341 213 1159 525 
z
M 3116 1747 
Q 3116 2381 2855 2742 
Q 2594 3103 2138 3103 
Q 1681 3103 1420 2742 
Q 1159 2381 1159 1747 
Q 1159 1113 1420 752 
Q 1681 391 2138 391 
Q 2594 391 2855 752 
Q 3116 1113 3116 1747 
z
" transform="scale(0.015625)"/>
       <path id="DejaVuSans-72" d="M 2631 2963 
Q 2534 3019 2420 3045 
Q 2306 3072 2169 3072 
Q 1681 3072 1420 2755 
Q 1159 2438 1159 1844 
L 1159 0 
L 581 0 
L 581 3500 
L 1159 3500 
L 1159 2956 
Q 1341 3275 1631 3429 
Q 1922 3584 2338 3584 
Q 2397 3584 2469 3576 
Q 2541 3569 2628 3553 
L 2631 2963 
z
" transform="scale(0.015625)"/>
       <path id="DejaVuSans-61" d="M 2194 1759 
Q 1497 1759 1228 1600 
Q 959 1441 959 1056 
Q 959 750 1161 570 
Q 1363 391 1709 391 
Q 2188 391 2477 730 
Q 2766 1069 2766 1631 
L 2766 1759 
L 2194 1759 
z
M 3341 1997 
L 3341 0 
L 2766 0 
L 2766 531 
Q 2569 213 2275 61 
Q 1981 -91 1556 -91 
Q 1019 -91 701 211 
Q 384 513 384 1019 
Q 384 1609 779 1909 
Q 1175 2209 1959 2209 
L 2766 2209 
L 2766 2266 
Q 2766 2663 2505 2880 
Q 2244 3097 1772 3097 
Q 1472 3097 1187 3025 
Q 903 2953 641 2809 
L 641 3341 
Q 956 3463 1253 3523 
Q 1550 3584 1831 3584 
Q 2591 3584 2966 3190 
Q 3341 2797 3341 1997 
z
" transform="scale(0.015625)"/>
      </defs>
      <use xlink:href="#DejaVuSans-54"/>
      <use xlink:href="#DejaVuSans-65" transform="translate(44.083984 0)"/>
      <use xlink:href="#DejaVuSans-6d" transform="translate(105.607422 0)"/>
      <use xlink:href="#DejaVuSans-70" transform="translate(203.019531 0)"/>
      <use xlink:href="#DejaVuSans-65" transform="translate(266.496094 0)"/>
      <use xlink:href="#DejaVuSans-72" transform="translate(328.019531 0)"/>
      <use xlink:href="#DejaVuSans-61" transform="translate(369.132812 0)"/>
      <use xlink:href="#DejaVuSans-74" transform="translate(430.412109 0)"/>
      <use xlink:href="#DejaVuSans-75" transform="translate(469.621094 0)"/>
      <use xlink:href="#DejaVuSans-72" transform="translate(533 0)"/>
      <use xlink:href="#DejaVuSans-65" transform="translate(571.863281 0)"/>
     </g>
    </g>
   </g>
   <g id="line2d_15">
    <path d="M 66.376477 139.372505 
L 67.026436 145.372255 
L 68.326354 249.132309 
L 68.976313 276.334125 
L 69.626273 230.977696 
L 69.951252 193.565692 
L 70.276232 184.708849 
L 70.601211 207.137008 
L 70.926191 217.901011 
L 71.25117 224.499031 
L 71.57615 212.434691 
L 71.901129 179.176533 
L 72.226109 191.477311 
L 73.201047 170.807588 
L 73.526027 145.62714 
L 73.851006 148.374078 
L 74.500965 134.252982 
L 74.825945 139.297112 
L 75.150924 146.287164 
L 75.475904 126.497815 
L 75.800883 120.033618 
L 76.125863 116.018163 
L 76.450843 115.080584 
L 76.775822 132.436386 
L 77.100802 108.475275 
L 77.425781 121.398222 
L 77.750761 91.80266 
L 78.07574 91.368064 
L 78.40072 87.817886 
L 78.725699 89.582806 
L 79.050679 110.591554 
L 79.375658 95.468044 
L 79.700638 95.538233 
L 80.025617 78.502824 
L 80.350597 97.010382 
L 80.675576 135.88788 
L 81.000556 151.1129 
L 81.325535 125.382007 
L 81.650515 123.863478 
L 81.975494 135.670228 
L 82.300474 142.063802 
L 82.625454 138.799915 
L 82.950433 127.064834 
L 83.275413 139.294104 
L 83.600392 131.788723 
L 83.925372 119.990132 
L 84.250351 120.654194 
L 84.575331 80.230177 
L 84.90031 71.549397 
L 85.22529 114.369655 
L 85.875249 138.314922 
L 86.200228 116.827366 
L 86.525208 125.862226 
L 86.850187 127.60807 
L 87.175167 115.434879 
L 87.500146 79.238256 
L 87.825126 74.038107 
L 88.150105 99.860257 
L 88.475085 112.013146 
L 88.800064 64.818265 
L 89.125044 35.17719 
L 89.450024 60.792549 
L 89.775003 74.209235 
L 90.099983 107.319585 
L 90.424962 98.478799 
L 91.074921 163.446326 
L 91.399901 123.914887 
L 91.72488 119.102927 
L 92.04986 90.86104 
L 92.374839 101.37308 
L 92.699819 123.922535 
L 93.024798 115.197801 
L 93.349778 119.42023 
L 93.674757 138.269755 
L 93.999737 138.989161 
L 94.649696 108.313474 
L 94.974675 128.76853 
L 95.299655 136.467776 
L 95.624635 135.520637 
L 95.949614 161.236043 
L 96.274594 166.981191 
L 96.599573 161.867609 
L 96.924553 170.600626 
L 97.249532 145.130589 
L 97.574512 148.064428 
L 97.899491 193.939303 
L 98.224471 194.837346 
L 98.87443 181.51365 
L 99.199409 192.820864 
L 99.524389 177.446942 
L 99.849368 203.94841 
L 100.174348 207.795256 
L 100.499327 160.328238 
L 100.824307 139.172907 
L 101.149286 160.597107 
L 101.474266 165.308136 
L 101.799245 140.249056 
L 102.124225 144.765108 
L 102.449205 173.181796 
L 102.774184 151.977957 
L 103.099164 139.319243 
L 103.424143 112.287336 
L 103.749123 125.824955 
L 104.074102 159.566828 
L 104.399082 173.604237 
L 104.724061 174.457944 
L 105.049041 195.89035 
L 105.37402 199.833293 
L 105.699 205.236352 
L 106.348959 192.651365 
L 106.673938 153.319558 
L 106.998918 161.374414 
L 107.323897 162.139141 
L 107.648877 167.338503 
L 107.973856 170.016544 
L 108.298836 151.710571 
L 108.623816 158.750406 
L 109.598754 204.842444 
L 109.923734 208.788292 
L 110.248713 180.149082 
L 110.573693 178.823735 
L 111.548631 73.148524 
L 111.873611 107.469151 
L 112.19859 161.860171 
L 112.52357 172.493755 
L 112.848549 178.370806 
L 113.173529 153.947461 
L 113.498508 200.734218 
L 113.823488 197.861572 
L 114.473447 178.661223 
L 114.798426 162.230708 
L 115.448386 150.699985 
L 116.098345 111.320518 
L 116.423324 135.638131 
L 116.748304 126.396111 
L 117.073283 110.289117 
L 117.723242 55.741501 
L 118.048222 88.863534 
L 118.373201 155.755939 
L 119.02316 190.696947 
L 119.34814 187.826153 
L 119.998099 153.211593 
L 120.648058 93.58243 
L 120.973037 77.192658 
L 121.298017 67.728616 
L 121.947976 124.065044 
L 122.272956 152.95054 
L 122.597935 135.552289 
L 122.922915 138.749727 
L 123.247894 162.378136 
L 123.572874 166.087286 
L 123.897853 164.600122 
L 124.222833 152.742906 
L 124.547812 128.960719 
L 124.872792 143.112258 
L 125.197771 133.90167 
L 125.522751 143.128969 
L 125.84773 155.904102 
L 126.17271 164.106511 
L 126.497689 177.106883 
L 126.822669 212.446719 
L 127.147648 182.04145 
L 127.797607 101.085988 
L 128.122587 112.629827 
L 128.447567 136.879929 
L 128.772546 119.997428 
L 129.097526 122.593279 
L 129.422505 161.200679 
L 129.747485 152.02971 
L 130.072464 134.546188 
L 130.397444 137.094446 
L 130.722423 177.039148 
L 131.047403 164.457386 
L 131.372382 181.33988 
L 131.697362 191.040171 
L 132.022341 170.614919 
L 132.347321 175.109239 
L 132.6723 195.627606 
L 132.99728 193.113173 
L 133.322259 193.249553 
L 133.647239 194.323263 
L 133.972218 150.134908 
L 134.297198 164.783469 
L 134.622178 159.800782 
L 134.947157 147.341169 
L 135.272137 164.38488 
L 135.922096 224.614532 
L 136.247075 222.874992 
L 136.572055 224.005478 
L 136.897034 205.80046 
L 137.546993 132.317638 
L 137.871973 148.426537 
L 138.196952 118.304512 
L 138.521932 152.960641 
L 138.846911 165.958232 
L 139.171891 152.27074 
L 139.49687 107.151428 
L 139.82185 116.032713 
L 140.146829 155.132354 
L 140.796788 187.160355 
L 141.121768 174.636007 
L 141.446748 153.208668 
L 141.771727 157.201108 
L 142.096707 154.999272 
L 142.421686 121.813079 
L 142.746666 114.364883 
L 143.071645 77.015543 
L 143.396625 89.297552 
L 143.721604 111.182167 
L 144.046584 144.868158 
L 144.371563 144.648172 
L 144.696543 135.173709 
L 145.021522 133.958181 
L 145.346502 144.830205 
L 145.671481 118.030114 
L 145.996461 159.162028 
L 146.32144 138.134129 
L 146.64642 109.536524 
L 146.971399 117.548775 
L 147.621359 123.441509 
L 147.946338 120.138308 
L 148.271318 113.736387 
L 148.921277 58.045803 
L 149.246256 72.421729 
L 149.571236 66.433007 
L 149.896215 108.442947 
L 150.221195 122.319465 
L 150.546174 150.2477 
L 151.196133 108.035878 
L 151.521113 110.8899 
L 151.846092 132.671464 
L 152.171072 113.521863 
L 152.821031 58.036403 
L 153.47099 126.491567 
L 153.795969 180.560207 
L 154.445929 206.068312 
L 154.770908 210.737695 
L 155.420867 183.873987 
L 156.070826 128.4835 
L 156.395806 157.35859 
L 156.720785 160.642999 
L 157.370744 193.3225 
L 157.695724 195.994744 
L 158.020703 196.592541 
L 158.345683 143.2769 
L 158.995642 197.864924 
L 159.320621 218.694534 
L 159.645601 255.944393 
L 159.97058 244.39253 
L 160.62054 196.105404 
L 160.945519 154.656309 
L 161.270499 164.68706 
L 161.595478 149.854098 
L 161.920458 166.972227 
L 162.245437 175.7655 
L 162.570417 191.4497 
L 162.895396 199.366533 
L 163.220376 202.873675 
L 163.545355 181.080434 
L 163.870335 168.040109 
L 164.195314 191.425462 
L 164.520294 176.27794 
L 164.845273 169.797853 
L 165.170253 166.246279 
L 165.495232 158.152159 
L 165.820212 152.92841 
L 166.145191 153.634662 
L 166.470171 160.084287 
L 166.79515 148.513972 
L 167.12013 146.781922 
L 167.44511 115.367967 
L 167.770089 110.699877 
L 168.095069 129.142289 
L 168.420048 132.266663 
L 168.745028 104.912422 
L 169.070007 139.701757 
L 169.719966 122.921013 
L 170.044946 119.421708 
L 170.369925 118.012488 
L 170.694905 105.942111 
L 171.019884 128.224194 
L 171.344864 165.661715 
L 171.669843 140.957635 
L 171.994823 97.730015 
L 172.319802 87.012064 
L 172.644782 97.025879 
L 173.294741 124.897369 
L 173.619721 113.755346 
L 173.9447 137.96019 
L 174.26968 148.578663 
L 174.594659 129.290216 
L 174.919639 138.598454 
L 175.244618 115.334193 
L 175.569598 110.174904 
L 175.894577 90.887897 
L 176.219557 91.439736 
L 176.544536 102.827012 
L 177.194495 79.356088 
L 177.519475 95.583198 
L 177.844454 94.626953 
L 178.169434 70.376328 
L 178.494413 95.352401 
L 178.819393 90.485993 
L 179.144372 99.650894 
L 179.469352 99.906815 
L 179.794331 111.494082 
L 180.119311 115.195259 
L 180.76927 112.688999 
L 181.09425 125.388491 
L 181.744209 129.519865 
L 182.069188 101.248057 
L 182.719147 85.325976 
L 183.044127 87.008026 
L 183.369106 80.580116 
L 184.019065 109.15722 
L 184.344045 114.413172 
L 184.994004 153.259512 
L 185.318983 114.164127 
L 185.643963 57.646972 
L 185.968942 46.915592 
L 186.293922 77.803873 
L 186.618902 58.949333 
L 187.268861 87.485612 
L 187.91882 64.157595 
L 188.243799 92.819176 
L 188.568779 111.129412 
L 188.893758 111.205922 
L 189.218738 156.812796 
L 189.543717 154.703108 
L 189.868697 135.942079 
L 190.193676 151.733707 
L 190.518656 142.11901 
L 190.843635 158.071718 
L 191.168615 140.470117 
L 191.493594 139.215175 
L 191.818574 139.806611 
L 192.143553 109.86008 
L 192.468533 132.271281 
L 192.793512 141.331021 
L 193.118492 156.474128 
L 193.443472 184.36463 
L 194.093431 144.796764 
L 194.41841 143.755134 
L 194.74339 140.48464 
L 195.068369 139.037295 
L 195.393349 123.52489 
L 195.718328 124.921077 
L 196.043308 136.73212 
L 196.368287 134.049484 
L 196.693267 121.366459 
L 197.018246 113.952987 
L 197.343226 117.871852 
L 197.668205 130.008668 
L 197.993185 111.582294 
L 198.643144 117.872072 
L 198.968123 128.125055 
L 199.293103 155.698616 
L 199.943062 143.602718 
L 200.268042 141.984647 
L 200.593021 157.658137 
L 200.918001 167.79639 
L 201.24298 183.929593 
L 201.56796 165.021126 
L 201.892939 182.54574 
L 202.217919 178.705417 
L 202.542898 164.331147 
L 202.867878 157.610252 
L 203.192857 147.169976 
L 203.517837 140.324094 
L 204.167796 160.087704 
L 204.492775 159.125468 
L 204.817755 172.65701 
L 205.142734 152.122766 
L 205.467714 144.415449 
L 205.792693 152.615794 
L 206.117673 177.666837 
L 206.442653 148.752894 
L 206.767632 135.606831 
L 207.092612 151.5685 
L 207.417591 156.439249 
L 207.742571 147.106905 
L 208.06755 164.45884 
L 208.39253 203.524575 
L 208.717509 179.517111 
L 209.042489 179.595392 
L 209.367468 172.802194 
L 209.692448 170.462214 
L 210.342407 127.85223 
L 211.642325 237.055 
L 211.967304 228.983504 
L 212.292284 233.752235 
L 212.942243 211.963134 
L 213.267223 178.983655 
L 213.592202 163.607342 
L 213.917182 142.192389 
L 214.242161 129.490077 
L 214.567141 125.710787 
L 214.89212 148.813935 
L 215.2171 182.847173 
L 215.542079 189.839576 
L 215.867059 129.650008 
L 216.192038 101.818814 
L 216.517018 113.435531 
L 216.841997 151.030574 
L 217.166977 154.150276 
L 218.141915 80.072753 
L 218.466895 83.068569 
L 218.791874 104.003635 
L 219.116854 142.743691 
L 219.441834 141.157146 
L 219.766813 126.820969 
L 220.091793 130.307646 
L 220.741752 105.368747 
L 221.066731 136.483316 
L 221.391711 132.962849 
L 221.71669 117.778289 
L 222.04167 129.189551 
L 222.366649 134.955553 
L 222.691629 120.256813 
L 223.016608 155.937638 
L 223.341588 144.339715 
L 223.666567 165.023502 
L 223.991547 155.449429 
L 224.316526 154.615085 
L 224.641506 156.71989 
L 224.966485 126.238165 
L 225.291465 139.017913 
L 225.616445 133.476419 
L 225.941424 144.516127 
L 226.266404 163.569173 
L 226.591383 190.891201 
L 226.916363 171.746425 
L 227.241342 139.054483 
L 227.566322 147.529552 
L 227.891301 169.234204 
L 228.216281 143.742913 
L 228.54126 146.670824 
L 228.86624 182.225788 
L 229.516199 211.975141 
L 230.166158 173.943706 
L 230.816117 212.552212 
L 231.141096 224.806185 
L 231.466076 208.626196 
L 231.791055 169.938746 
L 232.116035 169.859732 
L 232.441015 175.524715 
L 232.765994 172.302546 
L 233.415953 117.924392 
L 233.740933 103.565362 
L 234.065912 104.828728 
L 234.390892 112.251411 
L 234.715871 126.430418 
L 235.36583 102.514548 
L 236.015789 128.920122 
L 236.340769 122.06564 
L 236.665748 126.10853 
L 236.990728 112.331869 
L 237.315707 107.936036 
L 237.640687 117.957301 
L 238.290646 175.270815 
L 238.615626 157.303366 
L 238.940605 146.526547 
L 239.265585 142.77979 
L 239.590564 160.022416 
L 239.915544 147.465282 
L 240.240523 110.224628 
L 240.565503 115.261624 
L 240.890482 83.36185 
L 241.215462 90.756214 
L 241.540441 104.153917 
L 241.865421 142.451602 
L 242.1904 161.696085 
L 242.51538 163.879468 
L 242.840359 159.538477 
L 243.165339 164.712316 
L 243.490318 159.762343 
L 244.140277 199.413111 
L 244.465257 191.739627 
L 244.790236 192.340138 
L 245.115216 166.086473 
L 245.440196 184.384852 
L 245.765175 181.74284 
L 246.090155 187.99193 
L 246.415134 179.726495 
L 246.740114 180.433652 
L 247.065093 148.885513 
L 247.390073 174.453093 
L 247.715052 223.974352 
L 248.040032 247.117869 
L 248.365011 233.556065 
L 249.01497 173.806435 
L 249.33995 168.419257 
L 249.664929 179.119282 
L 249.989909 144.127782 
L 250.314888 143.369133 
L 250.639868 188.504553 
L 251.289827 200.938482 
L 251.939786 218.54454 
L 252.264766 202.762286 
L 252.914725 131.880179 
L 253.239704 146.332082 
L 253.564684 149.810796 
L 253.889663 151.438612 
L 254.214643 164.893558 
L 254.539622 158.152473 
L 254.864602 186.038832 
L 255.189581 167.643263 
L 255.514561 163.948401 
L 255.83954 130.069701 
L 256.16452 123.554917 
L 256.814479 161.611397 
L 257.139458 147.44598 
L 257.464438 167.035754 
L 257.789417 149.287878 
L 258.439377 190.57786 
L 258.764356 178.597243 
L 259.089336 150.895921 
L 259.414315 156.517945 
L 259.739295 174.144904 
L 260.064274 169.787868 
L 260.714233 199.209607 
L 261.039213 235.27101 
L 261.364192 239.552769 
L 262.66411 144.628385 
L 262.98909 144.610442 
L 263.314069 147.010905 
L 263.639049 157.515825 
L 264.289008 120.408528 
L 264.938967 161.830407 
L 265.263947 167.60677 
L 265.913906 115.767728 
L 266.238885 130.634569 
L 266.563865 135.299709 
L 266.888844 157.951915 
L 267.213824 167.428336 
L 268.188762 114.977494 
L 268.513742 145.951179 
L 268.838721 162.386596 
L 269.163701 149.925531 
L 269.48868 159.410996 
L 269.81366 202.021988 
L 270.138639 206.945598 
L 270.463619 202.270566 
L 270.788598 209.880497 
L 271.113578 201.21852 
L 271.438558 198.393643 
L 271.763537 166.808271 
L 272.413496 212.559751 
L 272.738476 208.532528 
L 273.063455 201.930322 
L 273.388435 198.095793 
L 273.713414 191.369542 
L 274.038394 168.788456 
L 274.363373 199.441025 
L 274.688353 201.018997 
L 275.013332 210.31362 
L 275.338312 208.36689 
L 275.663291 173.086648 
L 276.31325 141.883829 
L 276.63823 135.320754 
L 276.963209 165.74706 
L 277.288189 149.106008 
L 277.613169 125.212763 
L 277.938148 126.974196 
L 278.588107 177.41778 
L 278.913087 130.622059 
L 279.238066 129.849604 
L 279.563046 117.659617 
L 279.888025 126.439421 
L 280.213005 151.948425 
L 280.537984 140.202436 
L 280.862964 122.565314 
L 281.187943 134.365753 
L 281.512923 106.378397 
L 282.162882 156.751084 
L 282.487861 158.120989 
L 282.812841 172.127868 
L 283.13782 174.793134 
L 283.4628 166.373835 
L 283.787779 162.991779 
L 284.112759 166.148137 
L 284.437739 171.359083 
L 284.762718 141.378685 
L 285.087698 132.514857 
L 285.412677 144.276823 
L 285.737657 189.377524 
L 286.062636 215.23509 
L 286.387616 200.789432 
L 286.712595 210.263683 
L 287.362554 134.979685 
L 287.687534 170.1222 
L 288.012513 181.124395 
L 288.337493 207.371411 
L 288.662472 220.733341 
L 289.312431 195.682862 
L 289.637411 206.002896 
L 290.28737 173.40123 
L 290.61235 193.415626 
L 290.937329 177.905017 
L 291.262309 193.300602 
L 291.587288 199.09913 
L 292.562227 141.817497 
L 292.887206 148.596967 
L 293.212186 119.979255 
L 294.187124 173.665166 
L 294.512104 197.897975 
L 294.837083 191.634219 
L 295.812022 143.634512 
L 296.137001 143.409414 
L 296.78696 150.588167 
L 297.11194 157.002633 
L 297.43692 148.825981 
L 297.761899 158.266925 
L 298.086879 153.879147 
L 298.411858 152.419656 
L 299.061817 167.466014 
L 299.386797 159.730587 
L 299.711776 124.742028 
L 300.036756 136.190396 
L 300.361735 134.988904 
L 300.686715 144.410848 
L 301.011694 144.864913 
L 301.336674 134.737198 
L 301.661653 136.947057 
L 301.986633 138.123225 
L 302.311612 129.511715 
L 302.961571 123.655867 
L 303.286551 118.952377 
L 303.611531 98.198286 
L 305.236428 115.06653 
L 305.886387 83.25831 
L 306.211367 120.993103 
L 306.536346 93.886301 
L 306.861326 99.346568 
L 307.186305 123.619862 
L 307.511285 129.680906 
L 307.836264 93.655607 
L 308.161244 75.611494 
L 308.486223 75.685905 
L 308.811203 66.575014 
L 309.136182 43.780982 
L 309.461162 51.559126 
L 309.786141 82.678529 
L 310.111121 101.881149 
L 310.436101 98.220473 
L 310.76108 105.344285 
L 311.08606 126.487381 
L 311.411039 125.82751 
L 312.385978 84.271703 
L 312.710957 88.803603 
L 313.035937 75.505939 
L 313.360916 110.814902 
L 313.685896 119.281236 
L 314.010875 114.208227 
L 314.985814 34.414125 
L 315.310793 41.725016 
L 315.635773 54.214382 
L 316.285732 108.667538 
L 316.610712 109.921275 
L 316.935691 143.692871 
L 317.260671 134.011214 
L 317.58565 145.936252 
L 317.91063 191.003751 
L 318.235609 179.06356 
L 318.560589 149.907593 
L 318.885568 145.360874 
L 319.210548 149.377728 
L 319.535527 185.062823 
L 319.860507 184.523529 
L 320.185486 182.318013 
L 320.510466 170.990722 
L 320.835445 154.437453 
L 321.485404 149.212343 
L 321.810384 170.71458 
L 322.135363 155.968839 
L 322.785322 87.800434 
L 323.110302 121.501345 
L 323.435282 113.519038 
L 323.760261 136.342156 
L 324.085241 140.039885 
L 324.41022 161.054003 
L 324.7352 161.650797 
L 325.060179 147.910874 
L 325.385159 148.061595 
L 325.710138 130.8304 
L 326.360097 108.513569 
L 327.010056 67.200902 
L 327.335036 84.105906 
L 327.660015 94.403033 
L 328.309974 131.378244 
L 328.634954 110.331429 
L 328.959933 119.365549 
L 329.284913 145.550092 
L 329.609893 134.401153 
L 329.934872 132.212489 
L 330.259852 101.576925 
L 330.584831 159.118673 
L 330.909811 159.424441 
L 331.23479 150.362501 
L 331.55977 168.788738 
L 331.884749 173.717315 
L 332.209729 176.654174 
L 332.534708 178.000672 
L 332.859688 165.386806 
L 333.184667 135.669766 
L 333.509647 129.104671 
L 333.834626 135.499641 
L 334.159606 169.368183 
L 334.484585 159.49593 
L 334.809565 187.732006 
L 335.134544 197.256096 
L 335.459524 187.571076 
L 335.784503 167.6295 
L 336.109483 179.78046 
L 336.434463 183.382996 
L 336.759442 164.9814 
L 337.084422 181.41358 
L 337.409401 166.525439 
L 337.734381 176.41723 
L 338.38434 208.062841 
L 338.709319 223.841039 
L 339.359278 185.882382 
L 339.684258 205.664961 
L 340.009237 210.218159 
L 340.334217 217.994103 
L 340.659196 202.719357 
L 340.984176 193.033533 
L 341.309155 192.097265 
L 341.634135 182.822264 
L 341.959114 156.030855 
L 342.284094 182.035826 
L 342.609074 193.61721 
L 343.259033 142.241873 
L 343.584012 83.330246 
L 343.908992 84.472901 
L 344.233971 132.163058 
L 344.558951 118.401496 
L 345.20891 159.974027 
L 345.533889 161.022452 
L 345.858869 169.340593 
L 346.183848 171.270706 
L 346.508828 160.945859 
L 346.833807 177.50144 
L 347.158787 178.534253 
L 347.483766 167.075793 
L 347.808746 175.385542 
L 348.133725 161.677626 
L 348.458705 139.456443 
L 348.783684 158.478405 
L 349.108664 164.807914 
L 349.433644 153.941614 
L 349.758623 165.814904 
L 350.083603 118.48008 
L 350.408582 111.327249 
L 350.733562 142.18142 
L 351.058541 157.586562 
L 351.383521 158.638599 
L 351.7085 134.731966 
L 352.358459 142.430049 
L 352.683439 122.581496 
L 353.008418 123.119675 
L 353.333398 131.066286 
L 353.983357 166.009475 
L 354.308336 167.230851 
L 354.633316 159.431042 
L 354.958295 159.305326 
L 355.283275 183.358671 
L 355.608255 192.854347 
L 356.258214 173.084032 
L 356.583193 195.649677 
L 356.908173 190.299365 
L 357.233152 175.303743 
L 357.558132 183.285955 
L 357.883111 172.673924 
L 358.53307 166.794192 
L 358.85805 164.840153 
L 359.183029 172.428487 
L 359.508009 159.779926 
L 359.832988 156.3037 
L 360.157968 158.33822 
L 360.482947 192.198329 
L 360.807927 178.473613 
L 361.132906 179.664773 
L 361.457886 181.610362 
L 361.782865 180.699918 
L 362.107845 158.027354 
L 362.432825 159.557928 
L 362.757804 187.203638 
L 363.082784 182.385926 
L 363.407763 181.612648 
L 363.732743 176.919018 
L 364.057722 157.276342 
L 364.382702 119.09913 
L 364.707681 124.249433 
L 365.032661 127.624925 
L 365.35764 86.215255 
L 366.007599 125.56036 
L 366.332579 132.473595 
L 366.657558 118.17741 
L 366.982538 120.653827 
L 367.307517 130.738814 
L 367.632497 155.668471 
L 368.282456 179.108913 
L 368.607436 181.54488 
L 368.932415 141.076791 
L 369.257395 126.141308 
L 369.907354 186.75975 
L 370.232333 219.325363 
L 370.557313 204.061629 
L 370.882292 177.367235 
L 371.207272 174.132773 
L 371.857231 141.647155 
L 372.18221 147.259779 
L 372.50719 156.477907 
L 372.832169 180.636304 
L 373.157149 195.59755 
L 373.482128 187.311684 
L 374.132087 137.056415 
L 374.457067 149.630497 
L 374.782046 167.075357 
L 375.107026 171.817217 
L 375.432006 166.939948 
L 375.756985 160.376237 
L 376.081965 156.323622 
L 376.406944 145.910411 
L 376.731924 145.788805 
L 377.056903 120.17877 
L 377.381883 113.092501 
L 377.706862 134.351773 
L 378.031842 146.027996 
L 378.356821 113.877024 
L 378.681801 122.474941 
L 379.00678 142.668867 
L 379.33176 133.867483 
L 379.656739 136.492253 
L 379.981719 167.524371 
L 380.306698 177.234397 
L 380.956657 161.403962 
L 381.281637 184.371408 
L 381.606617 178.982047 
L 381.931596 166.416598 
L 382.256576 145.0435 
L 382.581555 147.048312 
L 383.231514 175.922044 
L 383.881473 158.673062 
L 384.206453 160.288203 
L 384.856412 124.80377 
L 385.181391 134.170546 
L 385.506371 91.473819 
L 385.83135 101.603072 
L 386.15633 133.874739 
L 386.481309 122.175501 
L 387.131268 52.658384 
L 387.781227 117.38518 
L 388.106207 122.558513 
L 388.431187 130.640529 
L 388.756166 98.832708 
L 389.081146 155.173606 
L 389.406125 156.930773 
L 389.731105 136.199087 
L 390.056084 157.822255 
L 390.381064 163.717685 
L 390.706043 161.613552 
L 391.031023 145.42438 
L 391.031023 145.42438 
" clip-path="url(#p0079d13673)" style="fill: none; stroke: #1f77b4; stroke-width: 1.5; stroke-linecap: square"/>
   </g>
   <g id="patch_3">
    <path d="M 50.14375 288.430125 
L 50.14375 22.318125 
" style="fill: none; stroke: #000000; stroke-width: 0.8; stroke-linejoin: miter; stroke-linecap: square"/>
   </g>
   <g id="patch_4">
    <path d="M 407.26375 288.430125 
L 407.26375 22.318125 
" style="fill: none; stroke: #000000; stroke-width: 0.8; stroke-linejoin: miter; stroke-linecap: square"/>
   </g>
   <g id="patch_5">
    <path d="M 50.14375 288.430125 
L 407.26375 288.430125 
" style="fill: none; stroke: #000000; stroke-width: 0.8; stroke-linejoin: miter; stroke-linecap: square"/>
   </g>
   <g id="patch_6">
    <path d="M 50.14375 22.318125 
L 407.26375 22.318125 
" style="fill: none; stroke: #000000; stroke-width: 0.8; stroke-linejoin: miter; stroke-linecap: square"/>
   </g>
   <g id="text_17">
    <!-- SLAB - T(t) -->
    <g transform="translate(196.518438 16.318125) scale(0.12 -0.12)">
     <defs>
      <path id="DejaVuSans-53" d="M 3425 4513 
L 3425 3897 
Q 3066 4069 2747 4153 
Q 2428 4238 2131 4238 
Q 1616 4238 1336 4038 
Q 1056 3838 1056 3469 
Q 1056 3159 1242 3001 
Q 1428 2844 1947 2747 
L 2328 2669 
Q 3034 2534 3370 2195 
Q 3706 1856 3706 1288 
Q 3706 609 3251 259 
Q 2797 -91 1919 -91 
Q 1588 -91 1214 -16 
Q 841 59 441 206 
L 441 856 
Q 825 641 1194 531 
Q 1563 422 1919 422 
Q 2459 422 2753 634 
Q 3047 847 3047 1241 
Q 3047 1584 2836 1778 
Q 2625 1972 2144 2069 
L 1759 2144 
Q 1053 2284 737 2584 
Q 422 2884 422 3419 
Q 422 4038 858 4394 
Q 1294 4750 2059 4750 
Q 2388 4750 2728 4690 
Q 3069 4631 3425 4513 
z
" transform="scale(0.015625)"/>
      <path id="DejaVuSans-4c" d="M 628 4666 
L 1259 4666 
L 1259 531 
L 3531 531 
L 3531 0 
L 628 0 
L 628 4666 
z
" transform="scale(0.015625)"/>
      <path id="DejaVuSans-41" d="M 2188 4044 
L 1331 1722 
L 3047 1722 
L 2188 4044 
z
M 1831 4666 
L 2547 4666 
L 4325 0 
L 3669 0 
L 3244 1197 
L 1141 1197 
L 716 0 
L 50 0 
L 1831 4666 
z
" transform="scale(0.015625)"/>
      <path id="DejaVuSans-42" d="M 1259 2228 
L 1259 519 
L 2272 519 
Q 2781 519 3026 730 
Q 3272 941 3272 1375 
Q 3272 1813 3026 2020 
Q 2781 2228 2272 2228 
L 1259 2228 
z
M 1259 4147 
L 1259 2741 
L 2194 2741 
Q 2656 2741 2882 2914 
Q 3109 3088 3109 3444 
Q 3109 3797 2882 3972 
Q 2656 4147 2194 4147 
L 1259 4147 
z
M 628 4666 
L 2241 4666 
Q 2963 4666 3353 4366 
Q 3744 4066 3744 3513 
Q 3744 3084 3544 2831 
Q 3344 2578 2956 2516 
Q 3422 2416 3680 2098 
Q 3938 1781 3938 1306 
Q 3938 681 3513 340 
Q 3088 0 2303 0 
L 628 0 
L 628 4666 
z
" transform="scale(0.015625)"/>
      <path id="DejaVuSans-2d" d="M 313 2009 
L 1997 2009 
L 1997 1497 
L 313 1497 
L 313 2009 
z
" transform="scale(0.015625)"/>
     </defs>
     <use xlink:href="#DejaVuSans-53"/>
     <use xlink:href="#DejaVuSans-4c" transform="translate(63.476562 0)"/>
     <use xlink:href="#DejaVuSans-41" transform="translate(121.439453 0)"/>
     <use xlink:href="#DejaVuSans-42" transform="translate(189.847656 0)"/>
     <use xlink:href="#DejaVuSans-20" transform="translate(258.451172 0)"/>
     <use xlink:href="#DejaVuSans-2d" transform="translate(290.238281 0)"/>
     <use xlink:href="#DejaVuSans-20" transform="translate(326.322266 0)"/>
     <use xlink:href="#DejaVuSans-54" transform="translate(358.109375 0)"/>
     <use xlink:href="#DejaVuSans-28" transform="translate(419.193359 0)"/>
     <use xlink:href="#DejaVuSans-74" transform="translate(458.207031 0)"/>
     <use xlink:href="#DejaVuSans-29" transform="translate(497.416016 0)"/>
    </g>
   </g>
  </g>
 </g>
 <defs>
  <clipPath id="p0079d13673">
   <rect x="50.14375" y="22.318125" width="357.12" height="266.112"/>
  </clipPath>
 </defs>
</svg>
