<?xml version="1.0" encoding="utf-8" standalone="no"?>
<!DOCTYPE svg PUBLIC "-//W3C//DTD SVG 1.1//EN"
  "http://www.w3.org/Graphics/SVG/1.1/DTD/svg11.dtd">
<svg xmlns:xlink="http://www.w3.org/1999/xlink" width="414.730937pt" height="311.146375pt" viewBox="0 0 414.730937 311.146375" xmlns="http://www.w3.org/2000/svg" version="1.1">
 <metadata>
  <rdf:RDF xmlns:dc="http://purl.org/dc/elements/1.1/" xmlns:cc="http://creativecommons.org/ns#" xmlns:rdf="http://www.w3.org/1999/02/22-rdf-syntax-ns#">
   <cc:Work>
    <dc:type rdf:resource="http://purl.org/dc/dcmitype/StillImage"/>
    <dc:date>2025-12-10T20:29:44.844699</dc:date>
    <dc:format>image/svg+xml</dc:format>
    <dc:creator>
     <cc:Agent>
      <dc:title>Matplotlib v3.10.5, https://matplotlib.org/</dc:title>
     </cc:Agent>
    </dc:creator>
   </cc:Work>
  </rdf:RDF>
 </metadata>
 <defs>
  <style type="text/css">*{stroke-linejoin: round; stroke-linecap: butt}</style>
 </defs>
 <g id="figure_1">
  <g id="patch_1">
   <path d="M 0 311.146375 
L 414.730937 311.146375 
L 414.730937 0 
L 0 0 
z
" style="fill: #ffffff"/>
  </g>
  <g id="axes_1">
   <g id="patch_2">
    <path d="M 50.410938 273.312 
L 407.530938 273.312 
L 407.530938 7.2 
L 50.410938 7.2 
z
" style="fill: #ffffff"/>
   </g>
   <g id="FillBetweenPolyCollection_1">
    <defs>
     <path id="m0dc64692b0" d="M 66.643665 -49.930375 
L 66.643665 -49.930375 
L 68.477871 -49.930375 
L 70.312078 -49.930375 
L 72.146284 -49.930375 
L 73.980491 -49.930375 
L 75.814697 -49.930375 
L 77.648904 -49.930375 
L 79.48311 -49.930375 
L 81.317317 -49.930375 
L 83.151523 -61.587782 
L 84.985729 -49.930375 
L 86.819936 -56.122929 
L 88.654142 -57.334919 
L 90.488349 -54.021249 
L 92.322555 -82.690837 
L 94.156762 -61.30933 
L 95.990968 -60.903442 
L 97.825175 -53.591647 
L 99.659381 -67.173331 
L 101.493588 -72.755473 
L 103.327794 -56.519016 
L 105.162001 -104.142742 
L 106.996207 -78.71537 
L 108.830414 -69.928432 
L 110.66462 -79.150956 
L 112.498827 -67.519028 
L 114.333033 -68.888226 
L 116.16724 -75.506738 
L 118.001446 -90.520893 
L 119.835652 -71.038743 
L 121.669859 -61.819613 
L 123.504065 -67.871698 
L 125.338272 -56.757231 
L 127.172478 -63.7034 
L 129.006685 -72.543127 
L 130.840891 -74.688635 
L 132.675098 -55.667182 
L 134.509304 -60.465494 
L 136.343511 -76.109752 
L 138.177717 -71.275845 
L 140.011924 -73.978419 
L 141.84613 -68.153527 
L 143.680337 -103.168346 
L 145.514543 -85.344218 
L 147.34875 -96.914339 
L 149.182956 -83.311587 
L 151.017162 -130.930186 
L 152.851369 -113.005514 
L 154.685575 -171.743111 
L 156.519782 -189.691383 
L 158.353988 -173.087411 
L 160.188195 -188.554734 
L 162.022401 -247.798749 
L 163.856608 -254.631985 
L 165.690814 -224.474033 
L 167.525021 -200.347203 
L 169.359227 -197.525594 
L 171.193434 -249.27317 
L 173.02764 -200.100621 
L 174.861847 -196.299124 
L 176.696053 -211.257924 
L 178.53026 -179.68012 
L 180.364466 -217.416409 
L 182.198672 -189.371702 
L 184.032879 -190.590382 
L 185.867085 -206.165192 
L 187.701292 -216.282135 
L 189.535498 -227.36517 
L 191.369705 -202.329864 
L 193.203911 -155.395841 
L 195.038118 -173.22174 
L 196.872324 -211.426383 
L 198.706531 -199.832133 
L 200.540737 -132.72772 
L 202.374944 -188.545932 
L 204.20915 -233.323114 
L 206.043357 -158.711289 
L 207.877563 -187.879231 
L 209.71177 -152.237382 
L 211.545976 -187.281713 
L 213.380182 -175.227608 
L 215.214389 -155.12117 
L 217.048595 -181.187846 
L 218.882802 -187.348774 
L 220.717008 -183.818371 
L 222.551215 -210.740178 
L 224.385421 -178.82638 
L 226.219628 -193.810679 
L 228.053834 -161.76767 
L 229.888041 -207.005919 
L 231.722247 -221.696241 
L 233.556454 -206.70831 
L 235.39066 -181.237298 
L 237.224867 -180.098801 
L 239.059073 -196.221429 
L 240.89328 -188.646172 
L 242.727486 -197.067059 
L 244.561693 -168.402983 
L 246.395899 -167.495926 
L 248.230105 -175.401144 
L 250.064312 -168.629667 
L 251.898518 -160.447407 
L 253.732725 -171.276343 
L 255.566931 -175.505995 
L 257.401138 -169.387999 
L 259.235344 -165.868734 
L 261.069551 -159.42258 
L 262.903757 -206.326017 
L 264.737964 -186.847444 
L 266.57217 -179.514556 
L 268.406377 -178.633595 
L 270.240583 -172.500547 
L 272.07479 -187.958127 
L 273.908996 -190.080129 
L 275.743203 -192.078086 
L 277.577409 -221.81869 
L 279.411615 -206.024151 
L 281.245822 -177.174125 
L 283.080028 -171.678019 
L 284.914235 -178.497407 
L 286.748441 -192.986512 
L 288.582648 -170.544052 
L 290.416854 -170.168338 
L 292.251061 -205.869686 
L 294.085267 -174.914519 
L 295.919474 -186.695982 
L 297.75368 -163.065121 
L 299.587887 -200.885695 
L 301.422093 -217.85355 
L 303.2563 -170.476291 
L 305.090506 -166.026159 
L 306.924713 -198.028197 
L 308.758919 -189.081079 
L 310.593125 -174.029838 
L 312.427332 -170.640892 
L 314.261538 -158.815144 
L 316.095745 -192.683109 
L 317.929951 -180.106352 
L 319.764158 -164.242867 
L 321.598364 -182.040064 
L 323.432571 -169.765184 
L 325.266777 -194.169518 
L 327.100984 -178.456773 
L 328.93519 -186.567477 
L 330.769397 -172.720643 
L 332.603603 -197.973378 
L 334.43781 -193.243961 
L 336.272016 -165.932569 
L 338.106223 -169.011175 
L 339.940429 -185.384071 
L 341.774635 -169.25599 
L 343.608842 -181.520192 
L 345.443048 -166.24591 
L 347.277255 -171.323589 
L 349.111461 -174.278711 
L 350.945668 -180.721414 
L 352.779874 -176.312805 
L 354.614081 -197.785384 
L 356.448287 -188.384512 
L 358.282494 -209.645831 
L 360.1167 -185.898456 
L 361.950907 -232.470863 
L 363.785113 -161.415843 
L 365.61932 -183.228795 
L 367.453526 -197.671502 
L 369.287733 -203.560903 
L 371.121939 -209.098717 
L 372.956146 -196.409244 
L 374.790352 -170.777413 
L 376.624558 -188.092387 
L 378.458765 -179.792306 
L 380.292971 -194.772434 
L 382.127178 -177.404544 
L 383.961384 -177.236249 
L 385.795591 -194.865493 
L 387.629797 -186.291951 
L 389.464004 -192.182963 
L 391.29821 -182.352165 
L 391.29821 -200.87316 
L 391.29821 -200.87316 
L 389.464004 -217.067577 
L 387.629797 -236.194847 
L 385.795591 -232.114725 
L 383.961384 -227.472884 
L 382.127178 -213.954107 
L 380.292971 -203.577292 
L 378.458765 -202.755141 
L 376.624558 -208.226338 
L 374.790352 -198.146679 
L 372.956146 -217.230794 
L 371.121939 -243.985545 
L 369.287733 -214.895721 
L 367.453526 -215.254704 
L 365.61932 -213.045463 
L 363.785113 -197.128358 
L 361.950907 -246.522759 
L 360.1167 -214.560103 
L 358.282494 -242.556338 
L 356.448287 -219.229801 
L 354.614081 -224.717166 
L 352.779874 -211.222653 
L 350.945668 -208.06716 
L 349.111461 -199.778267 
L 347.277255 -197.636296 
L 345.443048 -182.709705 
L 343.608842 -215.399003 
L 341.774635 -193.040633 
L 339.940429 -210.275656 
L 338.106223 -190.831177 
L 336.272016 -194.332222 
L 334.43781 -207.327822 
L 332.603603 -224.812984 
L 330.769397 -200.792462 
L 328.93519 -192.556791 
L 327.100984 -187.22791 
L 325.266777 -232.228862 
L 323.432571 -198.664944 
L 321.598364 -197.770825 
L 319.764158 -207.693512 
L 317.929951 -204.920332 
L 316.095745 -204.986412 
L 314.261538 -194.935097 
L 312.427332 -191.312346 
L 310.593125 -206.676952 
L 308.758919 -221.978371 
L 306.924713 -213.12437 
L 305.090506 -203.882745 
L 303.2563 -191.154803 
L 301.422093 -239.361614 
L 299.587887 -231.950113 
L 297.75368 -211.214074 
L 295.919474 -210.840025 
L 294.085267 -186.436633 
L 292.251061 -222.08799 
L 290.416854 -226.712078 
L 288.582648 -192.487038 
L 286.748441 -215.479679 
L 284.914235 -205.151556 
L 283.080028 -228.080494 
L 281.245822 -218.742488 
L 279.411615 -232.150853 
L 277.577409 -253.205546 
L 275.743203 -204.404261 
L 273.908996 -218.343146 
L 272.07479 -210.416455 
L 270.240583 -181.52339 
L 268.406377 -191.130093 
L 266.57217 -193.377988 
L 264.737964 -224.5801 
L 262.903757 -226.669523 
L 261.069551 -190.568136 
L 259.235344 -187.254993 
L 257.401138 -217.431243 
L 255.566931 -200.079115 
L 253.732725 -212.986683 
L 251.898518 -191.228505 
L 250.064312 -182.951479 
L 248.230105 -210.912114 
L 246.395899 -203.617255 
L 244.561693 -204.27116 
L 242.727486 -220.091332 
L 240.89328 -224.301557 
L 239.059073 -251.059142 
L 237.224867 -205.101795 
L 235.39066 -195.732701 
L 233.556454 -233.077917 
L 231.722247 -240.848783 
L 229.888041 -240.770218 
L 228.053834 -191.021598 
L 226.219628 -222.881991 
L 224.385421 -237.065231 
L 222.551215 -240.332227 
L 220.717008 -210.691552 
L 218.882802 -229.354905 
L 217.048595 -195.325259 
L 215.214389 -207.657897 
L 213.380182 -234.28664 
L 211.545976 -226.567904 
L 209.71177 -183.180743 
L 207.877563 -216.055132 
L 206.043357 -184.443187 
L 204.20915 -281.091758 
L 202.374944 -230.211297 
L 200.540737 -190.877219 
L 198.706531 -224.618444 
L 196.872324 -261.343082 
L 195.038118 -219.849332 
L 193.203911 -207.825444 
L 191.369705 -241.4771 
L 189.535498 -272.549039 
L 187.701292 -238.526084 
L 185.867085 -252.522861 
L 184.032879 -212.665994 
L 182.198672 -220.654925 
L 180.364466 -242.451474 
L 178.53026 -257.176297 
L 176.696053 -253.230629 
L 174.861847 -224.105098 
L 173.02764 -250.816359 
L 171.193434 -283.861895 
L 169.359227 -222.087967 
L 167.525021 -261.927269 
L 165.690814 -280.471372 
L 163.856608 -291.850375 
L 162.022401 -291.577794 
L 160.188195 -232.278143 
L 158.353988 -213.557899 
L 156.519782 -211.013716 
L 154.685575 -231.364477 
L 152.851369 -157.989512 
L 151.017162 -179.724786 
L 149.182956 -131.500786 
L 147.34875 -118.906997 
L 145.514543 -130.979028 
L 143.680337 -144.894843 
L 141.84613 -84.08996 
L 140.011924 -104.12988 
L 138.177717 -86.443313 
L 136.343511 -100.893441 
L 134.509304 -89.056175 
L 132.675098 -121.235633 
L 130.840891 -95.814829 
L 129.006685 -114.227483 
L 127.172478 -107.423023 
L 125.338272 -74.808582 
L 123.504065 -90.49961 
L 121.669859 -103.53061 
L 119.835652 -102.175976 
L 118.001446 -166.519996 
L 116.16724 -109.658901 
L 114.333033 -109.604254 
L 112.498827 -111.243546 
L 110.66462 -119.726935 
L 108.830414 -90.922522 
L 106.996207 -127.470025 
L 105.162001 -189.572717 
L 103.327794 -77.546892 
L 101.493588 -116.048385 
L 99.659381 -93.309394 
L 97.825175 -137.100614 
L 95.990968 -79.68725 
L 94.156762 -85.548752 
L 92.322555 -137.190881 
L 90.488349 -72.944264 
L 88.654142 -81.273744 
L 86.819936 -75.688873 
L 84.985729 -76.300861 
L 83.151523 -99.219473 
L 81.317317 -127.740585 
L 79.48311 -194.360198 
L 77.648904 -83.333748 
L 75.814697 -49.930375 
L 73.980491 -49.930375 
L 72.146284 -84.049535 
L 70.312078 -136.779145 
L 68.477871 -49.930375 
L 66.643665 -49.930375 
z
" style="stroke: #ff7f0e; stroke-opacity: 0.3"/>
    </defs>
    <g clip-path="url(#pb090c745ab)">
     <use xlink:href="#m0dc64692b0" x="0" y="311.146375" style="fill: #ff7f0e; fill-opacity: 0.3; stroke: #ff7f0e; stroke-opacity: 0.3"/>
    </g>
   </g>
   <g id="matplotlib.axis_1">
    <g id="xtick_1">
     <g id="line2d_1">
      <defs>
       <path id="m5ae71861d3" d="M 0 0 
L 0 3.5 
" style="stroke: #000000; stroke-width: 0.8"/>
      </defs>
      <g>
       <use xlink:href="#m5ae71861d3" x="65.726562" y="273.312" style="stroke: #000000; stroke-width: 0.8"/>
      </g>
     </g>
     <g id="text_1">
      <!-- 0.0 -->
      <g transform="translate(57.774999 287.910438) scale(0.1 -0.1)">
       <defs>
        <path id="DejaVuSans-30" d="M 2034 4250 
Q 1547 4250 1301 3770 
Q 1056 3291 1056 2328 
Q 1056 1369 1301 889 
Q 1547 409 2034 409 
Q 2525 409 2770 889 
Q 3016 1369 3016 2328 
Q 3016 3291 2770 3770 
Q 2525 4250 2034 4250 
z
M 2034 4750 
Q 2819 4750 3233 4129 
Q 3647 3509 3647 2328 
Q 3647 1150 3233 529 
Q 2819 -91 2034 -91 
Q 1250 -91 836 529 
Q 422 1150 422 2328 
Q 422 3509 836 4129 
Q 1250 4750 2034 4750 
z
" transform="scale(0.015625)"/>
        <path id="DejaVuSans-2e" d="M 684 794 
L 1344 794 
L 1344 0 
L 684 0 
L 684 794 
z
" transform="scale(0.015625)"/>
       </defs>
       <use xlink:href="#DejaVuSans-30"/>
       <use xlink:href="#DejaVuSans-2e" transform="translate(63.623047 0)"/>
       <use xlink:href="#DejaVuSans-30" transform="translate(95.410156 0)"/>
      </g>
     </g>
    </g>
    <g id="xtick_2">
     <g id="line2d_2">
      <g>
       <use xlink:href="#m5ae71861d3" x="111.581723" y="273.312" style="stroke: #000000; stroke-width: 0.8"/>
      </g>
     </g>
     <g id="text_2">
      <!-- 0.5 -->
      <g transform="translate(103.630161 287.910438) scale(0.1 -0.1)">
       <defs>
        <path id="DejaVuSans-35" d="M 691 4666 
L 3169 4666 
L 3169 4134 
L 1269 4134 
L 1269 2991 
Q 1406 3038 1543 3061 
Q 1681 3084 1819 3084 
Q 2600 3084 3056 2656 
Q 3513 2228 3513 1497 
Q 3513 744 3044 326 
Q 2575 -91 1722 -91 
Q 1428 -91 1123 -41 
Q 819 9 494 109 
L 494 744 
Q 775 591 1075 516 
Q 1375 441 1709 441 
Q 2250 441 2565 725 
Q 2881 1009 2881 1497 
Q 2881 1984 2565 2268 
Q 2250 2553 1709 2553 
Q 1456 2553 1204 2497 
Q 953 2441 691 2322 
L 691 4666 
z
" transform="scale(0.015625)"/>
       </defs>
       <use xlink:href="#DejaVuSans-30"/>
       <use xlink:href="#DejaVuSans-2e" transform="translate(63.623047 0)"/>
       <use xlink:href="#DejaVuSans-35" transform="translate(95.410156 0)"/>
      </g>
     </g>
    </g>
    <g id="xtick_3">
     <g id="line2d_3">
      <g>
       <use xlink:href="#m5ae71861d3" x="157.436885" y="273.312" style="stroke: #000000; stroke-width: 0.8"/>
      </g>
     </g>
     <g id="text_3">
      <!-- 1.0 -->
      <g transform="translate(149.485323 287.910438) scale(0.1 -0.1)">
       <defs>
        <path id="DejaVuSans-31" d="M 794 531 
L 1825 531 
L 1825 4091 
L 703 3866 
L 703 4441 
L 1819 4666 
L 2450 4666 
L 2450 531 
L 3481 531 
L 3481 0 
L 794 0 
L 794 531 
z
" transform="scale(0.015625)"/>
       </defs>
       <use xlink:href="#DejaVuSans-31"/>
       <use xlink:href="#DejaVuSans-2e" transform="translate(63.623047 0)"/>
       <use xlink:href="#DejaVuSans-30" transform="translate(95.410156 0)"/>
      </g>
     </g>
    </g>
    <g id="xtick_4">
     <g id="line2d_4">
      <g>
       <use xlink:href="#m5ae71861d3" x="203.292047" y="273.312" style="stroke: #000000; stroke-width: 0.8"/>
      </g>
     </g>
     <g id="text_4">
      <!-- 1.5 -->
      <g transform="translate(195.340484 287.910438) scale(0.1 -0.1)">
       <use xlink:href="#DejaVuSans-31"/>
       <use xlink:href="#DejaVuSans-2e" transform="translate(63.623047 0)"/>
       <use xlink:href="#DejaVuSans-35" transform="translate(95.410156 0)"/>
      </g>
     </g>
    </g>
    <g id="xtick_5">
     <g id="line2d_5">
      <g>
       <use xlink:href="#m5ae71861d3" x="249.147209" y="273.312" style="stroke: #000000; stroke-width: 0.8"/>
      </g>
     </g>
     <g id="text_5">
      <!-- 2.0 -->
      <g transform="translate(241.195646 287.910438) scale(0.1 -0.1)">
       <defs>
        <path id="DejaVuSans-32" d="M 1228 531 
L 3431 531 
L 3431 0 
L 469 0 
L 469 531 
Q 828 903 1448 1529 
Q 2069 2156 2228 2338 
Q 2531 2678 2651 2914 
Q 2772 3150 2772 3378 
Q 2772 3750 2511 3984 
Q 2250 4219 1831 4219 
Q 1534 4219 1204 4116 
Q 875 4013 500 3803 
L 500 4441 
Q 881 4594 1212 4672 
Q 1544 4750 1819 4750 
Q 2544 4750 2975 4387 
Q 3406 4025 3406 3419 
Q 3406 3131 3298 2873 
Q 3191 2616 2906 2266 
Q 2828 2175 2409 1742 
Q 1991 1309 1228 531 
z
" transform="scale(0.015625)"/>
       </defs>
       <use xlink:href="#DejaVuSans-32"/>
       <use xlink:href="#DejaVuSans-2e" transform="translate(63.623047 0)"/>
       <use xlink:href="#DejaVuSans-30" transform="translate(95.410156 0)"/>
      </g>
     </g>
    </g>
    <g id="xtick_6">
     <g id="line2d_6">
      <g>
       <use xlink:href="#m5ae71861d3" x="295.00237" y="273.312" style="stroke: #000000; stroke-width: 0.8"/>
      </g>
     </g>
     <g id="text_6">
      <!-- 2.5 -->
      <g transform="translate(287.050808 287.910438) scale(0.1 -0.1)">
       <use xlink:href="#DejaVuSans-32"/>
       <use xlink:href="#DejaVuSans-2e" transform="translate(63.623047 0)"/>
       <use xlink:href="#DejaVuSans-35" transform="translate(95.410156 0)"/>
      </g>
     </g>
    </g>
    <g id="xtick_7">
     <g id="line2d_7">
      <g>
       <use xlink:href="#m5ae71861d3" x="340.857532" y="273.312" style="stroke: #000000; stroke-width: 0.8"/>
      </g>
     </g>
     <g id="text_7">
      <!-- 3.0 -->
      <g transform="translate(332.90597 287.910438) scale(0.1 -0.1)">
       <defs>
        <path id="DejaVuSans-33" d="M 2597 2516 
Q 3050 2419 3304 2112 
Q 3559 1806 3559 1356 
Q 3559 666 3084 287 
Q 2609 -91 1734 -91 
Q 1441 -91 1130 -33 
Q 819 25 488 141 
L 488 750 
Q 750 597 1062 519 
Q 1375 441 1716 441 
Q 2309 441 2620 675 
Q 2931 909 2931 1356 
Q 2931 1769 2642 2001 
Q 2353 2234 1838 2234 
L 1294 2234 
L 1294 2753 
L 1863 2753 
Q 2328 2753 2575 2939 
Q 2822 3125 2822 3475 
Q 2822 3834 2567 4026 
Q 2313 4219 1838 4219 
Q 1578 4219 1281 4162 
Q 984 4106 628 3988 
L 628 4550 
Q 988 4650 1302 4700 
Q 1616 4750 1894 4750 
Q 2613 4750 3031 4423 
Q 3450 4097 3450 3541 
Q 3450 3153 3228 2886 
Q 3006 2619 2597 2516 
z
" transform="scale(0.015625)"/>
       </defs>
       <use xlink:href="#DejaVuSans-33"/>
       <use xlink:href="#DejaVuSans-2e" transform="translate(63.623047 0)"/>
       <use xlink:href="#DejaVuSans-30" transform="translate(95.410156 0)"/>
      </g>
     </g>
    </g>
    <g id="xtick_8">
     <g id="line2d_8">
      <g>
       <use xlink:href="#m5ae71861d3" x="386.712694" y="273.312" style="stroke: #000000; stroke-width: 0.8"/>
      </g>
     </g>
     <g id="text_8">
      <!-- 3.5 -->
      <g transform="translate(378.761132 287.910438) scale(0.1 -0.1)">
       <use xlink:href="#DejaVuSans-33"/>
       <use xlink:href="#DejaVuSans-2e" transform="translate(63.623047 0)"/>
       <use xlink:href="#DejaVuSans-35" transform="translate(95.410156 0)"/>
      </g>
     </g>
    </g>
    <g id="text_9">
     <!-- r_xy (reduced units) -->
     <g transform="translate(178.763125 301.588562) scale(0.1 -0.1)">
      <defs>
       <path id="DejaVuSans-72" d="M 2631 2963 
Q 2534 3019 2420 3045 
Q 2306 3072 2169 3072 
Q 1681 3072 1420 2755 
Q 1159 2438 1159 1844 
L 1159 0 
L 581 0 
L 581 3500 
L 1159 3500 
L 1159 2956 
Q 1341 3275 1631 3429 
Q 1922 3584 2338 3584 
Q 2397 3584 2469 3576 
Q 2541 3569 2628 3553 
L 2631 2963 
z
" transform="scale(0.015625)"/>
       <path id="DejaVuSans-5f" d="M 3263 -1063 
L 3263 -1509 
L -63 -1509 
L -63 -1063 
L 3263 -1063 
z
" transform="scale(0.015625)"/>
       <path id="DejaVuSans-78" d="M 3513 3500 
L 2247 1797 
L 3578 0 
L 2900 0 
L 1881 1375 
L 863 0 
L 184 0 
L 1544 1831 
L 300 3500 
L 978 3500 
L 1906 2253 
L 2834 3500 
L 3513 3500 
z
" transform="scale(0.015625)"/>
       <path id="DejaVuSans-79" d="M 2059 -325 
Q 1816 -950 1584 -1140 
Q 1353 -1331 966 -1331 
L 506 -1331 
L 506 -850 
L 844 -850 
Q 1081 -850 1212 -737 
Q 1344 -625 1503 -206 
L 1606 56 
L 191 3500 
L 800 3500 
L 1894 763 
L 2988 3500 
L 3597 3500 
L 2059 -325 
z
" transform="scale(0.015625)"/>
       <path id="DejaVuSans-20" transform="scale(0.015625)"/>
       <path id="DejaVuSans-28" d="M 1984 4856 
Q 1566 4138 1362 3434 
Q 1159 2731 1159 2009 
Q 1159 1288 1364 580 
Q 1569 -128 1984 -844 
L 1484 -844 
Q 1016 -109 783 600 
Q 550 1309 550 2009 
Q 550 2706 781 3412 
Q 1013 4119 1484 4856 
L 1984 4856 
z
" transform="scale(0.015625)"/>
       <path id="DejaVuSans-65" d="M 3597 1894 
L 3597 1613 
L 953 1613 
Q 991 1019 1311 708 
Q 1631 397 2203 397 
Q 2534 397 2845 478 
Q 3156 559 3463 722 
L 3463 178 
Q 3153 47 2828 -22 
Q 2503 -91 2169 -91 
Q 1331 -91 842 396 
Q 353 884 353 1716 
Q 353 2575 817 3079 
Q 1281 3584 2069 3584 
Q 2775 3584 3186 3129 
Q 3597 2675 3597 1894 
z
M 3022 2063 
Q 3016 2534 2758 2815 
Q 2500 3097 2075 3097 
Q 1594 3097 1305 2825 
Q 1016 2553 972 2059 
L 3022 2063 
z
" transform="scale(0.015625)"/>
       <path id="DejaVuSans-64" d="M 2906 2969 
L 2906 4863 
L 3481 4863 
L 3481 0 
L 2906 0 
L 2906 525 
Q 2725 213 2448 61 
Q 2172 -91 1784 -91 
Q 1150 -91 751 415 
Q 353 922 353 1747 
Q 353 2572 751 3078 
Q 1150 3584 1784 3584 
Q 2172 3584 2448 3432 
Q 2725 3281 2906 2969 
z
M 947 1747 
Q 947 1113 1208 752 
Q 1469 391 1925 391 
Q 2381 391 2643 752 
Q 2906 1113 2906 1747 
Q 2906 2381 2643 2742 
Q 2381 3103 1925 3103 
Q 1469 3103 1208 2742 
Q 947 2381 947 1747 
z
" transform="scale(0.015625)"/>
       <path id="DejaVuSans-75" d="M 544 1381 
L 544 3500 
L 1119 3500 
L 1119 1403 
Q 1119 906 1312 657 
Q 1506 409 1894 409 
Q 2359 409 2629 706 
Q 2900 1003 2900 1516 
L 2900 3500 
L 3475 3500 
L 3475 0 
L 2900 0 
L 2900 538 
Q 2691 219 2414 64 
Q 2138 -91 1772 -91 
Q 1169 -91 856 284 
Q 544 659 544 1381 
z
M 1991 3584 
L 1991 3584 
z
" transform="scale(0.015625)"/>
       <path id="DejaVuSans-63" d="M 3122 3366 
L 3122 2828 
Q 2878 2963 2633 3030 
Q 2388 3097 2138 3097 
Q 1578 3097 1268 2742 
Q 959 2388 959 1747 
Q 959 1106 1268 751 
Q 1578 397 2138 397 
Q 2388 397 2633 464 
Q 2878 531 3122 666 
L 3122 134 
Q 2881 22 2623 -34 
Q 2366 -91 2075 -91 
Q 1284 -91 818 406 
Q 353 903 353 1747 
Q 353 2603 823 3093 
Q 1294 3584 2113 3584 
Q 2378 3584 2631 3529 
Q 2884 3475 3122 3366 
z
" transform="scale(0.015625)"/>
       <path id="DejaVuSans-6e" d="M 3513 2113 
L 3513 0 
L 2938 0 
L 2938 2094 
Q 2938 2591 2744 2837 
Q 2550 3084 2163 3084 
Q 1697 3084 1428 2787 
Q 1159 2491 1159 1978 
L 1159 0 
L 581 0 
L 581 3500 
L 1159 3500 
L 1159 2956 
Q 1366 3272 1645 3428 
Q 1925 3584 2291 3584 
Q 2894 3584 3203 3211 
Q 3513 2838 3513 2113 
z
" transform="scale(0.015625)"/>
       <path id="DejaVuSans-69" d="M 603 3500 
L 1178 3500 
L 1178 0 
L 603 0 
L 603 3500 
z
M 603 4863 
L 1178 4863 
L 1178 4134 
L 603 4134 
L 603 4863 
z
" transform="scale(0.015625)"/>
       <path id="DejaVuSans-74" d="M 1172 4494 
L 1172 3500 
L 2356 3500 
L 2356 3053 
L 1172 3053 
L 1172 1153 
Q 1172 725 1289 603 
Q 1406 481 1766 481 
L 2356 481 
L 2356 0 
L 1766 0 
Q 1100 0 847 248 
Q 594 497 594 1153 
L 594 3053 
L 172 3053 
L 172 3500 
L 594 3500 
L 594 4494 
L 1172 4494 
z
" transform="scale(0.015625)"/>
       <path id="DejaVuSans-73" d="M 2834 3397 
L 2834 2853 
Q 2591 2978 2328 3040 
Q 2066 3103 1784 3103 
Q 1356 3103 1142 2972 
Q 928 2841 928 2578 
Q 928 2378 1081 2264 
Q 1234 2150 1697 2047 
L 1894 2003 
Q 2506 1872 2764 1633 
Q 3022 1394 3022 966 
Q 3022 478 2636 193 
Q 2250 -91 1575 -91 
Q 1294 -91 989 -36 
Q 684 19 347 128 
L 347 722 
Q 666 556 975 473 
Q 1284 391 1588 391 
Q 1994 391 2212 530 
Q 2431 669 2431 922 
Q 2431 1156 2273 1281 
Q 2116 1406 1581 1522 
L 1381 1569 
Q 847 1681 609 1914 
Q 372 2147 372 2553 
Q 372 3047 722 3315 
Q 1072 3584 1716 3584 
Q 2034 3584 2315 3537 
Q 2597 3491 2834 3397 
z
" transform="scale(0.015625)"/>
       <path id="DejaVuSans-29" d="M 513 4856 
L 1013 4856 
Q 1481 4119 1714 3412 
Q 1947 2706 1947 2009 
Q 1947 1309 1714 600 
Q 1481 -109 1013 -844 
L 513 -844 
Q 928 -128 1133 580 
Q 1338 1288 1338 2009 
Q 1338 2731 1133 3434 
Q 928 4138 513 4856 
z
" transform="scale(0.015625)"/>
      </defs>
      <use xlink:href="#DejaVuSans-72"/>
      <use xlink:href="#DejaVuSans-5f" transform="translate(41.113281 0)"/>
      <use xlink:href="#DejaVuSans-78" transform="translate(91.113281 0)"/>
      <use xlink:href="#DejaVuSans-79" transform="translate(150.292969 0)"/>
      <use xlink:href="#DejaVuSans-20" transform="translate(209.472656 0)"/>
      <use xlink:href="#DejaVuSans-28" transform="translate(241.259766 0)"/>
      <use xlink:href="#DejaVuSans-72" transform="translate(280.273438 0)"/>
      <use xlink:href="#DejaVuSans-65" transform="translate(319.136719 0)"/>
      <use xlink:href="#DejaVuSans-64" transform="translate(380.660156 0)"/>
      <use xlink:href="#DejaVuSans-75" transform="translate(444.136719 0)"/>
      <use xlink:href="#DejaVuSans-63" transform="translate(507.515625 0)"/>
      <use xlink:href="#DejaVuSans-65" transform="translate(562.496094 0)"/>
      <use xlink:href="#DejaVuSans-64" transform="translate(624.019531 0)"/>
      <use xlink:href="#DejaVuSans-20" transform="translate(687.496094 0)"/>
      <use xlink:href="#DejaVuSans-75" transform="translate(719.283203 0)"/>
      <use xlink:href="#DejaVuSans-6e" transform="translate(782.662109 0)"/>
      <use xlink:href="#DejaVuSans-69" transform="translate(846.041016 0)"/>
      <use xlink:href="#DejaVuSans-74" transform="translate(873.824219 0)"/>
      <use xlink:href="#DejaVuSans-73" transform="translate(913.033203 0)"/>
      <use xlink:href="#DejaVuSans-29" transform="translate(965.132812 0)"/>
     </g>
    </g>
   </g>
   <g id="matplotlib.axis_2">
    <g id="ytick_1">
     <g id="line2d_9">
      <defs>
       <path id="me3b131a209" d="M 0 0 
L -3.5 0 
" style="stroke: #000000; stroke-width: 0.8"/>
      </defs>
      <g>
       <use xlink:href="#me3b131a209" x="50.410938" y="261.216" style="stroke: #000000; stroke-width: 0.8"/>
      </g>
     </g>
     <g id="text_10">
      <!-- 0.00 -->
      <g transform="translate(21.145313 265.015219) scale(0.1 -0.1)">
       <use xlink:href="#DejaVuSans-30"/>
       <use xlink:href="#DejaVuSans-2e" transform="translate(63.623047 0)"/>
       <use xlink:href="#DejaVuSans-30" transform="translate(95.410156 0)"/>
       <use xlink:href="#DejaVuSans-30" transform="translate(159.033203 0)"/>
      </g>
     </g>
    </g>
    <g id="ytick_2">
     <g id="line2d_10">
      <g>
       <use xlink:href="#me3b131a209" x="50.410938" y="225.693993" style="stroke: #000000; stroke-width: 0.8"/>
      </g>
     </g>
     <g id="text_11">
      <!-- 0.25 -->
      <g transform="translate(21.145313 229.493212) scale(0.1 -0.1)">
       <use xlink:href="#DejaVuSans-30"/>
       <use xlink:href="#DejaVuSans-2e" transform="translate(63.623047 0)"/>
       <use xlink:href="#DejaVuSans-32" transform="translate(95.410156 0)"/>
       <use xlink:href="#DejaVuSans-35" transform="translate(159.033203 0)"/>
      </g>
     </g>
    </g>
    <g id="ytick_3">
     <g id="line2d_11">
      <g>
       <use xlink:href="#me3b131a209" x="50.410938" y="190.171986" style="stroke: #000000; stroke-width: 0.8"/>
      </g>
     </g>
     <g id="text_12">
      <!-- 0.50 -->
      <g transform="translate(21.145313 193.971205) scale(0.1 -0.1)">
       <use xlink:href="#DejaVuSans-30"/>
       <use xlink:href="#DejaVuSans-2e" transform="translate(63.623047 0)"/>
       <use xlink:href="#DejaVuSans-35" transform="translate(95.410156 0)"/>
       <use xlink:href="#DejaVuSans-30" transform="translate(159.033203 0)"/>
      </g>
     </g>
    </g>
    <g id="ytick_4">
     <g id="line2d_12">
      <g>
       <use xlink:href="#me3b131a209" x="50.410938" y="154.64998" style="stroke: #000000; stroke-width: 0.8"/>
      </g>
     </g>
     <g id="text_13">
      <!-- 0.75 -->
      <g transform="translate(21.145313 158.449198) scale(0.1 -0.1)">
       <defs>
        <path id="DejaVuSans-37" d="M 525 4666 
L 3525 4666 
L 3525 4397 
L 1831 0 
L 1172 0 
L 2766 4134 
L 525 4134 
L 525 4666 
z
" transform="scale(0.015625)"/>
       </defs>
       <use xlink:href="#DejaVuSans-30"/>
       <use xlink:href="#DejaVuSans-2e" transform="translate(63.623047 0)"/>
       <use xlink:href="#DejaVuSans-37" transform="translate(95.410156 0)"/>
       <use xlink:href="#DejaVuSans-35" transform="translate(159.033203 0)"/>
      </g>
     </g>
    </g>
    <g id="ytick_5">
     <g id="line2d_13">
      <g>
       <use xlink:href="#me3b131a209" x="50.410938" y="119.127973" style="stroke: #000000; stroke-width: 0.8"/>
      </g>
     </g>
     <g id="text_14">
      <!-- 1.00 -->
      <g transform="translate(21.145313 122.927192) scale(0.1 -0.1)">
       <use xlink:href="#DejaVuSans-31"/>
       <use xlink:href="#DejaVuSans-2e" transform="translate(63.623047 0)"/>
       <use xlink:href="#DejaVuSans-30" transform="translate(95.410156 0)"/>
       <use xlink:href="#DejaVuSans-30" transform="translate(159.033203 0)"/>
      </g>
     </g>
    </g>
    <g id="ytick_6">
     <g id="line2d_14">
      <g>
       <use xlink:href="#me3b131a209" x="50.410938" y="83.605966" style="stroke: #000000; stroke-width: 0.8"/>
      </g>
     </g>
     <g id="text_15">
      <!-- 1.25 -->
      <g transform="translate(21.145313 87.405185) scale(0.1 -0.1)">
       <use xlink:href="#DejaVuSans-31"/>
       <use xlink:href="#DejaVuSans-2e" transform="translate(63.623047 0)"/>
       <use xlink:href="#DejaVuSans-32" transform="translate(95.410156 0)"/>
       <use xlink:href="#DejaVuSans-35" transform="translate(159.033203 0)"/>
      </g>
     </g>
    </g>
    <g id="ytick_7">
     <g id="line2d_15">
      <g>
       <use xlink:href="#me3b131a209" x="50.410938" y="48.083959" style="stroke: #000000; stroke-width: 0.8"/>
      </g>
     </g>
     <g id="text_16">
      <!-- 1.50 -->
      <g transform="translate(21.145313 51.883178) scale(0.1 -0.1)">
       <use xlink:href="#DejaVuSans-31"/>
       <use xlink:href="#DejaVuSans-2e" transform="translate(63.623047 0)"/>
       <use xlink:href="#DejaVuSans-35" transform="translate(95.410156 0)"/>
       <use xlink:href="#DejaVuSans-30" transform="translate(159.033203 0)"/>
      </g>
     </g>
    </g>
    <g id="ytick_8">
     <g id="line2d_16">
      <g>
       <use xlink:href="#me3b131a209" x="50.410938" y="12.561953" style="stroke: #000000; stroke-width: 0.8"/>
      </g>
     </g>
     <g id="text_17">
      <!-- 1.75 -->
      <g transform="translate(21.145313 16.361171) scale(0.1 -0.1)">
       <use xlink:href="#DejaVuSans-31"/>
       <use xlink:href="#DejaVuSans-2e" transform="translate(63.623047 0)"/>
       <use xlink:href="#DejaVuSans-37" transform="translate(95.410156 0)"/>
       <use xlink:href="#DejaVuSans-35" transform="translate(159.033203 0)"/>
      </g>
     </g>
    </g>
    <g id="text_18">
     <!-- g_xy(r) -->
     <g transform="translate(14.7875 157.806) rotate(-90) scale(0.1 -0.1)">
      <defs>
       <path id="DejaVuSans-67" d="M 2906 1791 
Q 2906 2416 2648 2759 
Q 2391 3103 1925 3103 
Q 1463 3103 1205 2759 
Q 947 2416 947 1791 
Q 947 1169 1205 825 
Q 1463 481 1925 481 
Q 2391 481 2648 825 
Q 2906 1169 2906 1791 
z
M 3481 434 
Q 3481 -459 3084 -895 
Q 2688 -1331 1869 -1331 
Q 1566 -1331 1297 -1286 
Q 1028 -1241 775 -1147 
L 775 -588 
Q 1028 -725 1275 -790 
Q 1522 -856 1778 -856 
Q 2344 -856 2625 -561 
Q 2906 -266 2906 331 
L 2906 616 
Q 2728 306 2450 153 
Q 2172 0 1784 0 
Q 1141 0 747 490 
Q 353 981 353 1791 
Q 353 2603 747 3093 
Q 1141 3584 1784 3584 
Q 2172 3584 2450 3431 
Q 2728 3278 2906 2969 
L 2906 3500 
L 3481 3500 
L 3481 434 
z
" transform="scale(0.015625)"/>
      </defs>
      <use xlink:href="#DejaVuSans-67"/>
      <use xlink:href="#DejaVuSans-5f" transform="translate(63.476562 0)"/>
      <use xlink:href="#DejaVuSans-78" transform="translate(113.476562 0)"/>
      <use xlink:href="#DejaVuSans-79" transform="translate(172.65625 0)"/>
      <use xlink:href="#DejaVuSans-28" transform="translate(231.835938 0)"/>
      <use xlink:href="#DejaVuSans-72" transform="translate(270.849609 0)"/>
      <use xlink:href="#DejaVuSans-29" transform="translate(311.962891 0)"/>
     </g>
    </g>
   </g>
   <g id="line2d_17">
    <path d="M 66.643665 261.216 
L 68.477871 261.216 
L 70.312078 217.791615 
L 72.146284 244.15642 
L 73.980491 261.216 
L 75.814697 261.216 
L 77.648904 244.514313 
L 79.48311 189.001089 
L 81.317317 222.310895 
L 83.151523 230.742747 
L 84.985729 248.030757 
L 86.819936 245.240474 
L 88.654142 241.842044 
L 90.488349 247.663618 
L 92.322555 201.205516 
L 94.156762 237.717334 
L 95.990968 240.851029 
L 97.825175 215.800245 
L 99.659381 230.905012 
L 101.493588 216.744446 
L 103.327794 244.113421 
L 105.162001 164.288646 
L 106.996207 208.053678 
L 108.830414 230.720898 
L 110.66462 211.707429 
L 112.498827 221.765088 
L 114.333033 221.900135 
L 116.16724 218.563556 
L 118.001446 182.62593 
L 119.835652 224.539016 
L 121.669859 228.471264 
L 123.504065 231.960721 
L 125.338272 245.363469 
L 127.172478 225.583163 
L 129.006685 217.76107 
L 130.840891 225.894643 
L 132.675098 222.694968 
L 134.509304 236.38554 
L 136.343511 222.644779 
L 138.177717 232.286796 
L 140.011924 222.092226 
L 141.84613 235.024632 
L 143.680337 187.114781 
L 145.514543 202.984752 
L 147.34875 203.235707 
L 149.182956 203.740188 
L 151.017162 155.818889 
L 152.851369 175.648862 
L 154.685575 109.592581 
L 156.519782 110.793826 
L 158.353988 117.82372 
L 160.188195 100.729936 
L 162.022401 41.458103 
L 163.856608 37.905195 
L 169.359227 101.339594 
L 171.193434 44.578843 
L 173.02764 85.687885 
L 174.861847 100.944264 
L 176.696053 78.902098 
L 178.53026 92.718166 
L 180.364466 81.212434 
L 182.198672 106.133062 
L 184.032879 109.518187 
L 185.867085 81.802348 
L 187.701292 83.742265 
L 189.535498 61.18927 
L 191.369705 89.242893 
L 193.203911 129.535732 
L 195.038118 114.610839 
L 196.872324 74.761642 
L 198.706531 98.921086 
L 200.540737 149.343905 
L 204.20915 53.938939 
L 206.043357 139.569137 
L 207.877563 109.179194 
L 209.71177 143.437312 
L 211.545976 104.221567 
L 213.380182 106.389251 
L 215.214389 129.756842 
L 217.048595 122.889823 
L 218.882802 102.794536 
L 220.717008 113.891413 
L 222.551215 85.610173 
L 224.385421 103.200569 
L 226.219628 102.80004 
L 228.053834 134.751741 
L 229.888041 87.258306 
L 231.722247 79.873863 
L 233.556454 91.253261 
L 235.39066 122.661376 
L 237.224867 118.546077 
L 239.059073 87.506089 
L 240.89328 104.672511 
L 242.727486 102.567179 
L 244.561693 124.809303 
L 246.395899 125.589785 
L 248.230105 117.989746 
L 250.064312 135.355802 
L 251.898518 135.308419 
L 253.732725 119.014862 
L 255.566931 123.35382 
L 257.401138 117.736754 
L 259.235344 134.584512 
L 261.069551 136.151017 
L 262.903757 94.648605 
L 264.737964 105.432603 
L 266.57217 124.700103 
L 268.406377 126.264531 
L 270.240583 134.134407 
L 272.07479 111.959084 
L 273.908996 106.934738 
L 275.743203 112.905202 
L 277.577409 73.634257 
L 279.411615 92.058873 
L 281.245822 113.188069 
L 283.080028 111.267119 
L 284.914235 119.321893 
L 286.748441 106.913279 
L 288.582648 129.63083 
L 290.416854 112.706167 
L 292.251061 97.167537 
L 294.085267 130.470799 
L 295.919474 112.378372 
L 297.75368 124.006777 
L 299.587887 94.728471 
L 301.422093 82.538793 
L 303.2563 130.330828 
L 305.090506 126.191923 
L 306.924713 105.570092 
L 308.758919 105.61665 
L 310.593125 120.79298 
L 312.427332 130.169756 
L 314.261538 134.271255 
L 316.095745 112.311615 
L 319.764158 125.178185 
L 321.598364 121.240931 
L 323.432571 126.931311 
L 325.266777 97.947185 
L 327.100984 128.304033 
L 328.93519 121.584241 
L 330.769397 124.389823 
L 332.603603 99.753194 
L 334.43781 110.860483 
L 336.272016 131.01398 
L 338.106223 131.225199 
L 339.940429 113.316512 
L 341.774635 129.998063 
L 343.608842 112.686778 
L 345.443048 136.668568 
L 347.277255 126.666433 
L 349.111461 124.117886 
L 350.945668 116.752088 
L 352.779874 117.378646 
L 354.614081 99.8951 
L 356.448287 107.339218 
L 358.282494 85.045291 
L 360.1167 110.917096 
L 361.950907 71.649564 
L 363.785113 131.874274 
L 365.61932 113.009246 
L 367.453526 104.683272 
L 369.287733 101.918063 
L 371.121939 84.604244 
L 372.956146 104.326356 
L 374.790352 126.684329 
L 376.624558 112.987013 
L 378.458765 119.872652 
L 380.292971 111.971512 
L 382.127178 115.467049 
L 383.961384 108.791808 
L 385.795591 97.656266 
L 387.629797 99.902976 
L 389.464004 106.521105 
L 391.29821 119.533712 
L 391.29821 119.533712 
" clip-path="url(#pb090c745ab)" style="fill: none; stroke: #ff7f0e; stroke-width: 1.5; stroke-linecap: square"/>
   </g>
   <g id="line2d_18">
    <path d="M 50.410938 119.127973 
L 407.530938 119.127973 
" clip-path="url(#pb090c745ab)" style="fill: none; stroke-dasharray: 5.55,2.4; stroke-dashoffset: 0; stroke: #000000; stroke-opacity: 0.4; stroke-width: 1.5"/>
   </g>
   <g id="patch_3">
    <path d="M 50.410938 273.312 
L 50.410938 7.2 
" style="fill: none; stroke: #000000; stroke-width: 0.8; stroke-linejoin: miter; stroke-linecap: square"/>
   </g>
   <g id="patch_4">
    <path d="M 407.530938 273.312 
L 407.530938 7.2 
" style="fill: none; stroke: #000000; stroke-width: 0.8; stroke-linejoin: miter; stroke-linecap: square"/>
   </g>
   <g id="patch_5">
    <path d="M 50.410937 273.312 
L 407.530938 273.312 
" style="fill: none; stroke: #000000; stroke-width: 0.8; stroke-linejoin: miter; stroke-linecap: square"/>
   </g>
   <g id="patch_6">
    <path d="M 50.410937 7.2 
L 407.530938 7.2 
" style="fill: none; stroke: #000000; stroke-width: 0.8; stroke-linejoin: miter; stroke-linecap: square"/>
   </g>
   <g id="legend_1">
    <g id="patch_7">
     <path d="M 334.37 44.55625 
L 400.530938 44.55625 
Q 402.530938 44.55625 402.530938 42.55625 
L 402.530938 14.2 
Q 402.530938 12.2 400.530938 12.2 
L 334.37 12.2 
Q 332.37 12.2 332.37 14.2 
L 332.37 42.55625 
Q 332.37 44.55625 334.37 44.55625 
z
" style="fill: #ffffff; opacity: 0.8; stroke: #cccccc; stroke-linejoin: miter"/>
    </g>
    <g id="line2d_19">
     <path d="M 336.37 20.298437 
L 346.37 20.298437 
L 356.37 20.298437 
" style="fill: none; stroke: #ff7f0e; stroke-width: 1.5; stroke-linecap: square"/>
    </g>
    <g id="text_19">
     <!-- Mean -->
     <g transform="translate(364.37 23.798437) scale(0.1 -0.1)">
      <defs>
       <path id="DejaVuSans-4d" d="M 628 4666 
L 1569 4666 
L 2759 1491 
L 3956 4666 
L 4897 4666 
L 4897 0 
L 4281 0 
L 4281 4097 
L 3078 897 
L 2444 897 
L 1241 4097 
L 1241 0 
L 628 0 
L 628 4666 
z
" transform="scale(0.015625)"/>
       <path id="DejaVuSans-61" d="M 2194 1759 
Q 1497 1759 1228 1600 
Q 959 1441 959 1056 
Q 959 750 1161 570 
Q 1363 391 1709 391 
Q 2188 391 2477 730 
Q 2766 1069 2766 1631 
L 2766 1759 
L 2194 1759 
z
M 3341 1997 
L 3341 0 
L 2766 0 
L 2766 531 
Q 2569 213 2275 61 
Q 1981 -91 1556 -91 
Q 1019 -91 701 211 
Q 384 513 384 1019 
Q 384 1609 779 1909 
Q 1175 2209 1959 2209 
L 2766 2209 
L 2766 2266 
Q 2766 2663 2505 2880 
Q 2244 3097 1772 3097 
Q 1472 3097 1187 3025 
Q 903 2953 641 2809 
L 641 3341 
Q 956 3463 1253 3523 
Q 1550 3584 1831 3584 
Q 2591 3584 2966 3190 
Q 3341 2797 3341 1997 
z
" transform="scale(0.015625)"/>
      </defs>
      <use xlink:href="#DejaVuSans-4d"/>
      <use xlink:href="#DejaVuSans-65" transform="translate(86.279297 0)"/>
      <use xlink:href="#DejaVuSans-61" transform="translate(147.802734 0)"/>
      <use xlink:href="#DejaVuSans-6e" transform="translate(209.082031 0)"/>
     </g>
    </g>
    <g id="patch_8">
     <path d="M 336.37 38.476562 
L 356.37 38.476562 
L 356.37 31.476562 
L 336.37 31.476562 
z
" style="fill: #ff7f0e; fill-opacity: 0.3; stroke: #ff7f0e; stroke-opacity: 0.3; stroke-linejoin: miter"/>
    </g>
    <g id="text_20">
     <!-- Std Err -->
     <g transform="translate(364.37 38.476562) scale(0.1 -0.1)">
      <defs>
       <path id="DejaVuSans-53" d="M 3425 4513 
L 3425 3897 
Q 3066 4069 2747 4153 
Q 2428 4238 2131 4238 
Q 1616 4238 1336 4038 
Q 1056 3838 1056 3469 
Q 1056 3159 1242 3001 
Q 1428 2844 1947 2747 
L 2328 2669 
Q 3034 2534 3370 2195 
Q 3706 1856 3706 1288 
Q 3706 609 3251 259 
Q 2797 -91 1919 -91 
Q 1588 -91 1214 -16 
Q 841 59 441 206 
L 441 856 
Q 825 641 1194 531 
Q 1563 422 1919 422 
Q 2459 422 2753 634 
Q 3047 847 3047 1241 
Q 3047 1584 2836 1778 
Q 2625 1972 2144 2069 
L 1759 2144 
Q 1053 2284 737 2584 
Q 422 2884 422 3419 
Q 422 4038 858 4394 
Q 1294 4750 2059 4750 
Q 2388 4750 2728 4690 
Q 3069 4631 3425 4513 
z
" transform="scale(0.015625)"/>
       <path id="DejaVuSans-45" d="M 628 4666 
L 3578 4666 
L 3578 4134 
L 1259 4134 
L 1259 2753 
L 3481 2753 
L 3481 2222 
L 1259 2222 
L 1259 531 
L 3634 531 
L 3634 0 
L 628 0 
L 628 4666 
z
" transform="scale(0.015625)"/>
      </defs>
      <use xlink:href="#DejaVuSans-53"/>
      <use xlink:href="#DejaVuSans-74" transform="translate(63.476562 0)"/>
      <use xlink:href="#DejaVuSans-64" transform="translate(102.685547 0)"/>
      <use xlink:href="#DejaVuSans-20" transform="translate(166.162109 0)"/>
      <use xlink:href="#DejaVuSans-45" transform="translate(197.949219 0)"/>
      <use xlink:href="#DejaVuSans-72" transform="translate(261.132812 0)"/>
      <use xlink:href="#DejaVuSans-72" transform="translate(300.496094 0)"/>
     </g>
    </g>
   </g>
  </g>
 </g>
 <defs>
  <clipPath id="pb090c745ab">
   <rect x="50.410938" y="7.2" width="357.12" height="266.112"/>
  </clipPath>
 </defs>
</svg>
