<?xml version="1.0" encoding="utf-8" standalone="no"?>
<!DOCTYPE svg PUBLIC "-//W3C//DTD SVG 1.1//EN"
  "http://www.w3.org/Graphics/SVG/1.1/DTD/svg11.dtd">
<svg xmlns:xlink="http://www.w3.org/1999/xlink" width="414.730937pt" height="314.389815pt" viewBox="0 0 414.730937 314.389815" xmlns="http://www.w3.org/2000/svg" version="1.1">
 <metadata>
  <rdf:RDF xmlns:dc="http://purl.org/dc/elements/1.1/" xmlns:cc="http://creativecommons.org/ns#" xmlns:rdf="http://www.w3.org/1999/02/22-rdf-syntax-ns#">
   <cc:Work>
    <dc:type rdf:resource="http://purl.org/dc/dcmitype/StillImage"/>
    <dc:date>2025-12-10T20:29:43.204078</dc:date>
    <dc:format>image/svg+xml</dc:format>
    <dc:creator>
     <cc:Agent>
      <dc:title>Matplotlib v3.10.5, https://matplotlib.org/</dc:title>
     </cc:Agent>
    </dc:creator>
   </cc:Work>
  </rdf:RDF>
 </metadata>
 <defs>
  <style type="text/css">*{stroke-linejoin: round; stroke-linecap: butt}</style>
 </defs>
 <g id="figure_1">
  <g id="patch_1">
   <path d="M 0 314.389815 
L 414.730937 314.389815 
L 414.730937 0 
L 0 0 
z
" style="fill: #ffffff"/>
  </g>
  <g id="axes_1">
   <g id="patch_2">
    <path d="M 50.410938 276.55544 
L 407.530938 276.55544 
L 407.530938 10.44344 
L 50.410938 10.44344 
z
" style="fill: #ffffff"/>
   </g>
   <g id="FillBetweenPolyCollection_1">
    <defs>
     <path id="m6d5f3b5c79" d="M 66.643665 -49.930375 
L 66.643665 -49.930375 
L 68.477871 -49.930375 
L 70.312078 -49.930375 
L 72.146284 -49.930375 
L 73.980491 -49.930375 
L 75.814697 -49.930375 
L 77.648904 -49.930375 
L 79.48311 -49.930375 
L 81.317317 -49.930375 
L 83.151523 -49.930375 
L 84.985729 -49.930375 
L 86.819936 -49.930375 
L 88.654142 -49.930375 
L 90.488349 -54.635338 
L 92.322555 -49.930375 
L 94.156762 -49.930375 
L 95.990968 -49.930375 
L 97.825175 -53.282526 
L 99.659381 -63.148476 
L 101.493588 -56.245115 
L 103.327794 -49.930375 
L 105.162001 -49.930375 
L 106.996207 -63.388101 
L 108.830414 -53.578985 
L 110.66462 -54.655647 
L 112.498827 -49.930375 
L 114.333033 -52.856824 
L 116.16724 -49.930375 
L 118.001446 -63.530945 
L 119.835652 -61.88042 
L 121.669859 -55.788939 
L 123.504065 -49.930375 
L 125.338272 -57.862612 
L 127.172478 -49.930375 
L 129.006685 -62.086446 
L 130.840891 -53.927164 
L 132.675098 -58.318159 
L 134.509304 -49.930375 
L 136.343511 -58.000377 
L 138.177717 -49.930375 
L 140.011924 -52.76145 
L 141.84613 -56.549766 
L 143.680337 -51.899182 
L 145.514543 -78.856963 
L 147.34875 -70.550278 
L 149.182956 -88.519372 
L 151.017162 -131.529759 
L 152.851369 -160.752264 
L 154.685575 -154.074513 
L 156.519782 -221.988253 
L 158.353988 -227.709963 
L 160.188195 -219.82063 
L 162.022401 -217.772644 
L 163.856608 -225.244528 
L 165.690814 -244.494348 
L 167.525021 -205.201375 
L 169.359227 -239.950495 
L 171.193434 -247.278223 
L 173.02764 -236.14991 
L 174.861847 -222.325833 
L 176.696053 -234.817709 
L 178.53026 -190.272991 
L 180.364466 -215.289647 
L 182.198672 -204.416216 
L 184.032879 -182.088755 
L 185.867085 -213.895345 
L 187.701292 -196.390322 
L 189.535498 -214.863197 
L 191.369705 -181.742247 
L 193.203911 -188.899531 
L 195.038118 -214.880187 
L 196.872324 -157.292648 
L 198.706531 -156.328201 
L 200.540737 -167.461082 
L 202.374944 -150.45575 
L 204.20915 -149.676018 
L 206.043357 -139.663694 
L 207.877563 -149.689649 
L 209.71177 -147.931844 
L 211.545976 -179.293178 
L 213.380182 -148.765864 
L 215.214389 -158.92356 
L 217.048595 -153.208277 
L 218.882802 -151.462898 
L 220.717008 -164.870072 
L 222.551215 -140.573126 
L 224.385421 -142.491219 
L 226.219628 -170.075869 
L 228.053834 -167.569426 
L 229.888041 -157.831581 
L 231.722247 -146.066744 
L 233.556454 -168.139299 
L 235.39066 -161.370857 
L 237.224867 -154.868071 
L 239.059073 -155.258557 
L 240.89328 -183.079313 
L 242.727486 -160.820297 
L 244.561693 -155.644704 
L 246.395899 -158.506631 
L 248.230105 -153.01608 
L 250.064312 -162.04882 
L 251.898518 -156.826704 
L 253.732725 -151.154349 
L 255.566931 -159.2572 
L 257.401138 -166.732323 
L 259.235344 -158.112067 
L 261.069551 -165.843584 
L 262.903757 -199.216487 
L 264.737964 -169.58123 
L 266.57217 -194.036354 
L 268.406377 -169.588687 
L 270.240583 -161.567169 
L 272.07479 -193.178261 
L 273.908996 -179.994314 
L 275.743203 -153.553718 
L 277.577409 -182.170804 
L 279.411615 -182.075393 
L 281.245822 -160.439 
L 283.080028 -161.334064 
L 284.914235 -183.504449 
L 286.748441 -178.332912 
L 288.582648 -155.275328 
L 290.416854 -177.053326 
L 292.251061 -195.070709 
L 294.085267 -189.534983 
L 295.919474 -154.223708 
L 297.75368 -169.646943 
L 299.587887 -161.147264 
L 301.422093 -197.584379 
L 303.2563 -170.632151 
L 305.090506 -163.517288 
L 306.924713 -183.382921 
L 308.758919 -174.819532 
L 310.593125 -200.447046 
L 312.427332 -165.743825 
L 314.261538 -168.062791 
L 316.095745 -162.729097 
L 317.929951 -176.658211 
L 319.764158 -161.565088 
L 321.598364 -174.457835 
L 323.432571 -172.487781 
L 325.266777 -170.781393 
L 327.100984 -176.047782 
L 328.93519 -172.763456 
L 330.769397 -179.138199 
L 332.603603 -182.119744 
L 334.43781 -153.683818 
L 336.272016 -165.740034 
L 338.106223 -172.947738 
L 339.940429 -151.878236 
L 341.774635 -183.422571 
L 343.608842 -155.001716 
L 345.443048 -182.477057 
L 347.277255 -169.328738 
L 349.111461 -185.630208 
L 350.945668 -147.188186 
L 352.779874 -188.11034 
L 354.614081 -184.181306 
L 356.448287 -179.284555 
L 358.282494 -162.817031 
L 360.1167 -179.15432 
L 361.950907 -154.214236 
L 363.785113 -151.804378 
L 365.61932 -157.862282 
L 367.453526 -176.987965 
L 369.287733 -163.246303 
L 371.121939 -159.43197 
L 372.956146 -151.782602 
L 374.790352 -169.775079 
L 376.624558 -162.133954 
L 378.458765 -168.085439 
L 380.292971 -176.295516 
L 382.127178 -150.648676 
L 383.961384 -167.916797 
L 385.795591 -156.177572 
L 387.629797 -170.734869 
L 389.464004 -149.062772 
L 391.29821 -165.965496 
L 391.29821 -180.283507 
L 391.29821 -180.283507 
L 389.464004 -167.283042 
L 387.629797 -198.613996 
L 385.795591 -168.445876 
L 383.961384 -188.555267 
L 382.127178 -176.407856 
L 380.292971 -187.490113 
L 378.458765 -172.972239 
L 376.624558 -181.475152 
L 374.790352 -189.801968 
L 372.956146 -182.084657 
L 371.121939 -193.582103 
L 369.287733 -201.4917 
L 367.453526 -194.038565 
L 365.61932 -188.829634 
L 363.785113 -187.348893 
L 361.950907 -178.018125 
L 360.1167 -189.88526 
L 358.282494 -190.55157 
L 356.448287 -197.115604 
L 354.614081 -194.262852 
L 352.779874 -196.940384 
L 350.945668 -169.049348 
L 349.111461 -202.075474 
L 347.277255 -195.748471 
L 345.443048 -205.004286 
L 343.608842 -179.480474 
L 341.774635 -199.572295 
L 339.940429 -185.545767 
L 338.106223 -180.081056 
L 336.272016 -189.285939 
L 334.43781 -170.821823 
L 332.603603 -193.832762 
L 330.769397 -204.198943 
L 328.93519 -212.48338 
L 327.100984 -196.950333 
L 325.266777 -199.547834 
L 323.432571 -202.331717 
L 321.598364 -182.732973 
L 319.764158 -172.862045 
L 317.929951 -192.32425 
L 316.095745 -193.599977 
L 314.261538 -192.27833 
L 312.427332 -188.517718 
L 310.593125 -224.269292 
L 308.758919 -210.53846 
L 306.924713 -192.011795 
L 305.090506 -184.376069 
L 303.2563 -191.092818 
L 301.422093 -217.599417 
L 299.587887 -177.065029 
L 297.75368 -185.662229 
L 295.919474 -184.442957 
L 294.085267 -205.048681 
L 292.251061 -221.838434 
L 290.416854 -213.666334 
L 288.582648 -176.512753 
L 286.748441 -204.856657 
L 284.914235 -196.486072 
L 283.080028 -179.496943 
L 281.245822 -179.021441 
L 279.411615 -208.037653 
L 277.577409 -199.14154 
L 275.743203 -179.133597 
L 273.908996 -191.252535 
L 272.07479 -228.881343 
L 270.240583 -191.375953 
L 268.406377 -191.351702 
L 266.57217 -208.998633 
L 264.737964 -204.345475 
L 262.903757 -230.358709 
L 261.069551 -200.599548 
L 259.235344 -189.331805 
L 257.401138 -213.909109 
L 255.566931 -183.093901 
L 253.732725 -161.73938 
L 251.898518 -186.45676 
L 250.064312 -179.12846 
L 248.230105 -186.939155 
L 246.395899 -191.027632 
L 244.561693 -200.036331 
L 242.727486 -192.526899 
L 240.89328 -223.736915 
L 239.059073 -190.564351 
L 237.224867 -171.675775 
L 235.39066 -197.887141 
L 233.556454 -205.642743 
L 231.722247 -186.654705 
L 229.888041 -169.974376 
L 228.053834 -198.001326 
L 226.219628 -196.584098 
L 224.385421 -185.633122 
L 222.551215 -168.41174 
L 220.717008 -181.429692 
L 218.882802 -167.041871 
L 217.048595 -171.078674 
L 215.214389 -169.296348 
L 213.380182 -162.747373 
L 211.545976 -194.509385 
L 209.71177 -169.929196 
L 207.877563 -166.981088 
L 206.043357 -163.163658 
L 204.20915 -176.870559 
L 202.374944 -176.107015 
L 200.540737 -185.242856 
L 198.706531 -188.100993 
L 196.872324 -191.323222 
L 195.038118 -225.475633 
L 193.203911 -211.06279 
L 191.369705 -229.265176 
L 189.535498 -249.141028 
L 187.701292 -234.207296 
L 185.867085 -236.70567 
L 184.032879 -213.278987 
L 182.198672 -231.302035 
L 180.364466 -262.743606 
L 178.53026 -229.745626 
L 176.696053 -291.850375 
L 174.861847 -238.306842 
L 173.02764 -266.431144 
L 171.193434 -259.420188 
L 169.359227 -276.380586 
L 167.525021 -243.041414 
L 165.690814 -276.252913 
L 163.856608 -268.522445 
L 162.022401 -252.244912 
L 160.188195 -247.197077 
L 158.353988 -257.409355 
L 156.519782 -241.320567 
L 154.685575 -181.121945 
L 152.851369 -181.521072 
L 151.017162 -139.891688 
L 149.182956 -106.99667 
L 147.34875 -84.534686 
L 145.514543 -106.82648 
L 143.680337 -78.475498 
L 141.84613 -79.26415 
L 140.011924 -86.961523 
L 138.177717 -75.143889 
L 136.343511 -112.086474 
L 134.509304 -121.900542 
L 132.675098 -73.045421 
L 130.840891 -86.5816 
L 129.006685 -94.373601 
L 127.172478 -71.778495 
L 125.338272 -115.081301 
L 123.504065 -69.886883 
L 121.669859 -66.747899 
L 119.835652 -91.309365 
L 118.001446 -83.848727 
L 116.16724 -66.83107 
L 114.333033 -70.294847 
L 112.498827 -89.348234 
L 110.66462 -123.016955 
L 108.830414 -65.678839 
L 106.996207 -111.402095 
L 105.162001 -62.124675 
L 103.327794 -85.436166 
L 101.493588 -86.744392 
L 99.659381 -110.220578 
L 97.825175 -72.952026 
L 95.990968 -101.627275 
L 94.156762 -72.835662 
L 92.322555 -69.518345 
L 90.488349 -69.501101 
L 88.654142 -49.930375 
L 86.819936 -58.102466 
L 84.985729 -72.062237 
L 83.151523 -70.314985 
L 81.317317 -49.930375 
L 79.48311 -49.930375 
L 77.648904 -49.930375 
L 75.814697 -92.182112 
L 73.980491 -86.343909 
L 72.146284 -116.325961 
L 70.312078 -142.884196 
L 68.477871 -179.032904 
L 66.643665 -49.930375 
z
" style="stroke: #ff7f0e; stroke-opacity: 0.3"/>
    </defs>
    <g clip-path="url(#pd151db0fc8)">
     <use xlink:href="#m6d5f3b5c79" x="0" y="314.389815" style="fill: #ff7f0e; fill-opacity: 0.3; stroke: #ff7f0e; stroke-opacity: 0.3"/>
    </g>
   </g>
   <g id="matplotlib.axis_1">
    <g id="xtick_1">
     <g id="line2d_1">
      <defs>
       <path id="m50cd9e5475" d="M 0 0 
L 0 3.5 
" style="stroke: #000000; stroke-width: 0.8"/>
      </defs>
      <g>
       <use xlink:href="#m50cd9e5475" x="65.726562" y="276.55544" style="stroke: #000000; stroke-width: 0.8"/>
      </g>
     </g>
     <g id="text_1">
      <!-- 0.0 -->
      <g transform="translate(57.774999 291.153877) scale(0.1 -0.1)">
       <defs>
        <path id="DejaVuSans-30" d="M 2034 4250 
Q 1547 4250 1301 3770 
Q 1056 3291 1056 2328 
Q 1056 1369 1301 889 
Q 1547 409 2034 409 
Q 2525 409 2770 889 
Q 3016 1369 3016 2328 
Q 3016 3291 2770 3770 
Q 2525 4250 2034 4250 
z
M 2034 4750 
Q 2819 4750 3233 4129 
Q 3647 3509 3647 2328 
Q 3647 1150 3233 529 
Q 2819 -91 2034 -91 
Q 1250 -91 836 529 
Q 422 1150 422 2328 
Q 422 3509 836 4129 
Q 1250 4750 2034 4750 
z
" transform="scale(0.015625)"/>
        <path id="DejaVuSans-2e" d="M 684 794 
L 1344 794 
L 1344 0 
L 684 0 
L 684 794 
z
" transform="scale(0.015625)"/>
       </defs>
       <use xlink:href="#DejaVuSans-30"/>
       <use xlink:href="#DejaVuSans-2e" transform="translate(63.623047 0)"/>
       <use xlink:href="#DejaVuSans-30" transform="translate(95.410156 0)"/>
      </g>
     </g>
    </g>
    <g id="xtick_2">
     <g id="line2d_2">
      <g>
       <use xlink:href="#m50cd9e5475" x="111.581723" y="276.55544" style="stroke: #000000; stroke-width: 0.8"/>
      </g>
     </g>
     <g id="text_2">
      <!-- 0.5 -->
      <g transform="translate(103.630161 291.153877) scale(0.1 -0.1)">
       <defs>
        <path id="DejaVuSans-35" d="M 691 4666 
L 3169 4666 
L 3169 4134 
L 1269 4134 
L 1269 2991 
Q 1406 3038 1543 3061 
Q 1681 3084 1819 3084 
Q 2600 3084 3056 2656 
Q 3513 2228 3513 1497 
Q 3513 744 3044 326 
Q 2575 -91 1722 -91 
Q 1428 -91 1123 -41 
Q 819 9 494 109 
L 494 744 
Q 775 591 1075 516 
Q 1375 441 1709 441 
Q 2250 441 2565 725 
Q 2881 1009 2881 1497 
Q 2881 1984 2565 2268 
Q 2250 2553 1709 2553 
Q 1456 2553 1204 2497 
Q 953 2441 691 2322 
L 691 4666 
z
" transform="scale(0.015625)"/>
       </defs>
       <use xlink:href="#DejaVuSans-30"/>
       <use xlink:href="#DejaVuSans-2e" transform="translate(63.623047 0)"/>
       <use xlink:href="#DejaVuSans-35" transform="translate(95.410156 0)"/>
      </g>
     </g>
    </g>
    <g id="xtick_3">
     <g id="line2d_3">
      <g>
       <use xlink:href="#m50cd9e5475" x="157.436885" y="276.55544" style="stroke: #000000; stroke-width: 0.8"/>
      </g>
     </g>
     <g id="text_3">
      <!-- 1.0 -->
      <g transform="translate(149.485323 291.153877) scale(0.1 -0.1)">
       <defs>
        <path id="DejaVuSans-31" d="M 794 531 
L 1825 531 
L 1825 4091 
L 703 3866 
L 703 4441 
L 1819 4666 
L 2450 4666 
L 2450 531 
L 3481 531 
L 3481 0 
L 794 0 
L 794 531 
z
" transform="scale(0.015625)"/>
       </defs>
       <use xlink:href="#DejaVuSans-31"/>
       <use xlink:href="#DejaVuSans-2e" transform="translate(63.623047 0)"/>
       <use xlink:href="#DejaVuSans-30" transform="translate(95.410156 0)"/>
      </g>
     </g>
    </g>
    <g id="xtick_4">
     <g id="line2d_4">
      <g>
       <use xlink:href="#m50cd9e5475" x="203.292047" y="276.55544" style="stroke: #000000; stroke-width: 0.8"/>
      </g>
     </g>
     <g id="text_4">
      <!-- 1.5 -->
      <g transform="translate(195.340484 291.153877) scale(0.1 -0.1)">
       <use xlink:href="#DejaVuSans-31"/>
       <use xlink:href="#DejaVuSans-2e" transform="translate(63.623047 0)"/>
       <use xlink:href="#DejaVuSans-35" transform="translate(95.410156 0)"/>
      </g>
     </g>
    </g>
    <g id="xtick_5">
     <g id="line2d_5">
      <g>
       <use xlink:href="#m50cd9e5475" x="249.147209" y="276.55544" style="stroke: #000000; stroke-width: 0.8"/>
      </g>
     </g>
     <g id="text_5">
      <!-- 2.0 -->
      <g transform="translate(241.195646 291.153877) scale(0.1 -0.1)">
       <defs>
        <path id="DejaVuSans-32" d="M 1228 531 
L 3431 531 
L 3431 0 
L 469 0 
L 469 531 
Q 828 903 1448 1529 
Q 2069 2156 2228 2338 
Q 2531 2678 2651 2914 
Q 2772 3150 2772 3378 
Q 2772 3750 2511 3984 
Q 2250 4219 1831 4219 
Q 1534 4219 1204 4116 
Q 875 4013 500 3803 
L 500 4441 
Q 881 4594 1212 4672 
Q 1544 4750 1819 4750 
Q 2544 4750 2975 4387 
Q 3406 4025 3406 3419 
Q 3406 3131 3298 2873 
Q 3191 2616 2906 2266 
Q 2828 2175 2409 1742 
Q 1991 1309 1228 531 
z
" transform="scale(0.015625)"/>
       </defs>
       <use xlink:href="#DejaVuSans-32"/>
       <use xlink:href="#DejaVuSans-2e" transform="translate(63.623047 0)"/>
       <use xlink:href="#DejaVuSans-30" transform="translate(95.410156 0)"/>
      </g>
     </g>
    </g>
    <g id="xtick_6">
     <g id="line2d_6">
      <g>
       <use xlink:href="#m50cd9e5475" x="295.00237" y="276.55544" style="stroke: #000000; stroke-width: 0.8"/>
      </g>
     </g>
     <g id="text_6">
      <!-- 2.5 -->
      <g transform="translate(287.050808 291.153877) scale(0.1 -0.1)">
       <use xlink:href="#DejaVuSans-32"/>
       <use xlink:href="#DejaVuSans-2e" transform="translate(63.623047 0)"/>
       <use xlink:href="#DejaVuSans-35" transform="translate(95.410156 0)"/>
      </g>
     </g>
    </g>
    <g id="xtick_7">
     <g id="line2d_7">
      <g>
       <use xlink:href="#m50cd9e5475" x="340.857532" y="276.55544" style="stroke: #000000; stroke-width: 0.8"/>
      </g>
     </g>
     <g id="text_7">
      <!-- 3.0 -->
      <g transform="translate(332.90597 291.153877) scale(0.1 -0.1)">
       <defs>
        <path id="DejaVuSans-33" d="M 2597 2516 
Q 3050 2419 3304 2112 
Q 3559 1806 3559 1356 
Q 3559 666 3084 287 
Q 2609 -91 1734 -91 
Q 1441 -91 1130 -33 
Q 819 25 488 141 
L 488 750 
Q 750 597 1062 519 
Q 1375 441 1716 441 
Q 2309 441 2620 675 
Q 2931 909 2931 1356 
Q 2931 1769 2642 2001 
Q 2353 2234 1838 2234 
L 1294 2234 
L 1294 2753 
L 1863 2753 
Q 2328 2753 2575 2939 
Q 2822 3125 2822 3475 
Q 2822 3834 2567 4026 
Q 2313 4219 1838 4219 
Q 1578 4219 1281 4162 
Q 984 4106 628 3988 
L 628 4550 
Q 988 4650 1302 4700 
Q 1616 4750 1894 4750 
Q 2613 4750 3031 4423 
Q 3450 4097 3450 3541 
Q 3450 3153 3228 2886 
Q 3006 2619 2597 2516 
z
" transform="scale(0.015625)"/>
       </defs>
       <use xlink:href="#DejaVuSans-33"/>
       <use xlink:href="#DejaVuSans-2e" transform="translate(63.623047 0)"/>
       <use xlink:href="#DejaVuSans-30" transform="translate(95.410156 0)"/>
      </g>
     </g>
    </g>
    <g id="xtick_8">
     <g id="line2d_8">
      <g>
       <use xlink:href="#m50cd9e5475" x="386.712694" y="276.55544" style="stroke: #000000; stroke-width: 0.8"/>
      </g>
     </g>
     <g id="text_8">
      <!-- 3.5 -->
      <g transform="translate(378.761132 291.153877) scale(0.1 -0.1)">
       <use xlink:href="#DejaVuSans-33"/>
       <use xlink:href="#DejaVuSans-2e" transform="translate(63.623047 0)"/>
       <use xlink:href="#DejaVuSans-35" transform="translate(95.410156 0)"/>
      </g>
     </g>
    </g>
    <g id="text_9">
     <!-- r_xy (reduced units) -->
     <g transform="translate(178.763125 304.832002) scale(0.1 -0.1)">
      <defs>
       <path id="DejaVuSans-72" d="M 2631 2963 
Q 2534 3019 2420 3045 
Q 2306 3072 2169 3072 
Q 1681 3072 1420 2755 
Q 1159 2438 1159 1844 
L 1159 0 
L 581 0 
L 581 3500 
L 1159 3500 
L 1159 2956 
Q 1341 3275 1631 3429 
Q 1922 3584 2338 3584 
Q 2397 3584 2469 3576 
Q 2541 3569 2628 3553 
L 2631 2963 
z
" transform="scale(0.015625)"/>
       <path id="DejaVuSans-5f" d="M 3263 -1063 
L 3263 -1509 
L -63 -1509 
L -63 -1063 
L 3263 -1063 
z
" transform="scale(0.015625)"/>
       <path id="DejaVuSans-78" d="M 3513 3500 
L 2247 1797 
L 3578 0 
L 2900 0 
L 1881 1375 
L 863 0 
L 184 0 
L 1544 1831 
L 300 3500 
L 978 3500 
L 1906 2253 
L 2834 3500 
L 3513 3500 
z
" transform="scale(0.015625)"/>
       <path id="DejaVuSans-79" d="M 2059 -325 
Q 1816 -950 1584 -1140 
Q 1353 -1331 966 -1331 
L 506 -1331 
L 506 -850 
L 844 -850 
Q 1081 -850 1212 -737 
Q 1344 -625 1503 -206 
L 1606 56 
L 191 3500 
L 800 3500 
L 1894 763 
L 2988 3500 
L 3597 3500 
L 2059 -325 
z
" transform="scale(0.015625)"/>
       <path id="DejaVuSans-20" transform="scale(0.015625)"/>
       <path id="DejaVuSans-28" d="M 1984 4856 
Q 1566 4138 1362 3434 
Q 1159 2731 1159 2009 
Q 1159 1288 1364 580 
Q 1569 -128 1984 -844 
L 1484 -844 
Q 1016 -109 783 600 
Q 550 1309 550 2009 
Q 550 2706 781 3412 
Q 1013 4119 1484 4856 
L 1984 4856 
z
" transform="scale(0.015625)"/>
       <path id="DejaVuSans-65" d="M 3597 1894 
L 3597 1613 
L 953 1613 
Q 991 1019 1311 708 
Q 1631 397 2203 397 
Q 2534 397 2845 478 
Q 3156 559 3463 722 
L 3463 178 
Q 3153 47 2828 -22 
Q 2503 -91 2169 -91 
Q 1331 -91 842 396 
Q 353 884 353 1716 
Q 353 2575 817 3079 
Q 1281 3584 2069 3584 
Q 2775 3584 3186 3129 
Q 3597 2675 3597 1894 
z
M 3022 2063 
Q 3016 2534 2758 2815 
Q 2500 3097 2075 3097 
Q 1594 3097 1305 2825 
Q 1016 2553 972 2059 
L 3022 2063 
z
" transform="scale(0.015625)"/>
       <path id="DejaVuSans-64" d="M 2906 2969 
L 2906 4863 
L 3481 4863 
L 3481 0 
L 2906 0 
L 2906 525 
Q 2725 213 2448 61 
Q 2172 -91 1784 -91 
Q 1150 -91 751 415 
Q 353 922 353 1747 
Q 353 2572 751 3078 
Q 1150 3584 1784 3584 
Q 2172 3584 2448 3432 
Q 2725 3281 2906 2969 
z
M 947 1747 
Q 947 1113 1208 752 
Q 1469 391 1925 391 
Q 2381 391 2643 752 
Q 2906 1113 2906 1747 
Q 2906 2381 2643 2742 
Q 2381 3103 1925 3103 
Q 1469 3103 1208 2742 
Q 947 2381 947 1747 
z
" transform="scale(0.015625)"/>
       <path id="DejaVuSans-75" d="M 544 1381 
L 544 3500 
L 1119 3500 
L 1119 1403 
Q 1119 906 1312 657 
Q 1506 409 1894 409 
Q 2359 409 2629 706 
Q 2900 1003 2900 1516 
L 2900 3500 
L 3475 3500 
L 3475 0 
L 2900 0 
L 2900 538 
Q 2691 219 2414 64 
Q 2138 -91 1772 -91 
Q 1169 -91 856 284 
Q 544 659 544 1381 
z
M 1991 3584 
L 1991 3584 
z
" transform="scale(0.015625)"/>
       <path id="DejaVuSans-63" d="M 3122 3366 
L 3122 2828 
Q 2878 2963 2633 3030 
Q 2388 3097 2138 3097 
Q 1578 3097 1268 2742 
Q 959 2388 959 1747 
Q 959 1106 1268 751 
Q 1578 397 2138 397 
Q 2388 397 2633 464 
Q 2878 531 3122 666 
L 3122 134 
Q 2881 22 2623 -34 
Q 2366 -91 2075 -91 
Q 1284 -91 818 406 
Q 353 903 353 1747 
Q 353 2603 823 3093 
Q 1294 3584 2113 3584 
Q 2378 3584 2631 3529 
Q 2884 3475 3122 3366 
z
" transform="scale(0.015625)"/>
       <path id="DejaVuSans-6e" d="M 3513 2113 
L 3513 0 
L 2938 0 
L 2938 2094 
Q 2938 2591 2744 2837 
Q 2550 3084 2163 3084 
Q 1697 3084 1428 2787 
Q 1159 2491 1159 1978 
L 1159 0 
L 581 0 
L 581 3500 
L 1159 3500 
L 1159 2956 
Q 1366 3272 1645 3428 
Q 1925 3584 2291 3584 
Q 2894 3584 3203 3211 
Q 3513 2838 3513 2113 
z
" transform="scale(0.015625)"/>
       <path id="DejaVuSans-69" d="M 603 3500 
L 1178 3500 
L 1178 0 
L 603 0 
L 603 3500 
z
M 603 4863 
L 1178 4863 
L 1178 4134 
L 603 4134 
L 603 4863 
z
" transform="scale(0.015625)"/>
       <path id="DejaVuSans-74" d="M 1172 4494 
L 1172 3500 
L 2356 3500 
L 2356 3053 
L 1172 3053 
L 1172 1153 
Q 1172 725 1289 603 
Q 1406 481 1766 481 
L 2356 481 
L 2356 0 
L 1766 0 
Q 1100 0 847 248 
Q 594 497 594 1153 
L 594 3053 
L 172 3053 
L 172 3500 
L 594 3500 
L 594 4494 
L 1172 4494 
z
" transform="scale(0.015625)"/>
       <path id="DejaVuSans-73" d="M 2834 3397 
L 2834 2853 
Q 2591 2978 2328 3040 
Q 2066 3103 1784 3103 
Q 1356 3103 1142 2972 
Q 928 2841 928 2578 
Q 928 2378 1081 2264 
Q 1234 2150 1697 2047 
L 1894 2003 
Q 2506 1872 2764 1633 
Q 3022 1394 3022 966 
Q 3022 478 2636 193 
Q 2250 -91 1575 -91 
Q 1294 -91 989 -36 
Q 684 19 347 128 
L 347 722 
Q 666 556 975 473 
Q 1284 391 1588 391 
Q 1994 391 2212 530 
Q 2431 669 2431 922 
Q 2431 1156 2273 1281 
Q 2116 1406 1581 1522 
L 1381 1569 
Q 847 1681 609 1914 
Q 372 2147 372 2553 
Q 372 3047 722 3315 
Q 1072 3584 1716 3584 
Q 2034 3584 2315 3537 
Q 2597 3491 2834 3397 
z
" transform="scale(0.015625)"/>
       <path id="DejaVuSans-29" d="M 513 4856 
L 1013 4856 
Q 1481 4119 1714 3412 
Q 1947 2706 1947 2009 
Q 1947 1309 1714 600 
Q 1481 -109 1013 -844 
L 513 -844 
Q 928 -128 1133 580 
Q 1338 1288 1338 2009 
Q 1338 2731 1133 3434 
Q 928 4138 513 4856 
z
" transform="scale(0.015625)"/>
      </defs>
      <use xlink:href="#DejaVuSans-72"/>
      <use xlink:href="#DejaVuSans-5f" transform="translate(41.113281 0)"/>
      <use xlink:href="#DejaVuSans-78" transform="translate(91.113281 0)"/>
      <use xlink:href="#DejaVuSans-79" transform="translate(150.292969 0)"/>
      <use xlink:href="#DejaVuSans-20" transform="translate(209.472656 0)"/>
      <use xlink:href="#DejaVuSans-28" transform="translate(241.259766 0)"/>
      <use xlink:href="#DejaVuSans-72" transform="translate(280.273438 0)"/>
      <use xlink:href="#DejaVuSans-65" transform="translate(319.136719 0)"/>
      <use xlink:href="#DejaVuSans-64" transform="translate(380.660156 0)"/>
      <use xlink:href="#DejaVuSans-75" transform="translate(444.136719 0)"/>
      <use xlink:href="#DejaVuSans-63" transform="translate(507.515625 0)"/>
      <use xlink:href="#DejaVuSans-65" transform="translate(562.496094 0)"/>
      <use xlink:href="#DejaVuSans-64" transform="translate(624.019531 0)"/>
      <use xlink:href="#DejaVuSans-20" transform="translate(687.496094 0)"/>
      <use xlink:href="#DejaVuSans-75" transform="translate(719.283203 0)"/>
      <use xlink:href="#DejaVuSans-6e" transform="translate(782.662109 0)"/>
      <use xlink:href="#DejaVuSans-69" transform="translate(846.041016 0)"/>
      <use xlink:href="#DejaVuSans-74" transform="translate(873.824219 0)"/>
      <use xlink:href="#DejaVuSans-73" transform="translate(913.033203 0)"/>
      <use xlink:href="#DejaVuSans-29" transform="translate(965.132812 0)"/>
     </g>
    </g>
   </g>
   <g id="matplotlib.axis_2">
    <g id="ytick_1">
     <g id="line2d_9">
      <defs>
       <path id="md32d17078a" d="M 0 0 
L -3.5 0 
" style="stroke: #000000; stroke-width: 0.8"/>
      </defs>
      <g>
       <use xlink:href="#md32d17078a" x="50.410938" y="264.45944" style="stroke: #000000; stroke-width: 0.8"/>
      </g>
     </g>
     <g id="text_10">
      <!-- 0.00 -->
      <g transform="translate(21.145313 268.258658) scale(0.1 -0.1)">
       <use xlink:href="#DejaVuSans-30"/>
       <use xlink:href="#DejaVuSans-2e" transform="translate(63.623047 0)"/>
       <use xlink:href="#DejaVuSans-30" transform="translate(95.410156 0)"/>
       <use xlink:href="#DejaVuSans-30" transform="translate(159.033203 0)"/>
      </g>
     </g>
    </g>
    <g id="ytick_2">
     <g id="line2d_10">
      <g>
       <use xlink:href="#md32d17078a" x="50.410938" y="232.776912" style="stroke: #000000; stroke-width: 0.8"/>
      </g>
     </g>
     <g id="text_11">
      <!-- 0.25 -->
      <g transform="translate(21.145313 236.576131) scale(0.1 -0.1)">
       <use xlink:href="#DejaVuSans-30"/>
       <use xlink:href="#DejaVuSans-2e" transform="translate(63.623047 0)"/>
       <use xlink:href="#DejaVuSans-32" transform="translate(95.410156 0)"/>
       <use xlink:href="#DejaVuSans-35" transform="translate(159.033203 0)"/>
      </g>
     </g>
    </g>
    <g id="ytick_3">
     <g id="line2d_11">
      <g>
       <use xlink:href="#md32d17078a" x="50.410938" y="201.094384" style="stroke: #000000; stroke-width: 0.8"/>
      </g>
     </g>
     <g id="text_12">
      <!-- 0.50 -->
      <g transform="translate(21.145313 204.893603) scale(0.1 -0.1)">
       <use xlink:href="#DejaVuSans-30"/>
       <use xlink:href="#DejaVuSans-2e" transform="translate(63.623047 0)"/>
       <use xlink:href="#DejaVuSans-35" transform="translate(95.410156 0)"/>
       <use xlink:href="#DejaVuSans-30" transform="translate(159.033203 0)"/>
      </g>
     </g>
    </g>
    <g id="ytick_4">
     <g id="line2d_12">
      <g>
       <use xlink:href="#md32d17078a" x="50.410938" y="169.411857" style="stroke: #000000; stroke-width: 0.8"/>
      </g>
     </g>
     <g id="text_13">
      <!-- 0.75 -->
      <g transform="translate(21.145313 173.211076) scale(0.1 -0.1)">
       <defs>
        <path id="DejaVuSans-37" d="M 525 4666 
L 3525 4666 
L 3525 4397 
L 1831 0 
L 1172 0 
L 2766 4134 
L 525 4134 
L 525 4666 
z
" transform="scale(0.015625)"/>
       </defs>
       <use xlink:href="#DejaVuSans-30"/>
       <use xlink:href="#DejaVuSans-2e" transform="translate(63.623047 0)"/>
       <use xlink:href="#DejaVuSans-37" transform="translate(95.410156 0)"/>
       <use xlink:href="#DejaVuSans-35" transform="translate(159.033203 0)"/>
      </g>
     </g>
    </g>
    <g id="ytick_5">
     <g id="line2d_13">
      <g>
       <use xlink:href="#md32d17078a" x="50.410938" y="137.729329" style="stroke: #000000; stroke-width: 0.8"/>
      </g>
     </g>
     <g id="text_14">
      <!-- 1.00 -->
      <g transform="translate(21.145313 141.528548) scale(0.1 -0.1)">
       <use xlink:href="#DejaVuSans-31"/>
       <use xlink:href="#DejaVuSans-2e" transform="translate(63.623047 0)"/>
       <use xlink:href="#DejaVuSans-30" transform="translate(95.410156 0)"/>
       <use xlink:href="#DejaVuSans-30" transform="translate(159.033203 0)"/>
      </g>
     </g>
    </g>
    <g id="ytick_6">
     <g id="line2d_14">
      <g>
       <use xlink:href="#md32d17078a" x="50.410938" y="106.046802" style="stroke: #000000; stroke-width: 0.8"/>
      </g>
     </g>
     <g id="text_15">
      <!-- 1.25 -->
      <g transform="translate(21.145313 109.84602) scale(0.1 -0.1)">
       <use xlink:href="#DejaVuSans-31"/>
       <use xlink:href="#DejaVuSans-2e" transform="translate(63.623047 0)"/>
       <use xlink:href="#DejaVuSans-32" transform="translate(95.410156 0)"/>
       <use xlink:href="#DejaVuSans-35" transform="translate(159.033203 0)"/>
      </g>
     </g>
    </g>
    <g id="ytick_7">
     <g id="line2d_15">
      <g>
       <use xlink:href="#md32d17078a" x="50.410938" y="74.364274" style="stroke: #000000; stroke-width: 0.8"/>
      </g>
     </g>
     <g id="text_16">
      <!-- 1.50 -->
      <g transform="translate(21.145313 78.163493) scale(0.1 -0.1)">
       <use xlink:href="#DejaVuSans-31"/>
       <use xlink:href="#DejaVuSans-2e" transform="translate(63.623047 0)"/>
       <use xlink:href="#DejaVuSans-35" transform="translate(95.410156 0)"/>
       <use xlink:href="#DejaVuSans-30" transform="translate(159.033203 0)"/>
      </g>
     </g>
    </g>
    <g id="ytick_8">
     <g id="line2d_16">
      <g>
       <use xlink:href="#md32d17078a" x="50.410938" y="42.681746" style="stroke: #000000; stroke-width: 0.8"/>
      </g>
     </g>
     <g id="text_17">
      <!-- 1.75 -->
      <g transform="translate(21.145313 46.480965) scale(0.1 -0.1)">
       <use xlink:href="#DejaVuSans-31"/>
       <use xlink:href="#DejaVuSans-2e" transform="translate(63.623047 0)"/>
       <use xlink:href="#DejaVuSans-37" transform="translate(95.410156 0)"/>
       <use xlink:href="#DejaVuSans-35" transform="translate(159.033203 0)"/>
      </g>
     </g>
    </g>
    <g id="ytick_9">
     <g id="line2d_17">
      <g>
       <use xlink:href="#md32d17078a" x="50.410938" y="10.999219" style="stroke: #000000; stroke-width: 0.8"/>
      </g>
     </g>
     <g id="text_18">
      <!-- 2.00 -->
      <g transform="translate(21.145313 14.798437) scale(0.1 -0.1)">
       <use xlink:href="#DejaVuSans-32"/>
       <use xlink:href="#DejaVuSans-2e" transform="translate(63.623047 0)"/>
       <use xlink:href="#DejaVuSans-30" transform="translate(95.410156 0)"/>
       <use xlink:href="#DejaVuSans-30" transform="translate(159.033203 0)"/>
      </g>
     </g>
    </g>
    <g id="text_19">
     <!-- g_xy(r) -->
     <g transform="translate(14.7875 161.04944) rotate(-90) scale(0.1 -0.1)">
      <defs>
       <path id="DejaVuSans-67" d="M 2906 1791 
Q 2906 2416 2648 2759 
Q 2391 3103 1925 3103 
Q 1463 3103 1205 2759 
Q 947 2416 947 1791 
Q 947 1169 1205 825 
Q 1463 481 1925 481 
Q 2391 481 2648 825 
Q 2906 1169 2906 1791 
z
M 3481 434 
Q 3481 -459 3084 -895 
Q 2688 -1331 1869 -1331 
Q 1566 -1331 1297 -1286 
Q 1028 -1241 775 -1147 
L 775 -588 
Q 1028 -725 1275 -790 
Q 1522 -856 1778 -856 
Q 2344 -856 2625 -561 
Q 2906 -266 2906 331 
L 2906 616 
Q 2728 306 2450 153 
Q 2172 0 1784 0 
Q 1141 0 747 490 
Q 353 981 353 1791 
Q 353 2603 747 3093 
Q 1141 3584 1784 3584 
Q 2172 3584 2450 3431 
Q 2728 3278 2906 2969 
L 2906 3500 
L 3481 3500 
L 3481 434 
z
" transform="scale(0.015625)"/>
      </defs>
      <use xlink:href="#DejaVuSans-67"/>
      <use xlink:href="#DejaVuSans-5f" transform="translate(63.476562 0)"/>
      <use xlink:href="#DejaVuSans-78" transform="translate(113.476562 0)"/>
      <use xlink:href="#DejaVuSans-79" transform="translate(172.65625 0)"/>
      <use xlink:href="#DejaVuSans-28" transform="translate(231.835938 0)"/>
      <use xlink:href="#DejaVuSans-72" transform="translate(270.849609 0)"/>
      <use xlink:href="#DejaVuSans-29" transform="translate(311.962891 0)"/>
     </g>
    </g>
   </g>
   <g id="line2d_18">
    <path d="M 66.643665 264.45944 
L 68.477871 199.908175 
L 70.312078 217.982529 
L 72.146284 231.261646 
L 73.980491 246.252673 
L 75.814697 243.333571 
L 77.648904 264.45944 
L 81.317317 264.45944 
L 83.151523 254.267135 
L 84.985729 253.393508 
L 86.819936 260.373394 
L 88.654142 264.45944 
L 90.488349 252.321595 
L 92.322555 254.665455 
L 94.156762 253.006796 
L 95.990968 238.610989 
L 97.825175 251.272538 
L 99.659381 227.705288 
L 101.493588 242.895061 
L 103.327794 246.706544 
L 105.162001 258.36229 
L 106.996207 226.994716 
L 108.830414 254.760903 
L 110.66462 225.553514 
L 112.498827 244.75051 
L 114.333033 252.813979 
L 116.16724 256.009092 
L 118.001446 240.699978 
L 119.835652 237.794922 
L 121.669859 253.121395 
L 123.504065 254.481185 
L 125.338272 227.917858 
L 127.172478 253.535379 
L 129.006685 236.159791 
L 130.840891 244.135432 
L 132.675098 248.708024 
L 134.509304 228.474356 
L 136.343511 229.346389 
L 138.177717 251.852683 
L 140.011924 244.528328 
L 141.84613 246.482857 
L 143.680337 249.202475 
L 145.514543 221.548093 
L 147.34875 236.847333 
L 149.182956 216.631793 
L 151.017162 178.679091 
L 152.851369 143.253147 
L 154.685575 146.791585 
L 156.519782 82.735405 
L 158.353988 71.830156 
L 160.188195 80.880961 
L 162.022401 79.381036 
L 163.856608 67.506328 
L 165.690814 54.016184 
L 167.525021 90.26842 
L 169.359227 56.224274 
L 171.193434 61.040609 
L 173.02764 63.099288 
L 174.861847 84.073477 
L 176.696053 51.055772 
L 178.53026 104.380506 
L 180.364466 75.373188 
L 184.032879 116.705943 
L 185.867085 89.089307 
L 187.701292 99.091005 
L 189.535498 82.387702 
L 191.369705 108.886103 
L 193.203911 114.408654 
L 195.038118 94.211905 
L 196.872324 140.08188 
L 198.706531 142.175218 
L 200.540737 138.037846 
L 202.374944 151.108432 
L 204.20915 151.116526 
L 206.043357 162.976139 
L 207.877563 156.054446 
L 209.71177 155.459295 
L 211.545976 127.488533 
L 213.380182 158.633196 
L 215.214389 150.279861 
L 217.048595 152.246339 
L 218.882802 155.13743 
L 220.717008 141.239933 
L 222.551215 159.897381 
L 224.385421 150.327644 
L 226.219628 131.059831 
L 228.053834 131.604439 
L 229.888041 150.486836 
L 231.722247 148.02909 
L 233.556454 127.498793 
L 235.39066 134.760816 
L 237.224867 151.117892 
L 239.059073 141.478361 
L 240.89328 110.981701 
L 242.727486 137.716217 
L 244.561693 136.549297 
L 246.395899 139.622683 
L 248.230105 144.412197 
L 250.064312 143.801175 
L 251.898518 142.748083 
L 253.732725 157.94295 
L 255.566931 143.214264 
L 257.401138 124.069099 
L 259.235344 140.667878 
L 261.069551 131.168248 
L 262.903757 99.602216 
L 264.737964 127.426462 
L 266.57217 112.872321 
L 268.406377 133.91962 
L 270.240583 137.918254 
L 272.07479 103.360013 
L 273.908996 128.76639 
L 275.743203 148.046157 
L 277.577409 123.733643 
L 279.411615 119.333292 
L 281.245822 144.659594 
L 283.080028 143.974311 
L 284.914235 124.394554 
L 286.748441 122.79503 
L 288.582648 148.495774 
L 290.416854 119.029985 
L 292.251061 105.935243 
L 294.085267 117.097983 
L 295.919474 145.056482 
L 297.75368 136.735229 
L 299.587887 145.283668 
L 301.422093 106.797917 
L 303.2563 133.52733 
L 305.090506 140.443136 
L 306.924713 126.692456 
L 308.758919 121.710818 
L 310.593125 102.031645 
L 312.427332 137.259043 
L 314.261538 134.219254 
L 316.095745 136.225277 
L 317.929951 129.898584 
L 319.764158 147.176248 
L 321.598364 135.794411 
L 323.432571 126.980065 
L 325.266777 129.225201 
L 327.100984 127.890757 
L 328.93519 121.766397 
L 330.769397 122.721243 
L 332.603603 126.413562 
L 334.43781 152.136994 
L 336.272016 136.876828 
L 338.106223 137.875417 
L 339.940429 145.677813 
L 341.774635 122.892381 
L 343.608842 147.14872 
L 345.443048 120.649143 
L 347.277255 131.85121 
L 349.111461 120.536974 
L 350.945668 156.271048 
L 352.779874 121.864453 
L 354.614081 125.167736 
L 356.448287 126.189735 
L 358.282494 137.705514 
L 360.1167 129.870024 
L 361.950907 148.273634 
L 363.785113 144.813179 
L 365.61932 141.043856 
L 367.453526 128.87655 
L 369.287733 132.020813 
L 371.121939 137.882778 
L 372.956146 147.456185 
L 374.790352 134.601291 
L 376.624558 142.585262 
L 378.458765 143.860976 
L 380.292971 132.497 
L 382.127178 150.861549 
L 383.961384 136.153783 
L 385.795591 152.078091 
L 387.629797 129.715382 
L 389.464004 156.216908 
L 391.29821 141.265314 
L 391.29821 141.265314 
" clip-path="url(#pd151db0fc8)" style="fill: none; stroke: #ff7f0e; stroke-width: 1.5; stroke-linecap: square"/>
   </g>
   <g id="line2d_19">
    <path d="M 50.410938 137.729329 
L 407.530938 137.729329 
" clip-path="url(#pd151db0fc8)" style="fill: none; stroke-dasharray: 5.55,2.4; stroke-dashoffset: 0; stroke: #000000; stroke-opacity: 0.4; stroke-width: 1.5"/>
   </g>
   <g id="patch_3">
    <path d="M 50.410938 276.55544 
L 50.410938 10.44344 
" style="fill: none; stroke: #000000; stroke-width: 0.8; stroke-linejoin: miter; stroke-linecap: square"/>
   </g>
   <g id="patch_4">
    <path d="M 407.530938 276.55544 
L 407.530938 10.44344 
" style="fill: none; stroke: #000000; stroke-width: 0.8; stroke-linejoin: miter; stroke-linecap: square"/>
   </g>
   <g id="patch_5">
    <path d="M 50.410937 276.55544 
L 407.530938 276.55544 
" style="fill: none; stroke: #000000; stroke-width: 0.8; stroke-linejoin: miter; stroke-linecap: square"/>
   </g>
   <g id="patch_6">
    <path d="M 50.410937 10.44344 
L 407.530938 10.44344 
" style="fill: none; stroke: #000000; stroke-width: 0.8; stroke-linejoin: miter; stroke-linecap: square"/>
   </g>
   <g id="legend_1">
    <g id="patch_7">
     <path d="M 334.37 47.79969 
L 400.530938 47.79969 
Q 402.530938 47.79969 402.530938 45.79969 
L 402.530938 17.44344 
Q 402.530938 15.44344 400.530938 15.44344 
L 334.37 15.44344 
Q 332.37 15.44344 332.37 17.44344 
L 332.37 45.79969 
Q 332.37 47.79969 334.37 47.79969 
z
" style="fill: #ffffff; opacity: 0.8; stroke: #cccccc; stroke-linejoin: miter"/>
    </g>
    <g id="line2d_20">
     <path d="M 336.37 23.541877 
L 346.37 23.541877 
L 356.37 23.541877 
" style="fill: none; stroke: #ff7f0e; stroke-width: 1.5; stroke-linecap: square"/>
    </g>
    <g id="text_20">
     <!-- Mean -->
     <g transform="translate(364.37 27.041877) scale(0.1 -0.1)">
      <defs>
       <path id="DejaVuSans-4d" d="M 628 4666 
L 1569 4666 
L 2759 1491 
L 3956 4666 
L 4897 4666 
L 4897 0 
L 4281 0 
L 4281 4097 
L 3078 897 
L 2444 897 
L 1241 4097 
L 1241 0 
L 628 0 
L 628 4666 
z
" transform="scale(0.015625)"/>
       <path id="DejaVuSans-61" d="M 2194 1759 
Q 1497 1759 1228 1600 
Q 959 1441 959 1056 
Q 959 750 1161 570 
Q 1363 391 1709 391 
Q 2188 391 2477 730 
Q 2766 1069 2766 1631 
L 2766 1759 
L 2194 1759 
z
M 3341 1997 
L 3341 0 
L 2766 0 
L 2766 531 
Q 2569 213 2275 61 
Q 1981 -91 1556 -91 
Q 1019 -91 701 211 
Q 384 513 384 1019 
Q 384 1609 779 1909 
Q 1175 2209 1959 2209 
L 2766 2209 
L 2766 2266 
Q 2766 2663 2505 2880 
Q 2244 3097 1772 3097 
Q 1472 3097 1187 3025 
Q 903 2953 641 2809 
L 641 3341 
Q 956 3463 1253 3523 
Q 1550 3584 1831 3584 
Q 2591 3584 2966 3190 
Q 3341 2797 3341 1997 
z
" transform="scale(0.015625)"/>
      </defs>
      <use xlink:href="#DejaVuSans-4d"/>
      <use xlink:href="#DejaVuSans-65" transform="translate(86.279297 0)"/>
      <use xlink:href="#DejaVuSans-61" transform="translate(147.802734 0)"/>
      <use xlink:href="#DejaVuSans-6e" transform="translate(209.082031 0)"/>
     </g>
    </g>
    <g id="patch_8">
     <path d="M 336.37 41.720002 
L 356.37 41.720002 
L 356.37 34.720002 
L 336.37 34.720002 
z
" style="fill: #ff7f0e; fill-opacity: 0.3; stroke: #ff7f0e; stroke-opacity: 0.3; stroke-linejoin: miter"/>
    </g>
    <g id="text_21">
     <!-- Std Err -->
     <g transform="translate(364.37 41.720002) scale(0.1 -0.1)">
      <defs>
       <path id="DejaVuSans-53" d="M 3425 4513 
L 3425 3897 
Q 3066 4069 2747 4153 
Q 2428 4238 2131 4238 
Q 1616 4238 1336 4038 
Q 1056 3838 1056 3469 
Q 1056 3159 1242 3001 
Q 1428 2844 1947 2747 
L 2328 2669 
Q 3034 2534 3370 2195 
Q 3706 1856 3706 1288 
Q 3706 609 3251 259 
Q 2797 -91 1919 -91 
Q 1588 -91 1214 -16 
Q 841 59 441 206 
L 441 856 
Q 825 641 1194 531 
Q 1563 422 1919 422 
Q 2459 422 2753 634 
Q 3047 847 3047 1241 
Q 3047 1584 2836 1778 
Q 2625 1972 2144 2069 
L 1759 2144 
Q 1053 2284 737 2584 
Q 422 2884 422 3419 
Q 422 4038 858 4394 
Q 1294 4750 2059 4750 
Q 2388 4750 2728 4690 
Q 3069 4631 3425 4513 
z
" transform="scale(0.015625)"/>
       <path id="DejaVuSans-45" d="M 628 4666 
L 3578 4666 
L 3578 4134 
L 1259 4134 
L 1259 2753 
L 3481 2753 
L 3481 2222 
L 1259 2222 
L 1259 531 
L 3634 531 
L 3634 0 
L 628 0 
L 628 4666 
z
" transform="scale(0.015625)"/>
      </defs>
      <use xlink:href="#DejaVuSans-53"/>
      <use xlink:href="#DejaVuSans-74" transform="translate(63.476562 0)"/>
      <use xlink:href="#DejaVuSans-64" transform="translate(102.685547 0)"/>
      <use xlink:href="#DejaVuSans-20" transform="translate(166.162109 0)"/>
      <use xlink:href="#DejaVuSans-45" transform="translate(197.949219 0)"/>
      <use xlink:href="#DejaVuSans-72" transform="translate(261.132812 0)"/>
      <use xlink:href="#DejaVuSans-72" transform="translate(300.496094 0)"/>
     </g>
    </g>
   </g>
  </g>
 </g>
 <defs>
  <clipPath id="pd151db0fc8">
   <rect x="50.410938" y="10.44344" width="357.12" height="266.112"/>
  </clipPath>
 </defs>
</svg>
