<?xml version="1.0" encoding="utf-8" standalone="no"?>
<!DOCTYPE svg PUBLIC "-//W3C//DTD SVG 1.1//EN"
  "http://www.w3.org/Graphics/SVG/1.1/DTD/svg11.dtd">
<svg xmlns:xlink="http://www.w3.org/1999/xlink" width="408.368437pt" height="311.146375pt" viewBox="0 0 408.368437 311.146375" xmlns="http://www.w3.org/2000/svg" version="1.1">
 <metadata>
  <rdf:RDF xmlns:dc="http://purl.org/dc/elements/1.1/" xmlns:cc="http://creativecommons.org/ns#" xmlns:rdf="http://www.w3.org/1999/02/22-rdf-syntax-ns#">
   <cc:Work>
    <dc:type rdf:resource="http://purl.org/dc/dcmitype/StillImage"/>
    <dc:date>2025-12-10T20:29:44.067193</dc:date>
    <dc:format>image/svg+xml</dc:format>
    <dc:creator>
     <cc:Agent>
      <dc:title>Matplotlib v3.10.5, https://matplotlib.org/</dc:title>
     </cc:Agent>
    </dc:creator>
   </cc:Work>
  </rdf:RDF>
 </metadata>
 <defs>
  <style type="text/css">*{stroke-linejoin: round; stroke-linecap: butt}</style>
 </defs>
 <g id="figure_1">
  <g id="patch_1">
   <path d="M 0 311.146375 
L 408.368437 311.146375 
L 408.368437 0 
L 0 0 
z
" style="fill: #ffffff"/>
  </g>
  <g id="axes_1">
   <g id="patch_2">
    <path d="M 44.048438 273.312 
L 401.168437 273.312 
L 401.168437 7.2 
L 44.048438 7.2 
z
" style="fill: #ffffff"/>
   </g>
   <g id="FillBetweenPolyCollection_1">
    <defs>
     <path id="ma982a33eb6" d="M 60.281165 -291.850375 
L 60.281165 -49.930375 
L 62.115371 -49.930375 
L 63.949578 -49.930375 
L 65.783784 -49.930375 
L 67.617991 -49.930375 
L 69.452197 -49.930375 
L 71.286404 -58.226576 
L 73.12061 -49.930375 
L 74.954817 -49.930375 
L 76.789023 -49.930375 
L 78.623229 -49.930375 
L 80.457436 -74.32022 
L 82.291642 -62.576104 
L 84.125849 -49.930375 
L 85.960055 -49.930375 
L 87.794262 -54.918448 
L 89.628468 -53.311093 
L 91.462675 -49.930375 
L 93.296881 -56.32195 
L 95.131088 -49.930375 
L 96.965294 -49.930375 
L 98.799501 -53.08738 
L 100.633707 -49.930375 
L 102.467914 -54.806142 
L 104.30212 -49.930375 
L 106.136327 -53.031457 
L 107.970533 -49.930375 
L 109.80474 -55.602483 
L 111.638946 -52.514175 
L 113.473152 -51.989244 
L 115.307359 -51.938963 
L 117.141565 -49.930375 
L 118.975772 -49.930375 
L 120.809978 -49.930375 
L 122.644185 -52.585219 
L 124.478391 -52.982651 
L 126.312598 -49.930375 
L 128.146804 -51.447825 
L 129.981011 -51.835329 
L 131.815217 -54.811166 
L 133.649424 -54.623434 
L 135.48363 -57.926597 
L 137.317837 -57.693406 
L 139.152043 -55.138142 
L 140.98625 -62.841358 
L 142.820456 -76.004226 
L 144.654662 -114.76945 
L 146.488869 -108.89865 
L 148.323075 -146.41082 
L 150.157282 -173.545461 
L 151.991488 -181.415779 
L 153.825695 -172.523063 
L 155.659901 -202.961401 
L 157.494108 -214.351564 
L 159.328314 -224.462156 
L 161.162521 -227.610241 
L 162.996727 -169.00425 
L 164.830934 -204.554095 
L 166.66514 -188.227627 
L 168.499347 -180.009948 
L 170.333553 -177.283368 
L 172.16776 -179.121752 
L 174.001966 -171.92571 
L 175.836172 -197.683268 
L 177.670379 -186.584015 
L 179.504585 -193.525745 
L 181.338792 -231.623555 
L 183.172998 -159.498218 
L 185.007205 -165.652691 
L 186.841411 -176.998009 
L 188.675618 -156.523484 
L 190.509824 -140.069089 
L 192.344031 -148.161369 
L 194.178237 -171.224246 
L 196.012444 -119.82005 
L 197.84665 -134.989787 
L 199.680857 -127.861997 
L 201.515063 -141.611663 
L 203.34927 -162.463464 
L 205.183476 -134.961984 
L 207.017682 -138.785909 
L 208.851889 -137.253482 
L 210.686095 -129.783118 
L 212.520302 -121.767099 
L 214.354508 -128.581708 
L 216.188715 -141.834397 
L 218.022921 -129.701033 
L 219.857128 -158.113871 
L 221.691334 -139.426147 
L 223.525541 -155.107545 
L 225.359747 -139.270783 
L 227.193954 -138.658589 
L 229.02816 -151.244124 
L 230.862367 -134.829796 
L 232.696573 -137.079975 
L 234.53078 -140.197974 
L 236.364986 -157.147137 
L 238.199193 -155.818185 
L 240.033399 -138.570108 
L 241.867605 -147.311518 
L 243.701812 -169.181776 
L 245.536018 -152.959362 
L 247.370225 -164.736742 
L 249.204431 -160.5704 
L 251.038638 -160.96322 
L 252.872844 -155.338792 
L 254.707051 -178.303704 
L 256.541257 -153.316475 
L 258.375464 -159.624592 
L 260.20967 -168.793021 
L 262.043877 -155.619401 
L 263.878083 -166.649342 
L 265.71229 -168.897727 
L 267.546496 -149.872894 
L 269.380703 -146.141743 
L 271.214909 -138.057451 
L 273.049115 -153.850216 
L 274.883322 -149.730054 
L 276.717528 -138.100155 
L 278.551735 -146.282276 
L 280.385941 -132.796539 
L 282.220148 -114.094828 
L 284.054354 -125.387462 
L 285.888561 -148.051699 
L 287.722767 -123.954859 
L 289.556974 -134.67377 
L 291.39118 -152.288869 
L 293.225387 -137.303277 
L 295.059593 -126.273319 
L 296.8938 -127.720255 
L 298.728006 -150.347317 
L 300.562213 -144.092568 
L 302.396419 -133.979518 
L 304.230625 -129.47615 
L 306.064832 -157.564381 
L 307.899038 -141.120248 
L 309.733245 -153.387087 
L 311.567451 -148.211595 
L 313.401658 -167.02132 
L 315.235864 -170.730955 
L 317.070071 -172.840748 
L 318.904277 -161.618045 
L 320.738484 -176.419396 
L 322.57269 -162.644997 
L 324.406897 -160.052315 
L 326.241103 -144.00238 
L 328.07531 -148.784139 
L 329.909516 -150.768833 
L 331.743723 -155.125934 
L 333.577929 -160.294017 
L 335.412135 -145.731014 
L 337.246342 -147.395617 
L 339.080548 -159.634817 
L 340.914755 -162.899217 
L 342.748961 -154.207902 
L 344.583168 -167.968914 
L 346.417374 -167.531526 
L 348.251581 -141.503461 
L 350.085787 -143.756883 
L 351.919994 -171.616221 
L 353.7542 -159.398388 
L 355.588407 -147.433471 
L 357.422613 -151.65591 
L 359.25682 -143.041267 
L 361.091026 -147.713609 
L 362.925233 -158.127588 
L 364.759439 -152.505539 
L 366.593646 -142.786827 
L 368.427852 -161.06553 
L 370.262058 -151.456467 
L 372.096265 -141.888211 
L 373.930471 -150.487235 
L 375.764678 -161.728303 
L 377.598884 -148.341903 
L 379.433091 -148.234162 
L 381.267297 -157.375368 
L 383.101504 -158.713918 
L 384.93571 -155.688682 
L 384.93571 -171.581588 
L 384.93571 -171.581588 
L 383.101504 -171.491128 
L 381.267297 -174.112378 
L 379.433091 -166.632995 
L 377.598884 -167.199057 
L 375.764678 -166.993122 
L 373.930471 -168.908998 
L 372.096265 -165.02618 
L 370.262058 -165.33274 
L 368.427852 -172.292181 
L 366.593646 -154.64279 
L 364.759439 -165.605049 
L 362.925233 -187.37378 
L 361.091026 -171.641079 
L 359.25682 -165.60322 
L 357.422613 -179.745246 
L 355.588407 -161.22633 
L 353.7542 -176.784682 
L 351.919994 -194.23344 
L 350.085787 -161.941422 
L 348.251581 -167.450594 
L 346.417374 -181.271048 
L 344.583168 -177.985691 
L 342.748961 -174.249736 
L 340.914755 -175.272557 
L 339.080548 -173.966444 
L 337.246342 -177.343579 
L 335.412135 -192.325237 
L 333.577929 -188.577957 
L 331.743723 -170.272945 
L 329.909516 -178.341565 
L 328.07531 -157.214873 
L 326.241103 -171.518933 
L 324.406897 -169.024575 
L 322.57269 -170.120265 
L 320.738484 -189.000355 
L 318.904277 -184.245964 
L 317.070071 -182.246237 
L 315.235864 -206.402491 
L 313.401658 -185.039727 
L 311.567451 -175.665703 
L 309.733245 -179.076622 
L 307.899038 -167.113139 
L 306.064832 -176.435324 
L 304.230625 -150.499618 
L 302.396419 -149.150376 
L 300.562213 -161.811371 
L 298.728006 -159.565801 
L 296.8938 -162.958993 
L 295.059593 -144.028949 
L 293.225387 -154.679961 
L 291.39118 -174.438732 
L 289.556974 -176.387079 
L 287.722767 -149.069862 
L 285.888561 -175.09053 
L 284.054354 -153.980009 
L 282.220148 -147.688622 
L 280.385941 -157.515921 
L 278.551735 -157.082997 
L 276.717528 -165.061751 
L 274.883322 -174.474364 
L 273.049115 -173.70022 
L 271.214909 -152.116855 
L 269.380703 -185.380262 
L 267.546496 -169.810665 
L 265.71229 -211.405185 
L 263.878083 -195.629051 
L 262.043877 -171.158645 
L 260.20967 -219.631257 
L 258.375464 -193.893024 
L 256.541257 -168.869365 
L 254.707051 -192.602057 
L 252.872844 -174.216389 
L 251.038638 -185.497239 
L 249.204431 -186.049521 
L 247.370225 -191.637101 
L 245.536018 -169.421422 
L 243.701812 -189.752961 
L 241.867605 -166.876474 
L 240.033399 -155.234984 
L 238.199193 -169.093563 
L 236.364986 -175.42102 
L 234.53078 -172.534114 
L 232.696573 -175.803221 
L 230.862367 -162.476609 
L 229.02816 -180.892154 
L 227.193954 -167.767775 
L 225.359747 -159.861886 
L 223.525541 -167.767015 
L 221.691334 -167.292056 
L 219.857128 -184.08798 
L 218.022921 -148.287306 
L 216.188715 -173.74387 
L 214.354508 -150.807809 
L 212.520302 -144.362835 
L 210.686095 -156.923023 
L 208.851889 -154.549122 
L 207.017682 -178.834888 
L 205.183476 -160.800009 
L 203.34927 -169.661581 
L 201.515063 -164.393254 
L 199.680857 -143.674265 
L 197.84665 -147.189172 
L 196.012444 -142.866254 
L 194.178237 -203.85641 
L 192.344031 -167.257427 
L 190.509824 -147.811813 
L 188.675618 -165.287758 
L 186.841411 -223.751161 
L 185.007205 -201.780647 
L 183.172998 -194.611263 
L 181.338792 -270.989267 
L 179.504585 -238.959293 
L 177.670379 -226.258137 
L 175.836172 -213.221181 
L 174.001966 -214.256258 
L 172.16776 -206.684099 
L 170.333553 -196.901335 
L 168.499347 -216.454232 
L 166.66514 -241.478168 
L 164.830934 -262.313017 
L 162.996727 -239.62367 
L 161.162521 -246.865297 
L 159.328314 -234.203183 
L 157.494108 -255.569602 
L 155.659901 -243.25621 
L 153.825695 -211.557821 
L 151.991488 -226.340626 
L 150.157282 -192.9812 
L 148.323075 -169.23394 
L 146.488869 -142.537271 
L 144.654662 -142.800101 
L 142.820456 -96.631238 
L 140.98625 -84.128771 
L 139.152043 -67.85859 
L 137.317837 -64.800955 
L 135.48363 -65.794201 
L 133.649424 -75.900427 
L 131.815217 -67.908183 
L 129.981011 -60.380159 
L 128.146804 -59.649819 
L 126.312598 -64.073339 
L 124.478391 -62.772921 
L 122.644185 -59.057588 
L 120.809978 -67.929734 
L 118.975772 -57.124728 
L 117.141565 -68.446453 
L 115.307359 -71.911486 
L 113.473152 -70.404733 
L 111.638946 -64.271972 
L 109.80474 -79.568813 
L 107.970533 -56.446015 
L 106.136327 -73.454149 
L 104.30212 -61.674791 
L 102.467914 -64.385332 
L 100.633707 -49.930375 
L 98.799501 -64.714207 
L 96.965294 -66.40257 
L 95.131088 -49.930375 
L 93.296881 -66.943223 
L 91.462675 -62.832775 
L 89.628468 -64.999111 
L 87.794262 -83.285862 
L 85.960055 -80.602225 
L 84.125849 -49.930375 
L 82.291642 -107.998595 
L 80.457436 -119.847082 
L 78.623229 -58.666375 
L 76.789023 -75.678586 
L 74.954817 -49.930375 
L 73.12061 -60.721904 
L 71.286404 -85.901587 
L 69.452197 -49.930375 
L 67.617991 -94.404557 
L 65.783784 -49.930375 
L 63.949578 -148.311175 
L 62.115371 -49.930375 
L 60.281165 -291.850375 
z
" style="stroke: #ff7f0e; stroke-opacity: 0.3"/>
    </defs>
    <g clip-path="url(#p0f8f689fa9)">
     <use xlink:href="#ma982a33eb6" x="0" y="311.146375" style="fill: #ff7f0e; fill-opacity: 0.3; stroke: #ff7f0e; stroke-opacity: 0.3"/>
    </g>
   </g>
   <g id="matplotlib.axis_1">
    <g id="xtick_1">
     <g id="line2d_1">
      <defs>
       <path id="m0a29bc377b" d="M 0 0 
L 0 3.5 
" style="stroke: #000000; stroke-width: 0.8"/>
      </defs>
      <g>
       <use xlink:href="#m0a29bc377b" x="59.364062" y="273.312" style="stroke: #000000; stroke-width: 0.8"/>
      </g>
     </g>
     <g id="text_1">
      <!-- 0.0 -->
      <g transform="translate(51.412499 287.910437) scale(0.1 -0.1)">
       <defs>
        <path id="DejaVuSans-30" d="M 2034 4250 
Q 1547 4250 1301 3770 
Q 1056 3291 1056 2328 
Q 1056 1369 1301 889 
Q 1547 409 2034 409 
Q 2525 409 2770 889 
Q 3016 1369 3016 2328 
Q 3016 3291 2770 3770 
Q 2525 4250 2034 4250 
z
M 2034 4750 
Q 2819 4750 3233 4129 
Q 3647 3509 3647 2328 
Q 3647 1150 3233 529 
Q 2819 -91 2034 -91 
Q 1250 -91 836 529 
Q 422 1150 422 2328 
Q 422 3509 836 4129 
Q 1250 4750 2034 4750 
z
" transform="scale(0.015625)"/>
        <path id="DejaVuSans-2e" d="M 684 794 
L 1344 794 
L 1344 0 
L 684 0 
L 684 794 
z
" transform="scale(0.015625)"/>
       </defs>
       <use xlink:href="#DejaVuSans-30"/>
       <use xlink:href="#DejaVuSans-2e" transform="translate(63.623047 0)"/>
       <use xlink:href="#DejaVuSans-30" transform="translate(95.410156 0)"/>
      </g>
     </g>
    </g>
    <g id="xtick_2">
     <g id="line2d_2">
      <g>
       <use xlink:href="#m0a29bc377b" x="105.219223" y="273.312" style="stroke: #000000; stroke-width: 0.8"/>
      </g>
     </g>
     <g id="text_2">
      <!-- 0.5 -->
      <g transform="translate(97.267661 287.910437) scale(0.1 -0.1)">
       <defs>
        <path id="DejaVuSans-35" d="M 691 4666 
L 3169 4666 
L 3169 4134 
L 1269 4134 
L 1269 2991 
Q 1406 3038 1543 3061 
Q 1681 3084 1819 3084 
Q 2600 3084 3056 2656 
Q 3513 2228 3513 1497 
Q 3513 744 3044 326 
Q 2575 -91 1722 -91 
Q 1428 -91 1123 -41 
Q 819 9 494 109 
L 494 744 
Q 775 591 1075 516 
Q 1375 441 1709 441 
Q 2250 441 2565 725 
Q 2881 1009 2881 1497 
Q 2881 1984 2565 2268 
Q 2250 2553 1709 2553 
Q 1456 2553 1204 2497 
Q 953 2441 691 2322 
L 691 4666 
z
" transform="scale(0.015625)"/>
       </defs>
       <use xlink:href="#DejaVuSans-30"/>
       <use xlink:href="#DejaVuSans-2e" transform="translate(63.623047 0)"/>
       <use xlink:href="#DejaVuSans-35" transform="translate(95.410156 0)"/>
      </g>
     </g>
    </g>
    <g id="xtick_3">
     <g id="line2d_3">
      <g>
       <use xlink:href="#m0a29bc377b" x="151.074385" y="273.312" style="stroke: #000000; stroke-width: 0.8"/>
      </g>
     </g>
     <g id="text_3">
      <!-- 1.0 -->
      <g transform="translate(143.122823 287.910437) scale(0.1 -0.1)">
       <defs>
        <path id="DejaVuSans-31" d="M 794 531 
L 1825 531 
L 1825 4091 
L 703 3866 
L 703 4441 
L 1819 4666 
L 2450 4666 
L 2450 531 
L 3481 531 
L 3481 0 
L 794 0 
L 794 531 
z
" transform="scale(0.015625)"/>
       </defs>
       <use xlink:href="#DejaVuSans-31"/>
       <use xlink:href="#DejaVuSans-2e" transform="translate(63.623047 0)"/>
       <use xlink:href="#DejaVuSans-30" transform="translate(95.410156 0)"/>
      </g>
     </g>
    </g>
    <g id="xtick_4">
     <g id="line2d_4">
      <g>
       <use xlink:href="#m0a29bc377b" x="196.929547" y="273.312" style="stroke: #000000; stroke-width: 0.8"/>
      </g>
     </g>
     <g id="text_4">
      <!-- 1.5 -->
      <g transform="translate(188.977984 287.910437) scale(0.1 -0.1)">
       <use xlink:href="#DejaVuSans-31"/>
       <use xlink:href="#DejaVuSans-2e" transform="translate(63.623047 0)"/>
       <use xlink:href="#DejaVuSans-35" transform="translate(95.410156 0)"/>
      </g>
     </g>
    </g>
    <g id="xtick_5">
     <g id="line2d_5">
      <g>
       <use xlink:href="#m0a29bc377b" x="242.784709" y="273.312" style="stroke: #000000; stroke-width: 0.8"/>
      </g>
     </g>
     <g id="text_5">
      <!-- 2.0 -->
      <g transform="translate(234.833146 287.910437) scale(0.1 -0.1)">
       <defs>
        <path id="DejaVuSans-32" d="M 1228 531 
L 3431 531 
L 3431 0 
L 469 0 
L 469 531 
Q 828 903 1448 1529 
Q 2069 2156 2228 2338 
Q 2531 2678 2651 2914 
Q 2772 3150 2772 3378 
Q 2772 3750 2511 3984 
Q 2250 4219 1831 4219 
Q 1534 4219 1204 4116 
Q 875 4013 500 3803 
L 500 4441 
Q 881 4594 1212 4672 
Q 1544 4750 1819 4750 
Q 2544 4750 2975 4387 
Q 3406 4025 3406 3419 
Q 3406 3131 3298 2873 
Q 3191 2616 2906 2266 
Q 2828 2175 2409 1742 
Q 1991 1309 1228 531 
z
" transform="scale(0.015625)"/>
       </defs>
       <use xlink:href="#DejaVuSans-32"/>
       <use xlink:href="#DejaVuSans-2e" transform="translate(63.623047 0)"/>
       <use xlink:href="#DejaVuSans-30" transform="translate(95.410156 0)"/>
      </g>
     </g>
    </g>
    <g id="xtick_6">
     <g id="line2d_6">
      <g>
       <use xlink:href="#m0a29bc377b" x="288.63987" y="273.312" style="stroke: #000000; stroke-width: 0.8"/>
      </g>
     </g>
     <g id="text_6">
      <!-- 2.5 -->
      <g transform="translate(280.688308 287.910437) scale(0.1 -0.1)">
       <use xlink:href="#DejaVuSans-32"/>
       <use xlink:href="#DejaVuSans-2e" transform="translate(63.623047 0)"/>
       <use xlink:href="#DejaVuSans-35" transform="translate(95.410156 0)"/>
      </g>
     </g>
    </g>
    <g id="xtick_7">
     <g id="line2d_7">
      <g>
       <use xlink:href="#m0a29bc377b" x="334.495032" y="273.312" style="stroke: #000000; stroke-width: 0.8"/>
      </g>
     </g>
     <g id="text_7">
      <!-- 3.0 -->
      <g transform="translate(326.54347 287.910437) scale(0.1 -0.1)">
       <defs>
        <path id="DejaVuSans-33" d="M 2597 2516 
Q 3050 2419 3304 2112 
Q 3559 1806 3559 1356 
Q 3559 666 3084 287 
Q 2609 -91 1734 -91 
Q 1441 -91 1130 -33 
Q 819 25 488 141 
L 488 750 
Q 750 597 1062 519 
Q 1375 441 1716 441 
Q 2309 441 2620 675 
Q 2931 909 2931 1356 
Q 2931 1769 2642 2001 
Q 2353 2234 1838 2234 
L 1294 2234 
L 1294 2753 
L 1863 2753 
Q 2328 2753 2575 2939 
Q 2822 3125 2822 3475 
Q 2822 3834 2567 4026 
Q 2313 4219 1838 4219 
Q 1578 4219 1281 4162 
Q 984 4106 628 3988 
L 628 4550 
Q 988 4650 1302 4700 
Q 1616 4750 1894 4750 
Q 2613 4750 3031 4423 
Q 3450 4097 3450 3541 
Q 3450 3153 3228 2886 
Q 3006 2619 2597 2516 
z
" transform="scale(0.015625)"/>
       </defs>
       <use xlink:href="#DejaVuSans-33"/>
       <use xlink:href="#DejaVuSans-2e" transform="translate(63.623047 0)"/>
       <use xlink:href="#DejaVuSans-30" transform="translate(95.410156 0)"/>
      </g>
     </g>
    </g>
    <g id="xtick_8">
     <g id="line2d_8">
      <g>
       <use xlink:href="#m0a29bc377b" x="380.350194" y="273.312" style="stroke: #000000; stroke-width: 0.8"/>
      </g>
     </g>
     <g id="text_8">
      <!-- 3.5 -->
      <g transform="translate(372.398632 287.910437) scale(0.1 -0.1)">
       <use xlink:href="#DejaVuSans-33"/>
       <use xlink:href="#DejaVuSans-2e" transform="translate(63.623047 0)"/>
       <use xlink:href="#DejaVuSans-35" transform="translate(95.410156 0)"/>
      </g>
     </g>
    </g>
    <g id="text_9">
     <!-- r_xy (reduced units) -->
     <g transform="translate(172.400625 301.588562) scale(0.1 -0.1)">
      <defs>
       <path id="DejaVuSans-72" d="M 2631 2963 
Q 2534 3019 2420 3045 
Q 2306 3072 2169 3072 
Q 1681 3072 1420 2755 
Q 1159 2438 1159 1844 
L 1159 0 
L 581 0 
L 581 3500 
L 1159 3500 
L 1159 2956 
Q 1341 3275 1631 3429 
Q 1922 3584 2338 3584 
Q 2397 3584 2469 3576 
Q 2541 3569 2628 3553 
L 2631 2963 
z
" transform="scale(0.015625)"/>
       <path id="DejaVuSans-5f" d="M 3263 -1063 
L 3263 -1509 
L -63 -1509 
L -63 -1063 
L 3263 -1063 
z
" transform="scale(0.015625)"/>
       <path id="DejaVuSans-78" d="M 3513 3500 
L 2247 1797 
L 3578 0 
L 2900 0 
L 1881 1375 
L 863 0 
L 184 0 
L 1544 1831 
L 300 3500 
L 978 3500 
L 1906 2253 
L 2834 3500 
L 3513 3500 
z
" transform="scale(0.015625)"/>
       <path id="DejaVuSans-79" d="M 2059 -325 
Q 1816 -950 1584 -1140 
Q 1353 -1331 966 -1331 
L 506 -1331 
L 506 -850 
L 844 -850 
Q 1081 -850 1212 -737 
Q 1344 -625 1503 -206 
L 1606 56 
L 191 3500 
L 800 3500 
L 1894 763 
L 2988 3500 
L 3597 3500 
L 2059 -325 
z
" transform="scale(0.015625)"/>
       <path id="DejaVuSans-20" transform="scale(0.015625)"/>
       <path id="DejaVuSans-28" d="M 1984 4856 
Q 1566 4138 1362 3434 
Q 1159 2731 1159 2009 
Q 1159 1288 1364 580 
Q 1569 -128 1984 -844 
L 1484 -844 
Q 1016 -109 783 600 
Q 550 1309 550 2009 
Q 550 2706 781 3412 
Q 1013 4119 1484 4856 
L 1984 4856 
z
" transform="scale(0.015625)"/>
       <path id="DejaVuSans-65" d="M 3597 1894 
L 3597 1613 
L 953 1613 
Q 991 1019 1311 708 
Q 1631 397 2203 397 
Q 2534 397 2845 478 
Q 3156 559 3463 722 
L 3463 178 
Q 3153 47 2828 -22 
Q 2503 -91 2169 -91 
Q 1331 -91 842 396 
Q 353 884 353 1716 
Q 353 2575 817 3079 
Q 1281 3584 2069 3584 
Q 2775 3584 3186 3129 
Q 3597 2675 3597 1894 
z
M 3022 2063 
Q 3016 2534 2758 2815 
Q 2500 3097 2075 3097 
Q 1594 3097 1305 2825 
Q 1016 2553 972 2059 
L 3022 2063 
z
" transform="scale(0.015625)"/>
       <path id="DejaVuSans-64" d="M 2906 2969 
L 2906 4863 
L 3481 4863 
L 3481 0 
L 2906 0 
L 2906 525 
Q 2725 213 2448 61 
Q 2172 -91 1784 -91 
Q 1150 -91 751 415 
Q 353 922 353 1747 
Q 353 2572 751 3078 
Q 1150 3584 1784 3584 
Q 2172 3584 2448 3432 
Q 2725 3281 2906 2969 
z
M 947 1747 
Q 947 1113 1208 752 
Q 1469 391 1925 391 
Q 2381 391 2643 752 
Q 2906 1113 2906 1747 
Q 2906 2381 2643 2742 
Q 2381 3103 1925 3103 
Q 1469 3103 1208 2742 
Q 947 2381 947 1747 
z
" transform="scale(0.015625)"/>
       <path id="DejaVuSans-75" d="M 544 1381 
L 544 3500 
L 1119 3500 
L 1119 1403 
Q 1119 906 1312 657 
Q 1506 409 1894 409 
Q 2359 409 2629 706 
Q 2900 1003 2900 1516 
L 2900 3500 
L 3475 3500 
L 3475 0 
L 2900 0 
L 2900 538 
Q 2691 219 2414 64 
Q 2138 -91 1772 -91 
Q 1169 -91 856 284 
Q 544 659 544 1381 
z
M 1991 3584 
L 1991 3584 
z
" transform="scale(0.015625)"/>
       <path id="DejaVuSans-63" d="M 3122 3366 
L 3122 2828 
Q 2878 2963 2633 3030 
Q 2388 3097 2138 3097 
Q 1578 3097 1268 2742 
Q 959 2388 959 1747 
Q 959 1106 1268 751 
Q 1578 397 2138 397 
Q 2388 397 2633 464 
Q 2878 531 3122 666 
L 3122 134 
Q 2881 22 2623 -34 
Q 2366 -91 2075 -91 
Q 1284 -91 818 406 
Q 353 903 353 1747 
Q 353 2603 823 3093 
Q 1294 3584 2113 3584 
Q 2378 3584 2631 3529 
Q 2884 3475 3122 3366 
z
" transform="scale(0.015625)"/>
       <path id="DejaVuSans-6e" d="M 3513 2113 
L 3513 0 
L 2938 0 
L 2938 2094 
Q 2938 2591 2744 2837 
Q 2550 3084 2163 3084 
Q 1697 3084 1428 2787 
Q 1159 2491 1159 1978 
L 1159 0 
L 581 0 
L 581 3500 
L 1159 3500 
L 1159 2956 
Q 1366 3272 1645 3428 
Q 1925 3584 2291 3584 
Q 2894 3584 3203 3211 
Q 3513 2838 3513 2113 
z
" transform="scale(0.015625)"/>
       <path id="DejaVuSans-69" d="M 603 3500 
L 1178 3500 
L 1178 0 
L 603 0 
L 603 3500 
z
M 603 4863 
L 1178 4863 
L 1178 4134 
L 603 4134 
L 603 4863 
z
" transform="scale(0.015625)"/>
       <path id="DejaVuSans-74" d="M 1172 4494 
L 1172 3500 
L 2356 3500 
L 2356 3053 
L 1172 3053 
L 1172 1153 
Q 1172 725 1289 603 
Q 1406 481 1766 481 
L 2356 481 
L 2356 0 
L 1766 0 
Q 1100 0 847 248 
Q 594 497 594 1153 
L 594 3053 
L 172 3053 
L 172 3500 
L 594 3500 
L 594 4494 
L 1172 4494 
z
" transform="scale(0.015625)"/>
       <path id="DejaVuSans-73" d="M 2834 3397 
L 2834 2853 
Q 2591 2978 2328 3040 
Q 2066 3103 1784 3103 
Q 1356 3103 1142 2972 
Q 928 2841 928 2578 
Q 928 2378 1081 2264 
Q 1234 2150 1697 2047 
L 1894 2003 
Q 2506 1872 2764 1633 
Q 3022 1394 3022 966 
Q 3022 478 2636 193 
Q 2250 -91 1575 -91 
Q 1294 -91 989 -36 
Q 684 19 347 128 
L 347 722 
Q 666 556 975 473 
Q 1284 391 1588 391 
Q 1994 391 2212 530 
Q 2431 669 2431 922 
Q 2431 1156 2273 1281 
Q 2116 1406 1581 1522 
L 1381 1569 
Q 847 1681 609 1914 
Q 372 2147 372 2553 
Q 372 3047 722 3315 
Q 1072 3584 1716 3584 
Q 2034 3584 2315 3537 
Q 2597 3491 2834 3397 
z
" transform="scale(0.015625)"/>
       <path id="DejaVuSans-29" d="M 513 4856 
L 1013 4856 
Q 1481 4119 1714 3412 
Q 1947 2706 1947 2009 
Q 1947 1309 1714 600 
Q 1481 -109 1013 -844 
L 513 -844 
Q 928 -128 1133 580 
Q 1338 1288 1338 2009 
Q 1338 2731 1133 3434 
Q 928 4138 513 4856 
z
" transform="scale(0.015625)"/>
      </defs>
      <use xlink:href="#DejaVuSans-72"/>
      <use xlink:href="#DejaVuSans-5f" transform="translate(41.113281 0)"/>
      <use xlink:href="#DejaVuSans-78" transform="translate(91.113281 0)"/>
      <use xlink:href="#DejaVuSans-79" transform="translate(150.292969 0)"/>
      <use xlink:href="#DejaVuSans-20" transform="translate(209.472656 0)"/>
      <use xlink:href="#DejaVuSans-28" transform="translate(241.259766 0)"/>
      <use xlink:href="#DejaVuSans-72" transform="translate(280.273438 0)"/>
      <use xlink:href="#DejaVuSans-65" transform="translate(319.136719 0)"/>
      <use xlink:href="#DejaVuSans-64" transform="translate(380.660156 0)"/>
      <use xlink:href="#DejaVuSans-75" transform="translate(444.136719 0)"/>
      <use xlink:href="#DejaVuSans-63" transform="translate(507.515625 0)"/>
      <use xlink:href="#DejaVuSans-65" transform="translate(562.496094 0)"/>
      <use xlink:href="#DejaVuSans-64" transform="translate(624.019531 0)"/>
      <use xlink:href="#DejaVuSans-20" transform="translate(687.496094 0)"/>
      <use xlink:href="#DejaVuSans-75" transform="translate(719.283203 0)"/>
      <use xlink:href="#DejaVuSans-6e" transform="translate(782.662109 0)"/>
      <use xlink:href="#DejaVuSans-69" transform="translate(846.041016 0)"/>
      <use xlink:href="#DejaVuSans-74" transform="translate(873.824219 0)"/>
      <use xlink:href="#DejaVuSans-73" transform="translate(913.033203 0)"/>
      <use xlink:href="#DejaVuSans-29" transform="translate(965.132812 0)"/>
     </g>
    </g>
   </g>
   <g id="matplotlib.axis_2">
    <g id="ytick_1">
     <g id="line2d_9">
      <defs>
       <path id="mcb09f15fe8" d="M 0 0 
L -3.5 0 
" style="stroke: #000000; stroke-width: 0.8"/>
      </defs>
      <g>
       <use xlink:href="#mcb09f15fe8" x="44.048438" y="261.216" style="stroke: #000000; stroke-width: 0.8"/>
      </g>
     </g>
     <g id="text_10">
      <!-- 0.0 -->
      <g transform="translate(21.145313 265.015219) scale(0.1 -0.1)">
       <use xlink:href="#DejaVuSans-30"/>
       <use xlink:href="#DejaVuSans-2e" transform="translate(63.623047 0)"/>
       <use xlink:href="#DejaVuSans-30" transform="translate(95.410156 0)"/>
      </g>
     </g>
    </g>
    <g id="ytick_2">
     <g id="line2d_10">
      <g>
       <use xlink:href="#mcb09f15fe8" x="44.048438" y="206.644858" style="stroke: #000000; stroke-width: 0.8"/>
      </g>
     </g>
     <g id="text_11">
      <!-- 0.5 -->
      <g transform="translate(21.145313 210.444077) scale(0.1 -0.1)">
       <use xlink:href="#DejaVuSans-30"/>
       <use xlink:href="#DejaVuSans-2e" transform="translate(63.623047 0)"/>
       <use xlink:href="#DejaVuSans-35" transform="translate(95.410156 0)"/>
      </g>
     </g>
    </g>
    <g id="ytick_3">
     <g id="line2d_11">
      <g>
       <use xlink:href="#mcb09f15fe8" x="44.048438" y="152.073716" style="stroke: #000000; stroke-width: 0.8"/>
      </g>
     </g>
     <g id="text_12">
      <!-- 1.0 -->
      <g transform="translate(21.145313 155.872935) scale(0.1 -0.1)">
       <use xlink:href="#DejaVuSans-31"/>
       <use xlink:href="#DejaVuSans-2e" transform="translate(63.623047 0)"/>
       <use xlink:href="#DejaVuSans-30" transform="translate(95.410156 0)"/>
      </g>
     </g>
    </g>
    <g id="ytick_4">
     <g id="line2d_12">
      <g>
       <use xlink:href="#mcb09f15fe8" x="44.048438" y="97.502574" style="stroke: #000000; stroke-width: 0.8"/>
      </g>
     </g>
     <g id="text_13">
      <!-- 1.5 -->
      <g transform="translate(21.145313 101.301793) scale(0.1 -0.1)">
       <use xlink:href="#DejaVuSans-31"/>
       <use xlink:href="#DejaVuSans-2e" transform="translate(63.623047 0)"/>
       <use xlink:href="#DejaVuSans-35" transform="translate(95.410156 0)"/>
      </g>
     </g>
    </g>
    <g id="ytick_5">
     <g id="line2d_13">
      <g>
       <use xlink:href="#mcb09f15fe8" x="44.048438" y="42.931432" style="stroke: #000000; stroke-width: 0.8"/>
      </g>
     </g>
     <g id="text_14">
      <!-- 2.0 -->
      <g transform="translate(21.145313 46.73065) scale(0.1 -0.1)">
       <use xlink:href="#DejaVuSans-32"/>
       <use xlink:href="#DejaVuSans-2e" transform="translate(63.623047 0)"/>
       <use xlink:href="#DejaVuSans-30" transform="translate(95.410156 0)"/>
      </g>
     </g>
    </g>
    <g id="text_15">
     <!-- g_xy(r) -->
     <g transform="translate(14.7875 157.806) rotate(-90) scale(0.1 -0.1)">
      <defs>
       <path id="DejaVuSans-67" d="M 2906 1791 
Q 2906 2416 2648 2759 
Q 2391 3103 1925 3103 
Q 1463 3103 1205 2759 
Q 947 2416 947 1791 
Q 947 1169 1205 825 
Q 1463 481 1925 481 
Q 2391 481 2648 825 
Q 2906 1169 2906 1791 
z
M 3481 434 
Q 3481 -459 3084 -895 
Q 2688 -1331 1869 -1331 
Q 1566 -1331 1297 -1286 
Q 1028 -1241 775 -1147 
L 775 -588 
Q 1028 -725 1275 -790 
Q 1522 -856 1778 -856 
Q 2344 -856 2625 -561 
Q 2906 -266 2906 331 
L 2906 616 
Q 2728 306 2450 153 
Q 2172 0 1784 0 
Q 1141 0 747 490 
Q 353 981 353 1791 
Q 353 2603 747 3093 
Q 1141 3584 1784 3584 
Q 2172 3584 2450 3431 
Q 2728 3278 2906 2969 
L 2906 3500 
L 3481 3500 
L 3481 434 
z
" transform="scale(0.015625)"/>
      </defs>
      <use xlink:href="#DejaVuSans-67"/>
      <use xlink:href="#DejaVuSans-5f" transform="translate(63.476562 0)"/>
      <use xlink:href="#DejaVuSans-78" transform="translate(113.476562 0)"/>
      <use xlink:href="#DejaVuSans-79" transform="translate(172.65625 0)"/>
      <use xlink:href="#DejaVuSans-28" transform="translate(231.835938 0)"/>
      <use xlink:href="#DejaVuSans-72" transform="translate(270.849609 0)"/>
      <use xlink:href="#DejaVuSans-29" transform="translate(311.962891 0)"/>
     </g>
    </g>
   </g>
   <g id="line2d_14">
    <path d="M 60.281165 140.256 
L 62.115371 261.216 
L 63.949578 212.0256 
L 65.783784 261.216 
L 67.617991 238.978909 
L 69.452197 261.216 
L 71.286404 239.082294 
L 73.12061 255.820235 
L 74.954817 261.216 
L 76.789023 248.341895 
L 78.623229 256.848 
L 80.457436 214.062724 
L 82.291642 225.859025 
L 84.125849 261.216 
L 85.960055 245.880075 
L 87.794262 242.04422 
L 89.628468 251.991273 
L 91.462675 254.7648 
L 93.296881 249.513789 
L 95.131088 261.216 
L 96.965294 252.979902 
L 98.799501 252.245581 
L 100.633707 261.216 
L 102.467914 251.550638 
L 104.30212 255.343792 
L 106.136327 247.903572 
L 107.970533 257.95818 
L 109.80474 243.560727 
L 111.638946 252.753301 
L 113.473152 249.949387 
L 115.307359 249.221151 
L 117.141565 251.957961 
L 118.975772 257.618824 
L 120.809978 252.216321 
L 122.644185 255.324972 
L 124.478391 253.268589 
L 126.312598 254.144518 
L 128.146804 255.597553 
L 129.981011 255.038631 
L 131.815217 249.786701 
L 133.649424 245.884444 
L 135.48363 249.285976 
L 137.317837 249.899194 
L 139.152043 249.648009 
L 140.98625 237.661311 
L 142.820456 224.828643 
L 144.654662 182.3616 
L 146.488869 185.428415 
L 148.323075 153.323995 
L 150.157282 127.883045 
L 151.991488 107.268172 
L 153.825695 119.105933 
L 155.659901 88.03757 
L 157.494108 76.185792 
L 159.328314 81.813706 
L 161.162521 73.908606 
L 162.996727 106.832415 
L 164.830934 77.712819 
L 166.66514 96.293478 
L 168.499347 112.914285 
L 170.333553 124.054024 
L 172.16776 118.24345 
L 174.001966 118.055391 
L 175.836172 105.694151 
L 177.670379 104.725299 
L 179.504585 94.903856 
L 181.338792 59.839964 
L 183.172998 134.091634 
L 185.007205 127.429706 
L 186.841411 110.77179 
L 188.675618 150.240754 
L 190.509824 167.205924 
L 192.344031 153.436977 
L 194.178237 123.606047 
L 196.012444 179.803223 
L 197.84665 170.056896 
L 199.680857 175.378244 
L 201.515063 158.143917 
L 203.34927 145.083853 
L 205.183476 163.265378 
L 207.017682 152.335977 
L 208.851889 165.245073 
L 210.686095 167.793305 
L 212.520302 178.081408 
L 214.354508 171.451617 
L 216.188715 153.357241 
L 218.022921 172.152205 
L 219.857128 140.04545 
L 221.691334 157.787274 
L 223.525541 149.709095 
L 225.359747 161.58004 
L 227.193954 157.933193 
L 229.02816 145.078236 
L 230.862367 162.493173 
L 232.696573 154.704777 
L 234.53078 154.780331 
L 236.364986 144.862296 
L 238.199193 148.690501 
L 240.033399 164.243829 
L 241.867605 154.052379 
L 243.701812 131.679007 
L 245.536018 149.955983 
L 247.370225 132.959453 
L 249.204431 137.836414 
L 251.038638 137.916145 
L 252.872844 146.368784 
L 254.707051 125.693495 
L 256.541257 150.053455 
L 258.375464 134.387567 
L 260.20967 116.934236 
L 262.043877 147.757352 
L 263.878083 130.007178 
L 265.71229 120.994919 
L 267.546496 151.304596 
L 269.380703 145.385373 
L 271.214909 166.059222 
L 273.049115 147.371157 
L 274.883322 149.044166 
L 276.717528 159.565422 
L 278.551735 159.463738 
L 280.385941 165.990145 
L 282.220148 180.25465 
L 284.054354 171.462639 
L 285.888561 149.575261 
L 287.722767 174.634014 
L 289.556974 155.61595 
L 291.39118 147.782575 
L 293.225387 165.154756 
L 295.059593 175.995241 
L 298.728006 156.189816 
L 300.562213 158.194406 
L 302.396419 169.581428 
L 304.230625 171.158491 
L 306.064832 144.146523 
L 307.899038 157.029681 
L 309.733245 144.914521 
L 311.567451 149.207726 
L 313.401658 135.115851 
L 315.235864 122.579652 
L 317.070071 133.602882 
L 318.904277 138.21437 
L 320.738484 128.436499 
L 322.57269 144.763744 
L 324.406897 146.60793 
L 326.241103 153.385719 
L 328.07531 158.146869 
L 329.909516 146.591176 
L 331.743723 148.446935 
L 333.577929 136.710388 
L 335.412135 142.118249 
L 337.246342 148.776777 
L 339.080548 144.345745 
L 340.914755 142.060488 
L 342.748961 146.917556 
L 344.583168 138.169073 
L 346.417374 136.745088 
L 348.251581 156.669348 
L 350.085787 158.297223 
L 351.919994 128.221544 
L 353.7542 143.05484 
L 355.588407 156.816475 
L 357.422613 145.445797 
L 359.25682 156.824131 
L 361.091026 151.469031 
L 362.925233 138.395691 
L 364.759439 152.091081 
L 366.593646 162.431567 
L 368.427852 144.467519 
L 370.262058 152.751771 
L 372.096265 157.689179 
L 373.930471 151.448258 
L 375.764678 146.785663 
L 377.598884 153.375895 
L 379.433091 153.712797 
L 381.267297 145.402502 
L 383.101504 146.043852 
L 384.93571 147.51124 
L 384.93571 147.51124 
" clip-path="url(#p0f8f689fa9)" style="fill: none; stroke: #ff7f0e; stroke-width: 1.5; stroke-linecap: square"/>
   </g>
   <g id="line2d_15">
    <path d="M 44.048438 152.073716 
L 401.168437 152.073716 
" clip-path="url(#p0f8f689fa9)" style="fill: none; stroke-dasharray: 5.55,2.4; stroke-dashoffset: 0; stroke: #000000; stroke-opacity: 0.4; stroke-width: 1.5"/>
   </g>
   <g id="patch_3">
    <path d="M 44.048438 273.312 
L 44.048438 7.2 
" style="fill: none; stroke: #000000; stroke-width: 0.8; stroke-linejoin: miter; stroke-linecap: square"/>
   </g>
   <g id="patch_4">
    <path d="M 401.168437 273.312 
L 401.168437 7.2 
" style="fill: none; stroke: #000000; stroke-width: 0.8; stroke-linejoin: miter; stroke-linecap: square"/>
   </g>
   <g id="patch_5">
    <path d="M 44.048438 273.312 
L 401.168438 273.312 
" style="fill: none; stroke: #000000; stroke-width: 0.8; stroke-linejoin: miter; stroke-linecap: square"/>
   </g>
   <g id="patch_6">
    <path d="M 44.048438 7.2 
L 401.168438 7.2 
" style="fill: none; stroke: #000000; stroke-width: 0.8; stroke-linejoin: miter; stroke-linecap: square"/>
   </g>
   <g id="legend_1">
    <g id="patch_7">
     <path d="M 328.0075 44.55625 
L 394.168438 44.55625 
Q 396.168438 44.55625 396.168438 42.55625 
L 396.168438 14.2 
Q 396.168438 12.2 394.168438 12.2 
L 328.0075 12.2 
Q 326.0075 12.2 326.0075 14.2 
L 326.0075 42.55625 
Q 326.0075 44.55625 328.0075 44.55625 
z
" style="fill: #ffffff; opacity: 0.8; stroke: #cccccc; stroke-linejoin: miter"/>
    </g>
    <g id="line2d_16">
     <path d="M 330.0075 20.298437 
L 340.0075 20.298437 
L 350.0075 20.298437 
" style="fill: none; stroke: #ff7f0e; stroke-width: 1.5; stroke-linecap: square"/>
    </g>
    <g id="text_16">
     <!-- Mean -->
     <g transform="translate(358.0075 23.798437) scale(0.1 -0.1)">
      <defs>
       <path id="DejaVuSans-4d" d="M 628 4666 
L 1569 4666 
L 2759 1491 
L 3956 4666 
L 4897 4666 
L 4897 0 
L 4281 0 
L 4281 4097 
L 3078 897 
L 2444 897 
L 1241 4097 
L 1241 0 
L 628 0 
L 628 4666 
z
" transform="scale(0.015625)"/>
       <path id="DejaVuSans-61" d="M 2194 1759 
Q 1497 1759 1228 1600 
Q 959 1441 959 1056 
Q 959 750 1161 570 
Q 1363 391 1709 391 
Q 2188 391 2477 730 
Q 2766 1069 2766 1631 
L 2766 1759 
L 2194 1759 
z
M 3341 1997 
L 3341 0 
L 2766 0 
L 2766 531 
Q 2569 213 2275 61 
Q 1981 -91 1556 -91 
Q 1019 -91 701 211 
Q 384 513 384 1019 
Q 384 1609 779 1909 
Q 1175 2209 1959 2209 
L 2766 2209 
L 2766 2266 
Q 2766 2663 2505 2880 
Q 2244 3097 1772 3097 
Q 1472 3097 1187 3025 
Q 903 2953 641 2809 
L 641 3341 
Q 956 3463 1253 3523 
Q 1550 3584 1831 3584 
Q 2591 3584 2966 3190 
Q 3341 2797 3341 1997 
z
" transform="scale(0.015625)"/>
      </defs>
      <use xlink:href="#DejaVuSans-4d"/>
      <use xlink:href="#DejaVuSans-65" transform="translate(86.279297 0)"/>
      <use xlink:href="#DejaVuSans-61" transform="translate(147.802734 0)"/>
      <use xlink:href="#DejaVuSans-6e" transform="translate(209.082031 0)"/>
     </g>
    </g>
    <g id="patch_8">
     <path d="M 330.0075 38.476562 
L 350.0075 38.476562 
L 350.0075 31.476562 
L 330.0075 31.476562 
z
" style="fill: #ff7f0e; fill-opacity: 0.3; stroke: #ff7f0e; stroke-opacity: 0.3; stroke-linejoin: miter"/>
    </g>
    <g id="text_17">
     <!-- Std Err -->
     <g transform="translate(358.0075 38.476562) scale(0.1 -0.1)">
      <defs>
       <path id="DejaVuSans-53" d="M 3425 4513 
L 3425 3897 
Q 3066 4069 2747 4153 
Q 2428 4238 2131 4238 
Q 1616 4238 1336 4038 
Q 1056 3838 1056 3469 
Q 1056 3159 1242 3001 
Q 1428 2844 1947 2747 
L 2328 2669 
Q 3034 2534 3370 2195 
Q 3706 1856 3706 1288 
Q 3706 609 3251 259 
Q 2797 -91 1919 -91 
Q 1588 -91 1214 -16 
Q 841 59 441 206 
L 441 856 
Q 825 641 1194 531 
Q 1563 422 1919 422 
Q 2459 422 2753 634 
Q 3047 847 3047 1241 
Q 3047 1584 2836 1778 
Q 2625 1972 2144 2069 
L 1759 2144 
Q 1053 2284 737 2584 
Q 422 2884 422 3419 
Q 422 4038 858 4394 
Q 1294 4750 2059 4750 
Q 2388 4750 2728 4690 
Q 3069 4631 3425 4513 
z
" transform="scale(0.015625)"/>
       <path id="DejaVuSans-45" d="M 628 4666 
L 3578 4666 
L 3578 4134 
L 1259 4134 
L 1259 2753 
L 3481 2753 
L 3481 2222 
L 1259 2222 
L 1259 531 
L 3634 531 
L 3634 0 
L 628 0 
L 628 4666 
z
" transform="scale(0.015625)"/>
      </defs>
      <use xlink:href="#DejaVuSans-53"/>
      <use xlink:href="#DejaVuSans-74" transform="translate(63.476562 0)"/>
      <use xlink:href="#DejaVuSans-64" transform="translate(102.685547 0)"/>
      <use xlink:href="#DejaVuSans-20" transform="translate(166.162109 0)"/>
      <use xlink:href="#DejaVuSans-45" transform="translate(197.949219 0)"/>
      <use xlink:href="#DejaVuSans-72" transform="translate(261.132812 0)"/>
      <use xlink:href="#DejaVuSans-72" transform="translate(300.496094 0)"/>
     </g>
    </g>
   </g>
  </g>
 </g>
 <defs>
  <clipPath id="p0f8f689fa9">
   <rect x="44.048438" y="7.2" width="357.12" height="266.112"/>
  </clipPath>
 </defs>
</svg>
