<?xml version="1.0" encoding="utf-8" standalone="no"?>
<!DOCTYPE svg PUBLIC "-//W3C//DTD SVG 1.1//EN"
  "http://www.w3.org/Graphics/SVG/1.1/DTD/svg11.dtd">
<svg xmlns:xlink="http://www.w3.org/1999/xlink" width="414.730937pt" height="311.146375pt" viewBox="0 0 414.730937 311.146375" xmlns="http://www.w3.org/2000/svg" version="1.1">
 <metadata>
  <rdf:RDF xmlns:dc="http://purl.org/dc/elements/1.1/" xmlns:cc="http://creativecommons.org/ns#" xmlns:rdf="http://www.w3.org/1999/02/22-rdf-syntax-ns#">
   <cc:Work>
    <dc:type rdf:resource="http://purl.org/dc/dcmitype/StillImage"/>
    <dc:date>2025-12-10T20:29:45.735915</dc:date>
    <dc:format>image/svg+xml</dc:format>
    <dc:creator>
     <cc:Agent>
      <dc:title>Matplotlib v3.10.5, https://matplotlib.org/</dc:title>
     </cc:Agent>
    </dc:creator>
   </cc:Work>
  </rdf:RDF>
 </metadata>
 <defs>
  <style type="text/css">*{stroke-linejoin: round; stroke-linecap: butt}</style>
 </defs>
 <g id="figure_1">
  <g id="patch_1">
   <path d="M 0 311.146375 
L 414.730937 311.146375 
L 414.730937 0 
L 0 0 
z
" style="fill: #ffffff"/>
  </g>
  <g id="axes_1">
   <g id="patch_2">
    <path d="M 50.410938 273.312 
L 407.530938 273.312 
L 407.530938 7.2 
L 50.410938 7.2 
z
" style="fill: #ffffff"/>
   </g>
   <g id="FillBetweenPolyCollection_1">
    <defs>
     <path id="m5e1c0eab68" d="M 66.643665 -49.930375 
L 66.643665 -49.930375 
L 68.477871 -49.930375 
L 70.312078 -49.930375 
L 72.146284 -49.930375 
L 73.980491 -49.930375 
L 75.814697 -49.930375 
L 77.648904 -49.930375 
L 79.48311 -72.831845 
L 81.317317 -71.214232 
L 83.151523 -68.656765 
L 84.985729 -49.930375 
L 86.819936 -49.930375 
L 88.654142 -110.791869 
L 90.488349 -74.363701 
L 92.322555 -58.720624 
L 94.156762 -79.993167 
L 95.990968 -61.948558 
L 97.825175 -89.993285 
L 99.659381 -111.069753 
L 101.493588 -79.135761 
L 103.327794 -78.260768 
L 105.162001 -78.289345 
L 106.996207 -67.9686 
L 108.830414 -83.264495 
L 110.66462 -72.287755 
L 112.498827 -88.418871 
L 114.333033 -71.79114 
L 116.16724 -49.930375 
L 118.001446 -61.16394 
L 119.835652 -69.968045 
L 121.669859 -66.001225 
L 123.504065 -69.315744 
L 125.338272 -55.854255 
L 127.172478 -74.060649 
L 129.006685 -74.012175 
L 130.840891 -52.955911 
L 132.675098 -64.164158 
L 134.509304 -58.275607 
L 136.343511 -54.770806 
L 138.177717 -67.080915 
L 140.011924 -52.294847 
L 141.84613 -66.472062 
L 143.680337 -77.008081 
L 145.514543 -58.813242 
L 147.34875 -82.47875 
L 149.182956 -116.840121 
L 151.017162 -106.453157 
L 152.851369 -117.455615 
L 154.685575 -139.929009 
L 156.519782 -124.097828 
L 158.353988 -200.530251 
L 160.188195 -209.511745 
L 162.022401 -186.606511 
L 163.856608 -201.094529 
L 165.690814 -172.354508 
L 167.525021 -200.931125 
L 169.359227 -191.873238 
L 171.193434 -204.79947 
L 173.02764 -192.739565 
L 174.861847 -205.625512 
L 176.696053 -173.181721 
L 178.53026 -142.209564 
L 180.364466 -222.028851 
L 182.198672 -173.424585 
L 184.032879 -166.419644 
L 185.867085 -175.047413 
L 187.701292 -156.660096 
L 189.535498 -148.224691 
L 191.369705 -171.294741 
L 193.203911 -132.591126 
L 195.038118 -173.958975 
L 196.872324 -165.376438 
L 198.706531 -154.992883 
L 200.540737 -169.748624 
L 202.374944 -180.271937 
L 204.20915 -171.72557 
L 206.043357 -149.323241 
L 207.877563 -123.678462 
L 209.71177 -127.241988 
L 211.545976 -190.362122 
L 213.380182 -159.564915 
L 215.214389 -204.962666 
L 217.048595 -155.621719 
L 218.882802 -170.593076 
L 220.717008 -165.785688 
L 222.551215 -160.24956 
L 224.385421 -172.199689 
L 226.219628 -158.311495 
L 228.053834 -159.570609 
L 229.888041 -166.273867 
L 231.722247 -156.855651 
L 233.556454 -154.062196 
L 235.39066 -168.096483 
L 237.224867 -160.694135 
L 239.059073 -112.700565 
L 240.89328 -152.392741 
L 242.727486 -144.968455 
L 244.561693 -159.642186 
L 246.395899 -150.618683 
L 248.230105 -154.016365 
L 250.064312 -144.435086 
L 251.898518 -158.319018 
L 253.732725 -158.772206 
L 255.566931 -154.50211 
L 257.401138 -154.626709 
L 259.235344 -154.687036 
L 261.069551 -158.461639 
L 262.903757 -155.125055 
L 264.737964 -164.877315 
L 266.57217 -178.259326 
L 268.406377 -161.326333 
L 270.240583 -195.485679 
L 272.07479 -166.579812 
L 273.908996 -172.065537 
L 275.743203 -155.991509 
L 277.577409 -192.322591 
L 279.411615 -181.570649 
L 281.245822 -163.522557 
L 283.080028 -172.443352 
L 284.914235 -182.857056 
L 286.748441 -176.822017 
L 288.582648 -159.007098 
L 290.416854 -165.851308 
L 292.251061 -151.578014 
L 294.085267 -168.918054 
L 295.919474 -159.588757 
L 297.75368 -128.243014 
L 299.587887 -148.95245 
L 301.422093 -138.734219 
L 303.2563 -181.505354 
L 305.090506 -151.589574 
L 306.924713 -178.978173 
L 308.758919 -147.220459 
L 310.593125 -173.626248 
L 312.427332 -148.378442 
L 314.261538 -139.176612 
L 316.095745 -178.520045 
L 317.929951 -150.954397 
L 319.764158 -159.223578 
L 321.598364 -167.41342 
L 323.432571 -147.768005 
L 325.266777 -161.860873 
L 327.100984 -156.095088 
L 328.93519 -173.39459 
L 330.769397 -189.679587 
L 332.603603 -156.656483 
L 334.43781 -172.755072 
L 336.272016 -158.839714 
L 338.106223 -162.511628 
L 339.940429 -163.58672 
L 341.774635 -137.948109 
L 343.608842 -172.554862 
L 345.443048 -165.667856 
L 347.277255 -154.04164 
L 349.111461 -171.580037 
L 350.945668 -169.701483 
L 352.779874 -181.074494 
L 354.614081 -177.155049 
L 356.448287 -190.40913 
L 358.282494 -166.952192 
L 360.1167 -173.833259 
L 361.950907 -147.527262 
L 363.785113 -192.57103 
L 365.61932 -155.068523 
L 367.453526 -161.597983 
L 369.287733 -179.311991 
L 371.121939 -158.128608 
L 372.956146 -170.213523 
L 374.790352 -167.127247 
L 376.624558 -160.374352 
L 378.458765 -141.459661 
L 380.292971 -149.063685 
L 382.127178 -157.138133 
L 383.961384 -168.927422 
L 385.795591 -173.627294 
L 387.629797 -151.158867 
L 389.464004 -145.285699 
L 391.29821 -158.23874 
L 391.29821 -179.034307 
L 391.29821 -179.034307 
L 389.464004 -156.671615 
L 387.629797 -191.12539 
L 385.795591 -188.292485 
L 383.961384 -190.441186 
L 382.127178 -186.459693 
L 380.292971 -171.321851 
L 378.458765 -166.777775 
L 376.624558 -184.773391 
L 374.790352 -196.346147 
L 372.956146 -189.966919 
L 371.121939 -207.106979 
L 369.287733 -204.32508 
L 367.453526 -182.231269 
L 365.61932 -187.713382 
L 363.785113 -207.272293 
L 361.950907 -164.443069 
L 360.1167 -209.495398 
L 358.282494 -188.539545 
L 356.448287 -217.380201 
L 354.614081 -247.509938 
L 352.779874 -199.697045 
L 350.945668 -198.875898 
L 349.111461 -188.852202 
L 347.277255 -179.845234 
L 345.443048 -204.805067 
L 343.608842 -196.467593 
L 341.774635 -178.793028 
L 339.940429 -179.127286 
L 338.106223 -185.622294 
L 336.272016 -185.746231 
L 334.43781 -186.219744 
L 332.603603 -206.774289 
L 330.769397 -206.952487 
L 328.93519 -192.112678 
L 327.100984 -190.350041 
L 325.266777 -205.718802 
L 323.432571 -170.226182 
L 321.598364 -191.7567 
L 319.764158 -179.089575 
L 317.929951 -187.87915 
L 316.095745 -186.242858 
L 314.261538 -171.215331 
L 312.427332 -176.452694 
L 310.593125 -221.127663 
L 308.758919 -177.558222 
L 306.924713 -206.689682 
L 305.090506 -184.344767 
L 303.2563 -200.283248 
L 301.422093 -150.758003 
L 299.587887 -195.556857 
L 297.75368 -166.191216 
L 295.919474 -177.94387 
L 294.085267 -192.82971 
L 292.251061 -188.284973 
L 290.416854 -178.771609 
L 288.582648 -204.535278 
L 286.748441 -215.4784 
L 284.914235 -218.74246 
L 283.080028 -203.947256 
L 281.245822 -182.438467 
L 279.411615 -200.999287 
L 277.577409 -223.52352 
L 275.743203 -187.222726 
L 273.908996 -223.5301 
L 272.07479 -188.944428 
L 270.240583 -247.19661 
L 268.406377 -209.033256 
L 266.57217 -201.50583 
L 264.737964 -188.723599 
L 262.903757 -191.719072 
L 261.069551 -196.942856 
L 259.235344 -170.526278 
L 257.401138 -174.278456 
L 255.566931 -202.493317 
L 253.732725 -196.478936 
L 251.898518 -218.487387 
L 250.064312 -166.004044 
L 248.230105 -176.204398 
L 246.395899 -193.130544 
L 244.561693 -193.701866 
L 242.727486 -173.060226 
L 240.89328 -191.007355 
L 239.059073 -142.832618 
L 237.224867 -191.529218 
L 235.39066 -217.082088 
L 233.556454 -192.0692 
L 231.722247 -181.386398 
L 229.888041 -210.034099 
L 228.053834 -200.366204 
L 226.219628 -168.605935 
L 224.385421 -203.454076 
L 222.551215 -196.557104 
L 220.717008 -221.262605 
L 218.882802 -225.843466 
L 217.048595 -196.486469 
L 215.214389 -231.795169 
L 213.380182 -197.549834 
L 211.545976 -245.693414 
L 209.71177 -178.620627 
L 207.877563 -179.725037 
L 206.043357 -194.408604 
L 204.20915 -221.212916 
L 202.374944 -240.690934 
L 200.540737 -201.813711 
L 198.706531 -209.386566 
L 196.872324 -236.25765 
L 195.038118 -201.091308 
L 193.203911 -205.728565 
L 191.369705 -223.531127 
L 189.535498 -221.503446 
L 187.701292 -223.015766 
L 185.867085 -230.680317 
L 184.032879 -231.933861 
L 182.198672 -221.686115 
L 180.364466 -261.929079 
L 178.53026 -191.029268 
L 176.696053 -198.425655 
L 174.861847 -267.913475 
L 173.02764 -213.149586 
L 171.193434 -291.850375 
L 169.359227 -230.842467 
L 167.525021 -277.225299 
L 165.690814 -230.238156 
L 163.856608 -222.854921 
L 162.022401 -254.491542 
L 160.188195 -263.43186 
L 158.353988 -282.841911 
L 156.519782 -227.898096 
L 154.685575 -166.751602 
L 152.851369 -147.540727 
L 151.017162 -136.328593 
L 149.182956 -137.061684 
L 147.34875 -122.640613 
L 145.514543 -67.289308 
L 143.680337 -88.893096 
L 141.84613 -89.558441 
L 140.011924 -59.927682 
L 138.177717 -103.427266 
L 136.343511 -68.339974 
L 134.509304 -76.572842 
L 132.675098 -77.099596 
L 130.840891 -62.516184 
L 129.006685 -105.702457 
L 127.172478 -133.216113 
L 125.338272 -75.522603 
L 123.504065 -86.898716 
L 121.669859 -90.060991 
L 119.835652 -99.464611 
L 118.001446 -87.873871 
L 116.16724 -59.943415 
L 114.333033 -104.401413 
L 112.498827 -143.91194 
L 110.66462 -89.869501 
L 108.830414 -130.53114 
L 106.996207 -85.116673 
L 105.162001 -111.175148 
L 103.327794 -140.33619 
L 101.493588 -91.597881 
L 99.659381 -236.697533 
L 97.825175 -151.781217 
L 95.990968 -151.418968 
L 94.156762 -131.194976 
L 92.322555 -71.016286 
L 90.488349 -111.180602 
L 88.654142 -170.045359 
L 86.819936 -61.920807 
L 84.985729 -71.658492 
L 83.151523 -151.096969 
L 81.317317 -107.496149 
L 79.48311 -128.834185 
L 77.648904 -135.728579 
L 75.814697 -90.892813 
L 73.980491 -80.572591 
L 72.146284 -49.930375 
L 70.312078 -49.930375 
L 68.477871 -141.857022 
L 66.643665 -49.930375 
z
" style="stroke: #ff7f0e; stroke-opacity: 0.3"/>
    </defs>
    <g clip-path="url(#p533b5d400f)">
     <use xlink:href="#m5e1c0eab68" x="0" y="311.146375" style="fill: #ff7f0e; fill-opacity: 0.3; stroke: #ff7f0e; stroke-opacity: 0.3"/>
    </g>
   </g>
   <g id="matplotlib.axis_1">
    <g id="xtick_1">
     <g id="line2d_1">
      <defs>
       <path id="m5e9262527d" d="M 0 0 
L 0 3.5 
" style="stroke: #000000; stroke-width: 0.8"/>
      </defs>
      <g>
       <use xlink:href="#m5e9262527d" x="65.726562" y="273.312" style="stroke: #000000; stroke-width: 0.8"/>
      </g>
     </g>
     <g id="text_1">
      <!-- 0.0 -->
      <g transform="translate(57.774999 287.910437) scale(0.1 -0.1)">
       <defs>
        <path id="DejaVuSans-30" d="M 2034 4250 
Q 1547 4250 1301 3770 
Q 1056 3291 1056 2328 
Q 1056 1369 1301 889 
Q 1547 409 2034 409 
Q 2525 409 2770 889 
Q 3016 1369 3016 2328 
Q 3016 3291 2770 3770 
Q 2525 4250 2034 4250 
z
M 2034 4750 
Q 2819 4750 3233 4129 
Q 3647 3509 3647 2328 
Q 3647 1150 3233 529 
Q 2819 -91 2034 -91 
Q 1250 -91 836 529 
Q 422 1150 422 2328 
Q 422 3509 836 4129 
Q 1250 4750 2034 4750 
z
" transform="scale(0.015625)"/>
        <path id="DejaVuSans-2e" d="M 684 794 
L 1344 794 
L 1344 0 
L 684 0 
L 684 794 
z
" transform="scale(0.015625)"/>
       </defs>
       <use xlink:href="#DejaVuSans-30"/>
       <use xlink:href="#DejaVuSans-2e" transform="translate(63.623047 0)"/>
       <use xlink:href="#DejaVuSans-30" transform="translate(95.410156 0)"/>
      </g>
     </g>
    </g>
    <g id="xtick_2">
     <g id="line2d_2">
      <g>
       <use xlink:href="#m5e9262527d" x="111.581723" y="273.312" style="stroke: #000000; stroke-width: 0.8"/>
      </g>
     </g>
     <g id="text_2">
      <!-- 0.5 -->
      <g transform="translate(103.630161 287.910437) scale(0.1 -0.1)">
       <defs>
        <path id="DejaVuSans-35" d="M 691 4666 
L 3169 4666 
L 3169 4134 
L 1269 4134 
L 1269 2991 
Q 1406 3038 1543 3061 
Q 1681 3084 1819 3084 
Q 2600 3084 3056 2656 
Q 3513 2228 3513 1497 
Q 3513 744 3044 326 
Q 2575 -91 1722 -91 
Q 1428 -91 1123 -41 
Q 819 9 494 109 
L 494 744 
Q 775 591 1075 516 
Q 1375 441 1709 441 
Q 2250 441 2565 725 
Q 2881 1009 2881 1497 
Q 2881 1984 2565 2268 
Q 2250 2553 1709 2553 
Q 1456 2553 1204 2497 
Q 953 2441 691 2322 
L 691 4666 
z
" transform="scale(0.015625)"/>
       </defs>
       <use xlink:href="#DejaVuSans-30"/>
       <use xlink:href="#DejaVuSans-2e" transform="translate(63.623047 0)"/>
       <use xlink:href="#DejaVuSans-35" transform="translate(95.410156 0)"/>
      </g>
     </g>
    </g>
    <g id="xtick_3">
     <g id="line2d_3">
      <g>
       <use xlink:href="#m5e9262527d" x="157.436885" y="273.312" style="stroke: #000000; stroke-width: 0.8"/>
      </g>
     </g>
     <g id="text_3">
      <!-- 1.0 -->
      <g transform="translate(149.485323 287.910437) scale(0.1 -0.1)">
       <defs>
        <path id="DejaVuSans-31" d="M 794 531 
L 1825 531 
L 1825 4091 
L 703 3866 
L 703 4441 
L 1819 4666 
L 2450 4666 
L 2450 531 
L 3481 531 
L 3481 0 
L 794 0 
L 794 531 
z
" transform="scale(0.015625)"/>
       </defs>
       <use xlink:href="#DejaVuSans-31"/>
       <use xlink:href="#DejaVuSans-2e" transform="translate(63.623047 0)"/>
       <use xlink:href="#DejaVuSans-30" transform="translate(95.410156 0)"/>
      </g>
     </g>
    </g>
    <g id="xtick_4">
     <g id="line2d_4">
      <g>
       <use xlink:href="#m5e9262527d" x="203.292047" y="273.312" style="stroke: #000000; stroke-width: 0.8"/>
      </g>
     </g>
     <g id="text_4">
      <!-- 1.5 -->
      <g transform="translate(195.340484 287.910437) scale(0.1 -0.1)">
       <use xlink:href="#DejaVuSans-31"/>
       <use xlink:href="#DejaVuSans-2e" transform="translate(63.623047 0)"/>
       <use xlink:href="#DejaVuSans-35" transform="translate(95.410156 0)"/>
      </g>
     </g>
    </g>
    <g id="xtick_5">
     <g id="line2d_5">
      <g>
       <use xlink:href="#m5e9262527d" x="249.147209" y="273.312" style="stroke: #000000; stroke-width: 0.8"/>
      </g>
     </g>
     <g id="text_5">
      <!-- 2.0 -->
      <g transform="translate(241.195646 287.910437) scale(0.1 -0.1)">
       <defs>
        <path id="DejaVuSans-32" d="M 1228 531 
L 3431 531 
L 3431 0 
L 469 0 
L 469 531 
Q 828 903 1448 1529 
Q 2069 2156 2228 2338 
Q 2531 2678 2651 2914 
Q 2772 3150 2772 3378 
Q 2772 3750 2511 3984 
Q 2250 4219 1831 4219 
Q 1534 4219 1204 4116 
Q 875 4013 500 3803 
L 500 4441 
Q 881 4594 1212 4672 
Q 1544 4750 1819 4750 
Q 2544 4750 2975 4387 
Q 3406 4025 3406 3419 
Q 3406 3131 3298 2873 
Q 3191 2616 2906 2266 
Q 2828 2175 2409 1742 
Q 1991 1309 1228 531 
z
" transform="scale(0.015625)"/>
       </defs>
       <use xlink:href="#DejaVuSans-32"/>
       <use xlink:href="#DejaVuSans-2e" transform="translate(63.623047 0)"/>
       <use xlink:href="#DejaVuSans-30" transform="translate(95.410156 0)"/>
      </g>
     </g>
    </g>
    <g id="xtick_6">
     <g id="line2d_6">
      <g>
       <use xlink:href="#m5e9262527d" x="295.00237" y="273.312" style="stroke: #000000; stroke-width: 0.8"/>
      </g>
     </g>
     <g id="text_6">
      <!-- 2.5 -->
      <g transform="translate(287.050808 287.910437) scale(0.1 -0.1)">
       <use xlink:href="#DejaVuSans-32"/>
       <use xlink:href="#DejaVuSans-2e" transform="translate(63.623047 0)"/>
       <use xlink:href="#DejaVuSans-35" transform="translate(95.410156 0)"/>
      </g>
     </g>
    </g>
    <g id="xtick_7">
     <g id="line2d_7">
      <g>
       <use xlink:href="#m5e9262527d" x="340.857532" y="273.312" style="stroke: #000000; stroke-width: 0.8"/>
      </g>
     </g>
     <g id="text_7">
      <!-- 3.0 -->
      <g transform="translate(332.90597 287.910437) scale(0.1 -0.1)">
       <defs>
        <path id="DejaVuSans-33" d="M 2597 2516 
Q 3050 2419 3304 2112 
Q 3559 1806 3559 1356 
Q 3559 666 3084 287 
Q 2609 -91 1734 -91 
Q 1441 -91 1130 -33 
Q 819 25 488 141 
L 488 750 
Q 750 597 1062 519 
Q 1375 441 1716 441 
Q 2309 441 2620 675 
Q 2931 909 2931 1356 
Q 2931 1769 2642 2001 
Q 2353 2234 1838 2234 
L 1294 2234 
L 1294 2753 
L 1863 2753 
Q 2328 2753 2575 2939 
Q 2822 3125 2822 3475 
Q 2822 3834 2567 4026 
Q 2313 4219 1838 4219 
Q 1578 4219 1281 4162 
Q 984 4106 628 3988 
L 628 4550 
Q 988 4650 1302 4700 
Q 1616 4750 1894 4750 
Q 2613 4750 3031 4423 
Q 3450 4097 3450 3541 
Q 3450 3153 3228 2886 
Q 3006 2619 2597 2516 
z
" transform="scale(0.015625)"/>
       </defs>
       <use xlink:href="#DejaVuSans-33"/>
       <use xlink:href="#DejaVuSans-2e" transform="translate(63.623047 0)"/>
       <use xlink:href="#DejaVuSans-30" transform="translate(95.410156 0)"/>
      </g>
     </g>
    </g>
    <g id="xtick_8">
     <g id="line2d_8">
      <g>
       <use xlink:href="#m5e9262527d" x="386.712694" y="273.312" style="stroke: #000000; stroke-width: 0.8"/>
      </g>
     </g>
     <g id="text_8">
      <!-- 3.5 -->
      <g transform="translate(378.761132 287.910437) scale(0.1 -0.1)">
       <use xlink:href="#DejaVuSans-33"/>
       <use xlink:href="#DejaVuSans-2e" transform="translate(63.623047 0)"/>
       <use xlink:href="#DejaVuSans-35" transform="translate(95.410156 0)"/>
      </g>
     </g>
    </g>
    <g id="text_9">
     <!-- r_xy (reduced units) -->
     <g transform="translate(178.763125 301.588562) scale(0.1 -0.1)">
      <defs>
       <path id="DejaVuSans-72" d="M 2631 2963 
Q 2534 3019 2420 3045 
Q 2306 3072 2169 3072 
Q 1681 3072 1420 2755 
Q 1159 2438 1159 1844 
L 1159 0 
L 581 0 
L 581 3500 
L 1159 3500 
L 1159 2956 
Q 1341 3275 1631 3429 
Q 1922 3584 2338 3584 
Q 2397 3584 2469 3576 
Q 2541 3569 2628 3553 
L 2631 2963 
z
" transform="scale(0.015625)"/>
       <path id="DejaVuSans-5f" d="M 3263 -1063 
L 3263 -1509 
L -63 -1509 
L -63 -1063 
L 3263 -1063 
z
" transform="scale(0.015625)"/>
       <path id="DejaVuSans-78" d="M 3513 3500 
L 2247 1797 
L 3578 0 
L 2900 0 
L 1881 1375 
L 863 0 
L 184 0 
L 1544 1831 
L 300 3500 
L 978 3500 
L 1906 2253 
L 2834 3500 
L 3513 3500 
z
" transform="scale(0.015625)"/>
       <path id="DejaVuSans-79" d="M 2059 -325 
Q 1816 -950 1584 -1140 
Q 1353 -1331 966 -1331 
L 506 -1331 
L 506 -850 
L 844 -850 
Q 1081 -850 1212 -737 
Q 1344 -625 1503 -206 
L 1606 56 
L 191 3500 
L 800 3500 
L 1894 763 
L 2988 3500 
L 3597 3500 
L 2059 -325 
z
" transform="scale(0.015625)"/>
       <path id="DejaVuSans-20" transform="scale(0.015625)"/>
       <path id="DejaVuSans-28" d="M 1984 4856 
Q 1566 4138 1362 3434 
Q 1159 2731 1159 2009 
Q 1159 1288 1364 580 
Q 1569 -128 1984 -844 
L 1484 -844 
Q 1016 -109 783 600 
Q 550 1309 550 2009 
Q 550 2706 781 3412 
Q 1013 4119 1484 4856 
L 1984 4856 
z
" transform="scale(0.015625)"/>
       <path id="DejaVuSans-65" d="M 3597 1894 
L 3597 1613 
L 953 1613 
Q 991 1019 1311 708 
Q 1631 397 2203 397 
Q 2534 397 2845 478 
Q 3156 559 3463 722 
L 3463 178 
Q 3153 47 2828 -22 
Q 2503 -91 2169 -91 
Q 1331 -91 842 396 
Q 353 884 353 1716 
Q 353 2575 817 3079 
Q 1281 3584 2069 3584 
Q 2775 3584 3186 3129 
Q 3597 2675 3597 1894 
z
M 3022 2063 
Q 3016 2534 2758 2815 
Q 2500 3097 2075 3097 
Q 1594 3097 1305 2825 
Q 1016 2553 972 2059 
L 3022 2063 
z
" transform="scale(0.015625)"/>
       <path id="DejaVuSans-64" d="M 2906 2969 
L 2906 4863 
L 3481 4863 
L 3481 0 
L 2906 0 
L 2906 525 
Q 2725 213 2448 61 
Q 2172 -91 1784 -91 
Q 1150 -91 751 415 
Q 353 922 353 1747 
Q 353 2572 751 3078 
Q 1150 3584 1784 3584 
Q 2172 3584 2448 3432 
Q 2725 3281 2906 2969 
z
M 947 1747 
Q 947 1113 1208 752 
Q 1469 391 1925 391 
Q 2381 391 2643 752 
Q 2906 1113 2906 1747 
Q 2906 2381 2643 2742 
Q 2381 3103 1925 3103 
Q 1469 3103 1208 2742 
Q 947 2381 947 1747 
z
" transform="scale(0.015625)"/>
       <path id="DejaVuSans-75" d="M 544 1381 
L 544 3500 
L 1119 3500 
L 1119 1403 
Q 1119 906 1312 657 
Q 1506 409 1894 409 
Q 2359 409 2629 706 
Q 2900 1003 2900 1516 
L 2900 3500 
L 3475 3500 
L 3475 0 
L 2900 0 
L 2900 538 
Q 2691 219 2414 64 
Q 2138 -91 1772 -91 
Q 1169 -91 856 284 
Q 544 659 544 1381 
z
M 1991 3584 
L 1991 3584 
z
" transform="scale(0.015625)"/>
       <path id="DejaVuSans-63" d="M 3122 3366 
L 3122 2828 
Q 2878 2963 2633 3030 
Q 2388 3097 2138 3097 
Q 1578 3097 1268 2742 
Q 959 2388 959 1747 
Q 959 1106 1268 751 
Q 1578 397 2138 397 
Q 2388 397 2633 464 
Q 2878 531 3122 666 
L 3122 134 
Q 2881 22 2623 -34 
Q 2366 -91 2075 -91 
Q 1284 -91 818 406 
Q 353 903 353 1747 
Q 353 2603 823 3093 
Q 1294 3584 2113 3584 
Q 2378 3584 2631 3529 
Q 2884 3475 3122 3366 
z
" transform="scale(0.015625)"/>
       <path id="DejaVuSans-6e" d="M 3513 2113 
L 3513 0 
L 2938 0 
L 2938 2094 
Q 2938 2591 2744 2837 
Q 2550 3084 2163 3084 
Q 1697 3084 1428 2787 
Q 1159 2491 1159 1978 
L 1159 0 
L 581 0 
L 581 3500 
L 1159 3500 
L 1159 2956 
Q 1366 3272 1645 3428 
Q 1925 3584 2291 3584 
Q 2894 3584 3203 3211 
Q 3513 2838 3513 2113 
z
" transform="scale(0.015625)"/>
       <path id="DejaVuSans-69" d="M 603 3500 
L 1178 3500 
L 1178 0 
L 603 0 
L 603 3500 
z
M 603 4863 
L 1178 4863 
L 1178 4134 
L 603 4134 
L 603 4863 
z
" transform="scale(0.015625)"/>
       <path id="DejaVuSans-74" d="M 1172 4494 
L 1172 3500 
L 2356 3500 
L 2356 3053 
L 1172 3053 
L 1172 1153 
Q 1172 725 1289 603 
Q 1406 481 1766 481 
L 2356 481 
L 2356 0 
L 1766 0 
Q 1100 0 847 248 
Q 594 497 594 1153 
L 594 3053 
L 172 3053 
L 172 3500 
L 594 3500 
L 594 4494 
L 1172 4494 
z
" transform="scale(0.015625)"/>
       <path id="DejaVuSans-73" d="M 2834 3397 
L 2834 2853 
Q 2591 2978 2328 3040 
Q 2066 3103 1784 3103 
Q 1356 3103 1142 2972 
Q 928 2841 928 2578 
Q 928 2378 1081 2264 
Q 1234 2150 1697 2047 
L 1894 2003 
Q 2506 1872 2764 1633 
Q 3022 1394 3022 966 
Q 3022 478 2636 193 
Q 2250 -91 1575 -91 
Q 1294 -91 989 -36 
Q 684 19 347 128 
L 347 722 
Q 666 556 975 473 
Q 1284 391 1588 391 
Q 1994 391 2212 530 
Q 2431 669 2431 922 
Q 2431 1156 2273 1281 
Q 2116 1406 1581 1522 
L 1381 1569 
Q 847 1681 609 1914 
Q 372 2147 372 2553 
Q 372 3047 722 3315 
Q 1072 3584 1716 3584 
Q 2034 3584 2315 3537 
Q 2597 3491 2834 3397 
z
" transform="scale(0.015625)"/>
       <path id="DejaVuSans-29" d="M 513 4856 
L 1013 4856 
Q 1481 4119 1714 3412 
Q 1947 2706 1947 2009 
Q 1947 1309 1714 600 
Q 1481 -109 1013 -844 
L 513 -844 
Q 928 -128 1133 580 
Q 1338 1288 1338 2009 
Q 1338 2731 1133 3434 
Q 928 4138 513 4856 
z
" transform="scale(0.015625)"/>
      </defs>
      <use xlink:href="#DejaVuSans-72"/>
      <use xlink:href="#DejaVuSans-5f" transform="translate(41.113281 0)"/>
      <use xlink:href="#DejaVuSans-78" transform="translate(91.113281 0)"/>
      <use xlink:href="#DejaVuSans-79" transform="translate(150.292969 0)"/>
      <use xlink:href="#DejaVuSans-20" transform="translate(209.472656 0)"/>
      <use xlink:href="#DejaVuSans-28" transform="translate(241.259766 0)"/>
      <use xlink:href="#DejaVuSans-72" transform="translate(280.273438 0)"/>
      <use xlink:href="#DejaVuSans-65" transform="translate(319.136719 0)"/>
      <use xlink:href="#DejaVuSans-64" transform="translate(380.660156 0)"/>
      <use xlink:href="#DejaVuSans-75" transform="translate(444.136719 0)"/>
      <use xlink:href="#DejaVuSans-63" transform="translate(507.515625 0)"/>
      <use xlink:href="#DejaVuSans-65" transform="translate(562.496094 0)"/>
      <use xlink:href="#DejaVuSans-64" transform="translate(624.019531 0)"/>
      <use xlink:href="#DejaVuSans-20" transform="translate(687.496094 0)"/>
      <use xlink:href="#DejaVuSans-75" transform="translate(719.283203 0)"/>
      <use xlink:href="#DejaVuSans-6e" transform="translate(782.662109 0)"/>
      <use xlink:href="#DejaVuSans-69" transform="translate(846.041016 0)"/>
      <use xlink:href="#DejaVuSans-74" transform="translate(873.824219 0)"/>
      <use xlink:href="#DejaVuSans-73" transform="translate(913.033203 0)"/>
      <use xlink:href="#DejaVuSans-29" transform="translate(965.132812 0)"/>
     </g>
    </g>
   </g>
   <g id="matplotlib.axis_2">
    <g id="ytick_1">
     <g id="line2d_9">
      <defs>
       <path id="m1db987b6f1" d="M 0 0 
L -3.5 0 
" style="stroke: #000000; stroke-width: 0.8"/>
      </defs>
      <g>
       <use xlink:href="#m1db987b6f1" x="50.410938" y="261.216" style="stroke: #000000; stroke-width: 0.8"/>
      </g>
     </g>
     <g id="text_10">
      <!-- 0.00 -->
      <g transform="translate(21.145313 265.015219) scale(0.1 -0.1)">
       <use xlink:href="#DejaVuSans-30"/>
       <use xlink:href="#DejaVuSans-2e" transform="translate(63.623047 0)"/>
       <use xlink:href="#DejaVuSans-30" transform="translate(95.410156 0)"/>
       <use xlink:href="#DejaVuSans-30" transform="translate(159.033203 0)"/>
      </g>
     </g>
    </g>
    <g id="ytick_2">
     <g id="line2d_10">
      <g>
       <use xlink:href="#m1db987b6f1" x="50.410938" y="230.500255" style="stroke: #000000; stroke-width: 0.8"/>
      </g>
     </g>
     <g id="text_11">
      <!-- 0.25 -->
      <g transform="translate(21.145313 234.299474) scale(0.1 -0.1)">
       <use xlink:href="#DejaVuSans-30"/>
       <use xlink:href="#DejaVuSans-2e" transform="translate(63.623047 0)"/>
       <use xlink:href="#DejaVuSans-32" transform="translate(95.410156 0)"/>
       <use xlink:href="#DejaVuSans-35" transform="translate(159.033203 0)"/>
      </g>
     </g>
    </g>
    <g id="ytick_3">
     <g id="line2d_11">
      <g>
       <use xlink:href="#m1db987b6f1" x="50.410938" y="199.78451" style="stroke: #000000; stroke-width: 0.8"/>
      </g>
     </g>
     <g id="text_12">
      <!-- 0.50 -->
      <g transform="translate(21.145313 203.583729) scale(0.1 -0.1)">
       <use xlink:href="#DejaVuSans-30"/>
       <use xlink:href="#DejaVuSans-2e" transform="translate(63.623047 0)"/>
       <use xlink:href="#DejaVuSans-35" transform="translate(95.410156 0)"/>
       <use xlink:href="#DejaVuSans-30" transform="translate(159.033203 0)"/>
      </g>
     </g>
    </g>
    <g id="ytick_4">
     <g id="line2d_12">
      <g>
       <use xlink:href="#m1db987b6f1" x="50.410938" y="169.068765" style="stroke: #000000; stroke-width: 0.8"/>
      </g>
     </g>
     <g id="text_13">
      <!-- 0.75 -->
      <g transform="translate(21.145313 172.867984) scale(0.1 -0.1)">
       <defs>
        <path id="DejaVuSans-37" d="M 525 4666 
L 3525 4666 
L 3525 4397 
L 1831 0 
L 1172 0 
L 2766 4134 
L 525 4134 
L 525 4666 
z
" transform="scale(0.015625)"/>
       </defs>
       <use xlink:href="#DejaVuSans-30"/>
       <use xlink:href="#DejaVuSans-2e" transform="translate(63.623047 0)"/>
       <use xlink:href="#DejaVuSans-37" transform="translate(95.410156 0)"/>
       <use xlink:href="#DejaVuSans-35" transform="translate(159.033203 0)"/>
      </g>
     </g>
    </g>
    <g id="ytick_5">
     <g id="line2d_13">
      <g>
       <use xlink:href="#m1db987b6f1" x="50.410938" y="138.35302" style="stroke: #000000; stroke-width: 0.8"/>
      </g>
     </g>
     <g id="text_14">
      <!-- 1.00 -->
      <g transform="translate(21.145313 142.152239) scale(0.1 -0.1)">
       <use xlink:href="#DejaVuSans-31"/>
       <use xlink:href="#DejaVuSans-2e" transform="translate(63.623047 0)"/>
       <use xlink:href="#DejaVuSans-30" transform="translate(95.410156 0)"/>
       <use xlink:href="#DejaVuSans-30" transform="translate(159.033203 0)"/>
      </g>
     </g>
    </g>
    <g id="ytick_6">
     <g id="line2d_14">
      <g>
       <use xlink:href="#m1db987b6f1" x="50.410938" y="107.637275" style="stroke: #000000; stroke-width: 0.8"/>
      </g>
     </g>
     <g id="text_15">
      <!-- 1.25 -->
      <g transform="translate(21.145313 111.436494) scale(0.1 -0.1)">
       <use xlink:href="#DejaVuSans-31"/>
       <use xlink:href="#DejaVuSans-2e" transform="translate(63.623047 0)"/>
       <use xlink:href="#DejaVuSans-32" transform="translate(95.410156 0)"/>
       <use xlink:href="#DejaVuSans-35" transform="translate(159.033203 0)"/>
      </g>
     </g>
    </g>
    <g id="ytick_7">
     <g id="line2d_15">
      <g>
       <use xlink:href="#m1db987b6f1" x="50.410938" y="76.92153" style="stroke: #000000; stroke-width: 0.8"/>
      </g>
     </g>
     <g id="text_16">
      <!-- 1.50 -->
      <g transform="translate(21.145313 80.720749) scale(0.1 -0.1)">
       <use xlink:href="#DejaVuSans-31"/>
       <use xlink:href="#DejaVuSans-2e" transform="translate(63.623047 0)"/>
       <use xlink:href="#DejaVuSans-35" transform="translate(95.410156 0)"/>
       <use xlink:href="#DejaVuSans-30" transform="translate(159.033203 0)"/>
      </g>
     </g>
    </g>
    <g id="ytick_8">
     <g id="line2d_16">
      <g>
       <use xlink:href="#m1db987b6f1" x="50.410938" y="46.205785" style="stroke: #000000; stroke-width: 0.8"/>
      </g>
     </g>
     <g id="text_17">
      <!-- 1.75 -->
      <g transform="translate(21.145313 50.005004) scale(0.1 -0.1)">
       <use xlink:href="#DejaVuSans-31"/>
       <use xlink:href="#DejaVuSans-2e" transform="translate(63.623047 0)"/>
       <use xlink:href="#DejaVuSans-37" transform="translate(95.410156 0)"/>
       <use xlink:href="#DejaVuSans-35" transform="translate(159.033203 0)"/>
      </g>
     </g>
    </g>
    <g id="ytick_9">
     <g id="line2d_17">
      <g>
       <use xlink:href="#m1db987b6f1" x="50.410938" y="15.49004" style="stroke: #000000; stroke-width: 0.8"/>
      </g>
     </g>
     <g id="text_18">
      <!-- 2.00 -->
      <g transform="translate(21.145313 19.289259) scale(0.1 -0.1)">
       <use xlink:href="#DejaVuSans-32"/>
       <use xlink:href="#DejaVuSans-2e" transform="translate(63.623047 0)"/>
       <use xlink:href="#DejaVuSans-30" transform="translate(95.410156 0)"/>
       <use xlink:href="#DejaVuSans-30" transform="translate(159.033203 0)"/>
      </g>
     </g>
    </g>
    <g id="text_19">
     <!-- g_xy(r) -->
     <g transform="translate(14.7875 157.806) rotate(-90) scale(0.1 -0.1)">
      <defs>
       <path id="DejaVuSans-67" d="M 2906 1791 
Q 2906 2416 2648 2759 
Q 2391 3103 1925 3103 
Q 1463 3103 1205 2759 
Q 947 2416 947 1791 
Q 947 1169 1205 825 
Q 1463 481 1925 481 
Q 2391 481 2648 825 
Q 2906 1169 2906 1791 
z
M 3481 434 
Q 3481 -459 3084 -895 
Q 2688 -1331 1869 -1331 
Q 1566 -1331 1297 -1286 
Q 1028 -1241 775 -1147 
L 775 -588 
Q 1028 -725 1275 -790 
Q 1522 -856 1778 -856 
Q 2344 -856 2625 -561 
Q 2906 -266 2906 331 
L 2906 616 
Q 2728 306 2450 153 
Q 2172 0 1784 0 
Q 1141 0 747 490 
Q 353 981 353 1791 
Q 353 2603 747 3093 
Q 1141 3584 1784 3584 
Q 2172 3584 2450 3431 
Q 2728 3278 2906 2969 
L 2906 3500 
L 3481 3500 
L 3481 434 
z
" transform="scale(0.015625)"/>
      </defs>
      <use xlink:href="#DejaVuSans-67"/>
      <use xlink:href="#DejaVuSans-5f" transform="translate(63.476562 0)"/>
      <use xlink:href="#DejaVuSans-78" transform="translate(113.476562 0)"/>
      <use xlink:href="#DejaVuSans-79" transform="translate(172.65625 0)"/>
      <use xlink:href="#DejaVuSans-28" transform="translate(231.835938 0)"/>
      <use xlink:href="#DejaVuSans-72" transform="translate(270.849609 0)"/>
      <use xlink:href="#DejaVuSans-29" transform="translate(311.962891 0)"/>
     </g>
    </g>
   </g>
   <g id="line2d_18">
    <path d="M 66.643665 261.216 
L 68.477871 215.252676 
L 70.312078 261.216 
L 72.146284 261.216 
L 73.980491 245.894892 
L 75.814697 240.734781 
L 77.648904 218.316898 
L 79.48311 210.31336 
L 81.317317 221.791184 
L 83.151523 201.269508 
L 84.985729 250.351942 
L 86.819936 255.220784 
L 88.654142 170.727761 
L 90.488349 218.374223 
L 92.322555 246.27792 
L 94.156762 205.552303 
L 95.990968 204.462612 
L 97.825175 190.259124 
L 99.659381 137.262732 
L 101.493588 225.779554 
L 103.327794 201.847896 
L 105.162001 216.414129 
L 106.996207 234.603739 
L 108.830414 204.248557 
L 110.66462 230.067747 
L 112.498827 194.98097 
L 114.333033 223.050099 
L 116.16724 256.20948 
L 118.001446 236.62747 
L 119.835652 226.430047 
L 121.669859 233.115267 
L 123.504065 233.039145 
L 125.338272 245.457946 
L 127.172478 207.507994 
L 129.006685 221.289059 
L 130.840891 253.410327 
L 132.675098 240.514498 
L 134.509304 243.72215 
L 136.343511 249.590985 
L 138.177717 225.892284 
L 140.011924 255.035111 
L 141.84613 233.131123 
L 143.680337 228.195786 
L 145.514543 248.0951 
L 147.34875 208.586694 
L 149.182956 184.195472 
L 151.017162 189.7555 
L 152.851369 178.648204 
L 154.685575 157.806069 
L 156.519782 135.148413 
L 158.353988 69.460294 
L 160.188195 74.674573 
L 162.022401 90.597349 
L 163.856608 99.17165 
L 165.690814 109.850043 
L 167.525021 72.068163 
L 169.359227 99.788523 
L 171.193434 62.821453 
L 173.02764 108.201799 
L 174.861847 74.376882 
L 176.696053 125.342687 
L 178.53026 144.526959 
L 180.364466 69.16741 
L 182.198672 113.591025 
L 184.032879 111.969622 
L 185.867085 108.28251 
L 187.701292 121.308444 
L 189.535498 126.282306 
L 191.369705 113.733441 
L 193.203911 141.98653 
L 195.038118 123.621233 
L 196.872324 110.329331 
L 198.706531 128.95665 
L 200.540737 125.365207 
L 202.374944 100.66494 
L 204.20915 114.677132 
L 206.043357 139.280453 
L 207.877563 159.444625 
L 209.71177 158.215067 
L 211.545976 93.118607 
L 213.380182 132.589 
L 215.214389 92.767458 
L 217.048595 135.092281 
L 218.882802 112.928104 
L 220.717008 117.622228 
L 222.551215 132.743043 
L 224.385421 123.319493 
L 226.219628 147.68766 
L 228.053834 131.177969 
L 229.888041 122.992392 
L 231.722247 142.025351 
L 233.556454 138.080677 
L 235.39066 118.55709 
L 237.224867 135.034699 
L 239.059073 183.379784 
L 240.89328 139.446327 
L 242.727486 152.132035 
L 244.561693 134.474349 
L 246.395899 139.271762 
L 248.230105 146.035993 
L 250.064312 155.92681 
L 251.898518 122.743173 
L 253.732725 133.520804 
L 255.566931 132.648662 
L 257.401138 146.693792 
L 259.235344 148.539718 
L 261.069551 133.444127 
L 262.903757 137.724311 
L 264.737964 134.345918 
L 266.57217 121.263797 
L 268.406377 125.96658 
L 270.240583 89.805231 
L 272.07479 133.384255 
L 273.908996 113.348556 
L 275.743203 139.539258 
L 277.577409 103.223319 
L 279.411615 119.861407 
L 281.245822 138.165863 
L 283.080028 122.951071 
L 284.914235 110.346617 
L 286.748441 114.996166 
L 288.582648 129.375187 
L 290.416854 138.834916 
L 292.251061 141.214882 
L 294.085267 130.272493 
L 295.919474 142.380062 
L 297.75368 163.92926 
L 299.587887 138.891722 
L 301.422093 166.400264 
L 303.2563 120.252074 
L 305.090506 143.179204 
L 306.924713 118.312447 
L 308.758919 148.757035 
L 310.593125 113.76942 
L 312.427332 148.730807 
L 314.261538 155.950404 
L 316.095745 128.764924 
L 317.929951 141.729601 
L 319.764158 141.989798 
L 321.598364 131.561315 
L 323.432571 152.149281 
L 325.266777 127.356537 
L 327.100984 137.92381 
L 328.93519 128.392741 
L 330.769397 112.830338 
L 332.603603 129.430989 
L 334.43781 131.658967 
L 336.272016 138.853402 
L 338.106223 137.079414 
L 339.940429 139.789372 
L 341.774635 152.775806 
L 343.608842 126.635148 
L 345.443048 125.909913 
L 347.277255 144.202938 
L 349.111461 130.930256 
L 350.945668 126.857685 
L 352.779874 120.760606 
L 354.614081 98.813881 
L 356.448287 107.251709 
L 358.282494 133.400506 
L 360.1167 119.482046 
L 361.950907 155.16121 
L 363.785113 111.224714 
L 365.61932 139.755423 
L 367.453526 139.231749 
L 369.287733 119.32784 
L 371.121939 128.528581 
L 372.956146 131.056154 
L 374.790352 129.409678 
L 376.624558 138.572504 
L 378.458765 157.027657 
L 380.292971 150.953607 
L 382.127178 139.347462 
L 383.961384 131.462071 
L 385.795591 130.186485 
L 387.629797 140.004246 
L 389.464004 160.167718 
L 391.29821 142.509851 
L 391.29821 142.509851 
" clip-path="url(#p533b5d400f)" style="fill: none; stroke: #ff7f0e; stroke-width: 1.5; stroke-linecap: square"/>
   </g>
   <g id="line2d_19">
    <path d="M 50.410938 138.35302 
L 407.530938 138.35302 
" clip-path="url(#p533b5d400f)" style="fill: none; stroke-dasharray: 5.55,2.4; stroke-dashoffset: 0; stroke: #000000; stroke-opacity: 0.4; stroke-width: 1.5"/>
   </g>
   <g id="patch_3">
    <path d="M 50.410938 273.312 
L 50.410938 7.2 
" style="fill: none; stroke: #000000; stroke-width: 0.8; stroke-linejoin: miter; stroke-linecap: square"/>
   </g>
   <g id="patch_4">
    <path d="M 407.530938 273.312 
L 407.530938 7.2 
" style="fill: none; stroke: #000000; stroke-width: 0.8; stroke-linejoin: miter; stroke-linecap: square"/>
   </g>
   <g id="patch_5">
    <path d="M 50.410937 273.312 
L 407.530938 273.312 
" style="fill: none; stroke: #000000; stroke-width: 0.8; stroke-linejoin: miter; stroke-linecap: square"/>
   </g>
   <g id="patch_6">
    <path d="M 50.410937 7.2 
L 407.530938 7.2 
" style="fill: none; stroke: #000000; stroke-width: 0.8; stroke-linejoin: miter; stroke-linecap: square"/>
   </g>
   <g id="legend_1">
    <g id="patch_7">
     <path d="M 334.37 44.55625 
L 400.530938 44.55625 
Q 402.530938 44.55625 402.530938 42.55625 
L 402.530938 14.2 
Q 402.530938 12.2 400.530938 12.2 
L 334.37 12.2 
Q 332.37 12.2 332.37 14.2 
L 332.37 42.55625 
Q 332.37 44.55625 334.37 44.55625 
z
" style="fill: #ffffff; opacity: 0.8; stroke: #cccccc; stroke-linejoin: miter"/>
    </g>
    <g id="line2d_20">
     <path d="M 336.37 20.298437 
L 346.37 20.298437 
L 356.37 20.298437 
" style="fill: none; stroke: #ff7f0e; stroke-width: 1.5; stroke-linecap: square"/>
    </g>
    <g id="text_20">
     <!-- Mean -->
     <g transform="translate(364.37 23.798437) scale(0.1 -0.1)">
      <defs>
       <path id="DejaVuSans-4d" d="M 628 4666 
L 1569 4666 
L 2759 1491 
L 3956 4666 
L 4897 4666 
L 4897 0 
L 4281 0 
L 4281 4097 
L 3078 897 
L 2444 897 
L 1241 4097 
L 1241 0 
L 628 0 
L 628 4666 
z
" transform="scale(0.015625)"/>
       <path id="DejaVuSans-61" d="M 2194 1759 
Q 1497 1759 1228 1600 
Q 959 1441 959 1056 
Q 959 750 1161 570 
Q 1363 391 1709 391 
Q 2188 391 2477 730 
Q 2766 1069 2766 1631 
L 2766 1759 
L 2194 1759 
z
M 3341 1997 
L 3341 0 
L 2766 0 
L 2766 531 
Q 2569 213 2275 61 
Q 1981 -91 1556 -91 
Q 1019 -91 701 211 
Q 384 513 384 1019 
Q 384 1609 779 1909 
Q 1175 2209 1959 2209 
L 2766 2209 
L 2766 2266 
Q 2766 2663 2505 2880 
Q 2244 3097 1772 3097 
Q 1472 3097 1187 3025 
Q 903 2953 641 2809 
L 641 3341 
Q 956 3463 1253 3523 
Q 1550 3584 1831 3584 
Q 2591 3584 2966 3190 
Q 3341 2797 3341 1997 
z
" transform="scale(0.015625)"/>
      </defs>
      <use xlink:href="#DejaVuSans-4d"/>
      <use xlink:href="#DejaVuSans-65" transform="translate(86.279297 0)"/>
      <use xlink:href="#DejaVuSans-61" transform="translate(147.802734 0)"/>
      <use xlink:href="#DejaVuSans-6e" transform="translate(209.082031 0)"/>
     </g>
    </g>
    <g id="patch_8">
     <path d="M 336.37 38.476562 
L 356.37 38.476562 
L 356.37 31.476562 
L 336.37 31.476562 
z
" style="fill: #ff7f0e; fill-opacity: 0.3; stroke: #ff7f0e; stroke-opacity: 0.3; stroke-linejoin: miter"/>
    </g>
    <g id="text_21">
     <!-- Std Err -->
     <g transform="translate(364.37 38.476562) scale(0.1 -0.1)">
      <defs>
       <path id="DejaVuSans-53" d="M 3425 4513 
L 3425 3897 
Q 3066 4069 2747 4153 
Q 2428 4238 2131 4238 
Q 1616 4238 1336 4038 
Q 1056 3838 1056 3469 
Q 1056 3159 1242 3001 
Q 1428 2844 1947 2747 
L 2328 2669 
Q 3034 2534 3370 2195 
Q 3706 1856 3706 1288 
Q 3706 609 3251 259 
Q 2797 -91 1919 -91 
Q 1588 -91 1214 -16 
Q 841 59 441 206 
L 441 856 
Q 825 641 1194 531 
Q 1563 422 1919 422 
Q 2459 422 2753 634 
Q 3047 847 3047 1241 
Q 3047 1584 2836 1778 
Q 2625 1972 2144 2069 
L 1759 2144 
Q 1053 2284 737 2584 
Q 422 2884 422 3419 
Q 422 4038 858 4394 
Q 1294 4750 2059 4750 
Q 2388 4750 2728 4690 
Q 3069 4631 3425 4513 
z
" transform="scale(0.015625)"/>
       <path id="DejaVuSans-45" d="M 628 4666 
L 3578 4666 
L 3578 4134 
L 1259 4134 
L 1259 2753 
L 3481 2753 
L 3481 2222 
L 1259 2222 
L 1259 531 
L 3634 531 
L 3634 0 
L 628 0 
L 628 4666 
z
" transform="scale(0.015625)"/>
      </defs>
      <use xlink:href="#DejaVuSans-53"/>
      <use xlink:href="#DejaVuSans-74" transform="translate(63.476562 0)"/>
      <use xlink:href="#DejaVuSans-64" transform="translate(102.685547 0)"/>
      <use xlink:href="#DejaVuSans-20" transform="translate(166.162109 0)"/>
      <use xlink:href="#DejaVuSans-45" transform="translate(197.949219 0)"/>
      <use xlink:href="#DejaVuSans-72" transform="translate(261.132812 0)"/>
      <use xlink:href="#DejaVuSans-72" transform="translate(300.496094 0)"/>
     </g>
    </g>
   </g>
  </g>
 </g>
 <defs>
  <clipPath id="p533b5d400f">
   <rect x="50.410938" y="7.2" width="357.12" height="266.112"/>
  </clipPath>
 </defs>
</svg>
