<?xml version="1.0" encoding="utf-8" standalone="no"?>
<!DOCTYPE svg PUBLIC "-//W3C//DTD SVG 1.1//EN"
  "http://www.w3.org/Graphics/SVG/1.1/DTD/svg11.dtd">
<svg xmlns:xlink="http://www.w3.org/1999/xlink" width="398.560625pt" height="310.86825pt" viewBox="0 0 398.560625 310.86825" xmlns="http://www.w3.org/2000/svg" version="1.1">
 <metadata>
  <rdf:RDF xmlns:dc="http://purl.org/dc/elements/1.1/" xmlns:cc="http://creativecommons.org/ns#" xmlns:rdf="http://www.w3.org/1999/02/22-rdf-syntax-ns#">
   <cc:Work>
    <dc:type rdf:resource="http://purl.org/dc/dcmitype/StillImage"/>
    <dc:date>2025-12-11T12:34:27.850393</dc:date>
    <dc:format>image/svg+xml</dc:format>
    <dc:creator>
     <cc:Agent>
      <dc:title>Matplotlib v3.10.5, https://matplotlib.org/</dc:title>
     </cc:Agent>
    </dc:creator>
   </cc:Work>
  </rdf:RDF>
 </metadata>
 <defs>
  <style type="text/css">*{stroke-linejoin: round; stroke-linecap: butt}</style>
 </defs>
 <g id="figure_1">
  <g id="patch_1">
   <path d="M 0 310.86825 
L 398.560625 310.86825 
L 398.560625 0 
L 0 0 
z
" style="fill: #ffffff"/>
  </g>
  <g id="axes_1">
   <g id="patch_2">
    <path d="M 34.240625 273.312 
L 391.360625 273.312 
L 391.360625 7.2 
L 34.240625 7.2 
z
" style="fill: #ffffff"/>
   </g>
   <g id="FillBetweenPolyCollection_1">
    <defs>
     <path id="m0af4569e7d" d="M 50.473352 -49.65225 
L 50.473352 -49.65225 
L 52.652242 -49.65225 
L 54.831131 -49.65225 
L 57.010021 -49.65225 
L 59.188911 -49.65225 
L 61.3678 -49.65225 
L 63.54669 -49.65225 
L 65.725579 -49.65225 
L 67.904469 -49.65225 
L 70.083358 -49.65225 
L 72.262248 -49.65225 
L 74.441138 -49.65225 
L 76.620027 -49.65225 
L 78.798917 -49.65225 
L 80.977806 -49.65225 
L 83.156696 -49.65225 
L 85.335585 -49.65225 
L 87.514475 -49.65225 
L 89.693364 -49.65225 
L 91.872254 -49.65225 
L 94.051144 -49.65225 
L 96.230033 -49.65225 
L 98.408923 -49.65225 
L 100.587812 -49.65225 
L 102.766702 -49.65225 
L 104.945591 -49.65225 
L 107.124481 -49.65225 
L 109.303371 -49.65225 
L 111.48226 -49.65225 
L 113.66115 -49.65225 
L 115.840039 -49.65225 
L 118.018929 -49.65225 
L 120.197818 -49.65225 
L 122.376708 -49.65225 
L 124.555598 -49.65225 
L 126.734487 -49.65225 
L 128.913377 -49.65225 
L 131.092266 -49.65225 
L 133.271156 -49.65225 
L 135.450045 -49.65225 
L 137.628935 -49.65225 
L 139.807825 -49.65225 
L 141.986714 -49.65225 
L 144.165604 -49.65225 
L 146.344493 -49.65225 
L 148.523383 -49.65225 
L 150.702272 -49.774255 
L 152.881162 -51.188611 
L 155.060051 -59.801751 
L 157.238941 -83.309401 
L 159.417831 -128.601297 
L 161.59672 -186.6889 
L 163.77561 -238.317913 
L 165.954499 -268.974328 
L 168.133389 -287.066044 
L 170.312278 -284.517874 
L 172.491168 -266.121315 
L 174.670058 -244.592734 
L 176.848947 -221.635157 
L 179.027837 -197.248059 
L 181.206726 -181.153032 
L 183.385616 -162.198493 
L 185.564505 -147.639093 
L 187.743395 -134.398723 
L 189.922285 -124.265464 
L 192.101174 -116.395413 
L 194.280064 -109.185756 
L 196.458953 -104.002575 
L 198.637843 -99.125648 
L 200.816732 -96.186232 
L 202.995622 -93.154203 
L 205.174512 -90.461873 
L 207.353401 -88.83742 
L 209.532291 -86.989451 
L 211.71118 -85.766302 
L 213.89007 -84.594787 
L 216.068959 -84.160025 
L 218.247849 -84.501133 
L 220.426738 -84.744652 
L 222.605628 -85.768889 
L 224.784518 -86.368263 
L 226.963407 -86.864065 
L 229.142297 -89.415606 
L 231.321186 -90.116448 
L 233.500076 -92.361825 
L 235.678965 -95.23002 
L 237.857855 -98.067144 
L 240.036745 -100.087196 
L 242.215634 -103.055406 
L 244.394524 -107.0828 
L 246.573413 -109.868961 
L 248.752303 -114.206663 
L 250.931192 -118.300768 
L 253.110082 -122.461847 
L 255.288972 -125.822111 
L 257.467861 -128.204173 
L 259.646751 -131.066945 
L 261.82564 -132.04576 
L 264.00453 -132.670777 
L 266.183419 -134.026754 
L 268.362309 -134.02475 
L 270.541199 -134.597603 
L 272.720088 -135.068601 
L 274.898978 -135.162659 
L 277.077867 -134.7468 
L 279.256757 -134.112165 
L 281.435646 -133.299656 
L 283.614536 -131.929953 
L 285.793425 -130.663123 
L 287.972315 -128.910215 
L 290.151205 -125.654934 
L 292.330094 -123.237676 
L 294.508984 -121.383161 
L 296.687873 -118.216254 
L 298.866763 -114.800471 
L 301.045652 -112.370082 
L 303.224542 -109.513927 
L 305.403432 -106.991827 
L 307.582321 -105.041376 
L 309.761211 -102.957436 
L 311.9401 -101.069015 
L 314.11899 -99.669406 
L 316.297879 -98.950457 
L 318.476769 -97.961913 
L 320.655659 -97.255444 
L 322.834548 -96.539788 
L 325.013438 -96.587771 
L 327.192327 -96.66133 
L 329.371217 -97.886759 
L 331.550106 -98.349679 
L 333.728996 -99.302051 
L 335.907886 -100.700656 
L 338.086775 -101.751789 
L 340.265665 -103.541122 
L 342.444554 -105.217298 
L 344.623444 -106.163892 
L 346.802333 -108.170409 
L 348.981223 -109.624266 
L 351.160112 -110.804581 
L 353.339002 -112.34406 
L 355.517892 -113.805267 
L 357.696781 -114.972613 
L 359.875671 -115.413203 
L 362.05456 -116.125567 
L 364.23345 -117.307203 
L 366.412339 -117.599211 
L 368.591229 -117.347607 
L 370.770119 -117.841382 
L 372.949008 -118.112484 
L 375.127898 -116.947487 
L 375.127898 -118.630801 
L 375.127898 -118.630801 
L 372.949008 -119.68836 
L 370.770119 -119.458972 
L 368.591229 -118.762553 
L 366.412339 -119.485821 
L 364.23345 -118.733959 
L 362.05456 -117.820275 
L 359.875671 -116.662421 
L 357.696781 -116.052079 
L 355.517892 -114.759234 
L 353.339002 -113.532598 
L 351.160112 -111.500619 
L 348.981223 -110.826358 
L 346.802333 -109.158454 
L 344.623444 -107.668762 
L 342.444554 -105.794348 
L 340.265665 -104.286991 
L 338.086775 -102.374216 
L 335.907886 -101.357356 
L 333.728996 -100.097621 
L 331.550106 -99.279902 
L 329.371217 -98.764992 
L 327.192327 -97.894097 
L 325.013438 -97.477432 
L 322.834548 -97.429676 
L 320.655659 -98.148567 
L 318.476769 -98.594391 
L 316.297879 -99.216783 
L 314.11899 -100.148847 
L 311.9401 -101.520269 
L 309.761211 -103.375854 
L 307.582321 -105.374749 
L 305.403432 -107.685598 
L 303.224542 -110.303579 
L 301.045652 -113.143007 
L 298.866763 -116.267822 
L 296.687873 -119.658476 
L 294.508984 -122.031362 
L 292.330094 -124.257446 
L 290.151205 -127.143729 
L 287.972315 -130.104452 
L 285.793425 -132.195974 
L 283.614536 -133.614852 
L 281.435646 -134.95292 
L 279.256757 -136.253242 
L 277.077867 -136.930419 
L 274.898978 -136.466804 
L 272.720088 -137.615156 
L 270.541199 -137.225929 
L 268.362309 -136.622004 
L 266.183419 -136.722445 
L 264.00453 -135.116623 
L 261.82564 -134.728029 
L 259.646751 -133.098107 
L 257.467861 -130.198476 
L 255.288972 -126.744223 
L 253.110082 -123.289529 
L 250.931192 -119.28385 
L 248.752303 -115.278505 
L 246.573413 -111.13176 
L 244.394524 -107.702461 
L 242.215634 -104.000127 
L 240.036745 -101.099473 
L 237.857855 -98.774436 
L 235.678965 -95.806409 
L 233.500076 -93.226737 
L 231.321186 -91.756007 
L 229.142297 -90.131194 
L 226.963407 -88.667006 
L 224.784518 -88.055652 
L 222.605628 -86.82274 
L 220.426738 -86.128453 
L 218.247849 -85.78996 
L 216.068959 -85.164032 
L 213.89007 -85.542514 
L 211.71118 -86.504324 
L 209.532291 -87.716967 
L 207.353401 -89.936144 
L 205.174512 -91.543302 
L 202.995622 -94.012207 
L 200.816732 -97.072588 
L 198.637843 -100.8513 
L 196.458953 -105.343873 
L 194.280064 -110.796344 
L 192.101174 -118.759313 
L 189.922285 -126.049635 
L 187.743395 -136.600753 
L 185.564505 -148.87173 
L 183.385616 -164.808968 
L 181.206726 -184.381764 
L 179.027837 -202.358544 
L 176.848947 -226.576543 
L 174.670058 -249.89416 
L 172.491168 -273.168416 
L 170.312278 -289.725832 
L 168.133389 -291.57225 
L 165.954499 -273.80803 
L 163.77561 -241.204925 
L 161.59672 -187.542232 
L 159.417831 -129.710919 
L 157.238941 -84.289403 
L 155.060051 -60.327772 
L 152.881162 -51.412167 
L 150.702272 -49.860973 
L 148.523383 -49.65225 
L 146.344493 -49.65225 
L 144.165604 -49.65225 
L 141.986714 -49.65225 
L 139.807825 -49.65225 
L 137.628935 -49.65225 
L 135.450045 -49.65225 
L 133.271156 -49.65225 
L 131.092266 -49.65225 
L 128.913377 -49.65225 
L 126.734487 -49.65225 
L 124.555598 -49.65225 
L 122.376708 -49.65225 
L 120.197818 -49.65225 
L 118.018929 -49.65225 
L 115.840039 -49.65225 
L 113.66115 -49.65225 
L 111.48226 -49.65225 
L 109.303371 -49.65225 
L 107.124481 -49.65225 
L 104.945591 -49.65225 
L 102.766702 -49.65225 
L 100.587812 -49.65225 
L 98.408923 -49.65225 
L 96.230033 -49.65225 
L 94.051144 -49.65225 
L 91.872254 -49.65225 
L 89.693364 -49.65225 
L 87.514475 -49.65225 
L 85.335585 -49.65225 
L 83.156696 -49.65225 
L 80.977806 -49.65225 
L 78.798917 -49.65225 
L 76.620027 -49.65225 
L 74.441138 -49.65225 
L 72.262248 -49.65225 
L 70.083358 -49.65225 
L 67.904469 -49.65225 
L 65.725579 -49.65225 
L 63.54669 -49.65225 
L 61.3678 -49.65225 
L 59.188911 -49.65225 
L 57.010021 -49.65225 
L 54.831131 -49.65225 
L 52.652242 -49.65225 
L 50.473352 -49.65225 
z
" style="stroke: #1f77b4; stroke-opacity: 0.3"/>
    </defs>
    <g clip-path="url(#pd57b598b46)">
     <use xlink:href="#m0af4569e7d" x="0" y="310.86825" style="fill: #1f77b4; fill-opacity: 0.3; stroke: #1f77b4; stroke-opacity: 0.3"/>
    </g>
   </g>
   <g id="matplotlib.axis_1">
    <g id="xtick_1">
     <g id="line2d_1">
      <defs>
       <path id="mdc0f4b1902" d="M 0 0 
L 0 3.5 
" style="stroke: #000000; stroke-width: 0.8"/>
      </defs>
      <g>
       <use xlink:href="#mdc0f4b1902" x="49.383907" y="273.312" style="stroke: #000000; stroke-width: 0.8"/>
      </g>
     </g>
     <g id="text_1">
      <!-- 0.0 -->
      <g transform="translate(41.432345 287.910437) scale(0.1 -0.1)">
       <defs>
        <path id="DejaVuSans-30" d="M 2034 4250 
Q 1547 4250 1301 3770 
Q 1056 3291 1056 2328 
Q 1056 1369 1301 889 
Q 1547 409 2034 409 
Q 2525 409 2770 889 
Q 3016 1369 3016 2328 
Q 3016 3291 2770 3770 
Q 2525 4250 2034 4250 
z
M 2034 4750 
Q 2819 4750 3233 4129 
Q 3647 3509 3647 2328 
Q 3647 1150 3233 529 
Q 2819 -91 2034 -91 
Q 1250 -91 836 529 
Q 422 1150 422 2328 
Q 422 3509 836 4129 
Q 1250 4750 2034 4750 
z
" transform="scale(0.015625)"/>
        <path id="DejaVuSans-2e" d="M 684 794 
L 1344 794 
L 1344 0 
L 684 0 
L 684 794 
z
" transform="scale(0.015625)"/>
       </defs>
       <use xlink:href="#DejaVuSans-30"/>
       <use xlink:href="#DejaVuSans-2e" transform="translate(63.623047 0)"/>
       <use xlink:href="#DejaVuSans-30" transform="translate(95.410156 0)"/>
      </g>
     </g>
    </g>
    <g id="xtick_2">
     <g id="line2d_2">
      <g>
       <use xlink:href="#mdc0f4b1902" x="103.856147" y="273.312" style="stroke: #000000; stroke-width: 0.8"/>
      </g>
     </g>
     <g id="text_2">
      <!-- 0.5 -->
      <g transform="translate(95.904584 287.910437) scale(0.1 -0.1)">
       <defs>
        <path id="DejaVuSans-35" d="M 691 4666 
L 3169 4666 
L 3169 4134 
L 1269 4134 
L 1269 2991 
Q 1406 3038 1543 3061 
Q 1681 3084 1819 3084 
Q 2600 3084 3056 2656 
Q 3513 2228 3513 1497 
Q 3513 744 3044 326 
Q 2575 -91 1722 -91 
Q 1428 -91 1123 -41 
Q 819 9 494 109 
L 494 744 
Q 775 591 1075 516 
Q 1375 441 1709 441 
Q 2250 441 2565 725 
Q 2881 1009 2881 1497 
Q 2881 1984 2565 2268 
Q 2250 2553 1709 2553 
Q 1456 2553 1204 2497 
Q 953 2441 691 2322 
L 691 4666 
z
" transform="scale(0.015625)"/>
       </defs>
       <use xlink:href="#DejaVuSans-30"/>
       <use xlink:href="#DejaVuSans-2e" transform="translate(63.623047 0)"/>
       <use xlink:href="#DejaVuSans-35" transform="translate(95.410156 0)"/>
      </g>
     </g>
    </g>
    <g id="xtick_3">
     <g id="line2d_3">
      <g>
       <use xlink:href="#mdc0f4b1902" x="158.328386" y="273.312" style="stroke: #000000; stroke-width: 0.8"/>
      </g>
     </g>
     <g id="text_3">
      <!-- 1.0 -->
      <g transform="translate(150.376823 287.910437) scale(0.1 -0.1)">
       <defs>
        <path id="DejaVuSans-31" d="M 794 531 
L 1825 531 
L 1825 4091 
L 703 3866 
L 703 4441 
L 1819 4666 
L 2450 4666 
L 2450 531 
L 3481 531 
L 3481 0 
L 794 0 
L 794 531 
z
" transform="scale(0.015625)"/>
       </defs>
       <use xlink:href="#DejaVuSans-31"/>
       <use xlink:href="#DejaVuSans-2e" transform="translate(63.623047 0)"/>
       <use xlink:href="#DejaVuSans-30" transform="translate(95.410156 0)"/>
      </g>
     </g>
    </g>
    <g id="xtick_4">
     <g id="line2d_4">
      <g>
       <use xlink:href="#mdc0f4b1902" x="212.800625" y="273.312" style="stroke: #000000; stroke-width: 0.8"/>
      </g>
     </g>
     <g id="text_4">
      <!-- 1.5 -->
      <g transform="translate(204.849062 287.910437) scale(0.1 -0.1)">
       <use xlink:href="#DejaVuSans-31"/>
       <use xlink:href="#DejaVuSans-2e" transform="translate(63.623047 0)"/>
       <use xlink:href="#DejaVuSans-35" transform="translate(95.410156 0)"/>
      </g>
     </g>
    </g>
    <g id="xtick_5">
     <g id="line2d_5">
      <g>
       <use xlink:href="#mdc0f4b1902" x="267.272864" y="273.312" style="stroke: #000000; stroke-width: 0.8"/>
      </g>
     </g>
     <g id="text_5">
      <!-- 2.0 -->
      <g transform="translate(259.321302 287.910437) scale(0.1 -0.1)">
       <defs>
        <path id="DejaVuSans-32" d="M 1228 531 
L 3431 531 
L 3431 0 
L 469 0 
L 469 531 
Q 828 903 1448 1529 
Q 2069 2156 2228 2338 
Q 2531 2678 2651 2914 
Q 2772 3150 2772 3378 
Q 2772 3750 2511 3984 
Q 2250 4219 1831 4219 
Q 1534 4219 1204 4116 
Q 875 4013 500 3803 
L 500 4441 
Q 881 4594 1212 4672 
Q 1544 4750 1819 4750 
Q 2544 4750 2975 4387 
Q 3406 4025 3406 3419 
Q 3406 3131 3298 2873 
Q 3191 2616 2906 2266 
Q 2828 2175 2409 1742 
Q 1991 1309 1228 531 
z
" transform="scale(0.015625)"/>
       </defs>
       <use xlink:href="#DejaVuSans-32"/>
       <use xlink:href="#DejaVuSans-2e" transform="translate(63.623047 0)"/>
       <use xlink:href="#DejaVuSans-30" transform="translate(95.410156 0)"/>
      </g>
     </g>
    </g>
    <g id="xtick_6">
     <g id="line2d_6">
      <g>
       <use xlink:href="#mdc0f4b1902" x="321.745103" y="273.312" style="stroke: #000000; stroke-width: 0.8"/>
      </g>
     </g>
     <g id="text_6">
      <!-- 2.5 -->
      <g transform="translate(313.793541 287.910437) scale(0.1 -0.1)">
       <use xlink:href="#DejaVuSans-32"/>
       <use xlink:href="#DejaVuSans-2e" transform="translate(63.623047 0)"/>
       <use xlink:href="#DejaVuSans-35" transform="translate(95.410156 0)"/>
      </g>
     </g>
    </g>
    <g id="xtick_7">
     <g id="line2d_7">
      <g>
       <use xlink:href="#mdc0f4b1902" x="376.217343" y="273.312" style="stroke: #000000; stroke-width: 0.8"/>
      </g>
     </g>
     <g id="text_7">
      <!-- 3.0 -->
      <g transform="translate(368.26578 287.910437) scale(0.1 -0.1)">
       <defs>
        <path id="DejaVuSans-33" d="M 2597 2516 
Q 3050 2419 3304 2112 
Q 3559 1806 3559 1356 
Q 3559 666 3084 287 
Q 2609 -91 1734 -91 
Q 1441 -91 1130 -33 
Q 819 25 488 141 
L 488 750 
Q 750 597 1062 519 
Q 1375 441 1716 441 
Q 2309 441 2620 675 
Q 2931 909 2931 1356 
Q 2931 1769 2642 2001 
Q 2353 2234 1838 2234 
L 1294 2234 
L 1294 2753 
L 1863 2753 
Q 2328 2753 2575 2939 
Q 2822 3125 2822 3475 
Q 2822 3834 2567 4026 
Q 2313 4219 1838 4219 
Q 1578 4219 1281 4162 
Q 984 4106 628 3988 
L 628 4550 
Q 988 4650 1302 4700 
Q 1616 4750 1894 4750 
Q 2613 4750 3031 4423 
Q 3450 4097 3450 3541 
Q 3450 3153 3228 2886 
Q 3006 2619 2597 2516 
z
" transform="scale(0.015625)"/>
       </defs>
       <use xlink:href="#DejaVuSans-33"/>
       <use xlink:href="#DejaVuSans-2e" transform="translate(63.623047 0)"/>
       <use xlink:href="#DejaVuSans-30" transform="translate(95.410156 0)"/>
      </g>
     </g>
    </g>
    <g id="text_8">
     <!-- r (reduced units) -->
     <g transform="translate(171.011563 301.588562) scale(0.1 -0.1)">
      <defs>
       <path id="DejaVuSans-72" d="M 2631 2963 
Q 2534 3019 2420 3045 
Q 2306 3072 2169 3072 
Q 1681 3072 1420 2755 
Q 1159 2438 1159 1844 
L 1159 0 
L 581 0 
L 581 3500 
L 1159 3500 
L 1159 2956 
Q 1341 3275 1631 3429 
Q 1922 3584 2338 3584 
Q 2397 3584 2469 3576 
Q 2541 3569 2628 3553 
L 2631 2963 
z
" transform="scale(0.015625)"/>
       <path id="DejaVuSans-20" transform="scale(0.015625)"/>
       <path id="DejaVuSans-28" d="M 1984 4856 
Q 1566 4138 1362 3434 
Q 1159 2731 1159 2009 
Q 1159 1288 1364 580 
Q 1569 -128 1984 -844 
L 1484 -844 
Q 1016 -109 783 600 
Q 550 1309 550 2009 
Q 550 2706 781 3412 
Q 1013 4119 1484 4856 
L 1984 4856 
z
" transform="scale(0.015625)"/>
       <path id="DejaVuSans-65" d="M 3597 1894 
L 3597 1613 
L 953 1613 
Q 991 1019 1311 708 
Q 1631 397 2203 397 
Q 2534 397 2845 478 
Q 3156 559 3463 722 
L 3463 178 
Q 3153 47 2828 -22 
Q 2503 -91 2169 -91 
Q 1331 -91 842 396 
Q 353 884 353 1716 
Q 353 2575 817 3079 
Q 1281 3584 2069 3584 
Q 2775 3584 3186 3129 
Q 3597 2675 3597 1894 
z
M 3022 2063 
Q 3016 2534 2758 2815 
Q 2500 3097 2075 3097 
Q 1594 3097 1305 2825 
Q 1016 2553 972 2059 
L 3022 2063 
z
" transform="scale(0.015625)"/>
       <path id="DejaVuSans-64" d="M 2906 2969 
L 2906 4863 
L 3481 4863 
L 3481 0 
L 2906 0 
L 2906 525 
Q 2725 213 2448 61 
Q 2172 -91 1784 -91 
Q 1150 -91 751 415 
Q 353 922 353 1747 
Q 353 2572 751 3078 
Q 1150 3584 1784 3584 
Q 2172 3584 2448 3432 
Q 2725 3281 2906 2969 
z
M 947 1747 
Q 947 1113 1208 752 
Q 1469 391 1925 391 
Q 2381 391 2643 752 
Q 2906 1113 2906 1747 
Q 2906 2381 2643 2742 
Q 2381 3103 1925 3103 
Q 1469 3103 1208 2742 
Q 947 2381 947 1747 
z
" transform="scale(0.015625)"/>
       <path id="DejaVuSans-75" d="M 544 1381 
L 544 3500 
L 1119 3500 
L 1119 1403 
Q 1119 906 1312 657 
Q 1506 409 1894 409 
Q 2359 409 2629 706 
Q 2900 1003 2900 1516 
L 2900 3500 
L 3475 3500 
L 3475 0 
L 2900 0 
L 2900 538 
Q 2691 219 2414 64 
Q 2138 -91 1772 -91 
Q 1169 -91 856 284 
Q 544 659 544 1381 
z
M 1991 3584 
L 1991 3584 
z
" transform="scale(0.015625)"/>
       <path id="DejaVuSans-63" d="M 3122 3366 
L 3122 2828 
Q 2878 2963 2633 3030 
Q 2388 3097 2138 3097 
Q 1578 3097 1268 2742 
Q 959 2388 959 1747 
Q 959 1106 1268 751 
Q 1578 397 2138 397 
Q 2388 397 2633 464 
Q 2878 531 3122 666 
L 3122 134 
Q 2881 22 2623 -34 
Q 2366 -91 2075 -91 
Q 1284 -91 818 406 
Q 353 903 353 1747 
Q 353 2603 823 3093 
Q 1294 3584 2113 3584 
Q 2378 3584 2631 3529 
Q 2884 3475 3122 3366 
z
" transform="scale(0.015625)"/>
       <path id="DejaVuSans-6e" d="M 3513 2113 
L 3513 0 
L 2938 0 
L 2938 2094 
Q 2938 2591 2744 2837 
Q 2550 3084 2163 3084 
Q 1697 3084 1428 2787 
Q 1159 2491 1159 1978 
L 1159 0 
L 581 0 
L 581 3500 
L 1159 3500 
L 1159 2956 
Q 1366 3272 1645 3428 
Q 1925 3584 2291 3584 
Q 2894 3584 3203 3211 
Q 3513 2838 3513 2113 
z
" transform="scale(0.015625)"/>
       <path id="DejaVuSans-69" d="M 603 3500 
L 1178 3500 
L 1178 0 
L 603 0 
L 603 3500 
z
M 603 4863 
L 1178 4863 
L 1178 4134 
L 603 4134 
L 603 4863 
z
" transform="scale(0.015625)"/>
       <path id="DejaVuSans-74" d="M 1172 4494 
L 1172 3500 
L 2356 3500 
L 2356 3053 
L 1172 3053 
L 1172 1153 
Q 1172 725 1289 603 
Q 1406 481 1766 481 
L 2356 481 
L 2356 0 
L 1766 0 
Q 1100 0 847 248 
Q 594 497 594 1153 
L 594 3053 
L 172 3053 
L 172 3500 
L 594 3500 
L 594 4494 
L 1172 4494 
z
" transform="scale(0.015625)"/>
       <path id="DejaVuSans-73" d="M 2834 3397 
L 2834 2853 
Q 2591 2978 2328 3040 
Q 2066 3103 1784 3103 
Q 1356 3103 1142 2972 
Q 928 2841 928 2578 
Q 928 2378 1081 2264 
Q 1234 2150 1697 2047 
L 1894 2003 
Q 2506 1872 2764 1633 
Q 3022 1394 3022 966 
Q 3022 478 2636 193 
Q 2250 -91 1575 -91 
Q 1294 -91 989 -36 
Q 684 19 347 128 
L 347 722 
Q 666 556 975 473 
Q 1284 391 1588 391 
Q 1994 391 2212 530 
Q 2431 669 2431 922 
Q 2431 1156 2273 1281 
Q 2116 1406 1581 1522 
L 1381 1569 
Q 847 1681 609 1914 
Q 372 2147 372 2553 
Q 372 3047 722 3315 
Q 1072 3584 1716 3584 
Q 2034 3584 2315 3537 
Q 2597 3491 2834 3397 
z
" transform="scale(0.015625)"/>
       <path id="DejaVuSans-29" d="M 513 4856 
L 1013 4856 
Q 1481 4119 1714 3412 
Q 1947 2706 1947 2009 
Q 1947 1309 1714 600 
Q 1481 -109 1013 -844 
L 513 -844 
Q 928 -128 1133 580 
Q 1338 1288 1338 2009 
Q 1338 2731 1133 3434 
Q 928 4138 513 4856 
z
" transform="scale(0.015625)"/>
      </defs>
      <use xlink:href="#DejaVuSans-72"/>
      <use xlink:href="#DejaVuSans-20" transform="translate(41.113281 0)"/>
      <use xlink:href="#DejaVuSans-28" transform="translate(72.900391 0)"/>
      <use xlink:href="#DejaVuSans-72" transform="translate(111.914062 0)"/>
      <use xlink:href="#DejaVuSans-65" transform="translate(150.777344 0)"/>
      <use xlink:href="#DejaVuSans-64" transform="translate(212.300781 0)"/>
      <use xlink:href="#DejaVuSans-75" transform="translate(275.777344 0)"/>
      <use xlink:href="#DejaVuSans-63" transform="translate(339.15625 0)"/>
      <use xlink:href="#DejaVuSans-65" transform="translate(394.136719 0)"/>
      <use xlink:href="#DejaVuSans-64" transform="translate(455.660156 0)"/>
      <use xlink:href="#DejaVuSans-20" transform="translate(519.136719 0)"/>
      <use xlink:href="#DejaVuSans-75" transform="translate(550.923828 0)"/>
      <use xlink:href="#DejaVuSans-6e" transform="translate(614.302734 0)"/>
      <use xlink:href="#DejaVuSans-69" transform="translate(677.681641 0)"/>
      <use xlink:href="#DejaVuSans-74" transform="translate(705.464844 0)"/>
      <use xlink:href="#DejaVuSans-73" transform="translate(744.673828 0)"/>
      <use xlink:href="#DejaVuSans-29" transform="translate(796.773438 0)"/>
     </g>
    </g>
   </g>
   <g id="matplotlib.axis_2">
    <g id="ytick_1">
     <g id="line2d_8">
      <defs>
       <path id="m346684e723" d="M 0 0 
L -3.5 0 
" style="stroke: #000000; stroke-width: 0.8"/>
      </defs>
      <g>
       <use xlink:href="#m346684e723" x="34.240625" y="261.216" style="stroke: #000000; stroke-width: 0.8"/>
      </g>
     </g>
     <g id="text_9">
      <!-- 0 -->
      <g transform="translate(20.878125 265.015219) scale(0.1 -0.1)">
       <use xlink:href="#DejaVuSans-30"/>
      </g>
     </g>
    </g>
    <g id="ytick_2">
     <g id="line2d_9">
      <g>
       <use xlink:href="#m346684e723" x="34.240625" y="209.783066" style="stroke: #000000; stroke-width: 0.8"/>
      </g>
     </g>
     <g id="text_10">
      <!-- 1 -->
      <g transform="translate(20.878125 213.582285) scale(0.1 -0.1)">
       <use xlink:href="#DejaVuSans-31"/>
      </g>
     </g>
    </g>
    <g id="ytick_3">
     <g id="line2d_10">
      <g>
       <use xlink:href="#m346684e723" x="34.240625" y="158.350133" style="stroke: #000000; stroke-width: 0.8"/>
      </g>
     </g>
     <g id="text_11">
      <!-- 2 -->
      <g transform="translate(20.878125 162.149352) scale(0.1 -0.1)">
       <use xlink:href="#DejaVuSans-32"/>
      </g>
     </g>
    </g>
    <g id="ytick_4">
     <g id="line2d_11">
      <g>
       <use xlink:href="#m346684e723" x="34.240625" y="106.917199" style="stroke: #000000; stroke-width: 0.8"/>
      </g>
     </g>
     <g id="text_12">
      <!-- 3 -->
      <g transform="translate(20.878125 110.716418) scale(0.1 -0.1)">
       <use xlink:href="#DejaVuSans-33"/>
      </g>
     </g>
    </g>
    <g id="ytick_5">
     <g id="line2d_12">
      <g>
       <use xlink:href="#m346684e723" x="34.240625" y="55.484266" style="stroke: #000000; stroke-width: 0.8"/>
      </g>
     </g>
     <g id="text_13">
      <!-- 4 -->
      <g transform="translate(20.878125 59.283484) scale(0.1 -0.1)">
       <defs>
        <path id="DejaVuSans-34" d="M 2419 4116 
L 825 1625 
L 2419 1625 
L 2419 4116 
z
M 2253 4666 
L 3047 4666 
L 3047 1625 
L 3713 1625 
L 3713 1100 
L 3047 1100 
L 3047 0 
L 2419 0 
L 2419 1100 
L 313 1100 
L 313 1709 
L 2253 4666 
z
" transform="scale(0.015625)"/>
       </defs>
       <use xlink:href="#DejaVuSans-34"/>
      </g>
     </g>
    </g>
    <g id="text_14">
     <!-- g(r) -->
     <g transform="translate(14.798438 149.38725) rotate(-90) scale(0.1 -0.1)">
      <defs>
       <path id="DejaVuSans-67" d="M 2906 1791 
Q 2906 2416 2648 2759 
Q 2391 3103 1925 3103 
Q 1463 3103 1205 2759 
Q 947 2416 947 1791 
Q 947 1169 1205 825 
Q 1463 481 1925 481 
Q 2391 481 2648 825 
Q 2906 1169 2906 1791 
z
M 3481 434 
Q 3481 -459 3084 -895 
Q 2688 -1331 1869 -1331 
Q 1566 -1331 1297 -1286 
Q 1028 -1241 775 -1147 
L 775 -588 
Q 1028 -725 1275 -790 
Q 1522 -856 1778 -856 
Q 2344 -856 2625 -561 
Q 2906 -266 2906 331 
L 2906 616 
Q 2728 306 2450 153 
Q 2172 0 1784 0 
Q 1141 0 747 490 
Q 353 981 353 1791 
Q 353 2603 747 3093 
Q 1141 3584 1784 3584 
Q 2172 3584 2450 3431 
Q 2728 3278 2906 2969 
L 2906 3500 
L 3481 3500 
L 3481 434 
z
" transform="scale(0.015625)"/>
      </defs>
      <use xlink:href="#DejaVuSans-67"/>
      <use xlink:href="#DejaVuSans-28" transform="translate(63.476562 0)"/>
      <use xlink:href="#DejaVuSans-72" transform="translate(102.490234 0)"/>
      <use xlink:href="#DejaVuSans-29" transform="translate(143.603516 0)"/>
     </g>
    </g>
   </g>
   <g id="line2d_13">
    <path d="M 50.473352 261.216 
L 148.523383 261.216 
L 150.702272 261.050636 
L 152.881162 259.567861 
L 155.060051 250.803488 
L 157.238941 227.068848 
L 159.417831 181.712142 
L 161.59672 123.752684 
L 163.77561 71.106831 
L 165.954499 39.477071 
L 168.133389 21.549103 
L 170.312278 23.746397 
L 172.491168 41.223385 
L 176.848947 86.7624 
L 179.027837 111.064949 
L 181.206726 128.100852 
L 183.385616 147.36452 
L 185.564505 162.612838 
L 187.743395 175.368512 
L 189.922285 185.710701 
L 194.280064 200.8772 
L 196.458953 206.195026 
L 198.637843 210.879776 
L 200.816732 214.23884 
L 202.995622 217.285045 
L 205.174512 219.865663 
L 207.353401 221.481468 
L 209.532291 223.515041 
L 211.71118 224.732937 
L 213.89007 225.7996 
L 216.068959 226.206221 
L 218.247849 225.722704 
L 220.426738 225.431697 
L 224.784518 223.656293 
L 226.963407 223.102715 
L 229.142297 221.09485 
L 231.321186 219.932022 
L 233.500076 218.073969 
L 235.678965 215.350035 
L 237.857855 212.44746 
L 240.036745 210.274916 
L 242.215634 207.340484 
L 244.394524 203.47562 
L 246.573413 200.367889 
L 250.931192 192.075941 
L 253.110082 187.992562 
L 255.288972 184.585083 
L 259.646751 178.785724 
L 261.82564 177.481355 
L 264.00453 176.97455 
L 266.183419 175.49365 
L 268.362309 175.544873 
L 270.541199 174.956484 
L 272.720088 174.526372 
L 274.898978 175.053518 
L 277.077867 175.029641 
L 279.256757 175.685547 
L 281.435646 176.741962 
L 285.793425 179.438701 
L 287.972315 181.360917 
L 290.151205 184.468918 
L 292.330094 187.120689 
L 294.508984 189.160989 
L 296.687873 191.930885 
L 298.866763 195.334103 
L 305.403432 203.529538 
L 309.761211 207.701605 
L 311.9401 209.573608 
L 314.11899 210.959123 
L 318.476769 212.590098 
L 320.655659 213.166245 
L 322.834548 213.883518 
L 325.013438 213.835648 
L 327.192327 213.590536 
L 329.371217 212.542375 
L 331.550106 212.053459 
L 333.728996 211.168414 
L 335.907886 209.839244 
L 338.086775 208.805247 
L 340.265665 206.954193 
L 342.444554 205.362427 
L 344.623444 203.951923 
L 346.802333 202.203818 
L 348.981223 200.642938 
L 351.160112 199.71565 
L 353.339002 197.929921 
L 357.696781 195.355904 
L 359.875671 194.830438 
L 364.23345 192.847669 
L 366.412339 192.325734 
L 368.591229 192.81317 
L 370.770119 192.218073 
L 372.949008 191.967828 
L 375.127898 193.079106 
L 375.127898 193.079106 
" clip-path="url(#pd57b598b46)" style="fill: none; stroke: #1f77b4; stroke-width: 1.5; stroke-linecap: square"/>
   </g>
   <g id="line2d_14">
    <path d="M 34.240625 209.783066 
L 391.360625 209.783066 
" clip-path="url(#pd57b598b46)" style="fill: none; stroke-dasharray: 5.55,2.4; stroke-dashoffset: 0; stroke: #000000; stroke-opacity: 0.4; stroke-width: 1.5"/>
   </g>
   <g id="patch_3">
    <path d="M 34.240625 273.312 
L 34.240625 7.2 
" style="fill: none; stroke: #000000; stroke-width: 0.8; stroke-linejoin: miter; stroke-linecap: square"/>
   </g>
   <g id="patch_4">
    <path d="M 391.360625 273.312 
L 391.360625 7.2 
" style="fill: none; stroke: #000000; stroke-width: 0.8; stroke-linejoin: miter; stroke-linecap: square"/>
   </g>
   <g id="patch_5">
    <path d="M 34.240625 273.312 
L 391.360625 273.312 
" style="fill: none; stroke: #000000; stroke-width: 0.8; stroke-linejoin: miter; stroke-linecap: square"/>
   </g>
   <g id="patch_6">
    <path d="M 34.240625 7.2 
L 391.360625 7.2 
" style="fill: none; stroke: #000000; stroke-width: 0.8; stroke-linejoin: miter; stroke-linecap: square"/>
   </g>
   <g id="legend_1">
    <g id="patch_7">
     <path d="M 318.199688 44.55625 
L 384.360625 44.55625 
Q 386.360625 44.55625 386.360625 42.55625 
L 386.360625 14.2 
Q 386.360625 12.2 384.360625 12.2 
L 318.199688 12.2 
Q 316.199688 12.2 316.199688 14.2 
L 316.199688 42.55625 
Q 316.199688 44.55625 318.199688 44.55625 
z
" style="fill: #ffffff; opacity: 0.8; stroke: #cccccc; stroke-linejoin: miter"/>
    </g>
    <g id="line2d_15">
     <path d="M 320.199688 20.298437 
L 330.199688 20.298437 
L 340.199688 20.298437 
" style="fill: none; stroke: #1f77b4; stroke-width: 1.5; stroke-linecap: square"/>
    </g>
    <g id="text_15">
     <!-- Mean -->
     <g transform="translate(348.199688 23.798437) scale(0.1 -0.1)">
      <defs>
       <path id="DejaVuSans-4d" d="M 628 4666 
L 1569 4666 
L 2759 1491 
L 3956 4666 
L 4897 4666 
L 4897 0 
L 4281 0 
L 4281 4097 
L 3078 897 
L 2444 897 
L 1241 4097 
L 1241 0 
L 628 0 
L 628 4666 
z
" transform="scale(0.015625)"/>
       <path id="DejaVuSans-61" d="M 2194 1759 
Q 1497 1759 1228 1600 
Q 959 1441 959 1056 
Q 959 750 1161 570 
Q 1363 391 1709 391 
Q 2188 391 2477 730 
Q 2766 1069 2766 1631 
L 2766 1759 
L 2194 1759 
z
M 3341 1997 
L 3341 0 
L 2766 0 
L 2766 531 
Q 2569 213 2275 61 
Q 1981 -91 1556 -91 
Q 1019 -91 701 211 
Q 384 513 384 1019 
Q 384 1609 779 1909 
Q 1175 2209 1959 2209 
L 2766 2209 
L 2766 2266 
Q 2766 2663 2505 2880 
Q 2244 3097 1772 3097 
Q 1472 3097 1187 3025 
Q 903 2953 641 2809 
L 641 3341 
Q 956 3463 1253 3523 
Q 1550 3584 1831 3584 
Q 2591 3584 2966 3190 
Q 3341 2797 3341 1997 
z
" transform="scale(0.015625)"/>
      </defs>
      <use xlink:href="#DejaVuSans-4d"/>
      <use xlink:href="#DejaVuSans-65" transform="translate(86.279297 0)"/>
      <use xlink:href="#DejaVuSans-61" transform="translate(147.802734 0)"/>
      <use xlink:href="#DejaVuSans-6e" transform="translate(209.082031 0)"/>
     </g>
    </g>
    <g id="patch_8">
     <path d="M 320.199688 38.476562 
L 340.199688 38.476562 
L 340.199688 31.476562 
L 320.199688 31.476562 
z
" style="fill: #1f77b4; fill-opacity: 0.3; stroke: #1f77b4; stroke-opacity: 0.3; stroke-linejoin: miter"/>
    </g>
    <g id="text_16">
     <!-- Std Err -->
     <g transform="translate(348.199688 38.476562) scale(0.1 -0.1)">
      <defs>
       <path id="DejaVuSans-53" d="M 3425 4513 
L 3425 3897 
Q 3066 4069 2747 4153 
Q 2428 4238 2131 4238 
Q 1616 4238 1336 4038 
Q 1056 3838 1056 3469 
Q 1056 3159 1242 3001 
Q 1428 2844 1947 2747 
L 2328 2669 
Q 3034 2534 3370 2195 
Q 3706 1856 3706 1288 
Q 3706 609 3251 259 
Q 2797 -91 1919 -91 
Q 1588 -91 1214 -16 
Q 841 59 441 206 
L 441 856 
Q 825 641 1194 531 
Q 1563 422 1919 422 
Q 2459 422 2753 634 
Q 3047 847 3047 1241 
Q 3047 1584 2836 1778 
Q 2625 1972 2144 2069 
L 1759 2144 
Q 1053 2284 737 2584 
Q 422 2884 422 3419 
Q 422 4038 858 4394 
Q 1294 4750 2059 4750 
Q 2388 4750 2728 4690 
Q 3069 4631 3425 4513 
z
" transform="scale(0.015625)"/>
       <path id="DejaVuSans-45" d="M 628 4666 
L 3578 4666 
L 3578 4134 
L 1259 4134 
L 1259 2753 
L 3481 2753 
L 3481 2222 
L 1259 2222 
L 1259 531 
L 3634 531 
L 3634 0 
L 628 0 
L 628 4666 
z
" transform="scale(0.015625)"/>
      </defs>
      <use xlink:href="#DejaVuSans-53"/>
      <use xlink:href="#DejaVuSans-74" transform="translate(63.476562 0)"/>
      <use xlink:href="#DejaVuSans-64" transform="translate(102.685547 0)"/>
      <use xlink:href="#DejaVuSans-20" transform="translate(166.162109 0)"/>
      <use xlink:href="#DejaVuSans-45" transform="translate(197.949219 0)"/>
      <use xlink:href="#DejaVuSans-72" transform="translate(261.132812 0)"/>
      <use xlink:href="#DejaVuSans-72" transform="translate(300.496094 0)"/>
     </g>
    </g>
   </g>
  </g>
 </g>
 <defs>
  <clipPath id="pd57b598b46">
   <rect x="34.240625" y="7.2" width="357.12" height="266.112"/>
  </clipPath>
 </defs>
</svg>
