<?xml version="1.0" encoding="utf-8" standalone="no"?>
<!DOCTYPE svg PUBLIC "-//W3C//DTD SVG 1.1//EN"
  "http://www.w3.org/Graphics/SVG/1.1/DTD/svg11.dtd">
<svg xmlns:xlink="http://www.w3.org/1999/xlink" width="408.10125pt" height="311.579618pt" viewBox="0 0 408.10125 311.579618" xmlns="http://www.w3.org/2000/svg" version="1.1">
 <metadata>
  <rdf:RDF xmlns:dc="http://purl.org/dc/elements/1.1/" xmlns:cc="http://creativecommons.org/ns#" xmlns:rdf="http://www.w3.org/1999/02/22-rdf-syntax-ns#">
   <cc:Work>
    <dc:type rdf:resource="http://purl.org/dc/dcmitype/StillImage"/>
    <dc:date>2025-12-10T20:04:04.980569</dc:date>
    <dc:format>image/svg+xml</dc:format>
    <dc:creator>
     <cc:Agent>
      <dc:title>Matplotlib v3.10.5, https://matplotlib.org/</dc:title>
     </cc:Agent>
    </dc:creator>
   </cc:Work>
  </rdf:RDF>
 </metadata>
 <defs>
  <style type="text/css">*{stroke-linejoin: round; stroke-linecap: butt}</style>
 </defs>
 <g id="figure_1">
  <g id="patch_1">
   <path d="M 0 311.579618 
L 408.10125 311.579618 
L 408.10125 0 
L 0 0 
z
" style="fill: #ffffff"/>
  </g>
  <g id="axes_1">
   <g id="patch_2">
    <path d="M 43.78125 274.023368 
L 400.90125 274.023368 
L 400.90125 7.911368 
L 43.78125 7.911368 
z
" style="fill: #ffffff"/>
   </g>
   <g id="FillBetweenPolyCollection_1">
    <defs>
     <path id="mb35340cf7d" d="M 60.013977 -208.38993 
L 60.013977 -178.93538 
L 62.742167 -189.15303 
L 65.470356 -187.724085 
L 68.198546 -181.87449 
L 70.926735 -209.561221 
L 73.654925 -207.460728 
L 76.383114 -195.676255 
L 79.111303 -196.853204 
L 81.839493 -214.26375 
L 84.567682 -226.490467 
L 87.295872 -235.119247 
L 90.024061 -224.244648 
L 92.752251 -215.054988 
L 95.48044 -210.666898 
L 98.20863 -220.657842 
L 100.936819 -231.844093 
L 103.665009 -239.274152 
L 106.393198 -195.510939 
L 109.121388 -208.127812 
L 111.849577 -221.362528 
L 114.577766 -250.13674 
L 117.305956 -225.303381 
L 120.034145 -243.503143 
L 122.762335 -253.706799 
L 125.490524 -218.649387 
L 128.218714 -205.647101 
L 130.946903 -218.001064 
L 133.675093 -233.827794 
L 136.403282 -243.667581 
L 139.131472 -235.916685 
L 141.859661 -246.157959 
L 144.58785 -232.837241 
L 147.31604 -224.40548 
L 150.044229 -239.562512 
L 152.772419 -224.846126 
L 155.500608 -246.224287 
L 158.228798 -233.677703 
L 160.956987 -247.898815 
L 163.685177 -217.898998 
L 166.413366 -223.495074 
L 169.141556 -242.717319 
L 171.869745 -245.144745 
L 174.597934 -240.527729 
L 177.326124 -259.195969 
L 180.054313 -264.969967 
L 182.782503 -249.432795 
L 185.510692 -233.554699 
L 188.238882 -216.304773 
L 190.967071 -239.762687 
L 193.695261 -253.410649 
L 196.42345 -259.458075 
L 199.15164 -240.912581 
L 201.879829 -234.864735 
L 204.608019 -219.288817 
L 207.336208 -242.910739 
L 210.064397 -249.459798 
L 212.792587 -225.237704 
L 215.520776 -215.788867 
L 218.248966 -201.042836 
L 220.977155 -203.166002 
L 223.705345 -202.904615 
L 226.433534 -204.457714 
L 229.161724 -189.326356 
L 231.889913 -196.754847 
L 234.618103 -208.168567 
L 237.346292 -197.016145 
L 240.074481 -173.642381 
L 242.802671 -161.626973 
L 245.53086 -162.778021 
L 248.25905 -164.085756 
L 250.987239 -161.985391 
L 253.715429 -136.956839 
L 256.443618 -118.314671 
L 259.171808 -105.451948 
L 261.899997 -98.265923 
L 264.628187 -95.06552 
L 267.356376 -73.503666 
L 270.084566 -74.5928 
L 272.812755 -81.43743 
L 275.540944 -77.315053 
L 278.269134 -80.506493 
L 280.997323 -71.885987 
L 283.725513 -61.81486 
L 286.453702 -58.50636 
L 289.181892 -58.256787 
L 291.910081 -57.64008 
L 294.638271 -56.175611 
L 297.36646 -51.635491 
L 300.09465 -49.962704 
L 302.822839 -49.853114 
L 305.551028 -49.65225 
L 308.279218 -53.463812 
L 311.007407 -52.785602 
L 313.735597 -57.579709 
L 316.463786 -58.108079 
L 319.191976 -60.162526 
L 321.920165 -63.068389 
L 324.648355 -67.194512 
L 327.376544 -74.713838 
L 330.104734 -75.089533 
L 332.832923 -83.080157 
L 335.561112 -84.883501 
L 338.289302 -88.307792 
L 341.017491 -90.620667 
L 343.745681 -92.343905 
L 346.47387 -83.660261 
L 349.20206 -101.45088 
L 351.930249 -121.615881 
L 354.658439 -117.534997 
L 357.386628 -127.387412 
L 360.114818 -143.471558 
L 362.843007 -139.736515 
L 365.571197 -123.449212 
L 368.299386 -144.622202 
L 371.027575 -149.480618 
L 373.755765 -157.231486 
L 376.483954 -165.742713 
L 379.212144 -172.148152 
L 381.940333 -165.721585 
L 384.668523 -157.010396 
L 384.668523 -209.252668 
L 384.668523 -209.252668 
L 381.940333 -193.625518 
L 379.212144 -188.142037 
L 376.483954 -197.062371 
L 373.755765 -192.684761 
L 371.027575 -186.918068 
L 368.299386 -159.39721 
L 365.571197 -151.334546 
L 362.843007 -148.250442 
L 360.114818 -148.916465 
L 357.386628 -132.935699 
L 354.658439 -139.644495 
L 351.930249 -142.793935 
L 349.20206 -119.891359 
L 346.47387 -102.473447 
L 343.745681 -110.136621 
L 341.017491 -115.003478 
L 338.289302 -107.885497 
L 335.561112 -109.737978 
L 332.832923 -101.481742 
L 330.104734 -89.038844 
L 327.376544 -91.30071 
L 324.648355 -76.814705 
L 321.920165 -72.138696 
L 319.191976 -68.75732 
L 316.463786 -62.952721 
L 313.735597 -64.109815 
L 311.007407 -59.158703 
L 308.279218 -62.88156 
L 305.551028 -62.920779 
L 302.822839 -57.690125 
L 300.09465 -55.06564 
L 297.36646 -59.051367 
L 294.638271 -70.543703 
L 291.910081 -73.4803 
L 289.181892 -75.064126 
L 286.453702 -75.757639 
L 283.725513 -77.79329 
L 280.997323 -86.583876 
L 278.269134 -104.998492 
L 275.540944 -101.902694 
L 272.812755 -94.007975 
L 270.084566 -96.7659 
L 267.356376 -89.367264 
L 264.628187 -119.989481 
L 261.899997 -118.675249 
L 259.171808 -130.036575 
L 256.443618 -153.325468 
L 253.715429 -167.376935 
L 250.987239 -167.811696 
L 248.25905 -187.087939 
L 245.53086 -175.821198 
L 242.802671 -183.573845 
L 240.074481 -188.533979 
L 237.346292 -220.173544 
L 234.618103 -218.76634 
L 231.889913 -225.15027 
L 229.161724 -217.489391 
L 226.433534 -230.964964 
L 223.705345 -225.916463 
L 220.977155 -228.484333 
L 218.248966 -219.604833 
L 215.520776 -236.923713 
L 212.792587 -244.136056 
L 210.064397 -279.013995 
L 207.336208 -256.3274 
L 204.608019 -251.971115 
L 201.879829 -265.316489 
L 199.15164 -275.301098 
L 196.42345 -285.048174 
L 193.695261 -267.518459 
L 190.967071 -263.876518 
L 188.238882 -240.808873 
L 185.510692 -252.165878 
L 182.782503 -276.211741 
L 180.054313 -286.766605 
L 177.326124 -280.28049 
L 174.597934 -267.512542 
L 171.869745 -276.413087 
L 169.141556 -268.780933 
L 166.413366 -264.111675 
L 163.685177 -255.561466 
L 160.956987 -270.515398 
L 158.228798 -267.760968 
L 155.500608 -265.902688 
L 152.772419 -255.844662 
L 150.044229 -268.163397 
L 147.31604 -248.740623 
L 144.58785 -263.571641 
L 141.859661 -281.68711 
L 139.131472 -266.779434 
L 136.403282 -258.085452 
L 133.675093 -250.949698 
L 130.946903 -250.115249 
L 128.218714 -244.236222 
L 125.490524 -255.439801 
L 122.762335 -289.856364 
L 120.034145 -291.57225 
L 117.305956 -248.471446 
L 114.577766 -264.819493 
L 111.849577 -258.699536 
L 109.121388 -227.294866 
L 106.393198 -222.936197 
L 103.665009 -251.161854 
L 100.936819 -240.987648 
L 98.20863 -256.889327 
L 95.48044 -253.677072 
L 92.752251 -248.031534 
L 90.024061 -253.616883 
L 87.295872 -248.086436 
L 84.567682 -257.658302 
L 81.839493 -241.592449 
L 79.111303 -231.024788 
L 76.383114 -247.605469 
L 73.654925 -253.1109 
L 70.926735 -224.91837 
L 68.198546 -212.366782 
L 65.470356 -192.370902 
L 62.742167 -209.174945 
L 60.013977 -208.38993 
z
" style="stroke: #1f77b4; stroke-opacity: 0.3"/>
    </defs>
    <g clip-path="url(#p52e1ee78ff)">
     <use xlink:href="#mb35340cf7d" x="0" y="311.579618" style="fill: #1f77b4; fill-opacity: 0.3; stroke: #1f77b4; stroke-opacity: 0.3"/>
    </g>
   </g>
   <g id="matplotlib.axis_1">
    <g id="xtick_1">
     <g id="line2d_1">
      <defs>
       <path id="m3a43d94253" d="M 0 0 
L 0 3.5 
" style="stroke: #000000; stroke-width: 0.8"/>
      </defs>
      <g>
       <use xlink:href="#m3a43d94253" x="58.649883" y="274.023368" style="stroke: #000000; stroke-width: 0.8"/>
      </g>
     </g>
     <g id="text_1">
      <!-- 0 -->
      <g transform="translate(55.468633 288.621805) scale(0.1 -0.1)">
       <defs>
        <path id="DejaVuSans-30" d="M 2034 4250 
Q 1547 4250 1301 3770 
Q 1056 3291 1056 2328 
Q 1056 1369 1301 889 
Q 1547 409 2034 409 
Q 2525 409 2770 889 
Q 3016 1369 3016 2328 
Q 3016 3291 2770 3770 
Q 2525 4250 2034 4250 
z
M 2034 4750 
Q 2819 4750 3233 4129 
Q 3647 3509 3647 2328 
Q 3647 1150 3233 529 
Q 2819 -91 2034 -91 
Q 1250 -91 836 529 
Q 422 1150 422 2328 
Q 422 3509 836 4129 
Q 1250 4750 2034 4750 
z
" transform="scale(0.015625)"/>
       </defs>
       <use xlink:href="#DejaVuSans-30"/>
      </g>
     </g>
    </g>
    <g id="xtick_2">
     <g id="line2d_2">
      <g>
       <use xlink:href="#m3a43d94253" x="113.213672" y="274.023368" style="stroke: #000000; stroke-width: 0.8"/>
      </g>
     </g>
     <g id="text_2">
      <!-- 2 -->
      <g transform="translate(110.032422 288.621805) scale(0.1 -0.1)">
       <defs>
        <path id="DejaVuSans-32" d="M 1228 531 
L 3431 531 
L 3431 0 
L 469 0 
L 469 531 
Q 828 903 1448 1529 
Q 2069 2156 2228 2338 
Q 2531 2678 2651 2914 
Q 2772 3150 2772 3378 
Q 2772 3750 2511 3984 
Q 2250 4219 1831 4219 
Q 1534 4219 1204 4116 
Q 875 4013 500 3803 
L 500 4441 
Q 881 4594 1212 4672 
Q 1544 4750 1819 4750 
Q 2544 4750 2975 4387 
Q 3406 4025 3406 3419 
Q 3406 3131 3298 2873 
Q 3191 2616 2906 2266 
Q 2828 2175 2409 1742 
Q 1991 1309 1228 531 
z
" transform="scale(0.015625)"/>
       </defs>
       <use xlink:href="#DejaVuSans-32"/>
      </g>
     </g>
    </g>
    <g id="xtick_3">
     <g id="line2d_3">
      <g>
       <use xlink:href="#m3a43d94253" x="167.777461" y="274.023368" style="stroke: #000000; stroke-width: 0.8"/>
      </g>
     </g>
     <g id="text_3">
      <!-- 4 -->
      <g transform="translate(164.596211 288.621805) scale(0.1 -0.1)">
       <defs>
        <path id="DejaVuSans-34" d="M 2419 4116 
L 825 1625 
L 2419 1625 
L 2419 4116 
z
M 2253 4666 
L 3047 4666 
L 3047 1625 
L 3713 1625 
L 3713 1100 
L 3047 1100 
L 3047 0 
L 2419 0 
L 2419 1100 
L 313 1100 
L 313 1709 
L 2253 4666 
z
" transform="scale(0.015625)"/>
       </defs>
       <use xlink:href="#DejaVuSans-34"/>
      </g>
     </g>
    </g>
    <g id="xtick_4">
     <g id="line2d_4">
      <g>
       <use xlink:href="#m3a43d94253" x="222.34125" y="274.023368" style="stroke: #000000; stroke-width: 0.8"/>
      </g>
     </g>
     <g id="text_4">
      <!-- 6 -->
      <g transform="translate(219.16 288.621805) scale(0.1 -0.1)">
       <defs>
        <path id="DejaVuSans-36" d="M 2113 2584 
Q 1688 2584 1439 2293 
Q 1191 2003 1191 1497 
Q 1191 994 1439 701 
Q 1688 409 2113 409 
Q 2538 409 2786 701 
Q 3034 994 3034 1497 
Q 3034 2003 2786 2293 
Q 2538 2584 2113 2584 
z
M 3366 4563 
L 3366 3988 
Q 3128 4100 2886 4159 
Q 2644 4219 2406 4219 
Q 1781 4219 1451 3797 
Q 1122 3375 1075 2522 
Q 1259 2794 1537 2939 
Q 1816 3084 2150 3084 
Q 2853 3084 3261 2657 
Q 3669 2231 3669 1497 
Q 3669 778 3244 343 
Q 2819 -91 2113 -91 
Q 1303 -91 875 529 
Q 447 1150 447 2328 
Q 447 3434 972 4092 
Q 1497 4750 2381 4750 
Q 2619 4750 2861 4703 
Q 3103 4656 3366 4563 
z
" transform="scale(0.015625)"/>
       </defs>
       <use xlink:href="#DejaVuSans-36"/>
      </g>
     </g>
    </g>
    <g id="xtick_5">
     <g id="line2d_5">
      <g>
       <use xlink:href="#m3a43d94253" x="276.905039" y="274.023368" style="stroke: #000000; stroke-width: 0.8"/>
      </g>
     </g>
     <g id="text_5">
      <!-- 8 -->
      <g transform="translate(273.723789 288.621805) scale(0.1 -0.1)">
       <defs>
        <path id="DejaVuSans-38" d="M 2034 2216 
Q 1584 2216 1326 1975 
Q 1069 1734 1069 1313 
Q 1069 891 1326 650 
Q 1584 409 2034 409 
Q 2484 409 2743 651 
Q 3003 894 3003 1313 
Q 3003 1734 2745 1975 
Q 2488 2216 2034 2216 
z
M 1403 2484 
Q 997 2584 770 2862 
Q 544 3141 544 3541 
Q 544 4100 942 4425 
Q 1341 4750 2034 4750 
Q 2731 4750 3128 4425 
Q 3525 4100 3525 3541 
Q 3525 3141 3298 2862 
Q 3072 2584 2669 2484 
Q 3125 2378 3379 2068 
Q 3634 1759 3634 1313 
Q 3634 634 3220 271 
Q 2806 -91 2034 -91 
Q 1263 -91 848 271 
Q 434 634 434 1313 
Q 434 1759 690 2068 
Q 947 2378 1403 2484 
z
M 1172 3481 
Q 1172 3119 1398 2916 
Q 1625 2713 2034 2713 
Q 2441 2713 2670 2916 
Q 2900 3119 2900 3481 
Q 2900 3844 2670 4047 
Q 2441 4250 2034 4250 
Q 1625 4250 1398 4047 
Q 1172 3844 1172 3481 
z
" transform="scale(0.015625)"/>
       </defs>
       <use xlink:href="#DejaVuSans-38"/>
      </g>
     </g>
    </g>
    <g id="xtick_6">
     <g id="line2d_6">
      <g>
       <use xlink:href="#m3a43d94253" x="331.468828" y="274.023368" style="stroke: #000000; stroke-width: 0.8"/>
      </g>
     </g>
     <g id="text_6">
      <!-- 10 -->
      <g transform="translate(325.106328 288.621805) scale(0.1 -0.1)">
       <defs>
        <path id="DejaVuSans-31" d="M 794 531 
L 1825 531 
L 1825 4091 
L 703 3866 
L 703 4441 
L 1819 4666 
L 2450 4666 
L 2450 531 
L 3481 531 
L 3481 0 
L 794 0 
L 794 531 
z
" transform="scale(0.015625)"/>
       </defs>
       <use xlink:href="#DejaVuSans-31"/>
       <use xlink:href="#DejaVuSans-30" transform="translate(63.623047 0)"/>
      </g>
     </g>
    </g>
    <g id="xtick_7">
     <g id="line2d_7">
      <g>
       <use xlink:href="#m3a43d94253" x="386.032617" y="274.023368" style="stroke: #000000; stroke-width: 0.8"/>
      </g>
     </g>
     <g id="text_7">
      <!-- 12 -->
      <g transform="translate(379.670117 288.621805) scale(0.1 -0.1)">
       <use xlink:href="#DejaVuSans-31"/>
       <use xlink:href="#DejaVuSans-32" transform="translate(63.623047 0)"/>
      </g>
     </g>
    </g>
    <g id="text_8">
     <!-- z (reduced units) -->
     <g transform="translate(179.983438 302.29993) scale(0.1 -0.1)">
      <defs>
       <path id="DejaVuSans-7a" d="M 353 3500 
L 3084 3500 
L 3084 2975 
L 922 459 
L 3084 459 
L 3084 0 
L 275 0 
L 275 525 
L 2438 3041 
L 353 3041 
L 353 3500 
z
" transform="scale(0.015625)"/>
       <path id="DejaVuSans-20" transform="scale(0.015625)"/>
       <path id="DejaVuSans-28" d="M 1984 4856 
Q 1566 4138 1362 3434 
Q 1159 2731 1159 2009 
Q 1159 1288 1364 580 
Q 1569 -128 1984 -844 
L 1484 -844 
Q 1016 -109 783 600 
Q 550 1309 550 2009 
Q 550 2706 781 3412 
Q 1013 4119 1484 4856 
L 1984 4856 
z
" transform="scale(0.015625)"/>
       <path id="DejaVuSans-72" d="M 2631 2963 
Q 2534 3019 2420 3045 
Q 2306 3072 2169 3072 
Q 1681 3072 1420 2755 
Q 1159 2438 1159 1844 
L 1159 0 
L 581 0 
L 581 3500 
L 1159 3500 
L 1159 2956 
Q 1341 3275 1631 3429 
Q 1922 3584 2338 3584 
Q 2397 3584 2469 3576 
Q 2541 3569 2628 3553 
L 2631 2963 
z
" transform="scale(0.015625)"/>
       <path id="DejaVuSans-65" d="M 3597 1894 
L 3597 1613 
L 953 1613 
Q 991 1019 1311 708 
Q 1631 397 2203 397 
Q 2534 397 2845 478 
Q 3156 559 3463 722 
L 3463 178 
Q 3153 47 2828 -22 
Q 2503 -91 2169 -91 
Q 1331 -91 842 396 
Q 353 884 353 1716 
Q 353 2575 817 3079 
Q 1281 3584 2069 3584 
Q 2775 3584 3186 3129 
Q 3597 2675 3597 1894 
z
M 3022 2063 
Q 3016 2534 2758 2815 
Q 2500 3097 2075 3097 
Q 1594 3097 1305 2825 
Q 1016 2553 972 2059 
L 3022 2063 
z
" transform="scale(0.015625)"/>
       <path id="DejaVuSans-64" d="M 2906 2969 
L 2906 4863 
L 3481 4863 
L 3481 0 
L 2906 0 
L 2906 525 
Q 2725 213 2448 61 
Q 2172 -91 1784 -91 
Q 1150 -91 751 415 
Q 353 922 353 1747 
Q 353 2572 751 3078 
Q 1150 3584 1784 3584 
Q 2172 3584 2448 3432 
Q 2725 3281 2906 2969 
z
M 947 1747 
Q 947 1113 1208 752 
Q 1469 391 1925 391 
Q 2381 391 2643 752 
Q 2906 1113 2906 1747 
Q 2906 2381 2643 2742 
Q 2381 3103 1925 3103 
Q 1469 3103 1208 2742 
Q 947 2381 947 1747 
z
" transform="scale(0.015625)"/>
       <path id="DejaVuSans-75" d="M 544 1381 
L 544 3500 
L 1119 3500 
L 1119 1403 
Q 1119 906 1312 657 
Q 1506 409 1894 409 
Q 2359 409 2629 706 
Q 2900 1003 2900 1516 
L 2900 3500 
L 3475 3500 
L 3475 0 
L 2900 0 
L 2900 538 
Q 2691 219 2414 64 
Q 2138 -91 1772 -91 
Q 1169 -91 856 284 
Q 544 659 544 1381 
z
M 1991 3584 
L 1991 3584 
z
" transform="scale(0.015625)"/>
       <path id="DejaVuSans-63" d="M 3122 3366 
L 3122 2828 
Q 2878 2963 2633 3030 
Q 2388 3097 2138 3097 
Q 1578 3097 1268 2742 
Q 959 2388 959 1747 
Q 959 1106 1268 751 
Q 1578 397 2138 397 
Q 2388 397 2633 464 
Q 2878 531 3122 666 
L 3122 134 
Q 2881 22 2623 -34 
Q 2366 -91 2075 -91 
Q 1284 -91 818 406 
Q 353 903 353 1747 
Q 353 2603 823 3093 
Q 1294 3584 2113 3584 
Q 2378 3584 2631 3529 
Q 2884 3475 3122 3366 
z
" transform="scale(0.015625)"/>
       <path id="DejaVuSans-6e" d="M 3513 2113 
L 3513 0 
L 2938 0 
L 2938 2094 
Q 2938 2591 2744 2837 
Q 2550 3084 2163 3084 
Q 1697 3084 1428 2787 
Q 1159 2491 1159 1978 
L 1159 0 
L 581 0 
L 581 3500 
L 1159 3500 
L 1159 2956 
Q 1366 3272 1645 3428 
Q 1925 3584 2291 3584 
Q 2894 3584 3203 3211 
Q 3513 2838 3513 2113 
z
" transform="scale(0.015625)"/>
       <path id="DejaVuSans-69" d="M 603 3500 
L 1178 3500 
L 1178 0 
L 603 0 
L 603 3500 
z
M 603 4863 
L 1178 4863 
L 1178 4134 
L 603 4134 
L 603 4863 
z
" transform="scale(0.015625)"/>
       <path id="DejaVuSans-74" d="M 1172 4494 
L 1172 3500 
L 2356 3500 
L 2356 3053 
L 1172 3053 
L 1172 1153 
Q 1172 725 1289 603 
Q 1406 481 1766 481 
L 2356 481 
L 2356 0 
L 1766 0 
Q 1100 0 847 248 
Q 594 497 594 1153 
L 594 3053 
L 172 3053 
L 172 3500 
L 594 3500 
L 594 4494 
L 1172 4494 
z
" transform="scale(0.015625)"/>
       <path id="DejaVuSans-73" d="M 2834 3397 
L 2834 2853 
Q 2591 2978 2328 3040 
Q 2066 3103 1784 3103 
Q 1356 3103 1142 2972 
Q 928 2841 928 2578 
Q 928 2378 1081 2264 
Q 1234 2150 1697 2047 
L 1894 2003 
Q 2506 1872 2764 1633 
Q 3022 1394 3022 966 
Q 3022 478 2636 193 
Q 2250 -91 1575 -91 
Q 1294 -91 989 -36 
Q 684 19 347 128 
L 347 722 
Q 666 556 975 473 
Q 1284 391 1588 391 
Q 1994 391 2212 530 
Q 2431 669 2431 922 
Q 2431 1156 2273 1281 
Q 2116 1406 1581 1522 
L 1381 1569 
Q 847 1681 609 1914 
Q 372 2147 372 2553 
Q 372 3047 722 3315 
Q 1072 3584 1716 3584 
Q 2034 3584 2315 3537 
Q 2597 3491 2834 3397 
z
" transform="scale(0.015625)"/>
       <path id="DejaVuSans-29" d="M 513 4856 
L 1013 4856 
Q 1481 4119 1714 3412 
Q 1947 2706 1947 2009 
Q 1947 1309 1714 600 
Q 1481 -109 1013 -844 
L 513 -844 
Q 928 -128 1133 580 
Q 1338 1288 1338 2009 
Q 1338 2731 1133 3434 
Q 928 4138 513 4856 
z
" transform="scale(0.015625)"/>
      </defs>
      <use xlink:href="#DejaVuSans-7a"/>
      <use xlink:href="#DejaVuSans-20" transform="translate(52.490234 0)"/>
      <use xlink:href="#DejaVuSans-28" transform="translate(84.277344 0)"/>
      <use xlink:href="#DejaVuSans-72" transform="translate(123.291016 0)"/>
      <use xlink:href="#DejaVuSans-65" transform="translate(162.154297 0)"/>
      <use xlink:href="#DejaVuSans-64" transform="translate(223.677734 0)"/>
      <use xlink:href="#DejaVuSans-75" transform="translate(287.154297 0)"/>
      <use xlink:href="#DejaVuSans-63" transform="translate(350.533203 0)"/>
      <use xlink:href="#DejaVuSans-65" transform="translate(405.513672 0)"/>
      <use xlink:href="#DejaVuSans-64" transform="translate(467.037109 0)"/>
      <use xlink:href="#DejaVuSans-20" transform="translate(530.513672 0)"/>
      <use xlink:href="#DejaVuSans-75" transform="translate(562.300781 0)"/>
      <use xlink:href="#DejaVuSans-6e" transform="translate(625.679688 0)"/>
      <use xlink:href="#DejaVuSans-69" transform="translate(689.058594 0)"/>
      <use xlink:href="#DejaVuSans-74" transform="translate(716.841797 0)"/>
      <use xlink:href="#DejaVuSans-73" transform="translate(756.050781 0)"/>
      <use xlink:href="#DejaVuSans-29" transform="translate(808.150391 0)"/>
     </g>
    </g>
   </g>
   <g id="matplotlib.axis_2">
    <g id="ytick_1">
     <g id="line2d_8">
      <defs>
       <path id="m7c66e06b42" d="M 0 0 
L -3.5 0 
" style="stroke: #000000; stroke-width: 0.8"/>
      </defs>
      <g>
       <use xlink:href="#m7c66e06b42" x="43.78125" y="265.981407" style="stroke: #000000; stroke-width: 0.8"/>
      </g>
     </g>
     <g id="text_9">
      <!-- 0.0 -->
      <g transform="translate(20.878125 269.780626) scale(0.1 -0.1)">
       <defs>
        <path id="DejaVuSans-2e" d="M 684 794 
L 1344 794 
L 1344 0 
L 684 0 
L 684 794 
z
" transform="scale(0.015625)"/>
       </defs>
       <use xlink:href="#DejaVuSans-30"/>
       <use xlink:href="#DejaVuSans-2e" transform="translate(63.623047 0)"/>
       <use xlink:href="#DejaVuSans-30" transform="translate(95.410156 0)"/>
      </g>
     </g>
    </g>
    <g id="ytick_2">
     <g id="line2d_9">
      <g>
       <use xlink:href="#m7c66e06b42" x="43.78125" y="234.108633" style="stroke: #000000; stroke-width: 0.8"/>
      </g>
     </g>
     <g id="text_10">
      <!-- 0.1 -->
      <g transform="translate(20.878125 237.907852) scale(0.1 -0.1)">
       <use xlink:href="#DejaVuSans-30"/>
       <use xlink:href="#DejaVuSans-2e" transform="translate(63.623047 0)"/>
       <use xlink:href="#DejaVuSans-31" transform="translate(95.410156 0)"/>
      </g>
     </g>
    </g>
    <g id="ytick_3">
     <g id="line2d_10">
      <g>
       <use xlink:href="#m7c66e06b42" x="43.78125" y="202.23586" style="stroke: #000000; stroke-width: 0.8"/>
      </g>
     </g>
     <g id="text_11">
      <!-- 0.2 -->
      <g transform="translate(20.878125 206.035079) scale(0.1 -0.1)">
       <use xlink:href="#DejaVuSans-30"/>
       <use xlink:href="#DejaVuSans-2e" transform="translate(63.623047 0)"/>
       <use xlink:href="#DejaVuSans-32" transform="translate(95.410156 0)"/>
      </g>
     </g>
    </g>
    <g id="ytick_4">
     <g id="line2d_11">
      <g>
       <use xlink:href="#m7c66e06b42" x="43.78125" y="170.363086" style="stroke: #000000; stroke-width: 0.8"/>
      </g>
     </g>
     <g id="text_12">
      <!-- 0.3 -->
      <g transform="translate(20.878125 174.162305) scale(0.1 -0.1)">
       <defs>
        <path id="DejaVuSans-33" d="M 2597 2516 
Q 3050 2419 3304 2112 
Q 3559 1806 3559 1356 
Q 3559 666 3084 287 
Q 2609 -91 1734 -91 
Q 1441 -91 1130 -33 
Q 819 25 488 141 
L 488 750 
Q 750 597 1062 519 
Q 1375 441 1716 441 
Q 2309 441 2620 675 
Q 2931 909 2931 1356 
Q 2931 1769 2642 2001 
Q 2353 2234 1838 2234 
L 1294 2234 
L 1294 2753 
L 1863 2753 
Q 2328 2753 2575 2939 
Q 2822 3125 2822 3475 
Q 2822 3834 2567 4026 
Q 2313 4219 1838 4219 
Q 1578 4219 1281 4162 
Q 984 4106 628 3988 
L 628 4550 
Q 988 4650 1302 4700 
Q 1616 4750 1894 4750 
Q 2613 4750 3031 4423 
Q 3450 4097 3450 3541 
Q 3450 3153 3228 2886 
Q 3006 2619 2597 2516 
z
" transform="scale(0.015625)"/>
       </defs>
       <use xlink:href="#DejaVuSans-30"/>
       <use xlink:href="#DejaVuSans-2e" transform="translate(63.623047 0)"/>
       <use xlink:href="#DejaVuSans-33" transform="translate(95.410156 0)"/>
      </g>
     </g>
    </g>
    <g id="ytick_5">
     <g id="line2d_12">
      <g>
       <use xlink:href="#m7c66e06b42" x="43.78125" y="138.490313" style="stroke: #000000; stroke-width: 0.8"/>
      </g>
     </g>
     <g id="text_13">
      <!-- 0.4 -->
      <g transform="translate(20.878125 142.289532) scale(0.1 -0.1)">
       <use xlink:href="#DejaVuSans-30"/>
       <use xlink:href="#DejaVuSans-2e" transform="translate(63.623047 0)"/>
       <use xlink:href="#DejaVuSans-34" transform="translate(95.410156 0)"/>
      </g>
     </g>
    </g>
    <g id="ytick_6">
     <g id="line2d_13">
      <g>
       <use xlink:href="#m7c66e06b42" x="43.78125" y="106.617539" style="stroke: #000000; stroke-width: 0.8"/>
      </g>
     </g>
     <g id="text_14">
      <!-- 0.5 -->
      <g transform="translate(20.878125 110.416758) scale(0.1 -0.1)">
       <defs>
        <path id="DejaVuSans-35" d="M 691 4666 
L 3169 4666 
L 3169 4134 
L 1269 4134 
L 1269 2991 
Q 1406 3038 1543 3061 
Q 1681 3084 1819 3084 
Q 2600 3084 3056 2656 
Q 3513 2228 3513 1497 
Q 3513 744 3044 326 
Q 2575 -91 1722 -91 
Q 1428 -91 1123 -41 
Q 819 9 494 109 
L 494 744 
Q 775 591 1075 516 
Q 1375 441 1709 441 
Q 2250 441 2565 725 
Q 2881 1009 2881 1497 
Q 2881 1984 2565 2268 
Q 2250 2553 1709 2553 
Q 1456 2553 1204 2497 
Q 953 2441 691 2322 
L 691 4666 
z
" transform="scale(0.015625)"/>
       </defs>
       <use xlink:href="#DejaVuSans-30"/>
       <use xlink:href="#DejaVuSans-2e" transform="translate(63.623047 0)"/>
       <use xlink:href="#DejaVuSans-35" transform="translate(95.410156 0)"/>
      </g>
     </g>
    </g>
    <g id="ytick_7">
     <g id="line2d_14">
      <g>
       <use xlink:href="#m7c66e06b42" x="43.78125" y="74.744766" style="stroke: #000000; stroke-width: 0.8"/>
      </g>
     </g>
     <g id="text_15">
      <!-- 0.6 -->
      <g transform="translate(20.878125 78.543985) scale(0.1 -0.1)">
       <use xlink:href="#DejaVuSans-30"/>
       <use xlink:href="#DejaVuSans-2e" transform="translate(63.623047 0)"/>
       <use xlink:href="#DejaVuSans-36" transform="translate(95.410156 0)"/>
      </g>
     </g>
    </g>
    <g id="ytick_8">
     <g id="line2d_15">
      <g>
       <use xlink:href="#m7c66e06b42" x="43.78125" y="42.871992" style="stroke: #000000; stroke-width: 0.8"/>
      </g>
     </g>
     <g id="text_16">
      <!-- 0.7 -->
      <g transform="translate(20.878125 46.671211) scale(0.1 -0.1)">
       <defs>
        <path id="DejaVuSans-37" d="M 525 4666 
L 3525 4666 
L 3525 4397 
L 1831 0 
L 1172 0 
L 2766 4134 
L 525 4134 
L 525 4666 
z
" transform="scale(0.015625)"/>
       </defs>
       <use xlink:href="#DejaVuSans-30"/>
       <use xlink:href="#DejaVuSans-2e" transform="translate(63.623047 0)"/>
       <use xlink:href="#DejaVuSans-37" transform="translate(95.410156 0)"/>
      </g>
     </g>
    </g>
    <g id="ytick_9">
     <g id="line2d_16">
      <g>
       <use xlink:href="#m7c66e06b42" x="43.78125" y="10.999219" style="stroke: #000000; stroke-width: 0.8"/>
      </g>
     </g>
     <g id="text_17">
      <!-- 0.8 -->
      <g transform="translate(20.878125 14.798437) scale(0.1 -0.1)">
       <use xlink:href="#DejaVuSans-30"/>
       <use xlink:href="#DejaVuSans-2e" transform="translate(63.623047 0)"/>
       <use xlink:href="#DejaVuSans-38" transform="translate(95.410156 0)"/>
      </g>
     </g>
    </g>
    <g id="text_18">
     <!-- rho(z) (reduced units) -->
     <g transform="translate(14.798438 195.422836) rotate(-90) scale(0.1 -0.1)">
      <defs>
       <path id="DejaVuSans-68" d="M 3513 2113 
L 3513 0 
L 2938 0 
L 2938 2094 
Q 2938 2591 2744 2837 
Q 2550 3084 2163 3084 
Q 1697 3084 1428 2787 
Q 1159 2491 1159 1978 
L 1159 0 
L 581 0 
L 581 4863 
L 1159 4863 
L 1159 2956 
Q 1366 3272 1645 3428 
Q 1925 3584 2291 3584 
Q 2894 3584 3203 3211 
Q 3513 2838 3513 2113 
z
" transform="scale(0.015625)"/>
       <path id="DejaVuSans-6f" d="M 1959 3097 
Q 1497 3097 1228 2736 
Q 959 2375 959 1747 
Q 959 1119 1226 758 
Q 1494 397 1959 397 
Q 2419 397 2687 759 
Q 2956 1122 2956 1747 
Q 2956 2369 2687 2733 
Q 2419 3097 1959 3097 
z
M 1959 3584 
Q 2709 3584 3137 3096 
Q 3566 2609 3566 1747 
Q 3566 888 3137 398 
Q 2709 -91 1959 -91 
Q 1206 -91 779 398 
Q 353 888 353 1747 
Q 353 2609 779 3096 
Q 1206 3584 1959 3584 
z
" transform="scale(0.015625)"/>
      </defs>
      <use xlink:href="#DejaVuSans-72"/>
      <use xlink:href="#DejaVuSans-68" transform="translate(39.363281 0)"/>
      <use xlink:href="#DejaVuSans-6f" transform="translate(102.742188 0)"/>
      <use xlink:href="#DejaVuSans-28" transform="translate(163.923828 0)"/>
      <use xlink:href="#DejaVuSans-7a" transform="translate(202.9375 0)"/>
      <use xlink:href="#DejaVuSans-29" transform="translate(255.427734 0)"/>
      <use xlink:href="#DejaVuSans-20" transform="translate(294.441406 0)"/>
      <use xlink:href="#DejaVuSans-28" transform="translate(326.228516 0)"/>
      <use xlink:href="#DejaVuSans-72" transform="translate(365.242188 0)"/>
      <use xlink:href="#DejaVuSans-65" transform="translate(404.105469 0)"/>
      <use xlink:href="#DejaVuSans-64" transform="translate(465.628906 0)"/>
      <use xlink:href="#DejaVuSans-75" transform="translate(529.105469 0)"/>
      <use xlink:href="#DejaVuSans-63" transform="translate(592.484375 0)"/>
      <use xlink:href="#DejaVuSans-65" transform="translate(647.464844 0)"/>
      <use xlink:href="#DejaVuSans-64" transform="translate(708.988281 0)"/>
      <use xlink:href="#DejaVuSans-20" transform="translate(772.464844 0)"/>
      <use xlink:href="#DejaVuSans-75" transform="translate(804.251953 0)"/>
      <use xlink:href="#DejaVuSans-6e" transform="translate(867.630859 0)"/>
      <use xlink:href="#DejaVuSans-69" transform="translate(931.009766 0)"/>
      <use xlink:href="#DejaVuSans-74" transform="translate(958.792969 0)"/>
      <use xlink:href="#DejaVuSans-73" transform="translate(998.001953 0)"/>
      <use xlink:href="#DejaVuSans-29" transform="translate(1050.101562 0)"/>
     </g>
    </g>
   </g>
   <g id="line2d_17">
    <path d="M 60.013977 117.916963 
L 62.742167 112.41563 
L 65.470356 121.532124 
L 68.198546 114.458982 
L 70.926735 94.339822 
L 73.654925 81.293804 
L 76.383114 89.938756 
L 79.111303 97.640622 
L 81.839493 83.651518 
L 84.567682 69.505234 
L 87.295872 69.976776 
L 90.024061 72.648852 
L 92.752251 80.036356 
L 95.48044 79.407633 
L 98.20863 72.806033 
L 100.936819 75.163747 
L 103.665009 66.361615 
L 106.393198 102.35605 
L 109.121388 93.868279 
L 111.849577 71.548586 
L 114.577766 54.101502 
L 117.305956 74.692204 
L 120.034145 44.041921 
L 122.762335 39.798036 
L 125.490524 74.535024 
L 128.218714 86.637956 
L 130.946903 77.521461 
L 133.675093 69.190872 
L 136.403282 60.703101 
L 139.131472 60.231558 
L 141.859661 47.657083 
L 144.58785 63.375177 
L 147.31604 75.006566 
L 150.044229 57.716663 
L 152.772419 71.234224 
L 155.500608 55.51613 
L 158.228798 60.860282 
L 160.956987 52.372511 
L 163.685177 74.849385 
L 166.413366 67.776243 
L 169.141556 55.830492 
L 171.869745 50.800702 
L 174.597934 57.559482 
L 177.326124 41.841388 
L 180.054313 35.711332 
L 182.782503 48.75735 
L 185.510692 68.719329 
L 188.238882 83.022794 
L 190.967071 59.760015 
L 193.695261 51.115064 
L 196.42345 39.326493 
L 199.15164 53.472778 
L 201.879829 61.489006 
L 204.608019 75.949652 
L 207.336208 61.960548 
L 210.064397 47.342721 
L 212.792587 76.892738 
L 215.520776 85.223327 
L 218.248966 101.255783 
L 220.977155 95.75445 
L 223.705345 97.169079 
L 226.433534 93.868279 
L 229.161724 108.171744 
L 231.889913 100.627059 
L 234.618103 98.112164 
L 237.346292 102.984773 
L 240.074481 130.491438 
L 242.802671 138.979208 
L 245.53086 142.280008 
L 248.25905 135.992771 
L 250.987239 146.681074 
L 253.715429 159.41273 
L 256.443618 175.759548 
L 259.171808 193.835356 
L 261.899997 203.109031 
L 264.628187 204.052117 
L 267.356376 230.144153 
L 270.084566 225.900268 
L 272.812755 223.856915 
L 275.540944 221.970744 
L 278.269134 218.827125 
L 280.997323 232.344686 
L 283.725513 241.775542 
L 286.453702 244.447618 
L 289.181892 244.919161 
L 291.910081 246.019428 
L 294.638271 248.219961 
L 297.36646 256.236189 
L 300.09465 259.065446 
L 302.822839 257.807998 
L 305.551028 255.293103 
L 308.279218 253.406932 
L 311.007407 255.607465 
L 313.735597 250.734856 
L 316.463786 251.049218 
L 319.191976 247.119694 
L 321.920165 243.976075 
L 324.648355 239.575009 
L 327.376544 228.572343 
L 330.104734 229.515429 
L 332.832923 219.298668 
L 335.561112 214.268878 
L 338.289302 213.482973 
L 341.017491 208.767545 
L 343.745681 210.339355 
L 346.47387 218.512763 
L 349.20206 200.908498 
L 351.930249 179.37471 
L 354.658439 182.989871 
L 357.386628 181.418062 
L 360.114818 165.385606 
L 362.843007 167.586139 
L 365.571197 174.187739 
L 368.299386 159.569911 
L 371.027575 143.380275 
L 373.755765 136.621494 
L 376.483954 130.177076 
L 379.212144 131.434523 
L 381.940333 131.906066 
L 384.668523 128.448086 
" clip-path="url(#p52e1ee78ff)" style="fill: none; stroke: #1f77b4; stroke-width: 1.5; stroke-linecap: square"/>
   </g>
   <g id="patch_3">
    <path d="M 43.78125 274.023368 
L 43.78125 7.911368 
" style="fill: none; stroke: #000000; stroke-width: 0.8; stroke-linejoin: miter; stroke-linecap: square"/>
   </g>
   <g id="patch_4">
    <path d="M 400.90125 274.023368 
L 400.90125 7.911368 
" style="fill: none; stroke: #000000; stroke-width: 0.8; stroke-linejoin: miter; stroke-linecap: square"/>
   </g>
   <g id="patch_5">
    <path d="M 43.78125 274.023368 
L 400.90125 274.023368 
" style="fill: none; stroke: #000000; stroke-width: 0.8; stroke-linejoin: miter; stroke-linecap: square"/>
   </g>
   <g id="patch_6">
    <path d="M 43.78125 7.911368 
L 400.90125 7.911368 
" style="fill: none; stroke: #000000; stroke-width: 0.8; stroke-linejoin: miter; stroke-linecap: square"/>
   </g>
   <g id="legend_1">
    <g id="patch_7">
     <path d="M 327.740313 45.267618 
L 393.90125 45.267618 
Q 395.90125 45.267618 395.90125 43.267618 
L 395.90125 14.911368 
Q 395.90125 12.911368 393.90125 12.911368 
L 327.740313 12.911368 
Q 325.740313 12.911368 325.740313 14.911368 
L 325.740313 43.267618 
Q 325.740313 45.267618 327.740313 45.267618 
z
" style="fill: #ffffff; opacity: 0.8; stroke: #cccccc; stroke-linejoin: miter"/>
    </g>
    <g id="line2d_18">
     <path d="M 329.740313 21.009805 
L 339.740313 21.009805 
L 349.740313 21.009805 
" style="fill: none; stroke: #1f77b4; stroke-width: 1.5; stroke-linecap: square"/>
    </g>
    <g id="text_19">
     <!-- Mean -->
     <g transform="translate(357.740313 24.509805) scale(0.1 -0.1)">
      <defs>
       <path id="DejaVuSans-4d" d="M 628 4666 
L 1569 4666 
L 2759 1491 
L 3956 4666 
L 4897 4666 
L 4897 0 
L 4281 0 
L 4281 4097 
L 3078 897 
L 2444 897 
L 1241 4097 
L 1241 0 
L 628 0 
L 628 4666 
z
" transform="scale(0.015625)"/>
       <path id="DejaVuSans-61" d="M 2194 1759 
Q 1497 1759 1228 1600 
Q 959 1441 959 1056 
Q 959 750 1161 570 
Q 1363 391 1709 391 
Q 2188 391 2477 730 
Q 2766 1069 2766 1631 
L 2766 1759 
L 2194 1759 
z
M 3341 1997 
L 3341 0 
L 2766 0 
L 2766 531 
Q 2569 213 2275 61 
Q 1981 -91 1556 -91 
Q 1019 -91 701 211 
Q 384 513 384 1019 
Q 384 1609 779 1909 
Q 1175 2209 1959 2209 
L 2766 2209 
L 2766 2266 
Q 2766 2663 2505 2880 
Q 2244 3097 1772 3097 
Q 1472 3097 1187 3025 
Q 903 2953 641 2809 
L 641 3341 
Q 956 3463 1253 3523 
Q 1550 3584 1831 3584 
Q 2591 3584 2966 3190 
Q 3341 2797 3341 1997 
z
" transform="scale(0.015625)"/>
      </defs>
      <use xlink:href="#DejaVuSans-4d"/>
      <use xlink:href="#DejaVuSans-65" transform="translate(86.279297 0)"/>
      <use xlink:href="#DejaVuSans-61" transform="translate(147.802734 0)"/>
      <use xlink:href="#DejaVuSans-6e" transform="translate(209.082031 0)"/>
     </g>
    </g>
    <g id="patch_8">
     <path d="M 329.740313 39.18793 
L 349.740313 39.18793 
L 349.740313 32.18793 
L 329.740313 32.18793 
z
" style="fill: #1f77b4; fill-opacity: 0.3; stroke: #1f77b4; stroke-opacity: 0.3; stroke-linejoin: miter"/>
    </g>
    <g id="text_20">
     <!-- Std Err -->
     <g transform="translate(357.740313 39.18793) scale(0.1 -0.1)">
      <defs>
       <path id="DejaVuSans-53" d="M 3425 4513 
L 3425 3897 
Q 3066 4069 2747 4153 
Q 2428 4238 2131 4238 
Q 1616 4238 1336 4038 
Q 1056 3838 1056 3469 
Q 1056 3159 1242 3001 
Q 1428 2844 1947 2747 
L 2328 2669 
Q 3034 2534 3370 2195 
Q 3706 1856 3706 1288 
Q 3706 609 3251 259 
Q 2797 -91 1919 -91 
Q 1588 -91 1214 -16 
Q 841 59 441 206 
L 441 856 
Q 825 641 1194 531 
Q 1563 422 1919 422 
Q 2459 422 2753 634 
Q 3047 847 3047 1241 
Q 3047 1584 2836 1778 
Q 2625 1972 2144 2069 
L 1759 2144 
Q 1053 2284 737 2584 
Q 422 2884 422 3419 
Q 422 4038 858 4394 
Q 1294 4750 2059 4750 
Q 2388 4750 2728 4690 
Q 3069 4631 3425 4513 
z
" transform="scale(0.015625)"/>
       <path id="DejaVuSans-45" d="M 628 4666 
L 3578 4666 
L 3578 4134 
L 1259 4134 
L 1259 2753 
L 3481 2753 
L 3481 2222 
L 1259 2222 
L 1259 531 
L 3634 531 
L 3634 0 
L 628 0 
L 628 4666 
z
" transform="scale(0.015625)"/>
      </defs>
      <use xlink:href="#DejaVuSans-53"/>
      <use xlink:href="#DejaVuSans-74" transform="translate(63.476562 0)"/>
      <use xlink:href="#DejaVuSans-64" transform="translate(102.685547 0)"/>
      <use xlink:href="#DejaVuSans-20" transform="translate(166.162109 0)"/>
      <use xlink:href="#DejaVuSans-45" transform="translate(197.949219 0)"/>
      <use xlink:href="#DejaVuSans-72" transform="translate(261.132812 0)"/>
      <use xlink:href="#DejaVuSans-72" transform="translate(300.496094 0)"/>
     </g>
    </g>
   </g>
  </g>
 </g>
 <defs>
  <clipPath id="p52e1ee78ff">
   <rect x="43.78125" y="7.911368" width="357.12" height="266.112"/>
  </clipPath>
 </defs>
</svg>
