<?xml version="1.0" encoding="utf-8" standalone="no"?>
<!DOCTYPE svg PUBLIC "-//W3C//DTD SVG 1.1//EN"
  "http://www.w3.org/Graphics/SVG/1.1/DTD/svg11.dtd">
<svg xmlns:xlink="http://www.w3.org/1999/xlink" width="408.10125pt" height="310.86825pt" viewBox="0 0 408.10125 310.86825" xmlns="http://www.w3.org/2000/svg" version="1.1">
 <metadata>
  <rdf:RDF xmlns:dc="http://purl.org/dc/elements/1.1/" xmlns:cc="http://creativecommons.org/ns#" xmlns:rdf="http://www.w3.org/1999/02/22-rdf-syntax-ns#">
   <cc:Work>
    <dc:type rdf:resource="http://purl.org/dc/dcmitype/StillImage"/>
    <dc:date>2025-12-10T20:04:03.914970</dc:date>
    <dc:format>image/svg+xml</dc:format>
    <dc:creator>
     <cc:Agent>
      <dc:title>Matplotlib v3.10.5, https://matplotlib.org/</dc:title>
     </cc:Agent>
    </dc:creator>
   </cc:Work>
  </rdf:RDF>
 </metadata>
 <defs>
  <style type="text/css">*{stroke-linejoin: round; stroke-linecap: butt}</style>
 </defs>
 <g id="figure_1">
  <g id="patch_1">
   <path d="M 0 310.86825 
L 408.10125 310.86825 
L 408.10125 0 
L 0 0 
z
" style="fill: #ffffff"/>
  </g>
  <g id="axes_1">
   <g id="patch_2">
    <path d="M 43.78125 273.312 
L 400.90125 273.312 
L 400.90125 7.2 
L 43.78125 7.2 
z
" style="fill: #ffffff"/>
   </g>
   <g id="FillBetweenPolyCollection_1">
    <defs>
     <path id="m9ca4fc9337" d="M 60.013977 -49.65225 
L 60.013977 -49.65225 
L 61.645407 -49.65225 
L 63.276837 -49.65225 
L 64.908267 -49.65225 
L 66.539697 -49.65225 
L 68.171127 -49.65225 
L 69.802557 -49.65225 
L 71.433986 -49.65225 
L 73.065416 -49.65225 
L 74.696846 -49.65225 
L 76.328276 -49.65225 
L 77.959706 -49.65225 
L 79.591136 -49.65225 
L 81.222566 -49.65225 
L 82.853996 -49.65225 
L 84.485425 -49.65225 
L 86.116855 -49.65225 
L 87.748285 -49.65225 
L 89.379715 -49.65225 
L 91.011145 -49.65225 
L 92.642575 -49.65225 
L 94.274005 -49.65225 
L 95.905435 -49.65225 
L 97.536864 -49.65225 
L 99.168294 -49.65225 
L 100.799724 -49.65225 
L 102.431154 -49.65225 
L 104.062584 -49.65225 
L 105.694014 -49.65225 
L 107.325444 -49.65225 
L 108.956874 -49.65225 
L 110.588303 -49.65225 
L 112.219733 -49.65225 
L 113.851163 -49.65225 
L 115.482593 -49.65225 
L 117.114023 -49.65225 
L 118.745453 -49.65225 
L 120.376883 -49.65225 
L 122.008313 -49.65225 
L 123.639742 -49.65225 
L 125.271172 -49.65225 
L 126.902602 -49.65225 
L 128.534032 -49.65225 
L 130.165462 -49.65225 
L 131.796892 -49.69296 
L 133.428322 -49.985653 
L 135.059752 -53.999745 
L 136.691181 -66.133138 
L 138.322611 -93.017481 
L 139.954041 -132.742578 
L 141.585471 -179.448849 
L 143.216901 -217.69812 
L 144.848331 -253.015213 
L 146.479761 -271.405911 
L 148.111191 -275.916217 
L 149.74262 -279.36288 
L 151.37405 -270.122969 
L 153.00548 -258.222477 
L 154.63691 -248.521249 
L 156.26834 -234.570374 
L 157.89977 -222.807468 
L 159.5312 -214.325174 
L 161.16263 -201.253255 
L 162.79406 -193.107481 
L 164.425489 -182.245814 
L 166.056919 -173.849487 
L 167.688349 -169.51518 
L 169.319779 -157.799796 
L 170.951209 -156.915902 
L 172.582639 -149.21395 
L 174.214069 -147.133536 
L 175.845499 -143.726295 
L 177.476928 -139.264679 
L 179.108358 -136.456187 
L 180.739788 -134.785816 
L 182.371218 -132.600531 
L 184.002648 -131.599897 
L 185.634078 -131.292497 
L 187.265508 -129.166462 
L 188.896938 -130.23863 
L 190.528367 -127.800858 
L 192.159797 -129.182139 
L 193.791227 -128.698184 
L 195.422657 -127.521434 
L 197.054087 -128.310887 
L 198.685517 -129.743612 
L 200.316947 -130.579854 
L 201.948377 -133.206818 
L 203.579806 -132.546631 
L 205.211236 -134.633438 
L 206.842666 -135.979633 
L 208.474096 -138.185508 
L 210.105526 -137.91049 
L 211.736956 -140.448109 
L 213.368386 -141.422316 
L 214.999816 -143.563796 
L 216.631245 -146.419692 
L 218.262675 -148.045751 
L 219.894105 -150.616093 
L 221.525535 -152.057285 
L 223.156965 -152.54318 
L 224.788395 -154.412724 
L 226.419825 -156.304578 
L 228.051255 -159.308041 
L 229.682684 -159.173381 
L 231.314114 -158.968938 
L 232.945544 -158.761402 
L 234.576974 -158.883955 
L 236.208404 -159.315793 
L 237.839834 -157.105779 
L 239.471264 -157.574648 
L 241.102694 -155.833241 
L 242.734123 -153.990512 
L 244.365553 -152.941474 
L 245.996983 -151.94669 
L 247.628413 -150.481932 
L 249.259843 -149.987549 
L 250.891273 -148.177456 
L 252.522703 -147.204733 
L 254.154133 -145.549874 
L 255.785562 -144.911146 
L 257.416992 -142.712771 
L 259.048422 -144.086879 
L 260.679852 -143.602302 
L 262.311282 -141.102797 
L 263.942712 -141.54504 
L 265.574142 -141.299784 
L 267.205572 -141.226991 
L 268.837001 -140.870396 
L 270.468431 -140.21549 
L 272.099861 -139.54518 
L 273.731291 -138.886261 
L 275.362721 -139.96979 
L 276.994151 -139.067384 
L 278.625581 -139.236614 
L 280.257011 -138.010254 
L 281.88844 -138.269889 
L 283.51987 -139.409876 
L 285.1513 -140.527457 
L 286.78273 -140.876706 
L 288.41416 -141.326321 
L 290.04559 -141.083056 
L 291.67702 -141.330156 
L 293.30845 -141.476071 
L 294.93988 -141.584952 
L 296.571309 -141.967608 
L 298.202739 -142.422041 
L 299.834169 -142.751347 
L 301.465599 -142.980003 
L 303.097029 -143.572913 
L 304.728459 -143.493224 
L 306.359889 -143.822091 
L 307.991319 -143.2831 
L 309.622748 -143.283319 
L 311.254178 -143.523153 
L 312.885608 -143.852349 
L 314.517038 -143.81015 
L 316.148468 -143.321691 
L 317.779898 -142.657603 
L 319.411328 -142.208242 
L 321.042758 -141.871659 
L 322.674187 -142.16606 
L 324.305617 -141.292447 
L 325.937047 -141.666419 
L 327.568477 -141.007042 
L 329.199907 -141.247532 
L 330.831337 -140.105487 
L 332.462767 -140.548104 
L 334.094197 -139.66096 
L 335.725626 -140.110932 
L 337.357056 -140.103601 
L 338.988486 -139.232858 
L 340.619916 -138.836512 
L 342.251346 -138.269351 
L 343.882776 -138.348735 
L 345.514206 -138.329604 
L 347.145636 -137.034761 
L 348.777065 -136.905099 
L 350.408495 -137.516702 
L 352.039925 -135.189961 
L 353.671355 -134.31917 
L 355.302785 -133.136238 
L 356.934215 -131.883757 
L 358.565645 -130.587401 
L 360.197075 -130.089366 
L 361.828504 -128.728987 
L 363.459934 -127.320319 
L 365.091364 -126.497207 
L 366.722794 -125.477497 
L 368.354224 -124.575378 
L 369.985654 -124.083355 
L 371.617084 -121.910622 
L 373.248514 -120.935319 
L 374.879943 -120.673475 
L 376.511373 -119.819179 
L 378.142803 -117.982783 
L 379.774233 -117.234956 
L 381.405663 -116.348687 
L 383.037093 -115.416769 
L 384.668523 -114.239189 
L 384.668523 -116.261346 
L 384.668523 -116.261346 
L 383.037093 -117.250775 
L 381.405663 -118.412476 
L 379.774233 -119.32027 
L 378.142803 -120.784567 
L 376.511373 -122.053418 
L 374.879943 -123.426861 
L 373.248514 -123.898766 
L 371.617084 -125.329078 
L 369.985654 -126.551967 
L 368.354224 -127.463083 
L 366.722794 -128.198566 
L 365.091364 -129.581638 
L 363.459934 -130.459497 
L 361.828504 -131.763202 
L 360.197075 -133.109232 
L 358.565645 -133.532012 
L 356.934215 -135.017662 
L 355.302785 -135.918209 
L 353.671355 -137.493005 
L 352.039925 -138.037281 
L 350.408495 -140.426488 
L 348.777065 -140.460695 
L 347.145636 -140.733014 
L 345.514206 -140.836009 
L 343.882776 -141.658154 
L 342.251346 -141.210222 
L 340.619916 -141.631039 
L 338.988486 -142.006953 
L 337.357056 -142.677447 
L 335.725626 -143.362702 
L 334.094197 -142.759126 
L 332.462767 -143.438751 
L 330.831337 -143.473085 
L 329.199907 -144.866 
L 327.568477 -144.572115 
L 325.937047 -145.220954 
L 324.305617 -145.206378 
L 322.674187 -145.64773 
L 321.042758 -145.335208 
L 319.411328 -145.564208 
L 317.779898 -146.336928 
L 316.148468 -146.141557 
L 314.517038 -146.387341 
L 312.885608 -146.731839 
L 311.254178 -146.946872 
L 309.622748 -146.191978 
L 307.991319 -146.473637 
L 306.359889 -147.091208 
L 304.728459 -146.862134 
L 303.097029 -147.561235 
L 301.465599 -146.725132 
L 299.834169 -146.745697 
L 298.202739 -146.58942 
L 296.571309 -145.557509 
L 294.93988 -146.077197 
L 293.30845 -145.492252 
L 291.67702 -144.816743 
L 290.04559 -144.669365 
L 288.41416 -144.699618 
L 286.78273 -145.06123 
L 285.1513 -144.720126 
L 283.51987 -143.248916 
L 281.88844 -142.277092 
L 280.257011 -142.701632 
L 278.625581 -143.437661 
L 276.994151 -143.075484 
L 275.362721 -143.299871 
L 273.731291 -143.145481 
L 272.099861 -144.181574 
L 270.468431 -143.606899 
L 268.837001 -143.697862 
L 267.205572 -143.230778 
L 265.574142 -144.648764 
L 263.942712 -144.601069 
L 262.311282 -143.308 
L 260.679852 -146.772498 
L 259.048422 -147.477267 
L 257.416992 -147.278899 
L 255.785562 -149.432025 
L 254.154133 -148.799226 
L 252.522703 -150.692809 
L 250.891273 -151.595393 
L 249.259843 -154.245901 
L 247.628413 -154.17621 
L 245.996983 -155.332092 
L 244.365553 -156.636728 
L 242.734123 -157.864563 
L 241.102694 -159.790558 
L 239.471264 -160.413012 
L 237.839834 -160.372181 
L 236.208404 -163.070726 
L 234.576974 -163.419302 
L 232.945544 -163.349347 
L 231.314114 -162.180695 
L 229.682684 -164.14811 
L 228.051255 -162.502708 
L 226.419825 -161.269863 
L 224.788395 -158.54538 
L 223.156965 -156.260503 
L 221.525535 -156.878641 
L 219.894105 -155.065855 
L 218.262675 -151.845959 
L 216.631245 -150.323759 
L 214.999816 -149.132468 
L 213.368386 -145.5857 
L 211.736956 -144.454818 
L 210.105526 -141.866655 
L 208.474096 -141.379067 
L 206.842666 -138.510881 
L 205.211236 -137.65811 
L 203.579806 -136.7728 
L 201.948377 -135.718253 
L 200.316947 -135.053188 
L 198.685517 -133.048711 
L 197.054087 -132.763371 
L 195.422657 -131.085973 
L 193.791227 -132.503829 
L 192.159797 -132.710876 
L 190.528367 -131.180163 
L 188.896938 -132.796602 
L 187.265508 -132.426132 
L 185.634078 -134.401664 
L 184.002648 -133.400243 
L 182.371218 -135.701964 
L 180.739788 -136.624011 
L 179.108358 -140.187221 
L 177.476928 -142.246869 
L 175.845499 -145.450524 
L 174.214069 -149.357125 
L 172.582639 -153.383801 
L 170.951209 -160.90818 
L 169.319779 -163.771151 
L 167.688349 -173.106397 
L 166.056919 -179.435369 
L 164.425489 -185.637429 
L 162.79406 -198.663709 
L 161.16263 -205.709221 
L 159.5312 -219.721976 
L 157.89977 -229.824112 
L 156.26834 -240.882137 
L 154.63691 -254.637735 
L 153.00548 -266.091173 
L 151.37405 -279.900587 
L 149.74262 -291.57225 
L 148.111191 -289.30978 
L 146.479761 -280.868621 
L 144.848331 -263.571048 
L 143.216901 -228.310054 
L 141.585471 -184.574553 
L 139.954041 -137.5619 
L 138.322611 -97.522031 
L 136.691181 -67.640287 
L 135.059752 -54.410411 
L 133.428322 -50.37961 
L 131.796892 -49.764501 
L 130.165462 -49.65225 
L 128.534032 -49.65225 
L 126.902602 -49.65225 
L 125.271172 -49.65225 
L 123.639742 -49.65225 
L 122.008313 -49.65225 
L 120.376883 -49.65225 
L 118.745453 -49.65225 
L 117.114023 -49.65225 
L 115.482593 -49.65225 
L 113.851163 -49.65225 
L 112.219733 -49.65225 
L 110.588303 -49.65225 
L 108.956874 -49.65225 
L 107.325444 -49.65225 
L 105.694014 -49.65225 
L 104.062584 -49.65225 
L 102.431154 -49.65225 
L 100.799724 -49.65225 
L 99.168294 -49.65225 
L 97.536864 -49.65225 
L 95.905435 -49.65225 
L 94.274005 -49.65225 
L 92.642575 -49.65225 
L 91.011145 -49.65225 
L 89.379715 -49.65225 
L 87.748285 -49.65225 
L 86.116855 -49.65225 
L 84.485425 -49.65225 
L 82.853996 -49.65225 
L 81.222566 -49.65225 
L 79.591136 -49.65225 
L 77.959706 -49.65225 
L 76.328276 -49.65225 
L 74.696846 -49.65225 
L 73.065416 -49.65225 
L 71.433986 -49.65225 
L 69.802557 -49.65225 
L 68.171127 -49.65225 
L 66.539697 -49.65225 
L 64.908267 -49.65225 
L 63.276837 -49.65225 
L 61.645407 -49.65225 
L 60.013977 -49.65225 
z
" style="stroke: #1f77b4; stroke-opacity: 0.3"/>
    </defs>
    <g clip-path="url(#pcef5805e41)">
     <use xlink:href="#m9ca4fc9337" x="0" y="310.86825" style="fill: #1f77b4; fill-opacity: 0.3; stroke: #1f77b4; stroke-opacity: 0.3"/>
    </g>
   </g>
   <g id="matplotlib.axis_1">
    <g id="xtick_1">
     <g id="line2d_1">
      <defs>
       <path id="m1ad67515f1" d="M 0 0 
L 0 3.5 
" style="stroke: #000000; stroke-width: 0.8"/>
      </defs>
      <g>
       <use xlink:href="#m1ad67515f1" x="59.198262" y="273.312" style="stroke: #000000; stroke-width: 0.8"/>
      </g>
     </g>
     <g id="text_1">
      <!-- 0.0 -->
      <g transform="translate(51.2467 287.910437) scale(0.1 -0.1)">
       <defs>
        <path id="DejaVuSans-30" d="M 2034 4250 
Q 1547 4250 1301 3770 
Q 1056 3291 1056 2328 
Q 1056 1369 1301 889 
Q 1547 409 2034 409 
Q 2525 409 2770 889 
Q 3016 1369 3016 2328 
Q 3016 3291 2770 3770 
Q 2525 4250 2034 4250 
z
M 2034 4750 
Q 2819 4750 3233 4129 
Q 3647 3509 3647 2328 
Q 3647 1150 3233 529 
Q 2819 -91 2034 -91 
Q 1250 -91 836 529 
Q 422 1150 422 2328 
Q 422 3509 836 4129 
Q 1250 4750 2034 4750 
z
" transform="scale(0.015625)"/>
        <path id="DejaVuSans-2e" d="M 684 794 
L 1344 794 
L 1344 0 
L 684 0 
L 684 794 
z
" transform="scale(0.015625)"/>
       </defs>
       <use xlink:href="#DejaVuSans-30"/>
       <use xlink:href="#DejaVuSans-2e" transform="translate(63.623047 0)"/>
       <use xlink:href="#DejaVuSans-30" transform="translate(95.410156 0)"/>
      </g>
     </g>
    </g>
    <g id="xtick_2">
     <g id="line2d_2">
      <g>
       <use xlink:href="#m1ad67515f1" x="99.984009" y="273.312" style="stroke: #000000; stroke-width: 0.8"/>
      </g>
     </g>
     <g id="text_2">
      <!-- 0.5 -->
      <g transform="translate(92.032447 287.910437) scale(0.1 -0.1)">
       <defs>
        <path id="DejaVuSans-35" d="M 691 4666 
L 3169 4666 
L 3169 4134 
L 1269 4134 
L 1269 2991 
Q 1406 3038 1543 3061 
Q 1681 3084 1819 3084 
Q 2600 3084 3056 2656 
Q 3513 2228 3513 1497 
Q 3513 744 3044 326 
Q 2575 -91 1722 -91 
Q 1428 -91 1123 -41 
Q 819 9 494 109 
L 494 744 
Q 775 591 1075 516 
Q 1375 441 1709 441 
Q 2250 441 2565 725 
Q 2881 1009 2881 1497 
Q 2881 1984 2565 2268 
Q 2250 2553 1709 2553 
Q 1456 2553 1204 2497 
Q 953 2441 691 2322 
L 691 4666 
z
" transform="scale(0.015625)"/>
       </defs>
       <use xlink:href="#DejaVuSans-30"/>
       <use xlink:href="#DejaVuSans-2e" transform="translate(63.623047 0)"/>
       <use xlink:href="#DejaVuSans-35" transform="translate(95.410156 0)"/>
      </g>
     </g>
    </g>
    <g id="xtick_3">
     <g id="line2d_3">
      <g>
       <use xlink:href="#m1ad67515f1" x="140.769756" y="273.312" style="stroke: #000000; stroke-width: 0.8"/>
      </g>
     </g>
     <g id="text_3">
      <!-- 1.0 -->
      <g transform="translate(132.818194 287.910437) scale(0.1 -0.1)">
       <defs>
        <path id="DejaVuSans-31" d="M 794 531 
L 1825 531 
L 1825 4091 
L 703 3866 
L 703 4441 
L 1819 4666 
L 2450 4666 
L 2450 531 
L 3481 531 
L 3481 0 
L 794 0 
L 794 531 
z
" transform="scale(0.015625)"/>
       </defs>
       <use xlink:href="#DejaVuSans-31"/>
       <use xlink:href="#DejaVuSans-2e" transform="translate(63.623047 0)"/>
       <use xlink:href="#DejaVuSans-30" transform="translate(95.410156 0)"/>
      </g>
     </g>
    </g>
    <g id="xtick_4">
     <g id="line2d_4">
      <g>
       <use xlink:href="#m1ad67515f1" x="181.555503" y="273.312" style="stroke: #000000; stroke-width: 0.8"/>
      </g>
     </g>
     <g id="text_4">
      <!-- 1.5 -->
      <g transform="translate(173.603941 287.910437) scale(0.1 -0.1)">
       <use xlink:href="#DejaVuSans-31"/>
       <use xlink:href="#DejaVuSans-2e" transform="translate(63.623047 0)"/>
       <use xlink:href="#DejaVuSans-35" transform="translate(95.410156 0)"/>
      </g>
     </g>
    </g>
    <g id="xtick_5">
     <g id="line2d_5">
      <g>
       <use xlink:href="#m1ad67515f1" x="222.34125" y="273.312" style="stroke: #000000; stroke-width: 0.8"/>
      </g>
     </g>
     <g id="text_5">
      <!-- 2.0 -->
      <g transform="translate(214.389688 287.910437) scale(0.1 -0.1)">
       <defs>
        <path id="DejaVuSans-32" d="M 1228 531 
L 3431 531 
L 3431 0 
L 469 0 
L 469 531 
Q 828 903 1448 1529 
Q 2069 2156 2228 2338 
Q 2531 2678 2651 2914 
Q 2772 3150 2772 3378 
Q 2772 3750 2511 3984 
Q 2250 4219 1831 4219 
Q 1534 4219 1204 4116 
Q 875 4013 500 3803 
L 500 4441 
Q 881 4594 1212 4672 
Q 1544 4750 1819 4750 
Q 2544 4750 2975 4387 
Q 3406 4025 3406 3419 
Q 3406 3131 3298 2873 
Q 3191 2616 2906 2266 
Q 2828 2175 2409 1742 
Q 1991 1309 1228 531 
z
" transform="scale(0.015625)"/>
       </defs>
       <use xlink:href="#DejaVuSans-32"/>
       <use xlink:href="#DejaVuSans-2e" transform="translate(63.623047 0)"/>
       <use xlink:href="#DejaVuSans-30" transform="translate(95.410156 0)"/>
      </g>
     </g>
    </g>
    <g id="xtick_6">
     <g id="line2d_6">
      <g>
       <use xlink:href="#m1ad67515f1" x="263.126997" y="273.312" style="stroke: #000000; stroke-width: 0.8"/>
      </g>
     </g>
     <g id="text_6">
      <!-- 2.5 -->
      <g transform="translate(255.175434 287.910437) scale(0.1 -0.1)">
       <use xlink:href="#DejaVuSans-32"/>
       <use xlink:href="#DejaVuSans-2e" transform="translate(63.623047 0)"/>
       <use xlink:href="#DejaVuSans-35" transform="translate(95.410156 0)"/>
      </g>
     </g>
    </g>
    <g id="xtick_7">
     <g id="line2d_7">
      <g>
       <use xlink:href="#m1ad67515f1" x="303.912744" y="273.312" style="stroke: #000000; stroke-width: 0.8"/>
      </g>
     </g>
     <g id="text_7">
      <!-- 3.0 -->
      <g transform="translate(295.961181 287.910437) scale(0.1 -0.1)">
       <defs>
        <path id="DejaVuSans-33" d="M 2597 2516 
Q 3050 2419 3304 2112 
Q 3559 1806 3559 1356 
Q 3559 666 3084 287 
Q 2609 -91 1734 -91 
Q 1441 -91 1130 -33 
Q 819 25 488 141 
L 488 750 
Q 750 597 1062 519 
Q 1375 441 1716 441 
Q 2309 441 2620 675 
Q 2931 909 2931 1356 
Q 2931 1769 2642 2001 
Q 2353 2234 1838 2234 
L 1294 2234 
L 1294 2753 
L 1863 2753 
Q 2328 2753 2575 2939 
Q 2822 3125 2822 3475 
Q 2822 3834 2567 4026 
Q 2313 4219 1838 4219 
Q 1578 4219 1281 4162 
Q 984 4106 628 3988 
L 628 4550 
Q 988 4650 1302 4700 
Q 1616 4750 1894 4750 
Q 2613 4750 3031 4423 
Q 3450 4097 3450 3541 
Q 3450 3153 3228 2886 
Q 3006 2619 2597 2516 
z
" transform="scale(0.015625)"/>
       </defs>
       <use xlink:href="#DejaVuSans-33"/>
       <use xlink:href="#DejaVuSans-2e" transform="translate(63.623047 0)"/>
       <use xlink:href="#DejaVuSans-30" transform="translate(95.410156 0)"/>
      </g>
     </g>
    </g>
    <g id="xtick_8">
     <g id="line2d_8">
      <g>
       <use xlink:href="#m1ad67515f1" x="344.698491" y="273.312" style="stroke: #000000; stroke-width: 0.8"/>
      </g>
     </g>
     <g id="text_8">
      <!-- 3.5 -->
      <g transform="translate(336.746928 287.910437) scale(0.1 -0.1)">
       <use xlink:href="#DejaVuSans-33"/>
       <use xlink:href="#DejaVuSans-2e" transform="translate(63.623047 0)"/>
       <use xlink:href="#DejaVuSans-35" transform="translate(95.410156 0)"/>
      </g>
     </g>
    </g>
    <g id="xtick_9">
     <g id="line2d_9">
      <g>
       <use xlink:href="#m1ad67515f1" x="385.484238" y="273.312" style="stroke: #000000; stroke-width: 0.8"/>
      </g>
     </g>
     <g id="text_9">
      <!-- 4.0 -->
      <g transform="translate(377.532675 287.910437) scale(0.1 -0.1)">
       <defs>
        <path id="DejaVuSans-34" d="M 2419 4116 
L 825 1625 
L 2419 1625 
L 2419 4116 
z
M 2253 4666 
L 3047 4666 
L 3047 1625 
L 3713 1625 
L 3713 1100 
L 3047 1100 
L 3047 0 
L 2419 0 
L 2419 1100 
L 313 1100 
L 313 1709 
L 2253 4666 
z
" transform="scale(0.015625)"/>
       </defs>
       <use xlink:href="#DejaVuSans-34"/>
       <use xlink:href="#DejaVuSans-2e" transform="translate(63.623047 0)"/>
       <use xlink:href="#DejaVuSans-30" transform="translate(95.410156 0)"/>
      </g>
     </g>
    </g>
    <g id="text_10">
     <!-- r (reduced units) -->
     <g transform="translate(180.552188 301.588562) scale(0.1 -0.1)">
      <defs>
       <path id="DejaVuSans-72" d="M 2631 2963 
Q 2534 3019 2420 3045 
Q 2306 3072 2169 3072 
Q 1681 3072 1420 2755 
Q 1159 2438 1159 1844 
L 1159 0 
L 581 0 
L 581 3500 
L 1159 3500 
L 1159 2956 
Q 1341 3275 1631 3429 
Q 1922 3584 2338 3584 
Q 2397 3584 2469 3576 
Q 2541 3569 2628 3553 
L 2631 2963 
z
" transform="scale(0.015625)"/>
       <path id="DejaVuSans-20" transform="scale(0.015625)"/>
       <path id="DejaVuSans-28" d="M 1984 4856 
Q 1566 4138 1362 3434 
Q 1159 2731 1159 2009 
Q 1159 1288 1364 580 
Q 1569 -128 1984 -844 
L 1484 -844 
Q 1016 -109 783 600 
Q 550 1309 550 2009 
Q 550 2706 781 3412 
Q 1013 4119 1484 4856 
L 1984 4856 
z
" transform="scale(0.015625)"/>
       <path id="DejaVuSans-65" d="M 3597 1894 
L 3597 1613 
L 953 1613 
Q 991 1019 1311 708 
Q 1631 397 2203 397 
Q 2534 397 2845 478 
Q 3156 559 3463 722 
L 3463 178 
Q 3153 47 2828 -22 
Q 2503 -91 2169 -91 
Q 1331 -91 842 396 
Q 353 884 353 1716 
Q 353 2575 817 3079 
Q 1281 3584 2069 3584 
Q 2775 3584 3186 3129 
Q 3597 2675 3597 1894 
z
M 3022 2063 
Q 3016 2534 2758 2815 
Q 2500 3097 2075 3097 
Q 1594 3097 1305 2825 
Q 1016 2553 972 2059 
L 3022 2063 
z
" transform="scale(0.015625)"/>
       <path id="DejaVuSans-64" d="M 2906 2969 
L 2906 4863 
L 3481 4863 
L 3481 0 
L 2906 0 
L 2906 525 
Q 2725 213 2448 61 
Q 2172 -91 1784 -91 
Q 1150 -91 751 415 
Q 353 922 353 1747 
Q 353 2572 751 3078 
Q 1150 3584 1784 3584 
Q 2172 3584 2448 3432 
Q 2725 3281 2906 2969 
z
M 947 1747 
Q 947 1113 1208 752 
Q 1469 391 1925 391 
Q 2381 391 2643 752 
Q 2906 1113 2906 1747 
Q 2906 2381 2643 2742 
Q 2381 3103 1925 3103 
Q 1469 3103 1208 2742 
Q 947 2381 947 1747 
z
" transform="scale(0.015625)"/>
       <path id="DejaVuSans-75" d="M 544 1381 
L 544 3500 
L 1119 3500 
L 1119 1403 
Q 1119 906 1312 657 
Q 1506 409 1894 409 
Q 2359 409 2629 706 
Q 2900 1003 2900 1516 
L 2900 3500 
L 3475 3500 
L 3475 0 
L 2900 0 
L 2900 538 
Q 2691 219 2414 64 
Q 2138 -91 1772 -91 
Q 1169 -91 856 284 
Q 544 659 544 1381 
z
M 1991 3584 
L 1991 3584 
z
" transform="scale(0.015625)"/>
       <path id="DejaVuSans-63" d="M 3122 3366 
L 3122 2828 
Q 2878 2963 2633 3030 
Q 2388 3097 2138 3097 
Q 1578 3097 1268 2742 
Q 959 2388 959 1747 
Q 959 1106 1268 751 
Q 1578 397 2138 397 
Q 2388 397 2633 464 
Q 2878 531 3122 666 
L 3122 134 
Q 2881 22 2623 -34 
Q 2366 -91 2075 -91 
Q 1284 -91 818 406 
Q 353 903 353 1747 
Q 353 2603 823 3093 
Q 1294 3584 2113 3584 
Q 2378 3584 2631 3529 
Q 2884 3475 3122 3366 
z
" transform="scale(0.015625)"/>
       <path id="DejaVuSans-6e" d="M 3513 2113 
L 3513 0 
L 2938 0 
L 2938 2094 
Q 2938 2591 2744 2837 
Q 2550 3084 2163 3084 
Q 1697 3084 1428 2787 
Q 1159 2491 1159 1978 
L 1159 0 
L 581 0 
L 581 3500 
L 1159 3500 
L 1159 2956 
Q 1366 3272 1645 3428 
Q 1925 3584 2291 3584 
Q 2894 3584 3203 3211 
Q 3513 2838 3513 2113 
z
" transform="scale(0.015625)"/>
       <path id="DejaVuSans-69" d="M 603 3500 
L 1178 3500 
L 1178 0 
L 603 0 
L 603 3500 
z
M 603 4863 
L 1178 4863 
L 1178 4134 
L 603 4134 
L 603 4863 
z
" transform="scale(0.015625)"/>
       <path id="DejaVuSans-74" d="M 1172 4494 
L 1172 3500 
L 2356 3500 
L 2356 3053 
L 1172 3053 
L 1172 1153 
Q 1172 725 1289 603 
Q 1406 481 1766 481 
L 2356 481 
L 2356 0 
L 1766 0 
Q 1100 0 847 248 
Q 594 497 594 1153 
L 594 3053 
L 172 3053 
L 172 3500 
L 594 3500 
L 594 4494 
L 1172 4494 
z
" transform="scale(0.015625)"/>
       <path id="DejaVuSans-73" d="M 2834 3397 
L 2834 2853 
Q 2591 2978 2328 3040 
Q 2066 3103 1784 3103 
Q 1356 3103 1142 2972 
Q 928 2841 928 2578 
Q 928 2378 1081 2264 
Q 1234 2150 1697 2047 
L 1894 2003 
Q 2506 1872 2764 1633 
Q 3022 1394 3022 966 
Q 3022 478 2636 193 
Q 2250 -91 1575 -91 
Q 1294 -91 989 -36 
Q 684 19 347 128 
L 347 722 
Q 666 556 975 473 
Q 1284 391 1588 391 
Q 1994 391 2212 530 
Q 2431 669 2431 922 
Q 2431 1156 2273 1281 
Q 2116 1406 1581 1522 
L 1381 1569 
Q 847 1681 609 1914 
Q 372 2147 372 2553 
Q 372 3047 722 3315 
Q 1072 3584 1716 3584 
Q 2034 3584 2315 3537 
Q 2597 3491 2834 3397 
z
" transform="scale(0.015625)"/>
       <path id="DejaVuSans-29" d="M 513 4856 
L 1013 4856 
Q 1481 4119 1714 3412 
Q 1947 2706 1947 2009 
Q 1947 1309 1714 600 
Q 1481 -109 1013 -844 
L 513 -844 
Q 928 -128 1133 580 
Q 1338 1288 1338 2009 
Q 1338 2731 1133 3434 
Q 928 4138 513 4856 
z
" transform="scale(0.015625)"/>
      </defs>
      <use xlink:href="#DejaVuSans-72"/>
      <use xlink:href="#DejaVuSans-20" transform="translate(41.113281 0)"/>
      <use xlink:href="#DejaVuSans-28" transform="translate(72.900391 0)"/>
      <use xlink:href="#DejaVuSans-72" transform="translate(111.914062 0)"/>
      <use xlink:href="#DejaVuSans-65" transform="translate(150.777344 0)"/>
      <use xlink:href="#DejaVuSans-64" transform="translate(212.300781 0)"/>
      <use xlink:href="#DejaVuSans-75" transform="translate(275.777344 0)"/>
      <use xlink:href="#DejaVuSans-63" transform="translate(339.15625 0)"/>
      <use xlink:href="#DejaVuSans-65" transform="translate(394.136719 0)"/>
      <use xlink:href="#DejaVuSans-64" transform="translate(455.660156 0)"/>
      <use xlink:href="#DejaVuSans-20" transform="translate(519.136719 0)"/>
      <use xlink:href="#DejaVuSans-75" transform="translate(550.923828 0)"/>
      <use xlink:href="#DejaVuSans-6e" transform="translate(614.302734 0)"/>
      <use xlink:href="#DejaVuSans-69" transform="translate(677.681641 0)"/>
      <use xlink:href="#DejaVuSans-74" transform="translate(705.464844 0)"/>
      <use xlink:href="#DejaVuSans-73" transform="translate(744.673828 0)"/>
      <use xlink:href="#DejaVuSans-29" transform="translate(796.773438 0)"/>
     </g>
    </g>
   </g>
   <g id="matplotlib.axis_2">
    <g id="ytick_1">
     <g id="line2d_10">
      <defs>
       <path id="m778961429f" d="M 0 0 
L -3.5 0 
" style="stroke: #000000; stroke-width: 0.8"/>
      </defs>
      <g>
       <use xlink:href="#m778961429f" x="43.78125" y="261.216" style="stroke: #000000; stroke-width: 0.8"/>
      </g>
     </g>
     <g id="text_11">
      <!-- 0.0 -->
      <g transform="translate(20.878125 265.015219) scale(0.1 -0.1)">
       <use xlink:href="#DejaVuSans-30"/>
       <use xlink:href="#DejaVuSans-2e" transform="translate(63.623047 0)"/>
       <use xlink:href="#DejaVuSans-30" transform="translate(95.410156 0)"/>
      </g>
     </g>
    </g>
    <g id="ytick_2">
     <g id="line2d_11">
      <g>
       <use xlink:href="#m778961429f" x="43.78125" y="220.368139" style="stroke: #000000; stroke-width: 0.8"/>
      </g>
     </g>
     <g id="text_12">
      <!-- 0.5 -->
      <g transform="translate(20.878125 224.167358) scale(0.1 -0.1)">
       <use xlink:href="#DejaVuSans-30"/>
       <use xlink:href="#DejaVuSans-2e" transform="translate(63.623047 0)"/>
       <use xlink:href="#DejaVuSans-35" transform="translate(95.410156 0)"/>
      </g>
     </g>
    </g>
    <g id="ytick_3">
     <g id="line2d_12">
      <g>
       <use xlink:href="#m778961429f" x="43.78125" y="179.520278" style="stroke: #000000; stroke-width: 0.8"/>
      </g>
     </g>
     <g id="text_13">
      <!-- 1.0 -->
      <g transform="translate(20.878125 183.319497) scale(0.1 -0.1)">
       <use xlink:href="#DejaVuSans-31"/>
       <use xlink:href="#DejaVuSans-2e" transform="translate(63.623047 0)"/>
       <use xlink:href="#DejaVuSans-30" transform="translate(95.410156 0)"/>
      </g>
     </g>
    </g>
    <g id="ytick_4">
     <g id="line2d_13">
      <g>
       <use xlink:href="#m778961429f" x="43.78125" y="138.672417" style="stroke: #000000; stroke-width: 0.8"/>
      </g>
     </g>
     <g id="text_14">
      <!-- 1.5 -->
      <g transform="translate(20.878125 142.471636) scale(0.1 -0.1)">
       <use xlink:href="#DejaVuSans-31"/>
       <use xlink:href="#DejaVuSans-2e" transform="translate(63.623047 0)"/>
       <use xlink:href="#DejaVuSans-35" transform="translate(95.410156 0)"/>
      </g>
     </g>
    </g>
    <g id="ytick_5">
     <g id="line2d_14">
      <g>
       <use xlink:href="#m778961429f" x="43.78125" y="97.824556" style="stroke: #000000; stroke-width: 0.8"/>
      </g>
     </g>
     <g id="text_15">
      <!-- 2.0 -->
      <g transform="translate(20.878125 101.623775) scale(0.1 -0.1)">
       <use xlink:href="#DejaVuSans-32"/>
       <use xlink:href="#DejaVuSans-2e" transform="translate(63.623047 0)"/>
       <use xlink:href="#DejaVuSans-30" transform="translate(95.410156 0)"/>
      </g>
     </g>
    </g>
    <g id="ytick_6">
     <g id="line2d_15">
      <g>
       <use xlink:href="#m778961429f" x="43.78125" y="56.976695" style="stroke: #000000; stroke-width: 0.8"/>
      </g>
     </g>
     <g id="text_16">
      <!-- 2.5 -->
      <g transform="translate(20.878125 60.775914) scale(0.1 -0.1)">
       <use xlink:href="#DejaVuSans-32"/>
       <use xlink:href="#DejaVuSans-2e" transform="translate(63.623047 0)"/>
       <use xlink:href="#DejaVuSans-35" transform="translate(95.410156 0)"/>
      </g>
     </g>
    </g>
    <g id="ytick_7">
     <g id="line2d_16">
      <g>
       <use xlink:href="#m778961429f" x="43.78125" y="16.128834" style="stroke: #000000; stroke-width: 0.8"/>
      </g>
     </g>
     <g id="text_17">
      <!-- 3.0 -->
      <g transform="translate(20.878125 19.928053) scale(0.1 -0.1)">
       <use xlink:href="#DejaVuSans-33"/>
       <use xlink:href="#DejaVuSans-2e" transform="translate(63.623047 0)"/>
       <use xlink:href="#DejaVuSans-30" transform="translate(95.410156 0)"/>
      </g>
     </g>
    </g>
    <g id="text_18">
     <!-- g(r) -->
     <g transform="translate(14.798438 149.38725) rotate(-90) scale(0.1 -0.1)">
      <defs>
       <path id="DejaVuSans-67" d="M 2906 1791 
Q 2906 2416 2648 2759 
Q 2391 3103 1925 3103 
Q 1463 3103 1205 2759 
Q 947 2416 947 1791 
Q 947 1169 1205 825 
Q 1463 481 1925 481 
Q 2391 481 2648 825 
Q 2906 1169 2906 1791 
z
M 3481 434 
Q 3481 -459 3084 -895 
Q 2688 -1331 1869 -1331 
Q 1566 -1331 1297 -1286 
Q 1028 -1241 775 -1147 
L 775 -588 
Q 1028 -725 1275 -790 
Q 1522 -856 1778 -856 
Q 2344 -856 2625 -561 
Q 2906 -266 2906 331 
L 2906 616 
Q 2728 306 2450 153 
Q 2172 0 1784 0 
Q 1141 0 747 490 
Q 353 981 353 1791 
Q 353 2603 747 3093 
Q 1141 3584 1784 3584 
Q 2172 3584 2450 3431 
Q 2728 3278 2906 2969 
L 2906 3500 
L 3481 3500 
L 3481 434 
z
" transform="scale(0.015625)"/>
      </defs>
      <use xlink:href="#DejaVuSans-67"/>
      <use xlink:href="#DejaVuSans-28" transform="translate(63.476562 0)"/>
      <use xlink:href="#DejaVuSans-72" transform="translate(102.490234 0)"/>
      <use xlink:href="#DejaVuSans-29" transform="translate(143.603516 0)"/>
     </g>
    </g>
   </g>
   <g id="line2d_17">
    <path d="M 60.013977 261.216 
L 131.796892 261.139519 
L 133.428322 260.685619 
L 135.059752 256.663172 
L 136.691181 243.981538 
L 138.322611 215.598494 
L 139.954041 175.716011 
L 141.585471 128.856549 
L 143.216901 87.864163 
L 144.848331 52.575119 
L 146.479761 34.730984 
L 148.111191 28.255252 
L 149.74262 25.400685 
L 151.37405 35.856472 
L 153.00548 48.711425 
L 154.63691 59.288758 
L 156.26834 73.141994 
L 157.89977 84.55246 
L 159.5312 93.844675 
L 161.16263 107.387012 
L 162.79406 114.982655 
L 164.425489 126.926628 
L 166.056919 134.225822 
L 167.688349 139.557461 
L 169.319779 150.082776 
L 170.951209 151.956209 
L 172.582639 159.569375 
L 174.214069 162.622919 
L 177.476928 170.112476 
L 180.739788 175.163337 
L 184.002648 178.36818 
L 185.634078 178.021169 
L 187.265508 180.071953 
L 188.896938 179.350634 
L 190.528367 181.37774 
L 192.159797 179.921742 
L 193.791227 180.267243 
L 195.422657 181.564546 
L 197.054087 180.331121 
L 198.685517 179.472089 
L 200.316947 178.051729 
L 201.948377 176.405715 
L 203.579806 176.208534 
L 205.211236 174.722476 
L 206.842666 173.622993 
L 208.474096 171.085962 
L 210.105526 170.979678 
L 211.736956 168.416787 
L 213.368386 167.364242 
L 214.999816 164.520118 
L 216.631245 162.496525 
L 218.262675 160.922395 
L 219.894105 158.027276 
L 221.525535 156.400287 
L 223.156965 156.466409 
L 224.788395 154.389198 
L 228.051255 149.962875 
L 229.682684 149.207505 
L 231.314114 150.293434 
L 232.945544 149.812876 
L 236.208404 149.67499 
L 237.839834 152.12927 
L 239.471264 151.87442 
L 241.102694 153.05635 
L 242.734123 154.940713 
L 245.996983 157.228859 
L 247.628413 158.539179 
L 249.259843 158.751525 
L 250.891273 160.981826 
L 252.522703 161.919479 
L 254.154133 163.6937 
L 255.785562 163.696664 
L 257.416992 165.872415 
L 259.048422 165.086177 
L 260.679852 165.68085 
L 262.311282 168.662851 
L 263.942712 167.795195 
L 265.574142 167.893976 
L 267.205572 168.639365 
L 268.837001 168.584121 
L 270.468431 168.957056 
L 272.099861 169.004873 
L 273.731291 169.852379 
L 275.362721 169.233419 
L 276.994151 169.796816 
L 278.625581 169.531112 
L 280.257011 170.512307 
L 281.88844 170.59476 
L 283.51987 169.538854 
L 285.1513 168.244459 
L 286.78273 167.899282 
L 288.41416 167.855281 
L 290.04559 167.992039 
L 291.67702 167.7948 
L 294.93988 167.037176 
L 296.571309 167.105692 
L 298.202739 166.36252 
L 299.834169 166.119728 
L 301.465599 166.015683 
L 303.097029 165.301176 
L 304.728459 165.690571 
L 306.359889 165.4116 
L 307.991319 165.989881 
L 309.622748 166.130602 
L 311.254178 165.633237 
L 312.885608 165.576156 
L 314.517038 165.769505 
L 316.148468 166.136626 
L 317.779898 166.370985 
L 319.411328 166.982025 
L 321.042758 167.264817 
L 322.674187 166.961355 
L 324.305617 167.618838 
L 325.937047 167.424563 
L 327.568477 168.078671 
L 329.199907 167.811484 
L 330.831337 169.078964 
L 332.462767 168.874823 
L 334.094197 169.658207 
L 335.725626 169.131433 
L 337.357056 169.477726 
L 338.988486 170.248344 
L 342.251346 171.128463 
L 343.882776 170.864805 
L 345.514206 171.285444 
L 347.145636 171.984363 
L 348.777065 172.185353 
L 350.408495 171.896655 
L 352.039925 174.254629 
L 353.671355 174.962162 
L 355.302785 176.341027 
L 356.934215 177.41754 
L 358.565645 178.808543 
L 360.197075 179.268951 
L 363.459934 181.978342 
L 365.091364 182.828827 
L 366.722794 184.030218 
L 369.985654 185.550589 
L 371.617084 187.2484 
L 373.248514 188.451208 
L 374.879943 188.818082 
L 376.511373 189.931951 
L 378.142803 191.484575 
L 379.774233 192.590637 
L 381.405663 193.487669 
L 384.668523 195.617982 
L 384.668523 195.617982 
" clip-path="url(#pcef5805e41)" style="fill: none; stroke: #1f77b4; stroke-width: 1.5; stroke-linecap: square"/>
   </g>
   <g id="line2d_18">
    <path d="M 43.78125 179.520278 
L 400.90125 179.520278 
" clip-path="url(#pcef5805e41)" style="fill: none; stroke-dasharray: 5.55,2.4; stroke-dashoffset: 0; stroke: #000000; stroke-opacity: 0.4; stroke-width: 1.5"/>
   </g>
   <g id="patch_3">
    <path d="M 43.78125 273.312 
L 43.78125 7.2 
" style="fill: none; stroke: #000000; stroke-width: 0.8; stroke-linejoin: miter; stroke-linecap: square"/>
   </g>
   <g id="patch_4">
    <path d="M 400.90125 273.312 
L 400.90125 7.2 
" style="fill: none; stroke: #000000; stroke-width: 0.8; stroke-linejoin: miter; stroke-linecap: square"/>
   </g>
   <g id="patch_5">
    <path d="M 43.78125 273.312 
L 400.90125 273.312 
" style="fill: none; stroke: #000000; stroke-width: 0.8; stroke-linejoin: miter; stroke-linecap: square"/>
   </g>
   <g id="patch_6">
    <path d="M 43.78125 7.2 
L 400.90125 7.2 
" style="fill: none; stroke: #000000; stroke-width: 0.8; stroke-linejoin: miter; stroke-linecap: square"/>
   </g>
   <g id="legend_1">
    <g id="patch_7">
     <path d="M 327.740313 44.55625 
L 393.90125 44.55625 
Q 395.90125 44.55625 395.90125 42.55625 
L 395.90125 14.2 
Q 395.90125 12.2 393.90125 12.2 
L 327.740313 12.2 
Q 325.740313 12.2 325.740313 14.2 
L 325.740313 42.55625 
Q 325.740313 44.55625 327.740313 44.55625 
z
" style="fill: #ffffff; opacity: 0.8; stroke: #cccccc; stroke-linejoin: miter"/>
    </g>
    <g id="line2d_19">
     <path d="M 329.740313 20.298437 
L 339.740313 20.298437 
L 349.740313 20.298437 
" style="fill: none; stroke: #1f77b4; stroke-width: 1.5; stroke-linecap: square"/>
    </g>
    <g id="text_19">
     <!-- Mean -->
     <g transform="translate(357.740313 23.798437) scale(0.1 -0.1)">
      <defs>
       <path id="DejaVuSans-4d" d="M 628 4666 
L 1569 4666 
L 2759 1491 
L 3956 4666 
L 4897 4666 
L 4897 0 
L 4281 0 
L 4281 4097 
L 3078 897 
L 2444 897 
L 1241 4097 
L 1241 0 
L 628 0 
L 628 4666 
z
" transform="scale(0.015625)"/>
       <path id="DejaVuSans-61" d="M 2194 1759 
Q 1497 1759 1228 1600 
Q 959 1441 959 1056 
Q 959 750 1161 570 
Q 1363 391 1709 391 
Q 2188 391 2477 730 
Q 2766 1069 2766 1631 
L 2766 1759 
L 2194 1759 
z
M 3341 1997 
L 3341 0 
L 2766 0 
L 2766 531 
Q 2569 213 2275 61 
Q 1981 -91 1556 -91 
Q 1019 -91 701 211 
Q 384 513 384 1019 
Q 384 1609 779 1909 
Q 1175 2209 1959 2209 
L 2766 2209 
L 2766 2266 
Q 2766 2663 2505 2880 
Q 2244 3097 1772 3097 
Q 1472 3097 1187 3025 
Q 903 2953 641 2809 
L 641 3341 
Q 956 3463 1253 3523 
Q 1550 3584 1831 3584 
Q 2591 3584 2966 3190 
Q 3341 2797 3341 1997 
z
" transform="scale(0.015625)"/>
      </defs>
      <use xlink:href="#DejaVuSans-4d"/>
      <use xlink:href="#DejaVuSans-65" transform="translate(86.279297 0)"/>
      <use xlink:href="#DejaVuSans-61" transform="translate(147.802734 0)"/>
      <use xlink:href="#DejaVuSans-6e" transform="translate(209.082031 0)"/>
     </g>
    </g>
    <g id="patch_8">
     <path d="M 329.740313 38.476562 
L 349.740313 38.476562 
L 349.740313 31.476562 
L 329.740313 31.476562 
z
" style="fill: #1f77b4; fill-opacity: 0.3; stroke: #1f77b4; stroke-opacity: 0.3; stroke-linejoin: miter"/>
    </g>
    <g id="text_20">
     <!-- Std Err -->
     <g transform="translate(357.740313 38.476562) scale(0.1 -0.1)">
      <defs>
       <path id="DejaVuSans-53" d="M 3425 4513 
L 3425 3897 
Q 3066 4069 2747 4153 
Q 2428 4238 2131 4238 
Q 1616 4238 1336 4038 
Q 1056 3838 1056 3469 
Q 1056 3159 1242 3001 
Q 1428 2844 1947 2747 
L 2328 2669 
Q 3034 2534 3370 2195 
Q 3706 1856 3706 1288 
Q 3706 609 3251 259 
Q 2797 -91 1919 -91 
Q 1588 -91 1214 -16 
Q 841 59 441 206 
L 441 856 
Q 825 641 1194 531 
Q 1563 422 1919 422 
Q 2459 422 2753 634 
Q 3047 847 3047 1241 
Q 3047 1584 2836 1778 
Q 2625 1972 2144 2069 
L 1759 2144 
Q 1053 2284 737 2584 
Q 422 2884 422 3419 
Q 422 4038 858 4394 
Q 1294 4750 2059 4750 
Q 2388 4750 2728 4690 
Q 3069 4631 3425 4513 
z
" transform="scale(0.015625)"/>
       <path id="DejaVuSans-45" d="M 628 4666 
L 3578 4666 
L 3578 4134 
L 1259 4134 
L 1259 2753 
L 3481 2753 
L 3481 2222 
L 1259 2222 
L 1259 531 
L 3634 531 
L 3634 0 
L 628 0 
L 628 4666 
z
" transform="scale(0.015625)"/>
      </defs>
      <use xlink:href="#DejaVuSans-53"/>
      <use xlink:href="#DejaVuSans-74" transform="translate(63.476562 0)"/>
      <use xlink:href="#DejaVuSans-64" transform="translate(102.685547 0)"/>
      <use xlink:href="#DejaVuSans-20" transform="translate(166.162109 0)"/>
      <use xlink:href="#DejaVuSans-45" transform="translate(197.949219 0)"/>
      <use xlink:href="#DejaVuSans-72" transform="translate(261.132812 0)"/>
      <use xlink:href="#DejaVuSans-72" transform="translate(300.496094 0)"/>
     </g>
    </g>
   </g>
  </g>
 </g>
 <defs>
  <clipPath id="pcef5805e41">
   <rect x="43.78125" y="7.2" width="357.12" height="266.112"/>
  </clipPath>
 </defs>
</svg>
