<?xml version="1.0" encoding="utf-8" standalone="no"?>
<!DOCTYPE svg PUBLIC "-//W3C//DTD SVG 1.1//EN"
  "http://www.w3.org/Graphics/SVG/1.1/DTD/svg11.dtd">
<svg xmlns:xlink="http://www.w3.org/1999/xlink" width="853.5125pt" height="348.578125pt" viewBox="0 0 853.5125 348.578125" xmlns="http://www.w3.org/2000/svg" version="1.1">
 <metadata>
  <rdf:RDF xmlns:dc="http://purl.org/dc/elements/1.1/" xmlns:cc="http://creativecommons.org/ns#" xmlns:rdf="http://www.w3.org/1999/02/22-rdf-syntax-ns#">
   <cc:Work>
    <dc:type rdf:resource="http://purl.org/dc/dcmitype/StillImage"/>
    <dc:date>2025-12-06T21:14:40.838000</dc:date>
    <dc:format>image/svg+xml</dc:format>
    <dc:creator>
     <cc:Agent>
      <dc:title>Matplotlib v3.10.5, https://matplotlib.org/</dc:title>
     </cc:Agent>
    </dc:creator>
   </cc:Work>
  </rdf:RDF>
 </metadata>
 <defs>
  <style type="text/css">*{stroke-linejoin: round; stroke-linecap: butt}</style>
 </defs>
 <g id="figure_1">
  <g id="patch_1">
   <path d="M -0 348.578125 
L 853.5125 348.578125 
L 853.5125 0 
L -0 0 
z
" style="fill: #ffffff"/>
  </g>
  <g id="axes_1">
   <g id="patch_2">
    <path d="M 34.2625 310.6 
L 414.0425 310.6 
L 414.0425 22.32 
L 34.2625 22.32 
z
" style="fill: #ffffff"/>
   </g>
   <g id="matplotlib.axis_1">
    <g id="xtick_1">
     <g id="line2d_1">
      <defs>
       <path id="m459c4a54cb" d="M 0 0 
L 0 3.5 
" style="stroke: #000000; stroke-width: 0.8"/>
      </defs>
      <g>
       <use xlink:href="#m459c4a54cb" x="50.366655" y="310.6" style="stroke: #000000; stroke-width: 0.8"/>
      </g>
     </g>
     <g id="text_1">
      <!-- 0.0 -->
      <g transform="translate(42.415092 325.198438) scale(0.1 -0.1)">
       <defs>
        <path id="DejaVuSans-30" d="M 2034 4250 
Q 1547 4250 1301 3770 
Q 1056 3291 1056 2328 
Q 1056 1369 1301 889 
Q 1547 409 2034 409 
Q 2525 409 2770 889 
Q 3016 1369 3016 2328 
Q 3016 3291 2770 3770 
Q 2525 4250 2034 4250 
z
M 2034 4750 
Q 2819 4750 3233 4129 
Q 3647 3509 3647 2328 
Q 3647 1150 3233 529 
Q 2819 -91 2034 -91 
Q 1250 -91 836 529 
Q 422 1150 422 2328 
Q 422 3509 836 4129 
Q 1250 4750 2034 4750 
z
" transform="scale(0.015625)"/>
        <path id="DejaVuSans-2e" d="M 684 794 
L 1344 794 
L 1344 0 
L 684 0 
L 684 794 
z
" transform="scale(0.015625)"/>
       </defs>
       <use xlink:href="#DejaVuSans-30"/>
       <use xlink:href="#DejaVuSans-2e" transform="translate(63.623047 0)"/>
       <use xlink:href="#DejaVuSans-30" transform="translate(95.410156 0)"/>
      </g>
     </g>
    </g>
    <g id="xtick_2">
     <g id="line2d_2">
      <g>
       <use xlink:href="#m459c4a54cb" x="108.29527" y="310.6" style="stroke: #000000; stroke-width: 0.8"/>
      </g>
     </g>
     <g id="text_2">
      <!-- 0.5 -->
      <g transform="translate(100.343707 325.198438) scale(0.1 -0.1)">
       <defs>
        <path id="DejaVuSans-35" d="M 691 4666 
L 3169 4666 
L 3169 4134 
L 1269 4134 
L 1269 2991 
Q 1406 3038 1543 3061 
Q 1681 3084 1819 3084 
Q 2600 3084 3056 2656 
Q 3513 2228 3513 1497 
Q 3513 744 3044 326 
Q 2575 -91 1722 -91 
Q 1428 -91 1123 -41 
Q 819 9 494 109 
L 494 744 
Q 775 591 1075 516 
Q 1375 441 1709 441 
Q 2250 441 2565 725 
Q 2881 1009 2881 1497 
Q 2881 1984 2565 2268 
Q 2250 2553 1709 2553 
Q 1456 2553 1204 2497 
Q 953 2441 691 2322 
L 691 4666 
z
" transform="scale(0.015625)"/>
       </defs>
       <use xlink:href="#DejaVuSans-30"/>
       <use xlink:href="#DejaVuSans-2e" transform="translate(63.623047 0)"/>
       <use xlink:href="#DejaVuSans-35" transform="translate(95.410156 0)"/>
      </g>
     </g>
    </g>
    <g id="xtick_3">
     <g id="line2d_3">
      <g>
       <use xlink:href="#m459c4a54cb" x="166.223885" y="310.6" style="stroke: #000000; stroke-width: 0.8"/>
      </g>
     </g>
     <g id="text_3">
      <!-- 1.0 -->
      <g transform="translate(158.272322 325.198438) scale(0.1 -0.1)">
       <defs>
        <path id="DejaVuSans-31" d="M 794 531 
L 1825 531 
L 1825 4091 
L 703 3866 
L 703 4441 
L 1819 4666 
L 2450 4666 
L 2450 531 
L 3481 531 
L 3481 0 
L 794 0 
L 794 531 
z
" transform="scale(0.015625)"/>
       </defs>
       <use xlink:href="#DejaVuSans-31"/>
       <use xlink:href="#DejaVuSans-2e" transform="translate(63.623047 0)"/>
       <use xlink:href="#DejaVuSans-30" transform="translate(95.410156 0)"/>
      </g>
     </g>
    </g>
    <g id="xtick_4">
     <g id="line2d_4">
      <g>
       <use xlink:href="#m459c4a54cb" x="224.1525" y="310.6" style="stroke: #000000; stroke-width: 0.8"/>
      </g>
     </g>
     <g id="text_4">
      <!-- 1.5 -->
      <g transform="translate(216.200937 325.198438) scale(0.1 -0.1)">
       <use xlink:href="#DejaVuSans-31"/>
       <use xlink:href="#DejaVuSans-2e" transform="translate(63.623047 0)"/>
       <use xlink:href="#DejaVuSans-35" transform="translate(95.410156 0)"/>
      </g>
     </g>
    </g>
    <g id="xtick_5">
     <g id="line2d_5">
      <g>
       <use xlink:href="#m459c4a54cb" x="282.081115" y="310.6" style="stroke: #000000; stroke-width: 0.8"/>
      </g>
     </g>
     <g id="text_5">
      <!-- 2.0 -->
      <g transform="translate(274.129553 325.198438) scale(0.1 -0.1)">
       <defs>
        <path id="DejaVuSans-32" d="M 1228 531 
L 3431 531 
L 3431 0 
L 469 0 
L 469 531 
Q 828 903 1448 1529 
Q 2069 2156 2228 2338 
Q 2531 2678 2651 2914 
Q 2772 3150 2772 3378 
Q 2772 3750 2511 3984 
Q 2250 4219 1831 4219 
Q 1534 4219 1204 4116 
Q 875 4013 500 3803 
L 500 4441 
Q 881 4594 1212 4672 
Q 1544 4750 1819 4750 
Q 2544 4750 2975 4387 
Q 3406 4025 3406 3419 
Q 3406 3131 3298 2873 
Q 3191 2616 2906 2266 
Q 2828 2175 2409 1742 
Q 1991 1309 1228 531 
z
" transform="scale(0.015625)"/>
       </defs>
       <use xlink:href="#DejaVuSans-32"/>
       <use xlink:href="#DejaVuSans-2e" transform="translate(63.623047 0)"/>
       <use xlink:href="#DejaVuSans-30" transform="translate(95.410156 0)"/>
      </g>
     </g>
    </g>
    <g id="xtick_6">
     <g id="line2d_6">
      <g>
       <use xlink:href="#m459c4a54cb" x="340.00973" y="310.6" style="stroke: #000000; stroke-width: 0.8"/>
      </g>
     </g>
     <g id="text_6">
      <!-- 2.5 -->
      <g transform="translate(332.058168 325.198438) scale(0.1 -0.1)">
       <use xlink:href="#DejaVuSans-32"/>
       <use xlink:href="#DejaVuSans-2e" transform="translate(63.623047 0)"/>
       <use xlink:href="#DejaVuSans-35" transform="translate(95.410156 0)"/>
      </g>
     </g>
    </g>
    <g id="xtick_7">
     <g id="line2d_7">
      <g>
       <use xlink:href="#m459c4a54cb" x="397.938345" y="310.6" style="stroke: #000000; stroke-width: 0.8"/>
      </g>
     </g>
     <g id="text_7">
      <!-- 3.0 -->
      <g transform="translate(389.986783 325.198438) scale(0.1 -0.1)">
       <defs>
        <path id="DejaVuSans-33" d="M 2597 2516 
Q 3050 2419 3304 2112 
Q 3559 1806 3559 1356 
Q 3559 666 3084 287 
Q 2609 -91 1734 -91 
Q 1441 -91 1130 -33 
Q 819 25 488 141 
L 488 750 
Q 750 597 1062 519 
Q 1375 441 1716 441 
Q 2309 441 2620 675 
Q 2931 909 2931 1356 
Q 2931 1769 2642 2001 
Q 2353 2234 1838 2234 
L 1294 2234 
L 1294 2753 
L 1863 2753 
Q 2328 2753 2575 2939 
Q 2822 3125 2822 3475 
Q 2822 3834 2567 4026 
Q 2313 4219 1838 4219 
Q 1578 4219 1281 4162 
Q 984 4106 628 3988 
L 628 4550 
Q 988 4650 1302 4700 
Q 1616 4750 1894 4750 
Q 2613 4750 3031 4423 
Q 3450 4097 3450 3541 
Q 3450 3153 3228 2886 
Q 3006 2619 2597 2516 
z
" transform="scale(0.015625)"/>
       </defs>
       <use xlink:href="#DejaVuSans-33"/>
       <use xlink:href="#DejaVuSans-2e" transform="translate(63.623047 0)"/>
       <use xlink:href="#DejaVuSans-30" transform="translate(95.410156 0)"/>
      </g>
     </g>
    </g>
    <g id="text_8">
     <!-- $r$ -->
     <g transform="translate(222.0525 338.876562) scale(0.1 -0.1)">
      <defs>
       <path id="DejaVuSans-Oblique-72" d="M 2853 2969 
Q 2766 3016 2653 3041 
Q 2541 3066 2413 3066 
Q 1953 3066 1609 2717 
Q 1266 2369 1153 1784 
L 800 0 
L 225 0 
L 909 3500 
L 1484 3500 
L 1375 2956 
Q 1603 3259 1920 3421 
Q 2238 3584 2597 3584 
Q 2691 3584 2781 3573 
Q 2872 3563 2963 3538 
L 2853 2969 
z
" transform="scale(0.015625)"/>
      </defs>
      <use xlink:href="#DejaVuSans-Oblique-72"/>
     </g>
    </g>
   </g>
   <g id="matplotlib.axis_2">
    <g id="ytick_1">
     <g id="line2d_8">
      <defs>
       <path id="mfb25851201" d="M 0 0 
L -3.5 0 
" style="stroke: #000000; stroke-width: 0.8"/>
      </defs>
      <g>
       <use xlink:href="#mfb25851201" x="34.2625" y="310.6" style="stroke: #000000; stroke-width: 0.8"/>
      </g>
     </g>
     <g id="text_9">
      <!-- 0 -->
      <g transform="translate(20.9 314.399219) scale(0.1 -0.1)">
       <use xlink:href="#DejaVuSans-30"/>
      </g>
     </g>
    </g>
    <g id="ytick_2">
     <g id="line2d_9">
      <g>
       <use xlink:href="#mfb25851201" x="34.2625" y="265.235885" style="stroke: #000000; stroke-width: 0.8"/>
      </g>
     </g>
     <g id="text_10">
      <!-- 1 -->
      <g transform="translate(20.9 269.035104) scale(0.1 -0.1)">
       <use xlink:href="#DejaVuSans-31"/>
      </g>
     </g>
    </g>
    <g id="ytick_3">
     <g id="line2d_10">
      <g>
       <use xlink:href="#mfb25851201" x="34.2625" y="219.871771" style="stroke: #000000; stroke-width: 0.8"/>
      </g>
     </g>
     <g id="text_11">
      <!-- 2 -->
      <g transform="translate(20.9 223.67099) scale(0.1 -0.1)">
       <use xlink:href="#DejaVuSans-32"/>
      </g>
     </g>
    </g>
    <g id="ytick_4">
     <g id="line2d_11">
      <g>
       <use xlink:href="#mfb25851201" x="34.2625" y="174.507656" style="stroke: #000000; stroke-width: 0.8"/>
      </g>
     </g>
     <g id="text_12">
      <!-- 3 -->
      <g transform="translate(20.9 178.306875) scale(0.1 -0.1)">
       <use xlink:href="#DejaVuSans-33"/>
      </g>
     </g>
    </g>
    <g id="ytick_5">
     <g id="line2d_12">
      <g>
       <use xlink:href="#mfb25851201" x="34.2625" y="129.143542" style="stroke: #000000; stroke-width: 0.8"/>
      </g>
     </g>
     <g id="text_13">
      <!-- 4 -->
      <g transform="translate(20.9 132.94276) scale(0.1 -0.1)">
       <defs>
        <path id="DejaVuSans-34" d="M 2419 4116 
L 825 1625 
L 2419 1625 
L 2419 4116 
z
M 2253 4666 
L 3047 4666 
L 3047 1625 
L 3713 1625 
L 3713 1100 
L 3047 1100 
L 3047 0 
L 2419 0 
L 2419 1100 
L 313 1100 
L 313 1709 
L 2253 4666 
z
" transform="scale(0.015625)"/>
       </defs>
       <use xlink:href="#DejaVuSans-34"/>
      </g>
     </g>
    </g>
    <g id="ytick_6">
     <g id="line2d_13">
      <g>
       <use xlink:href="#mfb25851201" x="34.2625" y="83.779427" style="stroke: #000000; stroke-width: 0.8"/>
      </g>
     </g>
     <g id="text_14">
      <!-- 5 -->
      <g transform="translate(20.9 87.578646) scale(0.1 -0.1)">
       <use xlink:href="#DejaVuSans-35"/>
      </g>
     </g>
    </g>
    <g id="ytick_7">
     <g id="line2d_14">
      <g>
       <use xlink:href="#mfb25851201" x="34.2625" y="38.415312" style="stroke: #000000; stroke-width: 0.8"/>
      </g>
     </g>
     <g id="text_15">
      <!-- 6 -->
      <g transform="translate(20.9 42.214531) scale(0.1 -0.1)">
       <defs>
        <path id="DejaVuSans-36" d="M 2113 2584 
Q 1688 2584 1439 2293 
Q 1191 2003 1191 1497 
Q 1191 994 1439 701 
Q 1688 409 2113 409 
Q 2538 409 2786 701 
Q 3034 994 3034 1497 
Q 3034 2003 2786 2293 
Q 2538 2584 2113 2584 
z
M 3366 4563 
L 3366 3988 
Q 3128 4100 2886 4159 
Q 2644 4219 2406 4219 
Q 1781 4219 1451 3797 
Q 1122 3375 1075 2522 
Q 1259 2794 1537 2939 
Q 1816 3084 2150 3084 
Q 2853 3084 3261 2657 
Q 3669 2231 3669 1497 
Q 3669 778 3244 343 
Q 2819 -91 2113 -91 
Q 1303 -91 875 529 
Q 447 1150 447 2328 
Q 447 3434 972 4092 
Q 1497 4750 2381 4750 
Q 2619 4750 2861 4703 
Q 3103 4656 3366 4563 
z
" transform="scale(0.015625)"/>
       </defs>
       <use xlink:href="#DejaVuSans-36"/>
      </g>
     </g>
    </g>
    <g id="text_16">
     <!-- $g(r)$ -->
     <g transform="translate(14.8 175.61) rotate(-90) scale(0.1 -0.1)">
      <defs>
       <path id="DejaVuSans-Oblique-67" d="M 3816 3500 
L 3219 434 
Q 3047 -456 2561 -893 
Q 2075 -1331 1253 -1331 
Q 950 -1331 690 -1286 
Q 431 -1241 206 -1147 
L 313 -588 
Q 525 -725 762 -790 
Q 1000 -856 1269 -856 
Q 1816 -856 2167 -557 
Q 2519 -259 2631 300 
L 2681 563 
Q 2441 288 2122 144 
Q 1803 0 1434 0 
Q 903 0 598 351 
Q 294 703 294 1319 
Q 294 1803 478 2267 
Q 663 2731 997 3091 
Q 1219 3328 1514 3456 
Q 1809 3584 2131 3584 
Q 2484 3584 2746 3420 
Q 3009 3256 3138 2956 
L 3238 3500 
L 3816 3500 
z
M 2950 2216 
Q 2950 2641 2750 2872 
Q 2550 3103 2181 3103 
Q 1953 3103 1747 3012 
Q 1541 2922 1394 2759 
Q 1156 2491 1023 2127 
Q 891 1763 891 1375 
Q 891 944 1092 712 
Q 1294 481 1672 481 
Q 2219 481 2584 976 
Q 2950 1472 2950 2216 
z
" transform="scale(0.015625)"/>
       <path id="DejaVuSans-28" d="M 1984 4856 
Q 1566 4138 1362 3434 
Q 1159 2731 1159 2009 
Q 1159 1288 1364 580 
Q 1569 -128 1984 -844 
L 1484 -844 
Q 1016 -109 783 600 
Q 550 1309 550 2009 
Q 550 2706 781 3412 
Q 1013 4119 1484 4856 
L 1984 4856 
z
" transform="scale(0.015625)"/>
       <path id="DejaVuSans-29" d="M 513 4856 
L 1013 4856 
Q 1481 4119 1714 3412 
Q 1947 2706 1947 2009 
Q 1947 1309 1714 600 
Q 1481 -109 1013 -844 
L 513 -844 
Q 928 -128 1133 580 
Q 1338 1288 1338 2009 
Q 1338 2731 1133 3434 
Q 928 4138 513 4856 
z
" transform="scale(0.015625)"/>
      </defs>
      <use xlink:href="#DejaVuSans-Oblique-67" transform="translate(0 0.125)"/>
      <use xlink:href="#DejaVuSans-28" transform="translate(63.476562 0.125)"/>
      <use xlink:href="#DejaVuSans-Oblique-72" transform="translate(102.490234 0.125)"/>
      <use xlink:href="#DejaVuSans-29" transform="translate(143.603516 0.125)"/>
     </g>
    </g>
   </g>
   <g id="line2d_15">
    <path d="M 51.525227 310.6 
L 162.748168 310.6 
L 165.065313 296.344735 
L 167.382457 277.337538 
L 169.699602 216.531478 
L 172.016746 134.992761 
L 174.333891 87.452421 
L 176.651036 48.527273 
L 178.96818 77.325539 
L 181.285325 99.577893 
L 183.602469 99.307628 
L 185.919614 158.960113 
L 188.236759 197.84177 
L 190.553903 230.167088 
L 192.871048 239.357955 
L 195.188192 246.729087 
L 197.505337 252.437395 
L 199.822482 266.221153 
L 202.139626 265.239692 
L 204.456771 284.647525 
L 206.773915 283.22041 
L 209.09106 288.267731 
L 211.408205 277.542097 
L 213.725349 288.512855 
L 216.042494 293.030647 
L 218.359638 288.765294 
L 220.676783 289.355384 
L 222.993928 294.417118 
L 225.311072 295.71835 
L 227.628217 294.399554 
L 229.945362 296.476514 
L 232.262506 294.404766 
L 234.579651 285.335401 
L 236.896795 288.269262 
L 239.21394 285.057661 
L 241.531085 283.473677 
L 243.848229 274.815555 
L 246.165374 281.947152 
L 248.482518 271.691894 
L 250.799663 274.587014 
L 253.116808 255.20118 
L 255.433952 265.36552 
L 257.751097 262.010052 
L 260.068241 255.157573 
L 262.385386 246.826583 
L 264.702531 256.945945 
L 267.019675 244.959346 
L 269.33682 256.399102 
L 271.653964 248.227011 
L 273.971109 224.863868 
L 276.288254 242.885903 
L 278.605398 226.252915 
L 280.922543 238.524338 
L 283.239687 246.37412 
L 285.556832 244.72726 
L 287.873977 236.982182 
L 290.191121 230.478921 
L 292.508266 234.289729 
L 294.82541 238.41946 
L 297.142555 232.729443 
L 299.4597 238.057647 
L 301.776844 230.911121 
L 304.093989 231.111458 
L 306.411133 239.491069 
L 308.728278 250.7952 
L 311.045423 260.133349 
L 313.362567 259.081937 
L 315.679712 269.873934 
L 317.996856 271.3242 
L 320.314001 278.981129 
L 322.631146 285.661338 
L 324.94829 288.92331 
L 327.265435 289.284579 
L 331.899724 294.036829 
L 334.216869 293.973615 
L 336.534013 290.642967 
L 338.851158 291.606133 
L 341.168302 288.105776 
L 343.485447 292.82564 
L 345.802592 284.201559 
L 348.119736 282.797631 
L 350.436881 279.654745 
L 355.07117 264.429051 
L 357.388315 258.301838 
L 359.705459 261.322289 
L 362.022604 246.329486 
L 364.339748 250.264234 
L 366.656893 250.609402 
L 368.974038 244.880469 
L 371.291182 242.964558 
L 373.608327 248.033484 
L 375.925471 248.162588 
L 378.242616 248.543528 
L 380.559761 248.428488 
L 382.876905 245.899428 
L 385.19405 254.200274 
L 387.511194 255.444277 
L 389.828339 261.077212 
L 394.462628 251.088127 
L 396.779773 259.472578 
L 396.779773 259.472578 
" clip-path="url(#p8db1194d58)" style="fill: none; stroke: #1f77b4; stroke-width: 1.5; stroke-linecap: square"/>
   </g>
   <g id="line2d_16">
    <path d="M 34.2625 265.235885 
L 414.0425 265.235885 
" clip-path="url(#p8db1194d58)" style="fill: none; stroke-dasharray: 5.55,2.4; stroke-dashoffset: 0; stroke: #000000; stroke-opacity: 0.4; stroke-width: 1.5"/>
   </g>
   <g id="patch_3">
    <path d="M 34.2625 310.6 
L 34.2625 22.32 
" style="fill: none; stroke: #000000; stroke-width: 0.8; stroke-linejoin: miter; stroke-linecap: square"/>
   </g>
   <g id="patch_4">
    <path d="M 414.0425 310.6 
L 414.0425 22.32 
" style="fill: none; stroke: #000000; stroke-width: 0.8; stroke-linejoin: miter; stroke-linecap: square"/>
   </g>
   <g id="patch_5">
    <path d="M 34.2625 310.6 
L 414.0425 310.6 
" style="fill: none; stroke: #000000; stroke-width: 0.8; stroke-linejoin: miter; stroke-linecap: square"/>
   </g>
   <g id="patch_6">
    <path d="M 34.2625 22.32 
L 414.0425 22.32 
" style="fill: none; stroke: #000000; stroke-width: 0.8; stroke-linejoin: miter; stroke-linecap: square"/>
   </g>
   <g id="text_17">
    <!-- SLAB - 3D $g(r)$ -->
    <g transform="translate(181.7325 16.32) scale(0.12 -0.12)">
     <defs>
      <path id="DejaVuSans-53" d="M 3425 4513 
L 3425 3897 
Q 3066 4069 2747 4153 
Q 2428 4238 2131 4238 
Q 1616 4238 1336 4038 
Q 1056 3838 1056 3469 
Q 1056 3159 1242 3001 
Q 1428 2844 1947 2747 
L 2328 2669 
Q 3034 2534 3370 2195 
Q 3706 1856 3706 1288 
Q 3706 609 3251 259 
Q 2797 -91 1919 -91 
Q 1588 -91 1214 -16 
Q 841 59 441 206 
L 441 856 
Q 825 641 1194 531 
Q 1563 422 1919 422 
Q 2459 422 2753 634 
Q 3047 847 3047 1241 
Q 3047 1584 2836 1778 
Q 2625 1972 2144 2069 
L 1759 2144 
Q 1053 2284 737 2584 
Q 422 2884 422 3419 
Q 422 4038 858 4394 
Q 1294 4750 2059 4750 
Q 2388 4750 2728 4690 
Q 3069 4631 3425 4513 
z
" transform="scale(0.015625)"/>
      <path id="DejaVuSans-4c" d="M 628 4666 
L 1259 4666 
L 1259 531 
L 3531 531 
L 3531 0 
L 628 0 
L 628 4666 
z
" transform="scale(0.015625)"/>
      <path id="DejaVuSans-41" d="M 2188 4044 
L 1331 1722 
L 3047 1722 
L 2188 4044 
z
M 1831 4666 
L 2547 4666 
L 4325 0 
L 3669 0 
L 3244 1197 
L 1141 1197 
L 716 0 
L 50 0 
L 1831 4666 
z
" transform="scale(0.015625)"/>
      <path id="DejaVuSans-42" d="M 1259 2228 
L 1259 519 
L 2272 519 
Q 2781 519 3026 730 
Q 3272 941 3272 1375 
Q 3272 1813 3026 2020 
Q 2781 2228 2272 2228 
L 1259 2228 
z
M 1259 4147 
L 1259 2741 
L 2194 2741 
Q 2656 2741 2882 2914 
Q 3109 3088 3109 3444 
Q 3109 3797 2882 3972 
Q 2656 4147 2194 4147 
L 1259 4147 
z
M 628 4666 
L 2241 4666 
Q 2963 4666 3353 4366 
Q 3744 4066 3744 3513 
Q 3744 3084 3544 2831 
Q 3344 2578 2956 2516 
Q 3422 2416 3680 2098 
Q 3938 1781 3938 1306 
Q 3938 681 3513 340 
Q 3088 0 2303 0 
L 628 0 
L 628 4666 
z
" transform="scale(0.015625)"/>
      <path id="DejaVuSans-20" transform="scale(0.015625)"/>
      <path id="DejaVuSans-2d" d="M 313 2009 
L 1997 2009 
L 1997 1497 
L 313 1497 
L 313 2009 
z
" transform="scale(0.015625)"/>
      <path id="DejaVuSans-44" d="M 1259 4147 
L 1259 519 
L 2022 519 
Q 2988 519 3436 956 
Q 3884 1394 3884 2338 
Q 3884 3275 3436 3711 
Q 2988 4147 2022 4147 
L 1259 4147 
z
M 628 4666 
L 1925 4666 
Q 3281 4666 3915 4102 
Q 4550 3538 4550 2338 
Q 4550 1131 3912 565 
Q 3275 0 1925 0 
L 628 0 
L 628 4666 
z
" transform="scale(0.015625)"/>
     </defs>
     <use xlink:href="#DejaVuSans-53" transform="translate(0 0.125)"/>
     <use xlink:href="#DejaVuSans-4c" transform="translate(63.476562 0.125)"/>
     <use xlink:href="#DejaVuSans-41" transform="translate(119.189453 0.125)"/>
     <use xlink:href="#DejaVuSans-42" transform="translate(187.597656 0.125)"/>
     <use xlink:href="#DejaVuSans-20" transform="translate(256.201172 0.125)"/>
     <use xlink:href="#DejaVuSans-2d" transform="translate(287.988281 0.125)"/>
     <use xlink:href="#DejaVuSans-20" transform="translate(324.072266 0.125)"/>
     <use xlink:href="#DejaVuSans-33" transform="translate(355.859375 0.125)"/>
     <use xlink:href="#DejaVuSans-44" transform="translate(414.982422 0.125)"/>
     <use xlink:href="#DejaVuSans-20" transform="translate(491.984375 0.125)"/>
     <use xlink:href="#DejaVuSans-Oblique-67" transform="translate(523.771484 0.125)"/>
     <use xlink:href="#DejaVuSans-28" transform="translate(587.248047 0.125)"/>
     <use xlink:href="#DejaVuSans-Oblique-72" transform="translate(626.261719 0.125)"/>
     <use xlink:href="#DejaVuSans-29" transform="translate(667.375 0.125)"/>
    </g>
   </g>
  </g>
  <g id="axes_2">
   <g id="patch_7">
    <path d="M 466.5325 310.6 
L 846.3125 310.6 
L 846.3125 22.32 
L 466.5325 22.32 
z
" style="fill: #ffffff"/>
   </g>
   <g id="matplotlib.axis_3">
    <g id="xtick_8">
     <g id="line2d_17">
      <g>
       <use xlink:href="#m459c4a54cb" x="466.5325" y="310.6" style="stroke: #000000; stroke-width: 0.8"/>
      </g>
     </g>
     <g id="text_18">
      <!-- 0 -->
      <g transform="translate(463.35125 325.198438) scale(0.1 -0.1)">
       <use xlink:href="#DejaVuSans-30"/>
      </g>
     </g>
    </g>
    <g id="xtick_9">
     <g id="line2d_18">
      <g>
       <use xlink:href="#m459c4a54cb" x="517.169833" y="310.6" style="stroke: #000000; stroke-width: 0.8"/>
      </g>
     </g>
     <g id="text_19">
      <!-- 2 -->
      <g transform="translate(513.988583 325.198438) scale(0.1 -0.1)">
       <use xlink:href="#DejaVuSans-32"/>
      </g>
     </g>
    </g>
    <g id="xtick_10">
     <g id="line2d_19">
      <g>
       <use xlink:href="#m459c4a54cb" x="567.807167" y="310.6" style="stroke: #000000; stroke-width: 0.8"/>
      </g>
     </g>
     <g id="text_20">
      <!-- 4 -->
      <g transform="translate(564.625917 325.198438) scale(0.1 -0.1)">
       <use xlink:href="#DejaVuSans-34"/>
      </g>
     </g>
    </g>
    <g id="xtick_11">
     <g id="line2d_20">
      <g>
       <use xlink:href="#m459c4a54cb" x="618.4445" y="310.6" style="stroke: #000000; stroke-width: 0.8"/>
      </g>
     </g>
     <g id="text_21">
      <!-- 6 -->
      <g transform="translate(615.26325 325.198438) scale(0.1 -0.1)">
       <use xlink:href="#DejaVuSans-36"/>
      </g>
     </g>
    </g>
    <g id="xtick_12">
     <g id="line2d_21">
      <g>
       <use xlink:href="#m459c4a54cb" x="669.081833" y="310.6" style="stroke: #000000; stroke-width: 0.8"/>
      </g>
     </g>
     <g id="text_22">
      <!-- 8 -->
      <g transform="translate(665.900583 325.198438) scale(0.1 -0.1)">
       <defs>
        <path id="DejaVuSans-38" d="M 2034 2216 
Q 1584 2216 1326 1975 
Q 1069 1734 1069 1313 
Q 1069 891 1326 650 
Q 1584 409 2034 409 
Q 2484 409 2743 651 
Q 3003 894 3003 1313 
Q 3003 1734 2745 1975 
Q 2488 2216 2034 2216 
z
M 1403 2484 
Q 997 2584 770 2862 
Q 544 3141 544 3541 
Q 544 4100 942 4425 
Q 1341 4750 2034 4750 
Q 2731 4750 3128 4425 
Q 3525 4100 3525 3541 
Q 3525 3141 3298 2862 
Q 3072 2584 2669 2484 
Q 3125 2378 3379 2068 
Q 3634 1759 3634 1313 
Q 3634 634 3220 271 
Q 2806 -91 2034 -91 
Q 1263 -91 848 271 
Q 434 634 434 1313 
Q 434 1759 690 2068 
Q 947 2378 1403 2484 
z
M 1172 3481 
Q 1172 3119 1398 2916 
Q 1625 2713 2034 2713 
Q 2441 2713 2670 2916 
Q 2900 3119 2900 3481 
Q 2900 3844 2670 4047 
Q 2441 4250 2034 4250 
Q 1625 4250 1398 4047 
Q 1172 3844 1172 3481 
z
" transform="scale(0.015625)"/>
       </defs>
       <use xlink:href="#DejaVuSans-38"/>
      </g>
     </g>
    </g>
    <g id="xtick_13">
     <g id="line2d_22">
      <g>
       <use xlink:href="#m459c4a54cb" x="719.719167" y="310.6" style="stroke: #000000; stroke-width: 0.8"/>
      </g>
     </g>
     <g id="text_23">
      <!-- 10 -->
      <g transform="translate(713.356667 325.198438) scale(0.1 -0.1)">
       <use xlink:href="#DejaVuSans-31"/>
       <use xlink:href="#DejaVuSans-30" transform="translate(63.623047 0)"/>
      </g>
     </g>
    </g>
    <g id="xtick_14">
     <g id="line2d_23">
      <g>
       <use xlink:href="#m459c4a54cb" x="770.3565" y="310.6" style="stroke: #000000; stroke-width: 0.8"/>
      </g>
     </g>
     <g id="text_24">
      <!-- 12 -->
      <g transform="translate(763.994 325.198438) scale(0.1 -0.1)">
       <use xlink:href="#DejaVuSans-31"/>
       <use xlink:href="#DejaVuSans-32" transform="translate(63.623047 0)"/>
      </g>
     </g>
    </g>
    <g id="xtick_15">
     <g id="line2d_24">
      <g>
       <use xlink:href="#m459c4a54cb" x="820.993833" y="310.6" style="stroke: #000000; stroke-width: 0.8"/>
      </g>
     </g>
     <g id="text_25">
      <!-- 14 -->
      <g transform="translate(814.631333 325.198438) scale(0.1 -0.1)">
       <use xlink:href="#DejaVuSans-31"/>
       <use xlink:href="#DejaVuSans-34" transform="translate(63.623047 0)"/>
      </g>
     </g>
    </g>
    <g id="text_26">
     <!-- $|k|$ -->
     <g transform="translate(650.1225 338.978125) scale(0.1 -0.1)">
      <defs>
       <path id="DejaVuSans-7c" d="M 1344 4891 
L 1344 -1509 
L 813 -1509 
L 813 4891 
L 1344 4891 
z
" transform="scale(0.015625)"/>
       <path id="DejaVuSans-Oblique-6b" d="M 1172 4863 
L 1747 4863 
L 1197 2028 
L 3169 3500 
L 3916 3500 
L 1716 1825 
L 3322 0 
L 2625 0 
L 1131 1709 
L 800 0 
L 225 0 
L 1172 4863 
z
" transform="scale(0.015625)"/>
      </defs>
      <use xlink:href="#DejaVuSans-7c" transform="translate(0 0.578125)"/>
      <use xlink:href="#DejaVuSans-Oblique-6b" transform="translate(33.691406 0.578125)"/>
      <use xlink:href="#DejaVuSans-7c" transform="translate(91.601562 0.578125)"/>
     </g>
    </g>
   </g>
   <g id="matplotlib.axis_4">
    <g id="ytick_8">
     <g id="line2d_25">
      <g>
       <use xlink:href="#mfb25851201" x="466.5325" y="310.6" style="stroke: #000000; stroke-width: 0.8"/>
      </g>
     </g>
     <g id="text_27">
      <!-- 0 -->
      <g transform="translate(453.17 314.399219) scale(0.1 -0.1)">
       <use xlink:href="#DejaVuSans-30"/>
      </g>
     </g>
    </g>
    <g id="ytick_9">
     <g id="line2d_26">
      <g>
       <use xlink:href="#mfb25851201" x="466.5325" y="274.694022" style="stroke: #000000; stroke-width: 0.8"/>
      </g>
     </g>
     <g id="text_28">
      <!-- 20 -->
      <g transform="translate(446.8075 278.493241) scale(0.1 -0.1)">
       <use xlink:href="#DejaVuSans-32"/>
       <use xlink:href="#DejaVuSans-30" transform="translate(63.623047 0)"/>
      </g>
     </g>
    </g>
    <g id="ytick_10">
     <g id="line2d_27">
      <g>
       <use xlink:href="#mfb25851201" x="466.5325" y="238.788044" style="stroke: #000000; stroke-width: 0.8"/>
      </g>
     </g>
     <g id="text_29">
      <!-- 40 -->
      <g transform="translate(446.8075 242.587263) scale(0.1 -0.1)">
       <use xlink:href="#DejaVuSans-34"/>
       <use xlink:href="#DejaVuSans-30" transform="translate(63.623047 0)"/>
      </g>
     </g>
    </g>
    <g id="ytick_11">
     <g id="line2d_28">
      <g>
       <use xlink:href="#mfb25851201" x="466.5325" y="202.882066" style="stroke: #000000; stroke-width: 0.8"/>
      </g>
     </g>
     <g id="text_30">
      <!-- 60 -->
      <g transform="translate(446.8075 206.681285) scale(0.1 -0.1)">
       <use xlink:href="#DejaVuSans-36"/>
       <use xlink:href="#DejaVuSans-30" transform="translate(63.623047 0)"/>
      </g>
     </g>
    </g>
    <g id="ytick_12">
     <g id="line2d_29">
      <g>
       <use xlink:href="#mfb25851201" x="466.5325" y="166.976088" style="stroke: #000000; stroke-width: 0.8"/>
      </g>
     </g>
     <g id="text_31">
      <!-- 80 -->
      <g transform="translate(446.8075 170.775307) scale(0.1 -0.1)">
       <use xlink:href="#DejaVuSans-38"/>
       <use xlink:href="#DejaVuSans-30" transform="translate(63.623047 0)"/>
      </g>
     </g>
    </g>
    <g id="ytick_13">
     <g id="line2d_30">
      <g>
       <use xlink:href="#mfb25851201" x="466.5325" y="131.07011" style="stroke: #000000; stroke-width: 0.8"/>
      </g>
     </g>
     <g id="text_32">
      <!-- 100 -->
      <g transform="translate(440.445 134.869329) scale(0.1 -0.1)">
       <use xlink:href="#DejaVuSans-31"/>
       <use xlink:href="#DejaVuSans-30" transform="translate(63.623047 0)"/>
       <use xlink:href="#DejaVuSans-30" transform="translate(127.246094 0)"/>
      </g>
     </g>
    </g>
    <g id="ytick_14">
     <g id="line2d_31">
      <g>
       <use xlink:href="#mfb25851201" x="466.5325" y="95.164132" style="stroke: #000000; stroke-width: 0.8"/>
      </g>
     </g>
     <g id="text_33">
      <!-- 120 -->
      <g transform="translate(440.445 98.963351) scale(0.1 -0.1)">
       <use xlink:href="#DejaVuSans-31"/>
       <use xlink:href="#DejaVuSans-32" transform="translate(63.623047 0)"/>
       <use xlink:href="#DejaVuSans-30" transform="translate(127.246094 0)"/>
      </g>
     </g>
    </g>
    <g id="ytick_15">
     <g id="line2d_32">
      <g>
       <use xlink:href="#mfb25851201" x="466.5325" y="59.258155" style="stroke: #000000; stroke-width: 0.8"/>
      </g>
     </g>
     <g id="text_34">
      <!-- 140 -->
      <g transform="translate(440.445 63.057373) scale(0.1 -0.1)">
       <use xlink:href="#DejaVuSans-31"/>
       <use xlink:href="#DejaVuSans-34" transform="translate(63.623047 0)"/>
       <use xlink:href="#DejaVuSans-30" transform="translate(127.246094 0)"/>
      </g>
     </g>
    </g>
    <g id="ytick_16">
     <g id="line2d_33">
      <g>
       <use xlink:href="#mfb25851201" x="466.5325" y="23.352177" style="stroke: #000000; stroke-width: 0.8"/>
      </g>
     </g>
     <g id="text_35">
      <!-- 160 -->
      <g transform="translate(440.445 27.151395) scale(0.1 -0.1)">
       <use xlink:href="#DejaVuSans-31"/>
       <use xlink:href="#DejaVuSans-36" transform="translate(63.623047 0)"/>
       <use xlink:href="#DejaVuSans-30" transform="translate(127.246094 0)"/>
      </g>
     </g>
    </g>
    <g id="text_36">
     <!-- $S(k)$ -->
     <g transform="translate(434.365312 176.46) rotate(-90) scale(0.1 -0.1)">
      <defs>
       <path id="DejaVuSans-Oblique-53" d="M 3859 4513 
L 3738 3897 
Q 3422 4066 3111 4152 
Q 2800 4238 2509 4238 
Q 1944 4238 1609 3991 
Q 1275 3744 1275 3334 
Q 1275 3109 1398 2989 
Q 1522 2869 2034 2731 
L 2413 2638 
Q 3053 2472 3303 2217 
Q 3553 1963 3553 1503 
Q 3553 797 2998 353 
Q 2444 -91 1538 -91 
Q 1166 -91 791 -17 
Q 416 56 38 206 
L 166 856 
Q 513 641 861 531 
Q 1209 422 1556 422 
Q 2147 422 2503 684 
Q 2859 947 2859 1369 
Q 2859 1650 2717 1795 
Q 2575 1941 2106 2059 
L 1728 2156 
Q 1081 2325 845 2545 
Q 609 2766 609 3163 
Q 609 3859 1145 4304 
Q 1681 4750 2541 4750 
Q 2875 4750 3203 4690 
Q 3531 4631 3859 4513 
z
" transform="scale(0.015625)"/>
      </defs>
      <use xlink:href="#DejaVuSans-Oblique-53" transform="translate(0 0.015625)"/>
      <use xlink:href="#DejaVuSans-28" transform="translate(63.476562 0.015625)"/>
      <use xlink:href="#DejaVuSans-Oblique-6b" transform="translate(102.490234 0.015625)"/>
      <use xlink:href="#DejaVuSans-29" transform="translate(160.400391 0.015625)"/>
     </g>
    </g>
   </g>
   <g id="line2d_34">
    <path d="M 479.789323 69.603744 
L 488.87546 310.587049 
L 492.512323 310.579523 
L 493.046146 298.47304 
L 498.130217 310.564027 
L 500.798505 310.471942 
L 501.204986 310.589242 
L 506.302969 294.45648 
L 507.780398 310.556048 
L 518.492146 310.574965 
L 519.559791 302.651353 
L 523.092315 310.558845 
L 526.353246 310.591043 
L 530.389602 310.562807 
L 531.103439 310.578246 
L 532.816614 307.718849 
L 533.56138 310.582647 
L 541.200787 310.519643 
L 541.998068 310.577357 
L 544.471969 310.559893 
L 546.073437 304.0486 
L 546.472573 310.576913 
L 558.654884 310.575354 
L 559.33026 310.369854 
L 559.754274 310.587553 
L 562.394416 310.557559 
L 567.328832 310.551115 
L 569.330514 310.527565 
L 569.911079 310.574384 
L 571.924452 310.566004 
L 572.587083 305.595647 
L 572.82656 310.569979 
L 572.922534 310.554102 
L 575.149419 310.508137 
L 577.194103 310.406488 
L 577.802035 310.578922 
L 578.247299 310.451987 
L 581.006493 310.56822 
L 582.201533 310.450384 
L 583.76566 310.528851 
L 585.843906 310.488208 
L 586.439718 310.508585 
L 587.581132 310.46372 
L 588.242377 310.50992 
L 592.195931 310.406192 
L 593.255497 310.535942 
L 593.616703 305.78854 
L 593.967398 310.537654 
L 594.246704 310.45704 
L 595.368636 310.556078 
L 595.674379 309.77576 
L 595.881836 310.491603 
L 596.431616 310.430028 
L 596.813224 310.587918 
L 597.29166 310.395232 
L 597.485967 310.444547 
L 598.339131 310.389113 
L 599.032846 305.458533 
L 599.100729 306.052709 
L 599.186809 310.448359 
L 603.383084 310.439286 
L 603.596518 305.975446 
L 603.67096 310.315457 
L 603.902845 310.365534 
L 605.001501 310.210412 
L 605.222443 310.56542 
L 605.479126 310.392486 
L 606.365161 310.383467 
L 606.429486 310.553307 
L 607.191523 310.15831 
L 607.841786 310.425034 
L 608.138929 310.211145 
L 608.202449 310.468526 
L 608.462263 310.430974 
L 608.776361 310.119578 
L 609.249826 306.239683 
L 609.597248 310.141365 
L 610.696908 310.451719 
L 610.767685 310.290567 
L 611.762045 310.15799 
L 612.033344 310.368681 
L 612.243624 309.989713 
L 612.357552 309.399818 
L 612.418018 310.273318 
L 612.705859 310.00232 
L 613.331698 310.033978 
L 613.470679 310.355347 
L 614.059289 310.400084 
L 615.022272 310.229788 
L 615.082848 310.349222 
L 615.604755 310.540145 
L 615.74162 310.462783 
L 615.869073 289.389037 
L 616.082046 310.366292 
L 616.753716 310.397832 
L 616.998765 310.203767 
L 617.269838 310.23048 
L 617.463636 308.982841 
L 617.741873 310.240078 
L 619.05062 310.479878 
L 619.108434 310.285413 
L 619.175311 307.903616 
L 620.570713 308.752682 
L 620.678486 310.292107 
L 621.600368 310.09593 
L 621.658376 310.204786 
L 622.158233 309.386316 
L 622.182681 310.379316 
L 622.411439 310.408236 
L 622.615485 308.715593 
L 622.933219 310.011336 
L 623.331976 309.962756 
L 623.49405 309.234991 
L 624.004565 310.183026 
L 624.20655 310.082819 
L 624.521084 310.344139 
L 625.164648 308.887545 
L 625.462071 310.413352 
L 625.614374 304.976883 
L 626.412646 310.456086 
L 626.484028 305.183307 
L 626.92141 310.247852 
L 627.024918 310.070588 
L 627.17574 310.41314 
L 627.649875 310.285204 
L 627.91055 309.925174 
L 628.194344 310.367779 
L 628.572693 310.138081 
L 628.690062 309.669824 
L 628.722076 309.986861 
L 629.191703 310.252961 
L 629.449912 308.587148 
L 629.505126 306.607866 
L 629.575154 310.469857 
L 629.731029 309.978934 
L 629.816859 310.395541 
L 629.980987 307.106144 
L 630.222093 309.021335 
L 631.098945 310.249806 
L 631.338416 308.971234 
L 631.50103 310.459101 
L 631.524094 220.155086 
L 631.77134 310.419867 
L 632.485803 310.291563 
L 632.540007 309.236233 
L 633.129762 309.497808 
L 633.275062 310.003011 
L 633.983109 308.992013 
L 634.522505 306.198138 
L 635.58793 310.261585 
L 635.979363 310.073353 
L 636.151786 309.704845 
L 636.211946 310.02169 
L 636.399415 310.216487 
L 636.691413 310.255969 
L 637.058001 307.327132 
L 637.207041 310.135271 
L 637.468328 310.391141 
L 637.617011 310.065471 
L 637.706989 309.121103 
L 637.862523 309.648866 
L 638.744663 310.118683 
L 638.871197 302.863616 
L 638.922364 310.294851 
L 639.018671 310.047496 
L 639.159014 309.938965 
L 639.894929 307.149877 
L 640.313496 310.269804 
L 640.342347 53.171481 
L 640.459746 300.298085 
L 640.598928 309.891802 
L 640.75188 308.400435 
L 641.036595 310.335684 
L 641.277302 310.194995 
L 641.32878 310.536246 
L 641.539422 310.261676 
L 641.743922 308.746505 
L 641.997441 310.27493 
L 642.178736 310.030857 
L 642.815732 309.966272 
L 643.039306 310.203751 
L 643.19115 308.86125 
L 643.212688 310.379406 
L 643.306658 309.521414 
L 643.41425 305.74253 
L 644.570299 309.744518 
L 644.619829 306.211042 
L 644.762546 310.236071 
L 644.848918 309.419196 
L 645.276179 48.527273 
L 645.561445 310.085233 
L 645.767112 169.128039 
L 645.994737 310.32975 
L 646.214356 308.298897 
L 646.667201 300.920646 
L 647.154354 304.128689 
L 647.231908 300.162904 
L 647.380232 310.392413 
L 647.598171 310.072785 
L 648.391262 310.15454 
L 648.60799 308.803122 
L 648.915539 308.798963 
L 648.999945 310.223997 
L 649.145861 310.264253 
L 649.647199 301.733342 
L 649.696325 117.899961 
L 649.758637 301.210177 
L 650.092543 305.292983 
L 650.140583 309.979982 
L 650.231009 308.466963 
L 650.362792 310.252563 
L 650.777267 307.188588 
L 651.005265 309.941733 
L 651.253581 308.459653 
L 651.58479 310.484036 
L 651.71561 302.386489 
L 652.12802 308.692778 
L 652.401815 309.08597 
L 652.46322 309.651037 
L 652.792279 309.883688 
L 652.819198 304.813857 
L 652.976048 305.323064 
L 653.201359 308.441665 
L 653.468064 310.002876 
L 653.800865 310.362521 
L 654.310039 309.944395 
L 654.364383 310.205338 
L 654.392022 309.810809 
L 654.798569 309.464038 
L 655.068486 310.392664 
L 655.500115 310.411623 
L 655.587977 310.075067 
L 656.118801 309.827879 
L 656.387776 310.419648 
L 656.770059 310.020092 
L 656.816413 303.877578 
L 657.170604 309.302739 
L 657.430833 308.910466 
L 657.431763 307.556614 
L 657.890585 309.290089 
L 657.963791 310.083275 
L 658.256332 310.313084 
L 658.309558 309.424661 
L 658.475446 310.291755 
L 658.733908 309.953517 
L 658.734832 307.996368 
L 659.190551 310.051426 
L 659.263263 309.813362 
L 659.422062 309.910849 
L 659.508139 277.826393 
L 660.291757 310.393716 
L 660.350662 310.314956 
L 660.554032 310.017411 
L 660.666351 310.402605 
L 660.711775 310.28194 
L 660.921901 309.815506 
L 661.529586 310.032998 
L 661.575719 305.288128 
L 661.947853 310.46244 
L 662.175193 307.033696 
L 662.201729 310.408987 
L 662.337807 310.321637 
L 662.592083 304.296257 
L 662.805452 309.943835 
L 663.221005 308.512927 
L 663.246497 310.078042 
L 663.395039 305.726009 
L 663.446876 310.180017 
L 663.861078 310.340079 
L 664.176381 309.86945 
L 664.511298 309.000663 
L 664.614373 310.499357 
L 664.658892 310.238627 
L 665.121965 310.059624 
L 665.384843 285.873513 
L 665.742901 309.999443 
L 665.870495 310.393287 
L 665.914733 309.904101 
L 665.991946 310.274849 
L 666.374009 310.111768 
L 666.629199 310.163568 
L 666.636129 309.406132 
L 666.813233 310.151878 
L 667.016963 309.454607 
L 667.035942 310.366775 
L 667.213578 310.18686 
L 667.372111 306.258065 
L 667.619139 308.972553 
L 667.879638 304.469292 
L 667.929439 310.493383 
L 668.055649 308.774421 
L 668.125163 310.205399 
L 668.258125 310.419841 
L 668.611092 310.410526 
L 668.856607 308.929226 
L 668.857484 310.023234 
L 669.165012 310.210541 
L 669.290453 305.833668 
L 669.359544 308.114289 
L 669.592245 310.266939 
L 669.711471 308.493224 
L 669.842522 309.796877 
L 670.292944 310.309531 
L 670.343897 306.71168 
L 670.586458 303.471195 
L 670.736452 309.63393 
L 670.817761 308.534228 
L 671.514271 308.567353 
L 671.558157 310.13005 
L 671.564921 308.605044 
L 671.912204 310.269268 
L 672.128527 308.681975 
L 672.153778 306.972315 
L 672.525274 310.453324 
L 672.728364 306.339758 
L 672.827334 310.307431 
L 672.950549 310.033979 
L 673.123959 310.375527 
L 673.733443 310.495055 
L 674.223716 309.673799 
L 674.352776 310.318217 
L 674.371085 308.44576 
L 674.567414 310.363866 
L 674.934608 309.97736 
L 675.178477 309.547258 
L 675.185123 307.430743 
L 675.568586 310.185816 
L 675.690187 309.226998 
L 675.763792 310.459746 
L 676.328491 309.765304 
L 676.377979 310.526156 
L 676.71731 310.231401 
L 677.079911 310.46502 
L 677.315562 309.140031 
L 677.316404 310.202581 
L 677.564092 310.228585 
L 677.732033 309.446924 
L 677.925241 310.081306 
L 678.790828 310.434042 
L 678.910584 310.262213 
L 678.976546 309.830705 
L 679.12062 310.34444 
L 679.437709 310.029894 
L 680.148231 310.103175 
L 680.250253 305.956003 
L 680.369191 310.242656 
L 680.482412 309.808606 
L 681.533287 310.243387 
L 681.621759 310.521865 
L 682.195193 310.15442 
L 682.236906 310.323908 
L 682.573454 309.221552 
L 682.596662 310.051135 
L 682.779112 310.281318 
L 683.156353 310.252196 
L 683.766338 310.219465 
L 683.842772 309.84705 
L 683.883352 310.295753 
L 683.930303 310.169428 
L 684.545298 310.441734 
L 684.871936 310.243885 
L 684.912325 310.384839 
L 685.099186 309.51905 
L 685.680885 310.406329 
L 685.687212 310.179191 
L 686.034996 310.360643 
L 686.05233 310.190417 
L 686.823207 310.043967 
L 686.868727 310.51686 
L 686.984094 310.038763 
L 687.49196 310.293207 
L 687.716518 309.416919 
L 687.717321 310.062971 
L 687.998661 310.30381 
L 688.113441 305.990338 
L 688.176664 310.136664 
L 688.618724 310.127199 
L 689.071571 308.332306 
L 689.077802 310.460479 
L 689.12286 310.075413 
L 689.299965 303.3641 
L 689.397798 309.27144 
L 689.620437 309.922739 
L 689.962099 308.70326 
L 690.150147 310.297552 
L 690.190377 310.133013 
L 690.355039 309.308123 
L 690.514974 309.882051 
L 690.53736 310.384051 
L 690.628465 310.135434 
L 690.736504 310.330824 
L 691.077258 310.037047 
L 691.263584 306.932264 
L 691.467461 309.864616 
L 691.529742 309.75538 
L 691.648881 310.408661 
L 691.824 310.241364 
L 692.461896 310.223064 
L 692.636385 309.800371 
L 692.771761 310.462285 
L 692.88412 310.423692 
L 692.952135 310.245701 
L 693.474069 309.710767 
L 693.51371 310.325632 
L 693.872358 309.983614 
L 693.945395 310.265561 
L 693.984173 309.761587 
L 694.05186 310.366836 
L 694.386877 310.512923 
L 694.571277 310.195638 
L 694.616806 310.292687 
L 694.7722 310.450794 
L 694.929041 309.91989 
L 694.967652 310.011637 
L 695.924284 310.282239 
L 696.168471 309.920088 
L 696.351442 310.476942 
L 696.567351 310.379434 
L 696.568123 310.113613 
L 696.949027 310.227457 
L 697.434977 309.733307 
L 697.831673 309.839159 
L 697.919905 310.488613 
L 698.090282 310.166483 
L 698.22247 310.304727 
L 698.294137 310.205701 
L 699.259403 310.346338 
L 699.280948 310.421279 
L 699.472618 309.88718 
L 699.79985 310.421418 
L 699.80061 308.675546 
L 699.979974 310.33809 
L 700.01851 310.206293 
L 700.176245 310.351306 
L 700.329462 310.070076 
L 700.350908 310.119674 
L 700.475892 309.146842 
L 700.519514 310.357002 
L 700.655496 309.371829 
L 700.868198 310.219014 
L 701.301812 310.082749 
L 701.502881 310.411948 
L 701.583836 310.017683 
L 702.152757 307.80986 
L 702.455019 310.372808 
L 702.492399 310.311904 
L 703.510649 309.772417 
L 703.547862 310.412796 
L 703.698152 310.312384 
L 703.832312 308.88053 
L 704.041421 300.234378 
L 704.262013 310.050439 
L 704.411106 303.671029 
L 704.582661 310.349146 
L 704.748272 309.780773 
L 705.35165 310.299964 
L 705.516728 308.29569 
L 705.714254 310.394431 
L 705.751124 310.324419 
L 705.815482 307.340315 
L 705.92677 310.253106 
L 706.346936 310.344544 
L 706.394532 310.086155 
L 706.755561 309.95756 
L 706.856351 310.283529 
L 707.348151 309.654672 
L 707.385508 310.22402 
L 707.391266 310.098137 
L 707.792374 310.32357 
L 707.87122 309.523654 
L 708.466809 310.287916 
L 708.571882 309.988617 
L 708.629763 310.45812 
L 708.719788 309.951465 
L 708.740491 310.344794 
L 709.034542 310.151513 
L 709.2399 309.518516 
L 709.49632 310.254761 
L 709.658584 309.89456 
L 709.768843 310.286414 
L 709.88899 309.962285 
L 709.930925 310.343004 
L 709.952255 310.27595 
L 710.266145 309.885421 
L 710.437813 310.210834 
L 710.480381 309.429181 
L 710.808444 310.35651 
L 711.459039 310.138742 
L 711.495769 310.356652 
L 711.50143 310.120706 
L 711.79217 310.259411 
L 711.828127 310.015517 
L 712.305059 310.378659 
L 712.305781 310.317498 
L 712.559005 310.164964 
L 712.662332 310.321046 
L 712.946795 310.202796 
L 712.98821 310.023295 
L 713.318558 310.175975 
L 713.319277 309.289506 
L 713.674366 310.18302 
L 713.731052 310.01349 
L 713.957666 310.375542 
L 714.01989 310.307214 
L 714.579788 310.042683 
L 714.738729 310.242752 
L 714.826538 306.255248 
L 714.928921 310.18713 
L 715.026396 309.905651 
L 715.502058 309.761031 
L 715.538192 310.272879 
L 715.543761 309.999815 
L 715.829787 310.197286 
L 715.931758 309.850303 
L 716.028841 310.412163 
L 716.135575 310.258077 
L 716.334386 310.302123 
L 716.502596 310.094888 
L 716.538585 310.15206 
L 716.849047 310.282363 
L 717.006548 310.124356 
L 717.133583 310.173559 
L 717.737507 310.237504 
L 717.844222 310.372501 
L 717.859362 310.071059 
L 717.96051 310.187617 
L 718.325575 310.150557 
L 718.815597 309.852723 
L 718.916361 310.301249 
L 718.951303 309.952124 
L 719.314235 163.671083 
L 719.480463 310.168805 
L 719.52151 309.618956 
L 719.661615 228.395034 
L 719.822842 310.306354 
L 719.837864 309.996637 
L 719.978494 310.224298 
L 720.506213 309.894518 
L 720.700907 301.906786 
L 720.806378 309.993534 
L 721.086491 310.390427 
L 721.281438 310.232872 
L 721.282135 310.420492 
L 721.526445 310.125708 
L 721.626139 310.230634 
L 722.065164 310.178979 
L 722.42368 305.59612 
L 722.464254 310.349102 
L 722.657459 310.164427 
L 722.742555 310.382686 
L 722.776975 310.191803 
L 722.841776 310.323777 
L 722.936242 309.726164 
L 723.432281 310.123284 
L 723.437678 309.536626 
L 723.714926 310.02524 
L 723.734422 309.828744 
L 723.813772 310.200971 
L 723.907881 308.427789 
L 724.204772 309.080403 
L 724.446314 310.370634 
L 724.683634 310.352014 
L 724.816257 306.894964 
L 724.855769 309.825699 
L 724.978947 310.265311 
L 725.171646 310.174805 
L 725.820215 310.282438 
L 726.330731 310.261702 
L 726.741868 309.997997 
L 726.801035 310.123224 
L 727.093949 310.375399 
L 727.289722 309.919403 
L 727.43097 310.156039 
L 728.050141 309.663349 
L 728.050819 308.625153 
L 728.250497 310.131083 
L 728.385932 310.117683 
L 728.439434 309.914301 
L 728.54179 310.082898 
L 728.692266 309.777396 
L 729.240655 309.608622 
L 729.507187 310.248819 
L 729.763587 309.802476 
L 730.145763 309.92957 
L 730.189062 310.022065 
L 730.421217 310.244966 
L 730.454636 310.168497 
L 730.517552 309.835923 
L 730.609273 310.472152 
L 731.056916 309.851298 
L 731.096166 310.251242 
L 731.365396 309.744847 
L 731.461388 310.404029 
L 731.533191 308.812816 
L 731.552782 310.207578 
L 731.841118 310.459969 
L 732.032722 310.308866 
L 732.306221 307.411825 
L 732.325087 310.117387 
L 732.435043 309.987036 
L 732.780262 310.262221 
L 733.014031 309.575936 
L 733.339043 310.413903 
L 733.372096 310.194674 
L 733.410341 309.759596 
L 733.716104 310.466592 
L 733.911551 296.464308 
L 734.210899 309.756372 
L 734.272932 309.738817 
L 734.648019 310.236066 
L 734.843448 309.872225 
L 734.975557 310.273094 
L 735.141757 309.721859 
L 735.392784 309.912531 
L 735.577365 302.859427 
L 735.809365 310.341123 
L 735.903773 304.881413 
L 735.955782 310.437346 
L 736.055283 310.310555 
L 736.319564 309.805456 
L 736.503512 310.485263 
L 736.828801 310.325773 
L 736.880632 308.163173 
L 737.055258 310.335368 
L 737.581613 310.524937 
L 737.619919 307.39032 
L 737.65691 309.036193 
L 737.80233 310.199194 
L 738.065564 309.749951 
L 738.346338 310.21247 
L 738.500935 309.048044 
L 738.534013 310.018906 
L 738.800981 310.412679 
L 738.894352 310.344936 
L 738.964196 309.698627 
L 738.983253 310.462902 
L 739.263082 309.872863 
L 739.263733 310.341022 
L 739.585085 309.989019 
L 739.636393 310.313702 
L 739.716199 309.859436 
L 739.734554 310.048928 
L 739.841528 310.319924 
L 739.878868 309.830179 
L 740.177404 309.384762 
L 740.646655 309.833716 
L 740.753274 309.384853 
L 740.809419 309.959482 
L 741.088034 308.882496 
L 741.278237 310.39475 
L 741.629941 309.153329 
L 741.661998 309.778632 
L 741.717958 308.833474 
L 742.1802 310.058177 
L 742.185231 310.055167 
L 742.475603 308.994341 
L 742.719964 310.163741 
L 742.899651 310.115455 
L 743.08925 310.344348 
L 743.217421 309.823471 
L 743.622238 310.255452 
L 743.801981 309.154293 
L 744.026465 309.903631 
L 744.168549 309.837134 
L 744.370338 309.941439 
L 744.425753 308.899671 
L 744.521584 309.824907 
L 745.235628 309.998111 
L 745.746562 310.261464 
L 745.778782 310.111754 
L 746.03883 309.990576 
L 746.056769 310.066188 
L 746.197821 310.239383 
L 746.216385 310.439587 
L 746.671204 309.360612 
L 746.930425 310.075326 
L 747.088911 309.945502 
L 747.202332 309.099605 
L 747.379783 310.427204 
L 747.83702 309.793434 
L 747.850546 310.267316 
L 747.909573 309.439923 
L 747.940914 309.997032 
L 747.97718 310.283074 
L 748.267134 309.598746 
L 748.452494 310.262237 
L 748.705164 307.897544 
L 748.795259 310.200406 
L 748.881042 308.35474 
L 749.151072 310.033061 
L 749.331576 309.680471 
L 749.336479 303.396216 
L 749.46182 308.925933 
L 749.58836 305.337714 
L 749.745359 309.414453 
L 750.21771 300.302907 
L 750.253059 310.300245 
L 750.625322 309.429266 
L 750.737331 309.626847 
L 750.911952 305.228442 
L 751.131452 309.759577 
L 751.220779 297.510998 
L 751.466751 309.308162 
L 751.967153 309.157638 
L 752.007142 309.833061 
L 752.145256 289.987142 
L 752.310554 309.414758 
L 752.395283 310.120922 
L 752.661996 308.592345 
L 752.84513 308.987347 
L 752.968936 308.942239 
L 753.111425 309.947338 
L 753.679436 296.939409 
L 753.750513 309.514079 
L 753.887789 309.409284 
L 753.963638 310.188642 
L 753.981083 308.227895 
L 754.228898 309.885566 
L 754.402018 309.930537 
L 754.618242 309.826528 
L 754.861316 310.047107 
L 755.00287 309.704967 
L 755.267789 310.221657 
L 755.412715 309.593891 
L 755.725712 309.40045 
L 755.81362 307.227575 
L 755.866843 310.312649 
L 756.311301 310.296096 
L 756.557125 308.894912 
L 756.587532 309.577762 
L 756.820014 308.000361 
L 756.990979 309.601841 
L 756.99159 305.428632 
L 757.293349 310.068876 
L 757.534187 309.71888 
L 757.569257 309.753653 
L 757.849056 310.082194 
L 757.849665 303.905469 
L 758.150536 310.130334 
L 758.198578 309.791773 
L 758.303536 308.691952 
L 758.360448 310.005312 
L 758.534652 310.241128 
L 758.879218 309.809714 
L 759.053113 310.091032 
L 759.297241 309.01822 
L 759.701083 309.625194 
L 759.731769 305.645031 
L 759.979453 310.222272 
L 759.99654 309.535725 
L 760.130895 303.021615 
L 760.148578 308.007683 
L 760.239279 309.551823 
L 760.408255 310.322318 
L 760.408859 306.120631 
L 760.551251 310.069059 
L 760.707112 310.283501 
L 760.845855 308.743899 
L 761.468184 309.338266 
L 761.601869 310.230641 
L 761.692725 309.477224 
L 761.791744 309.899024 
L 761.826309 309.254537 
L 762.102678 309.850344 
L 762.520233 310.005673 
L 762.550028 301.861375 
L 762.63591 309.873667 
L 762.687907 308.170287 
L 763.087131 310.094677 
L 763.122143 309.814708 
L 763.362326 310.05628 
L 763.379219 306.890141 
L 763.512043 309.435241 
L 763.962533 310.262491 
L 763.996248 309.098462 
L 764.218882 309.997432 
L 764.458181 309.347785 
L 764.624765 310.491638 
L 764.62536 309.355082 
L 764.9194 310.05377 
L 765.154088 310.004468 
L 765.205646 308.796607 
L 765.294813 309.604405 
L 765.631592 309.162139 
L 765.636228 305.927375 
L 765.669755 309.078925 
L 765.903855 309.670867 
L 765.959322 304.722729 
L 766.294763 310.133029 
L 766.46495 309.244459 
L 766.469573 307.07767 
L 766.587757 310.022009 
L 766.872414 307.965316 
L 767.266084 309.931286 
L 767.295999 308.110467 
L 767.333951 309.762543 
L 767.418467 308.377944 
L 767.46503 309.730316 
L 767.537459 308.908476 
L 767.554117 294.441026 
L 767.790766 309.734887 
L 767.956097 309.644432 
L 768.293325 308.342464 
L 768.394773 281.124696 
L 768.512791 309.9289 
L 768.921495 309.434946 
L 768.951246 307.247643 
L 768.955831 308.54862 
L 769.304513 309.949179 
L 769.745811 309.570714 
L 769.775482 309.610021 
L 770.014968 309.163301 
L 770.044027 309.882869 
L 770.42961 309.76338 
L 770.430194 309.801921 
L 770.602043 309.948585 
L 770.982364 309.47769 
L 771.250429 309.830783 
L 771.454707 308.617588 
L 771.684369 310.016545 
L 771.738786 308.853576 
L 771.767681 309.634213 
L 771.818122 309.722158 
L 771.905358 308.951312 
L 772.272193 310.141107 
L 772.472416 308.212194 
L 772.555514 309.547839 
L 772.634638 307.899385 
L 773.020907 309.185024 
L 773.054784 309.310026 
L 773.303536 224.364853 
L 773.370067 306.776251 
L 773.535754 309.317452 
L 774.099806 309.109966 
L 774.509525 309.932672 
L 774.711642 309.563363 
L 774.926541 310.504032 
L 775.054394 305.459408 
L 775.318924 308.848729 
L 775.747154 304.339653 
L 775.800856 309.567853 
L 776.294896 309.151076 
L 776.541048 310.059413 
L 776.553322 309.909852 
L 776.668236 308.742402 
L 776.930819 309.961723 
L 777.213783 309.569155 
L 777.472016 309.676805 
L 777.574358 309.462776 
L 777.733921 310.37143 
L 777.734491 309.509615 
L 778.016155 309.853696 
L 778.061134 309.517765 
L 778.290377 308.939204 
L 778.698469 236.295889 
L 778.702911 309.789732 
L 778.735035 300.835551 
L 778.959345 308.92578 
L 779.012496 304.169886 
L 779.089986 309.27627 
L 779.333938 310.014621 
L 779.468287 309.840894 
L 779.501466 309.477515 
L 779.614731 310.223341 
L 779.729088 310.01928 
L 779.887554 307.31696 
L 780.130886 310.12272 
L 780.131452 308.8754 
L 780.264893 308.328657 
L 780.293568 310.145705 
L 780.329948 309.120136 
L 780.455601 310.254284 
L 780.541002 298.893804 
L 780.66657 305.949656 
L 781.124373 309.641616 
L 781.249708 309.450934 
L 781.427736 309.926167 
L 781.476631 308.397694 
L 781.880599 309.925649 
L 782.19146 307.906858 
L 782.219398 309.420436 
L 782.26817 309.263539 
L 782.509669 309.778664 
L 782.642667 309.733494 
L 782.675513 310.083284 
L 782.787642 309.864896 
L 782.928728 301.375525 
L 783.620098 309.915425 
L 783.704647 308.758034 
L 783.929255 310.189294 
L 784.085625 309.909517 
L 784.282209 303.738394 
L 784.362219 309.616155 
L 784.502607 308.417798 
L 784.554831 289.8595 
L 784.582561 309.786375 
L 784.714693 307.628546 
L 785.002689 309.22453 
L 785.258963 309.640768 
L 785.286632 309.847889 
L 785.41468 309.472629 
L 785.813666 299.273451 
L 785.818009 309.536379 
L 786.120701 309.34642 
L 786.279781 309.839969 
L 786.435002 309.871735 
L 786.435557 307.865225 
L 786.59448 309.850044 
L 786.709567 309.76414 
L 786.928294 308.009761 
L 787.059459 309.784224 
L 787.214856 310.071728 
L 787.531852 309.676041 
L 787.615371 306.8785 
L 787.678937 310.080565 
L 787.738174 294.862574 
L 788.154732 301.138847 
L 788.376234 309.35197 
L 788.403636 305.066687 
L 788.482621 309.212207 
L 788.530444 306.959302 
L 788.76725 310.19712 
L 788.897667 308.763033 
L 789.039829 310.001559 
L 789.166388 306.649704 
L 789.288601 309.638108 
L 789.387197 308.03454 
L 789.70316 308.85568 
L 789.939107 310.020439 
L 790.061028 309.770972 
L 790.505555 309.276826 
L 790.847624 307.628452 
L 790.929742 309.6588 
L 791.212226 310.127699 
L 791.275088 282.357514 
L 791.541844 306.323238 
L 791.850906 309.907508 
L 792.120904 309.710696 
L 792.230871 309.948287 
L 792.367323 308.97437 
L 792.383257 307.201577 
L 792.617809 310.116195 
L 792.77372 309.652046 
L 792.808708 310.126822 
L 792.929557 309.865455 
L 793.011695 306.780837 
L 793.101218 310.145272 
L 793.229905 308.061688 
L 793.382368 309.583712 
L 793.572822 309.664298 
L 793.895827 309.997981 
L 793.911686 309.648141 
L 794.145143 309.522542 
L 794.272879 308.90308 
L 794.300329 307.382296 
L 794.304559 309.159541 
L 794.548797 309.26896 
L 794.599421 309.848479 
L 795.060973 309.785913 
L 795.065193 310.11983 
L 795.28204 308.367939 
L 795.308866 288.611527 
L 795.513986 310.08254 
L 795.854524 309.490667 
L 796.144331 304.874479 
L 796.175293 308.442856 
L 796.422349 309.726427 
L 796.422887 306.444945 
L 796.688609 309.712817 
L 796.823757 309.928693 
L 797.486101 310.121066 
L 797.551961 308.339625 
L 797.578603 309.869285 
L 797.701899 309.687872 
L 798.086099 307.848276 
L 798.439106 310.104914 
L 798.454747 309.382343 
L 798.534984 301.42162 
L 798.684478 309.843618 
L 798.811002 309.988438 
L 798.948925 309.774755 
L 799.056633 307.188685 
L 799.071713 308.601571 
L 799.435638 310.001413 
L 799.62263 307.901334 
L 799.741008 309.678285 
L 799.821467 302.912138 
L 799.832884 309.834846 
L 799.882706 308.709083 
L 800.341106 310.37468 
L 800.554528 305.900912 
L 800.703118 309.582594 
L 801.056978 308.967861 
L 801.088016 307.78633 
L 801.327305 309.472757 
L 801.433719 303.540062 
L 801.676898 309.450375 
L 801.833263 309.707689 
L 801.86317 310.122315 
L 801.938986 308.91496 
L 802.06068 310.192918 
L 802.420838 308.444412 
L 802.421366 309.031415 
L 802.682346 307.938999 
L 802.724024 309.249745 
L 802.890687 307.773479 
L 803.01563 308.661956 
L 803.318808 309.908351 
L 803.556513 307.434624 
L 803.605784 308.54394 
L 804.028364 310.071759 
L 804.059128 307.806592 
L 804.285047 309.774575 
L 804.417157 309.617119 
L 804.642836 308.972384 
L 804.643361 310.198799 
L 804.79373 307.322147 
L 804.827475 308.441876 
L 804.902626 308.456625 
L 805.00844 309.690243 
L 805.233725 308.180587 
L 805.680805 306.222409 
L 805.846015 309.888289 
L 805.876092 308.564872 
L 805.891391 309.103267 
L 806.116613 308.957587 
L 806.26633 309.75993 
L 806.580834 309.654205 
L 806.626112 308.516773 
L 806.850326 309.3715 
L 806.973816 306.188765 
L 807.000241 310.077929 
L 807.108433 309.808086 
L 807.213562 309.963618 
L 807.582981 309.645853 
L 807.583501 301.104035 
L 807.881583 309.534656 
L 807.960124 308.358118 
L 808.168785 310.029315 
L 808.571068 308.120734 
L 808.701523 309.684775 
L 808.775824 309.178151 
L 808.898619 309.756182 
L 809.166288 307.646195 
L 809.192545 309.78891 
L 809.225857 308.612827 
L 809.340919 307.82932 
L 809.47865 309.014656 
L 809.549258 308.814208 
L 809.894002 309.586938 
L 809.924241 308.930466 
L 810.146303 309.180687 
L 810.205702 306.052178 
L 810.646322 309.301436 
L 810.857383 309.480448 
L 810.956826 306.692159 
L 810.986457 309.876109 
L 811.078844 309.489563 
L 811.223412 309.825069 
L 811.404013 309.111559 
L 811.655211 310.351222 
L 811.680764 309.3568 
L 811.710333 309.51824 
L 812.30416 309.778913 
L 812.377687 309.864765 
L 812.403187 309.589616 
L 812.815543 309.617784 
L 813.025283 306.974825 
L 813.050735 309.308141 
L 813.245359 307.922554 
L 813.388513 309.858496 
L 813.539599 296.25384 
L 813.641758 309.349789 
L 813.872909 309.151327 
L 814.107386 310.170377 
L 814.107897 310.144818 
L 814.287 309.58866 
L 814.360108 309.97718 
L 814.400387 308.872802 
L 814.536116 309.780848 
L 814.682212 309.056078 
L 814.97126 309.575853 
L 814.97524 301.580843 
L 815.004019 309.913061 
L 815.117174 309.911392 
L 815.204998 309.105173 
L 815.322063 309.312758 
L 815.54069 310.019069 
L 815.661106 309.141182 
L 815.792375 310.036374 
L 815.894891 309.028822 
L 815.967662 309.202799 
L 816.022104 309.238374 
L 816.036959 306.649176 
L 816.37531 310.126367 
L 816.506311 309.650277 
L 816.546343 310.056503 
L 816.735571 309.921186 
L 817.146281 309.961372 
L 817.258744 309.201577 
L 817.335186 309.825865 
L 817.418503 309.702911 
L 817.447588 308.346064 
L 817.462383 309.908904 
L 817.680183 309.447817 
L 817.79936 309.980276 
L 817.824972 309.909318 
L 818.104052 309.742143 
L 818.172928 310.136439 
L 818.509225 309.174404 
L 818.538724 310.046294 
L 819.098964 309.930057 
L 819.247101 309.26102 
L 819.275533 309.51706 
L 819.546113 309.8613 
L 819.805715 309.594466 
L 819.806217 305.531454 
L 819.982433 309.715545 
L 820.054363 309.21481 
L 820.252472 309.417294 
L 820.296 309.23063 
L 820.371284 309.914927 
L 820.687922 309.287781 
L 820.79926 308.791557 
L 820.885677 309.818392 
L 821.363747 310.174023 
L 821.564531 309.913453 
L 821.704331 308.749575 
L 821.779317 309.806796 
L 822.037288 309.326363 
L 822.062594 309.705303 
L 822.266882 308.417678 
L 822.280978 309.340157 
L 822.391818 309.138214 
L 822.621184 309.646012 
L 822.981917 310.241872 
L 823.09254 309.172011 
L 823.667442 310.024985 
L 823.692135 309.367624 
L 823.763319 309.795032 
L 823.806419 309.808786 
L 824.162576 309.555712 
L 824.365665 310.10056 
L 824.390311 309.954481 
L 824.489869 309.911007 
L 824.863705 310.102357 
L 825.186491 309.702118 
L 825.896211 309.061264 
L 825.970322 309.493893 
L 826.254154 310.001072 
L 826.282032 307.28632 
L 826.45221 309.315193 
L 826.943519 309.140718 
L 826.947367 307.248038 
L 827.045726 309.473214 
L 827.158947 310.115119 
L 827.215544 309.687085 
L 827.494064 309.568901 
L 827.635409 310.323817 
L 827.66702 309.998667 
L 827.836546 308.93626 
L 827.850424 309.380589 
L 828.185391 310.158465 
L 828.357526 309.554018 
L 828.466505 307.986231 
L 828.663841 309.692054 
L 828.874909 309.593978 
L 828.990405 310.130311 
L 829.239914 310.131906 
L 829.285697 308.874667 
L 829.678395 307.747494 
L 829.703168 309.660004 
L 829.706987 309.570165 
L 829.903161 310.00777 
L 829.927431 307.022871 
L 830.250024 310.326159 
L 830.491049 309.420327 
L 830.68348 309.939302 
L 830.935635 309.63145 
L 831.298578 309.587574 
L 831.368277 309.155563 
L 831.759221 310.125368 
L 831.790475 309.759469 
L 832.027662 309.228953 
L 832.417417 309.936129 
L 832.442005 309.713879 
L 832.709945 310.077878 
L 832.848793 309.958022 
L 832.984289 310.280133 
L 832.984773 309.589142 
L 833.123517 309.528375 
L 833.335315 310.15819 
L 833.52955 309.481695 
L 833.942199 310.157672 
L 834.01517 308.155547 
L 834.094706 310.033186 
L 834.344523 308.694125 
L 834.68015 310.20106 
L 834.814972 308.745698 
L 835.136086 310.138701 
L 835.164255 310.094479 
L 835.371121 309.114226 
L 835.478029 310.028002 
L 836.153943 309.754026 
L 836.240041 309.493456 
L 836.374294 308.134888 
L 836.374774 309.882969 
L 836.61181 308.026999 
L 836.801061 309.946179 
L 837.190016 310.33514 
L 837.323447 308.10371 
L 837.450788 310.006328 
L 837.516072 309.29683 
L 837.85908 310.230602 
L 837.862814 309.712244 
L 838.123114 309.613614 
L 838.188279 310.102507 
L 838.393464 309.907234 
L 838.393941 309.37971 
L 838.506481 308.878986 
L 838.530667 307.874397 
L 838.561352 310.1306 
L 838.629691 309.75303 
L 838.725917 310.124162 
L 838.845329 308.716079 
L 838.930805 309.953652 
L 839.231675 309.753948 
L 839.337475 309.543238 
L 839.409391 309.818963 
L 839.870219 308.899215 
L 839.873933 309.691091 
L 840.197647 309.936759 
L 840.538195 309.759759 
L 840.732397 309.113579 
L 841.069231 310.19432 
L 841.208682 308.968361 
L 841.517398 309.6232 
L 841.900994 308.871218 
L 842.155276 310.039663 
L 842.196267 309.646439 
L 842.267162 309.771787 
L 842.751618 309.559491 
L 842.795758 310.162471 
L 842.860114 310.100056 
L 843.201937 309.818812 
L 843.391087 309.417555 
L 843.45855 307.115108 
L 843.522793 309.68848 
L 843.860341 309.756337 
L 844.052833 309.645134 
L 844.254832 310.095318 
L 844.551465 309.858953 
L 844.78065 308.680977 
L 844.830945 309.32183 
L 845.046713 310.150685 
L 845.1847 309.62086 
L 845.396138 307.100378 
L 845.43997 309.47031 
L 845.705103 309.672778 
L 845.936778 309.247426 
L 846.03115 309.714684 
L 846.044363 309.513902 
L 846.362818 307.244761 
L 846.362818 307.244761 
" clip-path="url(#p034224e0b3)" style="fill: none; stroke: #1f77b4; stroke-width: 1.5; stroke-linecap: square"/>
   </g>
   <g id="line2d_35">
    <path d="M 466.5325 308.804701 
L 846.3125 308.804701 
" clip-path="url(#p034224e0b3)" style="fill: none; stroke-dasharray: 5.55,2.4; stroke-dashoffset: 0; stroke: #000000; stroke-opacity: 0.4; stroke-width: 1.5"/>
   </g>
   <g id="patch_8">
    <path d="M 466.5325 310.6 
L 466.5325 22.32 
" style="fill: none; stroke: #000000; stroke-width: 0.8; stroke-linejoin: miter; stroke-linecap: square"/>
   </g>
   <g id="patch_9">
    <path d="M 846.3125 310.6 
L 846.3125 22.32 
" style="fill: none; stroke: #000000; stroke-width: 0.8; stroke-linejoin: miter; stroke-linecap: square"/>
   </g>
   <g id="patch_10">
    <path d="M 466.5325 310.6 
L 846.3125 310.6 
" style="fill: none; stroke: #000000; stroke-width: 0.8; stroke-linejoin: miter; stroke-linecap: square"/>
   </g>
   <g id="patch_11">
    <path d="M 466.5325 22.32 
L 846.3125 22.32 
" style="fill: none; stroke: #000000; stroke-width: 0.8; stroke-linejoin: miter; stroke-linecap: square"/>
   </g>
   <g id="text_37">
    <!-- SLAB - 3D $S(k)$ -->
    <g transform="translate(612.9825 16.32) scale(0.12 -0.12)">
     <use xlink:href="#DejaVuSans-53" transform="translate(0 0.015625)"/>
     <use xlink:href="#DejaVuSans-4c" transform="translate(63.476562 0.015625)"/>
     <use xlink:href="#DejaVuSans-41" transform="translate(119.189453 0.015625)"/>
     <use xlink:href="#DejaVuSans-42" transform="translate(187.597656 0.015625)"/>
     <use xlink:href="#DejaVuSans-20" transform="translate(256.201172 0.015625)"/>
     <use xlink:href="#DejaVuSans-2d" transform="translate(287.988281 0.015625)"/>
     <use xlink:href="#DejaVuSans-20" transform="translate(324.072266 0.015625)"/>
     <use xlink:href="#DejaVuSans-33" transform="translate(355.859375 0.015625)"/>
     <use xlink:href="#DejaVuSans-44" transform="translate(414.982422 0.015625)"/>
     <use xlink:href="#DejaVuSans-20" transform="translate(491.984375 0.015625)"/>
     <use xlink:href="#DejaVuSans-Oblique-53" transform="translate(523.771484 0.015625)"/>
     <use xlink:href="#DejaVuSans-28" transform="translate(587.248047 0.015625)"/>
     <use xlink:href="#DejaVuSans-Oblique-6b" transform="translate(626.261719 0.015625)"/>
     <use xlink:href="#DejaVuSans-29" transform="translate(684.171875 0.015625)"/>
    </g>
   </g>
  </g>
 </g>
 <defs>
  <clipPath id="p8db1194d58">
   <rect x="34.2625" y="22.32" width="379.78" height="288.28"/>
  </clipPath>
  <clipPath id="p034224e0b3">
   <rect x="466.5325" y="22.32" width="379.78" height="288.28"/>
  </clipPath>
 </defs>
</svg>
