<?xml version="1.0" encoding="utf-8" standalone="no"?>
<!DOCTYPE svg PUBLIC "-//W3C//DTD SVG 1.1//EN"
  "http://www.w3.org/Graphics/SVG/1.1/DTD/svg11.dtd">
<svg xmlns:xlink="http://www.w3.org/1999/xlink" width="405.20125pt" height="311.190125pt" viewBox="0 0 405.20125 311.190125" xmlns="http://www.w3.org/2000/svg" version="1.1">
 <metadata>
  <rdf:RDF xmlns:dc="http://purl.org/dc/elements/1.1/" xmlns:cc="http://creativecommons.org/ns#" xmlns:rdf="http://www.w3.org/1999/02/22-rdf-syntax-ns#">
   <cc:Work>
    <dc:type rdf:resource="http://purl.org/dc/dcmitype/StillImage"/>
    <dc:date>2025-12-10T20:17:07.243173</dc:date>
    <dc:format>image/svg+xml</dc:format>
    <dc:creator>
     <cc:Agent>
      <dc:title>Matplotlib v3.10.5, https://matplotlib.org/</dc:title>
     </cc:Agent>
    </dc:creator>
   </cc:Work>
  </rdf:RDF>
 </metadata>
 <defs>
  <style type="text/css">*{stroke-linejoin: round; stroke-linecap: butt}</style>
 </defs>
 <g id="figure_1">
  <g id="patch_1">
   <path d="M 0 311.190125 
L 405.20125 311.190125 
L 405.20125 0 
L 0 0 
z
" style="fill: #ffffff"/>
  </g>
  <g id="axes_1">
   <g id="patch_2">
    <path d="M 40.88125 273.312 
L 398.00125 273.312 
L 398.00125 7.2 
L 40.88125 7.2 
z
" style="fill: #ffffff"/>
   </g>
   <g id="FillBetweenPolyCollection_1">
    <defs>
     <path id="m191ebff234" d="M 5.267691 -49.859139 
L 5.267691 -47.581146 
L 13.315676 -53.508152 
L 24.697246 -61.250697 
L 29.283942 -48.401577 
L 40.793217 -62.827617 
L 44.126802 -47.740588 
L 47.279785 -49.412947 
L 55.892394 -50.300287 
L 63.556358 -47.33405 
L 65.948245 -46.121892 
L 68.270758 -82.441418 
L 72.729749 -49.921845 
L 82.985913 -50.567953 
L 84.909818 -47.833588 
L 90.469494 -49.877056 
L 95.748299 -59.561179 
L 99.130939 -104.984385 
L 102.415469 -50.812718 
L 104.023508 -48.182819 
L 108.721434 -64.925529 
L 110.247993 -54.759545 
L 116.175556 -53.689828 
L 121.845024 -50.561165 
L 123.22584 -90.406303 
L 125.946653 -50.531551 
L 127.287435 -51.086066 
L 133.809222 -54.258481 
L 137.587815 -54.349699 
L 141.27458 -253.186814 
L 142.48422 -51.837952 
L 146.058355 -63.640677 
L 150.703381 -68.554732 
L 151.844331 -50.983925 
L 152.977492 -52.308592 
L 159.621363 -49.718795 
L 160.704135 -52.165651 
L 161.780244 -54.220461 
L 164.969787 -51.346012 
L 169.136196 -49.670569 
L 170.163084 -49.73713 
L 177.197065 -47.746645 
L 178.180922 -84.384998 
L 180.133691 -57.926349 
L 181.102752 -53.839321 
L 183.981501 -58.429348 
L 185.877653 -49.156561 
L 188.688651 -51.13434 
L 192.377144 -53.891532 
L 195.100853 -52.13328 
L 196.000912 -50.180463 
L 199.563246 -52.433423 
L 200.444591 -53.862239 
L 203.06717 -51.431089 
L 205.658463 -174.808761 
L 207.369153 -58.484754 
L 212.423743 -57.99773 
L 213.255252 -52.507907 
L 218.992802 -51.616121 
L 219.800966 -55.499051 
L 220.606348 -66.132062 
L 222.20888 -57.081188 
L 223.006086 -54.601851 
L 226.168465 -57.16603 
L 229.289769 -54.715776 
L 231.604733 -75.386929 
L 233.136004 -64.743015 
L 234.657852 -66.307576 
L 238.422357 -55.693943 
L 239.168546 -54.179355 
L 241.394039 -54.41682 
L 245.060739 -91.042203 
L 246.512977 -54.634098 
L 247.236071 -55.517049 
L 250.108662 -58.350108 
L 255.762148 -51.756088 
L 256.460529 -104.725544 
L 257.851913 -51.444848 
L 258.544943 -52.098992 
L 260.613545 -61.369619 
L 261.984005 -54.871294 
L 264.027035 -60.552263 
L 266.055171 -53.6708 
L 268.736734 -64.641953 
L 272.712085 -56.902631 
L 274.679244 -58.453974 
L 277.281469 -53.737396 
L 277.928403 -68.913041 
L 279.860664 -57.518411 
L 281.780309 -65.847666 
L 282.417429 -52.893278 
L 283.053184 -61.14208 
L 287.46595 -56.936451 
L 288.091086 -55.392328 
L 289.337495 -57.367757 
L 289.958784 -54.922524 
L 293.046383 -55.512521 
L 299.130305 -53.57908 
L 299.732212 -59.475228 
L 302.128384 -57.107966 
L 304.50654 -52.268036 
L 307.454507 -73.979246 
L 309.210387 -52.676832 
L 315.568627 -78.18401 
L 316.14058 -55.700406 
L 316.711544 -64.329607 
L 320.116849 -55.404228 
L 325.716547 -58.205721 
L 329.582063 -60.312412 
L 331.771537 -58.390844 
L 336.109429 -57.155672 
L 343.046168 -83.549291 
L 344.101438 -61.960742 
L 347.24876 -60.923178 
L 357.039273 -65.821678 
L 359.06771 -57.821308 
L 370.523709 -63.99574 
L 371.503801 -59.538588 
L 384.499285 -59.790022 
L 398.00125 -65.00645 
L 398.00125 -67.354918 
L 398.00125 -67.354918 
L 384.499285 -62.957022 
L 371.503801 -63.250747 
L 370.523709 -67.38216 
L 359.06771 -59.831375 
L 357.039273 -70.514718 
L 347.24876 -62.470721 
L 344.101438 -69.84158 
L 343.046168 -91.5819 
L 336.109429 -58.9326 
L 331.771537 -63.854806 
L 329.582063 -62.471728 
L 325.716547 -61.189719 
L 320.116849 -56.594003 
L 316.711544 -66.415396 
L 316.14058 -58.108251 
L 315.568627 -90.751939 
L 309.210387 -54.50702 
L 307.454507 -76.339444 
L 304.50654 -53.918638 
L 302.128384 -61.056766 
L 299.732212 -62.811826 
L 299.130305 -54.653126 
L 293.046383 -57.083088 
L 289.958784 -58.00987 
L 289.337495 -58.935893 
L 288.091086 -59.993439 
L 287.46595 -58.623716 
L 283.053184 -63.103549 
L 282.417429 -54.202917 
L 281.780309 -68.560961 
L 279.860664 -59.529543 
L 277.928403 -70.618271 
L 277.281469 -55.223949 
L 274.679244 -62.161458 
L 272.712085 -58.858728 
L 268.736734 -77.296354 
L 266.055171 -56.648583 
L 264.027035 -64.87725 
L 261.984005 -56.434702 
L 260.613545 -63.441163 
L 258.544943 -54.50995 
L 257.851913 -53.198277 
L 256.460529 -119.328098 
L 255.762148 -53.583664 
L 250.108662 -62.875962 
L 247.236071 -59.448476 
L 246.512977 -57.101482 
L 245.060739 -99.968711 
L 241.394039 -56.735091 
L 239.168546 -55.487455 
L 238.422357 -57.062471 
L 234.657852 -74.330091 
L 233.136004 -75.315004 
L 231.604733 -87.274733 
L 229.289769 -59.653323 
L 226.168465 -60.143971 
L 223.006086 -56.379619 
L 222.20888 -58.522543 
L 220.606348 -68.209084 
L 219.800966 -59.816066 
L 218.992802 -54.337257 
L 213.255252 -58.137117 
L 212.423743 -59.076089 
L 207.369153 -60.457349 
L 205.658463 -194.964029 
L 203.06717 -53.572494 
L 200.444591 -56.101937 
L 199.563246 -55.745528 
L 196.000912 -51.488784 
L 195.100853 -53.704072 
L 192.377144 -57.973109 
L 188.688651 -52.916359 
L 185.877653 -49.741412 
L 183.981501 -62.309257 
L 181.102752 -56.15014 
L 180.133691 -61.318712 
L 178.180922 -88.459334 
L 177.197065 -49.908677 
L 170.163084 -51.019401 
L 169.136196 -50.895546 
L 164.969787 -54.099632 
L 161.780244 -55.335206 
L 160.704135 -55.377909 
L 159.621363 -51.809071 
L 152.977492 -53.722322 
L 151.844331 -52.577976 
L 150.703381 -75.021382 
L 146.058355 -69.350376 
L 142.48422 -57.140405 
L 141.27458 -279.798125 
L 137.587815 -57.558334 
L 133.809222 -55.975069 
L 127.287435 -53.49601 
L 125.946653 -53.324267 
L 123.22584 -99.065184 
L 121.845024 -51.644062 
L 116.175556 -57.387699 
L 110.247993 -60.958773 
L 108.721434 -68.585189 
L 104.023508 -49.796363 
L 102.415469 -51.808774 
L 99.130939 -114.810363 
L 95.748299 -64.594329 
L 90.469494 -51.230741 
L 84.909818 -48.956173 
L 82.985913 -54.215804 
L 72.729749 -52.131403 
L 68.270758 -87.355629 
L 65.948245 -47.211728 
L 63.556358 -47.845812 
L 55.892394 -52.875016 
L 47.279785 -52.14723 
L 44.126802 -49.786718 
L 40.793217 -65.479452 
L 29.283942 -50.634512 
L 24.697246 -66.718859 
L 13.315676 -57.344338 
L 5.267691 -49.859139 
z
" style="stroke: #ff7f0e; stroke-opacity: 0.3"/>
    </defs>
    <g clip-path="url(#pc2e727cccb)">
     <use xlink:href="#m191ebff234" x="0" y="311.190125" style="fill: #ff7f0e; fill-opacity: 0.3; stroke: #ff7f0e; stroke-opacity: 0.3"/>
    </g>
   </g>
   <g id="matplotlib.axis_1">
    <g id="xtick_1">
     <g id="line2d_1">
      <defs>
       <path id="m703476b792" d="M 0 0 
L 0 3.5 
" style="stroke: #000000; stroke-width: 0.8"/>
      </defs>
      <g>
       <use xlink:href="#m703476b792" x="73.907119" y="273.312" style="stroke: #000000; stroke-width: 0.8"/>
      </g>
     </g>
     <g id="text_1">
      <!-- 4 -->
      <g transform="translate(70.725869 287.910437) scale(0.1 -0.1)">
       <defs>
        <path id="DejaVuSans-34" d="M 2419 4116 
L 825 1625 
L 2419 1625 
L 2419 4116 
z
M 2253 4666 
L 3047 4666 
L 3047 1625 
L 3713 1625 
L 3713 1100 
L 3047 1100 
L 3047 0 
L 2419 0 
L 2419 1100 
L 313 1100 
L 313 1709 
L 2253 4666 
z
" transform="scale(0.015625)"/>
       </defs>
       <use xlink:href="#DejaVuSans-34"/>
      </g>
     </g>
    </g>
    <g id="xtick_2">
     <g id="line2d_2">
      <g>
       <use xlink:href="#m703476b792" x="117.94161" y="273.312" style="stroke: #000000; stroke-width: 0.8"/>
      </g>
     </g>
     <g id="text_2">
      <!-- 6 -->
      <g transform="translate(114.76036 287.910437) scale(0.1 -0.1)">
       <defs>
        <path id="DejaVuSans-36" d="M 2113 2584 
Q 1688 2584 1439 2293 
Q 1191 2003 1191 1497 
Q 1191 994 1439 701 
Q 1688 409 2113 409 
Q 2538 409 2786 701 
Q 3034 994 3034 1497 
Q 3034 2003 2786 2293 
Q 2538 2584 2113 2584 
z
M 3366 4563 
L 3366 3988 
Q 3128 4100 2886 4159 
Q 2644 4219 2406 4219 
Q 1781 4219 1451 3797 
Q 1122 3375 1075 2522 
Q 1259 2794 1537 2939 
Q 1816 3084 2150 3084 
Q 2853 3084 3261 2657 
Q 3669 2231 3669 1497 
Q 3669 778 3244 343 
Q 2819 -91 2113 -91 
Q 1303 -91 875 529 
Q 447 1150 447 2328 
Q 447 3434 972 4092 
Q 1497 4750 2381 4750 
Q 2619 4750 2861 4703 
Q 3103 4656 3366 4563 
z
" transform="scale(0.015625)"/>
       </defs>
       <use xlink:href="#DejaVuSans-36"/>
      </g>
     </g>
    </g>
    <g id="xtick_3">
     <g id="line2d_3">
      <g>
       <use xlink:href="#m703476b792" x="161.976102" y="273.312" style="stroke: #000000; stroke-width: 0.8"/>
      </g>
     </g>
     <g id="text_3">
      <!-- 8 -->
      <g transform="translate(158.794852 287.910437) scale(0.1 -0.1)">
       <defs>
        <path id="DejaVuSans-38" d="M 2034 2216 
Q 1584 2216 1326 1975 
Q 1069 1734 1069 1313 
Q 1069 891 1326 650 
Q 1584 409 2034 409 
Q 2484 409 2743 651 
Q 3003 894 3003 1313 
Q 3003 1734 2745 1975 
Q 2488 2216 2034 2216 
z
M 1403 2484 
Q 997 2584 770 2862 
Q 544 3141 544 3541 
Q 544 4100 942 4425 
Q 1341 4750 2034 4750 
Q 2731 4750 3128 4425 
Q 3525 4100 3525 3541 
Q 3525 3141 3298 2862 
Q 3072 2584 2669 2484 
Q 3125 2378 3379 2068 
Q 3634 1759 3634 1313 
Q 3634 634 3220 271 
Q 2806 -91 2034 -91 
Q 1263 -91 848 271 
Q 434 634 434 1313 
Q 434 1759 690 2068 
Q 947 2378 1403 2484 
z
M 1172 3481 
Q 1172 3119 1398 2916 
Q 1625 2713 2034 2713 
Q 2441 2713 2670 2916 
Q 2900 3119 2900 3481 
Q 2900 3844 2670 4047 
Q 2441 4250 2034 4250 
Q 1625 4250 1398 4047 
Q 1172 3844 1172 3481 
z
" transform="scale(0.015625)"/>
       </defs>
       <use xlink:href="#DejaVuSans-38"/>
      </g>
     </g>
    </g>
    <g id="xtick_4">
     <g id="line2d_4">
      <g>
       <use xlink:href="#m703476b792" x="206.010594" y="273.312" style="stroke: #000000; stroke-width: 0.8"/>
      </g>
     </g>
     <g id="text_4">
      <!-- 10 -->
      <g transform="translate(199.648094 287.910437) scale(0.1 -0.1)">
       <defs>
        <path id="DejaVuSans-31" d="M 794 531 
L 1825 531 
L 1825 4091 
L 703 3866 
L 703 4441 
L 1819 4666 
L 2450 4666 
L 2450 531 
L 3481 531 
L 3481 0 
L 794 0 
L 794 531 
z
" transform="scale(0.015625)"/>
        <path id="DejaVuSans-30" d="M 2034 4250 
Q 1547 4250 1301 3770 
Q 1056 3291 1056 2328 
Q 1056 1369 1301 889 
Q 1547 409 2034 409 
Q 2525 409 2770 889 
Q 3016 1369 3016 2328 
Q 3016 3291 2770 3770 
Q 2525 4250 2034 4250 
z
M 2034 4750 
Q 2819 4750 3233 4129 
Q 3647 3509 3647 2328 
Q 3647 1150 3233 529 
Q 2819 -91 2034 -91 
Q 1250 -91 836 529 
Q 422 1150 422 2328 
Q 422 3509 836 4129 
Q 1250 4750 2034 4750 
z
" transform="scale(0.015625)"/>
       </defs>
       <use xlink:href="#DejaVuSans-31"/>
       <use xlink:href="#DejaVuSans-30" transform="translate(63.623047 0)"/>
      </g>
     </g>
    </g>
    <g id="xtick_5">
     <g id="line2d_5">
      <g>
       <use xlink:href="#m703476b792" x="250.045085" y="273.312" style="stroke: #000000; stroke-width: 0.8"/>
      </g>
     </g>
     <g id="text_5">
      <!-- 12 -->
      <g transform="translate(243.682585 287.910437) scale(0.1 -0.1)">
       <defs>
        <path id="DejaVuSans-32" d="M 1228 531 
L 3431 531 
L 3431 0 
L 469 0 
L 469 531 
Q 828 903 1448 1529 
Q 2069 2156 2228 2338 
Q 2531 2678 2651 2914 
Q 2772 3150 2772 3378 
Q 2772 3750 2511 3984 
Q 2250 4219 1831 4219 
Q 1534 4219 1204 4116 
Q 875 4013 500 3803 
L 500 4441 
Q 881 4594 1212 4672 
Q 1544 4750 1819 4750 
Q 2544 4750 2975 4387 
Q 3406 4025 3406 3419 
Q 3406 3131 3298 2873 
Q 3191 2616 2906 2266 
Q 2828 2175 2409 1742 
Q 1991 1309 1228 531 
z
" transform="scale(0.015625)"/>
       </defs>
       <use xlink:href="#DejaVuSans-31"/>
       <use xlink:href="#DejaVuSans-32" transform="translate(63.623047 0)"/>
      </g>
     </g>
    </g>
    <g id="xtick_6">
     <g id="line2d_6">
      <g>
       <use xlink:href="#m703476b792" x="294.079577" y="273.312" style="stroke: #000000; stroke-width: 0.8"/>
      </g>
     </g>
     <g id="text_6">
      <!-- 14 -->
      <g transform="translate(287.717077 287.910437) scale(0.1 -0.1)">
       <use xlink:href="#DejaVuSans-31"/>
       <use xlink:href="#DejaVuSans-34" transform="translate(63.623047 0)"/>
      </g>
     </g>
    </g>
    <g id="xtick_7">
     <g id="line2d_7">
      <g>
       <use xlink:href="#m703476b792" x="338.114069" y="273.312" style="stroke: #000000; stroke-width: 0.8"/>
      </g>
     </g>
     <g id="text_7">
      <!-- 16 -->
      <g transform="translate(331.751569 287.910437) scale(0.1 -0.1)">
       <use xlink:href="#DejaVuSans-31"/>
       <use xlink:href="#DejaVuSans-36" transform="translate(63.623047 0)"/>
      </g>
     </g>
    </g>
    <g id="xtick_8">
     <g id="line2d_8">
      <g>
       <use xlink:href="#m703476b792" x="382.14856" y="273.312" style="stroke: #000000; stroke-width: 0.8"/>
      </g>
     </g>
     <g id="text_8">
      <!-- 18 -->
      <g transform="translate(375.78606 287.910437) scale(0.1 -0.1)">
       <use xlink:href="#DejaVuSans-31"/>
       <use xlink:href="#DejaVuSans-38" transform="translate(63.623047 0)"/>
      </g>
     </g>
    </g>
    <g id="text_9">
     <!-- |k_xy| (reduced units) -->
     <g transform="translate(165.024844 301.632312) scale(0.1 -0.1)">
      <defs>
       <path id="DejaVuSans-7c" d="M 1344 4891 
L 1344 -1509 
L 813 -1509 
L 813 4891 
L 1344 4891 
z
" transform="scale(0.015625)"/>
       <path id="DejaVuSans-6b" d="M 581 4863 
L 1159 4863 
L 1159 1991 
L 2875 3500 
L 3609 3500 
L 1753 1863 
L 3688 0 
L 2938 0 
L 1159 1709 
L 1159 0 
L 581 0 
L 581 4863 
z
" transform="scale(0.015625)"/>
       <path id="DejaVuSans-5f" d="M 3263 -1063 
L 3263 -1509 
L -63 -1509 
L -63 -1063 
L 3263 -1063 
z
" transform="scale(0.015625)"/>
       <path id="DejaVuSans-78" d="M 3513 3500 
L 2247 1797 
L 3578 0 
L 2900 0 
L 1881 1375 
L 863 0 
L 184 0 
L 1544 1831 
L 300 3500 
L 978 3500 
L 1906 2253 
L 2834 3500 
L 3513 3500 
z
" transform="scale(0.015625)"/>
       <path id="DejaVuSans-79" d="M 2059 -325 
Q 1816 -950 1584 -1140 
Q 1353 -1331 966 -1331 
L 506 -1331 
L 506 -850 
L 844 -850 
Q 1081 -850 1212 -737 
Q 1344 -625 1503 -206 
L 1606 56 
L 191 3500 
L 800 3500 
L 1894 763 
L 2988 3500 
L 3597 3500 
L 2059 -325 
z
" transform="scale(0.015625)"/>
       <path id="DejaVuSans-20" transform="scale(0.015625)"/>
       <path id="DejaVuSans-28" d="M 1984 4856 
Q 1566 4138 1362 3434 
Q 1159 2731 1159 2009 
Q 1159 1288 1364 580 
Q 1569 -128 1984 -844 
L 1484 -844 
Q 1016 -109 783 600 
Q 550 1309 550 2009 
Q 550 2706 781 3412 
Q 1013 4119 1484 4856 
L 1984 4856 
z
" transform="scale(0.015625)"/>
       <path id="DejaVuSans-72" d="M 2631 2963 
Q 2534 3019 2420 3045 
Q 2306 3072 2169 3072 
Q 1681 3072 1420 2755 
Q 1159 2438 1159 1844 
L 1159 0 
L 581 0 
L 581 3500 
L 1159 3500 
L 1159 2956 
Q 1341 3275 1631 3429 
Q 1922 3584 2338 3584 
Q 2397 3584 2469 3576 
Q 2541 3569 2628 3553 
L 2631 2963 
z
" transform="scale(0.015625)"/>
       <path id="DejaVuSans-65" d="M 3597 1894 
L 3597 1613 
L 953 1613 
Q 991 1019 1311 708 
Q 1631 397 2203 397 
Q 2534 397 2845 478 
Q 3156 559 3463 722 
L 3463 178 
Q 3153 47 2828 -22 
Q 2503 -91 2169 -91 
Q 1331 -91 842 396 
Q 353 884 353 1716 
Q 353 2575 817 3079 
Q 1281 3584 2069 3584 
Q 2775 3584 3186 3129 
Q 3597 2675 3597 1894 
z
M 3022 2063 
Q 3016 2534 2758 2815 
Q 2500 3097 2075 3097 
Q 1594 3097 1305 2825 
Q 1016 2553 972 2059 
L 3022 2063 
z
" transform="scale(0.015625)"/>
       <path id="DejaVuSans-64" d="M 2906 2969 
L 2906 4863 
L 3481 4863 
L 3481 0 
L 2906 0 
L 2906 525 
Q 2725 213 2448 61 
Q 2172 -91 1784 -91 
Q 1150 -91 751 415 
Q 353 922 353 1747 
Q 353 2572 751 3078 
Q 1150 3584 1784 3584 
Q 2172 3584 2448 3432 
Q 2725 3281 2906 2969 
z
M 947 1747 
Q 947 1113 1208 752 
Q 1469 391 1925 391 
Q 2381 391 2643 752 
Q 2906 1113 2906 1747 
Q 2906 2381 2643 2742 
Q 2381 3103 1925 3103 
Q 1469 3103 1208 2742 
Q 947 2381 947 1747 
z
" transform="scale(0.015625)"/>
       <path id="DejaVuSans-75" d="M 544 1381 
L 544 3500 
L 1119 3500 
L 1119 1403 
Q 1119 906 1312 657 
Q 1506 409 1894 409 
Q 2359 409 2629 706 
Q 2900 1003 2900 1516 
L 2900 3500 
L 3475 3500 
L 3475 0 
L 2900 0 
L 2900 538 
Q 2691 219 2414 64 
Q 2138 -91 1772 -91 
Q 1169 -91 856 284 
Q 544 659 544 1381 
z
M 1991 3584 
L 1991 3584 
z
" transform="scale(0.015625)"/>
       <path id="DejaVuSans-63" d="M 3122 3366 
L 3122 2828 
Q 2878 2963 2633 3030 
Q 2388 3097 2138 3097 
Q 1578 3097 1268 2742 
Q 959 2388 959 1747 
Q 959 1106 1268 751 
Q 1578 397 2138 397 
Q 2388 397 2633 464 
Q 2878 531 3122 666 
L 3122 134 
Q 2881 22 2623 -34 
Q 2366 -91 2075 -91 
Q 1284 -91 818 406 
Q 353 903 353 1747 
Q 353 2603 823 3093 
Q 1294 3584 2113 3584 
Q 2378 3584 2631 3529 
Q 2884 3475 3122 3366 
z
" transform="scale(0.015625)"/>
       <path id="DejaVuSans-6e" d="M 3513 2113 
L 3513 0 
L 2938 0 
L 2938 2094 
Q 2938 2591 2744 2837 
Q 2550 3084 2163 3084 
Q 1697 3084 1428 2787 
Q 1159 2491 1159 1978 
L 1159 0 
L 581 0 
L 581 3500 
L 1159 3500 
L 1159 2956 
Q 1366 3272 1645 3428 
Q 1925 3584 2291 3584 
Q 2894 3584 3203 3211 
Q 3513 2838 3513 2113 
z
" transform="scale(0.015625)"/>
       <path id="DejaVuSans-69" d="M 603 3500 
L 1178 3500 
L 1178 0 
L 603 0 
L 603 3500 
z
M 603 4863 
L 1178 4863 
L 1178 4134 
L 603 4134 
L 603 4863 
z
" transform="scale(0.015625)"/>
       <path id="DejaVuSans-74" d="M 1172 4494 
L 1172 3500 
L 2356 3500 
L 2356 3053 
L 1172 3053 
L 1172 1153 
Q 1172 725 1289 603 
Q 1406 481 1766 481 
L 2356 481 
L 2356 0 
L 1766 0 
Q 1100 0 847 248 
Q 594 497 594 1153 
L 594 3053 
L 172 3053 
L 172 3500 
L 594 3500 
L 594 4494 
L 1172 4494 
z
" transform="scale(0.015625)"/>
       <path id="DejaVuSans-73" d="M 2834 3397 
L 2834 2853 
Q 2591 2978 2328 3040 
Q 2066 3103 1784 3103 
Q 1356 3103 1142 2972 
Q 928 2841 928 2578 
Q 928 2378 1081 2264 
Q 1234 2150 1697 2047 
L 1894 2003 
Q 2506 1872 2764 1633 
Q 3022 1394 3022 966 
Q 3022 478 2636 193 
Q 2250 -91 1575 -91 
Q 1294 -91 989 -36 
Q 684 19 347 128 
L 347 722 
Q 666 556 975 473 
Q 1284 391 1588 391 
Q 1994 391 2212 530 
Q 2431 669 2431 922 
Q 2431 1156 2273 1281 
Q 2116 1406 1581 1522 
L 1381 1569 
Q 847 1681 609 1914 
Q 372 2147 372 2553 
Q 372 3047 722 3315 
Q 1072 3584 1716 3584 
Q 2034 3584 2315 3537 
Q 2597 3491 2834 3397 
z
" transform="scale(0.015625)"/>
       <path id="DejaVuSans-29" d="M 513 4856 
L 1013 4856 
Q 1481 4119 1714 3412 
Q 1947 2706 1947 2009 
Q 1947 1309 1714 600 
Q 1481 -109 1013 -844 
L 513 -844 
Q 928 -128 1133 580 
Q 1338 1288 1338 2009 
Q 1338 2731 1133 3434 
Q 928 4138 513 4856 
z
" transform="scale(0.015625)"/>
      </defs>
      <use xlink:href="#DejaVuSans-7c"/>
      <use xlink:href="#DejaVuSans-6b" transform="translate(33.691406 0)"/>
      <use xlink:href="#DejaVuSans-5f" transform="translate(91.601562 0)"/>
      <use xlink:href="#DejaVuSans-78" transform="translate(141.601562 0)"/>
      <use xlink:href="#DejaVuSans-79" transform="translate(200.78125 0)"/>
      <use xlink:href="#DejaVuSans-7c" transform="translate(259.960938 0)"/>
      <use xlink:href="#DejaVuSans-20" transform="translate(293.652344 0)"/>
      <use xlink:href="#DejaVuSans-28" transform="translate(325.439453 0)"/>
      <use xlink:href="#DejaVuSans-72" transform="translate(364.453125 0)"/>
      <use xlink:href="#DejaVuSans-65" transform="translate(403.316406 0)"/>
      <use xlink:href="#DejaVuSans-64" transform="translate(464.839844 0)"/>
      <use xlink:href="#DejaVuSans-75" transform="translate(528.316406 0)"/>
      <use xlink:href="#DejaVuSans-63" transform="translate(591.695312 0)"/>
      <use xlink:href="#DejaVuSans-65" transform="translate(646.675781 0)"/>
      <use xlink:href="#DejaVuSans-64" transform="translate(708.199219 0)"/>
      <use xlink:href="#DejaVuSans-20" transform="translate(771.675781 0)"/>
      <use xlink:href="#DejaVuSans-75" transform="translate(803.462891 0)"/>
      <use xlink:href="#DejaVuSans-6e" transform="translate(866.841797 0)"/>
      <use xlink:href="#DejaVuSans-69" transform="translate(930.220703 0)"/>
      <use xlink:href="#DejaVuSans-74" transform="translate(958.003906 0)"/>
      <use xlink:href="#DejaVuSans-73" transform="translate(997.212891 0)"/>
      <use xlink:href="#DejaVuSans-29" transform="translate(1049.3125 0)"/>
     </g>
    </g>
   </g>
   <g id="matplotlib.axis_2">
    <g id="ytick_1">
     <g id="line2d_9">
      <defs>
       <path id="mfd9ae5cc01" d="M 0 0 
L -3.5 0 
" style="stroke: #000000; stroke-width: 0.8"/>
      </defs>
      <g>
       <use xlink:href="#mfd9ae5cc01" x="40.88125" y="273.312" style="stroke: #000000; stroke-width: 0.8"/>
      </g>
     </g>
     <g id="text_10">
      <!-- 0 -->
      <g transform="translate(27.51875 277.111219) scale(0.1 -0.1)">
       <use xlink:href="#DejaVuSans-30"/>
      </g>
     </g>
    </g>
    <g id="ytick_2">
     <g id="line2d_10">
      <g>
       <use xlink:href="#mfd9ae5cc01" x="40.88125" y="226.851212" style="stroke: #000000; stroke-width: 0.8"/>
      </g>
     </g>
     <g id="text_11">
      <!-- 2 -->
      <g transform="translate(27.51875 230.650431) scale(0.1 -0.1)">
       <use xlink:href="#DejaVuSans-32"/>
      </g>
     </g>
    </g>
    <g id="ytick_3">
     <g id="line2d_11">
      <g>
       <use xlink:href="#mfd9ae5cc01" x="40.88125" y="180.390424" style="stroke: #000000; stroke-width: 0.8"/>
      </g>
     </g>
     <g id="text_12">
      <!-- 4 -->
      <g transform="translate(27.51875 184.189643) scale(0.1 -0.1)">
       <use xlink:href="#DejaVuSans-34"/>
      </g>
     </g>
    </g>
    <g id="ytick_4">
     <g id="line2d_12">
      <g>
       <use xlink:href="#mfd9ae5cc01" x="40.88125" y="133.929636" style="stroke: #000000; stroke-width: 0.8"/>
      </g>
     </g>
     <g id="text_13">
      <!-- 6 -->
      <g transform="translate(27.51875 137.728855) scale(0.1 -0.1)">
       <use xlink:href="#DejaVuSans-36"/>
      </g>
     </g>
    </g>
    <g id="ytick_5">
     <g id="line2d_13">
      <g>
       <use xlink:href="#mfd9ae5cc01" x="40.88125" y="87.468848" style="stroke: #000000; stroke-width: 0.8"/>
      </g>
     </g>
     <g id="text_14">
      <!-- 8 -->
      <g transform="translate(27.51875 91.268067) scale(0.1 -0.1)">
       <use xlink:href="#DejaVuSans-38"/>
      </g>
     </g>
    </g>
    <g id="ytick_6">
     <g id="line2d_14">
      <g>
       <use xlink:href="#mfd9ae5cc01" x="40.88125" y="41.00806" style="stroke: #000000; stroke-width: 0.8"/>
      </g>
     </g>
     <g id="text_15">
      <!-- 10 -->
      <g transform="translate(21.15625 44.807279) scale(0.1 -0.1)">
       <use xlink:href="#DejaVuSans-31"/>
       <use xlink:href="#DejaVuSans-30" transform="translate(63.623047 0)"/>
      </g>
     </g>
    </g>
    <g id="text_16">
     <!-- S_xy(k) -->
     <g transform="translate(14.798438 158.645844) rotate(-90) scale(0.1 -0.1)">
      <defs>
       <path id="DejaVuSans-53" d="M 3425 4513 
L 3425 3897 
Q 3066 4069 2747 4153 
Q 2428 4238 2131 4238 
Q 1616 4238 1336 4038 
Q 1056 3838 1056 3469 
Q 1056 3159 1242 3001 
Q 1428 2844 1947 2747 
L 2328 2669 
Q 3034 2534 3370 2195 
Q 3706 1856 3706 1288 
Q 3706 609 3251 259 
Q 2797 -91 1919 -91 
Q 1588 -91 1214 -16 
Q 841 59 441 206 
L 441 856 
Q 825 641 1194 531 
Q 1563 422 1919 422 
Q 2459 422 2753 634 
Q 3047 847 3047 1241 
Q 3047 1584 2836 1778 
Q 2625 1972 2144 2069 
L 1759 2144 
Q 1053 2284 737 2584 
Q 422 2884 422 3419 
Q 422 4038 858 4394 
Q 1294 4750 2059 4750 
Q 2388 4750 2728 4690 
Q 3069 4631 3425 4513 
z
" transform="scale(0.015625)"/>
      </defs>
      <use xlink:href="#DejaVuSans-53"/>
      <use xlink:href="#DejaVuSans-5f" transform="translate(63.476562 0)"/>
      <use xlink:href="#DejaVuSans-78" transform="translate(113.476562 0)"/>
      <use xlink:href="#DejaVuSans-79" transform="translate(172.65625 0)"/>
      <use xlink:href="#DejaVuSans-28" transform="translate(231.835938 0)"/>
      <use xlink:href="#DejaVuSans-6b" transform="translate(270.849609 0)"/>
      <use xlink:href="#DejaVuSans-29" transform="translate(328.759766 0)"/>
     </g>
    </g>
   </g>
   <g id="line2d_15">
    <path d="M 5.267691 262.469983 
L 13.315676 255.76388 
L 24.697246 247.205347 
L 29.283942 261.67208 
L 40.793217 247.03659 
L 44.126802 262.426472 
L 47.279785 260.410036 
L 55.892394 259.602473 
L 63.556358 263.600194 
L 65.948245 264.523315 
L 68.270758 226.291602 
L 72.729749 260.163501 
L 82.985913 258.798246 
L 84.909818 262.795245 
L 90.469494 260.636227 
L 95.748299 249.112371 
L 99.130939 201.292751 
L 102.415469 259.879379 
L 104.023508 262.200534 
L 108.721434 244.434766 
L 110.247993 253.330966 
L 116.175556 255.651362 
L 121.845024 260.087511 
L 123.22584 216.454381 
L 125.946653 259.262216 
L 127.287435 258.899087 
L 133.809222 256.07335 
L 137.587815 255.236109 
L 141.27458 44.697656 
L 142.48422 256.700947 
L 146.058355 244.694599 
L 150.703381 239.402068 
L 151.844331 259.409175 
L 152.977492 258.174668 
L 159.621363 260.426192 
L 160.704135 257.418345 
L 161.780244 256.412292 
L 164.969787 258.467303 
L 169.136196 260.907068 
L 170.163084 260.811859 
L 177.197065 262.362464 
L 178.180922 224.767959 
L 180.133691 251.567595 
L 181.102752 256.195395 
L 183.981501 250.820822 
L 185.877653 261.741139 
L 188.688651 259.164776 
L 192.377144 255.257804 
L 195.100853 258.271449 
L 196.000912 260.355501 
L 199.563246 257.100649 
L 200.444591 256.208037 
L 203.06717 258.688334 
L 205.658463 126.30373 
L 207.369153 251.719073 
L 212.423743 252.653216 
L 213.255252 255.867613 
L 218.992802 258.213436 
L 219.800966 253.532566 
L 220.606348 244.019552 
L 222.20888 253.38826 
L 223.006086 255.69939 
L 226.168465 252.535125 
L 229.289769 254.005576 
L 231.604733 229.859294 
L 233.136004 241.161115 
L 234.657852 240.871291 
L 238.422357 254.811918 
L 239.168546 256.35672 
L 241.394039 255.61417 
L 245.060739 215.684668 
L 246.512977 255.322335 
L 247.236071 253.707362 
L 250.108662 250.57709 
L 255.762148 258.520249 
L 256.460529 199.163304 
L 257.851913 258.868563 
L 258.544943 257.885654 
L 260.613545 248.784734 
L 261.984005 255.537127 
L 264.027035 248.475369 
L 266.055171 256.030433 
L 268.736734 240.220971 
L 272.712085 253.309445 
L 274.679244 250.882409 
L 277.281469 256.709452 
L 277.928403 241.424469 
L 279.860664 252.666148 
L 281.780309 243.985811 
L 282.417429 257.642028 
L 283.053184 249.067311 
L 287.46595 253.410042 
L 288.091086 253.497242 
L 289.337495 253.0383 
L 289.958784 254.723928 
L 293.046383 254.892321 
L 299.130305 257.074022 
L 299.732212 250.046598 
L 302.128384 252.107759 
L 304.50654 258.096788 
L 307.454507 236.03078 
L 309.210387 257.598199 
L 315.568627 226.72215 
L 316.14058 254.285797 
L 316.711544 245.817623 
L 320.116849 255.19101 
L 325.716547 251.492405 
L 329.582063 249.798055 
L 331.771537 250.0673 
L 336.109429 253.145989 
L 343.046168 223.624529 
L 344.101438 245.288964 
L 347.24876 249.493175 
L 357.039273 243.021927 
L 359.06771 252.363783 
L 370.523709 245.501175 
L 371.503801 249.795458 
L 384.499285 249.816603 
L 398.00125 245.009441 
" clip-path="url(#pc2e727cccb)" style="fill: none; stroke: #ff7f0e; stroke-width: 1.5; stroke-linecap: square"/>
   </g>
   <g id="line2d_16">
    <path d="M 40.88125 250.081606 
L 398.00125 250.081606 
" clip-path="url(#pc2e727cccb)" style="fill: none; stroke-dasharray: 5.55,2.4; stroke-dashoffset: 0; stroke: #000000; stroke-opacity: 0.4; stroke-width: 1.5"/>
   </g>
   <g id="patch_3">
    <path d="M 40.88125 273.312 
L 40.88125 7.2 
" style="fill: none; stroke: #000000; stroke-width: 0.8; stroke-linejoin: miter; stroke-linecap: square"/>
   </g>
   <g id="patch_4">
    <path d="M 398.00125 273.312 
L 398.00125 7.2 
" style="fill: none; stroke: #000000; stroke-width: 0.8; stroke-linejoin: miter; stroke-linecap: square"/>
   </g>
   <g id="patch_5">
    <path d="M 40.88125 273.312 
L 398.00125 273.312 
" style="fill: none; stroke: #000000; stroke-width: 0.8; stroke-linejoin: miter; stroke-linecap: square"/>
   </g>
   <g id="patch_6">
    <path d="M 40.88125 7.2 
L 398.00125 7.2 
" style="fill: none; stroke: #000000; stroke-width: 0.8; stroke-linejoin: miter; stroke-linecap: square"/>
   </g>
   <g id="legend_1">
    <g id="patch_7">
     <path d="M 324.840313 44.55625 
L 391.00125 44.55625 
Q 393.00125 44.55625 393.00125 42.55625 
L 393.00125 14.2 
Q 393.00125 12.2 391.00125 12.2 
L 324.840313 12.2 
Q 322.840313 12.2 322.840313 14.2 
L 322.840313 42.55625 
Q 322.840313 44.55625 324.840313 44.55625 
z
" style="fill: #ffffff; opacity: 0.8; stroke: #cccccc; stroke-linejoin: miter"/>
    </g>
    <g id="line2d_17">
     <path d="M 326.840313 20.298437 
L 336.840313 20.298437 
L 346.840313 20.298437 
" style="fill: none; stroke: #ff7f0e; stroke-width: 1.5; stroke-linecap: square"/>
    </g>
    <g id="text_17">
     <!-- Mean -->
     <g transform="translate(354.840313 23.798437) scale(0.1 -0.1)">
      <defs>
       <path id="DejaVuSans-4d" d="M 628 4666 
L 1569 4666 
L 2759 1491 
L 3956 4666 
L 4897 4666 
L 4897 0 
L 4281 0 
L 4281 4097 
L 3078 897 
L 2444 897 
L 1241 4097 
L 1241 0 
L 628 0 
L 628 4666 
z
" transform="scale(0.015625)"/>
       <path id="DejaVuSans-61" d="M 2194 1759 
Q 1497 1759 1228 1600 
Q 959 1441 959 1056 
Q 959 750 1161 570 
Q 1363 391 1709 391 
Q 2188 391 2477 730 
Q 2766 1069 2766 1631 
L 2766 1759 
L 2194 1759 
z
M 3341 1997 
L 3341 0 
L 2766 0 
L 2766 531 
Q 2569 213 2275 61 
Q 1981 -91 1556 -91 
Q 1019 -91 701 211 
Q 384 513 384 1019 
Q 384 1609 779 1909 
Q 1175 2209 1959 2209 
L 2766 2209 
L 2766 2266 
Q 2766 2663 2505 2880 
Q 2244 3097 1772 3097 
Q 1472 3097 1187 3025 
Q 903 2953 641 2809 
L 641 3341 
Q 956 3463 1253 3523 
Q 1550 3584 1831 3584 
Q 2591 3584 2966 3190 
Q 3341 2797 3341 1997 
z
" transform="scale(0.015625)"/>
      </defs>
      <use xlink:href="#DejaVuSans-4d"/>
      <use xlink:href="#DejaVuSans-65" transform="translate(86.279297 0)"/>
      <use xlink:href="#DejaVuSans-61" transform="translate(147.802734 0)"/>
      <use xlink:href="#DejaVuSans-6e" transform="translate(209.082031 0)"/>
     </g>
    </g>
    <g id="patch_8">
     <path d="M 326.840313 38.476562 
L 346.840313 38.476562 
L 346.840313 31.476562 
L 326.840313 31.476562 
z
" style="fill: #ff7f0e; fill-opacity: 0.3; stroke: #ff7f0e; stroke-opacity: 0.3; stroke-linejoin: miter"/>
    </g>
    <g id="text_18">
     <!-- Std Err -->
     <g transform="translate(354.840313 38.476562) scale(0.1 -0.1)">
      <defs>
       <path id="DejaVuSans-45" d="M 628 4666 
L 3578 4666 
L 3578 4134 
L 1259 4134 
L 1259 2753 
L 3481 2753 
L 3481 2222 
L 1259 2222 
L 1259 531 
L 3634 531 
L 3634 0 
L 628 0 
L 628 4666 
z
" transform="scale(0.015625)"/>
      </defs>
      <use xlink:href="#DejaVuSans-53"/>
      <use xlink:href="#DejaVuSans-74" transform="translate(63.476562 0)"/>
      <use xlink:href="#DejaVuSans-64" transform="translate(102.685547 0)"/>
      <use xlink:href="#DejaVuSans-20" transform="translate(166.162109 0)"/>
      <use xlink:href="#DejaVuSans-45" transform="translate(197.949219 0)"/>
      <use xlink:href="#DejaVuSans-72" transform="translate(261.132812 0)"/>
      <use xlink:href="#DejaVuSans-72" transform="translate(300.496094 0)"/>
     </g>
    </g>
   </g>
  </g>
 </g>
 <defs>
  <clipPath id="pc2e727cccb">
   <rect x="40.88125" y="7.2" width="357.12" height="266.112"/>
  </clipPath>
 </defs>
</svg>
