<?xml version="1.0" encoding="utf-8" standalone="no"?>
<!DOCTYPE svg PUBLIC "-//W3C//DTD SVG 1.1//EN"
  "http://www.w3.org/Graphics/SVG/1.1/DTD/svg11.dtd">
<svg xmlns:xlink="http://www.w3.org/1999/xlink" width="408.10125pt" height="310.86825pt" viewBox="0 0 408.10125 310.86825" xmlns="http://www.w3.org/2000/svg" version="1.1">
 <metadata>
  <rdf:RDF xmlns:dc="http://purl.org/dc/elements/1.1/" xmlns:cc="http://creativecommons.org/ns#" xmlns:rdf="http://www.w3.org/1999/02/22-rdf-syntax-ns#">
   <cc:Work>
    <dc:type rdf:resource="http://purl.org/dc/dcmitype/StillImage"/>
    <dc:date>2025-12-11T13:54:51.074431</dc:date>
    <dc:format>image/svg+xml</dc:format>
    <dc:creator>
     <cc:Agent>
      <dc:title>Matplotlib v3.10.5, https://matplotlib.org/</dc:title>
     </cc:Agent>
    </dc:creator>
   </cc:Work>
  </rdf:RDF>
 </metadata>
 <defs>
  <style type="text/css">*{stroke-linejoin: round; stroke-linecap: butt}</style>
 </defs>
 <g id="figure_1">
  <g id="patch_1">
   <path d="M 0 310.86825 
L 408.10125 310.86825 
L 408.10125 0 
L 0 0 
z
" style="fill: #ffffff"/>
  </g>
  <g id="axes_1">
   <g id="patch_2">
    <path d="M 43.78125 273.312 
L 400.90125 273.312 
L 400.90125 7.2 
L 43.78125 7.2 
z
" style="fill: #ffffff"/>
   </g>
   <g id="FillBetweenPolyCollection_1">
    <defs>
     <path id="m8af35e5a2f" d="M 60.013977 -49.65225 
L 60.013977 -49.65225 
L 62.192867 -49.65225 
L 64.371756 -49.65225 
L 66.550646 -49.65225 
L 68.729536 -49.65225 
L 70.908425 -49.65225 
L 73.087315 -49.65225 
L 75.266204 -49.65225 
L 77.445094 -49.65225 
L 79.623983 -49.65225 
L 81.802873 -49.65225 
L 83.981763 -49.65225 
L 86.160652 -49.65225 
L 88.339542 -49.65225 
L 90.518431 -49.65225 
L 92.697321 -49.65225 
L 94.87621 -49.65225 
L 97.0551 -49.65225 
L 99.233989 -49.65225 
L 101.412879 -49.65225 
L 103.591769 -49.65225 
L 105.770658 -49.65225 
L 107.949548 -49.65225 
L 110.128437 -49.65225 
L 112.307327 -49.65225 
L 114.486216 -49.65225 
L 116.665106 -49.65225 
L 118.843996 -49.65225 
L 121.022885 -49.65225 
L 123.201775 -49.65225 
L 125.380664 -49.65225 
L 127.559554 -49.65225 
L 129.738443 -49.65225 
L 131.917333 -49.65225 
L 134.096223 -49.65225 
L 136.275112 -49.65225 
L 138.454002 -49.65225 
L 140.632891 -49.65225 
L 142.811781 -49.65225 
L 144.99067 -49.65225 
L 147.16956 -49.65225 
L 149.34845 -49.65225 
L 151.527339 -49.65225 
L 153.706229 -49.65225 
L 155.885118 -49.65225 
L 158.064008 -50.032656 
L 160.242897 -53.360173 
L 162.421787 -63.973562 
L 164.600676 -88.101206 
L 166.779566 -128.430342 
L 168.958456 -170.313956 
L 171.137345 -214.47129 
L 173.316235 -246.897074 
L 175.495124 -269.053566 
L 177.674014 -274.63115 
L 179.852903 -275.503457 
L 182.031793 -272.139616 
L 184.210683 -259.635322 
L 186.389572 -252.599924 
L 188.568462 -233.427315 
L 190.747351 -223.237111 
L 192.926241 -210.767939 
L 195.10513 -199.445332 
L 197.28402 -191.717228 
L 199.46291 -180.364911 
L 201.641799 -173.442124 
L 203.820689 -164.18778 
L 205.999578 -158.740906 
L 208.178468 -152.651391 
L 210.357357 -147.214055 
L 212.536247 -143.330551 
L 214.715137 -139.039767 
L 216.894026 -136.814911 
L 219.072916 -134.198448 
L 221.251805 -131.683652 
L 223.430695 -130.03364 
L 225.609584 -129.286047 
L 227.788474 -128.514671 
L 229.967363 -127.729977 
L 232.146253 -126.804829 
L 234.325143 -126.45754 
L 236.504032 -125.099631 
L 238.682922 -124.592494 
L 240.861811 -126.767222 
L 243.040701 -124.985384 
L 245.21959 -128.022503 
L 247.39848 -129.168591 
L 249.57737 -129.369401 
L 251.756259 -130.206979 
L 253.935149 -131.438617 
L 256.114038 -132.970164 
L 258.292928 -134.842743 
L 260.471817 -136.066472 
L 262.650707 -138.369667 
L 264.829597 -137.709134 
L 267.008486 -141.481077 
L 269.187376 -143.858014 
L 271.366265 -145.379331 
L 273.545155 -147.13623 
L 275.724044 -148.225867 
L 277.902934 -150.455028 
L 280.081824 -151.859756 
L 282.260713 -154.300487 
L 284.439603 -155.33356 
L 286.618492 -156.863962 
L 288.797382 -157.672141 
L 290.976271 -157.151501 
L 293.155161 -157.724516 
L 295.33405 -156.777528 
L 297.51294 -157.079904 
L 299.69183 -156.157751 
L 301.870719 -154.800961 
L 304.049609 -153.683357 
L 306.228498 -151.804301 
L 308.407388 -151.809114 
L 310.586277 -150.391038 
L 312.765167 -148.729501 
L 314.944057 -147.067513 
L 317.122946 -146.312765 
L 319.301836 -146.599203 
L 321.480725 -144.504366 
L 323.659615 -142.006384 
L 325.838504 -141.486212 
L 328.017394 -139.788282 
L 330.196284 -139.517431 
L 332.375173 -138.100402 
L 334.554063 -137.790717 
L 336.732952 -138.036242 
L 338.911842 -137.666963 
L 341.090731 -136.429906 
L 343.269621 -136.782552 
L 345.448511 -136.14715 
L 347.6274 -137.07802 
L 349.80629 -136.360721 
L 351.985179 -136.410801 
L 354.164069 -137.316788 
L 356.342958 -136.690412 
L 358.521848 -136.543404 
L 360.700737 -136.944663 
L 362.879627 -137.585129 
L 365.058517 -136.648774 
L 367.237406 -138.45486 
L 369.416296 -138.786782 
L 371.595185 -138.300979 
L 373.774075 -139.631894 
L 375.952964 -139.030096 
L 378.131854 -140.561832 
L 380.310744 -140.751968 
L 382.489633 -139.890451 
L 384.668523 -140.38353 
L 384.668523 -145.136435 
L 384.668523 -145.136435 
L 382.489633 -144.563461 
L 380.310744 -145.306523 
L 378.131854 -144.797144 
L 375.952964 -143.98194 
L 373.774075 -143.953532 
L 371.595185 -143.566772 
L 369.416296 -143.465627 
L 367.237406 -142.860864 
L 365.058517 -141.563461 
L 362.879627 -141.960429 
L 360.700737 -140.876658 
L 358.521848 -140.868228 
L 356.342958 -140.191342 
L 354.164069 -140.699913 
L 351.985179 -140.141246 
L 349.80629 -140.397634 
L 347.6274 -140.624048 
L 345.448511 -140.03923 
L 343.269621 -140.749463 
L 341.090731 -139.87659 
L 338.911842 -141.946431 
L 336.732952 -142.230619 
L 334.554063 -142.81251 
L 332.375173 -142.259489 
L 330.196284 -144.027713 
L 328.017394 -144.692077 
L 325.838504 -146.164245 
L 323.659615 -146.193695 
L 321.480725 -150.313852 
L 319.301836 -150.712411 
L 317.122946 -150.874549 
L 314.944057 -151.648915 
L 312.765167 -153.111636 
L 310.586277 -154.71303 
L 308.407388 -156.311591 
L 306.228498 -156.861979 
L 304.049609 -159.011888 
L 301.870719 -159.669211 
L 299.69183 -161.285791 
L 297.51294 -162.213917 
L 295.33405 -162.469311 
L 293.155161 -162.826451 
L 290.976271 -163.74805 
L 288.797382 -164.786457 
L 286.618492 -162.724219 
L 284.439603 -162.805615 
L 282.260713 -160.12979 
L 280.081824 -157.335906 
L 277.902934 -156.800901 
L 275.724044 -155.65175 
L 273.545155 -153.145177 
L 271.366265 -152.274651 
L 269.187376 -148.446088 
L 267.008486 -147.954771 
L 264.829597 -143.446701 
L 262.650707 -144.157312 
L 260.471817 -141.64845 
L 258.292928 -139.65588 
L 256.114038 -138.028844 
L 253.935149 -136.07572 
L 251.756259 -134.697214 
L 249.57737 -133.052558 
L 247.39848 -132.364728 
L 245.21959 -131.796218 
L 243.040701 -129.983357 
L 240.861811 -129.770926 
L 238.682922 -127.858862 
L 236.504032 -128.517651 
L 234.325143 -129.093068 
L 232.146253 -130.830801 
L 229.967363 -130.245532 
L 227.788474 -130.449701 
L 225.609584 -133.374677 
L 223.430695 -133.379139 
L 221.251805 -136.216166 
L 219.072916 -137.946541 
L 216.894026 -140.281744 
L 214.715137 -144.150453 
L 212.536247 -146.229873 
L 210.357357 -151.218249 
L 208.178468 -155.293237 
L 205.999578 -162.154846 
L 203.820689 -168.409968 
L 201.641799 -177.085881 
L 199.46291 -186.346939 
L 197.28402 -196.335773 
L 195.10513 -206.630891 
L 192.926241 -217.238235 
L 190.747351 -230.297287 
L 188.568462 -244.635175 
L 186.389572 -259.436531 
L 184.210683 -269.497616 
L 182.031793 -284.016348 
L 179.852903 -290.383741 
L 177.674014 -291.57225 
L 175.495124 -283.565209 
L 173.316235 -262.954748 
L 171.137345 -226.578755 
L 168.958456 -181.977181 
L 166.779566 -135.167885 
L 164.600676 -92.405903 
L 162.421787 -66.63825 
L 160.242897 -53.944725 
L 158.064008 -50.211884 
L 155.885118 -49.65225 
L 153.706229 -49.65225 
L 151.527339 -49.65225 
L 149.34845 -49.65225 
L 147.16956 -49.65225 
L 144.99067 -49.65225 
L 142.811781 -49.65225 
L 140.632891 -49.65225 
L 138.454002 -49.65225 
L 136.275112 -49.65225 
L 134.096223 -49.65225 
L 131.917333 -49.65225 
L 129.738443 -49.65225 
L 127.559554 -49.65225 
L 125.380664 -49.65225 
L 123.201775 -49.65225 
L 121.022885 -49.65225 
L 118.843996 -49.65225 
L 116.665106 -49.65225 
L 114.486216 -49.65225 
L 112.307327 -49.65225 
L 110.128437 -49.65225 
L 107.949548 -49.65225 
L 105.770658 -49.65225 
L 103.591769 -49.65225 
L 101.412879 -49.65225 
L 99.233989 -49.65225 
L 97.0551 -49.65225 
L 94.87621 -49.65225 
L 92.697321 -49.65225 
L 90.518431 -49.65225 
L 88.339542 -49.65225 
L 86.160652 -49.65225 
L 83.981763 -49.65225 
L 81.802873 -49.65225 
L 79.623983 -49.65225 
L 77.445094 -49.65225 
L 75.266204 -49.65225 
L 73.087315 -49.65225 
L 70.908425 -49.65225 
L 68.729536 -49.65225 
L 66.550646 -49.65225 
L 64.371756 -49.65225 
L 62.192867 -49.65225 
L 60.013977 -49.65225 
z
" style="stroke: #1f77b4; stroke-opacity: 0.3"/>
    </defs>
    <g clip-path="url(#p04c3afe40a)">
     <use xlink:href="#m8af35e5a2f" x="0" y="310.86825" style="fill: #1f77b4; fill-opacity: 0.3; stroke: #1f77b4; stroke-opacity: 0.3"/>
    </g>
   </g>
   <g id="matplotlib.axis_1">
    <g id="xtick_1">
     <g id="line2d_1">
      <defs>
       <path id="m473267993c" d="M 0 0 
L 0 3.5 
" style="stroke: #000000; stroke-width: 0.8"/>
      </defs>
      <g>
       <use xlink:href="#m473267993c" x="58.924532" y="273.312" style="stroke: #000000; stroke-width: 0.8"/>
      </g>
     </g>
     <g id="text_1">
      <!-- 0.0 -->
      <g transform="translate(50.97297 287.910437) scale(0.1 -0.1)">
       <defs>
        <path id="DejaVuSans-30" d="M 2034 4250 
Q 1547 4250 1301 3770 
Q 1056 3291 1056 2328 
Q 1056 1369 1301 889 
Q 1547 409 2034 409 
Q 2525 409 2770 889 
Q 3016 1369 3016 2328 
Q 3016 3291 2770 3770 
Q 2525 4250 2034 4250 
z
M 2034 4750 
Q 2819 4750 3233 4129 
Q 3647 3509 3647 2328 
Q 3647 1150 3233 529 
Q 2819 -91 2034 -91 
Q 1250 -91 836 529 
Q 422 1150 422 2328 
Q 422 3509 836 4129 
Q 1250 4750 2034 4750 
z
" transform="scale(0.015625)"/>
        <path id="DejaVuSans-2e" d="M 684 794 
L 1344 794 
L 1344 0 
L 684 0 
L 684 794 
z
" transform="scale(0.015625)"/>
       </defs>
       <use xlink:href="#DejaVuSans-30"/>
       <use xlink:href="#DejaVuSans-2e" transform="translate(63.623047 0)"/>
       <use xlink:href="#DejaVuSans-30" transform="translate(95.410156 0)"/>
      </g>
     </g>
    </g>
    <g id="xtick_2">
     <g id="line2d_2">
      <g>
       <use xlink:href="#m473267993c" x="113.396772" y="273.312" style="stroke: #000000; stroke-width: 0.8"/>
      </g>
     </g>
     <g id="text_2">
      <!-- 0.5 -->
      <g transform="translate(105.445209 287.910437) scale(0.1 -0.1)">
       <defs>
        <path id="DejaVuSans-35" d="M 691 4666 
L 3169 4666 
L 3169 4134 
L 1269 4134 
L 1269 2991 
Q 1406 3038 1543 3061 
Q 1681 3084 1819 3084 
Q 2600 3084 3056 2656 
Q 3513 2228 3513 1497 
Q 3513 744 3044 326 
Q 2575 -91 1722 -91 
Q 1428 -91 1123 -41 
Q 819 9 494 109 
L 494 744 
Q 775 591 1075 516 
Q 1375 441 1709 441 
Q 2250 441 2565 725 
Q 2881 1009 2881 1497 
Q 2881 1984 2565 2268 
Q 2250 2553 1709 2553 
Q 1456 2553 1204 2497 
Q 953 2441 691 2322 
L 691 4666 
z
" transform="scale(0.015625)"/>
       </defs>
       <use xlink:href="#DejaVuSans-30"/>
       <use xlink:href="#DejaVuSans-2e" transform="translate(63.623047 0)"/>
       <use xlink:href="#DejaVuSans-35" transform="translate(95.410156 0)"/>
      </g>
     </g>
    </g>
    <g id="xtick_3">
     <g id="line2d_3">
      <g>
       <use xlink:href="#m473267993c" x="167.869011" y="273.312" style="stroke: #000000; stroke-width: 0.8"/>
      </g>
     </g>
     <g id="text_3">
      <!-- 1.0 -->
      <g transform="translate(159.917448 287.910437) scale(0.1 -0.1)">
       <defs>
        <path id="DejaVuSans-31" d="M 794 531 
L 1825 531 
L 1825 4091 
L 703 3866 
L 703 4441 
L 1819 4666 
L 2450 4666 
L 2450 531 
L 3481 531 
L 3481 0 
L 794 0 
L 794 531 
z
" transform="scale(0.015625)"/>
       </defs>
       <use xlink:href="#DejaVuSans-31"/>
       <use xlink:href="#DejaVuSans-2e" transform="translate(63.623047 0)"/>
       <use xlink:href="#DejaVuSans-30" transform="translate(95.410156 0)"/>
      </g>
     </g>
    </g>
    <g id="xtick_4">
     <g id="line2d_4">
      <g>
       <use xlink:href="#m473267993c" x="222.34125" y="273.312" style="stroke: #000000; stroke-width: 0.8"/>
      </g>
     </g>
     <g id="text_4">
      <!-- 1.5 -->
      <g transform="translate(214.389687 287.910437) scale(0.1 -0.1)">
       <use xlink:href="#DejaVuSans-31"/>
       <use xlink:href="#DejaVuSans-2e" transform="translate(63.623047 0)"/>
       <use xlink:href="#DejaVuSans-35" transform="translate(95.410156 0)"/>
      </g>
     </g>
    </g>
    <g id="xtick_5">
     <g id="line2d_5">
      <g>
       <use xlink:href="#m473267993c" x="276.813489" y="273.312" style="stroke: #000000; stroke-width: 0.8"/>
      </g>
     </g>
     <g id="text_5">
      <!-- 2.0 -->
      <g transform="translate(268.861927 287.910437) scale(0.1 -0.1)">
       <defs>
        <path id="DejaVuSans-32" d="M 1228 531 
L 3431 531 
L 3431 0 
L 469 0 
L 469 531 
Q 828 903 1448 1529 
Q 2069 2156 2228 2338 
Q 2531 2678 2651 2914 
Q 2772 3150 2772 3378 
Q 2772 3750 2511 3984 
Q 2250 4219 1831 4219 
Q 1534 4219 1204 4116 
Q 875 4013 500 3803 
L 500 4441 
Q 881 4594 1212 4672 
Q 1544 4750 1819 4750 
Q 2544 4750 2975 4387 
Q 3406 4025 3406 3419 
Q 3406 3131 3298 2873 
Q 3191 2616 2906 2266 
Q 2828 2175 2409 1742 
Q 1991 1309 1228 531 
z
" transform="scale(0.015625)"/>
       </defs>
       <use xlink:href="#DejaVuSans-32"/>
       <use xlink:href="#DejaVuSans-2e" transform="translate(63.623047 0)"/>
       <use xlink:href="#DejaVuSans-30" transform="translate(95.410156 0)"/>
      </g>
     </g>
    </g>
    <g id="xtick_6">
     <g id="line2d_6">
      <g>
       <use xlink:href="#m473267993c" x="331.285728" y="273.312" style="stroke: #000000; stroke-width: 0.8"/>
      </g>
     </g>
     <g id="text_6">
      <!-- 2.5 -->
      <g transform="translate(323.334166 287.910437) scale(0.1 -0.1)">
       <use xlink:href="#DejaVuSans-32"/>
       <use xlink:href="#DejaVuSans-2e" transform="translate(63.623047 0)"/>
       <use xlink:href="#DejaVuSans-35" transform="translate(95.410156 0)"/>
      </g>
     </g>
    </g>
    <g id="xtick_7">
     <g id="line2d_7">
      <g>
       <use xlink:href="#m473267993c" x="385.757968" y="273.312" style="stroke: #000000; stroke-width: 0.8"/>
      </g>
     </g>
     <g id="text_7">
      <!-- 3.0 -->
      <g transform="translate(377.806405 287.910437) scale(0.1 -0.1)">
       <defs>
        <path id="DejaVuSans-33" d="M 2597 2516 
Q 3050 2419 3304 2112 
Q 3559 1806 3559 1356 
Q 3559 666 3084 287 
Q 2609 -91 1734 -91 
Q 1441 -91 1130 -33 
Q 819 25 488 141 
L 488 750 
Q 750 597 1062 519 
Q 1375 441 1716 441 
Q 2309 441 2620 675 
Q 2931 909 2931 1356 
Q 2931 1769 2642 2001 
Q 2353 2234 1838 2234 
L 1294 2234 
L 1294 2753 
L 1863 2753 
Q 2328 2753 2575 2939 
Q 2822 3125 2822 3475 
Q 2822 3834 2567 4026 
Q 2313 4219 1838 4219 
Q 1578 4219 1281 4162 
Q 984 4106 628 3988 
L 628 4550 
Q 988 4650 1302 4700 
Q 1616 4750 1894 4750 
Q 2613 4750 3031 4423 
Q 3450 4097 3450 3541 
Q 3450 3153 3228 2886 
Q 3006 2619 2597 2516 
z
" transform="scale(0.015625)"/>
       </defs>
       <use xlink:href="#DejaVuSans-33"/>
       <use xlink:href="#DejaVuSans-2e" transform="translate(63.623047 0)"/>
       <use xlink:href="#DejaVuSans-30" transform="translate(95.410156 0)"/>
      </g>
     </g>
    </g>
    <g id="text_8">
     <!-- r (reduced units) -->
     <g transform="translate(180.552188 301.588562) scale(0.1 -0.1)">
      <defs>
       <path id="DejaVuSans-72" d="M 2631 2963 
Q 2534 3019 2420 3045 
Q 2306 3072 2169 3072 
Q 1681 3072 1420 2755 
Q 1159 2438 1159 1844 
L 1159 0 
L 581 0 
L 581 3500 
L 1159 3500 
L 1159 2956 
Q 1341 3275 1631 3429 
Q 1922 3584 2338 3584 
Q 2397 3584 2469 3576 
Q 2541 3569 2628 3553 
L 2631 2963 
z
" transform="scale(0.015625)"/>
       <path id="DejaVuSans-20" transform="scale(0.015625)"/>
       <path id="DejaVuSans-28" d="M 1984 4856 
Q 1566 4138 1362 3434 
Q 1159 2731 1159 2009 
Q 1159 1288 1364 580 
Q 1569 -128 1984 -844 
L 1484 -844 
Q 1016 -109 783 600 
Q 550 1309 550 2009 
Q 550 2706 781 3412 
Q 1013 4119 1484 4856 
L 1984 4856 
z
" transform="scale(0.015625)"/>
       <path id="DejaVuSans-65" d="M 3597 1894 
L 3597 1613 
L 953 1613 
Q 991 1019 1311 708 
Q 1631 397 2203 397 
Q 2534 397 2845 478 
Q 3156 559 3463 722 
L 3463 178 
Q 3153 47 2828 -22 
Q 2503 -91 2169 -91 
Q 1331 -91 842 396 
Q 353 884 353 1716 
Q 353 2575 817 3079 
Q 1281 3584 2069 3584 
Q 2775 3584 3186 3129 
Q 3597 2675 3597 1894 
z
M 3022 2063 
Q 3016 2534 2758 2815 
Q 2500 3097 2075 3097 
Q 1594 3097 1305 2825 
Q 1016 2553 972 2059 
L 3022 2063 
z
" transform="scale(0.015625)"/>
       <path id="DejaVuSans-64" d="M 2906 2969 
L 2906 4863 
L 3481 4863 
L 3481 0 
L 2906 0 
L 2906 525 
Q 2725 213 2448 61 
Q 2172 -91 1784 -91 
Q 1150 -91 751 415 
Q 353 922 353 1747 
Q 353 2572 751 3078 
Q 1150 3584 1784 3584 
Q 2172 3584 2448 3432 
Q 2725 3281 2906 2969 
z
M 947 1747 
Q 947 1113 1208 752 
Q 1469 391 1925 391 
Q 2381 391 2643 752 
Q 2906 1113 2906 1747 
Q 2906 2381 2643 2742 
Q 2381 3103 1925 3103 
Q 1469 3103 1208 2742 
Q 947 2381 947 1747 
z
" transform="scale(0.015625)"/>
       <path id="DejaVuSans-75" d="M 544 1381 
L 544 3500 
L 1119 3500 
L 1119 1403 
Q 1119 906 1312 657 
Q 1506 409 1894 409 
Q 2359 409 2629 706 
Q 2900 1003 2900 1516 
L 2900 3500 
L 3475 3500 
L 3475 0 
L 2900 0 
L 2900 538 
Q 2691 219 2414 64 
Q 2138 -91 1772 -91 
Q 1169 -91 856 284 
Q 544 659 544 1381 
z
M 1991 3584 
L 1991 3584 
z
" transform="scale(0.015625)"/>
       <path id="DejaVuSans-63" d="M 3122 3366 
L 3122 2828 
Q 2878 2963 2633 3030 
Q 2388 3097 2138 3097 
Q 1578 3097 1268 2742 
Q 959 2388 959 1747 
Q 959 1106 1268 751 
Q 1578 397 2138 397 
Q 2388 397 2633 464 
Q 2878 531 3122 666 
L 3122 134 
Q 2881 22 2623 -34 
Q 2366 -91 2075 -91 
Q 1284 -91 818 406 
Q 353 903 353 1747 
Q 353 2603 823 3093 
Q 1294 3584 2113 3584 
Q 2378 3584 2631 3529 
Q 2884 3475 3122 3366 
z
" transform="scale(0.015625)"/>
       <path id="DejaVuSans-6e" d="M 3513 2113 
L 3513 0 
L 2938 0 
L 2938 2094 
Q 2938 2591 2744 2837 
Q 2550 3084 2163 3084 
Q 1697 3084 1428 2787 
Q 1159 2491 1159 1978 
L 1159 0 
L 581 0 
L 581 3500 
L 1159 3500 
L 1159 2956 
Q 1366 3272 1645 3428 
Q 1925 3584 2291 3584 
Q 2894 3584 3203 3211 
Q 3513 2838 3513 2113 
z
" transform="scale(0.015625)"/>
       <path id="DejaVuSans-69" d="M 603 3500 
L 1178 3500 
L 1178 0 
L 603 0 
L 603 3500 
z
M 603 4863 
L 1178 4863 
L 1178 4134 
L 603 4134 
L 603 4863 
z
" transform="scale(0.015625)"/>
       <path id="DejaVuSans-74" d="M 1172 4494 
L 1172 3500 
L 2356 3500 
L 2356 3053 
L 1172 3053 
L 1172 1153 
Q 1172 725 1289 603 
Q 1406 481 1766 481 
L 2356 481 
L 2356 0 
L 1766 0 
Q 1100 0 847 248 
Q 594 497 594 1153 
L 594 3053 
L 172 3053 
L 172 3500 
L 594 3500 
L 594 4494 
L 1172 4494 
z
" transform="scale(0.015625)"/>
       <path id="DejaVuSans-73" d="M 2834 3397 
L 2834 2853 
Q 2591 2978 2328 3040 
Q 2066 3103 1784 3103 
Q 1356 3103 1142 2972 
Q 928 2841 928 2578 
Q 928 2378 1081 2264 
Q 1234 2150 1697 2047 
L 1894 2003 
Q 2506 1872 2764 1633 
Q 3022 1394 3022 966 
Q 3022 478 2636 193 
Q 2250 -91 1575 -91 
Q 1294 -91 989 -36 
Q 684 19 347 128 
L 347 722 
Q 666 556 975 473 
Q 1284 391 1588 391 
Q 1994 391 2212 530 
Q 2431 669 2431 922 
Q 2431 1156 2273 1281 
Q 2116 1406 1581 1522 
L 1381 1569 
Q 847 1681 609 1914 
Q 372 2147 372 2553 
Q 372 3047 722 3315 
Q 1072 3584 1716 3584 
Q 2034 3584 2315 3537 
Q 2597 3491 2834 3397 
z
" transform="scale(0.015625)"/>
       <path id="DejaVuSans-29" d="M 513 4856 
L 1013 4856 
Q 1481 4119 1714 3412 
Q 1947 2706 1947 2009 
Q 1947 1309 1714 600 
Q 1481 -109 1013 -844 
L 513 -844 
Q 928 -128 1133 580 
Q 1338 1288 1338 2009 
Q 1338 2731 1133 3434 
Q 928 4138 513 4856 
z
" transform="scale(0.015625)"/>
      </defs>
      <use xlink:href="#DejaVuSans-72"/>
      <use xlink:href="#DejaVuSans-20" transform="translate(41.113281 0)"/>
      <use xlink:href="#DejaVuSans-28" transform="translate(72.900391 0)"/>
      <use xlink:href="#DejaVuSans-72" transform="translate(111.914062 0)"/>
      <use xlink:href="#DejaVuSans-65" transform="translate(150.777344 0)"/>
      <use xlink:href="#DejaVuSans-64" transform="translate(212.300781 0)"/>
      <use xlink:href="#DejaVuSans-75" transform="translate(275.777344 0)"/>
      <use xlink:href="#DejaVuSans-63" transform="translate(339.15625 0)"/>
      <use xlink:href="#DejaVuSans-65" transform="translate(394.136719 0)"/>
      <use xlink:href="#DejaVuSans-64" transform="translate(455.660156 0)"/>
      <use xlink:href="#DejaVuSans-20" transform="translate(519.136719 0)"/>
      <use xlink:href="#DejaVuSans-75" transform="translate(550.923828 0)"/>
      <use xlink:href="#DejaVuSans-6e" transform="translate(614.302734 0)"/>
      <use xlink:href="#DejaVuSans-69" transform="translate(677.681641 0)"/>
      <use xlink:href="#DejaVuSans-74" transform="translate(705.464844 0)"/>
      <use xlink:href="#DejaVuSans-73" transform="translate(744.673828 0)"/>
      <use xlink:href="#DejaVuSans-29" transform="translate(796.773438 0)"/>
     </g>
    </g>
   </g>
   <g id="matplotlib.axis_2">
    <g id="ytick_1">
     <g id="line2d_8">
      <defs>
       <path id="mc9b9d715d7" d="M 0 0 
L -3.5 0 
" style="stroke: #000000; stroke-width: 0.8"/>
      </defs>
      <g>
       <use xlink:href="#mc9b9d715d7" x="43.78125" y="261.216" style="stroke: #000000; stroke-width: 0.8"/>
      </g>
     </g>
     <g id="text_9">
      <!-- 0.0 -->
      <g transform="translate(20.878125 265.015219) scale(0.1 -0.1)">
       <use xlink:href="#DejaVuSans-30"/>
       <use xlink:href="#DejaVuSans-2e" transform="translate(63.623047 0)"/>
       <use xlink:href="#DejaVuSans-30" transform="translate(95.410156 0)"/>
      </g>
     </g>
    </g>
    <g id="ytick_2">
     <g id="line2d_9">
      <g>
       <use xlink:href="#mc9b9d715d7" x="43.78125" y="209.375345" style="stroke: #000000; stroke-width: 0.8"/>
      </g>
     </g>
     <g id="text_10">
      <!-- 0.5 -->
      <g transform="translate(20.878125 213.174564) scale(0.1 -0.1)">
       <use xlink:href="#DejaVuSans-30"/>
       <use xlink:href="#DejaVuSans-2e" transform="translate(63.623047 0)"/>
       <use xlink:href="#DejaVuSans-35" transform="translate(95.410156 0)"/>
      </g>
     </g>
    </g>
    <g id="ytick_3">
     <g id="line2d_10">
      <g>
       <use xlink:href="#mc9b9d715d7" x="43.78125" y="157.534691" style="stroke: #000000; stroke-width: 0.8"/>
      </g>
     </g>
     <g id="text_11">
      <!-- 1.0 -->
      <g transform="translate(20.878125 161.33391) scale(0.1 -0.1)">
       <use xlink:href="#DejaVuSans-31"/>
       <use xlink:href="#DejaVuSans-2e" transform="translate(63.623047 0)"/>
       <use xlink:href="#DejaVuSans-30" transform="translate(95.410156 0)"/>
      </g>
     </g>
    </g>
    <g id="ytick_4">
     <g id="line2d_11">
      <g>
       <use xlink:href="#mc9b9d715d7" x="43.78125" y="105.694036" style="stroke: #000000; stroke-width: 0.8"/>
      </g>
     </g>
     <g id="text_12">
      <!-- 1.5 -->
      <g transform="translate(20.878125 109.493255) scale(0.1 -0.1)">
       <use xlink:href="#DejaVuSans-31"/>
       <use xlink:href="#DejaVuSans-2e" transform="translate(63.623047 0)"/>
       <use xlink:href="#DejaVuSans-35" transform="translate(95.410156 0)"/>
      </g>
     </g>
    </g>
    <g id="ytick_5">
     <g id="line2d_12">
      <g>
       <use xlink:href="#mc9b9d715d7" x="43.78125" y="53.853382" style="stroke: #000000; stroke-width: 0.8"/>
      </g>
     </g>
     <g id="text_13">
      <!-- 2.0 -->
      <g transform="translate(20.878125 57.652601) scale(0.1 -0.1)">
       <use xlink:href="#DejaVuSans-32"/>
       <use xlink:href="#DejaVuSans-2e" transform="translate(63.623047 0)"/>
       <use xlink:href="#DejaVuSans-30" transform="translate(95.410156 0)"/>
      </g>
     </g>
    </g>
    <g id="text_14">
     <!-- g(r) -->
     <g transform="translate(14.798438 149.38725) rotate(-90) scale(0.1 -0.1)">
      <defs>
       <path id="DejaVuSans-67" d="M 2906 1791 
Q 2906 2416 2648 2759 
Q 2391 3103 1925 3103 
Q 1463 3103 1205 2759 
Q 947 2416 947 1791 
Q 947 1169 1205 825 
Q 1463 481 1925 481 
Q 2391 481 2648 825 
Q 2906 1169 2906 1791 
z
M 3481 434 
Q 3481 -459 3084 -895 
Q 2688 -1331 1869 -1331 
Q 1566 -1331 1297 -1286 
Q 1028 -1241 775 -1147 
L 775 -588 
Q 1028 -725 1275 -790 
Q 1522 -856 1778 -856 
Q 2344 -856 2625 -561 
Q 2906 -266 2906 331 
L 2906 616 
Q 2728 306 2450 153 
Q 2172 0 1784 0 
Q 1141 0 747 490 
Q 353 981 353 1791 
Q 353 2603 747 3093 
Q 1141 3584 1784 3584 
Q 2172 3584 2450 3431 
Q 2728 3278 2906 2969 
L 2906 3500 
L 3481 3500 
L 3481 434 
z
" transform="scale(0.015625)"/>
      </defs>
      <use xlink:href="#DejaVuSans-67"/>
      <use xlink:href="#DejaVuSans-28" transform="translate(63.476562 0)"/>
      <use xlink:href="#DejaVuSans-72" transform="translate(102.490234 0)"/>
      <use xlink:href="#DejaVuSans-29" transform="translate(143.603516 0)"/>
     </g>
    </g>
   </g>
   <g id="line2d_13">
    <path d="M 60.013977 261.216 
L 155.885118 261.216 
L 158.064008 260.74598 
L 160.242897 257.215801 
L 162.421787 245.562344 
L 164.600676 220.614696 
L 166.779566 179.069137 
L 171.137345 90.343227 
L 173.316235 55.942339 
L 175.495124 34.558862 
L 177.674014 27.76655 
L 179.852903 27.924651 
L 182.031793 32.790268 
L 184.210683 46.301781 
L 186.389572 54.850022 
L 188.568462 71.837005 
L 192.926241 96.865163 
L 195.10513 107.830138 
L 197.28402 116.841749 
L 199.46291 127.512325 
L 201.641799 135.604248 
L 203.820689 144.569376 
L 205.999578 150.420374 
L 208.178468 156.895936 
L 210.357357 161.652098 
L 212.536247 166.088038 
L 216.894026 172.319922 
L 219.072916 174.795755 
L 223.430695 179.161861 
L 225.609584 179.537888 
L 227.788474 181.386064 
L 229.967363 181.880496 
L 232.146253 182.050435 
L 236.504032 184.059609 
L 238.682922 184.642572 
L 240.861811 182.599176 
L 243.040701 183.383879 
L 245.21959 180.95889 
L 247.39848 180.10159 
L 249.57737 179.65727 
L 253.935149 177.111082 
L 260.471817 172.010789 
L 262.650707 169.604761 
L 264.829597 170.290332 
L 267.008486 166.150326 
L 269.187376 164.716199 
L 271.366265 162.041259 
L 273.545155 160.727546 
L 277.902934 157.240286 
L 280.081824 156.270419 
L 282.260713 153.653111 
L 284.439603 151.798662 
L 286.618492 151.074159 
L 288.797382 149.638951 
L 290.976271 150.418474 
L 293.155161 150.592767 
L 295.33405 151.24483 
L 297.51294 151.22134 
L 299.69183 152.146479 
L 301.870719 153.633164 
L 304.049609 154.520628 
L 306.228498 156.53511 
L 308.407388 156.807898 
L 312.765167 159.947682 
L 314.944057 161.510036 
L 317.122946 162.274593 
L 319.301836 162.212443 
L 321.480725 163.459141 
L 323.659615 166.768211 
L 325.838504 167.043022 
L 328.017394 168.62807 
L 330.196284 169.095678 
L 332.375173 170.688304 
L 334.554063 170.566637 
L 336.732952 170.734819 
L 338.911842 171.061553 
L 341.090731 172.715002 
L 343.269621 172.102243 
L 345.448511 172.77506 
L 347.6274 172.017216 
L 349.80629 172.489073 
L 351.985179 172.592226 
L 354.164069 171.859899 
L 356.342958 172.427373 
L 360.700737 171.957589 
L 362.879627 171.095471 
L 365.058517 171.762133 
L 367.237406 170.210388 
L 369.416296 169.742046 
L 371.595185 169.934374 
L 373.774075 169.075537 
L 375.952964 169.362232 
L 378.131854 168.188762 
L 380.310744 167.839004 
L 382.489633 168.641294 
L 384.668523 168.108267 
L 384.668523 168.108267 
" clip-path="url(#p04c3afe40a)" style="fill: none; stroke: #1f77b4; stroke-width: 1.5; stroke-linecap: square"/>
   </g>
   <g id="line2d_14">
    <path d="M 43.78125 157.534691 
L 400.90125 157.534691 
" clip-path="url(#p04c3afe40a)" style="fill: none; stroke-dasharray: 5.55,2.4; stroke-dashoffset: 0; stroke: #000000; stroke-opacity: 0.4; stroke-width: 1.5"/>
   </g>
   <g id="patch_3">
    <path d="M 43.78125 273.312 
L 43.78125 7.2 
" style="fill: none; stroke: #000000; stroke-width: 0.8; stroke-linejoin: miter; stroke-linecap: square"/>
   </g>
   <g id="patch_4">
    <path d="M 400.90125 273.312 
L 400.90125 7.2 
" style="fill: none; stroke: #000000; stroke-width: 0.8; stroke-linejoin: miter; stroke-linecap: square"/>
   </g>
   <g id="patch_5">
    <path d="M 43.78125 273.312 
L 400.90125 273.312 
" style="fill: none; stroke: #000000; stroke-width: 0.8; stroke-linejoin: miter; stroke-linecap: square"/>
   </g>
   <g id="patch_6">
    <path d="M 43.78125 7.2 
L 400.90125 7.2 
" style="fill: none; stroke: #000000; stroke-width: 0.8; stroke-linejoin: miter; stroke-linecap: square"/>
   </g>
   <g id="legend_1">
    <g id="patch_7">
     <path d="M 327.740313 44.55625 
L 393.90125 44.55625 
Q 395.90125 44.55625 395.90125 42.55625 
L 395.90125 14.2 
Q 395.90125 12.2 393.90125 12.2 
L 327.740313 12.2 
Q 325.740313 12.2 325.740313 14.2 
L 325.740313 42.55625 
Q 325.740313 44.55625 327.740313 44.55625 
z
" style="fill: #ffffff; opacity: 0.8; stroke: #cccccc; stroke-linejoin: miter"/>
    </g>
    <g id="line2d_15">
     <path d="M 329.740313 20.298437 
L 339.740313 20.298437 
L 349.740313 20.298437 
" style="fill: none; stroke: #1f77b4; stroke-width: 1.5; stroke-linecap: square"/>
    </g>
    <g id="text_15">
     <!-- Mean -->
     <g transform="translate(357.740313 23.798437) scale(0.1 -0.1)">
      <defs>
       <path id="DejaVuSans-4d" d="M 628 4666 
L 1569 4666 
L 2759 1491 
L 3956 4666 
L 4897 4666 
L 4897 0 
L 4281 0 
L 4281 4097 
L 3078 897 
L 2444 897 
L 1241 4097 
L 1241 0 
L 628 0 
L 628 4666 
z
" transform="scale(0.015625)"/>
       <path id="DejaVuSans-61" d="M 2194 1759 
Q 1497 1759 1228 1600 
Q 959 1441 959 1056 
Q 959 750 1161 570 
Q 1363 391 1709 391 
Q 2188 391 2477 730 
Q 2766 1069 2766 1631 
L 2766 1759 
L 2194 1759 
z
M 3341 1997 
L 3341 0 
L 2766 0 
L 2766 531 
Q 2569 213 2275 61 
Q 1981 -91 1556 -91 
Q 1019 -91 701 211 
Q 384 513 384 1019 
Q 384 1609 779 1909 
Q 1175 2209 1959 2209 
L 2766 2209 
L 2766 2266 
Q 2766 2663 2505 2880 
Q 2244 3097 1772 3097 
Q 1472 3097 1187 3025 
Q 903 2953 641 2809 
L 641 3341 
Q 956 3463 1253 3523 
Q 1550 3584 1831 3584 
Q 2591 3584 2966 3190 
Q 3341 2797 3341 1997 
z
" transform="scale(0.015625)"/>
      </defs>
      <use xlink:href="#DejaVuSans-4d"/>
      <use xlink:href="#DejaVuSans-65" transform="translate(86.279297 0)"/>
      <use xlink:href="#DejaVuSans-61" transform="translate(147.802734 0)"/>
      <use xlink:href="#DejaVuSans-6e" transform="translate(209.082031 0)"/>
     </g>
    </g>
    <g id="patch_8">
     <path d="M 329.740313 38.476562 
L 349.740313 38.476562 
L 349.740313 31.476562 
L 329.740313 31.476562 
z
" style="fill: #1f77b4; fill-opacity: 0.3; stroke: #1f77b4; stroke-opacity: 0.3; stroke-linejoin: miter"/>
    </g>
    <g id="text_16">
     <!-- Std Err -->
     <g transform="translate(357.740313 38.476562) scale(0.1 -0.1)">
      <defs>
       <path id="DejaVuSans-53" d="M 3425 4513 
L 3425 3897 
Q 3066 4069 2747 4153 
Q 2428 4238 2131 4238 
Q 1616 4238 1336 4038 
Q 1056 3838 1056 3469 
Q 1056 3159 1242 3001 
Q 1428 2844 1947 2747 
L 2328 2669 
Q 3034 2534 3370 2195 
Q 3706 1856 3706 1288 
Q 3706 609 3251 259 
Q 2797 -91 1919 -91 
Q 1588 -91 1214 -16 
Q 841 59 441 206 
L 441 856 
Q 825 641 1194 531 
Q 1563 422 1919 422 
Q 2459 422 2753 634 
Q 3047 847 3047 1241 
Q 3047 1584 2836 1778 
Q 2625 1972 2144 2069 
L 1759 2144 
Q 1053 2284 737 2584 
Q 422 2884 422 3419 
Q 422 4038 858 4394 
Q 1294 4750 2059 4750 
Q 2388 4750 2728 4690 
Q 3069 4631 3425 4513 
z
" transform="scale(0.015625)"/>
       <path id="DejaVuSans-45" d="M 628 4666 
L 3578 4666 
L 3578 4134 
L 1259 4134 
L 1259 2753 
L 3481 2753 
L 3481 2222 
L 1259 2222 
L 1259 531 
L 3634 531 
L 3634 0 
L 628 0 
L 628 4666 
z
" transform="scale(0.015625)"/>
      </defs>
      <use xlink:href="#DejaVuSans-53"/>
      <use xlink:href="#DejaVuSans-74" transform="translate(63.476562 0)"/>
      <use xlink:href="#DejaVuSans-64" transform="translate(102.685547 0)"/>
      <use xlink:href="#DejaVuSans-20" transform="translate(166.162109 0)"/>
      <use xlink:href="#DejaVuSans-45" transform="translate(197.949219 0)"/>
      <use xlink:href="#DejaVuSans-72" transform="translate(261.132812 0)"/>
      <use xlink:href="#DejaVuSans-72" transform="translate(300.496094 0)"/>
     </g>
    </g>
   </g>
  </g>
 </g>
 <defs>
  <clipPath id="p04c3afe40a">
   <rect x="43.78125" y="7.2" width="357.12" height="266.112"/>
  </clipPath>
 </defs>
</svg>
