<?xml version="1.0" encoding="utf-8" standalone="no"?>
<!DOCTYPE svg PUBLIC "-//W3C//DTD SVG 1.1//EN"
  "http://www.w3.org/Graphics/SVG/1.1/DTD/svg11.dtd">
<svg xmlns:xlink="http://www.w3.org/1999/xlink" width="405.20125pt" height="311.190125pt" viewBox="0 0 405.20125 311.190125" xmlns="http://www.w3.org/2000/svg" version="1.1">
 <metadata>
  <rdf:RDF xmlns:dc="http://purl.org/dc/elements/1.1/" xmlns:cc="http://creativecommons.org/ns#" xmlns:rdf="http://www.w3.org/1999/02/22-rdf-syntax-ns#">
   <cc:Work>
    <dc:type rdf:resource="http://purl.org/dc/dcmitype/StillImage"/>
    <dc:date>2025-12-11T12:10:13.004797</dc:date>
    <dc:format>image/svg+xml</dc:format>
    <dc:creator>
     <cc:Agent>
      <dc:title>Matplotlib v3.10.5, https://matplotlib.org/</dc:title>
     </cc:Agent>
    </dc:creator>
   </cc:Work>
  </rdf:RDF>
 </metadata>
 <defs>
  <style type="text/css">*{stroke-linejoin: round; stroke-linecap: butt}</style>
 </defs>
 <g id="figure_1">
  <g id="patch_1">
   <path d="M 0 311.190125 
L 405.20125 311.190125 
L 405.20125 0 
L 0 0 
z
" style="fill: #ffffff"/>
  </g>
  <g id="axes_1">
   <g id="patch_2">
    <path d="M 40.88125 273.312 
L 398.00125 273.312 
L 398.00125 7.2 
L 40.88125 7.2 
z
" style="fill: #ffffff"/>
   </g>
   <g id="FillBetweenPolyCollection_1">
    <defs>
     <path id="mf0107dbdcf" d="M 57.113977 -49.987263 
L 57.113977 -49.974125 
L 63.766872 -50.528788 
L 73.175486 -50.044844 
L 76.967094 -50.115434 
L 86.481276 -50.370756 
L 89.236995 -50.114256 
L 91.843419 -50.218956 
L 98.963062 -50.567271 
L 105.298504 -50.413153 
L 107.275766 -50.391408 
L 109.195679 -53.913588 
L 112.88172 -50.765489 
L 121.360012 -53.081818 
L 122.950415 -50.356808 
L 127.54634 -50.490232 
L 131.910083 -282.671356 
L 134.706354 -50.99085 
L 137.421521 -50.558518 
L 138.750813 -50.520088 
L 142.634369 -50.660718 
L 143.896305 -55.916046 
L 148.796345 -50.853661 
L 153.48303 -51.61985 
L 154.624487 -56.967958 
L 156.873656 -51.815138 
L 157.982018 -51.927368 
L 163.373275 -51.47416 
L 166.496862 -52.436668 
L 169.544539 -230.733899 
L 170.544492 -58.061815 
L 173.499063 -53.216967 
L 177.33889 -53.682018 
L 178.28206 -51.931254 
L 179.218792 -51.985654 
L 184.710971 -51.902647 
L 185.606048 -54.468357 
L 186.495617 -60.736408 
L 189.132263 -52.980967 
L 192.57644 -51.893144 
L 193.42532 -51.484494 
L 199.239985 -51.510561 
L 200.053294 -60.862699 
L 201.667557 -53.164584 
L 202.468634 -53.593044 
L 204.848362 -53.363269 
L 206.415823 -51.313267 
L 208.739544 -52.382155 
L 211.788649 -60.395483 
L 214.040213 -52.017734 
L 214.784249 -51.729677 
L 217.729066 -53.118922 
L 218.457632 -53.866508 
L 220.625596 -53.637024 
L 222.767697 -154.966618 
L 224.181845 -56.403654 
L 228.360239 -51.659968 
L 229.047609 -56.038066 
L 233.790574 -52.956116 
L 234.458646 -59.165867 
L 235.124418 -54.097528 
L 236.449157 -55.46297 
L 237.108169 -52.73629 
L 239.722361 -66.489398 
L 242.302597 -53.968865 
L 244.216271 -134.678535 
L 245.482101 -77.825617 
L 246.740141 -55.242232 
L 249.852083 -63.619707 
L 250.468922 -53.070175 
L 252.308634 -53.0516 
L 255.339724 -56.805788 
L 256.540222 -56.303903 
L 257.13797 -57.607345 
L 259.512607 -57.961921 
L 264.18608 -54.642733 
L 264.7634 -72.287821 
L 265.913592 -52.771665 
L 266.486487 -52.770132 
L 268.196505 -54.974613 
L 269.3294 -54.789512 
L 271.018278 -56.177013 
L 272.694843 -53.766206 
L 274.911567 -58.072566 
L 278.197804 -54.070606 
L 279.823963 -57.575904 
L 281.975101 -54.733628 
L 282.509891 -57.6999 
L 284.107201 -57.026809 
L 285.694082 -57.428496 
L 286.22076 -53.581852 
L 286.746309 -56.144524 
L 290.394137 -56.329 
L 290.910908 -59.556654 
L 291.941257 -55.049758 
L 292.454847 -55.247752 
L 295.007221 -54.908595 
L 300.036517 -54.268731 
L 300.534085 -58.055342 
L 302.514889 -60.687213 
L 304.4808 -53.461276 
L 306.917746 -59.250372 
L 308.369251 -53.422284 
L 313.625312 -79.328463 
L 314.098119 -58.795844 
L 314.570108 -55.237539 
L 317.385115 -53.276894 
L 322.014124 -55.378641 
L 325.209567 -65.216491 
L 327.019503 -54.98499 
L 330.605437 -55.787917 
L 336.339715 -77.788754 
L 337.212058 -57.793525 
L 339.813803 -56.220455 
L 347.907164 -62.810304 
L 349.583978 -57.822924 
L 359.054119 -59.755747 
L 359.864316 -57.638315 
L 370.607077 -58.234465 
L 381.768523 -57.131428 
L 381.768523 -59.695984 
L 381.768523 -59.695984 
L 370.607077 -59.450624 
L 359.864316 -58.592313 
L 359.054119 -61.809225 
L 349.583978 -59.624174 
L 347.907164 -64.740813 
L 339.813803 -56.895432 
L 337.212058 -59.210774 
L 336.339715 -91.086709 
L 330.605437 -56.39374 
L 327.019503 -55.307351 
L 325.209567 -69.73121 
L 322.014124 -56.272087 
L 317.385115 -53.622987 
L 314.570108 -55.885558 
L 314.098119 -59.538781 
L 313.625312 -92.679604 
L 308.369251 -54.231166 
L 306.917746 -61.809807 
L 304.4808 -54.050045 
L 302.514889 -62.744932 
L 300.534085 -59.772999 
L 300.036517 -54.892093 
L 295.007221 -55.48096 
L 292.454847 -55.70995 
L 291.941257 -55.630464 
L 290.910908 -62.753602 
L 290.394137 -58.281522 
L 286.746309 -57.058676 
L 286.22076 -53.999434 
L 285.694082 -58.639029 
L 284.107201 -58.889787 
L 282.509891 -58.684066 
L 281.975101 -55.375859 
L 279.823963 -59.562146 
L 278.197804 -54.356736 
L 274.911567 -60.223474 
L 272.694843 -54.980597 
L 271.018278 -57.409803 
L 269.3294 -55.207095 
L 268.196505 -55.665146 
L 266.486487 -52.986475 
L 265.913592 -53.288025 
L 264.7634 -79.278799 
L 264.18608 -55.354792 
L 259.512607 -60.56316 
L 257.13797 -59.512645 
L 256.540222 -57.057492 
L 255.339724 -57.672675 
L 252.308634 -53.605192 
L 250.468922 -53.308795 
L 249.852083 -66.951777 
L 246.740141 -55.775518 
L 245.482101 -88.365776 
L 244.216271 -153.449546 
L 242.302597 -54.667311 
L 239.722361 -72.049844 
L 237.108169 -53.107649 
L 236.449157 -56.313149 
L 235.124418 -55.215483 
L 234.458646 -61.202072 
L 233.790574 -54.092682 
L 229.047609 -56.449449 
L 228.360239 -51.826143 
L 224.181845 -57.090215 
L 222.767697 -173.749088 
L 220.625596 -54.634101 
L 218.457632 -54.378515 
L 217.729066 -54.366091 
L 214.784249 -51.89148 
L 214.040213 -52.347457 
L 211.788649 -63.829309 
L 208.739544 -52.623461 
L 206.415823 -51.535258 
L 204.848362 -53.950955 
L 202.468634 -55.356391 
L 201.667557 -53.846167 
L 200.053294 -62.951836 
L 199.239985 -51.761747 
L 193.42532 -51.680016 
L 192.57644 -52.103194 
L 189.132263 -53.56894 
L 186.495617 -62.977769 
L 185.606048 -56.526254 
L 184.710971 -52.530195 
L 179.218792 -52.254449 
L 178.28206 -52.217764 
L 177.33889 -54.378103 
L 173.499063 -53.531233 
L 170.544492 -60.403039 
L 169.544539 -245.237759 
L 166.496862 -53.463562 
L 163.373275 -51.676667 
L 157.982018 -52.398202 
L 156.873656 -52.045922 
L 154.624487 -58.733992 
L 153.48303 -51.844936 
L 148.796345 -51.037201 
L 143.896305 -57.799411 
L 142.634369 -50.821837 
L 138.750813 -50.61083 
L 137.421521 -50.662905 
L 134.706354 -51.095515 
L 131.910083 -291.894125 
L 127.54634 -50.559322 
L 122.950415 -50.386607 
L 121.360012 -54.283884 
L 112.88172 -50.892863 
L 109.195679 -54.590001 
L 107.275766 -50.480081 
L 105.298504 -50.566128 
L 98.963062 -50.766192 
L 91.843419 -50.281733 
L 89.236995 -50.18286 
L 86.481276 -50.522569 
L 76.967094 -50.216505 
L 73.175486 -50.101873 
L 63.766872 -50.67488 
L 57.113977 -49.987263 
z
" style="stroke: #ff7f0e; stroke-opacity: 0.3"/>
    </defs>
    <g clip-path="url(#pfd601a6534)">
     <use xlink:href="#mf0107dbdcf" x="0" y="311.190125" style="fill: #ff7f0e; fill-opacity: 0.3; stroke: #ff7f0e; stroke-opacity: 0.3"/>
    </g>
   </g>
   <g id="matplotlib.axis_1">
    <g id="xtick_1">
     <g id="line2d_1">
      <defs>
       <path id="ma5b2fa2584" d="M 0 0 
L 0 3.5 
" style="stroke: #000000; stroke-width: 0.8"/>
      </defs>
      <g>
       <use xlink:href="#ma5b2fa2584" x="41.052468" y="273.312" style="stroke: #000000; stroke-width: 0.8"/>
      </g>
     </g>
     <g id="text_1">
      <!-- 0.0 -->
      <g transform="translate(33.100906 287.910437) scale(0.1 -0.1)">
       <defs>
        <path id="DejaVuSans-30" d="M 2034 4250 
Q 1547 4250 1301 3770 
Q 1056 3291 1056 2328 
Q 1056 1369 1301 889 
Q 1547 409 2034 409 
Q 2525 409 2770 889 
Q 3016 1369 3016 2328 
Q 3016 3291 2770 3770 
Q 2525 4250 2034 4250 
z
M 2034 4750 
Q 2819 4750 3233 4129 
Q 3647 3509 3647 2328 
Q 3647 1150 3233 529 
Q 2819 -91 2034 -91 
Q 1250 -91 836 529 
Q 422 1150 422 2328 
Q 422 3509 836 4129 
Q 1250 4750 2034 4750 
z
" transform="scale(0.015625)"/>
        <path id="DejaVuSans-2e" d="M 684 794 
L 1344 794 
L 1344 0 
L 684 0 
L 684 794 
z
" transform="scale(0.015625)"/>
       </defs>
       <use xlink:href="#DejaVuSans-30"/>
       <use xlink:href="#DejaVuSans-2e" transform="translate(63.623047 0)"/>
       <use xlink:href="#DejaVuSans-30" transform="translate(95.410156 0)"/>
      </g>
     </g>
    </g>
    <g id="xtick_2">
     <g id="line2d_2">
      <g>
       <use xlink:href="#ma5b2fa2584" x="86.554048" y="273.312" style="stroke: #000000; stroke-width: 0.8"/>
      </g>
     </g>
     <g id="text_2">
      <!-- 2.5 -->
      <g transform="translate(78.602486 287.910437) scale(0.1 -0.1)">
       <defs>
        <path id="DejaVuSans-32" d="M 1228 531 
L 3431 531 
L 3431 0 
L 469 0 
L 469 531 
Q 828 903 1448 1529 
Q 2069 2156 2228 2338 
Q 2531 2678 2651 2914 
Q 2772 3150 2772 3378 
Q 2772 3750 2511 3984 
Q 2250 4219 1831 4219 
Q 1534 4219 1204 4116 
Q 875 4013 500 3803 
L 500 4441 
Q 881 4594 1212 4672 
Q 1544 4750 1819 4750 
Q 2544 4750 2975 4387 
Q 3406 4025 3406 3419 
Q 3406 3131 3298 2873 
Q 3191 2616 2906 2266 
Q 2828 2175 2409 1742 
Q 1991 1309 1228 531 
z
" transform="scale(0.015625)"/>
        <path id="DejaVuSans-35" d="M 691 4666 
L 3169 4666 
L 3169 4134 
L 1269 4134 
L 1269 2991 
Q 1406 3038 1543 3061 
Q 1681 3084 1819 3084 
Q 2600 3084 3056 2656 
Q 3513 2228 3513 1497 
Q 3513 744 3044 326 
Q 2575 -91 1722 -91 
Q 1428 -91 1123 -41 
Q 819 9 494 109 
L 494 744 
Q 775 591 1075 516 
Q 1375 441 1709 441 
Q 2250 441 2565 725 
Q 2881 1009 2881 1497 
Q 2881 1984 2565 2268 
Q 2250 2553 1709 2553 
Q 1456 2553 1204 2497 
Q 953 2441 691 2322 
L 691 4666 
z
" transform="scale(0.015625)"/>
       </defs>
       <use xlink:href="#DejaVuSans-32"/>
       <use xlink:href="#DejaVuSans-2e" transform="translate(63.623047 0)"/>
       <use xlink:href="#DejaVuSans-35" transform="translate(95.410156 0)"/>
      </g>
     </g>
    </g>
    <g id="xtick_3">
     <g id="line2d_3">
      <g>
       <use xlink:href="#ma5b2fa2584" x="132.055628" y="273.312" style="stroke: #000000; stroke-width: 0.8"/>
      </g>
     </g>
     <g id="text_3">
      <!-- 5.0 -->
      <g transform="translate(124.104065 287.910437) scale(0.1 -0.1)">
       <use xlink:href="#DejaVuSans-35"/>
       <use xlink:href="#DejaVuSans-2e" transform="translate(63.623047 0)"/>
       <use xlink:href="#DejaVuSans-30" transform="translate(95.410156 0)"/>
      </g>
     </g>
    </g>
    <g id="xtick_4">
     <g id="line2d_4">
      <g>
       <use xlink:href="#ma5b2fa2584" x="177.557208" y="273.312" style="stroke: #000000; stroke-width: 0.8"/>
      </g>
     </g>
     <g id="text_4">
      <!-- 7.5 -->
      <g transform="translate(169.605645 287.910437) scale(0.1 -0.1)">
       <defs>
        <path id="DejaVuSans-37" d="M 525 4666 
L 3525 4666 
L 3525 4397 
L 1831 0 
L 1172 0 
L 2766 4134 
L 525 4134 
L 525 4666 
z
" transform="scale(0.015625)"/>
       </defs>
       <use xlink:href="#DejaVuSans-37"/>
       <use xlink:href="#DejaVuSans-2e" transform="translate(63.623047 0)"/>
       <use xlink:href="#DejaVuSans-35" transform="translate(95.410156 0)"/>
      </g>
     </g>
    </g>
    <g id="xtick_5">
     <g id="line2d_5">
      <g>
       <use xlink:href="#ma5b2fa2584" x="223.058787" y="273.312" style="stroke: #000000; stroke-width: 0.8"/>
      </g>
     </g>
     <g id="text_5">
      <!-- 10.0 -->
      <g transform="translate(211.925975 287.910437) scale(0.1 -0.1)">
       <defs>
        <path id="DejaVuSans-31" d="M 794 531 
L 1825 531 
L 1825 4091 
L 703 3866 
L 703 4441 
L 1819 4666 
L 2450 4666 
L 2450 531 
L 3481 531 
L 3481 0 
L 794 0 
L 794 531 
z
" transform="scale(0.015625)"/>
       </defs>
       <use xlink:href="#DejaVuSans-31"/>
       <use xlink:href="#DejaVuSans-30" transform="translate(63.623047 0)"/>
       <use xlink:href="#DejaVuSans-2e" transform="translate(127.246094 0)"/>
       <use xlink:href="#DejaVuSans-30" transform="translate(159.033203 0)"/>
      </g>
     </g>
    </g>
    <g id="xtick_6">
     <g id="line2d_6">
      <g>
       <use xlink:href="#ma5b2fa2584" x="268.560367" y="273.312" style="stroke: #000000; stroke-width: 0.8"/>
      </g>
     </g>
     <g id="text_6">
      <!-- 12.5 -->
      <g transform="translate(257.427555 287.910437) scale(0.1 -0.1)">
       <use xlink:href="#DejaVuSans-31"/>
       <use xlink:href="#DejaVuSans-32" transform="translate(63.623047 0)"/>
       <use xlink:href="#DejaVuSans-2e" transform="translate(127.246094 0)"/>
       <use xlink:href="#DejaVuSans-35" transform="translate(159.033203 0)"/>
      </g>
     </g>
    </g>
    <g id="xtick_7">
     <g id="line2d_7">
      <g>
       <use xlink:href="#ma5b2fa2584" x="314.061947" y="273.312" style="stroke: #000000; stroke-width: 0.8"/>
      </g>
     </g>
     <g id="text_7">
      <!-- 15.0 -->
      <g transform="translate(302.929134 287.910437) scale(0.1 -0.1)">
       <use xlink:href="#DejaVuSans-31"/>
       <use xlink:href="#DejaVuSans-35" transform="translate(63.623047 0)"/>
       <use xlink:href="#DejaVuSans-2e" transform="translate(127.246094 0)"/>
       <use xlink:href="#DejaVuSans-30" transform="translate(159.033203 0)"/>
      </g>
     </g>
    </g>
    <g id="xtick_8">
     <g id="line2d_8">
      <g>
       <use xlink:href="#ma5b2fa2584" x="359.563526" y="273.312" style="stroke: #000000; stroke-width: 0.8"/>
      </g>
     </g>
     <g id="text_8">
      <!-- 17.5 -->
      <g transform="translate(348.430714 287.910437) scale(0.1 -0.1)">
       <use xlink:href="#DejaVuSans-31"/>
       <use xlink:href="#DejaVuSans-37" transform="translate(63.623047 0)"/>
       <use xlink:href="#DejaVuSans-2e" transform="translate(127.246094 0)"/>
       <use xlink:href="#DejaVuSans-35" transform="translate(159.033203 0)"/>
      </g>
     </g>
    </g>
    <g id="text_9">
     <!-- |k_xy| (reduced units) -->
     <g transform="translate(165.024844 301.632312) scale(0.1 -0.1)">
      <defs>
       <path id="DejaVuSans-7c" d="M 1344 4891 
L 1344 -1509 
L 813 -1509 
L 813 4891 
L 1344 4891 
z
" transform="scale(0.015625)"/>
       <path id="DejaVuSans-6b" d="M 581 4863 
L 1159 4863 
L 1159 1991 
L 2875 3500 
L 3609 3500 
L 1753 1863 
L 3688 0 
L 2938 0 
L 1159 1709 
L 1159 0 
L 581 0 
L 581 4863 
z
" transform="scale(0.015625)"/>
       <path id="DejaVuSans-5f" d="M 3263 -1063 
L 3263 -1509 
L -63 -1509 
L -63 -1063 
L 3263 -1063 
z
" transform="scale(0.015625)"/>
       <path id="DejaVuSans-78" d="M 3513 3500 
L 2247 1797 
L 3578 0 
L 2900 0 
L 1881 1375 
L 863 0 
L 184 0 
L 1544 1831 
L 300 3500 
L 978 3500 
L 1906 2253 
L 2834 3500 
L 3513 3500 
z
" transform="scale(0.015625)"/>
       <path id="DejaVuSans-79" d="M 2059 -325 
Q 1816 -950 1584 -1140 
Q 1353 -1331 966 -1331 
L 506 -1331 
L 506 -850 
L 844 -850 
Q 1081 -850 1212 -737 
Q 1344 -625 1503 -206 
L 1606 56 
L 191 3500 
L 800 3500 
L 1894 763 
L 2988 3500 
L 3597 3500 
L 2059 -325 
z
" transform="scale(0.015625)"/>
       <path id="DejaVuSans-20" transform="scale(0.015625)"/>
       <path id="DejaVuSans-28" d="M 1984 4856 
Q 1566 4138 1362 3434 
Q 1159 2731 1159 2009 
Q 1159 1288 1364 580 
Q 1569 -128 1984 -844 
L 1484 -844 
Q 1016 -109 783 600 
Q 550 1309 550 2009 
Q 550 2706 781 3412 
Q 1013 4119 1484 4856 
L 1984 4856 
z
" transform="scale(0.015625)"/>
       <path id="DejaVuSans-72" d="M 2631 2963 
Q 2534 3019 2420 3045 
Q 2306 3072 2169 3072 
Q 1681 3072 1420 2755 
Q 1159 2438 1159 1844 
L 1159 0 
L 581 0 
L 581 3500 
L 1159 3500 
L 1159 2956 
Q 1341 3275 1631 3429 
Q 1922 3584 2338 3584 
Q 2397 3584 2469 3576 
Q 2541 3569 2628 3553 
L 2631 2963 
z
" transform="scale(0.015625)"/>
       <path id="DejaVuSans-65" d="M 3597 1894 
L 3597 1613 
L 953 1613 
Q 991 1019 1311 708 
Q 1631 397 2203 397 
Q 2534 397 2845 478 
Q 3156 559 3463 722 
L 3463 178 
Q 3153 47 2828 -22 
Q 2503 -91 2169 -91 
Q 1331 -91 842 396 
Q 353 884 353 1716 
Q 353 2575 817 3079 
Q 1281 3584 2069 3584 
Q 2775 3584 3186 3129 
Q 3597 2675 3597 1894 
z
M 3022 2063 
Q 3016 2534 2758 2815 
Q 2500 3097 2075 3097 
Q 1594 3097 1305 2825 
Q 1016 2553 972 2059 
L 3022 2063 
z
" transform="scale(0.015625)"/>
       <path id="DejaVuSans-64" d="M 2906 2969 
L 2906 4863 
L 3481 4863 
L 3481 0 
L 2906 0 
L 2906 525 
Q 2725 213 2448 61 
Q 2172 -91 1784 -91 
Q 1150 -91 751 415 
Q 353 922 353 1747 
Q 353 2572 751 3078 
Q 1150 3584 1784 3584 
Q 2172 3584 2448 3432 
Q 2725 3281 2906 2969 
z
M 947 1747 
Q 947 1113 1208 752 
Q 1469 391 1925 391 
Q 2381 391 2643 752 
Q 2906 1113 2906 1747 
Q 2906 2381 2643 2742 
Q 2381 3103 1925 3103 
Q 1469 3103 1208 2742 
Q 947 2381 947 1747 
z
" transform="scale(0.015625)"/>
       <path id="DejaVuSans-75" d="M 544 1381 
L 544 3500 
L 1119 3500 
L 1119 1403 
Q 1119 906 1312 657 
Q 1506 409 1894 409 
Q 2359 409 2629 706 
Q 2900 1003 2900 1516 
L 2900 3500 
L 3475 3500 
L 3475 0 
L 2900 0 
L 2900 538 
Q 2691 219 2414 64 
Q 2138 -91 1772 -91 
Q 1169 -91 856 284 
Q 544 659 544 1381 
z
M 1991 3584 
L 1991 3584 
z
" transform="scale(0.015625)"/>
       <path id="DejaVuSans-63" d="M 3122 3366 
L 3122 2828 
Q 2878 2963 2633 3030 
Q 2388 3097 2138 3097 
Q 1578 3097 1268 2742 
Q 959 2388 959 1747 
Q 959 1106 1268 751 
Q 1578 397 2138 397 
Q 2388 397 2633 464 
Q 2878 531 3122 666 
L 3122 134 
Q 2881 22 2623 -34 
Q 2366 -91 2075 -91 
Q 1284 -91 818 406 
Q 353 903 353 1747 
Q 353 2603 823 3093 
Q 1294 3584 2113 3584 
Q 2378 3584 2631 3529 
Q 2884 3475 3122 3366 
z
" transform="scale(0.015625)"/>
       <path id="DejaVuSans-6e" d="M 3513 2113 
L 3513 0 
L 2938 0 
L 2938 2094 
Q 2938 2591 2744 2837 
Q 2550 3084 2163 3084 
Q 1697 3084 1428 2787 
Q 1159 2491 1159 1978 
L 1159 0 
L 581 0 
L 581 3500 
L 1159 3500 
L 1159 2956 
Q 1366 3272 1645 3428 
Q 1925 3584 2291 3584 
Q 2894 3584 3203 3211 
Q 3513 2838 3513 2113 
z
" transform="scale(0.015625)"/>
       <path id="DejaVuSans-69" d="M 603 3500 
L 1178 3500 
L 1178 0 
L 603 0 
L 603 3500 
z
M 603 4863 
L 1178 4863 
L 1178 4134 
L 603 4134 
L 603 4863 
z
" transform="scale(0.015625)"/>
       <path id="DejaVuSans-74" d="M 1172 4494 
L 1172 3500 
L 2356 3500 
L 2356 3053 
L 1172 3053 
L 1172 1153 
Q 1172 725 1289 603 
Q 1406 481 1766 481 
L 2356 481 
L 2356 0 
L 1766 0 
Q 1100 0 847 248 
Q 594 497 594 1153 
L 594 3053 
L 172 3053 
L 172 3500 
L 594 3500 
L 594 4494 
L 1172 4494 
z
" transform="scale(0.015625)"/>
       <path id="DejaVuSans-73" d="M 2834 3397 
L 2834 2853 
Q 2591 2978 2328 3040 
Q 2066 3103 1784 3103 
Q 1356 3103 1142 2972 
Q 928 2841 928 2578 
Q 928 2378 1081 2264 
Q 1234 2150 1697 2047 
L 1894 2003 
Q 2506 1872 2764 1633 
Q 3022 1394 3022 966 
Q 3022 478 2636 193 
Q 2250 -91 1575 -91 
Q 1294 -91 989 -36 
Q 684 19 347 128 
L 347 722 
Q 666 556 975 473 
Q 1284 391 1588 391 
Q 1994 391 2212 530 
Q 2431 669 2431 922 
Q 2431 1156 2273 1281 
Q 2116 1406 1581 1522 
L 1381 1569 
Q 847 1681 609 1914 
Q 372 2147 372 2553 
Q 372 3047 722 3315 
Q 1072 3584 1716 3584 
Q 2034 3584 2315 3537 
Q 2597 3491 2834 3397 
z
" transform="scale(0.015625)"/>
       <path id="DejaVuSans-29" d="M 513 4856 
L 1013 4856 
Q 1481 4119 1714 3412 
Q 1947 2706 1947 2009 
Q 1947 1309 1714 600 
Q 1481 -109 1013 -844 
L 513 -844 
Q 928 -128 1133 580 
Q 1338 1288 1338 2009 
Q 1338 2731 1133 3434 
Q 928 4138 513 4856 
z
" transform="scale(0.015625)"/>
      </defs>
      <use xlink:href="#DejaVuSans-7c"/>
      <use xlink:href="#DejaVuSans-6b" transform="translate(33.691406 0)"/>
      <use xlink:href="#DejaVuSans-5f" transform="translate(91.601562 0)"/>
      <use xlink:href="#DejaVuSans-78" transform="translate(141.601562 0)"/>
      <use xlink:href="#DejaVuSans-79" transform="translate(200.78125 0)"/>
      <use xlink:href="#DejaVuSans-7c" transform="translate(259.960938 0)"/>
      <use xlink:href="#DejaVuSans-20" transform="translate(293.652344 0)"/>
      <use xlink:href="#DejaVuSans-28" transform="translate(325.439453 0)"/>
      <use xlink:href="#DejaVuSans-72" transform="translate(364.453125 0)"/>
      <use xlink:href="#DejaVuSans-65" transform="translate(403.316406 0)"/>
      <use xlink:href="#DejaVuSans-64" transform="translate(464.839844 0)"/>
      <use xlink:href="#DejaVuSans-75" transform="translate(528.316406 0)"/>
      <use xlink:href="#DejaVuSans-63" transform="translate(591.695312 0)"/>
      <use xlink:href="#DejaVuSans-65" transform="translate(646.675781 0)"/>
      <use xlink:href="#DejaVuSans-64" transform="translate(708.199219 0)"/>
      <use xlink:href="#DejaVuSans-20" transform="translate(771.675781 0)"/>
      <use xlink:href="#DejaVuSans-75" transform="translate(803.462891 0)"/>
      <use xlink:href="#DejaVuSans-6e" transform="translate(866.841797 0)"/>
      <use xlink:href="#DejaVuSans-69" transform="translate(930.220703 0)"/>
      <use xlink:href="#DejaVuSans-74" transform="translate(958.003906 0)"/>
      <use xlink:href="#DejaVuSans-73" transform="translate(997.212891 0)"/>
      <use xlink:href="#DejaVuSans-29" transform="translate(1049.3125 0)"/>
     </g>
    </g>
   </g>
   <g id="matplotlib.axis_2">
    <g id="ytick_1">
     <g id="line2d_9">
      <defs>
       <path id="m80033b6ed9" d="M 0 0 
L -3.5 0 
" style="stroke: #000000; stroke-width: 0.8"/>
      </defs>
      <g>
       <use xlink:href="#m80033b6ed9" x="40.88125" y="261.340926" style="stroke: #000000; stroke-width: 0.8"/>
      </g>
     </g>
     <g id="text_10">
      <!-- 0 -->
      <g transform="translate(27.51875 265.140145) scale(0.1 -0.1)">
       <use xlink:href="#DejaVuSans-30"/>
      </g>
     </g>
    </g>
    <g id="ytick_2">
     <g id="line2d_10">
      <g>
       <use xlink:href="#m80033b6ed9" x="40.88125" y="213.606376" style="stroke: #000000; stroke-width: 0.8"/>
      </g>
     </g>
     <g id="text_11">
      <!-- 5 -->
      <g transform="translate(27.51875 217.405594) scale(0.1 -0.1)">
       <use xlink:href="#DejaVuSans-35"/>
      </g>
     </g>
    </g>
    <g id="ytick_3">
     <g id="line2d_11">
      <g>
       <use xlink:href="#m80033b6ed9" x="40.88125" y="165.871825" style="stroke: #000000; stroke-width: 0.8"/>
      </g>
     </g>
     <g id="text_12">
      <!-- 10 -->
      <g transform="translate(21.15625 169.671044) scale(0.1 -0.1)">
       <use xlink:href="#DejaVuSans-31"/>
       <use xlink:href="#DejaVuSans-30" transform="translate(63.623047 0)"/>
      </g>
     </g>
    </g>
    <g id="ytick_4">
     <g id="line2d_12">
      <g>
       <use xlink:href="#m80033b6ed9" x="40.88125" y="118.137274" style="stroke: #000000; stroke-width: 0.8"/>
      </g>
     </g>
     <g id="text_13">
      <!-- 15 -->
      <g transform="translate(21.15625 121.936493) scale(0.1 -0.1)">
       <use xlink:href="#DejaVuSans-31"/>
       <use xlink:href="#DejaVuSans-35" transform="translate(63.623047 0)"/>
      </g>
     </g>
    </g>
    <g id="ytick_5">
     <g id="line2d_13">
      <g>
       <use xlink:href="#m80033b6ed9" x="40.88125" y="70.402723" style="stroke: #000000; stroke-width: 0.8"/>
      </g>
     </g>
     <g id="text_14">
      <!-- 20 -->
      <g transform="translate(21.15625 74.201942) scale(0.1 -0.1)">
       <use xlink:href="#DejaVuSans-32"/>
       <use xlink:href="#DejaVuSans-30" transform="translate(63.623047 0)"/>
      </g>
     </g>
    </g>
    <g id="ytick_6">
     <g id="line2d_14">
      <g>
       <use xlink:href="#m80033b6ed9" x="40.88125" y="22.668172" style="stroke: #000000; stroke-width: 0.8"/>
      </g>
     </g>
     <g id="text_15">
      <!-- 25 -->
      <g transform="translate(21.15625 26.467391) scale(0.1 -0.1)">
       <use xlink:href="#DejaVuSans-32"/>
       <use xlink:href="#DejaVuSans-35" transform="translate(63.623047 0)"/>
      </g>
     </g>
    </g>
    <g id="text_16">
     <!-- S_xy(k) -->
     <g transform="translate(14.798438 158.645844) rotate(-90) scale(0.1 -0.1)">
      <defs>
       <path id="DejaVuSans-53" d="M 3425 4513 
L 3425 3897 
Q 3066 4069 2747 4153 
Q 2428 4238 2131 4238 
Q 1616 4238 1336 4038 
Q 1056 3838 1056 3469 
Q 1056 3159 1242 3001 
Q 1428 2844 1947 2747 
L 2328 2669 
Q 3034 2534 3370 2195 
Q 3706 1856 3706 1288 
Q 3706 609 3251 259 
Q 2797 -91 1919 -91 
Q 1588 -91 1214 -16 
Q 841 59 441 206 
L 441 856 
Q 825 641 1194 531 
Q 1563 422 1919 422 
Q 2459 422 2753 634 
Q 3047 847 3047 1241 
Q 3047 1584 2836 1778 
Q 2625 1972 2144 2069 
L 1759 2144 
Q 1053 2284 737 2584 
Q 422 2884 422 3419 
Q 422 4038 858 4394 
Q 1294 4750 2059 4750 
Q 2388 4750 2728 4690 
Q 3069 4631 3425 4513 
z
" transform="scale(0.015625)"/>
      </defs>
      <use xlink:href="#DejaVuSans-53"/>
      <use xlink:href="#DejaVuSans-5f" transform="translate(63.476562 0)"/>
      <use xlink:href="#DejaVuSans-78" transform="translate(113.476562 0)"/>
      <use xlink:href="#DejaVuSans-79" transform="translate(172.65625 0)"/>
      <use xlink:href="#DejaVuSans-28" transform="translate(231.835938 0)"/>
      <use xlink:href="#DejaVuSans-6b" transform="translate(270.849609 0)"/>
      <use xlink:href="#DejaVuSans-29" transform="translate(328.759766 0)"/>
     </g>
    </g>
   </g>
   <g id="line2d_15">
    <path d="M 57.113977 261.209431 
L 63.766872 260.588291 
L 73.175486 261.116767 
L 76.967094 261.024155 
L 86.481276 260.743463 
L 89.236995 261.041567 
L 91.843419 260.93978 
L 98.963062 260.523394 
L 105.298504 260.700484 
L 107.275766 260.75438 
L 109.195679 256.938331 
L 112.88172 260.360949 
L 121.360012 257.507274 
L 122.950415 260.818418 
L 127.54634 260.665348 
L 131.910083 23.907384 
L 134.706354 260.146943 
L 137.421521 260.579413 
L 138.750813 260.624666 
L 142.634369 260.448848 
L 143.896305 254.332397 
L 148.796345 260.244694 
L 153.48303 259.457732 
L 154.624487 253.33915 
L 156.873656 259.259595 
L 157.982018 259.02734 
L 163.373275 259.614712 
L 166.496862 258.24001 
L 169.544539 73.204296 
L 170.544492 251.957698 
L 173.499063 257.816025 
L 177.33889 257.160064 
L 178.28206 259.115616 
L 179.218792 259.070073 
L 184.710971 258.973704 
L 185.606048 255.69282 
L 186.495617 249.333036 
L 189.132263 257.915171 
L 192.57644 259.191956 
L 193.42532 259.60787 
L 199.239985 259.553971 
L 200.053294 249.282857 
L 201.667557 257.684749 
L 202.468634 256.715407 
L 204.848362 257.533013 
L 206.415823 259.765862 
L 208.739544 258.687317 
L 211.788649 249.077729 
L 214.040213 259.00753 
L 214.784249 259.379546 
L 217.729066 257.447618 
L 218.457632 257.067613 
L 220.625596 257.054563 
L 222.767697 146.832272 
L 224.181845 254.44319 
L 228.360239 259.44707 
L 229.047609 254.946368 
L 233.790574 257.665726 
L 234.458646 251.006156 
L 235.124418 256.533619 
L 236.449157 255.302065 
L 237.108169 258.268156 
L 239.722361 241.920504 
L 242.302597 256.872037 
L 244.216271 167.126085 
L 245.482101 228.094429 
L 246.740141 255.68125 
L 249.852083 245.904383 
L 250.468922 258.00064 
L 252.308634 257.861729 
L 255.339724 253.950893 
L 256.540222 254.509427 
L 257.13797 252.63013 
L 259.512607 251.927585 
L 264.18608 256.191362 
L 264.7634 235.406815 
L 265.913592 258.16028 
L 266.486487 258.311822 
L 268.196505 255.870246 
L 269.3294 256.191822 
L 271.018278 254.396717 
L 272.694843 256.816724 
L 274.911567 252.042105 
L 278.197804 256.976454 
L 279.823963 252.6211 
L 281.975101 256.135381 
L 282.509891 252.998142 
L 284.107201 253.231827 
L 285.694082 253.156363 
L 286.22076 257.399482 
L 286.746309 254.588525 
L 290.394137 253.884864 
L 290.910908 250.034997 
L 291.941257 255.850014 
L 292.454847 255.711274 
L 295.007221 255.995347 
L 300.036517 256.609713 
L 300.534085 252.275954 
L 302.514889 249.474052 
L 304.4808 257.434465 
L 306.917746 250.660036 
L 308.369251 257.3634 
L 313.625312 225.186091 
L 314.098119 252.022813 
L 314.570108 255.628577 
L 317.385115 257.740184 
L 322.014124 255.364761 
L 325.209567 243.716274 
L 327.019503 256.043954 
L 330.605437 255.099296 
L 336.339715 226.752393 
L 337.212058 252.687975 
L 339.813803 254.632182 
L 347.907164 247.414566 
L 349.583978 252.466576 
L 359.054119 250.407639 
L 359.864316 253.074811 
L 370.607077 252.347581 
L 381.768523 252.776419 
" clip-path="url(#pfd601a6534)" style="fill: none; stroke: #ff7f0e; stroke-width: 1.5; stroke-linecap: square"/>
   </g>
   <g id="line2d_16">
    <path d="M 40.88125 251.794016 
L 398.00125 251.794016 
" clip-path="url(#pfd601a6534)" style="fill: none; stroke-dasharray: 5.55,2.4; stroke-dashoffset: 0; stroke: #000000; stroke-opacity: 0.4; stroke-width: 1.5"/>
   </g>
   <g id="patch_3">
    <path d="M 40.88125 273.312 
L 40.88125 7.2 
" style="fill: none; stroke: #000000; stroke-width: 0.8; stroke-linejoin: miter; stroke-linecap: square"/>
   </g>
   <g id="patch_4">
    <path d="M 398.00125 273.312 
L 398.00125 7.2 
" style="fill: none; stroke: #000000; stroke-width: 0.8; stroke-linejoin: miter; stroke-linecap: square"/>
   </g>
   <g id="patch_5">
    <path d="M 40.88125 273.312 
L 398.00125 273.312 
" style="fill: none; stroke: #000000; stroke-width: 0.8; stroke-linejoin: miter; stroke-linecap: square"/>
   </g>
   <g id="patch_6">
    <path d="M 40.88125 7.2 
L 398.00125 7.2 
" style="fill: none; stroke: #000000; stroke-width: 0.8; stroke-linejoin: miter; stroke-linecap: square"/>
   </g>
   <g id="legend_1">
    <g id="patch_7">
     <path d="M 324.840313 44.55625 
L 391.00125 44.55625 
Q 393.00125 44.55625 393.00125 42.55625 
L 393.00125 14.2 
Q 393.00125 12.2 391.00125 12.2 
L 324.840313 12.2 
Q 322.840313 12.2 322.840313 14.2 
L 322.840313 42.55625 
Q 322.840313 44.55625 324.840313 44.55625 
z
" style="fill: #ffffff; opacity: 0.8; stroke: #cccccc; stroke-linejoin: miter"/>
    </g>
    <g id="line2d_17">
     <path d="M 326.840313 20.298437 
L 336.840313 20.298437 
L 346.840313 20.298437 
" style="fill: none; stroke: #ff7f0e; stroke-width: 1.5; stroke-linecap: square"/>
    </g>
    <g id="text_17">
     <!-- Mean -->
     <g transform="translate(354.840313 23.798437) scale(0.1 -0.1)">
      <defs>
       <path id="DejaVuSans-4d" d="M 628 4666 
L 1569 4666 
L 2759 1491 
L 3956 4666 
L 4897 4666 
L 4897 0 
L 4281 0 
L 4281 4097 
L 3078 897 
L 2444 897 
L 1241 4097 
L 1241 0 
L 628 0 
L 628 4666 
z
" transform="scale(0.015625)"/>
       <path id="DejaVuSans-61" d="M 2194 1759 
Q 1497 1759 1228 1600 
Q 959 1441 959 1056 
Q 959 750 1161 570 
Q 1363 391 1709 391 
Q 2188 391 2477 730 
Q 2766 1069 2766 1631 
L 2766 1759 
L 2194 1759 
z
M 3341 1997 
L 3341 0 
L 2766 0 
L 2766 531 
Q 2569 213 2275 61 
Q 1981 -91 1556 -91 
Q 1019 -91 701 211 
Q 384 513 384 1019 
Q 384 1609 779 1909 
Q 1175 2209 1959 2209 
L 2766 2209 
L 2766 2266 
Q 2766 2663 2505 2880 
Q 2244 3097 1772 3097 
Q 1472 3097 1187 3025 
Q 903 2953 641 2809 
L 641 3341 
Q 956 3463 1253 3523 
Q 1550 3584 1831 3584 
Q 2591 3584 2966 3190 
Q 3341 2797 3341 1997 
z
" transform="scale(0.015625)"/>
      </defs>
      <use xlink:href="#DejaVuSans-4d"/>
      <use xlink:href="#DejaVuSans-65" transform="translate(86.279297 0)"/>
      <use xlink:href="#DejaVuSans-61" transform="translate(147.802734 0)"/>
      <use xlink:href="#DejaVuSans-6e" transform="translate(209.082031 0)"/>
     </g>
    </g>
    <g id="patch_8">
     <path d="M 326.840313 38.476562 
L 346.840313 38.476562 
L 346.840313 31.476562 
L 326.840313 31.476562 
z
" style="fill: #ff7f0e; fill-opacity: 0.3; stroke: #ff7f0e; stroke-opacity: 0.3; stroke-linejoin: miter"/>
    </g>
    <g id="text_18">
     <!-- Std Err -->
     <g transform="translate(354.840313 38.476562) scale(0.1 -0.1)">
      <defs>
       <path id="DejaVuSans-45" d="M 628 4666 
L 3578 4666 
L 3578 4134 
L 1259 4134 
L 1259 2753 
L 3481 2753 
L 3481 2222 
L 1259 2222 
L 1259 531 
L 3634 531 
L 3634 0 
L 628 0 
L 628 4666 
z
" transform="scale(0.015625)"/>
      </defs>
      <use xlink:href="#DejaVuSans-53"/>
      <use xlink:href="#DejaVuSans-74" transform="translate(63.476562 0)"/>
      <use xlink:href="#DejaVuSans-64" transform="translate(102.685547 0)"/>
      <use xlink:href="#DejaVuSans-20" transform="translate(166.162109 0)"/>
      <use xlink:href="#DejaVuSans-45" transform="translate(197.949219 0)"/>
      <use xlink:href="#DejaVuSans-72" transform="translate(261.132812 0)"/>
      <use xlink:href="#DejaVuSans-72" transform="translate(300.496094 0)"/>
     </g>
    </g>
   </g>
  </g>
 </g>
 <defs>
  <clipPath id="pfd601a6534">
   <rect x="40.88125" y="7.2" width="357.12" height="266.112"/>
  </clipPath>
 </defs>
</svg>
