<?xml version="1.0" encoding="utf-8" standalone="no"?>
<!DOCTYPE svg PUBLIC "-//W3C//DTD SVG 1.1//EN"
  "http://www.w3.org/Graphics/SVG/1.1/DTD/svg11.dtd">
<svg xmlns:xlink="http://www.w3.org/1999/xlink" width="426.027812pt" height="325.986375pt" viewBox="0 0 426.027812 325.986375" xmlns="http://www.w3.org/2000/svg" version="1.1">
 <metadata>
  <rdf:RDF xmlns:dc="http://purl.org/dc/elements/1.1/" xmlns:cc="http://creativecommons.org/ns#" xmlns:rdf="http://www.w3.org/1999/02/22-rdf-syntax-ns#">
   <cc:Work>
    <dc:type rdf:resource="http://purl.org/dc/dcmitype/StillImage"/>
    <dc:date>2025-12-10T14:45:58.718333</dc:date>
    <dc:format>image/svg+xml</dc:format>
    <dc:creator>
     <cc:Agent>
      <dc:title>Matplotlib v3.10.1, https://matplotlib.org/</dc:title>
     </cc:Agent>
    </dc:creator>
   </cc:Work>
  </rdf:RDF>
 </metadata>
 <defs>
  <style type="text/css">*{stroke-linejoin: round; stroke-linecap: butt}</style>
 </defs>
 <g id="figure_1">
  <g id="patch_1">
   <path d="M 0 325.986375 
L 426.027812 325.986375 
L 426.027812 0 
L 0 0 
z
" style="fill: #ffffff"/>
  </g>
  <g id="axes_1">
   <g id="patch_2">
    <path d="M 61.707813 288.430125 
L 418.827813 288.430125 
L 418.827813 22.318125 
L 61.707813 22.318125 
z
" style="fill: #ffffff"/>
   </g>
   <g id="matplotlib.axis_1">
    <g id="xtick_1">
     <g id="line2d_1">
      <defs>
       <path id="md9bc36732f" d="M 0 0 
L 0 3.5 
" style="stroke: #000000; stroke-width: 0.8"/>
      </defs>
      <g>
       <use xlink:href="#md9bc36732f" x="77.94054" y="288.430125" style="stroke: #000000; stroke-width: 0.8"/>
      </g>
     </g>
     <g id="text_1">
      <!-- 0.0 -->
      <g transform="translate(69.988977 303.028562) scale(0.1 -0.1)">
       <defs>
        <path id="DejaVuSans-30" d="M 2034 4250 
Q 1547 4250 1301 3770 
Q 1056 3291 1056 2328 
Q 1056 1369 1301 889 
Q 1547 409 2034 409 
Q 2525 409 2770 889 
Q 3016 1369 3016 2328 
Q 3016 3291 2770 3770 
Q 2525 4250 2034 4250 
z
M 2034 4750 
Q 2819 4750 3233 4129 
Q 3647 3509 3647 2328 
Q 3647 1150 3233 529 
Q 2819 -91 2034 -91 
Q 1250 -91 836 529 
Q 422 1150 422 2328 
Q 422 3509 836 4129 
Q 1250 4750 2034 4750 
z
" transform="scale(0.015625)"/>
        <path id="DejaVuSans-2e" d="M 684 794 
L 1344 794 
L 1344 0 
L 684 0 
L 684 794 
z
" transform="scale(0.015625)"/>
       </defs>
       <use xlink:href="#DejaVuSans-30"/>
       <use xlink:href="#DejaVuSans-2e" transform="translate(63.623047 0)"/>
       <use xlink:href="#DejaVuSans-30" transform="translate(95.410156 0)"/>
      </g>
     </g>
    </g>
    <g id="xtick_2">
     <g id="line2d_2">
      <g>
       <use xlink:href="#md9bc36732f" x="118.56298" y="288.430125" style="stroke: #000000; stroke-width: 0.8"/>
      </g>
     </g>
     <g id="text_2">
      <!-- 2.5 -->
      <g transform="translate(110.611418 303.028562) scale(0.1 -0.1)">
       <defs>
        <path id="DejaVuSans-32" d="M 1228 531 
L 3431 531 
L 3431 0 
L 469 0 
L 469 531 
Q 828 903 1448 1529 
Q 2069 2156 2228 2338 
Q 2531 2678 2651 2914 
Q 2772 3150 2772 3378 
Q 2772 3750 2511 3984 
Q 2250 4219 1831 4219 
Q 1534 4219 1204 4116 
Q 875 4013 500 3803 
L 500 4441 
Q 881 4594 1212 4672 
Q 1544 4750 1819 4750 
Q 2544 4750 2975 4387 
Q 3406 4025 3406 3419 
Q 3406 3131 3298 2873 
Q 3191 2616 2906 2266 
Q 2828 2175 2409 1742 
Q 1991 1309 1228 531 
z
" transform="scale(0.015625)"/>
        <path id="DejaVuSans-35" d="M 691 4666 
L 3169 4666 
L 3169 4134 
L 1269 4134 
L 1269 2991 
Q 1406 3038 1543 3061 
Q 1681 3084 1819 3084 
Q 2600 3084 3056 2656 
Q 3513 2228 3513 1497 
Q 3513 744 3044 326 
Q 2575 -91 1722 -91 
Q 1428 -91 1123 -41 
Q 819 9 494 109 
L 494 744 
Q 775 591 1075 516 
Q 1375 441 1709 441 
Q 2250 441 2565 725 
Q 2881 1009 2881 1497 
Q 2881 1984 2565 2268 
Q 2250 2553 1709 2553 
Q 1456 2553 1204 2497 
Q 953 2441 691 2322 
L 691 4666 
z
" transform="scale(0.015625)"/>
       </defs>
       <use xlink:href="#DejaVuSans-32"/>
       <use xlink:href="#DejaVuSans-2e" transform="translate(63.623047 0)"/>
       <use xlink:href="#DejaVuSans-35" transform="translate(95.410156 0)"/>
      </g>
     </g>
    </g>
    <g id="xtick_3">
     <g id="line2d_3">
      <g>
       <use xlink:href="#md9bc36732f" x="159.185421" y="288.430125" style="stroke: #000000; stroke-width: 0.8"/>
      </g>
     </g>
     <g id="text_3">
      <!-- 5.0 -->
      <g transform="translate(151.233859 303.028562) scale(0.1 -0.1)">
       <use xlink:href="#DejaVuSans-35"/>
       <use xlink:href="#DejaVuSans-2e" transform="translate(63.623047 0)"/>
       <use xlink:href="#DejaVuSans-30" transform="translate(95.410156 0)"/>
      </g>
     </g>
    </g>
    <g id="xtick_4">
     <g id="line2d_4">
      <g>
       <use xlink:href="#md9bc36732f" x="199.807862" y="288.430125" style="stroke: #000000; stroke-width: 0.8"/>
      </g>
     </g>
     <g id="text_4">
      <!-- 7.5 -->
      <g transform="translate(191.856299 303.028562) scale(0.1 -0.1)">
       <defs>
        <path id="DejaVuSans-37" d="M 525 4666 
L 3525 4666 
L 3525 4397 
L 1831 0 
L 1172 0 
L 2766 4134 
L 525 4134 
L 525 4666 
z
" transform="scale(0.015625)"/>
       </defs>
       <use xlink:href="#DejaVuSans-37"/>
       <use xlink:href="#DejaVuSans-2e" transform="translate(63.623047 0)"/>
       <use xlink:href="#DejaVuSans-35" transform="translate(95.410156 0)"/>
      </g>
     </g>
    </g>
    <g id="xtick_5">
     <g id="line2d_5">
      <g>
       <use xlink:href="#md9bc36732f" x="240.430302" y="288.430125" style="stroke: #000000; stroke-width: 0.8"/>
      </g>
     </g>
     <g id="text_5">
      <!-- 10.0 -->
      <g transform="translate(229.29749 303.028562) scale(0.1 -0.1)">
       <defs>
        <path id="DejaVuSans-31" d="M 794 531 
L 1825 531 
L 1825 4091 
L 703 3866 
L 703 4441 
L 1819 4666 
L 2450 4666 
L 2450 531 
L 3481 531 
L 3481 0 
L 794 0 
L 794 531 
z
" transform="scale(0.015625)"/>
       </defs>
       <use xlink:href="#DejaVuSans-31"/>
       <use xlink:href="#DejaVuSans-30" transform="translate(63.623047 0)"/>
       <use xlink:href="#DejaVuSans-2e" transform="translate(127.246094 0)"/>
       <use xlink:href="#DejaVuSans-30" transform="translate(159.033203 0)"/>
      </g>
     </g>
    </g>
    <g id="xtick_6">
     <g id="line2d_6">
      <g>
       <use xlink:href="#md9bc36732f" x="281.052743" y="288.430125" style="stroke: #000000; stroke-width: 0.8"/>
      </g>
     </g>
     <g id="text_6">
      <!-- 12.5 -->
      <g transform="translate(269.91993 303.028562) scale(0.1 -0.1)">
       <use xlink:href="#DejaVuSans-31"/>
       <use xlink:href="#DejaVuSans-32" transform="translate(63.623047 0)"/>
       <use xlink:href="#DejaVuSans-2e" transform="translate(127.246094 0)"/>
       <use xlink:href="#DejaVuSans-35" transform="translate(159.033203 0)"/>
      </g>
     </g>
    </g>
    <g id="xtick_7">
     <g id="line2d_7">
      <g>
       <use xlink:href="#md9bc36732f" x="321.675184" y="288.430125" style="stroke: #000000; stroke-width: 0.8"/>
      </g>
     </g>
     <g id="text_7">
      <!-- 15.0 -->
      <g transform="translate(310.542371 303.028562) scale(0.1 -0.1)">
       <use xlink:href="#DejaVuSans-31"/>
       <use xlink:href="#DejaVuSans-35" transform="translate(63.623047 0)"/>
       <use xlink:href="#DejaVuSans-2e" transform="translate(127.246094 0)"/>
       <use xlink:href="#DejaVuSans-30" transform="translate(159.033203 0)"/>
      </g>
     </g>
    </g>
    <g id="xtick_8">
     <g id="line2d_8">
      <g>
       <use xlink:href="#md9bc36732f" x="362.297624" y="288.430125" style="stroke: #000000; stroke-width: 0.8"/>
      </g>
     </g>
     <g id="text_8">
      <!-- 17.5 -->
      <g transform="translate(351.164812 303.028562) scale(0.1 -0.1)">
       <use xlink:href="#DejaVuSans-31"/>
       <use xlink:href="#DejaVuSans-37" transform="translate(63.623047 0)"/>
       <use xlink:href="#DejaVuSans-2e" transform="translate(127.246094 0)"/>
       <use xlink:href="#DejaVuSans-35" transform="translate(159.033203 0)"/>
      </g>
     </g>
    </g>
    <g id="xtick_9">
     <g id="line2d_9">
      <g>
       <use xlink:href="#md9bc36732f" x="402.920065" y="288.430125" style="stroke: #000000; stroke-width: 0.8"/>
      </g>
     </g>
     <g id="text_9">
      <!-- 20.0 -->
      <g transform="translate(391.787252 303.028562) scale(0.1 -0.1)">
       <use xlink:href="#DejaVuSans-32"/>
       <use xlink:href="#DejaVuSans-30" transform="translate(63.623047 0)"/>
       <use xlink:href="#DejaVuSans-2e" transform="translate(127.246094 0)"/>
       <use xlink:href="#DejaVuSans-30" transform="translate(159.033203 0)"/>
      </g>
     </g>
    </g>
    <g id="text_10">
     <!-- time (MD units) -->
     <g transform="translate(201.436563 316.706687) scale(0.1 -0.1)">
      <defs>
       <path id="DejaVuSans-74" d="M 1172 4494 
L 1172 3500 
L 2356 3500 
L 2356 3053 
L 1172 3053 
L 1172 1153 
Q 1172 725 1289 603 
Q 1406 481 1766 481 
L 2356 481 
L 2356 0 
L 1766 0 
Q 1100 0 847 248 
Q 594 497 594 1153 
L 594 3053 
L 172 3053 
L 172 3500 
L 594 3500 
L 594 4494 
L 1172 4494 
z
" transform="scale(0.015625)"/>
       <path id="DejaVuSans-69" d="M 603 3500 
L 1178 3500 
L 1178 0 
L 603 0 
L 603 3500 
z
M 603 4863 
L 1178 4863 
L 1178 4134 
L 603 4134 
L 603 4863 
z
" transform="scale(0.015625)"/>
       <path id="DejaVuSans-6d" d="M 3328 2828 
Q 3544 3216 3844 3400 
Q 4144 3584 4550 3584 
Q 5097 3584 5394 3201 
Q 5691 2819 5691 2113 
L 5691 0 
L 5113 0 
L 5113 2094 
Q 5113 2597 4934 2840 
Q 4756 3084 4391 3084 
Q 3944 3084 3684 2787 
Q 3425 2491 3425 1978 
L 3425 0 
L 2847 0 
L 2847 2094 
Q 2847 2600 2669 2842 
Q 2491 3084 2119 3084 
Q 1678 3084 1418 2786 
Q 1159 2488 1159 1978 
L 1159 0 
L 581 0 
L 581 3500 
L 1159 3500 
L 1159 2956 
Q 1356 3278 1631 3431 
Q 1906 3584 2284 3584 
Q 2666 3584 2933 3390 
Q 3200 3197 3328 2828 
z
" transform="scale(0.015625)"/>
       <path id="DejaVuSans-65" d="M 3597 1894 
L 3597 1613 
L 953 1613 
Q 991 1019 1311 708 
Q 1631 397 2203 397 
Q 2534 397 2845 478 
Q 3156 559 3463 722 
L 3463 178 
Q 3153 47 2828 -22 
Q 2503 -91 2169 -91 
Q 1331 -91 842 396 
Q 353 884 353 1716 
Q 353 2575 817 3079 
Q 1281 3584 2069 3584 
Q 2775 3584 3186 3129 
Q 3597 2675 3597 1894 
z
M 3022 2063 
Q 3016 2534 2758 2815 
Q 2500 3097 2075 3097 
Q 1594 3097 1305 2825 
Q 1016 2553 972 2059 
L 3022 2063 
z
" transform="scale(0.015625)"/>
       <path id="DejaVuSans-20" transform="scale(0.015625)"/>
       <path id="DejaVuSans-28" d="M 1984 4856 
Q 1566 4138 1362 3434 
Q 1159 2731 1159 2009 
Q 1159 1288 1364 580 
Q 1569 -128 1984 -844 
L 1484 -844 
Q 1016 -109 783 600 
Q 550 1309 550 2009 
Q 550 2706 781 3412 
Q 1013 4119 1484 4856 
L 1984 4856 
z
" transform="scale(0.015625)"/>
       <path id="DejaVuSans-4d" d="M 628 4666 
L 1569 4666 
L 2759 1491 
L 3956 4666 
L 4897 4666 
L 4897 0 
L 4281 0 
L 4281 4097 
L 3078 897 
L 2444 897 
L 1241 4097 
L 1241 0 
L 628 0 
L 628 4666 
z
" transform="scale(0.015625)"/>
       <path id="DejaVuSans-44" d="M 1259 4147 
L 1259 519 
L 2022 519 
Q 2988 519 3436 956 
Q 3884 1394 3884 2338 
Q 3884 3275 3436 3711 
Q 2988 4147 2022 4147 
L 1259 4147 
z
M 628 4666 
L 1925 4666 
Q 3281 4666 3915 4102 
Q 4550 3538 4550 2338 
Q 4550 1131 3912 565 
Q 3275 0 1925 0 
L 628 0 
L 628 4666 
z
" transform="scale(0.015625)"/>
       <path id="DejaVuSans-75" d="M 544 1381 
L 544 3500 
L 1119 3500 
L 1119 1403 
Q 1119 906 1312 657 
Q 1506 409 1894 409 
Q 2359 409 2629 706 
Q 2900 1003 2900 1516 
L 2900 3500 
L 3475 3500 
L 3475 0 
L 2900 0 
L 2900 538 
Q 2691 219 2414 64 
Q 2138 -91 1772 -91 
Q 1169 -91 856 284 
Q 544 659 544 1381 
z
M 1991 3584 
L 1991 3584 
z
" transform="scale(0.015625)"/>
       <path id="DejaVuSans-6e" d="M 3513 2113 
L 3513 0 
L 2938 0 
L 2938 2094 
Q 2938 2591 2744 2837 
Q 2550 3084 2163 3084 
Q 1697 3084 1428 2787 
Q 1159 2491 1159 1978 
L 1159 0 
L 581 0 
L 581 3500 
L 1159 3500 
L 1159 2956 
Q 1366 3272 1645 3428 
Q 1925 3584 2291 3584 
Q 2894 3584 3203 3211 
Q 3513 2838 3513 2113 
z
" transform="scale(0.015625)"/>
       <path id="DejaVuSans-73" d="M 2834 3397 
L 2834 2853 
Q 2591 2978 2328 3040 
Q 2066 3103 1784 3103 
Q 1356 3103 1142 2972 
Q 928 2841 928 2578 
Q 928 2378 1081 2264 
Q 1234 2150 1697 2047 
L 1894 2003 
Q 2506 1872 2764 1633 
Q 3022 1394 3022 966 
Q 3022 478 2636 193 
Q 2250 -91 1575 -91 
Q 1294 -91 989 -36 
Q 684 19 347 128 
L 347 722 
Q 666 556 975 473 
Q 1284 391 1588 391 
Q 1994 391 2212 530 
Q 2431 669 2431 922 
Q 2431 1156 2273 1281 
Q 2116 1406 1581 1522 
L 1381 1569 
Q 847 1681 609 1914 
Q 372 2147 372 2553 
Q 372 3047 722 3315 
Q 1072 3584 1716 3584 
Q 2034 3584 2315 3537 
Q 2597 3491 2834 3397 
z
" transform="scale(0.015625)"/>
       <path id="DejaVuSans-29" d="M 513 4856 
L 1013 4856 
Q 1481 4119 1714 3412 
Q 1947 2706 1947 2009 
Q 1947 1309 1714 600 
Q 1481 -109 1013 -844 
L 513 -844 
Q 928 -128 1133 580 
Q 1338 1288 1338 2009 
Q 1338 2731 1133 3434 
Q 928 4138 513 4856 
z
" transform="scale(0.015625)"/>
      </defs>
      <use xlink:href="#DejaVuSans-74"/>
      <use xlink:href="#DejaVuSans-69" transform="translate(39.208984 0)"/>
      <use xlink:href="#DejaVuSans-6d" transform="translate(66.992188 0)"/>
      <use xlink:href="#DejaVuSans-65" transform="translate(164.404297 0)"/>
      <use xlink:href="#DejaVuSans-20" transform="translate(225.927734 0)"/>
      <use xlink:href="#DejaVuSans-28" transform="translate(257.714844 0)"/>
      <use xlink:href="#DejaVuSans-4d" transform="translate(296.728516 0)"/>
      <use xlink:href="#DejaVuSans-44" transform="translate(383.007812 0)"/>
      <use xlink:href="#DejaVuSans-20" transform="translate(460.009766 0)"/>
      <use xlink:href="#DejaVuSans-75" transform="translate(491.796875 0)"/>
      <use xlink:href="#DejaVuSans-6e" transform="translate(555.175781 0)"/>
      <use xlink:href="#DejaVuSans-69" transform="translate(618.554688 0)"/>
      <use xlink:href="#DejaVuSans-74" transform="translate(646.337891 0)"/>
      <use xlink:href="#DejaVuSans-73" transform="translate(685.546875 0)"/>
      <use xlink:href="#DejaVuSans-29" transform="translate(737.646484 0)"/>
     </g>
    </g>
   </g>
   <g id="matplotlib.axis_2">
    <g id="ytick_1">
     <g id="line2d_10">
      <defs>
       <path id="mb1edfcc511" d="M 0 0 
L -3.5 0 
" style="stroke: #000000; stroke-width: 0.8"/>
      </defs>
      <g>
       <use xlink:href="#mb1edfcc511" x="61.707813" y="282.191414" style="stroke: #000000; stroke-width: 0.8"/>
      </g>
     </g>
     <g id="text_11">
      <!-- −1200 -->
      <g transform="translate(20.878125 285.990633) scale(0.1 -0.1)">
       <defs>
        <path id="DejaVuSans-2212" d="M 678 2272 
L 4684 2272 
L 4684 1741 
L 678 1741 
L 678 2272 
z
" transform="scale(0.015625)"/>
       </defs>
       <use xlink:href="#DejaVuSans-2212"/>
       <use xlink:href="#DejaVuSans-31" transform="translate(83.789062 0)"/>
       <use xlink:href="#DejaVuSans-32" transform="translate(147.412109 0)"/>
       <use xlink:href="#DejaVuSans-30" transform="translate(211.035156 0)"/>
       <use xlink:href="#DejaVuSans-30" transform="translate(274.658203 0)"/>
      </g>
     </g>
    </g>
    <g id="ytick_2">
     <g id="line2d_11">
      <g>
       <use xlink:href="#mb1edfcc511" x="61.707813" y="249.450615" style="stroke: #000000; stroke-width: 0.8"/>
      </g>
     </g>
     <g id="text_12">
      <!-- −1000 -->
      <g transform="translate(20.878125 253.249834) scale(0.1 -0.1)">
       <use xlink:href="#DejaVuSans-2212"/>
       <use xlink:href="#DejaVuSans-31" transform="translate(83.789062 0)"/>
       <use xlink:href="#DejaVuSans-30" transform="translate(147.412109 0)"/>
       <use xlink:href="#DejaVuSans-30" transform="translate(211.035156 0)"/>
       <use xlink:href="#DejaVuSans-30" transform="translate(274.658203 0)"/>
      </g>
     </g>
    </g>
    <g id="ytick_3">
     <g id="line2d_12">
      <g>
       <use xlink:href="#mb1edfcc511" x="61.707813" y="216.709816" style="stroke: #000000; stroke-width: 0.8"/>
      </g>
     </g>
     <g id="text_13">
      <!-- −800 -->
      <g transform="translate(27.240625 220.509035) scale(0.1 -0.1)">
       <defs>
        <path id="DejaVuSans-38" d="M 2034 2216 
Q 1584 2216 1326 1975 
Q 1069 1734 1069 1313 
Q 1069 891 1326 650 
Q 1584 409 2034 409 
Q 2484 409 2743 651 
Q 3003 894 3003 1313 
Q 3003 1734 2745 1975 
Q 2488 2216 2034 2216 
z
M 1403 2484 
Q 997 2584 770 2862 
Q 544 3141 544 3541 
Q 544 4100 942 4425 
Q 1341 4750 2034 4750 
Q 2731 4750 3128 4425 
Q 3525 4100 3525 3541 
Q 3525 3141 3298 2862 
Q 3072 2584 2669 2484 
Q 3125 2378 3379 2068 
Q 3634 1759 3634 1313 
Q 3634 634 3220 271 
Q 2806 -91 2034 -91 
Q 1263 -91 848 271 
Q 434 634 434 1313 
Q 434 1759 690 2068 
Q 947 2378 1403 2484 
z
M 1172 3481 
Q 1172 3119 1398 2916 
Q 1625 2713 2034 2713 
Q 2441 2713 2670 2916 
Q 2900 3119 2900 3481 
Q 2900 3844 2670 4047 
Q 2441 4250 2034 4250 
Q 1625 4250 1398 4047 
Q 1172 3844 1172 3481 
z
" transform="scale(0.015625)"/>
       </defs>
       <use xlink:href="#DejaVuSans-2212"/>
       <use xlink:href="#DejaVuSans-38" transform="translate(83.789062 0)"/>
       <use xlink:href="#DejaVuSans-30" transform="translate(147.412109 0)"/>
       <use xlink:href="#DejaVuSans-30" transform="translate(211.035156 0)"/>
      </g>
     </g>
    </g>
    <g id="ytick_4">
     <g id="line2d_13">
      <g>
       <use xlink:href="#mb1edfcc511" x="61.707813" y="183.969018" style="stroke: #000000; stroke-width: 0.8"/>
      </g>
     </g>
     <g id="text_14">
      <!-- −600 -->
      <g transform="translate(27.240625 187.768236) scale(0.1 -0.1)">
       <defs>
        <path id="DejaVuSans-36" d="M 2113 2584 
Q 1688 2584 1439 2293 
Q 1191 2003 1191 1497 
Q 1191 994 1439 701 
Q 1688 409 2113 409 
Q 2538 409 2786 701 
Q 3034 994 3034 1497 
Q 3034 2003 2786 2293 
Q 2538 2584 2113 2584 
z
M 3366 4563 
L 3366 3988 
Q 3128 4100 2886 4159 
Q 2644 4219 2406 4219 
Q 1781 4219 1451 3797 
Q 1122 3375 1075 2522 
Q 1259 2794 1537 2939 
Q 1816 3084 2150 3084 
Q 2853 3084 3261 2657 
Q 3669 2231 3669 1497 
Q 3669 778 3244 343 
Q 2819 -91 2113 -91 
Q 1303 -91 875 529 
Q 447 1150 447 2328 
Q 447 3434 972 4092 
Q 1497 4750 2381 4750 
Q 2619 4750 2861 4703 
Q 3103 4656 3366 4563 
z
" transform="scale(0.015625)"/>
       </defs>
       <use xlink:href="#DejaVuSans-2212"/>
       <use xlink:href="#DejaVuSans-36" transform="translate(83.789062 0)"/>
       <use xlink:href="#DejaVuSans-30" transform="translate(147.412109 0)"/>
       <use xlink:href="#DejaVuSans-30" transform="translate(211.035156 0)"/>
      </g>
     </g>
    </g>
    <g id="ytick_5">
     <g id="line2d_14">
      <g>
       <use xlink:href="#mb1edfcc511" x="61.707813" y="151.228219" style="stroke: #000000; stroke-width: 0.8"/>
      </g>
     </g>
     <g id="text_15">
      <!-- −400 -->
      <g transform="translate(27.240625 155.027438) scale(0.1 -0.1)">
       <defs>
        <path id="DejaVuSans-34" d="M 2419 4116 
L 825 1625 
L 2419 1625 
L 2419 4116 
z
M 2253 4666 
L 3047 4666 
L 3047 1625 
L 3713 1625 
L 3713 1100 
L 3047 1100 
L 3047 0 
L 2419 0 
L 2419 1100 
L 313 1100 
L 313 1709 
L 2253 4666 
z
" transform="scale(0.015625)"/>
       </defs>
       <use xlink:href="#DejaVuSans-2212"/>
       <use xlink:href="#DejaVuSans-34" transform="translate(83.789062 0)"/>
       <use xlink:href="#DejaVuSans-30" transform="translate(147.412109 0)"/>
       <use xlink:href="#DejaVuSans-30" transform="translate(211.035156 0)"/>
      </g>
     </g>
    </g>
    <g id="ytick_6">
     <g id="line2d_15">
      <g>
       <use xlink:href="#mb1edfcc511" x="61.707813" y="118.48742" style="stroke: #000000; stroke-width: 0.8"/>
      </g>
     </g>
     <g id="text_16">
      <!-- −200 -->
      <g transform="translate(27.240625 122.286639) scale(0.1 -0.1)">
       <use xlink:href="#DejaVuSans-2212"/>
       <use xlink:href="#DejaVuSans-32" transform="translate(83.789062 0)"/>
       <use xlink:href="#DejaVuSans-30" transform="translate(147.412109 0)"/>
       <use xlink:href="#DejaVuSans-30" transform="translate(211.035156 0)"/>
      </g>
     </g>
    </g>
    <g id="ytick_7">
     <g id="line2d_16">
      <g>
       <use xlink:href="#mb1edfcc511" x="61.707813" y="85.746621" style="stroke: #000000; stroke-width: 0.8"/>
      </g>
     </g>
     <g id="text_17">
      <!-- 0 -->
      <g transform="translate(48.345313 89.54584) scale(0.1 -0.1)">
       <use xlink:href="#DejaVuSans-30"/>
      </g>
     </g>
    </g>
    <g id="ytick_8">
     <g id="line2d_17">
      <g>
       <use xlink:href="#mb1edfcc511" x="61.707813" y="53.005823" style="stroke: #000000; stroke-width: 0.8"/>
      </g>
     </g>
     <g id="text_18">
      <!-- 200 -->
      <g transform="translate(35.620312 56.805041) scale(0.1 -0.1)">
       <use xlink:href="#DejaVuSans-32"/>
       <use xlink:href="#DejaVuSans-30" transform="translate(63.623047 0)"/>
       <use xlink:href="#DejaVuSans-30" transform="translate(127.246094 0)"/>
      </g>
     </g>
    </g>
    <g id="text_19">
     <!-- Energy -->
     <g transform="translate(14.798438 172.880375) rotate(-90) scale(0.1 -0.1)">
      <defs>
       <path id="DejaVuSans-45" d="M 628 4666 
L 3578 4666 
L 3578 4134 
L 1259 4134 
L 1259 2753 
L 3481 2753 
L 3481 2222 
L 1259 2222 
L 1259 531 
L 3634 531 
L 3634 0 
L 628 0 
L 628 4666 
z
" transform="scale(0.015625)"/>
       <path id="DejaVuSans-72" d="M 2631 2963 
Q 2534 3019 2420 3045 
Q 2306 3072 2169 3072 
Q 1681 3072 1420 2755 
Q 1159 2438 1159 1844 
L 1159 0 
L 581 0 
L 581 3500 
L 1159 3500 
L 1159 2956 
Q 1341 3275 1631 3429 
Q 1922 3584 2338 3584 
Q 2397 3584 2469 3576 
Q 2541 3569 2628 3553 
L 2631 2963 
z
" transform="scale(0.015625)"/>
       <path id="DejaVuSans-67" d="M 2906 1791 
Q 2906 2416 2648 2759 
Q 2391 3103 1925 3103 
Q 1463 3103 1205 2759 
Q 947 2416 947 1791 
Q 947 1169 1205 825 
Q 1463 481 1925 481 
Q 2391 481 2648 825 
Q 2906 1169 2906 1791 
z
M 3481 434 
Q 3481 -459 3084 -895 
Q 2688 -1331 1869 -1331 
Q 1566 -1331 1297 -1286 
Q 1028 -1241 775 -1147 
L 775 -588 
Q 1028 -725 1275 -790 
Q 1522 -856 1778 -856 
Q 2344 -856 2625 -561 
Q 2906 -266 2906 331 
L 2906 616 
Q 2728 306 2450 153 
Q 2172 0 1784 0 
Q 1141 0 747 490 
Q 353 981 353 1791 
Q 353 2603 747 3093 
Q 1141 3584 1784 3584 
Q 2172 3584 2450 3431 
Q 2728 3278 2906 2969 
L 2906 3500 
L 3481 3500 
L 3481 434 
z
" transform="scale(0.015625)"/>
       <path id="DejaVuSans-79" d="M 2059 -325 
Q 1816 -950 1584 -1140 
Q 1353 -1331 966 -1331 
L 506 -1331 
L 506 -850 
L 844 -850 
Q 1081 -850 1212 -737 
Q 1344 -625 1503 -206 
L 1606 56 
L 191 3500 
L 800 3500 
L 1894 763 
L 2988 3500 
L 3597 3500 
L 2059 -325 
z
" transform="scale(0.015625)"/>
      </defs>
      <use xlink:href="#DejaVuSans-45"/>
      <use xlink:href="#DejaVuSans-6e" transform="translate(63.183594 0)"/>
      <use xlink:href="#DejaVuSans-65" transform="translate(126.5625 0)"/>
      <use xlink:href="#DejaVuSans-72" transform="translate(188.085938 0)"/>
      <use xlink:href="#DejaVuSans-67" transform="translate(227.449219 0)"/>
      <use xlink:href="#DejaVuSans-79" transform="translate(290.925781 0)"/>
     </g>
    </g>
   </g>
   <g id="line2d_18">
    <path d="M 77.94054 276.334125 
L 78.265519 276.318629 
L 78.590499 276.070886 
L 78.915478 274.997751 
L 79.240458 272.295926 
L 79.890417 264.297735 
L 80.215396 262.099649 
L 80.540376 261.905751 
L 80.865355 262.532418 
L 81.515315 264.716424 
L 81.840294 265.127524 
L 82.490253 263.061029 
L 82.815233 263.251701 
L 83.140212 264.186507 
L 83.465192 264.364802 
L 83.790171 263.940525 
L 84.44013 264.161259 
L 84.76511 264.507217 
L 85.090089 265.33598 
L 85.415069 265.168303 
L 85.740048 264.721445 
L 86.714987 264.570944 
L 87.039966 264.898388 
L 87.364946 264.375749 
L 87.689926 263.501997 
L 88.014905 263.023019 
L 88.339885 262.748569 
L 88.989844 261.409177 
L 89.639803 262.93292 
L 90.289762 262.381719 
L 90.614741 261.249356 
L 90.939721 260.743315 
L 91.2647 261.199956 
L 91.58968 261.245798 
L 91.914659 260.517244 
L 92.564618 257.92708 
L 92.889598 257.873006 
L 93.214577 258.808554 
L 93.539557 258.87427 
L 93.864536 258.555222 
L 95.814414 259.379691 
L 96.464373 260.336513 
L 96.789352 260.34179 
L 97.439311 258.712687 
L 98.41425 257.987223 
L 98.739229 258.529609 
L 99.064209 259.676616 
L 99.389188 260.154802 
L 99.714168 259.922559 
L 100.039147 260.005202 
L 101.014086 265.057466 
L 101.339066 264.317762 
L 102.314004 258.861851 
L 102.638984 258.871991 
L 103.288943 261.379717 
L 103.613922 262.658016 
L 103.938902 262.854556 
L 104.263881 261.974746 
L 104.91384 261.353545 
L 105.23882 260.580454 
L 105.563799 260.524607 
L 105.888779 260.889157 
L 106.213758 261.636063 
L 106.538738 261.933857 
L 106.863717 261.87623 
L 107.188697 261.699586 
L 107.513677 260.894086 
L 107.838656 260.520312 
L 109.138574 262.33633 
L 109.463554 260.812418 
L 109.788533 259.995727 
L 110.438492 260.987567 
L 111.088451 262.298081 
L 111.73841 261.100171 
L 112.388369 263.197194 
L 112.713349 262.933757 
L 113.038328 263.291256 
L 113.363308 264.684943 
L 113.688288 265.531578 
L 114.663226 266.013742 
L 114.988206 265.86767 
L 115.963144 263.953533 
L 117.263062 260.380503 
L 117.588042 259.849196 
L 117.913021 260.989448 
L 118.238001 262.906023 
L 118.56298 263.633312 
L 118.88796 263.738824 
L 119.537919 265.402217 
L 119.862898 265.536813 
L 120.187878 265.495959 
L 120.512858 265.259904 
L 120.837837 265.229443 
L 121.487796 263.096849 
L 121.812776 262.69549 
L 122.137755 262.96856 
L 122.462735 263.701904 
L 123.112694 266.405892 
L 123.437673 265.546309 
L 123.762653 263.382391 
L 124.087632 262.018299 
L 124.412612 261.894976 
L 124.737591 261.913772 
L 125.38755 261.212753 
L 125.71253 261.153464 
L 126.362489 261.301292 
L 126.687469 261.197458 
L 127.662407 262.967198 
L 127.987387 262.289785 
L 128.312366 262.019813 
L 128.637346 262.76712 
L 128.962325 264.095409 
L 129.287305 264.345328 
L 129.612284 263.715392 
L 129.937264 262.76172 
L 130.587223 262.725487 
L 130.912202 262.445778 
L 131.562161 264.424451 
L 132.5371 268.383468 
L 132.862079 268.81904 
L 133.187059 267.673062 
L 133.512039 265.93582 
L 133.837018 264.875831 
L 134.161998 264.687813 
L 134.486977 264.655975 
L 134.811957 264.272974 
L 135.461916 264.649284 
L 135.786895 264.282498 
L 136.436854 265.16927 
L 136.761834 266.129964 
L 137.086813 266.235707 
L 137.411793 265.250868 
L 138.061752 261.832422 
L 138.386731 260.894416 
L 138.711711 261.407509 
L 139.36167 263.814919 
L 139.68665 264.038173 
L 140.011629 263.85597 
L 140.336609 263.505102 
L 140.986568 261.606795 
L 141.311547 261.666133 
L 141.636527 262.267061 
L 141.961506 261.935537 
L 142.286486 260.362231 
L 142.611465 259.436795 
L 142.936445 260.079845 
L 143.586404 262.177591 
L 143.911383 262.524738 
L 144.236363 262.266535 
L 144.561342 261.656483 
L 144.886322 261.873598 
L 145.211301 261.953248 
L 145.536281 262.549059 
L 145.86126 263.426884 
L 146.18624 263.812922 
L 146.51122 263.799168 
L 146.836199 262.654886 
L 147.161179 262.04704 
L 147.486158 261.188113 
L 147.811138 260.877975 
L 148.461097 262.032971 
L 149.111056 264.336733 
L 149.436035 264.81696 
L 149.761015 264.82826 
L 150.085994 263.944302 
L 150.410974 262.547045 
L 150.735953 262.217921 
L 151.060933 263.531919 
L 151.385912 263.587157 
L 152.035871 261.006855 
L 152.360851 261.310504 
L 153.01081 263.051811 
L 153.660769 261.816941 
L 153.985749 261.636989 
L 154.310728 262.325048 
L 154.635708 263.429398 
L 154.960687 263.833871 
L 155.285667 263.019288 
L 155.610646 261.817274 
L 155.935626 262.048303 
L 156.585585 264.066158 
L 156.910564 263.80583 
L 157.560523 261.499256 
L 157.885503 262.059796 
L 158.210482 262.860613 
L 158.535462 262.637188 
L 159.185421 261.125982 
L 159.510401 261.427991 
L 159.83538 261.550246 
L 160.16036 261.913914 
L 160.810319 264.377369 
L 161.135298 264.420333 
L 161.460278 263.95559 
L 162.110237 264.032087 
L 162.760196 264.457727 
L 163.085175 264.081565 
L 163.410155 263.027322 
L 163.735134 262.874622 
L 164.385093 266.218474 
L 164.710073 265.36128 
L 165.360032 261.522856 
L 165.685012 261.837879 
L 166.009991 261.676579 
L 166.334971 261.658663 
L 166.65995 262.376362 
L 167.309909 265.528664 
L 167.634889 266.186061 
L 168.284848 264.978337 
L 168.609827 264.712986 
L 168.934807 264.867001 
L 169.909745 266.131978 
L 170.234725 265.892512 
L 170.559704 265.087814 
L 171.209663 262.152115 
L 171.534643 262.098747 
L 171.859622 262.467721 
L 172.184602 263.008744 
L 172.509582 263.815911 
L 172.834561 264.019933 
L 173.159541 263.830866 
L 173.8095 262.442275 
L 174.134479 262.219718 
L 174.459459 261.250061 
L 174.784438 260.85995 
L 175.434397 263.319076 
L 175.759377 262.110815 
L 176.084356 261.763736 
L 176.409336 261.086264 
L 176.734315 260.709621 
L 177.059295 260.534879 
L 177.384274 260.827845 
L 177.709254 260.543308 
L 178.359213 259.458007 
L 179.009172 261.901688 
L 179.334152 262.282534 
L 179.659131 261.672293 
L 180.30909 259.812537 
L 180.63407 259.743659 
L 180.959049 260.166911 
L 181.609008 261.791692 
L 182.258967 260.895975 
L 182.583947 260.868664 
L 182.908926 260.152477 
L 183.233906 260.785615 
L 183.558885 262.576603 
L 183.883865 262.595223 
L 184.208844 261.253737 
L 184.533824 260.554283 
L 184.858803 261.084023 
L 185.183783 261.327755 
L 185.508763 260.719755 
L 185.833742 259.559916 
L 186.158722 259.572507 
L 186.483701 259.83938 
L 187.13366 261.057269 
L 187.45864 261.352039 
L 187.783619 260.795979 
L 188.108599 259.235308 
L 188.433578 258.336815 
L 188.758558 258.826842 
L 189.083537 259.080244 
L 189.408517 259.178184 
L 189.733496 259.904488 
L 190.383455 257.990373 
L 191.683374 260.778107 
L 192.008353 261.701129 
L 192.333333 261.616934 
L 192.658312 260.593009 
L 192.983292 258.549103 
L 193.308271 257.224376 
L 193.633251 257.477061 
L 193.95823 257.158366 
L 194.608189 258.430033 
L 194.933169 258.554084 
L 195.258148 259.211041 
L 195.583128 259.056034 
L 195.908107 258.714329 
L 196.558066 257.059219 
L 196.883046 256.974209 
L 197.208025 258.89568 
L 197.533005 259.425539 
L 197.857984 258.700745 
L 198.182964 258.307478 
L 198.507944 257.693609 
L 198.832923 257.352816 
L 199.482882 258.675314 
L 199.807862 259.480674 
L 200.7828 257.204457 
L 201.10778 257.391824 
L 201.432759 258.19913 
L 201.757739 258.516792 
L 202.082718 258.470524 
L 203.057657 257.52655 
L 203.382636 257.472932 
L 203.707616 257.850875 
L 204.357575 258.050205 
L 205.007534 256.541756 
L 205.657493 258.366581 
L 206.307452 257.856774 
L 206.632432 257.502005 
L 206.957411 256.917123 
L 207.282391 256.565492 
L 207.60737 256.774826 
L 207.93235 256.842159 
L 208.907288 257.704124 
L 209.232268 257.209993 
L 209.557247 255.873043 
L 209.882227 255.806699 
L 210.207206 256.760059 
L 210.532186 256.320092 
L 210.857165 255.1073 
L 211.182145 254.717259 
L 211.507125 254.992955 
L 211.832104 255.122049 
L 212.157084 254.741593 
L 212.482063 254.83328 
L 213.132022 255.509241 
L 213.781981 253.66998 
L 214.106961 253.495334 
L 214.43194 253.805525 
L 214.75692 254.780859 
L 215.081899 255.043748 
L 215.406879 254.954277 
L 215.731858 255.07173 
L 216.056838 254.909707 
L 216.381817 254.408756 
L 217.031776 255.193679 
L 217.356756 254.585257 
L 217.681736 254.692563 
L 218.006715 256.008057 
L 218.331695 256.785342 
L 218.656674 256.402615 
L 218.981654 256.286451 
L 219.306633 256.852662 
L 219.956592 256.197317 
L 220.281572 256.641356 
L 220.931531 258.33189 
L 221.25651 258.277272 
L 221.58149 258.904773 
L 221.906469 259.176083 
L 222.231449 258.143118 
L 222.881408 255.684252 
L 223.206387 255.095391 
L 224.181326 254.826666 
L 224.506306 255.006537 
L 225.156265 255.853629 
L 225.806224 257.716494 
L 226.131203 257.796509 
L 226.781162 254.71939 
L 227.106142 254.088543 
L 227.756101 255.969138 
L 228.08108 254.88345 
L 228.40606 252.767663 
L 228.731039 252.873094 
L 229.380998 255.552065 
L 229.705978 257.242026 
L 230.030957 257.964926 
L 230.355937 257.187728 
L 230.680917 255.695852 
L 231.005896 255.196633 
L 231.330876 255.563251 
L 231.980835 257.677216 
L 232.305814 257.49 
L 232.630794 256.88506 
L 232.955773 256.951694 
L 233.280753 257.39797 
L 233.930712 257.742726 
L 234.580671 255.941638 
L 235.23063 257.756518 
L 235.880589 258.361343 
L 236.530548 257.117274 
L 236.855527 257.235854 
L 237.180507 257.970268 
L 237.505487 257.415908 
L 237.830466 255.683141 
L 238.155446 255.272788 
L 238.480425 255.94231 
L 238.805405 256.251036 
L 239.130384 256.190454 
L 239.455364 256.356889 
L 239.780343 256.723878 
L 240.105323 256.337161 
L 240.755282 254.658692 
L 241.080261 254.454896 
L 241.405241 254.479315 
L 241.73022 254.368293 
L 242.380179 252.541438 
L 242.705159 252.533297 
L 243.030138 253.057191 
L 243.355118 253.904986 
L 243.680098 254.118392 
L 244.005077 254.513733 
L 244.330057 255.251673 
L 244.655036 255.453931 
L 245.629975 254.92807 
L 246.279934 256.241875 
L 246.604913 255.999743 
L 246.929893 256.215802 
L 247.254872 257.23801 
L 247.579852 257.216995 
L 247.904831 256.463667 
L 248.229811 256.027698 
L 248.55479 257.700157 
L 248.87977 258.543499 
L 249.529729 257.423337 
L 249.854708 256.358597 
L 250.504668 256.654071 
L 250.829647 255.641804 
L 251.154627 255.306642 
L 251.479606 256.205434 
L 251.804586 257.598851 
L 252.779524 258.952056 
L 253.104504 257.951474 
L 253.429483 256.083497 
L 253.754463 255.213403 
L 254.079442 255.874121 
L 255.054381 257.142464 
L 255.37936 256.464973 
L 255.70434 256.190096 
L 256.354299 258.578774 
L 256.679279 258.578006 
L 257.329238 256.45091 
L 257.979197 256.019444 
L 258.304176 256.112972 
L 258.629156 257.961327 
L 258.954135 258.578455 
L 259.604094 256.683309 
L 259.929074 257.143482 
L 260.579033 258.784839 
L 260.904012 258.60647 
L 261.228992 257.951444 
L 261.553971 258.030375 
L 261.878951 257.786687 
L 262.52891 254.997478 
L 262.853889 254.719253 
L 263.178869 254.799225 
L 263.503849 255.355031 
L 263.828828 256.468329 
L 264.478787 259.937453 
L 264.803767 260.364331 
L 265.453726 258.725124 
L 266.428664 257.519015 
L 267.078623 259.308107 
L 267.403603 260.489768 
L 267.728582 260.871216 
L 268.053562 260.485036 
L 268.378541 259.149343 
L 269.0285 257.992453 
L 269.35348 258.107188 
L 269.67846 258.468424 
L 270.003439 258.465289 
L 270.328419 258.937779 
L 270.653398 259.690751 
L 271.303357 259.014014 
L 271.628337 259.005119 
L 271.953316 258.379328 
L 272.278296 257.10452 
L 272.603275 255.370554 
L 272.928255 254.786078 
L 273.903193 260.430505 
L 274.878132 259.500152 
L 275.203111 258.903728 
L 275.85307 259.699875 
L 276.17805 259.327032 
L 276.50303 257.589446 
L 276.828009 257.213536 
L 277.152989 257.930837 
L 277.477968 258.986956 
L 278.127927 259.441581 
L 278.452907 259.09447 
L 278.777886 258.427517 
L 279.102866 258.095149 
L 279.752825 259.579573 
L 280.077804 259.143192 
L 280.402784 258.439253 
L 281.052743 260.622333 
L 281.377722 260.450571 
L 281.702702 259.596919 
L 282.027681 259.116909 
L 282.352661 258.975675 
L 282.677641 259.011056 
L 283.00262 259.643698 
L 283.3276 261.033725 
L 283.652579 261.837693 
L 283.977559 260.85842 
L 284.302538 260.477817 
L 284.627518 261.300853 
L 285.277477 261.658975 
L 285.602456 261.479773 
L 285.927436 260.573931 
L 286.252415 259.088295 
L 286.577395 258.317096 
L 286.902374 258.979784 
L 287.227354 259.997253 
L 287.552333 260.252945 
L 287.877313 260.208645 
L 288.202292 259.905536 
L 288.527272 259.219074 
L 289.177231 260.503822 
L 289.502211 259.93076 
L 289.82719 258.322668 
L 290.15217 258.509566 
L 290.477149 260.471986 
L 290.802129 261.587712 
L 291.127108 261.276229 
L 291.777067 259.206636 
L 292.102047 259.603711 
L 292.427026 260.628382 
L 292.752006 260.851112 
L 293.076985 260.297825 
L 293.726944 257.505224 
L 294.051924 258.147081 
L 294.376903 259.301022 
L 294.701883 259.947123 
L 295.026862 260.178721 
L 295.351842 260.115107 
L 295.676822 259.568166 
L 296.001801 259.323786 
L 296.326781 260.481544 
L 296.65176 261.168258 
L 296.97674 259.886266 
L 297.301719 257.335328 
L 297.626699 255.998078 
L 298.276658 257.788843 
L 298.926617 259.993563 
L 299.251596 259.876661 
L 299.576576 259.044796 
L 299.901555 257.654426 
L 300.226535 257.406156 
L 300.876494 259.494624 
L 301.526453 259.722485 
L 301.851432 260.11601 
L 302.501392 258.693383 
L 302.826371 258.597213 
L 303.47633 257.928064 
L 303.80131 258.072357 
L 304.126289 258.805107 
L 304.776248 261.193742 
L 305.101228 261.697792 
L 305.426207 261.779335 
L 305.751187 261.314274 
L 306.401146 258.803135 
L 306.726125 259.333485 
L 307.051105 260.551775 
L 307.376084 260.529813 
L 307.701064 259.747538 
L 308.026043 259.665122 
L 308.351023 260.595431 
L 308.676003 260.479007 
L 309.000982 259.261725 
L 309.325962 258.831117 
L 309.650941 259.410831 
L 309.975921 260.259101 
L 310.3009 259.781849 
L 310.62588 259.542033 
L 310.950859 260.251072 
L 311.275839 261.368763 
L 311.600818 261.872513 
L 311.925798 261.648389 
L 312.250777 260.981171 
L 312.575757 259.984172 
L 313.550695 258.87587 
L 313.875675 258.651547 
L 314.200654 258.099823 
L 314.850613 258.499753 
L 315.175593 259.728133 
L 315.500573 260.160552 
L 315.825552 259.735453 
L 316.150532 259.618955 
L 316.475511 259.845854 
L 316.800491 260.629951 
L 317.12547 260.824651 
L 317.45045 260.083416 
L 317.775429 258.860617 
L 318.100409 258.858162 
L 318.425388 258.337255 
L 318.750368 256.864424 
L 319.075347 256.435227 
L 319.725306 259.255185 
L 320.050286 259.065893 
L 320.375265 258.533845 
L 320.700245 258.438576 
L 321.025224 258.043253 
L 321.350204 257.393075 
L 321.675184 256.400176 
L 322.650122 255.322257 
L 323.625061 258.121315 
L 323.95004 259.360513 
L 324.27502 258.863837 
L 324.924979 256.091975 
L 325.249958 255.956039 
L 325.574938 256.615203 
L 326.224897 259.545789 
L 326.549876 260.085596 
L 326.874856 259.977222 
L 327.524815 258.835433 
L 328.174774 257.781593 
L 328.499754 257.660693 
L 328.824733 258.474623 
L 329.149713 258.299383 
L 329.474692 257.231732 
L 329.799672 257.83155 
L 330.124651 259.05103 
L 330.449631 259.678393 
L 330.77461 259.43715 
L 331.749549 257.303161 
L 332.724487 259.292442 
L 333.049467 259.640466 
L 333.374446 259.200269 
L 333.699426 259.607078 
L 334.024405 260.52641 
L 334.349385 260.894217 
L 334.674365 260.712746 
L 334.999344 260.675984 
L 335.324324 260.462512 
L 335.974283 257.963697 
L 336.299262 258.015311 
L 336.624242 258.267491 
L 337.274201 258.317203 
L 337.59918 258.610822 
L 338.249139 259.846757 
L 338.899098 259.090911 
L 339.224078 259.07605 
L 339.874037 257.559317 
L 340.199016 257.569259 
L 340.848975 256.381325 
L 341.823914 257.596773 
L 342.148894 256.778691 
L 342.473873 256.984518 
L 342.798853 258.235223 
L 343.123832 258.802492 
L 343.448812 258.416818 
L 344.74873 259.794356 
L 345.073709 259.678385 
L 345.723668 257.143111 
L 346.048648 256.527561 
L 346.373627 256.844851 
L 347.023586 260.383104 
L 347.348566 260.771245 
L 347.998525 259.837882 
L 348.323505 259.658284 
L 348.648484 260.419382 
L 348.973464 261.617494 
L 349.298443 261.328087 
L 349.623423 260.21443 
L 349.948402 259.648024 
L 350.273382 259.425691 
L 350.598361 259.339346 
L 350.923341 259.087944 
L 351.24832 259.148769 
L 351.5733 259.437887 
L 351.898279 259.484033 
L 352.548238 259.12353 
L 353.198197 259.892307 
L 353.848156 259.136462 
L 354.173136 258.678929 
L 355.148075 261.478789 
L 355.473054 260.387068 
L 355.798034 258.316581 
L 356.123013 257.75234 
L 356.447993 258.669952 
L 357.097952 257.61564 
L 357.422931 256.56666 
L 357.747911 256.01622 
L 358.07289 256.302552 
L 358.39787 256.152504 
L 358.722849 256.27999 
L 359.372808 257.411507 
L 359.697788 257.802049 
L 360.022767 257.805963 
L 360.672727 256.491649 
L 360.997706 256.330305 
L 361.322686 256.404626 
L 361.647665 257.166129 
L 361.972645 256.790068 
L 362.297624 256.158669 
L 363.272563 256.767562 
L 363.922522 255.198131 
L 364.572481 255.017113 
L 364.89746 254.656189 
L 365.872399 252.759962 
L 366.197378 252.914384 
L 366.522358 253.360198 
L 366.847337 253.324484 
L 367.172317 253.902225 
L 367.497297 254.80298 
L 367.822276 254.69679 
L 368.147256 254.28864 
L 369.122194 256.696434 
L 369.447174 256.692268 
L 369.772153 256.500539 
L 370.097133 256.12745 
L 370.422112 255.960032 
L 370.747092 256.370774 
L 371.397051 256.356217 
L 371.72203 255.555702 
L 372.04701 253.920273 
L 372.371989 253.121822 
L 372.696969 253.090106 
L 373.021948 252.689003 
L 373.671908 252.794556 
L 373.996887 252.501429 
L 374.646846 252.30317 
L 374.971826 252.492458 
L 375.296805 253.046075 
L 375.946764 254.941548 
L 376.271744 255.128651 
L 376.596723 255.482827 
L 376.921703 256.611317 
L 377.246682 257.039157 
L 377.896641 256.119843 
L 378.221621 256.669893 
L 378.5466 256.951725 
L 379.196559 255.944811 
L 379.521539 255.508621 
L 379.846518 254.727049 
L 380.171498 254.428918 
L 380.821457 256.910579 
L 381.146437 256.068448 
L 381.796396 253.780646 
L 382.121375 253.707075 
L 382.446355 253.903641 
L 383.096314 255.694525 
L 383.421293 255.598376 
L 384.071252 254.46609 
L 384.396232 252.99623 
L 384.721211 252.779621 
L 385.37117 256.933145 
L 385.69615 257.376447 
L 386.346109 254.649996 
L 386.996068 253.487058 
L 387.646027 252.744015 
L 387.971007 252.794955 
L 388.295986 253.038836 
L 388.620966 253.65799 
L 388.945945 253.511509 
L 389.270925 252.879588 
L 389.595904 252.908739 
L 390.245863 254.303782 
L 390.570843 254.268492 
L 391.220802 254.541633 
L 391.870761 251.843426 
L 392.19574 252.169623 
L 392.52072 252.76252 
L 392.845699 252.511583 
L 393.170679 252.51302 
L 393.820638 254.951589 
L 394.145618 255.196338 
L 394.470597 254.7848 
L 394.795577 253.084438 
L 395.120556 252.481531 
L 395.770515 253.797356 
L 396.095495 253.964911 
L 396.420474 254.526413 
L 396.745454 254.845202 
L 397.070433 254.613802 
L 397.395413 253.505169 
L 397.720392 252.924061 
L 398.370351 254.456065 
L 398.695331 254.932988 
L 399.02031 255.11514 
L 399.34529 254.798395 
L 399.67027 255.030991 
L 400.320229 256.134289 
L 400.645208 256.084766 
L 400.970188 255.882365 
L 401.945126 253.060752 
L 402.270106 253.158198 
L 402.595085 253.525141 
L 402.595085 253.525141 
" clip-path="url(#p007751761f)" style="fill: none; stroke: #1f77b4; stroke-width: 1.5; stroke-linecap: square"/>
   </g>
   <g id="line2d_19">
    <path d="M 77.94054 41.274694 
L 78.590499 41.666866 
L 79.890417 48.449106 
L 80.540376 50.227144 
L 81.190335 47.262436 
L 81.515315 44.817013 
L 81.840294 44.238089 
L 82.165274 45.704098 
L 82.490253 46.407683 
L 82.815233 46.83896 
L 83.140212 46.050379 
L 83.465192 43.876471 
L 83.790171 44.680507 
L 84.76511 43.329437 
L 85.090089 41.683526 
L 85.415069 41.863079 
L 86.065028 40.940058 
L 86.714987 41.726668 
L 87.039966 40.433144 
L 87.689926 39.748145 
L 88.014905 39.686861 
L 88.339885 40.821317 
L 88.664864 39.255107 
L 88.989844 40.099811 
L 89.314823 38.165307 
L 89.639803 38.1369 
L 89.964782 37.904844 
L 90.289762 38.020207 
L 90.614741 39.393437 
L 90.939721 38.404894 
L 91.2647 38.409482 
L 91.58968 37.295968 
L 91.914659 38.505708 
L 92.239639 41.046923 
L 92.564618 42.042101 
L 92.889598 40.36021 
L 93.214577 40.260952 
L 93.539557 41.032696 
L 93.864536 41.45061 
L 94.189516 41.237267 
L 94.514496 40.470207 
L 94.839475 41.269569 
L 95.164455 40.778983 
L 95.489434 40.007772 
L 95.814414 40.051178 
L 96.139393 37.408876 
L 96.464373 36.841459 
L 96.789352 39.640391 
L 97.439311 41.205565 
L 97.764291 39.801039 
L 98.08927 40.391599 
L 98.41425 40.505716 
L 98.739229 39.710019 
L 99.064209 37.344039 
L 99.389188 37.004133 
L 99.714168 38.691989 
L 100.039147 39.486359 
L 100.364127 36.401481 
L 100.689107 34.464002 
L 101.014086 36.138342 
L 101.339066 37.015319 
L 101.664045 39.179566 
L 101.989025 38.601691 
L 102.638984 42.848271 
L 102.963963 40.264312 
L 103.288943 39.94978 
L 103.613922 38.103758 
L 103.938902 38.790874 
L 104.263881 40.264812 
L 104.588861 39.694523 
L 104.91384 39.97052 
L 105.23882 41.202613 
L 105.563799 41.249637 
L 106.213758 39.244531 
L 106.538738 40.581569 
L 106.863717 41.084827 
L 107.188697 41.022918 
L 107.513677 42.703797 
L 107.838656 43.079326 
L 108.163636 42.745079 
L 108.488615 43.315909 
L 108.813595 41.651069 
L 109.138574 41.842838 
L 109.463554 44.841434 
L 109.788533 44.900134 
L 110.438492 44.029236 
L 110.763472 44.768328 
L 111.088451 43.763417 
L 111.413431 45.495676 
L 111.73841 45.747124 
L 112.06339 42.644458 
L 112.388369 41.261647 
L 112.713349 42.662033 
L 113.038328 42.969968 
L 113.363308 41.331989 
L 113.688288 41.62718 
L 114.013267 43.484627 
L 114.338247 42.098645 
L 114.663226 41.271212 
L 114.988206 39.504281 
L 115.313185 40.389163 
L 115.638165 42.594689 
L 115.963144 43.512239 
L 116.288124 43.568042 
L 116.613103 44.968964 
L 117.263062 45.579862 
L 117.913021 44.757248 
L 118.238001 42.186338 
L 118.56298 42.712841 
L 118.88796 42.762827 
L 119.212939 43.102682 
L 119.537919 43.277731 
L 119.862898 42.081167 
L 120.187878 42.541324 
L 121.162817 45.554114 
L 121.487796 45.812033 
L 121.812776 43.940041 
L 122.137755 43.85341 
L 123.112694 36.945986 
L 123.437673 39.189342 
L 123.762653 42.744593 
L 124.087632 43.439653 
L 124.412612 43.823805 
L 124.737591 42.227381 
L 125.062571 45.285581 
L 125.38755 45.097812 
L 126.037509 43.842788 
L 126.362489 42.768813 
L 127.012448 42.015111 
L 127.662407 39.441085 
L 127.987387 41.030598 
L 128.312366 40.426496 
L 128.637346 39.373668 
L 129.287305 35.808182 
L 129.612284 37.973192 
L 129.937264 42.345591 
L 130.587223 44.629499 
L 130.912202 44.44185 
L 131.562161 42.179281 
L 132.21212 38.281641 
L 132.5371 37.210329 
L 132.862079 36.591715 
L 133.512039 40.274127 
L 133.837018 42.162218 
L 134.161998 41.024987 
L 134.486977 41.233986 
L 134.811957 42.778449 
L 135.136936 43.020896 
L 135.461916 42.923688 
L 135.786895 42.148646 
L 136.111875 40.594131 
L 136.436854 41.519142 
L 136.761834 40.917095 
L 137.736772 42.891424 
L 138.061752 43.741189 
L 138.386731 46.051165 
L 138.711711 44.063735 
L 139.36167 38.772109 
L 139.68665 39.526668 
L 140.011629 41.111768 
L 140.336609 40.008249 
L 140.661588 40.177925 
L 140.986568 42.701485 
L 141.311547 42.102028 
L 141.636527 40.959223 
L 141.961506 41.125789 
L 142.286486 43.736761 
L 142.611465 42.914359 
L 142.936445 44.017877 
L 143.261424 44.651933 
L 143.586404 43.316844 
L 143.911383 43.610613 
L 144.236363 44.951789 
L 144.561342 44.787434 
L 145.211301 44.866532 
L 145.536281 41.978175 
L 145.86126 42.935673 
L 146.18624 42.609981 
L 146.51122 41.795563 
L 146.836199 42.909619 
L 147.486158 46.84651 
L 147.811138 46.732806 
L 148.136117 46.806699 
L 148.461097 45.616735 
L 149.111056 40.813555 
L 149.436035 41.866508 
L 149.761015 39.897592 
L 150.085994 42.162878 
L 150.410974 43.012461 
L 150.735953 42.117783 
L 151.060933 39.168574 
L 151.385912 39.749096 
L 151.710892 42.304831 
L 152.360851 44.398331 
L 152.685831 43.579681 
L 153.01081 42.17909 
L 153.33579 42.440054 
L 153.660769 42.296132 
L 153.985749 40.126928 
L 154.310728 39.640079 
L 154.635708 37.198752 
L 154.960687 38.001562 
L 155.285667 39.432042 
L 155.610646 41.633915 
L 155.935626 41.619536 
L 156.260605 41.000241 
L 156.585585 40.920788 
L 156.910564 41.631435 
L 157.235544 39.879656 
L 157.560523 42.568229 
L 157.885503 41.193748 
L 158.210482 39.324475 
L 158.535462 39.848193 
L 159.185421 40.23337 
L 159.510401 40.017457 
L 159.83538 39.598998 
L 160.485339 35.958802 
L 160.810319 36.898479 
L 161.135298 36.507028 
L 161.460278 39.252994 
L 161.785257 40.160028 
L 162.110237 41.985547 
L 162.760196 39.226386 
L 163.085175 39.412938 
L 163.410155 40.836683 
L 163.735134 39.584975 
L 164.385093 35.958187 
L 165.035052 40.432736 
L 165.360032 43.966914 
L 166.009991 45.634243 
L 166.334971 45.939455 
L 166.98493 44.183518 
L 167.634889 40.562938 
L 167.959868 42.450348 
L 168.284848 42.665033 
L 168.934807 44.801117 
L 169.259786 44.975787 
L 169.584766 45.014862 
L 169.909745 41.529903 
L 170.559704 45.098031 
L 170.884684 46.459551 
L 171.209663 48.894376 
L 171.534643 48.139292 
L 172.184602 44.983021 
L 172.509582 42.273715 
L 172.834561 42.929371 
L 173.159541 41.95982 
L 173.48452 43.07874 
L 173.8095 43.65351 
L 174.134479 44.678702 
L 174.459459 45.196183 
L 174.784438 45.425426 
L 175.109418 44.000919 
L 175.434397 43.148542 
L 175.759377 44.677118 
L 176.084356 43.687005 
L 176.409336 43.263436 
L 176.734315 43.031289 
L 177.384274 42.160771 
L 177.709254 42.206935 
L 178.034233 42.628512 
L 178.359213 41.872223 
L 178.684193 41.759008 
L 179.009172 39.705645 
L 179.334152 39.400517 
L 179.659131 40.605999 
L 179.984111 40.810223 
L 180.30909 39.022222 
L 180.63407 41.296215 
L 181.284029 40.199348 
L 181.609008 39.970617 
L 181.933988 39.878504 
L 182.258967 39.089528 
L 182.583947 40.545988 
L 182.908926 42.993079 
L 183.233906 41.378305 
L 183.558885 38.552747 
L 183.883865 37.852171 
L 184.208844 38.506721 
L 184.858803 40.328532 
L 185.183783 39.600237 
L 185.508763 41.182378 
L 185.833742 41.876451 
L 186.158722 40.615669 
L 186.483701 41.224098 
L 186.808681 39.703438 
L 187.13366 39.366203 
L 187.45864 38.105514 
L 187.783619 38.141585 
L 188.108599 38.88591 
L 188.758558 37.351741 
L 189.083537 38.412421 
L 189.408517 38.349916 
L 189.733496 36.764782 
L 190.058476 38.397335 
L 190.383455 38.079244 
L 190.708435 38.678304 
L 191.033414 38.695032 
L 191.358394 39.45243 
L 191.683374 39.694356 
L 192.333333 39.530536 
L 192.658312 40.360634 
L 193.308271 40.630679 
L 193.633251 38.782702 
L 194.28321 37.741961 
L 194.608189 37.851908 
L 194.933169 37.431749 
L 195.583128 39.299682 
L 195.908107 39.643236 
L 196.558066 42.182413 
L 196.883046 39.626957 
L 197.208025 35.932732 
L 197.533005 35.231279 
L 197.857984 37.250281 
L 198.182964 36.017861 
L 198.832923 37.883125 
L 199.482882 36.358297 
L 199.807862 38.231751 
L 200.132841 39.428594 
L 200.457821 39.433595 
L 200.7828 42.414673 
L 201.10778 42.276774 
L 201.432759 41.050465 
L 201.757739 42.08268 
L 202.082718 41.454218 
L 202.407698 42.496962 
L 202.732677 41.346439 
L 203.057657 41.26441 
L 203.382636 41.303069 
L 203.707616 39.345624 
L 204.032595 40.810525 
L 204.357575 41.402712 
L 204.682555 42.392536 
L 205.007534 44.215589 
L 205.657493 41.629249 
L 205.982473 41.561163 
L 206.632432 41.252783 
L 206.957411 40.23882 
L 207.282391 40.330081 
L 207.60737 41.102106 
L 207.93235 40.926756 
L 208.257329 40.097735 
L 208.582309 39.613156 
L 208.907288 39.869311 
L 209.232268 40.66263 
L 209.557247 39.458196 
L 210.207206 39.869325 
L 210.532186 40.539508 
L 210.857165 42.341845 
L 211.507125 41.5512 
L 211.832104 41.445436 
L 212.807043 44.187153 
L 213.132022 42.951207 
L 213.457002 44.096698 
L 213.781981 43.845676 
L 214.106961 42.906107 
L 214.43194 42.466798 
L 215.081899 41.336894 
L 215.731858 42.628736 
L 216.056838 42.56584 
L 216.381817 43.450324 
L 216.706797 42.10811 
L 217.031776 41.604324 
L 217.356756 42.140337 
L 217.681736 43.77779 
L 218.006715 41.88784 
L 218.331695 41.028552 
L 218.656674 42.071881 
L 218.981654 42.390256 
L 219.306633 41.78025 
L 219.631613 42.914454 
L 219.956592 45.467972 
L 220.281572 43.898732 
L 220.606551 43.903849 
L 220.931531 43.459814 
L 221.25651 43.306862 
L 221.906469 40.521675 
L 223.206387 47.659677 
L 223.531367 47.132086 
L 223.856346 47.443793 
L 224.506306 46.019556 
L 224.831285 43.863863 
L 225.156265 42.858796 
L 225.481244 41.459015 
L 225.806224 40.628732 
L 226.131203 40.3817 
L 226.456183 41.89183 
L 226.781162 44.116401 
L 227.106142 44.573457 
L 227.431121 40.639186 
L 227.756101 38.82001 
L 228.08108 39.579332 
L 228.40606 42.03672 
L 228.731039 42.240638 
L 229.705978 37.398586 
L 230.030957 37.594406 
L 230.355937 38.96282 
L 230.680917 41.49505 
L 231.005896 41.391346 
L 231.330876 40.454267 
L 231.655855 40.682172 
L 232.305814 39.05205 
L 232.630794 41.085843 
L 232.955773 40.855729 
L 233.280753 39.863195 
L 233.605732 40.609089 
L 233.930712 40.985981 
L 234.255691 40.025203 
L 234.580671 42.357468 
L 234.90565 41.599374 
L 235.23063 42.951363 
L 235.555609 42.325557 
L 235.880589 42.27102 
L 236.205568 42.4086 
L 236.530548 40.416172 
L 236.855527 41.251516 
L 237.180507 40.889298 
L 237.505487 41.610905 
L 237.830466 42.856301 
L 238.155446 44.642196 
L 238.480425 43.390804 
L 238.805405 41.253907 
L 239.130384 41.807876 
L 239.455364 43.226594 
L 239.780343 41.560364 
L 240.105323 41.751746 
L 240.430302 44.075784 
L 241.080261 46.020341 
L 241.73022 43.534429 
L 242.380179 46.058061 
L 242.705159 46.859037 
L 243.030138 45.801438 
L 243.355118 43.272646 
L 243.680098 43.267481 
L 244.005077 43.637771 
L 244.330057 43.427155 
L 244.980016 39.872745 
L 245.304995 38.934172 
L 245.629975 39.016752 
L 245.954954 39.501933 
L 246.279934 40.428739 
L 246.929893 38.865486 
L 247.579852 40.591477 
L 247.904831 40.143437 
L 248.229811 40.407699 
L 248.55479 39.507192 
L 248.87977 39.21986 
L 249.204749 39.874896 
L 249.854708 43.621175 
L 250.179688 42.446739 
L 250.504668 41.742315 
L 250.829647 41.49741 
L 251.154627 42.624468 
L 251.479606 41.803675 
L 251.804586 39.369453 
L 252.129565 39.698694 
L 252.454545 37.613576 
L 252.779524 38.096907 
L 253.104504 38.972643 
L 253.429483 41.475958 
L 253.754463 42.733867 
L 254.079442 42.876583 
L 254.404422 42.592836 
L 254.729401 42.931022 
L 255.054381 42.607469 
L 255.70434 45.199228 
L 256.029319 44.697653 
L 256.354299 44.736905 
L 256.679279 43.020843 
L 257.004258 44.216911 
L 257.329238 44.044216 
L 257.654217 44.452686 
L 257.979197 43.912419 
L 258.304176 43.958642 
L 258.629156 41.896508 
L 258.954135 43.567725 
L 259.279115 46.804665 
L 259.604094 48.317433 
L 259.929074 47.43097 
L 260.579033 43.525456 
L 260.904012 43.173325 
L 261.228992 43.872728 
L 261.553971 41.585521 
L 261.878951 41.535932 
L 262.20393 44.486194 
L 262.853889 45.298933 
L 263.503849 46.449747 
L 263.828828 45.418145 
L 264.478787 40.784961 
L 264.803767 41.729604 
L 265.453726 42.063391 
L 265.778705 42.942869 
L 266.103685 42.50224 
L 266.428664 44.325022 
L 266.753644 43.122602 
L 267.078623 42.881089 
L 267.403603 40.666619 
L 267.728582 40.240783 
L 268.378541 42.728332 
L 268.703521 41.802414 
L 269.0285 43.082893 
L 269.35348 41.922809 
L 270.003439 44.621715 
L 270.328419 43.838606 
L 270.653398 42.027918 
L 270.978378 42.3954 
L 271.303357 43.54758 
L 271.628337 43.262784 
L 272.278296 45.185926 
L 272.603275 47.543067 
L 272.928255 47.822943 
L 274.228173 41.618243 
L 274.553152 41.61707 
L 274.878132 41.773975 
L 275.203111 42.460626 
L 275.85307 40.03512 
L 276.50303 42.742647 
L 276.828009 43.120217 
L 277.477968 39.731776 
L 277.802948 40.703542 
L 278.127927 41.008477 
L 278.452907 42.489131 
L 278.777886 43.108554 
L 279.752825 39.680122 
L 280.077804 41.704707 
L 280.402784 42.779002 
L 280.727763 41.964489 
L 281.052743 42.584503 
L 281.377722 45.369756 
L 281.702702 45.691586 
L 282.027681 45.386004 
L 282.352661 45.883425 
L 282.677641 45.317238 
L 283.00262 45.132591 
L 283.3276 43.068023 
L 283.977559 46.058553 
L 284.302538 45.795315 
L 285.277477 44.673463 
L 285.602456 43.197458 
L 285.927436 45.201052 
L 286.252415 45.304196 
L 286.577395 45.911736 
L 286.902374 45.784488 
L 287.227354 43.478407 
L 287.877313 41.438846 
L 288.202292 41.009853 
L 288.527272 42.998658 
L 288.852251 41.910921 
L 289.177231 40.349147 
L 289.502211 40.464283 
L 290.15217 43.76151 
L 290.477149 40.702724 
L 290.802129 40.652233 
L 291.127108 39.855438 
L 291.452088 40.429327 
L 291.777067 42.096715 
L 292.102047 41.328942 
L 292.427026 40.176098 
L 292.752006 40.947429 
L 293.076985 39.118045 
L 293.726944 42.410639 
L 294.051924 42.500182 
L 294.376903 43.415737 
L 294.701883 43.589951 
L 295.026862 43.039627 
L 295.351842 42.81856 
L 295.676822 43.024874 
L 296.001801 43.365486 
L 296.326781 41.405827 
L 296.65176 40.826446 
L 296.97674 41.595263 
L 297.301719 44.543255 
L 297.626699 46.233426 
L 297.951678 45.28919 
L 298.276658 45.908472 
L 298.926617 40.987559 
L 299.251596 43.284637 
L 299.576576 44.003792 
L 299.901555 45.719419 
L 300.226535 46.592817 
L 300.876494 44.955401 
L 301.201473 45.629967 
L 301.851432 43.49897 
L 302.176412 44.807204 
L 302.501392 43.793358 
L 302.826371 44.799686 
L 303.151351 45.178704 
L 304.126289 41.43451 
L 304.451269 41.877648 
L 304.776248 40.007061 
L 305.751187 43.516222 
L 306.076166 45.100191 
L 306.401146 44.690763 
L 307.376084 41.553279 
L 307.701064 41.538565 
L 308.351023 42.007802 
L 308.676003 42.427081 
L 309.000982 41.892617 
L 309.325962 42.509721 
L 309.650941 42.222916 
L 309.975921 42.127516 
L 310.62588 43.111017 
L 310.950859 42.605393 
L 311.275839 40.318378 
L 311.600818 41.066696 
L 311.925798 40.988161 
L 312.250777 41.604023 
L 312.575757 41.633703 
L 312.900736 40.971709 
L 313.550695 41.193035 
L 313.875675 40.630147 
L 314.525634 40.247381 
L 314.850613 39.939939 
L 315.175593 38.583355 
L 316.800491 39.685942 
L 317.45045 37.606809 
L 317.775429 40.073331 
L 318.100409 38.301504 
L 318.425388 38.658412 
L 318.750368 40.245028 
L 319.075347 40.641206 
L 319.400327 38.286424 
L 319.725306 37.106977 
L 320.050286 37.111841 
L 320.375265 36.516311 
L 320.700245 35.026386 
L 321.025224 35.534802 
L 321.350204 37.568911 
L 321.675184 38.824084 
L 322.000163 38.584805 
L 322.325143 39.050451 
L 322.650122 40.432462 
L 322.975102 40.38933 
L 323.95004 37.673049 
L 324.27502 37.969275 
L 324.599999 37.100077 
L 324.924979 39.408036 
L 325.249958 39.961435 
L 325.574938 39.629839 
L 326.549876 34.414125 
L 326.874856 34.891999 
L 327.199835 35.708362 
L 327.849794 39.267674 
L 328.174774 39.349624 
L 328.499754 41.557093 
L 328.824733 40.924255 
L 329.149713 41.703731 
L 329.474692 44.649553 
L 329.799672 43.869086 
L 330.124651 41.963316 
L 330.449631 41.666122 
L 330.77461 41.928682 
L 331.09959 44.261226 
L 331.749549 44.081812 
L 332.074528 43.341408 
L 332.399508 42.259409 
L 333.049467 41.917872 
L 333.374446 43.323358 
L 333.699426 42.359508 
L 334.349385 37.903703 
L 334.674365 40.106552 
L 334.999344 39.584791 
L 335.324324 41.076616 
L 335.649303 41.318317 
L 335.974283 42.691898 
L 336.299262 42.730907 
L 336.624242 41.832801 
L 336.949221 41.842653 
L 337.59918 39.98556 
L 337.92416 39.25761 
L 338.574119 36.557222 
L 338.899098 37.662211 
L 339.224078 38.33528 
L 339.874037 40.752152 
L 340.199016 39.376434 
L 340.523996 39.966946 
L 340.848975 41.67849 
L 341.173955 40.949743 
L 341.498935 40.806682 
L 341.823914 38.804199 
L 342.148894 42.565395 
L 342.473873 42.585382 
L 342.798853 41.993051 
L 343.123832 43.197476 
L 343.773791 43.711598 
L 344.098771 43.799611 
L 344.42375 42.97511 
L 344.74873 41.032666 
L 345.073709 40.60354 
L 345.398689 41.021545 
L 345.723668 43.235351 
L 346.048648 42.590055 
L 346.373627 44.435696 
L 346.698607 45.058235 
L 347.023586 44.425177 
L 347.348566 43.121703 
L 347.673546 43.915946 
L 347.998525 44.151425 
L 348.323505 42.948611 
L 348.648484 44.022694 
L 348.973464 43.049536 
L 349.298443 43.69611 
L 349.948402 45.764614 
L 350.273382 46.795951 
L 350.923341 44.314796 
L 351.24832 45.607878 
L 351.5733 45.905496 
L 351.898279 46.413768 
L 352.223259 45.415339 
L 352.548238 44.782229 
L 352.873218 44.72103 
L 353.198197 44.114773 
L 353.523177 42.363561 
L 353.848156 44.063367 
L 354.173136 44.820381 
L 354.823095 41.462249 
L 355.148075 37.611511 
L 355.473054 37.6862 
L 355.798034 40.803451 
L 356.123013 39.903931 
L 356.772972 42.621305 
L 357.097952 42.689835 
L 357.422931 43.233548 
L 357.747911 43.359709 
L 358.07289 42.684829 
L 358.39787 43.766979 
L 358.722849 43.834488 
L 359.047829 43.08551 
L 359.372808 43.628674 
L 359.697788 42.732661 
L 360.022767 41.28018 
L 360.347747 42.523545 
L 360.672727 42.937271 
L 360.997706 42.226999 
L 361.322686 43.003092 
L 361.647665 39.909068 
L 361.972645 39.441525 
L 362.297624 41.458298 
L 362.622604 42.46525 
L 362.947583 42.534016 
L 363.272563 40.971367 
L 363.922522 41.474549 
L 364.247501 40.177155 
L 364.572481 40.212333 
L 364.89746 40.731761 
L 365.547419 43.01581 
L 365.872399 43.095645 
L 366.197378 42.585813 
L 366.522358 42.577596 
L 366.847337 44.149835 
L 367.172317 44.770516 
L 367.822276 43.478236 
L 368.147256 44.953232 
L 368.472235 44.603511 
L 368.797215 43.623327 
L 369.122194 44.145082 
L 369.447174 43.45143 
L 370.422112 42.939378 
L 370.747092 43.435387 
L 371.072071 42.608618 
L 371.397051 42.381396 
L 371.72203 42.514381 
L 372.04701 44.727636 
L 372.371989 43.830525 
L 373.346928 43.976046 
L 373.671908 42.494062 
L 373.996887 42.594107 
L 374.321867 44.40116 
L 374.646846 44.086252 
L 374.971826 44.035707 
L 375.296805 43.728909 
L 375.621785 42.444972 
L 375.946764 39.949532 
L 376.596723 40.506817 
L 376.921703 37.800088 
L 377.571662 40.371868 
L 377.896641 40.823749 
L 378.221621 39.889284 
L 378.5466 40.051154 
L 378.87158 40.710356 
L 379.196559 42.339874 
L 379.846518 43.872051 
L 380.171498 44.031277 
L 380.496478 41.386094 
L 380.821457 40.409841 
L 381.471416 44.372145 
L 381.796396 46.500785 
L 382.121375 45.503077 
L 382.446355 43.758207 
L 382.771334 43.546787 
L 383.421293 41.423376 
L 383.746273 41.790243 
L 384.071252 42.392783 
L 384.396232 43.971888 
L 384.721211 44.949825 
L 385.046191 44.408222 
L 385.69615 41.123303 
L 386.021129 41.945204 
L 386.346109 43.085481 
L 386.671089 43.395432 
L 387.646027 42.382698 
L 387.971007 41.702042 
L 388.295986 41.694093 
L 388.620966 40.020102 
L 388.945945 39.55691 
L 389.270925 40.946515 
L 389.595904 41.709728 
L 389.920884 39.60819 
L 390.245863 40.17019 
L 390.570843 41.490159 
L 390.895822 40.91486 
L 391.220802 41.086427 
L 391.545781 43.114831 
L 391.870761 43.749524 
L 392.52072 42.714773 
L 392.845699 44.216032 
L 393.170679 43.863758 
L 393.495659 43.042422 
L 393.820638 41.645377 
L 394.145618 41.77642 
L 394.795577 43.663742 
L 395.445536 42.536268 
L 395.770515 42.641841 
L 396.420474 40.322413 
L 396.745454 40.93467 
L 397.070433 38.143813 
L 397.395413 38.805908 
L 397.720392 40.915334 
L 398.045372 40.150618 
L 398.695331 35.606655 
L 399.34529 39.8375 
L 399.67027 40.175653 
L 399.995249 40.703931 
L 400.320229 38.624824 
L 400.645208 42.307527 
L 400.970188 42.422384 
L 401.295167 41.067264 
L 401.620147 42.480656 
L 401.945126 42.866008 
L 402.270106 42.728472 
L 402.595085 41.670273 
L 402.595085 41.670273 
" clip-path="url(#p007751761f)" style="fill: none; stroke: #ff7f0e; stroke-width: 1.5; stroke-linecap: square"/>
   </g>
   <g id="line2d_20">
    <path d="M 77.94054 231.862197 
L 78.265519 232.078891 
L 78.590499 231.99113 
L 78.915478 232.590897 
L 79.240458 231.794565 
L 79.565437 228.525497 
L 80.215396 225.719774 
L 80.540376 226.386273 
L 81.515315 223.786816 
L 81.840294 223.618991 
L 82.165274 224.064981 
L 82.490253 223.722091 
L 82.815233 224.34404 
L 83.140212 224.490265 
L 83.465192 222.494651 
L 83.790171 222.87441 
L 84.44013 222.183685 
L 84.76511 222.090033 
L 85.090089 221.272885 
L 85.415069 221.28476 
L 85.740048 220.292714 
L 86.065028 219.885878 
L 86.714987 220.550991 
L 88.014905 216.963259 
L 88.339885 217.823264 
L 88.664864 215.661435 
L 88.989844 215.762366 
L 89.314823 214.709929 
L 89.639803 215.323198 
L 89.964782 214.816321 
L 90.289762 214.655304 
L 90.614741 214.896172 
L 90.939721 213.401588 
L 91.2647 213.862816 
L 91.58968 212.795145 
L 91.914659 213.27633 
L 92.239639 214.505595 
L 92.564618 214.22256 
L 92.889598 212.486595 
L 93.539557 214.160344 
L 93.864536 214.25921 
L 94.189516 214.174643 
L 94.514496 213.538805 
L 94.839475 214.45575 
L 95.164455 214.093119 
L 95.489434 213.533287 
L 95.814414 213.684248 
L 96.139393 211.513223 
L 96.464373 211.431351 
L 96.789352 214.23556 
L 97.114332 214.26778 
L 97.439311 214.171631 
L 97.764291 212.501019 
L 98.08927 212.777325 
L 98.41425 212.746317 
L 98.739229 212.493006 
L 99.064209 211.274034 
L 99.389188 211.412314 
L 99.714168 212.867927 
L 100.039147 213.744939 
L 100.364127 212.364468 
L 100.689107 212.570825 
L 101.014086 215.449187 
L 101.339066 215.58646 
L 101.664045 216.022809 
L 101.989025 213.495898 
L 102.314004 213.988091 
L 102.638984 215.973641 
L 102.963963 214.869074 
L 103.288943 215.582876 
L 103.613922 215.015153 
L 104.263881 216.492936 
L 104.588861 215.621591 
L 104.91384 215.577444 
L 105.23882 216.036446 
L 105.563799 216.027622 
L 106.213758 215.133973 
L 106.538738 216.768804 
L 106.863717 217.214436 
L 107.188697 216.975883 
L 107.513677 217.851261 
L 107.838656 217.853017 
L 108.163636 218.016733 
L 108.488615 219.074109 
L 108.813595 218.05701 
L 109.138574 218.432548 
L 109.463554 219.907231 
L 109.788533 219.14924 
L 110.113513 219.101852 
L 110.438492 219.270181 
L 110.763472 220.757266 
L 111.088451 220.314876 
L 111.413431 221.415022 
L 111.73841 221.100673 
L 112.06339 218.97255 
L 112.388369 218.71222 
L 112.713349 219.849169 
L 113.038328 220.514602 
L 113.363308 220.270311 
L 113.688288 221.412136 
L 114.013267 223.399784 
L 114.338247 222.034627 
L 114.663226 221.538333 
L 114.988206 219.625329 
L 115.313185 219.853092 
L 115.638165 221.42281 
L 115.963144 221.719151 
L 116.288124 220.805412 
L 116.613103 220.994079 
L 117.263062 220.213744 
L 117.588042 219.306675 
L 117.913021 220.000075 
L 118.238001 219.34574 
L 118.56298 220.599532 
L 118.88796 220.75503 
L 119.537919 222.933327 
L 119.862898 221.871359 
L 120.187878 222.290662 
L 120.512858 222.983798 
L 120.837837 224.156767 
L 121.162817 224.009722 
L 121.487796 223.162261 
L 121.812776 220.88891 
L 122.137755 221.075349 
L 122.462735 219.437958 
L 123.112694 217.605256 
L 123.762653 220.380362 
L 124.087632 219.711331 
L 124.412612 219.972159 
L 124.737591 218.394531 
L 125.062571 221.100804 
L 126.037509 219.353417 
L 126.362489 218.323484 
L 126.687469 217.836177 
L 127.012448 218.063571 
L 127.662407 216.661662 
L 127.987387 217.573761 
L 128.312366 216.699688 
L 128.962325 216.039624 
L 129.287305 214.406889 
L 129.612284 215.941963 
L 129.937264 219.36069 
L 130.587223 221.608364 
L 131.237182 220.836672 
L 131.562161 220.857111 
L 132.21212 219.67777 
L 132.5371 219.847176 
L 132.862079 219.664134 
L 133.187059 220.619039 
L 133.512039 220.463325 
L 133.837018 221.291427 
L 134.161998 219.966179 
L 134.486977 220.14334 
L 134.811957 221.304801 
L 135.136936 221.729256 
L 135.461916 221.826351 
L 136.111875 219.553897 
L 136.436854 220.94179 
L 136.761834 221.300437 
L 137.086813 222.009319 
L 137.411793 221.859523 
L 137.736772 220.610577 
L 138.061752 219.826989 
L 138.386731 221.19896 
L 139.36167 216.840406 
L 139.68665 217.818219 
L 140.011629 219.221116 
L 140.661588 216.819985 
L 140.986568 218.561658 
L 141.636527 217.479663 
L 141.961506 217.314705 
L 142.286486 218.352371 
L 142.611465 216.604532 
L 143.261424 219.976111 
L 143.586404 219.747813 
L 143.911383 220.38873 
L 144.236363 221.471703 
L 144.561342 220.697296 
L 145.211301 221.073158 
L 145.536281 218.780613 
L 145.86126 220.615935 
L 146.18624 220.676282 
L 146.51122 219.848109 
L 146.836199 219.817884 
L 147.486158 222.288002 
L 147.811138 221.86416 
L 148.136117 222.602132 
L 148.461097 221.903084 
L 149.111056 219.403666 
L 149.436035 220.936846 
L 149.761015 218.97923 
L 150.085994 220.360559 
L 150.410974 219.812884 
L 151.060933 216.953872 
L 151.385912 217.589632 
L 151.710892 218.879448 
L 152.035871 218.792194 
L 152.360851 219.962214 
L 152.685831 219.994323 
L 153.01081 219.48428 
L 153.33579 219.19777 
L 153.660769 218.366451 
L 153.985749 216.017296 
L 154.310728 216.218506 
L 154.635708 214.881529 
L 154.960687 216.088811 
L 155.285667 216.704708 
L 155.610646 217.704568 
L 155.935626 217.921218 
L 156.260605 218.368353 
L 156.585585 219.240325 
L 156.910564 219.690643 
L 157.235544 216.578478 
L 157.560523 218.320864 
L 158.210482 216.438467 
L 158.535462 216.73876 
L 159.185421 215.61273 
L 159.510401 215.698827 
L 159.83538 215.402622 
L 160.16036 213.898768 
L 160.485339 213.516713 
L 160.810319 215.529227 
L 161.135298 215.18074 
L 161.460278 217.461962 
L 161.785257 218.360469 
L 162.110237 220.271013 
L 162.760196 217.937492 
L 163.085175 217.747882 
L 163.410155 218.117383 
L 163.735134 216.712976 
L 164.060114 216.662565 
L 164.385093 216.43004 
L 164.710073 217.486199 
L 165.035052 217.771959 
L 165.360032 219.743149 
L 165.685012 220.862586 
L 166.009991 221.5642 
L 166.334971 221.851497 
L 166.65995 221.796571 
L 166.98493 222.428055 
L 167.309909 222.129685 
L 167.634889 221.002378 
L 167.959868 222.249751 
L 168.284848 221.896748 
L 169.259786 224.530372 
L 169.584766 224.90818 
L 169.909745 221.91526 
L 170.234725 223.584103 
L 170.559704 224.439223 
L 170.884684 224.228458 
L 171.209663 225.299869 
L 171.534643 224.491418 
L 172.184602 222.245144 
L 172.509582 220.343004 
L 172.834561 221.202682 
L 173.159541 220.044065 
L 173.48452 220.316612 
L 173.8095 220.349164 
L 174.134479 221.151798 
L 174.459459 220.699623 
L 174.784438 220.538755 
L 175.109418 220.552045 
L 175.434397 220.720997 
L 175.759377 221.041311 
L 176.409336 218.603079 
L 177.059295 217.290477 
L 177.384274 217.241994 
L 178.034233 216.75985 
L 178.359213 215.583608 
L 178.684193 216.72071 
L 179.009172 215.860712 
L 179.334152 215.93643 
L 179.659131 216.531671 
L 179.984111 215.760861 
L 180.30909 213.088138 
L 180.63407 215.293253 
L 180.959049 215.165552 
L 181.609008 216.015687 
L 181.933988 215.511836 
L 182.258967 214.238881 
L 182.908926 217.398934 
L 183.883865 214.700773 
L 184.208844 214.013837 
L 184.533824 214.358528 
L 184.858803 215.665933 
L 185.183783 215.181371 
L 185.508763 216.155512 
L 185.833742 215.689746 
L 186.158722 214.441554 
L 186.483701 215.316857 
L 186.808681 214.489482 
L 187.13366 214.67685 
L 187.45864 213.710932 
L 187.783619 213.190942 
L 188.108599 212.374597 
L 188.433578 210.764274 
L 188.758558 210.431962 
L 189.083537 211.746043 
L 189.408517 211.781478 
L 189.733496 210.922649 
L 190.058476 211.685282 
L 190.383455 210.322995 
L 190.708435 211.601851 
L 191.033414 212.395672 
L 192.008353 215.566369 
L 192.658312 215.207021 
L 192.983292 213.290992 
L 193.95823 209.675972 
L 194.28321 209.77809 
L 194.608189 210.535319 
L 194.933169 210.239212 
L 195.258148 211.815712 
L 195.583128 212.609095 
L 195.908107 212.610943 
L 196.558066 213.495011 
L 197.208025 209.081791 
L 197.533005 208.910197 
L 197.857984 210.204405 
L 198.182964 208.578717 
L 198.507944 208.8507 
L 198.832923 209.489319 
L 199.482882 209.28699 
L 199.807862 211.965804 
L 200.132841 212.445689 
L 200.457821 211.683569 
L 200.7828 213.872508 
L 201.10778 213.921977 
L 201.432759 213.502974 
L 201.757739 214.852851 
L 202.082718 214.178121 
L 202.407698 214.866839 
L 202.732677 213.488047 
L 203.057657 213.044338 
L 203.382636 213.02938 
L 203.707616 211.449878 
L 204.032595 213.031826 
L 204.357575 213.706295 
L 204.682555 213.872089 
L 205.007534 215.010723 
L 205.332514 214.789233 
L 205.657493 214.249208 
L 205.982473 213.984416 
L 206.632432 213.008166 
L 206.957411 211.409322 
L 207.282391 211.148952 
L 207.60737 212.130311 
L 207.93235 212.022294 
L 208.257329 211.513935 
L 208.582309 211.327814 
L 209.232268 212.126002 
L 209.557247 209.584618 
L 209.882227 209.712372 
L 210.207206 210.882763 
L 210.532186 211.112979 
L 210.857165 211.702523 
L 211.182145 210.95762 
L 211.507125 210.797534 
L 211.832104 210.820863 
L 212.482063 212.21927 
L 212.807043 213.659809 
L 213.132022 212.713827 
L 213.457002 212.759906 
L 214.106961 210.65482 
L 214.43194 210.525701 
L 214.75692 210.818611 
L 215.081899 210.63402 
L 215.731858 211.953845 
L 216.056838 211.728925 
L 216.381817 212.112459 
L 216.706797 211.132438 
L 217.356756 210.978972 
L 217.681736 212.723732 
L 218.006715 212.149276 
L 218.331695 212.067272 
L 218.656674 212.727875 
L 218.981654 212.930085 
L 219.306633 212.886291 
L 219.631613 213.75206 
L 219.956592 215.918668 
L 220.281572 214.793467 
L 220.606551 215.615398 
L 220.931531 216.045083 
L 221.25651 215.837513 
L 221.58149 215.202955 
L 221.906469 213.951137 
L 222.231449 214.618322 
L 222.556428 214.93085 
L 223.206387 217.008447 
L 223.531367 216.36328 
L 223.856346 216.542285 
L 224.181326 215.761248 
L 224.506306 215.279472 
L 224.831285 213.556897 
L 225.481244 212.433638 
L 225.806224 212.598605 
L 226.131203 212.431588 
L 226.456183 212.482138 
L 226.781162 213.08917 
L 227.106142 212.915378 
L 227.431121 210.06283 
L 227.756101 209.042527 
L 228.08108 208.716161 
L 228.731039 209.36711 
L 229.056019 208.982172 
L 229.380998 209.263987 
L 229.705978 208.89399 
L 230.680917 211.444281 
L 231.330876 210.270897 
L 231.655855 211.669337 
L 231.980835 211.814844 
L 232.305814 210.795428 
L 232.630794 212.224282 
L 232.955773 212.060801 
L 233.280753 211.514544 
L 233.930712 212.982086 
L 234.255691 211.109815 
L 234.580671 212.552485 
L 234.90565 212.714492 
L 235.23063 214.961259 
L 235.555609 214.61844 
L 235.880589 214.885741 
L 236.205568 214.379635 
L 236.530548 211.786825 
L 236.855527 212.740749 
L 237.180507 213.112945 
L 237.505487 213.280191 
L 237.830466 212.79282 
L 238.155446 214.168363 
L 238.480425 213.586493 
L 238.805405 211.758321 
L 239.130384 212.251709 
L 239.455364 213.836862 
L 239.780343 212.53762 
L 240.105323 212.342286 
L 240.430302 213.816216 
L 240.755282 214.10126 
L 241.080261 214.728615 
L 241.73022 212.156101 
L 242.380179 212.852877 
L 242.705159 213.645713 
L 243.030138 213.112007 
L 243.355118 211.43101 
L 243.680098 211.639252 
L 244.330057 212.932207 
L 245.304995 208.144952 
L 245.629975 208.1982 
L 245.954954 209.338136 
L 246.279934 210.923992 
L 246.604913 209.886045 
L 246.929893 209.334666 
L 247.254872 211.255622 
L 247.579852 212.061851 
L 247.904831 210.860482 
L 248.229811 210.688775 
L 248.87977 212.016738 
L 249.204749 212.156198 
L 249.529729 213.607368 
L 249.854708 214.23315 
L 250.829647 211.392593 
L 251.154627 212.184489 
L 251.479606 212.262488 
L 251.804586 211.221683 
L 252.129565 212.009761 
L 252.454545 210.378169 
L 252.779524 211.302341 
L 253.104504 211.177496 
L 253.429483 211.812833 
L 253.754463 212.200649 
L 254.079442 213.004082 
L 254.404422 213.109169 
L 254.729401 213.997803 
L 255.054381 214.003311 
L 255.37936 214.663718 
L 255.70434 215.642702 
L 256.029319 216.192602 
L 256.354299 217.569057 
L 256.679279 215.852228 
L 257.004258 215.91456 
L 257.329238 214.748505 
L 257.654217 214.921964 
L 257.979197 214.185242 
L 258.304176 214.324993 
L 258.629156 214.111214 
L 259.279115 218.563798 
L 259.604094 219.254121 
L 259.929074 218.827831 
L 260.579033 216.563673 
L 260.904012 216.033174 
L 261.228992 216.077551 
L 261.553971 213.869274 
L 261.878951 213.575998 
L 262.20393 214.911743 
L 262.52891 214.123518 
L 262.853889 214.271564 
L 263.503849 216.058157 
L 263.828828 216.139853 
L 264.153808 215.310087 
L 264.478787 214.975792 
L 264.803767 216.347314 
L 265.453726 215.041893 
L 265.778705 215.476734 
L 266.103685 214.563471 
L 266.428664 216.097416 
L 266.753644 215.71307 
L 267.078623 216.442575 
L 267.403603 215.409766 
L 267.728582 215.365377 
L 268.053562 216.184442 
L 268.378541 216.131054 
L 268.703521 214.70884 
L 269.0285 215.328724 
L 269.35348 214.283376 
L 270.003439 217.340383 
L 270.328419 217.029764 
L 270.653398 215.972048 
L 270.978378 216.02027 
L 271.303357 216.814973 
L 271.628337 216.521282 
L 271.953316 216.861311 
L 272.278296 216.543825 
L 272.603275 217.167 
L 272.928255 216.862399 
L 273.578214 217.747139 
L 274.228173 216.026877 
L 274.878132 215.527506 
L 275.203111 215.617733 
L 275.85307 213.988374 
L 276.17805 215.02766 
L 276.50303 214.585471 
L 276.828009 214.587132 
L 277.152989 213.301454 
L 277.477968 212.97211 
L 277.802948 214.176236 
L 278.127927 214.703436 
L 278.452907 215.83698 
L 278.777886 215.78945 
L 279.102866 214.347637 
L 279.427845 214.26887 
L 279.752825 213.513074 
L 280.077804 215.101278 
L 280.727763 215.895491 
L 281.052743 217.460214 
L 281.377722 220.073705 
L 281.702702 219.541884 
L 282.027681 218.756292 
L 282.352661 219.112479 
L 282.677641 218.581672 
L 283.00262 219.029667 
L 283.3276 218.355127 
L 283.652579 220.773182 
L 283.977559 221.170352 
L 284.302538 220.526511 
L 284.627518 220.917996 
L 284.952497 220.903255 
L 285.277477 220.585816 
L 285.602456 218.930609 
L 285.927436 220.028362 
L 286.252415 218.64587 
L 286.577395 218.48221 
L 286.902374 219.017651 
L 287.227354 217.729039 
L 287.552333 216.989276 
L 288.202292 215.168767 
L 288.527272 216.47111 
L 288.852251 216.055757 
L 289.177231 215.106348 
L 289.502211 214.648421 
L 289.82719 214.83004 
L 290.15217 216.524455 
L 290.477149 215.428089 
L 290.802129 216.493323 
L 291.127108 215.385046 
L 291.452088 214.918171 
L 291.777067 215.55673 
L 292.102047 215.186032 
L 292.427026 215.057858 
L 292.752006 216.051919 
L 293.076985 213.669249 
L 293.401965 213.616891 
L 294.051924 214.900641 
L 294.376903 216.970138 
L 294.701883 217.790453 
L 295.676822 216.846419 
L 296.001801 216.94265 
L 296.326781 216.140749 
L 296.65176 216.248083 
L 296.97674 215.734907 
L 297.626699 216.484882 
L 297.951678 216.332641 
L 298.276658 217.950693 
L 298.601637 217.126255 
L 298.926617 215.234501 
L 299.251596 217.414677 
L 299.576576 217.301967 
L 299.901555 217.627223 
L 300.226535 218.252352 
L 300.876494 218.703404 
L 301.201473 219.524102 
L 301.851432 217.868359 
L 302.176412 218.434952 
L 302.501392 216.74012 
L 302.826371 217.650277 
L 303.151351 217.738694 
L 303.47633 216.195176 
L 304.126289 214.492995 
L 304.451269 216.169445 
L 304.776248 215.454181 
L 305.426207 218.414478 
L 305.751187 219.083874 
L 306.076166 219.274891 
L 306.401146 217.747276 
L 306.726125 217.230039 
L 307.051105 217.73982 
L 307.376084 216.33647 
L 307.701064 215.539482 
L 308.026043 215.685214 
L 308.351023 216.856612 
L 308.676003 217.159466 
L 309.000982 215.407721 
L 309.650941 215.887126 
L 309.975921 216.639996 
L 310.3009 216.621176 
L 310.950859 217.109843 
L 311.275839 215.940519 
L 311.600818 217.192588 
L 311.925798 216.889929 
L 312.250777 216.838573 
L 312.900736 214.780451 
L 313.225716 214.462068 
L 313.550695 214.322283 
L 314.200654 212.804309 
L 315.175593 212.564866 
L 315.500573 213.209599 
L 315.825552 213.00934 
L 316.150532 213.097188 
L 316.475511 213.569112 
L 316.800491 214.569272 
L 317.12547 213.559427 
L 317.45045 211.943603 
L 317.775429 213.187326 
L 318.100409 211.413044 
L 318.425388 211.249046 
L 318.750368 211.362831 
L 319.075347 211.329812 
L 319.400327 210.519098 
L 319.725306 210.615541 
L 320.050286 210.431113 
L 320.375265 209.303534 
L 320.700245 207.718341 
L 321.025224 207.831433 
L 321.350204 209.215365 
L 321.675184 209.477639 
L 322.000163 208.911175 
L 322.325143 209.054236 
L 322.975102 210.865423 
L 323.300081 210.997771 
L 323.625061 210.835958 
L 323.95004 211.286941 
L 324.27502 211.08649 
L 324.599999 208.901978 
L 324.924979 209.753389 
L 325.574938 210.498421 
L 326.224897 210.018933 
L 326.549876 208.753099 
L 326.874856 209.122599 
L 327.199835 209.24888 
L 327.849794 211.806541 
L 328.174774 211.384596 
L 328.499754 213.471165 
L 328.824733 213.652257 
L 329.149713 214.256493 
L 329.474692 216.134663 
L 329.799672 215.954015 
L 330.124651 215.267725 
L 330.449631 215.597894 
L 330.77461 215.619211 
L 331.09959 217.142817 
L 331.424569 216.143325 
L 331.749549 215.638352 
L 332.074528 215.602124 
L 332.399508 215.209546 
L 332.724487 215.640261 
L 333.049467 215.811716 
L 333.374446 216.777006 
L 333.699426 216.219964 
L 334.024405 215.128378 
L 334.349385 213.051298 
L 334.674365 215.072676 
L 334.999344 214.514154 
L 335.324324 215.792506 
L 335.649303 214.813708 
L 336.299262 214.999596 
L 336.624242 214.353671 
L 336.949221 214.359632 
L 337.274201 213.286924 
L 337.59918 212.84976 
L 337.92416 212.808525 
L 338.249139 212.133717 
L 338.574119 210.24305 
L 339.224078 211.664709 
L 339.874037 212.564847 
L 340.199016 211.199071 
L 340.523996 211.197561 
L 340.848975 212.313193 
L 341.173955 211.961254 
L 341.498935 212.184471 
L 341.823914 210.65435 
L 342.148894 213.597465 
L 342.473873 213.823278 
L 342.798853 214.481652 
L 343.123832 216.253347 
L 343.448812 216.189827 
L 344.098771 217.196198 
L 344.42375 216.539947 
L 344.74873 215.0804 
L 345.073709 214.535304 
L 345.398689 213.726439 
L 345.723668 214.631841 
L 346.048648 213.370995 
L 346.698607 217.892507 
L 347.023586 219.06166 
L 347.348566 218.146327 
L 347.673546 218.461271 
L 347.998525 218.242686 
L 348.323505 216.860274 
L 348.648484 218.695456 
L 349.948402 219.666017 
L 350.273382 220.47502 
L 350.923341 217.656119 
L 351.24832 219.010026 
L 351.898279 220.15118 
L 352.548238 218.159137 
L 352.873218 218.418066 
L 353.198197 218.260458 
L 353.523177 216.171183 
L 353.848156 217.453208 
L 354.173136 217.752689 
L 354.823095 216.600103 
L 355.148075 213.343678 
L 355.473054 212.326646 
L 355.798034 213.37341 
L 356.123013 211.909649 
L 356.447993 214.401961 
L 356.772972 215.037601 
L 358.07289 213.240759 
L 358.39787 214.172862 
L 358.722849 214.367857 
L 359.047829 214.301143 
L 359.372808 215.293559 
L 359.697788 214.788088 
L 360.022767 213.339522 
L 360.347747 213.856773 
L 360.672727 213.682298 
L 360.997706 212.810683 
L 361.322686 213.661097 
L 361.647665 211.328575 
L 361.972645 210.484972 
L 362.622604 213.092023 
L 362.947583 213.419575 
L 363.272563 211.992307 
L 363.597542 211.561648 
L 363.922522 210.926059 
L 364.247501 209.506411 
L 364.572481 209.482825 
L 364.89746 209.641328 
L 365.22244 210.268891 
L 365.547419 210.54929 
L 366.197378 209.753576 
L 366.522358 210.191172 
L 367.172317 212.92612 
L 367.497297 213.214436 
L 367.822276 212.428405 
L 368.147256 213.495251 
L 368.472235 214.051574 
L 368.797215 214.249882 
L 369.122194 215.094895 
L 369.447174 214.397077 
L 369.772153 214.009264 
L 370.097133 213.447932 
L 370.422112 213.152789 
L 370.747092 214.059539 
L 371.072071 213.190274 
L 371.397051 212.990991 
L 371.72203 212.323462 
L 372.04701 212.901288 
L 372.371989 211.205725 
L 372.696969 211.251869 
L 373.021948 210.977939 
L 373.346928 210.949467 
L 373.671908 209.541996 
L 373.996887 209.348915 
L 374.321867 211.086587 
L 374.646846 210.6428 
L 375.296805 211.028363 
L 375.621785 210.827576 
L 375.946764 209.144459 
L 376.596723 210.243023 
L 376.921703 208.664783 
L 377.246682 210.631414 
L 377.571662 211.149737 
L 377.896641 211.19697 
L 378.221621 210.812555 
L 378.5466 211.256257 
L 378.87158 211.312448 
L 379.196559 212.538064 
L 379.521539 212.916833 
L 380.171498 212.713573 
L 380.496478 211.518945 
L 380.821457 211.573799 
L 381.471416 213.346231 
L 381.796396 214.53481 
L 382.121375 213.46353 
L 382.446355 211.915226 
L 382.771334 212.598864 
L 383.096314 212.266974 
L 383.421293 211.27513 
L 383.746273 211.002016 
L 384.396232 211.221496 
L 384.721211 211.982825 
L 385.046191 213.289885 
L 385.37117 214.045224 
L 385.69615 212.753129 
L 386.021129 212.222988 
L 386.346109 211.988856 
L 386.671089 211.587071 
L 387.971007 208.750375 
L 388.295986 208.986308 
L 388.620966 207.93147 
L 388.945945 207.321798 
L 389.595904 208.871846 
L 389.920884 207.576799 
L 390.570843 210.01203 
L 390.895822 209.519066 
L 391.220802 209.881439 
L 391.545781 210.507144 
L 391.870761 209.846328 
L 392.19574 209.589073 
L 392.52072 209.730671 
L 392.845699 210.980994 
L 393.170679 210.630157 
L 393.495659 211.222648 
L 393.820638 210.850345 
L 394.145618 211.226137 
L 394.470597 211.838733 
L 395.120556 209.864427 
L 395.445536 210.035674 
L 395.770515 210.692576 
L 396.095495 209.600199 
L 396.420474 209.102205 
L 396.745454 210.03325 
L 397.070433 207.010993 
L 397.395413 206.564456 
L 397.720392 208.092774 
L 398.045372 208.255908 
L 398.695331 204.793021 
L 399.34529 208.889274 
L 399.67027 209.460022 
L 399.995249 210.518535 
L 400.320229 209.012491 
L 400.645208 212.645672 
L 400.970188 212.558127 
L 401.295167 210.293017 
L 401.620147 210.589055 
L 401.945126 210.180139 
L 402.270106 210.140049 
L 402.595085 209.448793 
L 402.595085 209.448793 
" clip-path="url(#p007751761f)" style="fill: none; stroke: #2ca02c; stroke-width: 1.5; stroke-linecap: square"/>
   </g>
   <g id="patch_3">
    <path d="M 61.707813 288.430125 
L 61.707813 22.318125 
" style="fill: none; stroke: #000000; stroke-width: 0.8; stroke-linejoin: miter; stroke-linecap: square"/>
   </g>
   <g id="patch_4">
    <path d="M 418.827813 288.430125 
L 418.827813 22.318125 
" style="fill: none; stroke: #000000; stroke-width: 0.8; stroke-linejoin: miter; stroke-linecap: square"/>
   </g>
   <g id="patch_5">
    <path d="M 61.707813 288.430125 
L 418.827813 288.430125 
" style="fill: none; stroke: #000000; stroke-width: 0.8; stroke-linejoin: miter; stroke-linecap: square"/>
   </g>
   <g id="patch_6">
    <path d="M 61.707813 22.318125 
L 418.827813 22.318125 
" style="fill: none; stroke: #000000; stroke-width: 0.8; stroke-linejoin: miter; stroke-linecap: square"/>
   </g>
   <g id="text_20">
    <!-- SLAB - energies vs time -->
    <g transform="translate(168.894063 16.318125) scale(0.12 -0.12)">
     <defs>
      <path id="DejaVuSans-53" d="M 3425 4513 
L 3425 3897 
Q 3066 4069 2747 4153 
Q 2428 4238 2131 4238 
Q 1616 4238 1336 4038 
Q 1056 3838 1056 3469 
Q 1056 3159 1242 3001 
Q 1428 2844 1947 2747 
L 2328 2669 
Q 3034 2534 3370 2195 
Q 3706 1856 3706 1288 
Q 3706 609 3251 259 
Q 2797 -91 1919 -91 
Q 1588 -91 1214 -16 
Q 841 59 441 206 
L 441 856 
Q 825 641 1194 531 
Q 1563 422 1919 422 
Q 2459 422 2753 634 
Q 3047 847 3047 1241 
Q 3047 1584 2836 1778 
Q 2625 1972 2144 2069 
L 1759 2144 
Q 1053 2284 737 2584 
Q 422 2884 422 3419 
Q 422 4038 858 4394 
Q 1294 4750 2059 4750 
Q 2388 4750 2728 4690 
Q 3069 4631 3425 4513 
z
" transform="scale(0.015625)"/>
      <path id="DejaVuSans-4c" d="M 628 4666 
L 1259 4666 
L 1259 531 
L 3531 531 
L 3531 0 
L 628 0 
L 628 4666 
z
" transform="scale(0.015625)"/>
      <path id="DejaVuSans-41" d="M 2188 4044 
L 1331 1722 
L 3047 1722 
L 2188 4044 
z
M 1831 4666 
L 2547 4666 
L 4325 0 
L 3669 0 
L 3244 1197 
L 1141 1197 
L 716 0 
L 50 0 
L 1831 4666 
z
" transform="scale(0.015625)"/>
      <path id="DejaVuSans-42" d="M 1259 2228 
L 1259 519 
L 2272 519 
Q 2781 519 3026 730 
Q 3272 941 3272 1375 
Q 3272 1813 3026 2020 
Q 2781 2228 2272 2228 
L 1259 2228 
z
M 1259 4147 
L 1259 2741 
L 2194 2741 
Q 2656 2741 2882 2914 
Q 3109 3088 3109 3444 
Q 3109 3797 2882 3972 
Q 2656 4147 2194 4147 
L 1259 4147 
z
M 628 4666 
L 2241 4666 
Q 2963 4666 3353 4366 
Q 3744 4066 3744 3513 
Q 3744 3084 3544 2831 
Q 3344 2578 2956 2516 
Q 3422 2416 3680 2098 
Q 3938 1781 3938 1306 
Q 3938 681 3513 340 
Q 3088 0 2303 0 
L 628 0 
L 628 4666 
z
" transform="scale(0.015625)"/>
      <path id="DejaVuSans-2d" d="M 313 2009 
L 1997 2009 
L 1997 1497 
L 313 1497 
L 313 2009 
z
" transform="scale(0.015625)"/>
      <path id="DejaVuSans-76" d="M 191 3500 
L 800 3500 
L 1894 563 
L 2988 3500 
L 3597 3500 
L 2284 0 
L 1503 0 
L 191 3500 
z
" transform="scale(0.015625)"/>
     </defs>
     <use xlink:href="#DejaVuSans-53"/>
     <use xlink:href="#DejaVuSans-4c" transform="translate(63.476562 0)"/>
     <use xlink:href="#DejaVuSans-41" transform="translate(121.439453 0)"/>
     <use xlink:href="#DejaVuSans-42" transform="translate(189.847656 0)"/>
     <use xlink:href="#DejaVuSans-20" transform="translate(258.451172 0)"/>
     <use xlink:href="#DejaVuSans-2d" transform="translate(290.238281 0)"/>
     <use xlink:href="#DejaVuSans-20" transform="translate(326.322266 0)"/>
     <use xlink:href="#DejaVuSans-65" transform="translate(358.109375 0)"/>
     <use xlink:href="#DejaVuSans-6e" transform="translate(419.632812 0)"/>
     <use xlink:href="#DejaVuSans-65" transform="translate(483.011719 0)"/>
     <use xlink:href="#DejaVuSans-72" transform="translate(544.535156 0)"/>
     <use xlink:href="#DejaVuSans-67" transform="translate(583.898438 0)"/>
     <use xlink:href="#DejaVuSans-69" transform="translate(647.375 0)"/>
     <use xlink:href="#DejaVuSans-65" transform="translate(675.158203 0)"/>
     <use xlink:href="#DejaVuSans-73" transform="translate(736.681641 0)"/>
     <use xlink:href="#DejaVuSans-20" transform="translate(788.78125 0)"/>
     <use xlink:href="#DejaVuSans-76" transform="translate(820.568359 0)"/>
     <use xlink:href="#DejaVuSans-73" transform="translate(879.748047 0)"/>
     <use xlink:href="#DejaVuSans-20" transform="translate(931.847656 0)"/>
     <use xlink:href="#DejaVuSans-74" transform="translate(963.634766 0)"/>
     <use xlink:href="#DejaVuSans-69" transform="translate(1002.84375 0)"/>
     <use xlink:href="#DejaVuSans-6d" transform="translate(1030.626953 0)"/>
     <use xlink:href="#DejaVuSans-65" transform="translate(1128.039062 0)"/>
    </g>
   </g>
   <g id="legend_1">
    <g id="patch_7">
     <path d="M 352.121563 179.3085 
L 411.827813 179.3085 
Q 413.827813 179.3085 413.827813 177.3085 
L 413.827813 133.43975 
Q 413.827813 131.43975 411.827813 131.43975 
L 352.121563 131.43975 
Q 350.121563 131.43975 350.121563 133.43975 
L 350.121563 177.3085 
Q 350.121563 179.3085 352.121563 179.3085 
z
" style="fill: #ffffff; opacity: 0.8; stroke: #cccccc; stroke-linejoin: miter"/>
    </g>
    <g id="line2d_21">
     <path d="M 354.121563 139.538187 
L 364.121563 139.538187 
L 374.121563 139.538187 
" style="fill: none; stroke: #1f77b4; stroke-width: 1.5; stroke-linecap: square"/>
    </g>
    <g id="text_21">
     <!-- E_pot -->
     <g transform="translate(382.121563 143.038187) scale(0.1 -0.1)">
      <defs>
       <path id="DejaVuSans-5f" d="M 3263 -1063 
L 3263 -1509 
L -63 -1509 
L -63 -1063 
L 3263 -1063 
z
" transform="scale(0.015625)"/>
       <path id="DejaVuSans-70" d="M 1159 525 
L 1159 -1331 
L 581 -1331 
L 581 3500 
L 1159 3500 
L 1159 2969 
Q 1341 3281 1617 3432 
Q 1894 3584 2278 3584 
Q 2916 3584 3314 3078 
Q 3713 2572 3713 1747 
Q 3713 922 3314 415 
Q 2916 -91 2278 -91 
Q 1894 -91 1617 61 
Q 1341 213 1159 525 
z
M 3116 1747 
Q 3116 2381 2855 2742 
Q 2594 3103 2138 3103 
Q 1681 3103 1420 2742 
Q 1159 2381 1159 1747 
Q 1159 1113 1420 752 
Q 1681 391 2138 391 
Q 2594 391 2855 752 
Q 3116 1113 3116 1747 
z
" transform="scale(0.015625)"/>
       <path id="DejaVuSans-6f" d="M 1959 3097 
Q 1497 3097 1228 2736 
Q 959 2375 959 1747 
Q 959 1119 1226 758 
Q 1494 397 1959 397 
Q 2419 397 2687 759 
Q 2956 1122 2956 1747 
Q 2956 2369 2687 2733 
Q 2419 3097 1959 3097 
z
M 1959 3584 
Q 2709 3584 3137 3096 
Q 3566 2609 3566 1747 
Q 3566 888 3137 398 
Q 2709 -91 1959 -91 
Q 1206 -91 779 398 
Q 353 888 353 1747 
Q 353 2609 779 3096 
Q 1206 3584 1959 3584 
z
" transform="scale(0.015625)"/>
      </defs>
      <use xlink:href="#DejaVuSans-45"/>
      <use xlink:href="#DejaVuSans-5f" transform="translate(63.183594 0)"/>
      <use xlink:href="#DejaVuSans-70" transform="translate(113.183594 0)"/>
      <use xlink:href="#DejaVuSans-6f" transform="translate(176.660156 0)"/>
      <use xlink:href="#DejaVuSans-74" transform="translate(237.841797 0)"/>
     </g>
    </g>
    <g id="line2d_22">
     <path d="M 354.121563 154.494438 
L 364.121563 154.494438 
L 374.121563 154.494438 
" style="fill: none; stroke: #ff7f0e; stroke-width: 1.5; stroke-linecap: square"/>
    </g>
    <g id="text_22">
     <!-- E_kin -->
     <g transform="translate(382.121563 157.994438) scale(0.1 -0.1)">
      <defs>
       <path id="DejaVuSans-6b" d="M 581 4863 
L 1159 4863 
L 1159 1991 
L 2875 3500 
L 3609 3500 
L 1753 1863 
L 3688 0 
L 2938 0 
L 1159 1709 
L 1159 0 
L 581 0 
L 581 4863 
z
" transform="scale(0.015625)"/>
      </defs>
      <use xlink:href="#DejaVuSans-45"/>
      <use xlink:href="#DejaVuSans-5f" transform="translate(63.183594 0)"/>
      <use xlink:href="#DejaVuSans-6b" transform="translate(113.183594 0)"/>
      <use xlink:href="#DejaVuSans-69" transform="translate(171.09375 0)"/>
      <use xlink:href="#DejaVuSans-6e" transform="translate(198.876953 0)"/>
     </g>
    </g>
    <g id="line2d_23">
     <path d="M 354.121563 169.450687 
L 364.121563 169.450687 
L 374.121563 169.450687 
" style="fill: none; stroke: #2ca02c; stroke-width: 1.5; stroke-linecap: square"/>
    </g>
    <g id="text_23">
     <!-- E_tot -->
     <g transform="translate(382.121563 172.950687) scale(0.1 -0.1)">
      <use xlink:href="#DejaVuSans-45"/>
      <use xlink:href="#DejaVuSans-5f" transform="translate(63.183594 0)"/>
      <use xlink:href="#DejaVuSans-74" transform="translate(113.183594 0)"/>
      <use xlink:href="#DejaVuSans-6f" transform="translate(152.392578 0)"/>
      <use xlink:href="#DejaVuSans-74" transform="translate(213.574219 0)"/>
     </g>
    </g>
   </g>
  </g>
 </g>
 <defs>
  <clipPath id="p007751761f">
   <rect x="61.707813" y="22.318125" width="357.12" height="266.112"/>
  </clipPath>
 </defs>
</svg>
