<?xml version="1.0" encoding="utf-8" standalone="no"?>
<!DOCTYPE svg PUBLIC "-//W3C//DTD SVG 1.1//EN"
  "http://www.w3.org/Graphics/SVG/1.1/DTD/svg11.dtd">
<svg xmlns:xlink="http://www.w3.org/1999/xlink" width="408.379375pt" height="311.190125pt" viewBox="0 0 408.379375 311.190125" xmlns="http://www.w3.org/2000/svg" version="1.1">
 <metadata>
  <rdf:RDF xmlns:dc="http://purl.org/dc/elements/1.1/" xmlns:cc="http://creativecommons.org/ns#" xmlns:rdf="http://www.w3.org/1999/02/22-rdf-syntax-ns#">
   <cc:Work>
    <dc:type rdf:resource="http://purl.org/dc/dcmitype/StillImage"/>
    <dc:date>2025-12-11T14:14:44.105848</dc:date>
    <dc:format>image/svg+xml</dc:format>
    <dc:creator>
     <cc:Agent>
      <dc:title>Matplotlib v3.10.5, https://matplotlib.org/</dc:title>
     </cc:Agent>
    </dc:creator>
   </cc:Work>
  </rdf:RDF>
 </metadata>
 <defs>
  <style type="text/css">*{stroke-linejoin: round; stroke-linecap: butt}</style>
 </defs>
 <g id="figure_1">
  <g id="patch_1">
   <path d="M 0 311.190125 
L 408.379375 311.190125 
L 408.379375 0 
L 0 0 
z
" style="fill: #ffffff"/>
  </g>
  <g id="axes_1">
   <g id="patch_2">
    <path d="M 44.059375 273.312 
L 401.179375 273.312 
L 401.179375 7.2 
L 44.059375 7.2 
z
" style="fill: #ffffff"/>
   </g>
   <g id="FillBetweenPolyCollection_1">
    <defs>
     <path id="m4864930333" d="M 8.445816 -186.6666 
L 8.445816 -161.454038 
L 16.493801 -162.180822 
L 27.875371 -129.485112 
L 32.462067 -140.51564 
L 43.971342 -138.521661 
L 47.304927 -174.152691 
L 50.45791 -166.912641 
L 59.070519 -170.682343 
L 66.734483 -163.267972 
L 69.12637 -160.500231 
L 71.448883 -159.885669 
L 75.907874 -180.932159 
L 86.164038 -173.361523 
L 88.087943 -173.929265 
L 93.647619 -162.290372 
L 98.926424 -191.866188 
L 102.309064 -174.358805 
L 105.593594 -152.08506 
L 107.201633 -194.164728 
L 111.899559 -163.047637 
L 113.426118 -201.070007 
L 119.353681 -202.137658 
L 125.023149 -223.82803 
L 126.403965 -156.492365 
L 129.124778 -176.199204 
L 130.46556 -176.813515 
L 136.987347 -183.49692 
L 140.76594 -153.412616 
L 144.452705 -185.710556 
L 145.662345 -182.51522 
L 149.23648 -200.838299 
L 153.881506 -154.500732 
L 155.022456 -189.019873 
L 156.155617 -161.801492 
L 162.799488 -179.456839 
L 163.88226 -177.881365 
L 164.958369 -174.200675 
L 168.147912 -166.782191 
L 172.314321 -186.412443 
L 173.341209 -179.882624 
L 180.37519 -188.17529 
L 181.359047 -133.583085 
L 183.311816 -172.588718 
L 184.280877 -165.273387 
L 187.159626 -167.195689 
L 189.055778 -170.673963 
L 191.866776 -170.708734 
L 195.555269 -199.901582 
L 198.278978 -146.383162 
L 199.179037 -173.563026 
L 202.741371 -179.024365 
L 203.622716 -189.954817 
L 206.245295 -186.498217 
L 208.836588 -167.016909 
L 210.547278 -181.72011 
L 215.601868 -192.000963 
L 216.433377 -177.376485 
L 222.170927 -199.10072 
L 222.979091 -182.500254 
L 223.784473 -178.298959 
L 225.387005 -195.239157 
L 226.184211 -169.09582 
L 229.34659 -153.712142 
L 232.467894 -201.239613 
L 234.782858 -183.902157 
L 236.314129 -155.999086 
L 237.835977 -199.698633 
L 241.600482 -157.869613 
L 242.346671 -192.836638 
L 244.572164 -186.780932 
L 248.238864 -192.214782 
L 249.691102 -161.499361 
L 250.414196 -169.102242 
L 253.286787 -165.315207 
L 258.940273 -192.039749 
L 259.638654 -180.550876 
L 261.030038 -194.879961 
L 261.723068 -195.267338 
L 263.79167 -186.188769 
L 265.16213 -167.246903 
L 267.20516 -195.031579 
L 269.233296 -156.6657 
L 271.914859 -187.955111 
L 275.89021 -150.150322 
L 277.857369 -190.234462 
L 280.459594 -146.449401 
L 281.106528 -170.048312 
L 283.038789 -179.452441 
L 284.958434 -198.860999 
L 285.595554 -188.152019 
L 286.231309 -180.309374 
L 290.644075 -178.445112 
L 291.269211 -177.528487 
L 292.51562 -199.728919 
L 293.136909 -180.015151 
L 296.224508 -181.42998 
L 302.30843 -187.592189 
L 302.910337 -184.492271 
L 305.306509 -186.624706 
L 307.684665 -170.173203 
L 310.632632 -190.394595 
L 312.388512 -174.044806 
L 318.746752 -188.095055 
L 319.318705 -166.732318 
L 319.889669 -187.770725 
L 323.294974 -178.826484 
L 328.894672 -180.807541 
L 332.760188 -176.418778 
L 334.949662 -177.852152 
L 339.287554 -175.173902 
L 346.224293 -185.614472 
L 347.279563 -179.015213 
L 350.426885 -188.158415 
L 360.217398 -162.333648 
L 362.245835 -174.179956 
L 373.701834 -167.288291 
L 374.681926 -186.730134 
L 387.67741 -170.399138 
L 401.179375 -190.858248 
L 401.179375 -215.262376 
L 401.179375 -215.262376 
L 387.67741 -195.248961 
L 374.681926 -203.145582 
L 373.701834 -189.977526 
L 362.245835 -201.429165 
L 360.217398 -193.830215 
L 350.426885 -223.720623 
L 347.279563 -238.447837 
L 346.224293 -214.265907 
L 339.287554 -186.300037 
L 334.949662 -192.642748 
L 332.760188 -191.371115 
L 328.894672 -186.675555 
L 323.294974 -192.178665 
L 319.889669 -193.66916 
L 319.318705 -182.632457 
L 318.746752 -204.700576 
L 312.388512 -190.476206 
L 310.632632 -233.778517 
L 307.684665 -196.960972 
L 305.306509 -200.384274 
L 302.910337 -200.82928 
L 302.30843 -209.35443 
L 296.224508 -187.644776 
L 293.136909 -188.258781 
L 292.51562 -226.694877 
L 291.269211 -279.798125 
L 290.644075 -199.300914 
L 286.231309 -204.136454 
L 285.595554 -197.708673 
L 284.958434 -244.179731 
L 283.038789 -191.138689 
L 281.106528 -202.41096 
L 280.459594 -186.253112 
L 277.857369 -198.390148 
L 275.89021 -193.286814 
L 271.914859 -203.227773 
L 269.233296 -187.633245 
L 267.20516 -203.308203 
L 265.16213 -195.717491 
L 263.79167 -196.315586 
L 261.723068 -204.906997 
L 261.030038 -236.070562 
L 259.638654 -193.381474 
L 258.940273 -220.040422 
L 253.286787 -192.648771 
L 250.414196 -186.128816 
L 249.691102 -192.291567 
L 248.238864 -216.179055 
L 244.572164 -207.723869 
L 242.346671 -246.807228 
L 241.600482 -190.44559 
L 237.835977 -207.143725 
L 236.314129 -185.423486 
L 234.782858 -201.189482 
L 232.467894 -230.411332 
L 229.34659 -184.166125 
L 226.184211 -189.022154 
L 225.387005 -223.528419 
L 223.784473 -189.249226 
L 222.979091 -200.891506 
L 222.170927 -241.54331 
L 216.433377 -187.288928 
L 215.601868 -213.750171 
L 210.547278 -194.251223 
L 208.836588 -196.266836 
L 206.245295 -195.139259 
L 203.622716 -206.95425 
L 202.741371 -232.424348 
L 199.179037 -188.411644 
L 198.278978 -179.956464 
L 195.555269 -220.943458 
L 191.866776 -181.515122 
L 189.055778 -198.986633 
L 187.159626 -182.607059 
L 184.280877 -188.552485 
L 183.311816 -189.605041 
L 181.359047 -169.513716 
L 180.37519 -235.024686 
L 173.341209 -195.829522 
L 172.314321 -255.068349 
L 168.147912 -185.523045 
L 164.958369 -192.086138 
L 163.88226 -204.314739 
L 162.799488 -187.006636 
L 156.155617 -193.929203 
L 155.022456 -210.575309 
L 153.881506 -201.082492 
L 149.23648 -247.711608 
L 145.662345 -191.069627 
L 144.452705 -226.236311 
L 140.76594 -200.110944 
L 136.987347 -198.377897 
L 130.46556 -203.608019 
L 129.124778 -220.249128 
L 126.403965 -192.129108 
L 125.023149 -244.896998 
L 119.353681 -254.853294 
L 113.426118 -263.470359 
L 111.899559 -196.472823 
L 107.201633 -203.286659 
L 105.593594 -185.257441 
L 102.309064 -202.671747 
L 98.926424 -209.918832 
L 93.647619 -195.720779 
L 88.087943 -201.027874 
L 86.164038 -204.144314 
L 75.907874 -209.145273 
L 71.448883 -202.604047 
L 69.12637 -189.676367 
L 66.734483 -257.299694 
L 59.070519 -192.178346 
L 50.45791 -183.87355 
L 47.304927 -204.342146 
L 43.971342 -165.987388 
L 32.462067 -168.397164 
L 27.875371 -168.657635 
L 16.493801 -195.879671 
L 8.445816 -186.6666 
z
" style="stroke: #ff7f0e; stroke-opacity: 0.3"/>
    </defs>
    <g clip-path="url(#pd2298ee99b)">
     <use xlink:href="#m4864930333" x="0" y="311.190125" style="fill: #ff7f0e; fill-opacity: 0.3; stroke: #ff7f0e; stroke-opacity: 0.3"/>
    </g>
   </g>
   <g id="matplotlib.axis_1">
    <g id="xtick_1">
     <g id="line2d_1">
      <defs>
       <path id="mb6800c9a2c" d="M 0 0 
L 0 3.5 
" style="stroke: #000000; stroke-width: 0.8"/>
      </defs>
      <g>
       <use xlink:href="#mb6800c9a2c" x="77.085244" y="273.312" style="stroke: #000000; stroke-width: 0.8"/>
      </g>
     </g>
     <g id="text_1">
      <!-- 4 -->
      <g transform="translate(73.903994 287.910437) scale(0.1 -0.1)">
       <defs>
        <path id="DejaVuSans-34" d="M 2419 4116 
L 825 1625 
L 2419 1625 
L 2419 4116 
z
M 2253 4666 
L 3047 4666 
L 3047 1625 
L 3713 1625 
L 3713 1100 
L 3047 1100 
L 3047 0 
L 2419 0 
L 2419 1100 
L 313 1100 
L 313 1709 
L 2253 4666 
z
" transform="scale(0.015625)"/>
       </defs>
       <use xlink:href="#DejaVuSans-34"/>
      </g>
     </g>
    </g>
    <g id="xtick_2">
     <g id="line2d_2">
      <g>
       <use xlink:href="#mb6800c9a2c" x="121.119735" y="273.312" style="stroke: #000000; stroke-width: 0.8"/>
      </g>
     </g>
     <g id="text_2">
      <!-- 6 -->
      <g transform="translate(117.938485 287.910437) scale(0.1 -0.1)">
       <defs>
        <path id="DejaVuSans-36" d="M 2113 2584 
Q 1688 2584 1439 2293 
Q 1191 2003 1191 1497 
Q 1191 994 1439 701 
Q 1688 409 2113 409 
Q 2538 409 2786 701 
Q 3034 994 3034 1497 
Q 3034 2003 2786 2293 
Q 2538 2584 2113 2584 
z
M 3366 4563 
L 3366 3988 
Q 3128 4100 2886 4159 
Q 2644 4219 2406 4219 
Q 1781 4219 1451 3797 
Q 1122 3375 1075 2522 
Q 1259 2794 1537 2939 
Q 1816 3084 2150 3084 
Q 2853 3084 3261 2657 
Q 3669 2231 3669 1497 
Q 3669 778 3244 343 
Q 2819 -91 2113 -91 
Q 1303 -91 875 529 
Q 447 1150 447 2328 
Q 447 3434 972 4092 
Q 1497 4750 2381 4750 
Q 2619 4750 2861 4703 
Q 3103 4656 3366 4563 
z
" transform="scale(0.015625)"/>
       </defs>
       <use xlink:href="#DejaVuSans-36"/>
      </g>
     </g>
    </g>
    <g id="xtick_3">
     <g id="line2d_3">
      <g>
       <use xlink:href="#mb6800c9a2c" x="165.154227" y="273.312" style="stroke: #000000; stroke-width: 0.8"/>
      </g>
     </g>
     <g id="text_3">
      <!-- 8 -->
      <g transform="translate(161.972977 287.910437) scale(0.1 -0.1)">
       <defs>
        <path id="DejaVuSans-38" d="M 2034 2216 
Q 1584 2216 1326 1975 
Q 1069 1734 1069 1313 
Q 1069 891 1326 650 
Q 1584 409 2034 409 
Q 2484 409 2743 651 
Q 3003 894 3003 1313 
Q 3003 1734 2745 1975 
Q 2488 2216 2034 2216 
z
M 1403 2484 
Q 997 2584 770 2862 
Q 544 3141 544 3541 
Q 544 4100 942 4425 
Q 1341 4750 2034 4750 
Q 2731 4750 3128 4425 
Q 3525 4100 3525 3541 
Q 3525 3141 3298 2862 
Q 3072 2584 2669 2484 
Q 3125 2378 3379 2068 
Q 3634 1759 3634 1313 
Q 3634 634 3220 271 
Q 2806 -91 2034 -91 
Q 1263 -91 848 271 
Q 434 634 434 1313 
Q 434 1759 690 2068 
Q 947 2378 1403 2484 
z
M 1172 3481 
Q 1172 3119 1398 2916 
Q 1625 2713 2034 2713 
Q 2441 2713 2670 2916 
Q 2900 3119 2900 3481 
Q 2900 3844 2670 4047 
Q 2441 4250 2034 4250 
Q 1625 4250 1398 4047 
Q 1172 3844 1172 3481 
z
" transform="scale(0.015625)"/>
       </defs>
       <use xlink:href="#DejaVuSans-38"/>
      </g>
     </g>
    </g>
    <g id="xtick_4">
     <g id="line2d_4">
      <g>
       <use xlink:href="#mb6800c9a2c" x="209.188719" y="273.312" style="stroke: #000000; stroke-width: 0.8"/>
      </g>
     </g>
     <g id="text_4">
      <!-- 10 -->
      <g transform="translate(202.826219 287.910437) scale(0.1 -0.1)">
       <defs>
        <path id="DejaVuSans-31" d="M 794 531 
L 1825 531 
L 1825 4091 
L 703 3866 
L 703 4441 
L 1819 4666 
L 2450 4666 
L 2450 531 
L 3481 531 
L 3481 0 
L 794 0 
L 794 531 
z
" transform="scale(0.015625)"/>
        <path id="DejaVuSans-30" d="M 2034 4250 
Q 1547 4250 1301 3770 
Q 1056 3291 1056 2328 
Q 1056 1369 1301 889 
Q 1547 409 2034 409 
Q 2525 409 2770 889 
Q 3016 1369 3016 2328 
Q 3016 3291 2770 3770 
Q 2525 4250 2034 4250 
z
M 2034 4750 
Q 2819 4750 3233 4129 
Q 3647 3509 3647 2328 
Q 3647 1150 3233 529 
Q 2819 -91 2034 -91 
Q 1250 -91 836 529 
Q 422 1150 422 2328 
Q 422 3509 836 4129 
Q 1250 4750 2034 4750 
z
" transform="scale(0.015625)"/>
       </defs>
       <use xlink:href="#DejaVuSans-31"/>
       <use xlink:href="#DejaVuSans-30" transform="translate(63.623047 0)"/>
      </g>
     </g>
    </g>
    <g id="xtick_5">
     <g id="line2d_5">
      <g>
       <use xlink:href="#mb6800c9a2c" x="253.22321" y="273.312" style="stroke: #000000; stroke-width: 0.8"/>
      </g>
     </g>
     <g id="text_5">
      <!-- 12 -->
      <g transform="translate(246.86071 287.910437) scale(0.1 -0.1)">
       <defs>
        <path id="DejaVuSans-32" d="M 1228 531 
L 3431 531 
L 3431 0 
L 469 0 
L 469 531 
Q 828 903 1448 1529 
Q 2069 2156 2228 2338 
Q 2531 2678 2651 2914 
Q 2772 3150 2772 3378 
Q 2772 3750 2511 3984 
Q 2250 4219 1831 4219 
Q 1534 4219 1204 4116 
Q 875 4013 500 3803 
L 500 4441 
Q 881 4594 1212 4672 
Q 1544 4750 1819 4750 
Q 2544 4750 2975 4387 
Q 3406 4025 3406 3419 
Q 3406 3131 3298 2873 
Q 3191 2616 2906 2266 
Q 2828 2175 2409 1742 
Q 1991 1309 1228 531 
z
" transform="scale(0.015625)"/>
       </defs>
       <use xlink:href="#DejaVuSans-31"/>
       <use xlink:href="#DejaVuSans-32" transform="translate(63.623047 0)"/>
      </g>
     </g>
    </g>
    <g id="xtick_6">
     <g id="line2d_6">
      <g>
       <use xlink:href="#mb6800c9a2c" x="297.257702" y="273.312" style="stroke: #000000; stroke-width: 0.8"/>
      </g>
     </g>
     <g id="text_6">
      <!-- 14 -->
      <g transform="translate(290.895202 287.910437) scale(0.1 -0.1)">
       <use xlink:href="#DejaVuSans-31"/>
       <use xlink:href="#DejaVuSans-34" transform="translate(63.623047 0)"/>
      </g>
     </g>
    </g>
    <g id="xtick_7">
     <g id="line2d_7">
      <g>
       <use xlink:href="#mb6800c9a2c" x="341.292194" y="273.312" style="stroke: #000000; stroke-width: 0.8"/>
      </g>
     </g>
     <g id="text_7">
      <!-- 16 -->
      <g transform="translate(334.929694 287.910437) scale(0.1 -0.1)">
       <use xlink:href="#DejaVuSans-31"/>
       <use xlink:href="#DejaVuSans-36" transform="translate(63.623047 0)"/>
      </g>
     </g>
    </g>
    <g id="xtick_8">
     <g id="line2d_8">
      <g>
       <use xlink:href="#mb6800c9a2c" x="385.326685" y="273.312" style="stroke: #000000; stroke-width: 0.8"/>
      </g>
     </g>
     <g id="text_8">
      <!-- 18 -->
      <g transform="translate(378.964185 287.910437) scale(0.1 -0.1)">
       <use xlink:href="#DejaVuSans-31"/>
       <use xlink:href="#DejaVuSans-38" transform="translate(63.623047 0)"/>
      </g>
     </g>
    </g>
    <g id="text_9">
     <!-- |k_xy| (reduced units) -->
     <g transform="translate(168.202969 301.632312) scale(0.1 -0.1)">
      <defs>
       <path id="DejaVuSans-7c" d="M 1344 4891 
L 1344 -1509 
L 813 -1509 
L 813 4891 
L 1344 4891 
z
" transform="scale(0.015625)"/>
       <path id="DejaVuSans-6b" d="M 581 4863 
L 1159 4863 
L 1159 1991 
L 2875 3500 
L 3609 3500 
L 1753 1863 
L 3688 0 
L 2938 0 
L 1159 1709 
L 1159 0 
L 581 0 
L 581 4863 
z
" transform="scale(0.015625)"/>
       <path id="DejaVuSans-5f" d="M 3263 -1063 
L 3263 -1509 
L -63 -1509 
L -63 -1063 
L 3263 -1063 
z
" transform="scale(0.015625)"/>
       <path id="DejaVuSans-78" d="M 3513 3500 
L 2247 1797 
L 3578 0 
L 2900 0 
L 1881 1375 
L 863 0 
L 184 0 
L 1544 1831 
L 300 3500 
L 978 3500 
L 1906 2253 
L 2834 3500 
L 3513 3500 
z
" transform="scale(0.015625)"/>
       <path id="DejaVuSans-79" d="M 2059 -325 
Q 1816 -950 1584 -1140 
Q 1353 -1331 966 -1331 
L 506 -1331 
L 506 -850 
L 844 -850 
Q 1081 -850 1212 -737 
Q 1344 -625 1503 -206 
L 1606 56 
L 191 3500 
L 800 3500 
L 1894 763 
L 2988 3500 
L 3597 3500 
L 2059 -325 
z
" transform="scale(0.015625)"/>
       <path id="DejaVuSans-20" transform="scale(0.015625)"/>
       <path id="DejaVuSans-28" d="M 1984 4856 
Q 1566 4138 1362 3434 
Q 1159 2731 1159 2009 
Q 1159 1288 1364 580 
Q 1569 -128 1984 -844 
L 1484 -844 
Q 1016 -109 783 600 
Q 550 1309 550 2009 
Q 550 2706 781 3412 
Q 1013 4119 1484 4856 
L 1984 4856 
z
" transform="scale(0.015625)"/>
       <path id="DejaVuSans-72" d="M 2631 2963 
Q 2534 3019 2420 3045 
Q 2306 3072 2169 3072 
Q 1681 3072 1420 2755 
Q 1159 2438 1159 1844 
L 1159 0 
L 581 0 
L 581 3500 
L 1159 3500 
L 1159 2956 
Q 1341 3275 1631 3429 
Q 1922 3584 2338 3584 
Q 2397 3584 2469 3576 
Q 2541 3569 2628 3553 
L 2631 2963 
z
" transform="scale(0.015625)"/>
       <path id="DejaVuSans-65" d="M 3597 1894 
L 3597 1613 
L 953 1613 
Q 991 1019 1311 708 
Q 1631 397 2203 397 
Q 2534 397 2845 478 
Q 3156 559 3463 722 
L 3463 178 
Q 3153 47 2828 -22 
Q 2503 -91 2169 -91 
Q 1331 -91 842 396 
Q 353 884 353 1716 
Q 353 2575 817 3079 
Q 1281 3584 2069 3584 
Q 2775 3584 3186 3129 
Q 3597 2675 3597 1894 
z
M 3022 2063 
Q 3016 2534 2758 2815 
Q 2500 3097 2075 3097 
Q 1594 3097 1305 2825 
Q 1016 2553 972 2059 
L 3022 2063 
z
" transform="scale(0.015625)"/>
       <path id="DejaVuSans-64" d="M 2906 2969 
L 2906 4863 
L 3481 4863 
L 3481 0 
L 2906 0 
L 2906 525 
Q 2725 213 2448 61 
Q 2172 -91 1784 -91 
Q 1150 -91 751 415 
Q 353 922 353 1747 
Q 353 2572 751 3078 
Q 1150 3584 1784 3584 
Q 2172 3584 2448 3432 
Q 2725 3281 2906 2969 
z
M 947 1747 
Q 947 1113 1208 752 
Q 1469 391 1925 391 
Q 2381 391 2643 752 
Q 2906 1113 2906 1747 
Q 2906 2381 2643 2742 
Q 2381 3103 1925 3103 
Q 1469 3103 1208 2742 
Q 947 2381 947 1747 
z
" transform="scale(0.015625)"/>
       <path id="DejaVuSans-75" d="M 544 1381 
L 544 3500 
L 1119 3500 
L 1119 1403 
Q 1119 906 1312 657 
Q 1506 409 1894 409 
Q 2359 409 2629 706 
Q 2900 1003 2900 1516 
L 2900 3500 
L 3475 3500 
L 3475 0 
L 2900 0 
L 2900 538 
Q 2691 219 2414 64 
Q 2138 -91 1772 -91 
Q 1169 -91 856 284 
Q 544 659 544 1381 
z
M 1991 3584 
L 1991 3584 
z
" transform="scale(0.015625)"/>
       <path id="DejaVuSans-63" d="M 3122 3366 
L 3122 2828 
Q 2878 2963 2633 3030 
Q 2388 3097 2138 3097 
Q 1578 3097 1268 2742 
Q 959 2388 959 1747 
Q 959 1106 1268 751 
Q 1578 397 2138 397 
Q 2388 397 2633 464 
Q 2878 531 3122 666 
L 3122 134 
Q 2881 22 2623 -34 
Q 2366 -91 2075 -91 
Q 1284 -91 818 406 
Q 353 903 353 1747 
Q 353 2603 823 3093 
Q 1294 3584 2113 3584 
Q 2378 3584 2631 3529 
Q 2884 3475 3122 3366 
z
" transform="scale(0.015625)"/>
       <path id="DejaVuSans-6e" d="M 3513 2113 
L 3513 0 
L 2938 0 
L 2938 2094 
Q 2938 2591 2744 2837 
Q 2550 3084 2163 3084 
Q 1697 3084 1428 2787 
Q 1159 2491 1159 1978 
L 1159 0 
L 581 0 
L 581 3500 
L 1159 3500 
L 1159 2956 
Q 1366 3272 1645 3428 
Q 1925 3584 2291 3584 
Q 2894 3584 3203 3211 
Q 3513 2838 3513 2113 
z
" transform="scale(0.015625)"/>
       <path id="DejaVuSans-69" d="M 603 3500 
L 1178 3500 
L 1178 0 
L 603 0 
L 603 3500 
z
M 603 4863 
L 1178 4863 
L 1178 4134 
L 603 4134 
L 603 4863 
z
" transform="scale(0.015625)"/>
       <path id="DejaVuSans-74" d="M 1172 4494 
L 1172 3500 
L 2356 3500 
L 2356 3053 
L 1172 3053 
L 1172 1153 
Q 1172 725 1289 603 
Q 1406 481 1766 481 
L 2356 481 
L 2356 0 
L 1766 0 
Q 1100 0 847 248 
Q 594 497 594 1153 
L 594 3053 
L 172 3053 
L 172 3500 
L 594 3500 
L 594 4494 
L 1172 4494 
z
" transform="scale(0.015625)"/>
       <path id="DejaVuSans-73" d="M 2834 3397 
L 2834 2853 
Q 2591 2978 2328 3040 
Q 2066 3103 1784 3103 
Q 1356 3103 1142 2972 
Q 928 2841 928 2578 
Q 928 2378 1081 2264 
Q 1234 2150 1697 2047 
L 1894 2003 
Q 2506 1872 2764 1633 
Q 3022 1394 3022 966 
Q 3022 478 2636 193 
Q 2250 -91 1575 -91 
Q 1294 -91 989 -36 
Q 684 19 347 128 
L 347 722 
Q 666 556 975 473 
Q 1284 391 1588 391 
Q 1994 391 2212 530 
Q 2431 669 2431 922 
Q 2431 1156 2273 1281 
Q 2116 1406 1581 1522 
L 1381 1569 
Q 847 1681 609 1914 
Q 372 2147 372 2553 
Q 372 3047 722 3315 
Q 1072 3584 1716 3584 
Q 2034 3584 2315 3537 
Q 2597 3491 2834 3397 
z
" transform="scale(0.015625)"/>
       <path id="DejaVuSans-29" d="M 513 4856 
L 1013 4856 
Q 1481 4119 1714 3412 
Q 1947 2706 1947 2009 
Q 1947 1309 1714 600 
Q 1481 -109 1013 -844 
L 513 -844 
Q 928 -128 1133 580 
Q 1338 1288 1338 2009 
Q 1338 2731 1133 3434 
Q 928 4138 513 4856 
z
" transform="scale(0.015625)"/>
      </defs>
      <use xlink:href="#DejaVuSans-7c"/>
      <use xlink:href="#DejaVuSans-6b" transform="translate(33.691406 0)"/>
      <use xlink:href="#DejaVuSans-5f" transform="translate(91.601562 0)"/>
      <use xlink:href="#DejaVuSans-78" transform="translate(141.601562 0)"/>
      <use xlink:href="#DejaVuSans-79" transform="translate(200.78125 0)"/>
      <use xlink:href="#DejaVuSans-7c" transform="translate(259.960938 0)"/>
      <use xlink:href="#DejaVuSans-20" transform="translate(293.652344 0)"/>
      <use xlink:href="#DejaVuSans-28" transform="translate(325.439453 0)"/>
      <use xlink:href="#DejaVuSans-72" transform="translate(364.453125 0)"/>
      <use xlink:href="#DejaVuSans-65" transform="translate(403.316406 0)"/>
      <use xlink:href="#DejaVuSans-64" transform="translate(464.839844 0)"/>
      <use xlink:href="#DejaVuSans-75" transform="translate(528.316406 0)"/>
      <use xlink:href="#DejaVuSans-63" transform="translate(591.695312 0)"/>
      <use xlink:href="#DejaVuSans-65" transform="translate(646.675781 0)"/>
      <use xlink:href="#DejaVuSans-64" transform="translate(708.199219 0)"/>
      <use xlink:href="#DejaVuSans-20" transform="translate(771.675781 0)"/>
      <use xlink:href="#DejaVuSans-75" transform="translate(803.462891 0)"/>
      <use xlink:href="#DejaVuSans-6e" transform="translate(866.841797 0)"/>
      <use xlink:href="#DejaVuSans-69" transform="translate(930.220703 0)"/>
      <use xlink:href="#DejaVuSans-74" transform="translate(958.003906 0)"/>
      <use xlink:href="#DejaVuSans-73" transform="translate(997.212891 0)"/>
      <use xlink:href="#DejaVuSans-29" transform="translate(1049.3125 0)"/>
     </g>
    </g>
   </g>
   <g id="matplotlib.axis_2">
    <g id="ytick_1">
     <g id="line2d_9">
      <defs>
       <path id="m2264c1a9a7" d="M 0 0 
L -3.5 0 
" style="stroke: #000000; stroke-width: 0.8"/>
      </defs>
      <g>
       <use xlink:href="#m2264c1a9a7" x="44.059375" y="273.312" style="stroke: #000000; stroke-width: 0.8"/>
      </g>
     </g>
     <g id="text_10">
      <!-- 0.0 -->
      <g transform="translate(21.15625 277.111219) scale(0.1 -0.1)">
       <defs>
        <path id="DejaVuSans-2e" d="M 684 794 
L 1344 794 
L 1344 0 
L 684 0 
L 684 794 
z
" transform="scale(0.015625)"/>
       </defs>
       <use xlink:href="#DejaVuSans-30"/>
       <use xlink:href="#DejaVuSans-2e" transform="translate(63.623047 0)"/>
       <use xlink:href="#DejaVuSans-30" transform="translate(95.410156 0)"/>
      </g>
     </g>
    </g>
    <g id="ytick_2">
     <g id="line2d_10">
      <g>
       <use xlink:href="#m2264c1a9a7" x="44.059375" y="242.766899" style="stroke: #000000; stroke-width: 0.8"/>
      </g>
     </g>
     <g id="text_11">
      <!-- 0.2 -->
      <g transform="translate(21.15625 246.566117) scale(0.1 -0.1)">
       <use xlink:href="#DejaVuSans-30"/>
       <use xlink:href="#DejaVuSans-2e" transform="translate(63.623047 0)"/>
       <use xlink:href="#DejaVuSans-32" transform="translate(95.410156 0)"/>
      </g>
     </g>
    </g>
    <g id="ytick_3">
     <g id="line2d_11">
      <g>
       <use xlink:href="#m2264c1a9a7" x="44.059375" y="212.221797" style="stroke: #000000; stroke-width: 0.8"/>
      </g>
     </g>
     <g id="text_12">
      <!-- 0.4 -->
      <g transform="translate(21.15625 216.021016) scale(0.1 -0.1)">
       <use xlink:href="#DejaVuSans-30"/>
       <use xlink:href="#DejaVuSans-2e" transform="translate(63.623047 0)"/>
       <use xlink:href="#DejaVuSans-34" transform="translate(95.410156 0)"/>
      </g>
     </g>
    </g>
    <g id="ytick_4">
     <g id="line2d_12">
      <g>
       <use xlink:href="#m2264c1a9a7" x="44.059375" y="181.676696" style="stroke: #000000; stroke-width: 0.8"/>
      </g>
     </g>
     <g id="text_13">
      <!-- 0.6 -->
      <g transform="translate(21.15625 185.475915) scale(0.1 -0.1)">
       <use xlink:href="#DejaVuSans-30"/>
       <use xlink:href="#DejaVuSans-2e" transform="translate(63.623047 0)"/>
       <use xlink:href="#DejaVuSans-36" transform="translate(95.410156 0)"/>
      </g>
     </g>
    </g>
    <g id="ytick_5">
     <g id="line2d_13">
      <g>
       <use xlink:href="#m2264c1a9a7" x="44.059375" y="151.131595" style="stroke: #000000; stroke-width: 0.8"/>
      </g>
     </g>
     <g id="text_14">
      <!-- 0.8 -->
      <g transform="translate(21.15625 154.930814) scale(0.1 -0.1)">
       <use xlink:href="#DejaVuSans-30"/>
       <use xlink:href="#DejaVuSans-2e" transform="translate(63.623047 0)"/>
       <use xlink:href="#DejaVuSans-38" transform="translate(95.410156 0)"/>
      </g>
     </g>
    </g>
    <g id="ytick_6">
     <g id="line2d_14">
      <g>
       <use xlink:href="#m2264c1a9a7" x="44.059375" y="120.586494" style="stroke: #000000; stroke-width: 0.8"/>
      </g>
     </g>
     <g id="text_15">
      <!-- 1.0 -->
      <g transform="translate(21.15625 124.385712) scale(0.1 -0.1)">
       <use xlink:href="#DejaVuSans-31"/>
       <use xlink:href="#DejaVuSans-2e" transform="translate(63.623047 0)"/>
       <use xlink:href="#DejaVuSans-30" transform="translate(95.410156 0)"/>
      </g>
     </g>
    </g>
    <g id="ytick_7">
     <g id="line2d_15">
      <g>
       <use xlink:href="#m2264c1a9a7" x="44.059375" y="90.041392" style="stroke: #000000; stroke-width: 0.8"/>
      </g>
     </g>
     <g id="text_16">
      <!-- 1.2 -->
      <g transform="translate(21.15625 93.840611) scale(0.1 -0.1)">
       <use xlink:href="#DejaVuSans-31"/>
       <use xlink:href="#DejaVuSans-2e" transform="translate(63.623047 0)"/>
       <use xlink:href="#DejaVuSans-32" transform="translate(95.410156 0)"/>
      </g>
     </g>
    </g>
    <g id="ytick_8">
     <g id="line2d_16">
      <g>
       <use xlink:href="#m2264c1a9a7" x="44.059375" y="59.496291" style="stroke: #000000; stroke-width: 0.8"/>
      </g>
     </g>
     <g id="text_17">
      <!-- 1.4 -->
      <g transform="translate(21.15625 63.29551) scale(0.1 -0.1)">
       <use xlink:href="#DejaVuSans-31"/>
       <use xlink:href="#DejaVuSans-2e" transform="translate(63.623047 0)"/>
       <use xlink:href="#DejaVuSans-34" transform="translate(95.410156 0)"/>
      </g>
     </g>
    </g>
    <g id="ytick_9">
     <g id="line2d_17">
      <g>
       <use xlink:href="#m2264c1a9a7" x="44.059375" y="28.95119" style="stroke: #000000; stroke-width: 0.8"/>
      </g>
     </g>
     <g id="text_18">
      <!-- 1.6 -->
      <g transform="translate(21.15625 32.750409) scale(0.1 -0.1)">
       <use xlink:href="#DejaVuSans-31"/>
       <use xlink:href="#DejaVuSans-2e" transform="translate(63.623047 0)"/>
       <use xlink:href="#DejaVuSans-36" transform="translate(95.410156 0)"/>
      </g>
     </g>
    </g>
    <g id="text_19">
     <!-- S_xy(k) -->
     <g transform="translate(14.798437 158.645844) rotate(-90) scale(0.1 -0.1)">
      <defs>
       <path id="DejaVuSans-53" d="M 3425 4513 
L 3425 3897 
Q 3066 4069 2747 4153 
Q 2428 4238 2131 4238 
Q 1616 4238 1336 4038 
Q 1056 3838 1056 3469 
Q 1056 3159 1242 3001 
Q 1428 2844 1947 2747 
L 2328 2669 
Q 3034 2534 3370 2195 
Q 3706 1856 3706 1288 
Q 3706 609 3251 259 
Q 2797 -91 1919 -91 
Q 1588 -91 1214 -16 
Q 841 59 441 206 
L 441 856 
Q 825 641 1194 531 
Q 1563 422 1919 422 
Q 2459 422 2753 634 
Q 3047 847 3047 1241 
Q 3047 1584 2836 1778 
Q 2625 1972 2144 2069 
L 1759 2144 
Q 1053 2284 737 2584 
Q 422 2884 422 3419 
Q 422 4038 858 4394 
Q 1294 4750 2059 4750 
Q 2388 4750 2728 4690 
Q 3069 4631 3425 4513 
z
" transform="scale(0.015625)"/>
      </defs>
      <use xlink:href="#DejaVuSans-53"/>
      <use xlink:href="#DejaVuSans-5f" transform="translate(63.476562 0)"/>
      <use xlink:href="#DejaVuSans-78" transform="translate(113.476562 0)"/>
      <use xlink:href="#DejaVuSans-79" transform="translate(172.65625 0)"/>
      <use xlink:href="#DejaVuSans-28" transform="translate(231.835938 0)"/>
      <use xlink:href="#DejaVuSans-6b" transform="translate(270.849609 0)"/>
      <use xlink:href="#DejaVuSans-29" transform="translate(328.759766 0)"/>
     </g>
    </g>
   </g>
   <g id="line2d_18">
    <path d="M 8.445816 137.129806 
L 16.493801 132.159878 
L 27.875371 162.118751 
L 32.462067 156.733723 
L 43.971342 158.935601 
L 47.304927 121.942706 
L 50.45791 135.79703 
L 59.070519 129.75978 
L 66.734483 100.906292 
L 69.12637 136.101826 
L 71.448883 129.945267 
L 75.907874 116.151409 
L 86.164038 122.437206 
L 88.087943 123.711556 
L 93.647619 132.184549 
L 98.926424 110.297615 
L 102.309064 122.674849 
L 105.593594 142.518874 
L 107.201633 112.464432 
L 111.899559 131.429895 
L 113.426118 78.919942 
L 119.353681 82.694649 
L 125.023149 76.827611 
L 126.403965 136.879388 
L 129.124778 112.965959 
L 130.46556 120.979358 
L 136.987347 120.252717 
L 140.76594 134.428345 
L 144.452705 105.216691 
L 145.662345 124.397702 
L 149.23648 86.915171 
L 153.881506 133.398513 
L 155.022456 111.392534 
L 156.155617 133.324778 
L 162.799488 127.958388 
L 163.88226 120.092073 
L 164.958369 128.046718 
L 168.147912 135.037507 
L 172.314321 90.449729 
L 173.341209 123.334052 
L 180.37519 99.590137 
L 181.359047 159.641724 
L 183.311816 130.093246 
L 184.280877 134.277189 
L 187.159626 136.288751 
L 189.055778 126.359827 
L 191.866776 135.078197 
L 195.555269 100.767605 
L 198.278978 148.020312 
L 199.179037 130.20279 
L 202.741371 105.465768 
L 203.622716 112.735591 
L 206.245295 120.371387 
L 208.836588 129.548253 
L 210.547278 123.204459 
L 215.601868 108.314558 
L 216.433377 128.857419 
L 222.170927 90.86811 
L 222.979091 119.494245 
L 223.784473 127.416032 
L 225.387005 101.806337 
L 226.184211 132.131138 
L 229.34659 142.250992 
L 232.467894 95.364652 
L 234.782858 118.644306 
L 236.314129 140.478839 
L 237.835977 107.768946 
L 241.600482 137.032524 
L 242.346671 91.368192 
L 244.572164 113.937724 
L 248.238864 106.993206 
L 249.691102 134.294661 
L 250.414196 133.574596 
L 253.286787 132.208136 
L 258.940273 105.150039 
L 259.638654 124.22395 
L 261.030038 95.714863 
L 261.723068 111.102958 
L 263.79167 119.937948 
L 265.16213 129.707928 
L 267.20516 112.020234 
L 269.233296 139.040652 
L 271.914859 115.598683 
L 275.89021 139.471557 
L 277.857369 116.87782 
L 280.459594 144.838868 
L 281.106528 124.960489 
L 283.038789 125.89456 
L 284.958434 89.66976 
L 285.595554 118.259779 
L 286.231309 118.967211 
L 290.644075 122.317112 
L 291.269211 82.526819 
L 292.51562 97.978227 
L 293.136909 127.053159 
L 296.224508 126.652747 
L 302.30843 112.716815 
L 302.910337 118.529349 
L 305.306509 117.685635 
L 307.684665 127.623037 
L 310.632632 99.103569 
L 312.388512 128.929619 
L 318.746752 114.792309 
L 319.318705 136.507738 
L 319.889669 120.470182 
L 323.294974 125.687551 
L 328.894672 127.448577 
L 332.760188 127.295179 
L 334.949662 125.942675 
L 339.287554 130.453156 
L 346.224293 111.249935 
L 347.279563 102.4586 
L 350.426885 105.250606 
L 360.217398 133.108194 
L 362.245835 123.385565 
L 373.701834 132.557217 
L 374.681926 116.252267 
L 387.67741 128.366075 
L 401.179375 108.129813 
" clip-path="url(#pd2298ee99b)" style="fill: none; stroke: #ff7f0e; stroke-width: 1.5; stroke-linecap: square"/>
   </g>
   <g id="line2d_19">
    <path d="M 44.059375 120.586494 
L 401.179375 120.586494 
" clip-path="url(#pd2298ee99b)" style="fill: none; stroke-dasharray: 5.55,2.4; stroke-dashoffset: 0; stroke: #000000; stroke-opacity: 0.4; stroke-width: 1.5"/>
   </g>
   <g id="patch_3">
    <path d="M 44.059375 273.312 
L 44.059375 7.2 
" style="fill: none; stroke: #000000; stroke-width: 0.8; stroke-linejoin: miter; stroke-linecap: square"/>
   </g>
   <g id="patch_4">
    <path d="M 401.179375 273.312 
L 401.179375 7.2 
" style="fill: none; stroke: #000000; stroke-width: 0.8; stroke-linejoin: miter; stroke-linecap: square"/>
   </g>
   <g id="patch_5">
    <path d="M 44.059375 273.312 
L 401.179375 273.312 
" style="fill: none; stroke: #000000; stroke-width: 0.8; stroke-linejoin: miter; stroke-linecap: square"/>
   </g>
   <g id="patch_6">
    <path d="M 44.059375 7.2 
L 401.179375 7.2 
" style="fill: none; stroke: #000000; stroke-width: 0.8; stroke-linejoin: miter; stroke-linecap: square"/>
   </g>
   <g id="legend_1">
    <g id="patch_7">
     <path d="M 328.018438 44.55625 
L 394.179375 44.55625 
Q 396.179375 44.55625 396.179375 42.55625 
L 396.179375 14.2 
Q 396.179375 12.2 394.179375 12.2 
L 328.018438 12.2 
Q 326.018438 12.2 326.018438 14.2 
L 326.018438 42.55625 
Q 326.018438 44.55625 328.018438 44.55625 
z
" style="fill: #ffffff; opacity: 0.8; stroke: #cccccc; stroke-linejoin: miter"/>
    </g>
    <g id="line2d_20">
     <path d="M 330.018438 20.298437 
L 340.018438 20.298437 
L 350.018438 20.298437 
" style="fill: none; stroke: #ff7f0e; stroke-width: 1.5; stroke-linecap: square"/>
    </g>
    <g id="text_20">
     <!-- Mean -->
     <g transform="translate(358.018438 23.798437) scale(0.1 -0.1)">
      <defs>
       <path id="DejaVuSans-4d" d="M 628 4666 
L 1569 4666 
L 2759 1491 
L 3956 4666 
L 4897 4666 
L 4897 0 
L 4281 0 
L 4281 4097 
L 3078 897 
L 2444 897 
L 1241 4097 
L 1241 0 
L 628 0 
L 628 4666 
z
" transform="scale(0.015625)"/>
       <path id="DejaVuSans-61" d="M 2194 1759 
Q 1497 1759 1228 1600 
Q 959 1441 959 1056 
Q 959 750 1161 570 
Q 1363 391 1709 391 
Q 2188 391 2477 730 
Q 2766 1069 2766 1631 
L 2766 1759 
L 2194 1759 
z
M 3341 1997 
L 3341 0 
L 2766 0 
L 2766 531 
Q 2569 213 2275 61 
Q 1981 -91 1556 -91 
Q 1019 -91 701 211 
Q 384 513 384 1019 
Q 384 1609 779 1909 
Q 1175 2209 1959 2209 
L 2766 2209 
L 2766 2266 
Q 2766 2663 2505 2880 
Q 2244 3097 1772 3097 
Q 1472 3097 1187 3025 
Q 903 2953 641 2809 
L 641 3341 
Q 956 3463 1253 3523 
Q 1550 3584 1831 3584 
Q 2591 3584 2966 3190 
Q 3341 2797 3341 1997 
z
" transform="scale(0.015625)"/>
      </defs>
      <use xlink:href="#DejaVuSans-4d"/>
      <use xlink:href="#DejaVuSans-65" transform="translate(86.279297 0)"/>
      <use xlink:href="#DejaVuSans-61" transform="translate(147.802734 0)"/>
      <use xlink:href="#DejaVuSans-6e" transform="translate(209.082031 0)"/>
     </g>
    </g>
    <g id="patch_8">
     <path d="M 330.018438 38.476562 
L 350.018438 38.476562 
L 350.018438 31.476562 
L 330.018438 31.476562 
z
" style="fill: #ff7f0e; fill-opacity: 0.3; stroke: #ff7f0e; stroke-opacity: 0.3; stroke-linejoin: miter"/>
    </g>
    <g id="text_21">
     <!-- Std Err -->
     <g transform="translate(358.018438 38.476562) scale(0.1 -0.1)">
      <defs>
       <path id="DejaVuSans-45" d="M 628 4666 
L 3578 4666 
L 3578 4134 
L 1259 4134 
L 1259 2753 
L 3481 2753 
L 3481 2222 
L 1259 2222 
L 1259 531 
L 3634 531 
L 3634 0 
L 628 0 
L 628 4666 
z
" transform="scale(0.015625)"/>
      </defs>
      <use xlink:href="#DejaVuSans-53"/>
      <use xlink:href="#DejaVuSans-74" transform="translate(63.476562 0)"/>
      <use xlink:href="#DejaVuSans-64" transform="translate(102.685547 0)"/>
      <use xlink:href="#DejaVuSans-20" transform="translate(166.162109 0)"/>
      <use xlink:href="#DejaVuSans-45" transform="translate(197.949219 0)"/>
      <use xlink:href="#DejaVuSans-72" transform="translate(261.132812 0)"/>
      <use xlink:href="#DejaVuSans-72" transform="translate(300.496094 0)"/>
     </g>
    </g>
   </g>
  </g>
 </g>
 <defs>
  <clipPath id="pd2298ee99b">
   <rect x="44.059375" y="7.2" width="357.12" height="266.112"/>
  </clipPath>
 </defs>
</svg>
