<?xml version="1.0" encoding="utf-8" standalone="no"?>
<!DOCTYPE svg PUBLIC "-//W3C//DTD SVG 1.1//EN"
  "http://www.w3.org/Graphics/SVG/1.1/DTD/svg11.dtd">
<svg xmlns:xlink="http://www.w3.org/1999/xlink" width="408.10125pt" height="310.86825pt" viewBox="0 0 408.10125 310.86825" xmlns="http://www.w3.org/2000/svg" version="1.1">
 <metadata>
  <rdf:RDF xmlns:dc="http://purl.org/dc/elements/1.1/" xmlns:cc="http://creativecommons.org/ns#" xmlns:rdf="http://www.w3.org/1999/02/22-rdf-syntax-ns#">
   <cc:Work>
    <dc:type rdf:resource="http://purl.org/dc/dcmitype/StillImage"/>
    <dc:date>2025-12-11T14:14:30.532945</dc:date>
    <dc:format>image/svg+xml</dc:format>
    <dc:creator>
     <cc:Agent>
      <dc:title>Matplotlib v3.10.5, https://matplotlib.org/</dc:title>
     </cc:Agent>
    </dc:creator>
   </cc:Work>
  </rdf:RDF>
 </metadata>
 <defs>
  <style type="text/css">*{stroke-linejoin: round; stroke-linecap: butt}</style>
 </defs>
 <g id="figure_1">
  <g id="patch_1">
   <path d="M 0 310.86825 
L 408.10125 310.86825 
L 408.10125 0 
L 0 0 
z
" style="fill: #ffffff"/>
  </g>
  <g id="axes_1">
   <g id="patch_2">
    <path d="M 43.78125 273.312 
L 400.90125 273.312 
L 400.90125 7.2 
L 43.78125 7.2 
z
" style="fill: #ffffff"/>
   </g>
   <g id="FillBetweenPolyCollection_1">
    <defs>
     <path id="m5945e9f9e8" d="M 60.013977 -49.65225 
L 60.013977 -49.65225 
L 61.645407 -49.65225 
L 63.276837 -49.65225 
L 64.908267 -49.65225 
L 66.539697 -49.65225 
L 68.171127 -49.65225 
L 69.802557 -49.65225 
L 71.433986 -49.65225 
L 73.065416 -49.65225 
L 74.696846 -49.65225 
L 76.328276 -49.65225 
L 77.959706 -49.65225 
L 79.591136 -49.65225 
L 81.222566 -49.65225 
L 82.853996 -49.65225 
L 84.485425 -49.65225 
L 86.116855 -49.65225 
L 87.748285 -49.65225 
L 89.379715 -49.65225 
L 91.011145 -49.65225 
L 92.642575 -49.65225 
L 94.274005 -49.65225 
L 95.905435 -49.65225 
L 97.536864 -49.65225 
L 99.168294 -49.65225 
L 100.799724 -49.65225 
L 102.431154 -49.65225 
L 104.062584 -49.65225 
L 105.694014 -49.65225 
L 107.325444 -49.65225 
L 108.956874 -49.65225 
L 110.588303 -49.65225 
L 112.219733 -49.65225 
L 113.851163 -49.65225 
L 115.482593 -49.65225 
L 117.114023 -49.65225 
L 118.745453 -49.65225 
L 120.376883 -49.65225 
L 122.008313 -49.65225 
L 123.639742 -49.65225 
L 125.271172 -49.65225 
L 126.902602 -49.65225 
L 128.534032 -49.65225 
L 130.165462 -49.65225 
L 131.796892 -50.436707 
L 133.428322 -53.900532 
L 135.059752 -64.067892 
L 136.691181 -85.493383 
L 138.322611 -114.339306 
L 139.954041 -153.865147 
L 141.585471 -189.325975 
L 143.216901 -217.120507 
L 144.848331 -240.992244 
L 146.479761 -251.943278 
L 148.111191 -260.654278 
L 149.74262 -260.328129 
L 151.37405 -254.885786 
L 153.00548 -249.466965 
L 154.63691 -240.327385 
L 156.26834 -234.878723 
L 157.89977 -223.175964 
L 159.5312 -214.856951 
L 161.16263 -207.320822 
L 162.79406 -203.629274 
L 164.425489 -195.292307 
L 166.056919 -191.259087 
L 167.688349 -186.405221 
L 169.319779 -178.051122 
L 170.951209 -177.9943 
L 172.582639 -171.123124 
L 174.214069 -166.538719 
L 175.845499 -166.702099 
L 177.476928 -161.275055 
L 179.108358 -158.788459 
L 180.739788 -157.8543 
L 182.371218 -155.563557 
L 184.002648 -155.463949 
L 185.634078 -153.029564 
L 187.265508 -150.868529 
L 188.896938 -152.31181 
L 190.528367 -149.783561 
L 192.159797 -150.287328 
L 193.791227 -147.963217 
L 195.422657 -146.97715 
L 197.054087 -146.670062 
L 198.685517 -146.383399 
L 200.316947 -147.314364 
L 201.948377 -146.165915 
L 203.579806 -148.383798 
L 205.211236 -148.532285 
L 206.842666 -150.549359 
L 208.474096 -151.93092 
L 210.105526 -152.537255 
L 211.736956 -153.317925 
L 213.368386 -154.208155 
L 214.999816 -155.505869 
L 216.631245 -154.475054 
L 218.262675 -158.507076 
L 219.894105 -157.963636 
L 221.525535 -160.291197 
L 223.156965 -161.232165 
L 224.788395 -160.902576 
L 226.419825 -162.845115 
L 228.051255 -163.612365 
L 229.682684 -162.740429 
L 231.314114 -163.520624 
L 232.945544 -163.294026 
L 234.576974 -163.888323 
L 236.208404 -164.983878 
L 237.839834 -162.836483 
L 239.471264 -164.84424 
L 241.102694 -164.275745 
L 242.734123 -164.512342 
L 244.365553 -163.378997 
L 245.996983 -163.371285 
L 247.628413 -163.471328 
L 249.259843 -161.872173 
L 250.891273 -163.726305 
L 252.522703 -160.834324 
L 254.154133 -160.74736 
L 255.785562 -160.644153 
L 257.416992 -160.891189 
L 259.048422 -159.578451 
L 260.679852 -158.459652 
L 262.311282 -158.480931 
L 263.942712 -158.271355 
L 265.574142 -158.138807 
L 267.205572 -157.135886 
L 268.837001 -157.619421 
L 270.468431 -156.606063 
L 272.099861 -156.474351 
L 273.731291 -157.036016 
L 275.362721 -156.54988 
L 276.994151 -156.838975 
L 278.625581 -157.782329 
L 280.257011 -156.587122 
L 281.88844 -156.110741 
L 283.51987 -156.630141 
L 285.1513 -155.868635 
L 286.78273 -156.052042 
L 288.41416 -157.372752 
L 290.04559 -156.288564 
L 291.67702 -156.413093 
L 293.30845 -156.512948 
L 294.93988 -155.099755 
L 296.571309 -155.876686 
L 298.202739 -156.927602 
L 299.834169 -156.259189 
L 301.465599 -156.673587 
L 303.097029 -156.395983 
L 304.728459 -156.307601 
L 306.359889 -156.519775 
L 307.991319 -156.073245 
L 309.622748 -156.247835 
L 311.254178 -156.737466 
L 312.885608 -155.152079 
L 314.517038 -155.753151 
L 316.148468 -155.34972 
L 317.779898 -155.179187 
L 319.411328 -155.953887 
L 321.042758 -155.270627 
L 322.674187 -155.101211 
L 324.305617 -154.754788 
L 325.937047 -155.889087 
L 327.568477 -154.90956 
L 329.199907 -155.994338 
L 330.831337 -156.080981 
L 332.462767 -155.496113 
L 334.094197 -155.288516 
L 335.725626 -155.895459 
L 337.357056 -156.048421 
L 338.988486 -155.471922 
L 340.619916 -155.375761 
L 342.251346 -155.108861 
L 343.882776 -153.443697 
L 345.514206 -155.024846 
L 347.145636 -155.078866 
L 348.777065 -154.335708 
L 350.408495 -153.353625 
L 352.039925 -151.292523 
L 353.671355 -149.778482 
L 355.302785 -148.724908 
L 356.934215 -147.856735 
L 358.565645 -146.472141 
L 360.197075 -145.95156 
L 361.828504 -143.942623 
L 363.459934 -143.044336 
L 365.091364 -142.111988 
L 366.722794 -140.756614 
L 368.354224 -139.203428 
L 369.985654 -138.114227 
L 371.617084 -136.531723 
L 373.248514 -136.101803 
L 374.879943 -134.004704 
L 376.511373 -132.878277 
L 378.142803 -132.073938 
L 379.774233 -131.208727 
L 381.405663 -130.08577 
L 383.037093 -129.105672 
L 384.668523 -127.809809 
L 384.668523 -134.480313 
L 384.668523 -134.480313 
L 383.037093 -135.959475 
L 381.405663 -137.513134 
L 379.774233 -138.811024 
L 378.142803 -139.536223 
L 376.511373 -140.797777 
L 374.879943 -141.501698 
L 373.248514 -143.522132 
L 371.617084 -143.815404 
L 369.985654 -146.354173 
L 368.354224 -147.550759 
L 366.722794 -148.679184 
L 365.091364 -150.257766 
L 363.459934 -151.930462 
L 361.828504 -152.612696 
L 360.197075 -154.565949 
L 358.565645 -155.447364 
L 356.934215 -158.193581 
L 355.302785 -158.559081 
L 353.671355 -159.658342 
L 352.039925 -161.634454 
L 350.408495 -163.761334 
L 348.777065 -164.159064 
L 347.145636 -165.305382 
L 345.514206 -165.367976 
L 343.882776 -165.493617 
L 342.251346 -166.243806 
L 340.619916 -166.383176 
L 338.988486 -166.639272 
L 337.357056 -167.059911 
L 335.725626 -167.299221 
L 334.094197 -167.438659 
L 332.462767 -167.407952 
L 330.831337 -166.964409 
L 329.199907 -168.155308 
L 327.568477 -166.484773 
L 325.937047 -167.595089 
L 324.305617 -168.016548 
L 322.674187 -166.733389 
L 321.042758 -167.644617 
L 319.411328 -168.223926 
L 317.779898 -167.850997 
L 316.148468 -168.38872 
L 314.517038 -167.57978 
L 312.885608 -167.130204 
L 311.254178 -167.697164 
L 309.622748 -166.731632 
L 307.991319 -166.716977 
L 306.359889 -167.006446 
L 304.728459 -166.663236 
L 303.097029 -167.78322 
L 301.465599 -168.214715 
L 299.834169 -166.698512 
L 298.202739 -166.383603 
L 296.571309 -166.529631 
L 294.93988 -166.113757 
L 293.30845 -166.814696 
L 291.67702 -166.207297 
L 290.04559 -166.282419 
L 288.41416 -167.411046 
L 286.78273 -166.048659 
L 285.1513 -165.486371 
L 283.51987 -166.662782 
L 281.88844 -167.077918 
L 280.257011 -165.944754 
L 278.625581 -168.069127 
L 276.994151 -167.729469 
L 275.362721 -167.120108 
L 273.731291 -167.645798 
L 272.099861 -168.027685 
L 270.468431 -167.631486 
L 268.837001 -169.668258 
L 267.205572 -169.139648 
L 265.574142 -170.972682 
L 263.942712 -170.044951 
L 262.311282 -170.631523 
L 260.679852 -171.222169 
L 259.048422 -172.836099 
L 257.416992 -173.395087 
L 255.785562 -172.307724 
L 254.154133 -173.945077 
L 252.522703 -175.234353 
L 250.891273 -177.238487 
L 249.259843 -176.656989 
L 247.628413 -176.606943 
L 245.996983 -177.430057 
L 244.365553 -178.779882 
L 242.734123 -178.823979 
L 241.102694 -177.97693 
L 239.471264 -179.430221 
L 237.839834 -177.171393 
L 236.208404 -179.965205 
L 234.576974 -179.045257 
L 232.945544 -178.760201 
L 231.314114 -179.820902 
L 229.682684 -176.84783 
L 228.051255 -177.522577 
L 226.419825 -177.39081 
L 224.788395 -175.61916 
L 223.156965 -174.654428 
L 221.525535 -174.66538 
L 219.894105 -171.437493 
L 218.262675 -169.196735 
L 216.631245 -169.035146 
L 214.999816 -166.682852 
L 213.368386 -165.399608 
L 211.736956 -161.76761 
L 210.105526 -162.143597 
L 208.474096 -161.059116 
L 206.842666 -160.28776 
L 205.211236 -157.74541 
L 203.579806 -158.443814 
L 201.948377 -155.574321 
L 200.316947 -156.908169 
L 198.685517 -155.722645 
L 197.054087 -158.239307 
L 195.422657 -157.466017 
L 193.791227 -157.845801 
L 192.159797 -160.339955 
L 190.528367 -159.44951 
L 188.896938 -162.738248 
L 187.265508 -160.451806 
L 185.634078 -163.760895 
L 184.002648 -165.589515 
L 182.371218 -167.021428 
L 180.739788 -168.159754 
L 179.108358 -169.421613 
L 177.476928 -173.397301 
L 175.845499 -178.778187 
L 174.214069 -181.368487 
L 172.582639 -183.173052 
L 170.951209 -189.380547 
L 169.319779 -194.512349 
L 167.688349 -200.729851 
L 166.056919 -206.467824 
L 164.425489 -210.995981 
L 162.79406 -223.188631 
L 161.16263 -226.864313 
L 159.5312 -236.272998 
L 157.89977 -247.700839 
L 156.26834 -258.988831 
L 154.63691 -269.705115 
L 153.00548 -278.487486 
L 151.37405 -284.121031 
L 149.74262 -291.57225 
L 148.111191 -289.530739 
L 146.479761 -283.183591 
L 144.848331 -270.636275 
L 143.216901 -248.477161 
L 141.585471 -213.006231 
L 139.954041 -169.501328 
L 138.322611 -126.204578 
L 136.691181 -92.751558 
L 135.059752 -66.898703 
L 133.428322 -54.451666 
L 131.796892 -50.693193 
L 130.165462 -49.65225 
L 128.534032 -49.65225 
L 126.902602 -49.65225 
L 125.271172 -49.65225 
L 123.639742 -49.65225 
L 122.008313 -49.65225 
L 120.376883 -49.65225 
L 118.745453 -49.65225 
L 117.114023 -49.65225 
L 115.482593 -49.65225 
L 113.851163 -49.65225 
L 112.219733 -49.65225 
L 110.588303 -49.65225 
L 108.956874 -49.65225 
L 107.325444 -49.65225 
L 105.694014 -49.65225 
L 104.062584 -49.65225 
L 102.431154 -49.65225 
L 100.799724 -49.65225 
L 99.168294 -49.65225 
L 97.536864 -49.65225 
L 95.905435 -49.65225 
L 94.274005 -49.65225 
L 92.642575 -49.65225 
L 91.011145 -49.65225 
L 89.379715 -49.65225 
L 87.748285 -49.65225 
L 86.116855 -49.65225 
L 84.485425 -49.65225 
L 82.853996 -49.65225 
L 81.222566 -49.65225 
L 79.591136 -49.65225 
L 77.959706 -49.65225 
L 76.328276 -49.65225 
L 74.696846 -49.65225 
L 73.065416 -49.65225 
L 71.433986 -49.65225 
L 69.802557 -49.65225 
L 68.171127 -49.65225 
L 66.539697 -49.65225 
L 64.908267 -49.65225 
L 63.276837 -49.65225 
L 61.645407 -49.65225 
L 60.013977 -49.65225 
z
" style="stroke: #1f77b4; stroke-opacity: 0.3"/>
    </defs>
    <g clip-path="url(#pff4dab483c)">
     <use xlink:href="#m5945e9f9e8" x="0" y="310.86825" style="fill: #1f77b4; fill-opacity: 0.3; stroke: #1f77b4; stroke-opacity: 0.3"/>
    </g>
   </g>
   <g id="matplotlib.axis_1">
    <g id="xtick_1">
     <g id="line2d_1">
      <defs>
       <path id="m212faa10f1" d="M 0 0 
L 0 3.5 
" style="stroke: #000000; stroke-width: 0.8"/>
      </defs>
      <g>
       <use xlink:href="#m212faa10f1" x="59.198262" y="273.312" style="stroke: #000000; stroke-width: 0.8"/>
      </g>
     </g>
     <g id="text_1">
      <!-- 0.0 -->
      <g transform="translate(51.2467 287.910437) scale(0.1 -0.1)">
       <defs>
        <path id="DejaVuSans-30" d="M 2034 4250 
Q 1547 4250 1301 3770 
Q 1056 3291 1056 2328 
Q 1056 1369 1301 889 
Q 1547 409 2034 409 
Q 2525 409 2770 889 
Q 3016 1369 3016 2328 
Q 3016 3291 2770 3770 
Q 2525 4250 2034 4250 
z
M 2034 4750 
Q 2819 4750 3233 4129 
Q 3647 3509 3647 2328 
Q 3647 1150 3233 529 
Q 2819 -91 2034 -91 
Q 1250 -91 836 529 
Q 422 1150 422 2328 
Q 422 3509 836 4129 
Q 1250 4750 2034 4750 
z
" transform="scale(0.015625)"/>
        <path id="DejaVuSans-2e" d="M 684 794 
L 1344 794 
L 1344 0 
L 684 0 
L 684 794 
z
" transform="scale(0.015625)"/>
       </defs>
       <use xlink:href="#DejaVuSans-30"/>
       <use xlink:href="#DejaVuSans-2e" transform="translate(63.623047 0)"/>
       <use xlink:href="#DejaVuSans-30" transform="translate(95.410156 0)"/>
      </g>
     </g>
    </g>
    <g id="xtick_2">
     <g id="line2d_2">
      <g>
       <use xlink:href="#m212faa10f1" x="99.984009" y="273.312" style="stroke: #000000; stroke-width: 0.8"/>
      </g>
     </g>
     <g id="text_2">
      <!-- 0.5 -->
      <g transform="translate(92.032447 287.910437) scale(0.1 -0.1)">
       <defs>
        <path id="DejaVuSans-35" d="M 691 4666 
L 3169 4666 
L 3169 4134 
L 1269 4134 
L 1269 2991 
Q 1406 3038 1543 3061 
Q 1681 3084 1819 3084 
Q 2600 3084 3056 2656 
Q 3513 2228 3513 1497 
Q 3513 744 3044 326 
Q 2575 -91 1722 -91 
Q 1428 -91 1123 -41 
Q 819 9 494 109 
L 494 744 
Q 775 591 1075 516 
Q 1375 441 1709 441 
Q 2250 441 2565 725 
Q 2881 1009 2881 1497 
Q 2881 1984 2565 2268 
Q 2250 2553 1709 2553 
Q 1456 2553 1204 2497 
Q 953 2441 691 2322 
L 691 4666 
z
" transform="scale(0.015625)"/>
       </defs>
       <use xlink:href="#DejaVuSans-30"/>
       <use xlink:href="#DejaVuSans-2e" transform="translate(63.623047 0)"/>
       <use xlink:href="#DejaVuSans-35" transform="translate(95.410156 0)"/>
      </g>
     </g>
    </g>
    <g id="xtick_3">
     <g id="line2d_3">
      <g>
       <use xlink:href="#m212faa10f1" x="140.769756" y="273.312" style="stroke: #000000; stroke-width: 0.8"/>
      </g>
     </g>
     <g id="text_3">
      <!-- 1.0 -->
      <g transform="translate(132.818194 287.910437) scale(0.1 -0.1)">
       <defs>
        <path id="DejaVuSans-31" d="M 794 531 
L 1825 531 
L 1825 4091 
L 703 3866 
L 703 4441 
L 1819 4666 
L 2450 4666 
L 2450 531 
L 3481 531 
L 3481 0 
L 794 0 
L 794 531 
z
" transform="scale(0.015625)"/>
       </defs>
       <use xlink:href="#DejaVuSans-31"/>
       <use xlink:href="#DejaVuSans-2e" transform="translate(63.623047 0)"/>
       <use xlink:href="#DejaVuSans-30" transform="translate(95.410156 0)"/>
      </g>
     </g>
    </g>
    <g id="xtick_4">
     <g id="line2d_4">
      <g>
       <use xlink:href="#m212faa10f1" x="181.555503" y="273.312" style="stroke: #000000; stroke-width: 0.8"/>
      </g>
     </g>
     <g id="text_4">
      <!-- 1.5 -->
      <g transform="translate(173.603941 287.910437) scale(0.1 -0.1)">
       <use xlink:href="#DejaVuSans-31"/>
       <use xlink:href="#DejaVuSans-2e" transform="translate(63.623047 0)"/>
       <use xlink:href="#DejaVuSans-35" transform="translate(95.410156 0)"/>
      </g>
     </g>
    </g>
    <g id="xtick_5">
     <g id="line2d_5">
      <g>
       <use xlink:href="#m212faa10f1" x="222.34125" y="273.312" style="stroke: #000000; stroke-width: 0.8"/>
      </g>
     </g>
     <g id="text_5">
      <!-- 2.0 -->
      <g transform="translate(214.389688 287.910437) scale(0.1 -0.1)">
       <defs>
        <path id="DejaVuSans-32" d="M 1228 531 
L 3431 531 
L 3431 0 
L 469 0 
L 469 531 
Q 828 903 1448 1529 
Q 2069 2156 2228 2338 
Q 2531 2678 2651 2914 
Q 2772 3150 2772 3378 
Q 2772 3750 2511 3984 
Q 2250 4219 1831 4219 
Q 1534 4219 1204 4116 
Q 875 4013 500 3803 
L 500 4441 
Q 881 4594 1212 4672 
Q 1544 4750 1819 4750 
Q 2544 4750 2975 4387 
Q 3406 4025 3406 3419 
Q 3406 3131 3298 2873 
Q 3191 2616 2906 2266 
Q 2828 2175 2409 1742 
Q 1991 1309 1228 531 
z
" transform="scale(0.015625)"/>
       </defs>
       <use xlink:href="#DejaVuSans-32"/>
       <use xlink:href="#DejaVuSans-2e" transform="translate(63.623047 0)"/>
       <use xlink:href="#DejaVuSans-30" transform="translate(95.410156 0)"/>
      </g>
     </g>
    </g>
    <g id="xtick_6">
     <g id="line2d_6">
      <g>
       <use xlink:href="#m212faa10f1" x="263.126997" y="273.312" style="stroke: #000000; stroke-width: 0.8"/>
      </g>
     </g>
     <g id="text_6">
      <!-- 2.5 -->
      <g transform="translate(255.175434 287.910437) scale(0.1 -0.1)">
       <use xlink:href="#DejaVuSans-32"/>
       <use xlink:href="#DejaVuSans-2e" transform="translate(63.623047 0)"/>
       <use xlink:href="#DejaVuSans-35" transform="translate(95.410156 0)"/>
      </g>
     </g>
    </g>
    <g id="xtick_7">
     <g id="line2d_7">
      <g>
       <use xlink:href="#m212faa10f1" x="303.912744" y="273.312" style="stroke: #000000; stroke-width: 0.8"/>
      </g>
     </g>
     <g id="text_7">
      <!-- 3.0 -->
      <g transform="translate(295.961181 287.910437) scale(0.1 -0.1)">
       <defs>
        <path id="DejaVuSans-33" d="M 2597 2516 
Q 3050 2419 3304 2112 
Q 3559 1806 3559 1356 
Q 3559 666 3084 287 
Q 2609 -91 1734 -91 
Q 1441 -91 1130 -33 
Q 819 25 488 141 
L 488 750 
Q 750 597 1062 519 
Q 1375 441 1716 441 
Q 2309 441 2620 675 
Q 2931 909 2931 1356 
Q 2931 1769 2642 2001 
Q 2353 2234 1838 2234 
L 1294 2234 
L 1294 2753 
L 1863 2753 
Q 2328 2753 2575 2939 
Q 2822 3125 2822 3475 
Q 2822 3834 2567 4026 
Q 2313 4219 1838 4219 
Q 1578 4219 1281 4162 
Q 984 4106 628 3988 
L 628 4550 
Q 988 4650 1302 4700 
Q 1616 4750 1894 4750 
Q 2613 4750 3031 4423 
Q 3450 4097 3450 3541 
Q 3450 3153 3228 2886 
Q 3006 2619 2597 2516 
z
" transform="scale(0.015625)"/>
       </defs>
       <use xlink:href="#DejaVuSans-33"/>
       <use xlink:href="#DejaVuSans-2e" transform="translate(63.623047 0)"/>
       <use xlink:href="#DejaVuSans-30" transform="translate(95.410156 0)"/>
      </g>
     </g>
    </g>
    <g id="xtick_8">
     <g id="line2d_8">
      <g>
       <use xlink:href="#m212faa10f1" x="344.698491" y="273.312" style="stroke: #000000; stroke-width: 0.8"/>
      </g>
     </g>
     <g id="text_8">
      <!-- 3.5 -->
      <g transform="translate(336.746928 287.910437) scale(0.1 -0.1)">
       <use xlink:href="#DejaVuSans-33"/>
       <use xlink:href="#DejaVuSans-2e" transform="translate(63.623047 0)"/>
       <use xlink:href="#DejaVuSans-35" transform="translate(95.410156 0)"/>
      </g>
     </g>
    </g>
    <g id="xtick_9">
     <g id="line2d_9">
      <g>
       <use xlink:href="#m212faa10f1" x="385.484238" y="273.312" style="stroke: #000000; stroke-width: 0.8"/>
      </g>
     </g>
     <g id="text_9">
      <!-- 4.0 -->
      <g transform="translate(377.532675 287.910437) scale(0.1 -0.1)">
       <defs>
        <path id="DejaVuSans-34" d="M 2419 4116 
L 825 1625 
L 2419 1625 
L 2419 4116 
z
M 2253 4666 
L 3047 4666 
L 3047 1625 
L 3713 1625 
L 3713 1100 
L 3047 1100 
L 3047 0 
L 2419 0 
L 2419 1100 
L 313 1100 
L 313 1709 
L 2253 4666 
z
" transform="scale(0.015625)"/>
       </defs>
       <use xlink:href="#DejaVuSans-34"/>
       <use xlink:href="#DejaVuSans-2e" transform="translate(63.623047 0)"/>
       <use xlink:href="#DejaVuSans-30" transform="translate(95.410156 0)"/>
      </g>
     </g>
    </g>
    <g id="text_10">
     <!-- r (reduced units) -->
     <g transform="translate(180.552188 301.588562) scale(0.1 -0.1)">
      <defs>
       <path id="DejaVuSans-72" d="M 2631 2963 
Q 2534 3019 2420 3045 
Q 2306 3072 2169 3072 
Q 1681 3072 1420 2755 
Q 1159 2438 1159 1844 
L 1159 0 
L 581 0 
L 581 3500 
L 1159 3500 
L 1159 2956 
Q 1341 3275 1631 3429 
Q 1922 3584 2338 3584 
Q 2397 3584 2469 3576 
Q 2541 3569 2628 3553 
L 2631 2963 
z
" transform="scale(0.015625)"/>
       <path id="DejaVuSans-20" transform="scale(0.015625)"/>
       <path id="DejaVuSans-28" d="M 1984 4856 
Q 1566 4138 1362 3434 
Q 1159 2731 1159 2009 
Q 1159 1288 1364 580 
Q 1569 -128 1984 -844 
L 1484 -844 
Q 1016 -109 783 600 
Q 550 1309 550 2009 
Q 550 2706 781 3412 
Q 1013 4119 1484 4856 
L 1984 4856 
z
" transform="scale(0.015625)"/>
       <path id="DejaVuSans-65" d="M 3597 1894 
L 3597 1613 
L 953 1613 
Q 991 1019 1311 708 
Q 1631 397 2203 397 
Q 2534 397 2845 478 
Q 3156 559 3463 722 
L 3463 178 
Q 3153 47 2828 -22 
Q 2503 -91 2169 -91 
Q 1331 -91 842 396 
Q 353 884 353 1716 
Q 353 2575 817 3079 
Q 1281 3584 2069 3584 
Q 2775 3584 3186 3129 
Q 3597 2675 3597 1894 
z
M 3022 2063 
Q 3016 2534 2758 2815 
Q 2500 3097 2075 3097 
Q 1594 3097 1305 2825 
Q 1016 2553 972 2059 
L 3022 2063 
z
" transform="scale(0.015625)"/>
       <path id="DejaVuSans-64" d="M 2906 2969 
L 2906 4863 
L 3481 4863 
L 3481 0 
L 2906 0 
L 2906 525 
Q 2725 213 2448 61 
Q 2172 -91 1784 -91 
Q 1150 -91 751 415 
Q 353 922 353 1747 
Q 353 2572 751 3078 
Q 1150 3584 1784 3584 
Q 2172 3584 2448 3432 
Q 2725 3281 2906 2969 
z
M 947 1747 
Q 947 1113 1208 752 
Q 1469 391 1925 391 
Q 2381 391 2643 752 
Q 2906 1113 2906 1747 
Q 2906 2381 2643 2742 
Q 2381 3103 1925 3103 
Q 1469 3103 1208 2742 
Q 947 2381 947 1747 
z
" transform="scale(0.015625)"/>
       <path id="DejaVuSans-75" d="M 544 1381 
L 544 3500 
L 1119 3500 
L 1119 1403 
Q 1119 906 1312 657 
Q 1506 409 1894 409 
Q 2359 409 2629 706 
Q 2900 1003 2900 1516 
L 2900 3500 
L 3475 3500 
L 3475 0 
L 2900 0 
L 2900 538 
Q 2691 219 2414 64 
Q 2138 -91 1772 -91 
Q 1169 -91 856 284 
Q 544 659 544 1381 
z
M 1991 3584 
L 1991 3584 
z
" transform="scale(0.015625)"/>
       <path id="DejaVuSans-63" d="M 3122 3366 
L 3122 2828 
Q 2878 2963 2633 3030 
Q 2388 3097 2138 3097 
Q 1578 3097 1268 2742 
Q 959 2388 959 1747 
Q 959 1106 1268 751 
Q 1578 397 2138 397 
Q 2388 397 2633 464 
Q 2878 531 3122 666 
L 3122 134 
Q 2881 22 2623 -34 
Q 2366 -91 2075 -91 
Q 1284 -91 818 406 
Q 353 903 353 1747 
Q 353 2603 823 3093 
Q 1294 3584 2113 3584 
Q 2378 3584 2631 3529 
Q 2884 3475 3122 3366 
z
" transform="scale(0.015625)"/>
       <path id="DejaVuSans-6e" d="M 3513 2113 
L 3513 0 
L 2938 0 
L 2938 2094 
Q 2938 2591 2744 2837 
Q 2550 3084 2163 3084 
Q 1697 3084 1428 2787 
Q 1159 2491 1159 1978 
L 1159 0 
L 581 0 
L 581 3500 
L 1159 3500 
L 1159 2956 
Q 1366 3272 1645 3428 
Q 1925 3584 2291 3584 
Q 2894 3584 3203 3211 
Q 3513 2838 3513 2113 
z
" transform="scale(0.015625)"/>
       <path id="DejaVuSans-69" d="M 603 3500 
L 1178 3500 
L 1178 0 
L 603 0 
L 603 3500 
z
M 603 4863 
L 1178 4863 
L 1178 4134 
L 603 4134 
L 603 4863 
z
" transform="scale(0.015625)"/>
       <path id="DejaVuSans-74" d="M 1172 4494 
L 1172 3500 
L 2356 3500 
L 2356 3053 
L 1172 3053 
L 1172 1153 
Q 1172 725 1289 603 
Q 1406 481 1766 481 
L 2356 481 
L 2356 0 
L 1766 0 
Q 1100 0 847 248 
Q 594 497 594 1153 
L 594 3053 
L 172 3053 
L 172 3500 
L 594 3500 
L 594 4494 
L 1172 4494 
z
" transform="scale(0.015625)"/>
       <path id="DejaVuSans-73" d="M 2834 3397 
L 2834 2853 
Q 2591 2978 2328 3040 
Q 2066 3103 1784 3103 
Q 1356 3103 1142 2972 
Q 928 2841 928 2578 
Q 928 2378 1081 2264 
Q 1234 2150 1697 2047 
L 1894 2003 
Q 2506 1872 2764 1633 
Q 3022 1394 3022 966 
Q 3022 478 2636 193 
Q 2250 -91 1575 -91 
Q 1294 -91 989 -36 
Q 684 19 347 128 
L 347 722 
Q 666 556 975 473 
Q 1284 391 1588 391 
Q 1994 391 2212 530 
Q 2431 669 2431 922 
Q 2431 1156 2273 1281 
Q 2116 1406 1581 1522 
L 1381 1569 
Q 847 1681 609 1914 
Q 372 2147 372 2553 
Q 372 3047 722 3315 
Q 1072 3584 1716 3584 
Q 2034 3584 2315 3537 
Q 2597 3491 2834 3397 
z
" transform="scale(0.015625)"/>
       <path id="DejaVuSans-29" d="M 513 4856 
L 1013 4856 
Q 1481 4119 1714 3412 
Q 1947 2706 1947 2009 
Q 1947 1309 1714 600 
Q 1481 -109 1013 -844 
L 513 -844 
Q 928 -128 1133 580 
Q 1338 1288 1338 2009 
Q 1338 2731 1133 3434 
Q 928 4138 513 4856 
z
" transform="scale(0.015625)"/>
      </defs>
      <use xlink:href="#DejaVuSans-72"/>
      <use xlink:href="#DejaVuSans-20" transform="translate(41.113281 0)"/>
      <use xlink:href="#DejaVuSans-28" transform="translate(72.900391 0)"/>
      <use xlink:href="#DejaVuSans-72" transform="translate(111.914062 0)"/>
      <use xlink:href="#DejaVuSans-65" transform="translate(150.777344 0)"/>
      <use xlink:href="#DejaVuSans-64" transform="translate(212.300781 0)"/>
      <use xlink:href="#DejaVuSans-75" transform="translate(275.777344 0)"/>
      <use xlink:href="#DejaVuSans-63" transform="translate(339.15625 0)"/>
      <use xlink:href="#DejaVuSans-65" transform="translate(394.136719 0)"/>
      <use xlink:href="#DejaVuSans-64" transform="translate(455.660156 0)"/>
      <use xlink:href="#DejaVuSans-20" transform="translate(519.136719 0)"/>
      <use xlink:href="#DejaVuSans-75" transform="translate(550.923828 0)"/>
      <use xlink:href="#DejaVuSans-6e" transform="translate(614.302734 0)"/>
      <use xlink:href="#DejaVuSans-69" transform="translate(677.681641 0)"/>
      <use xlink:href="#DejaVuSans-74" transform="translate(705.464844 0)"/>
      <use xlink:href="#DejaVuSans-73" transform="translate(744.673828 0)"/>
      <use xlink:href="#DejaVuSans-29" transform="translate(796.773438 0)"/>
     </g>
    </g>
   </g>
   <g id="matplotlib.axis_2">
    <g id="ytick_1">
     <g id="line2d_10">
      <defs>
       <path id="m47c6b3f70c" d="M 0 0 
L -3.5 0 
" style="stroke: #000000; stroke-width: 0.8"/>
      </defs>
      <g>
       <use xlink:href="#m47c6b3f70c" x="43.78125" y="261.216" style="stroke: #000000; stroke-width: 0.8"/>
      </g>
     </g>
     <g id="text_11">
      <!-- 0.0 -->
      <g transform="translate(20.878125 265.015219) scale(0.1 -0.1)">
       <use xlink:href="#DejaVuSans-30"/>
       <use xlink:href="#DejaVuSans-2e" transform="translate(63.623047 0)"/>
       <use xlink:href="#DejaVuSans-30" transform="translate(95.410156 0)"/>
      </g>
     </g>
    </g>
    <g id="ytick_2">
     <g id="line2d_11">
      <g>
       <use xlink:href="#m47c6b3f70c" x="43.78125" y="202.129123" style="stroke: #000000; stroke-width: 0.8"/>
      </g>
     </g>
     <g id="text_12">
      <!-- 0.5 -->
      <g transform="translate(20.878125 205.928342) scale(0.1 -0.1)">
       <use xlink:href="#DejaVuSans-30"/>
       <use xlink:href="#DejaVuSans-2e" transform="translate(63.623047 0)"/>
       <use xlink:href="#DejaVuSans-35" transform="translate(95.410156 0)"/>
      </g>
     </g>
    </g>
    <g id="ytick_3">
     <g id="line2d_12">
      <g>
       <use xlink:href="#m47c6b3f70c" x="43.78125" y="143.042246" style="stroke: #000000; stroke-width: 0.8"/>
      </g>
     </g>
     <g id="text_13">
      <!-- 1.0 -->
      <g transform="translate(20.878125 146.841465) scale(0.1 -0.1)">
       <use xlink:href="#DejaVuSans-31"/>
       <use xlink:href="#DejaVuSans-2e" transform="translate(63.623047 0)"/>
       <use xlink:href="#DejaVuSans-30" transform="translate(95.410156 0)"/>
      </g>
     </g>
    </g>
    <g id="ytick_4">
     <g id="line2d_13">
      <g>
       <use xlink:href="#m47c6b3f70c" x="43.78125" y="83.95537" style="stroke: #000000; stroke-width: 0.8"/>
      </g>
     </g>
     <g id="text_14">
      <!-- 1.5 -->
      <g transform="translate(20.878125 87.754588) scale(0.1 -0.1)">
       <use xlink:href="#DejaVuSans-31"/>
       <use xlink:href="#DejaVuSans-2e" transform="translate(63.623047 0)"/>
       <use xlink:href="#DejaVuSans-35" transform="translate(95.410156 0)"/>
      </g>
     </g>
    </g>
    <g id="ytick_5">
     <g id="line2d_14">
      <g>
       <use xlink:href="#m47c6b3f70c" x="43.78125" y="24.868493" style="stroke: #000000; stroke-width: 0.8"/>
      </g>
     </g>
     <g id="text_15">
      <!-- 2.0 -->
      <g transform="translate(20.878125 28.667712) scale(0.1 -0.1)">
       <use xlink:href="#DejaVuSans-32"/>
       <use xlink:href="#DejaVuSans-2e" transform="translate(63.623047 0)"/>
       <use xlink:href="#DejaVuSans-30" transform="translate(95.410156 0)"/>
      </g>
     </g>
    </g>
    <g id="text_16">
     <!-- g(r) -->
     <g transform="translate(14.798438 149.38725) rotate(-90) scale(0.1 -0.1)">
      <defs>
       <path id="DejaVuSans-67" d="M 2906 1791 
Q 2906 2416 2648 2759 
Q 2391 3103 1925 3103 
Q 1463 3103 1205 2759 
Q 947 2416 947 1791 
Q 947 1169 1205 825 
Q 1463 481 1925 481 
Q 2391 481 2648 825 
Q 2906 1169 2906 1791 
z
M 3481 434 
Q 3481 -459 3084 -895 
Q 2688 -1331 1869 -1331 
Q 1566 -1331 1297 -1286 
Q 1028 -1241 775 -1147 
L 775 -588 
Q 1028 -725 1275 -790 
Q 1522 -856 1778 -856 
Q 2344 -856 2625 -561 
Q 2906 -266 2906 331 
L 2906 616 
Q 2728 306 2450 153 
Q 2172 0 1784 0 
Q 1141 0 747 490 
Q 353 981 353 1791 
Q 353 2603 747 3093 
Q 1141 3584 1784 3584 
Q 2172 3584 2450 3431 
Q 2728 3278 2906 2969 
L 2906 3500 
L 3481 3500 
L 3481 434 
z
" transform="scale(0.015625)"/>
      </defs>
      <use xlink:href="#DejaVuSans-67"/>
      <use xlink:href="#DejaVuSans-28" transform="translate(63.476562 0)"/>
      <use xlink:href="#DejaVuSans-72" transform="translate(102.490234 0)"/>
      <use xlink:href="#DejaVuSans-29" transform="translate(143.603516 0)"/>
     </g>
    </g>
   </g>
   <g id="line2d_15">
    <path d="M 60.013977 261.216 
L 130.165462 261.216 
L 131.796892 260.3033 
L 133.428322 256.692151 
L 135.059752 245.384953 
L 136.691181 221.745779 
L 138.322611 190.596308 
L 141.585471 109.702147 
L 143.216901 78.069416 
L 144.848331 55.05399 
L 146.479761 43.304815 
L 148.111191 35.775741 
L 149.74262 34.91806 
L 151.37405 41.364842 
L 153.00548 46.891025 
L 154.63691 55.852 
L 156.26834 63.934473 
L 157.89977 75.429849 
L 159.5312 85.303276 
L 161.16263 93.775683 
L 162.79406 97.459297 
L 164.425489 107.724106 
L 166.056919 112.004795 
L 167.688349 117.300714 
L 169.319779 124.586514 
L 170.951209 127.180827 
L 172.582639 133.720162 
L 174.214069 136.914647 
L 175.845499 138.128107 
L 177.476928 143.532072 
L 179.108358 146.763214 
L 180.739788 147.861223 
L 182.371218 149.575758 
L 184.002648 150.341518 
L 185.634078 152.47302 
L 187.265508 155.208082 
L 188.896938 153.343221 
L 190.528367 156.251715 
L 192.159797 155.554609 
L 193.791227 157.963741 
L 195.422657 158.646666 
L 197.054087 158.413566 
L 198.685517 159.815228 
L 200.316947 158.756984 
L 201.948377 159.998132 
L 203.579806 157.454444 
L 205.211236 157.729403 
L 206.842666 155.449691 
L 208.474096 154.373232 
L 210.105526 153.527824 
L 211.736956 153.325482 
L 213.368386 151.064369 
L 214.999816 149.77389 
L 216.631245 149.11315 
L 218.262675 147.016344 
L 219.894105 146.167686 
L 221.525535 143.389961 
L 223.156965 142.924954 
L 224.788395 142.607382 
L 226.419825 140.750287 
L 228.051255 140.300779 
L 229.682684 141.074121 
L 231.314114 139.197487 
L 232.945544 139.841137 
L 234.576974 139.40146 
L 236.208404 138.393708 
L 237.839834 140.864312 
L 239.471264 138.73102 
L 241.102694 139.741912 
L 242.734123 139.200089 
L 245.996983 140.467579 
L 247.628413 140.829114 
L 249.259843 141.603669 
L 250.891273 140.385854 
L 252.522703 142.833911 
L 254.154133 143.522031 
L 255.785562 144.392312 
L 257.416992 143.725112 
L 259.048422 144.660975 
L 260.679852 146.02734 
L 262.311282 146.312023 
L 263.942712 146.710097 
L 265.574142 146.312506 
L 267.205572 147.730483 
L 268.837001 147.22441 
L 270.468431 148.749475 
L 273.731291 148.527343 
L 275.362721 149.033256 
L 276.994151 148.584028 
L 278.625581 147.942522 
L 280.257011 149.602312 
L 281.88844 149.27392 
L 283.51987 149.221788 
L 285.1513 150.190747 
L 286.78273 149.817899 
L 288.41416 148.476351 
L 290.04559 149.582758 
L 291.67702 149.558055 
L 293.30845 149.204428 
L 294.93988 150.261494 
L 296.571309 149.665092 
L 298.202739 149.212648 
L 299.834169 149.3894 
L 301.465599 148.424099 
L 303.097029 148.778648 
L 304.728459 149.382831 
L 306.359889 149.10514 
L 307.991319 149.473139 
L 309.622748 149.378516 
L 311.254178 148.650935 
L 312.885608 149.727109 
L 314.517038 149.201785 
L 316.148468 148.99903 
L 317.779898 149.353158 
L 319.411328 148.779344 
L 322.674187 149.95095 
L 325.937047 149.126162 
L 327.568477 150.171084 
L 329.199907 148.793427 
L 330.831337 149.345555 
L 334.094197 149.504662 
L 335.725626 149.27091 
L 337.357056 149.314084 
L 338.988486 149.812653 
L 342.251346 150.191916 
L 343.882776 151.399593 
L 345.514206 150.671839 
L 347.145636 150.676126 
L 348.777065 151.620864 
L 350.408495 152.31077 
L 352.039925 154.404762 
L 353.671355 156.149838 
L 355.302785 157.226256 
L 356.934215 157.843092 
L 358.565645 159.908497 
L 360.197075 160.609496 
L 361.828504 162.590591 
L 363.459934 163.380851 
L 365.091364 164.683373 
L 368.354224 167.491157 
L 369.985654 168.63405 
L 371.617084 170.694687 
L 373.248514 171.056282 
L 374.879943 173.115049 
L 379.774233 175.858375 
L 383.037093 178.335676 
L 384.668523 179.723189 
L 384.668523 179.723189 
" clip-path="url(#pff4dab483c)" style="fill: none; stroke: #1f77b4; stroke-width: 1.5; stroke-linecap: square"/>
   </g>
   <g id="line2d_16">
    <path d="M 43.78125 143.042246 
L 400.90125 143.042246 
" clip-path="url(#pff4dab483c)" style="fill: none; stroke-dasharray: 5.55,2.4; stroke-dashoffset: 0; stroke: #000000; stroke-opacity: 0.4; stroke-width: 1.5"/>
   </g>
   <g id="patch_3">
    <path d="M 43.78125 273.312 
L 43.78125 7.2 
" style="fill: none; stroke: #000000; stroke-width: 0.8; stroke-linejoin: miter; stroke-linecap: square"/>
   </g>
   <g id="patch_4">
    <path d="M 400.90125 273.312 
L 400.90125 7.2 
" style="fill: none; stroke: #000000; stroke-width: 0.8; stroke-linejoin: miter; stroke-linecap: square"/>
   </g>
   <g id="patch_5">
    <path d="M 43.78125 273.312 
L 400.90125 273.312 
" style="fill: none; stroke: #000000; stroke-width: 0.8; stroke-linejoin: miter; stroke-linecap: square"/>
   </g>
   <g id="patch_6">
    <path d="M 43.78125 7.2 
L 400.90125 7.2 
" style="fill: none; stroke: #000000; stroke-width: 0.8; stroke-linejoin: miter; stroke-linecap: square"/>
   </g>
   <g id="legend_1">
    <g id="patch_7">
     <path d="M 327.740313 44.55625 
L 393.90125 44.55625 
Q 395.90125 44.55625 395.90125 42.55625 
L 395.90125 14.2 
Q 395.90125 12.2 393.90125 12.2 
L 327.740313 12.2 
Q 325.740313 12.2 325.740313 14.2 
L 325.740313 42.55625 
Q 325.740313 44.55625 327.740313 44.55625 
z
" style="fill: #ffffff; opacity: 0.8; stroke: #cccccc; stroke-linejoin: miter"/>
    </g>
    <g id="line2d_17">
     <path d="M 329.740313 20.298437 
L 339.740313 20.298437 
L 349.740313 20.298437 
" style="fill: none; stroke: #1f77b4; stroke-width: 1.5; stroke-linecap: square"/>
    </g>
    <g id="text_17">
     <!-- Mean -->
     <g transform="translate(357.740313 23.798437) scale(0.1 -0.1)">
      <defs>
       <path id="DejaVuSans-4d" d="M 628 4666 
L 1569 4666 
L 2759 1491 
L 3956 4666 
L 4897 4666 
L 4897 0 
L 4281 0 
L 4281 4097 
L 3078 897 
L 2444 897 
L 1241 4097 
L 1241 0 
L 628 0 
L 628 4666 
z
" transform="scale(0.015625)"/>
       <path id="DejaVuSans-61" d="M 2194 1759 
Q 1497 1759 1228 1600 
Q 959 1441 959 1056 
Q 959 750 1161 570 
Q 1363 391 1709 391 
Q 2188 391 2477 730 
Q 2766 1069 2766 1631 
L 2766 1759 
L 2194 1759 
z
M 3341 1997 
L 3341 0 
L 2766 0 
L 2766 531 
Q 2569 213 2275 61 
Q 1981 -91 1556 -91 
Q 1019 -91 701 211 
Q 384 513 384 1019 
Q 384 1609 779 1909 
Q 1175 2209 1959 2209 
L 2766 2209 
L 2766 2266 
Q 2766 2663 2505 2880 
Q 2244 3097 1772 3097 
Q 1472 3097 1187 3025 
Q 903 2953 641 2809 
L 641 3341 
Q 956 3463 1253 3523 
Q 1550 3584 1831 3584 
Q 2591 3584 2966 3190 
Q 3341 2797 3341 1997 
z
" transform="scale(0.015625)"/>
      </defs>
      <use xlink:href="#DejaVuSans-4d"/>
      <use xlink:href="#DejaVuSans-65" transform="translate(86.279297 0)"/>
      <use xlink:href="#DejaVuSans-61" transform="translate(147.802734 0)"/>
      <use xlink:href="#DejaVuSans-6e" transform="translate(209.082031 0)"/>
     </g>
    </g>
    <g id="patch_8">
     <path d="M 329.740313 38.476562 
L 349.740313 38.476562 
L 349.740313 31.476562 
L 329.740313 31.476562 
z
" style="fill: #1f77b4; fill-opacity: 0.3; stroke: #1f77b4; stroke-opacity: 0.3; stroke-linejoin: miter"/>
    </g>
    <g id="text_18">
     <!-- Std Err -->
     <g transform="translate(357.740313 38.476562) scale(0.1 -0.1)">
      <defs>
       <path id="DejaVuSans-53" d="M 3425 4513 
L 3425 3897 
Q 3066 4069 2747 4153 
Q 2428 4238 2131 4238 
Q 1616 4238 1336 4038 
Q 1056 3838 1056 3469 
Q 1056 3159 1242 3001 
Q 1428 2844 1947 2747 
L 2328 2669 
Q 3034 2534 3370 2195 
Q 3706 1856 3706 1288 
Q 3706 609 3251 259 
Q 2797 -91 1919 -91 
Q 1588 -91 1214 -16 
Q 841 59 441 206 
L 441 856 
Q 825 641 1194 531 
Q 1563 422 1919 422 
Q 2459 422 2753 634 
Q 3047 847 3047 1241 
Q 3047 1584 2836 1778 
Q 2625 1972 2144 2069 
L 1759 2144 
Q 1053 2284 737 2584 
Q 422 2884 422 3419 
Q 422 4038 858 4394 
Q 1294 4750 2059 4750 
Q 2388 4750 2728 4690 
Q 3069 4631 3425 4513 
z
" transform="scale(0.015625)"/>
       <path id="DejaVuSans-45" d="M 628 4666 
L 3578 4666 
L 3578 4134 
L 1259 4134 
L 1259 2753 
L 3481 2753 
L 3481 2222 
L 1259 2222 
L 1259 531 
L 3634 531 
L 3634 0 
L 628 0 
L 628 4666 
z
" transform="scale(0.015625)"/>
      </defs>
      <use xlink:href="#DejaVuSans-53"/>
      <use xlink:href="#DejaVuSans-74" transform="translate(63.476562 0)"/>
      <use xlink:href="#DejaVuSans-64" transform="translate(102.685547 0)"/>
      <use xlink:href="#DejaVuSans-20" transform="translate(166.162109 0)"/>
      <use xlink:href="#DejaVuSans-45" transform="translate(197.949219 0)"/>
      <use xlink:href="#DejaVuSans-72" transform="translate(261.132812 0)"/>
      <use xlink:href="#DejaVuSans-72" transform="translate(300.496094 0)"/>
     </g>
    </g>
   </g>
  </g>
 </g>
 <defs>
  <clipPath id="pff4dab483c">
   <rect x="43.78125" y="7.2" width="357.12" height="266.112"/>
  </clipPath>
 </defs>
</svg>
