<?xml version="1.0" encoding="utf-8" standalone="no"?>
<!DOCTYPE svg PUBLIC "-//W3C//DTD SVG 1.1//EN"
  "http://www.w3.org/Graphics/SVG/1.1/DTD/svg11.dtd">
<svg xmlns:xlink="http://www.w3.org/1999/xlink" width="414.46375pt" height="325.986375pt" viewBox="0 0 414.46375 325.986375" xmlns="http://www.w3.org/2000/svg" version="1.1">
 <metadata>
  <rdf:RDF xmlns:dc="http://purl.org/dc/elements/1.1/" xmlns:cc="http://creativecommons.org/ns#" xmlns:rdf="http://www.w3.org/1999/02/22-rdf-syntax-ns#">
   <cc:Work>
    <dc:type rdf:resource="http://purl.org/dc/dcmitype/StillImage"/>
    <dc:date>2025-12-06T21:14:37.872573</dc:date>
    <dc:format>image/svg+xml</dc:format>
    <dc:creator>
     <cc:Agent>
      <dc:title>Matplotlib v3.10.5, https://matplotlib.org/</dc:title>
     </cc:Agent>
    </dc:creator>
   </cc:Work>
  </rdf:RDF>
 </metadata>
 <defs>
  <style type="text/css">*{stroke-linejoin: round; stroke-linecap: butt}</style>
 </defs>
 <g id="figure_1">
  <g id="patch_1">
   <path d="M 0 325.986375 
L 414.46375 325.986375 
L 414.46375 0 
L 0 0 
z
" style="fill: #ffffff"/>
  </g>
  <g id="axes_1">
   <g id="patch_2">
    <path d="M 50.14375 288.430125 
L 407.26375 288.430125 
L 407.26375 22.318125 
L 50.14375 22.318125 
z
" style="fill: #ffffff"/>
   </g>
   <g id="matplotlib.axis_1">
    <g id="xtick_1">
     <g id="line2d_1">
      <defs>
       <path id="m761e05a301" d="M 0 0 
L 0 3.5 
" style="stroke: #000000; stroke-width: 0.8"/>
      </defs>
      <g>
       <use xlink:href="#m761e05a301" x="66.376477" y="288.430125" style="stroke: #000000; stroke-width: 0.8"/>
      </g>
     </g>
     <g id="text_1">
      <!-- 0.0 -->
      <g transform="translate(58.424915 303.028562) scale(0.1 -0.1)">
       <defs>
        <path id="DejaVuSans-30" d="M 2034 4250 
Q 1547 4250 1301 3770 
Q 1056 3291 1056 2328 
Q 1056 1369 1301 889 
Q 1547 409 2034 409 
Q 2525 409 2770 889 
Q 3016 1369 3016 2328 
Q 3016 3291 2770 3770 
Q 2525 4250 2034 4250 
z
M 2034 4750 
Q 2819 4750 3233 4129 
Q 3647 3509 3647 2328 
Q 3647 1150 3233 529 
Q 2819 -91 2034 -91 
Q 1250 -91 836 529 
Q 422 1150 422 2328 
Q 422 3509 836 4129 
Q 1250 4750 2034 4750 
z
" transform="scale(0.015625)"/>
        <path id="DejaVuSans-2e" d="M 684 794 
L 1344 794 
L 1344 0 
L 684 0 
L 684 794 
z
" transform="scale(0.015625)"/>
       </defs>
       <use xlink:href="#DejaVuSans-30"/>
       <use xlink:href="#DejaVuSans-2e" transform="translate(63.623047 0)"/>
       <use xlink:href="#DejaVuSans-30" transform="translate(95.410156 0)"/>
      </g>
     </g>
    </g>
    <g id="xtick_2">
     <g id="line2d_2">
      <g>
       <use xlink:href="#m761e05a301" x="106.998918" y="288.430125" style="stroke: #000000; stroke-width: 0.8"/>
      </g>
     </g>
     <g id="text_2">
      <!-- 2.5 -->
      <g transform="translate(99.047355 303.028562) scale(0.1 -0.1)">
       <defs>
        <path id="DejaVuSans-32" d="M 1228 531 
L 3431 531 
L 3431 0 
L 469 0 
L 469 531 
Q 828 903 1448 1529 
Q 2069 2156 2228 2338 
Q 2531 2678 2651 2914 
Q 2772 3150 2772 3378 
Q 2772 3750 2511 3984 
Q 2250 4219 1831 4219 
Q 1534 4219 1204 4116 
Q 875 4013 500 3803 
L 500 4441 
Q 881 4594 1212 4672 
Q 1544 4750 1819 4750 
Q 2544 4750 2975 4387 
Q 3406 4025 3406 3419 
Q 3406 3131 3298 2873 
Q 3191 2616 2906 2266 
Q 2828 2175 2409 1742 
Q 1991 1309 1228 531 
z
" transform="scale(0.015625)"/>
        <path id="DejaVuSans-35" d="M 691 4666 
L 3169 4666 
L 3169 4134 
L 1269 4134 
L 1269 2991 
Q 1406 3038 1543 3061 
Q 1681 3084 1819 3084 
Q 2600 3084 3056 2656 
Q 3513 2228 3513 1497 
Q 3513 744 3044 326 
Q 2575 -91 1722 -91 
Q 1428 -91 1123 -41 
Q 819 9 494 109 
L 494 744 
Q 775 591 1075 516 
Q 1375 441 1709 441 
Q 2250 441 2565 725 
Q 2881 1009 2881 1497 
Q 2881 1984 2565 2268 
Q 2250 2553 1709 2553 
Q 1456 2553 1204 2497 
Q 953 2441 691 2322 
L 691 4666 
z
" transform="scale(0.015625)"/>
       </defs>
       <use xlink:href="#DejaVuSans-32"/>
       <use xlink:href="#DejaVuSans-2e" transform="translate(63.623047 0)"/>
       <use xlink:href="#DejaVuSans-35" transform="translate(95.410156 0)"/>
      </g>
     </g>
    </g>
    <g id="xtick_3">
     <g id="line2d_3">
      <g>
       <use xlink:href="#m761e05a301" x="147.621359" y="288.430125" style="stroke: #000000; stroke-width: 0.8"/>
      </g>
     </g>
     <g id="text_3">
      <!-- 5.0 -->
      <g transform="translate(139.669796 303.028562) scale(0.1 -0.1)">
       <use xlink:href="#DejaVuSans-35"/>
       <use xlink:href="#DejaVuSans-2e" transform="translate(63.623047 0)"/>
       <use xlink:href="#DejaVuSans-30" transform="translate(95.410156 0)"/>
      </g>
     </g>
    </g>
    <g id="xtick_4">
     <g id="line2d_4">
      <g>
       <use xlink:href="#m761e05a301" x="188.243799" y="288.430125" style="stroke: #000000; stroke-width: 0.8"/>
      </g>
     </g>
     <g id="text_4">
      <!-- 7.5 -->
      <g transform="translate(180.292237 303.028562) scale(0.1 -0.1)">
       <defs>
        <path id="DejaVuSans-37" d="M 525 4666 
L 3525 4666 
L 3525 4397 
L 1831 0 
L 1172 0 
L 2766 4134 
L 525 4134 
L 525 4666 
z
" transform="scale(0.015625)"/>
       </defs>
       <use xlink:href="#DejaVuSans-37"/>
       <use xlink:href="#DejaVuSans-2e" transform="translate(63.623047 0)"/>
       <use xlink:href="#DejaVuSans-35" transform="translate(95.410156 0)"/>
      </g>
     </g>
    </g>
    <g id="xtick_5">
     <g id="line2d_5">
      <g>
       <use xlink:href="#m761e05a301" x="228.86624" y="288.430125" style="stroke: #000000; stroke-width: 0.8"/>
      </g>
     </g>
     <g id="text_5">
      <!-- 10.0 -->
      <g transform="translate(217.733427 303.028562) scale(0.1 -0.1)">
       <defs>
        <path id="DejaVuSans-31" d="M 794 531 
L 1825 531 
L 1825 4091 
L 703 3866 
L 703 4441 
L 1819 4666 
L 2450 4666 
L 2450 531 
L 3481 531 
L 3481 0 
L 794 0 
L 794 531 
z
" transform="scale(0.015625)"/>
       </defs>
       <use xlink:href="#DejaVuSans-31"/>
       <use xlink:href="#DejaVuSans-30" transform="translate(63.623047 0)"/>
       <use xlink:href="#DejaVuSans-2e" transform="translate(127.246094 0)"/>
       <use xlink:href="#DejaVuSans-30" transform="translate(159.033203 0)"/>
      </g>
     </g>
    </g>
    <g id="xtick_6">
     <g id="line2d_6">
      <g>
       <use xlink:href="#m761e05a301" x="269.48868" y="288.430125" style="stroke: #000000; stroke-width: 0.8"/>
      </g>
     </g>
     <g id="text_6">
      <!-- 12.5 -->
      <g transform="translate(258.355868 303.028562) scale(0.1 -0.1)">
       <use xlink:href="#DejaVuSans-31"/>
       <use xlink:href="#DejaVuSans-32" transform="translate(63.623047 0)"/>
       <use xlink:href="#DejaVuSans-2e" transform="translate(127.246094 0)"/>
       <use xlink:href="#DejaVuSans-35" transform="translate(159.033203 0)"/>
      </g>
     </g>
    </g>
    <g id="xtick_7">
     <g id="line2d_7">
      <g>
       <use xlink:href="#m761e05a301" x="310.111121" y="288.430125" style="stroke: #000000; stroke-width: 0.8"/>
      </g>
     </g>
     <g id="text_7">
      <!-- 15.0 -->
      <g transform="translate(298.978309 303.028562) scale(0.1 -0.1)">
       <use xlink:href="#DejaVuSans-31"/>
       <use xlink:href="#DejaVuSans-35" transform="translate(63.623047 0)"/>
       <use xlink:href="#DejaVuSans-2e" transform="translate(127.246094 0)"/>
       <use xlink:href="#DejaVuSans-30" transform="translate(159.033203 0)"/>
      </g>
     </g>
    </g>
    <g id="xtick_8">
     <g id="line2d_8">
      <g>
       <use xlink:href="#m761e05a301" x="350.733562" y="288.430125" style="stroke: #000000; stroke-width: 0.8"/>
      </g>
     </g>
     <g id="text_8">
      <!-- 17.5 -->
      <g transform="translate(339.600749 303.028562) scale(0.1 -0.1)">
       <use xlink:href="#DejaVuSans-31"/>
       <use xlink:href="#DejaVuSans-37" transform="translate(63.623047 0)"/>
       <use xlink:href="#DejaVuSans-2e" transform="translate(127.246094 0)"/>
       <use xlink:href="#DejaVuSans-35" transform="translate(159.033203 0)"/>
      </g>
     </g>
    </g>
    <g id="xtick_9">
     <g id="line2d_9">
      <g>
       <use xlink:href="#m761e05a301" x="391.356002" y="288.430125" style="stroke: #000000; stroke-width: 0.8"/>
      </g>
     </g>
     <g id="text_9">
      <!-- 20.0 -->
      <g transform="translate(380.22319 303.028562) scale(0.1 -0.1)">
       <use xlink:href="#DejaVuSans-32"/>
       <use xlink:href="#DejaVuSans-30" transform="translate(63.623047 0)"/>
       <use xlink:href="#DejaVuSans-2e" transform="translate(127.246094 0)"/>
       <use xlink:href="#DejaVuSans-30" transform="translate(159.033203 0)"/>
      </g>
     </g>
    </g>
    <g id="text_10">
     <!-- time (MD units) -->
     <g transform="translate(189.8725 316.706687) scale(0.1 -0.1)">
      <defs>
       <path id="DejaVuSans-74" d="M 1172 4494 
L 1172 3500 
L 2356 3500 
L 2356 3053 
L 1172 3053 
L 1172 1153 
Q 1172 725 1289 603 
Q 1406 481 1766 481 
L 2356 481 
L 2356 0 
L 1766 0 
Q 1100 0 847 248 
Q 594 497 594 1153 
L 594 3053 
L 172 3053 
L 172 3500 
L 594 3500 
L 594 4494 
L 1172 4494 
z
" transform="scale(0.015625)"/>
       <path id="DejaVuSans-69" d="M 603 3500 
L 1178 3500 
L 1178 0 
L 603 0 
L 603 3500 
z
M 603 4863 
L 1178 4863 
L 1178 4134 
L 603 4134 
L 603 4863 
z
" transform="scale(0.015625)"/>
       <path id="DejaVuSans-6d" d="M 3328 2828 
Q 3544 3216 3844 3400 
Q 4144 3584 4550 3584 
Q 5097 3584 5394 3201 
Q 5691 2819 5691 2113 
L 5691 0 
L 5113 0 
L 5113 2094 
Q 5113 2597 4934 2840 
Q 4756 3084 4391 3084 
Q 3944 3084 3684 2787 
Q 3425 2491 3425 1978 
L 3425 0 
L 2847 0 
L 2847 2094 
Q 2847 2600 2669 2842 
Q 2491 3084 2119 3084 
Q 1678 3084 1418 2786 
Q 1159 2488 1159 1978 
L 1159 0 
L 581 0 
L 581 3500 
L 1159 3500 
L 1159 2956 
Q 1356 3278 1631 3431 
Q 1906 3584 2284 3584 
Q 2666 3584 2933 3390 
Q 3200 3197 3328 2828 
z
" transform="scale(0.015625)"/>
       <path id="DejaVuSans-65" d="M 3597 1894 
L 3597 1613 
L 953 1613 
Q 991 1019 1311 708 
Q 1631 397 2203 397 
Q 2534 397 2845 478 
Q 3156 559 3463 722 
L 3463 178 
Q 3153 47 2828 -22 
Q 2503 -91 2169 -91 
Q 1331 -91 842 396 
Q 353 884 353 1716 
Q 353 2575 817 3079 
Q 1281 3584 2069 3584 
Q 2775 3584 3186 3129 
Q 3597 2675 3597 1894 
z
M 3022 2063 
Q 3016 2534 2758 2815 
Q 2500 3097 2075 3097 
Q 1594 3097 1305 2825 
Q 1016 2553 972 2059 
L 3022 2063 
z
" transform="scale(0.015625)"/>
       <path id="DejaVuSans-20" transform="scale(0.015625)"/>
       <path id="DejaVuSans-28" d="M 1984 4856 
Q 1566 4138 1362 3434 
Q 1159 2731 1159 2009 
Q 1159 1288 1364 580 
Q 1569 -128 1984 -844 
L 1484 -844 
Q 1016 -109 783 600 
Q 550 1309 550 2009 
Q 550 2706 781 3412 
Q 1013 4119 1484 4856 
L 1984 4856 
z
" transform="scale(0.015625)"/>
       <path id="DejaVuSans-4d" d="M 628 4666 
L 1569 4666 
L 2759 1491 
L 3956 4666 
L 4897 4666 
L 4897 0 
L 4281 0 
L 4281 4097 
L 3078 897 
L 2444 897 
L 1241 4097 
L 1241 0 
L 628 0 
L 628 4666 
z
" transform="scale(0.015625)"/>
       <path id="DejaVuSans-44" d="M 1259 4147 
L 1259 519 
L 2022 519 
Q 2988 519 3436 956 
Q 3884 1394 3884 2338 
Q 3884 3275 3436 3711 
Q 2988 4147 2022 4147 
L 1259 4147 
z
M 628 4666 
L 1925 4666 
Q 3281 4666 3915 4102 
Q 4550 3538 4550 2338 
Q 4550 1131 3912 565 
Q 3275 0 1925 0 
L 628 0 
L 628 4666 
z
" transform="scale(0.015625)"/>
       <path id="DejaVuSans-75" d="M 544 1381 
L 544 3500 
L 1119 3500 
L 1119 1403 
Q 1119 906 1312 657 
Q 1506 409 1894 409 
Q 2359 409 2629 706 
Q 2900 1003 2900 1516 
L 2900 3500 
L 3475 3500 
L 3475 0 
L 2900 0 
L 2900 538 
Q 2691 219 2414 64 
Q 2138 -91 1772 -91 
Q 1169 -91 856 284 
Q 544 659 544 1381 
z
M 1991 3584 
L 1991 3584 
z
" transform="scale(0.015625)"/>
       <path id="DejaVuSans-6e" d="M 3513 2113 
L 3513 0 
L 2938 0 
L 2938 2094 
Q 2938 2591 2744 2837 
Q 2550 3084 2163 3084 
Q 1697 3084 1428 2787 
Q 1159 2491 1159 1978 
L 1159 0 
L 581 0 
L 581 3500 
L 1159 3500 
L 1159 2956 
Q 1366 3272 1645 3428 
Q 1925 3584 2291 3584 
Q 2894 3584 3203 3211 
Q 3513 2838 3513 2113 
z
" transform="scale(0.015625)"/>
       <path id="DejaVuSans-73" d="M 2834 3397 
L 2834 2853 
Q 2591 2978 2328 3040 
Q 2066 3103 1784 3103 
Q 1356 3103 1142 2972 
Q 928 2841 928 2578 
Q 928 2378 1081 2264 
Q 1234 2150 1697 2047 
L 1894 2003 
Q 2506 1872 2764 1633 
Q 3022 1394 3022 966 
Q 3022 478 2636 193 
Q 2250 -91 1575 -91 
Q 1294 -91 989 -36 
Q 684 19 347 128 
L 347 722 
Q 666 556 975 473 
Q 1284 391 1588 391 
Q 1994 391 2212 530 
Q 2431 669 2431 922 
Q 2431 1156 2273 1281 
Q 2116 1406 1581 1522 
L 1381 1569 
Q 847 1681 609 1914 
Q 372 2147 372 2553 
Q 372 3047 722 3315 
Q 1072 3584 1716 3584 
Q 2034 3584 2315 3537 
Q 2597 3491 2834 3397 
z
" transform="scale(0.015625)"/>
       <path id="DejaVuSans-29" d="M 513 4856 
L 1013 4856 
Q 1481 4119 1714 3412 
Q 1947 2706 1947 2009 
Q 1947 1309 1714 600 
Q 1481 -109 1013 -844 
L 513 -844 
Q 928 -128 1133 580 
Q 1338 1288 1338 2009 
Q 1338 2731 1133 3434 
Q 928 4138 513 4856 
z
" transform="scale(0.015625)"/>
      </defs>
      <use xlink:href="#DejaVuSans-74"/>
      <use xlink:href="#DejaVuSans-69" transform="translate(39.208984 0)"/>
      <use xlink:href="#DejaVuSans-6d" transform="translate(66.992188 0)"/>
      <use xlink:href="#DejaVuSans-65" transform="translate(164.404297 0)"/>
      <use xlink:href="#DejaVuSans-20" transform="translate(225.927734 0)"/>
      <use xlink:href="#DejaVuSans-28" transform="translate(257.714844 0)"/>
      <use xlink:href="#DejaVuSans-4d" transform="translate(296.728516 0)"/>
      <use xlink:href="#DejaVuSans-44" transform="translate(383.007812 0)"/>
      <use xlink:href="#DejaVuSans-20" transform="translate(460.009766 0)"/>
      <use xlink:href="#DejaVuSans-75" transform="translate(491.796875 0)"/>
      <use xlink:href="#DejaVuSans-6e" transform="translate(555.175781 0)"/>
      <use xlink:href="#DejaVuSans-69" transform="translate(618.554688 0)"/>
      <use xlink:href="#DejaVuSans-74" transform="translate(646.337891 0)"/>
      <use xlink:href="#DejaVuSans-73" transform="translate(685.546875 0)"/>
      <use xlink:href="#DejaVuSans-29" transform="translate(737.646484 0)"/>
     </g>
    </g>
   </g>
   <g id="matplotlib.axis_2">
    <g id="ytick_1">
     <g id="line2d_10">
      <defs>
       <path id="m4fe8156c54" d="M 0 0 
L -3.5 0 
" style="stroke: #000000; stroke-width: 0.8"/>
      </defs>
      <g>
       <use xlink:href="#m4fe8156c54" x="50.14375" y="266.815472" style="stroke: #000000; stroke-width: 0.8"/>
      </g>
     </g>
     <g id="text_11">
      <!-- 0.26 -->
      <g transform="translate(20.878125 270.614691) scale(0.1 -0.1)">
       <defs>
        <path id="DejaVuSans-36" d="M 2113 2584 
Q 1688 2584 1439 2293 
Q 1191 2003 1191 1497 
Q 1191 994 1439 701 
Q 1688 409 2113 409 
Q 2538 409 2786 701 
Q 3034 994 3034 1497 
Q 3034 2003 2786 2293 
Q 2538 2584 2113 2584 
z
M 3366 4563 
L 3366 3988 
Q 3128 4100 2886 4159 
Q 2644 4219 2406 4219 
Q 1781 4219 1451 3797 
Q 1122 3375 1075 2522 
Q 1259 2794 1537 2939 
Q 1816 3084 2150 3084 
Q 2853 3084 3261 2657 
Q 3669 2231 3669 1497 
Q 3669 778 3244 343 
Q 2819 -91 2113 -91 
Q 1303 -91 875 529 
Q 447 1150 447 2328 
Q 447 3434 972 4092 
Q 1497 4750 2381 4750 
Q 2619 4750 2861 4703 
Q 3103 4656 3366 4563 
z
" transform="scale(0.015625)"/>
       </defs>
       <use xlink:href="#DejaVuSans-30"/>
       <use xlink:href="#DejaVuSans-2e" transform="translate(63.623047 0)"/>
       <use xlink:href="#DejaVuSans-32" transform="translate(95.410156 0)"/>
       <use xlink:href="#DejaVuSans-36" transform="translate(159.033203 0)"/>
      </g>
     </g>
    </g>
    <g id="ytick_2">
     <g id="line2d_11">
      <g>
       <use xlink:href="#m4fe8156c54" x="50.14375" y="231.797078" style="stroke: #000000; stroke-width: 0.8"/>
      </g>
     </g>
     <g id="text_12">
      <!-- 0.28 -->
      <g transform="translate(20.878125 235.596297) scale(0.1 -0.1)">
       <defs>
        <path id="DejaVuSans-38" d="M 2034 2216 
Q 1584 2216 1326 1975 
Q 1069 1734 1069 1313 
Q 1069 891 1326 650 
Q 1584 409 2034 409 
Q 2484 409 2743 651 
Q 3003 894 3003 1313 
Q 3003 1734 2745 1975 
Q 2488 2216 2034 2216 
z
M 1403 2484 
Q 997 2584 770 2862 
Q 544 3141 544 3541 
Q 544 4100 942 4425 
Q 1341 4750 2034 4750 
Q 2731 4750 3128 4425 
Q 3525 4100 3525 3541 
Q 3525 3141 3298 2862 
Q 3072 2584 2669 2484 
Q 3125 2378 3379 2068 
Q 3634 1759 3634 1313 
Q 3634 634 3220 271 
Q 2806 -91 2034 -91 
Q 1263 -91 848 271 
Q 434 634 434 1313 
Q 434 1759 690 2068 
Q 947 2378 1403 2484 
z
M 1172 3481 
Q 1172 3119 1398 2916 
Q 1625 2713 2034 2713 
Q 2441 2713 2670 2916 
Q 2900 3119 2900 3481 
Q 2900 3844 2670 4047 
Q 2441 4250 2034 4250 
Q 1625 4250 1398 4047 
Q 1172 3844 1172 3481 
z
" transform="scale(0.015625)"/>
       </defs>
       <use xlink:href="#DejaVuSans-30"/>
       <use xlink:href="#DejaVuSans-2e" transform="translate(63.623047 0)"/>
       <use xlink:href="#DejaVuSans-32" transform="translate(95.410156 0)"/>
       <use xlink:href="#DejaVuSans-38" transform="translate(159.033203 0)"/>
      </g>
     </g>
    </g>
    <g id="ytick_3">
     <g id="line2d_12">
      <g>
       <use xlink:href="#m4fe8156c54" x="50.14375" y="196.778684" style="stroke: #000000; stroke-width: 0.8"/>
      </g>
     </g>
     <g id="text_13">
      <!-- 0.30 -->
      <g transform="translate(20.878125 200.577903) scale(0.1 -0.1)">
       <defs>
        <path id="DejaVuSans-33" d="M 2597 2516 
Q 3050 2419 3304 2112 
Q 3559 1806 3559 1356 
Q 3559 666 3084 287 
Q 2609 -91 1734 -91 
Q 1441 -91 1130 -33 
Q 819 25 488 141 
L 488 750 
Q 750 597 1062 519 
Q 1375 441 1716 441 
Q 2309 441 2620 675 
Q 2931 909 2931 1356 
Q 2931 1769 2642 2001 
Q 2353 2234 1838 2234 
L 1294 2234 
L 1294 2753 
L 1863 2753 
Q 2328 2753 2575 2939 
Q 2822 3125 2822 3475 
Q 2822 3834 2567 4026 
Q 2313 4219 1838 4219 
Q 1578 4219 1281 4162 
Q 984 4106 628 3988 
L 628 4550 
Q 988 4650 1302 4700 
Q 1616 4750 1894 4750 
Q 2613 4750 3031 4423 
Q 3450 4097 3450 3541 
Q 3450 3153 3228 2886 
Q 3006 2619 2597 2516 
z
" transform="scale(0.015625)"/>
       </defs>
       <use xlink:href="#DejaVuSans-30"/>
       <use xlink:href="#DejaVuSans-2e" transform="translate(63.623047 0)"/>
       <use xlink:href="#DejaVuSans-33" transform="translate(95.410156 0)"/>
       <use xlink:href="#DejaVuSans-30" transform="translate(159.033203 0)"/>
      </g>
     </g>
    </g>
    <g id="ytick_4">
     <g id="line2d_13">
      <g>
       <use xlink:href="#m4fe8156c54" x="50.14375" y="161.76029" style="stroke: #000000; stroke-width: 0.8"/>
      </g>
     </g>
     <g id="text_14">
      <!-- 0.32 -->
      <g transform="translate(20.878125 165.559509) scale(0.1 -0.1)">
       <use xlink:href="#DejaVuSans-30"/>
       <use xlink:href="#DejaVuSans-2e" transform="translate(63.623047 0)"/>
       <use xlink:href="#DejaVuSans-33" transform="translate(95.410156 0)"/>
       <use xlink:href="#DejaVuSans-32" transform="translate(159.033203 0)"/>
      </g>
     </g>
    </g>
    <g id="ytick_5">
     <g id="line2d_14">
      <g>
       <use xlink:href="#m4fe8156c54" x="50.14375" y="126.741896" style="stroke: #000000; stroke-width: 0.8"/>
      </g>
     </g>
     <g id="text_15">
      <!-- 0.34 -->
      <g transform="translate(20.878125 130.541115) scale(0.1 -0.1)">
       <defs>
        <path id="DejaVuSans-34" d="M 2419 4116 
L 825 1625 
L 2419 1625 
L 2419 4116 
z
M 2253 4666 
L 3047 4666 
L 3047 1625 
L 3713 1625 
L 3713 1100 
L 3047 1100 
L 3047 0 
L 2419 0 
L 2419 1100 
L 313 1100 
L 313 1709 
L 2253 4666 
z
" transform="scale(0.015625)"/>
       </defs>
       <use xlink:href="#DejaVuSans-30"/>
       <use xlink:href="#DejaVuSans-2e" transform="translate(63.623047 0)"/>
       <use xlink:href="#DejaVuSans-33" transform="translate(95.410156 0)"/>
       <use xlink:href="#DejaVuSans-34" transform="translate(159.033203 0)"/>
      </g>
     </g>
    </g>
    <g id="ytick_6">
     <g id="line2d_15">
      <g>
       <use xlink:href="#m4fe8156c54" x="50.14375" y="91.723502" style="stroke: #000000; stroke-width: 0.8"/>
      </g>
     </g>
     <g id="text_16">
      <!-- 0.36 -->
      <g transform="translate(20.878125 95.522721) scale(0.1 -0.1)">
       <use xlink:href="#DejaVuSans-30"/>
       <use xlink:href="#DejaVuSans-2e" transform="translate(63.623047 0)"/>
       <use xlink:href="#DejaVuSans-33" transform="translate(95.410156 0)"/>
       <use xlink:href="#DejaVuSans-36" transform="translate(159.033203 0)"/>
      </g>
     </g>
    </g>
    <g id="ytick_7">
     <g id="line2d_16">
      <g>
       <use xlink:href="#m4fe8156c54" x="50.14375" y="56.705108" style="stroke: #000000; stroke-width: 0.8"/>
      </g>
     </g>
     <g id="text_17">
      <!-- 0.38 -->
      <g transform="translate(20.878125 60.504326) scale(0.1 -0.1)">
       <use xlink:href="#DejaVuSans-30"/>
       <use xlink:href="#DejaVuSans-2e" transform="translate(63.623047 0)"/>
       <use xlink:href="#DejaVuSans-33" transform="translate(95.410156 0)"/>
       <use xlink:href="#DejaVuSans-38" transform="translate(159.033203 0)"/>
      </g>
     </g>
    </g>
    <g id="text_18">
     <!-- Temperature -->
     <g transform="translate(14.798438 187.043656) rotate(-90) scale(0.1 -0.1)">
      <defs>
       <path id="DejaVuSans-54" d="M -19 4666 
L 3928 4666 
L 3928 4134 
L 2272 4134 
L 2272 0 
L 1638 0 
L 1638 4134 
L -19 4134 
L -19 4666 
z
" transform="scale(0.015625)"/>
       <path id="DejaVuSans-70" d="M 1159 525 
L 1159 -1331 
L 581 -1331 
L 581 3500 
L 1159 3500 
L 1159 2969 
Q 1341 3281 1617 3432 
Q 1894 3584 2278 3584 
Q 2916 3584 3314 3078 
Q 3713 2572 3713 1747 
Q 3713 922 3314 415 
Q 2916 -91 2278 -91 
Q 1894 -91 1617 61 
Q 1341 213 1159 525 
z
M 3116 1747 
Q 3116 2381 2855 2742 
Q 2594 3103 2138 3103 
Q 1681 3103 1420 2742 
Q 1159 2381 1159 1747 
Q 1159 1113 1420 752 
Q 1681 391 2138 391 
Q 2594 391 2855 752 
Q 3116 1113 3116 1747 
z
" transform="scale(0.015625)"/>
       <path id="DejaVuSans-72" d="M 2631 2963 
Q 2534 3019 2420 3045 
Q 2306 3072 2169 3072 
Q 1681 3072 1420 2755 
Q 1159 2438 1159 1844 
L 1159 0 
L 581 0 
L 581 3500 
L 1159 3500 
L 1159 2956 
Q 1341 3275 1631 3429 
Q 1922 3584 2338 3584 
Q 2397 3584 2469 3576 
Q 2541 3569 2628 3553 
L 2631 2963 
z
" transform="scale(0.015625)"/>
       <path id="DejaVuSans-61" d="M 2194 1759 
Q 1497 1759 1228 1600 
Q 959 1441 959 1056 
Q 959 750 1161 570 
Q 1363 391 1709 391 
Q 2188 391 2477 730 
Q 2766 1069 2766 1631 
L 2766 1759 
L 2194 1759 
z
M 3341 1997 
L 3341 0 
L 2766 0 
L 2766 531 
Q 2569 213 2275 61 
Q 1981 -91 1556 -91 
Q 1019 -91 701 211 
Q 384 513 384 1019 
Q 384 1609 779 1909 
Q 1175 2209 1959 2209 
L 2766 2209 
L 2766 2266 
Q 2766 2663 2505 2880 
Q 2244 3097 1772 3097 
Q 1472 3097 1187 3025 
Q 903 2953 641 2809 
L 641 3341 
Q 956 3463 1253 3523 
Q 1550 3584 1831 3584 
Q 2591 3584 2966 3190 
Q 3341 2797 3341 1997 
z
" transform="scale(0.015625)"/>
      </defs>
      <use xlink:href="#DejaVuSans-54"/>
      <use xlink:href="#DejaVuSans-65" transform="translate(44.083984 0)"/>
      <use xlink:href="#DejaVuSans-6d" transform="translate(105.607422 0)"/>
      <use xlink:href="#DejaVuSans-70" transform="translate(203.019531 0)"/>
      <use xlink:href="#DejaVuSans-65" transform="translate(266.496094 0)"/>
      <use xlink:href="#DejaVuSans-72" transform="translate(328.019531 0)"/>
      <use xlink:href="#DejaVuSans-61" transform="translate(369.132812 0)"/>
      <use xlink:href="#DejaVuSans-74" transform="translate(430.412109 0)"/>
      <use xlink:href="#DejaVuSans-75" transform="translate(469.621094 0)"/>
      <use xlink:href="#DejaVuSans-72" transform="translate(533 0)"/>
      <use xlink:href="#DejaVuSans-65" transform="translate(571.863281 0)"/>
     </g>
    </g>
   </g>
   <g id="line2d_17">
    <path d="M 66.376477 196.023431 
L 66.701457 182.975545 
L 67.026436 176.509009 
L 67.351416 178.462305 
L 67.676395 157.806508 
L 68.001375 168.513142 
L 68.326354 172.303892 
L 68.651334 182.032575 
L 68.976313 182.822154 
L 69.301293 182.846605 
L 69.626273 167.2644 
L 69.951252 164.573935 
L 70.276232 127.554216 
L 70.601211 125.178984 
L 70.926191 87.927649 
L 71.25117 87.849065 
L 71.57615 88.222634 
L 71.901129 76.594634 
L 72.551088 86.322082 
L 72.876068 81.304034 
L 73.201047 88.679277 
L 73.526027 62.667654 
L 73.851006 65.265072 
L 74.175986 80.848755 
L 74.825945 62.889747 
L 75.150924 63.100741 
L 75.475904 102.332117 
L 75.800883 96.758916 
L 76.125863 86.910423 
L 76.450843 101.540432 
L 76.775822 90.947227 
L 77.100802 73.411227 
L 77.425781 49.207175 
L 77.750761 53.338408 
L 78.40072 103.621184 
L 78.725699 111.530011 
L 79.050679 130.028265 
L 79.375658 128.184714 
L 79.700638 104.555779 
L 80.025617 105.206526 
L 80.350597 90.028603 
L 80.675576 92.026524 
L 81.000556 100.938942 
L 81.325535 63.71181 
L 81.650515 62.92986 
L 81.975494 65.143552 
L 82.300474 51.026047 
L 82.625454 52.66316 
L 82.950433 51.535882 
L 83.275413 44.814046 
L 83.600392 67.036397 
L 83.925372 78.620679 
L 84.250351 74.265572 
L 84.575331 72.733696 
L 84.90031 65.166612 
L 85.22529 68.662161 
L 85.550269 48.579055 
L 85.875249 37.636631 
L 86.200228 49.013021 
L 86.525208 76.578819 
L 86.850187 82.17842 
L 87.500146 39.799003 
L 87.825126 34.414125 
L 88.475085 86.349768 
L 88.800064 96.214256 
L 89.125044 70.891894 
L 89.450024 79.683834 
L 89.775003 54.914952 
L 90.424962 79.863493 
L 90.749942 79.859644 
L 91.074921 67.133665 
L 91.399901 78.054427 
L 91.72488 110.091276 
L 92.04986 125.19127 
L 92.374839 126.755 
L 92.699819 120.382729 
L 93.024798 129.711815 
L 93.349778 148.995091 
L 93.674757 155.026747 
L 93.999737 153.635367 
L 94.324716 139.110498 
L 94.649696 130.916571 
L 94.974675 146.067777 
L 95.299655 124.240283 
L 95.949614 170.665772 
L 96.274594 158.157479 
L 96.599573 156.915962 
L 96.924553 165.595916 
L 97.249532 139.967296 
L 97.574512 147.823818 
L 97.899491 176.452858 
L 98.54945 185.122298 
L 98.87443 140.873724 
L 99.199409 116.978236 
L 99.849368 110.083788 
L 100.174348 135.033725 
L 100.824307 150.310443 
L 101.474266 130.847613 
L 101.799245 146.178412 
L 102.124225 139.745484 
L 102.449205 149.95691 
L 102.774184 155.503796 
L 103.099164 144.828205 
L 103.424143 161.212136 
L 103.749123 161.352157 
L 104.074102 159.149794 
L 104.399082 132.103662 
L 104.724061 150.160558 
L 105.049041 159.908972 
L 105.37402 157.861085 
L 106.023979 88.438091 
L 106.348959 78.126592 
L 106.673938 128.235745 
L 106.998918 125.684019 
L 107.323897 146.962061 
L 107.648877 141.110282 
L 107.973856 147.235747 
L 108.298836 158.1474 
L 108.623816 155.634831 
L 108.948795 143.745431 
L 109.273775 118.008692 
L 109.598754 114.425967 
L 109.923734 107.197707 
L 110.248713 124.844143 
L 110.573693 122.865467 
L 110.898672 128.642535 
L 111.223652 155.465516 
L 111.873611 77.347296 
L 112.19859 82.559645 
L 112.848549 174.059536 
L 113.173529 200.690686 
L 113.498508 212.676414 
L 114.148467 194.14912 
L 115.123406 153.242493 
L 115.448386 159.860688 
L 115.773365 155.042382 
L 116.098345 160.403441 
L 116.423324 148.827137 
L 117.073283 138.062499 
L 117.398263 130.579334 
L 117.723242 133.374528 
L 118.048222 130.018796 
L 119.02316 183.138636 
L 119.34814 169.034528 
L 119.673119 146.401121 
L 120.323078 166.768244 
L 120.648058 186.262679 
L 120.973037 188.907432 
L 121.298017 189.164301 
L 121.622997 175.633476 
L 121.947976 168.015215 
L 122.272956 166.058437 
L 122.597935 180.173381 
L 122.922915 189.376899 
L 123.247894 180.167263 
L 123.572874 184.168163 
L 124.547812 120.750783 
L 124.872792 122.941201 
L 125.197771 118.455955 
L 125.522751 133.907706 
L 125.84773 163.870923 
L 126.17271 164.932098 
L 126.497689 193.137115 
L 126.822669 231.105591 
L 127.147648 232.075536 
L 127.472628 202.093197 
L 127.797607 155.130564 
L 128.447567 133.263044 
L 128.772546 150.446061 
L 129.097526 175.451452 
L 129.422505 189.96282 
L 130.072464 183.976771 
L 130.397444 170.855093 
L 130.722423 149.4917 
L 131.047403 137.794104 
L 131.697362 171.467017 
L 132.022341 170.204895 
L 132.347321 134.282446 
L 132.6723 123.888354 
L 132.99728 130.919355 
L 133.322259 147.554375 
L 133.647239 144.456599 
L 134.622178 208.921229 
L 134.947157 215.487285 
L 135.272137 198.525883 
L 135.597116 191.110178 
L 136.247075 153.345006 
L 136.572055 174.715337 
L 137.222014 181.812838 
L 137.546993 164.456929 
L 137.871973 168.259054 
L 138.846911 188.754877 
L 139.171891 186.068908 
L 139.49687 206.0668 
L 139.82185 202.045354 
L 140.146829 186.290758 
L 140.471809 179.340757 
L 140.796788 199.163964 
L 141.121768 170.449114 
L 141.446748 172.442414 
L 141.771727 164.449628 
L 142.096707 166.833461 
L 142.421686 180.438343 
L 142.746666 188.937981 
L 143.071645 208.813118 
L 143.396625 209.88045 
L 143.721604 209.447826 
L 144.046584 198.077018 
L 144.371563 177.350006 
L 144.696543 176.284253 
L 145.021522 192.936166 
L 145.346502 183.492618 
L 145.671481 189.203959 
L 145.996461 198.483409 
L 146.32144 194.460955 
L 146.64642 169.746004 
L 146.971399 164.644053 
L 147.296379 178.213742 
L 147.621359 184.679733 
L 147.946338 156.81164 
L 148.271318 143.927538 
L 148.596297 143.521465 
L 149.246256 168.165717 
L 149.571236 171.433148 
L 149.896215 156.312744 
L 150.546174 202.910723 
L 150.871154 223.230696 
L 151.846092 261.643293 
L 152.171072 276.334125 
L 152.496051 268.319831 
L 152.821031 267.007373 
L 153.14601 227.914493 
L 153.795969 218.388523 
L 154.120949 238.635179 
L 154.445929 241.084974 
L 154.770908 191.333192 
L 155.420867 205.794068 
L 155.745847 208.018591 
L 156.070826 212.45279 
L 156.395806 205.457146 
L 156.720785 211.556102 
L 157.045765 248.814539 
L 157.370744 238.505109 
L 157.695724 216.15997 
L 158.020703 204.356275 
L 158.345683 200.074683 
L 158.670662 197.882056 
L 158.995642 201.088089 
L 159.320621 183.449545 
L 159.645601 181.52954 
L 159.97058 153.936484 
L 160.29556 140.903575 
L 160.62054 153.73671 
L 160.945519 180.739139 
L 161.270499 195.342291 
L 161.595478 198.181807 
L 162.245437 148.104451 
L 162.570417 165.933399 
L 162.895396 161.656343 
L 163.220376 161.552269 
L 163.545355 167.142015 
L 163.870335 152.802215 
L 164.195314 166.344309 
L 164.520294 156.152475 
L 164.845273 155.319724 
L 165.170253 181.558131 
L 165.495232 180.005035 
L 165.820212 186.664887 
L 166.145191 176.06166 
L 166.470171 177.589813 
L 167.12013 153.078232 
L 167.44511 153.51756 
L 168.095069 170.855437 
L 168.420048 173.785718 
L 168.745028 173.965871 
L 169.070007 168.442444 
L 170.044946 193.295862 
L 170.369925 189.347007 
L 170.694905 201.451987 
L 171.019884 203.20612 
L 171.344864 215.964469 
L 171.669843 192.009565 
L 171.994823 188.971383 
L 172.319802 179.272907 
L 172.644782 182.839169 
L 172.969761 184.888681 
L 173.294741 206.162621 
L 173.619721 188.97864 
L 173.9447 193.142531 
L 174.26968 187.588918 
L 174.594659 193.041824 
L 174.919639 204.209961 
L 175.244618 206.904465 
L 175.569598 212.837123 
L 175.894577 215.705928 
L 176.219557 225.450874 
L 176.544536 224.179708 
L 176.869516 224.376518 
L 177.194495 231.986908 
L 177.519475 223.668681 
L 177.844454 231.616443 
L 178.169434 243.884902 
L 178.494413 239.074655 
L 178.819393 248.7848 
L 179.144372 227.915255 
L 179.469352 221.098097 
L 179.794331 217.234764 
L 180.119311 223.591578 
L 180.444291 177.057531 
L 180.76927 169.400316 
L 181.09425 169.923231 
L 181.419229 165.26656 
L 181.744209 188.090317 
L 182.069188 201.84433 
L 182.394168 199.35881 
L 182.719147 179.816074 
L 183.044127 151.110181 
L 183.369106 138.04651 
L 183.694086 142.208607 
L 184.019065 117.618164 
L 184.344045 123.914765 
L 184.669024 167.34427 
L 184.994004 170.743338 
L 185.318983 186.974599 
L 185.643963 215.618756 
L 186.293922 223.83466 
L 186.618902 211.781661 
L 187.268861 203.511849 
L 187.59384 204.85505 
L 187.91882 189.137308 
L 188.243799 185.956413 
L 188.568779 205.62718 
L 188.893758 212.933997 
L 189.218738 208.092952 
L 189.543717 194.107244 
L 189.868697 207.16689 
L 190.193676 197.748223 
L 190.518656 197.845109 
L 190.843635 209.855081 
L 191.168615 215.636538 
L 191.493594 219.017718 
L 191.818574 211.012531 
L 192.143553 174.896301 
L 192.468533 177.027968 
L 192.793512 196.461378 
L 193.118492 196.748172 
L 193.443472 194.619011 
L 193.768451 203.21215 
L 194.093431 200.357434 
L 194.41841 233.231157 
L 194.74339 215.669279 
L 195.068369 171.040474 
L 195.393349 190.27663 
L 195.718328 198.377516 
L 196.043308 198.332501 
L 196.368287 167.846179 
L 196.693267 176.089739 
L 197.018246 175.001411 
L 197.343226 169.202698 
L 197.668205 170.454463 
L 197.993185 175.746805 
L 198.318164 171.203004 
L 198.643144 150.081967 
L 198.968123 170.78464 
L 199.293103 179.622309 
L 199.618083 171.312772 
L 199.943062 169.857422 
L 200.268042 163.794694 
L 200.593021 154.205181 
L 200.918001 175.739355 
L 201.24298 183.575866 
L 201.56796 206.335073 
L 201.892939 204.992291 
L 202.542898 153.541034 
L 202.867878 154.063162 
L 203.192857 163.780108 
L 203.842816 240.001407 
L 204.167796 235.186395 
L 204.492775 216.626316 
L 204.817755 207.416288 
L 205.142734 194.20751 
L 206.117673 173.279635 
L 206.442653 187.745465 
L 206.767632 191.87666 
L 207.092612 171.635838 
L 207.417591 194.669682 
L 207.742571 174.433165 
L 208.06755 175.281165 
L 208.39253 190.321443 
L 208.717509 222.580546 
L 209.042489 217.868891 
L 209.692448 172.810391 
L 210.017427 172.649134 
L 210.667386 157.963756 
L 210.992366 161.410454 
L 211.317345 156.598559 
L 211.642325 167.06796 
L 211.967304 185.397976 
L 212.292284 169.151915 
L 212.617264 174.294236 
L 212.942243 161.179694 
L 213.267223 167.483744 
L 213.592202 179.462244 
L 213.917182 207.147986 
L 214.567141 242.492777 
L 214.89212 236.268914 
L 215.2171 203.713111 
L 215.542079 201.280222 
L 215.867059 212.161137 
L 216.192038 216.77881 
L 216.517018 212.796287 
L 216.841997 212.775112 
L 217.166977 191.327369 
L 217.491956 190.285239 
L 218.141915 246.881824 
L 218.466895 229.279957 
L 218.791874 236.618583 
L 219.116854 228.186581 
L 219.441834 210.111243 
L 219.766813 204.498942 
L 220.091793 208.309596 
L 220.416772 203.973485 
L 220.741752 180.832086 
L 221.066731 190.525039 
L 221.391711 220.109208 
L 221.71669 225.214065 
L 222.691629 186.689552 
L 223.341588 232.056207 
L 223.666567 230.327015 
L 223.991547 241.826421 
L 224.316526 223.975021 
L 224.641506 213.498577 
L 224.966485 220.768818 
L 225.616445 195.058286 
L 225.941424 162.36604 
L 226.266404 173.995137 
L 226.591383 164.805606 
L 226.916363 196.285668 
L 227.241342 211.674565 
L 227.891301 157.51848 
L 228.216281 153.316177 
L 228.54126 145.007239 
L 228.86624 174.560525 
L 229.191219 177.737015 
L 229.516199 146.070508 
L 229.841178 149.796612 
L 230.166158 177.474836 
L 230.491137 190.487522 
L 230.816117 210.758118 
L 231.141096 213.058352 
L 231.466076 213.322817 
L 231.791055 185.258962 
L 232.116035 183.389869 
L 232.441015 191.620272 
L 233.090974 167.026449 
L 233.415953 178.412994 
L 233.740933 203.58483 
L 234.065912 211.015119 
L 234.390892 207.69559 
L 234.715871 190.819442 
L 235.040851 204.031123 
L 235.36583 207.581479 
L 236.015789 197.942793 
L 236.340769 195.88614 
L 236.665748 210.094343 
L 237.315707 171.574311 
L 237.965666 154.121006 
L 238.290646 164.879494 
L 238.615626 154.631368 
L 238.940605 162.086632 
L 239.265585 174.744118 
L 239.590564 177.994498 
L 239.915544 171.43512 
L 240.240523 153.611519 
L 240.565503 165.075399 
L 240.890482 197.659891 
L 241.540441 159.743239 
L 241.865421 154.590064 
L 242.1904 143.803308 
L 242.51538 167.307921 
L 242.840359 174.834651 
L 243.165339 174.419468 
L 243.490318 174.66488 
L 243.815298 215.031534 
L 244.140277 222.382378 
L 244.465257 212.211927 
L 244.790236 195.955532 
L 245.115216 196.638053 
L 245.440196 201.522198 
L 245.765175 213.12258 
L 246.090155 229.030453 
L 246.415134 204.505877 
L 247.065093 184.639638 
L 247.390073 154.958002 
L 247.715052 156.222153 
L 248.040032 181.180907 
L 248.365011 193.134953 
L 248.689991 212.478195 
L 249.33995 176.05425 
L 249.664929 169.023846 
L 249.989909 159.006163 
L 250.314888 153.69341 
L 250.639868 189.506583 
L 250.964847 204.851429 
L 251.289827 198.669954 
L 251.614807 186.779734 
L 251.939786 179.06717 
L 252.264766 179.931503 
L 252.589745 187.382863 
L 252.914725 181.407933 
L 253.239704 182.77116 
L 253.564684 169.084375 
L 253.889663 183.882499 
L 254.214643 178.438963 
L 254.864602 216.698954 
L 255.189581 224.090966 
L 255.514561 182.651414 
L 255.83954 182.116496 
L 256.16452 179.215404 
L 256.489499 187.701275 
L 256.814479 210.291227 
L 257.139458 211.321371 
L 257.464438 201.793212 
L 257.789417 172.746399 
L 258.114397 175.045707 
L 258.439377 160.848811 
L 258.764356 155.34775 
L 259.089336 162.70946 
L 259.414315 163.586254 
L 259.739295 173.48231 
L 260.064274 196.662209 
L 260.389254 238.656342 
L 260.714233 249.923964 
L 261.364192 186.535782 
L 261.689172 203.48102 
L 262.339131 212.889604 
L 262.66411 224.503487 
L 262.98909 204.742957 
L 263.314069 197.130144 
L 263.639049 204.973755 
L 264.289008 228.448187 
L 264.613988 215.943081 
L 264.938967 233.445972 
L 265.263947 220.721483 
L 265.588926 218.127572 
L 265.913906 207.444187 
L 266.238885 178.5054 
L 266.563865 190.222837 
L 266.888844 192.971616 
L 267.213824 213.255367 
L 267.538803 241.692439 
L 267.863783 240.686321 
L 268.188762 225.434955 
L 268.513742 225.717867 
L 268.838721 221.156711 
L 269.163701 201.874394 
L 269.48868 205.763669 
L 269.81366 213.774978 
L 270.138639 209.760905 
L 270.463619 199.238308 
L 270.788598 172.598856 
L 271.113578 177.81586 
L 271.438558 178.661203 
L 271.763537 172.061868 
L 272.088517 167.871769 
L 272.413496 149.550905 
L 272.738476 162.960347 
L 273.063455 196.418349 
L 273.388435 198.100004 
L 273.713414 188.514237 
L 274.038394 211.562709 
L 274.363373 223.169666 
L 274.688353 197.289394 
L 275.013332 188.16086 
L 275.338312 153.825176 
L 275.663291 155.042702 
L 275.988271 169.664146 
L 276.31325 156.3548 
L 276.63823 160.493015 
L 276.963209 176.820439 
L 277.288189 161.124155 
L 277.613169 166.24878 
L 277.938148 212.487624 
L 278.263128 181.030665 
L 278.588107 184.716065 
L 278.913087 193.342224 
L 279.888025 229.390461 
L 280.537984 238.34443 
L 280.862964 193.263462 
L 281.187943 178.78152 
L 281.512923 179.627928 
L 281.837902 188.268704 
L 282.162882 191.393957 
L 282.487861 183.210743 
L 282.812841 158.088242 
L 283.13782 149.746949 
L 283.4628 189.834563 
L 283.787779 190.697133 
L 284.112759 181.104262 
L 284.437739 211.953129 
L 284.762718 202.271075 
L 285.412677 162.774853 
L 286.062636 152.362654 
L 286.387616 150.00129 
L 287.037575 185.503429 
L 287.362554 197.289383 
L 287.687534 220.044711 
L 288.012513 228.965733 
L 288.987452 184.106474 
L 289.637411 221.636739 
L 290.28737 181.735329 
L 290.61235 187.025793 
L 290.937329 185.644878 
L 291.262309 181.404101 
L 291.587288 175.145738 
L 292.237247 185.065147 
L 292.562227 174.962308 
L 292.887206 142.259961 
L 293.212186 136.630603 
L 293.862145 195.5256 
L 294.187124 196.057632 
L 294.512104 183.736166 
L 294.837083 175.667882 
L 295.162063 183.321443 
L 295.812022 202.593742 
L 296.137001 181.674801 
L 296.461981 178.462924 
L 296.78696 179.584382 
L 297.11194 165.344652 
L 297.761899 214.738108 
L 298.086879 217.93624 
L 298.411858 203.880345 
L 298.736838 199.395138 
L 299.061817 212.489763 
L 299.386797 233.197447 
L 299.711776 223.134021 
L 300.036756 196.306275 
L 300.361735 187.687082 
L 300.686715 165.895317 
L 301.011694 184.865626 
L 301.986633 207.076533 
L 302.311612 207.628708 
L 302.961571 174.165513 
L 303.286551 185.876961 
L 303.611531 188.097602 
L 303.93651 196.576526 
L 304.26149 197.178937 
L 304.586469 182.214177 
L 305.236428 231.951406 
L 305.561408 234.479408 
L 305.886387 199.709516 
L 306.211367 201.927178 
L 306.536346 203.268422 
L 306.861326 217.82956 
L 307.186305 243.479461 
L 307.511285 256.467848 
L 307.836264 253.287921 
L 308.161244 243.209449 
L 308.486223 229.394784 
L 308.811203 228.305014 
L 309.136182 242.410809 
L 309.461162 227.680177 
L 309.786141 224.759157 
L 310.111121 226.803641 
L 310.436101 238.027545 
L 310.76108 265.530464 
L 311.08606 250.767395 
L 311.411039 242.470148 
L 311.736019 218.557365 
L 312.060998 213.734398 
L 312.385978 217.57207 
L 312.710957 188.840894 
L 313.035937 218.515613 
L 313.360916 221.168694 
L 313.685896 222.070482 
L 314.010875 219.449549 
L 314.660834 176.829357 
L 314.985814 180.572049 
L 315.310793 202.801723 
L 315.635773 212.329767 
L 316.285732 188.381784 
L 316.610712 168.852338 
L 316.935691 138.233695 
L 317.260671 146.572239 
L 317.58565 135.157419 
L 317.91063 157.006368 
L 318.235609 155.851456 
L 319.210548 164.169055 
L 319.535527 149.297876 
L 319.860507 167.387697 
L 320.185486 174.397141 
L 320.510466 184.300516 
L 320.835445 186.060226 
L 321.160425 185.832134 
L 321.810384 157.506277 
L 322.135363 158.803265 
L 322.460343 174.399569 
L 322.785322 205.668821 
L 323.110302 217.218701 
L 323.435282 207.506584 
L 323.760261 183.667226 
L 324.085241 178.103196 
L 324.7352 211.838601 
L 325.385159 190.116491 
L 325.710138 190.052457 
L 326.035118 192.87909 
L 326.360097 222.957842 
L 326.685077 229.019579 
L 327.010056 224.459938 
L 327.335036 247.569144 
L 327.660015 250.493596 
L 327.984995 244.371899 
L 328.309974 248.693231 
L 328.634954 255.611201 
L 329.284913 189.041728 
L 329.609893 176.219645 
L 329.934872 189.779328 
L 330.259852 223.304901 
L 330.584831 234.545647 
L 331.23479 210.224885 
L 331.55977 216.792287 
L 331.884749 240.482114 
L 332.209729 228.870793 
L 332.534708 239.24771 
L 332.859688 239.499932 
L 333.184667 234.570091 
L 333.834626 214.738151 
L 334.159606 209.427425 
L 334.484585 214.783255 
L 334.809565 244.770445 
L 335.134544 225.434587 
L 335.459524 199.189305 
L 336.109483 217.59265 
L 336.759442 249.363374 
L 337.084422 236.581597 
L 337.409401 237.012392 
L 337.734381 209.204567 
L 338.05936 202.17686 
L 338.38434 189.464376 
L 338.709319 200.207277 
L 339.034299 227.037329 
L 339.359278 233.86527 
L 339.684258 215.921201 
L 340.009237 206.647756 
L 340.334217 185.308399 
L 340.984176 236.44475 
L 341.309155 216.591981 
L 341.634135 211.525378 
L 341.959114 198.94146 
L 342.284094 205.414413 
L 342.934053 239.673688 
L 343.259033 230.634712 
L 343.584012 203.217606 
L 343.908992 207.582519 
L 344.233971 208.90042 
L 344.558951 204.880537 
L 344.88393 184.890294 
L 345.858869 245.873985 
L 346.183848 220.406028 
L 346.508828 206.060914 
L 346.833807 185.375305 
L 347.158787 184.806569 
L 347.483766 179.748619 
L 347.808746 186.874213 
L 348.133725 200.294143 
L 348.783684 243.271359 
L 349.108664 247.954445 
L 349.758623 208.928025 
L 350.083603 179.060753 
L 350.408582 180.154225 
L 350.733562 167.429129 
L 351.058541 187.687051 
L 351.383521 196.797529 
L 351.7085 211.874869 
L 352.03348 211.260193 
L 352.358459 216.514608 
L 352.683439 218.340505 
L 353.008418 207.314382 
L 353.333398 211.777711 
L 353.983357 183.70544 
L 354.308336 181.872453 
L 354.633316 214.277123 
L 354.958295 198.487997 
L 355.283275 226.514229 
L 355.608255 231.021177 
L 355.933234 208.833666 
L 356.258214 218.818314 
L 356.583193 218.352767 
L 356.908173 234.840074 
L 357.233152 238.504983 
L 357.558132 226.426405 
L 357.883111 204.237022 
L 358.208091 217.422413 
L 358.53307 220.846509 
L 358.85805 227.110625 
L 359.183029 218.572953 
L 359.508009 220.978976 
L 359.832988 227.549965 
L 360.157968 226.489447 
L 360.482947 213.821857 
L 360.807927 195.272349 
L 361.132906 187.754688 
L 361.457886 199.676253 
L 362.107845 233.486282 
L 362.432825 225.115856 
L 363.082784 189.695627 
L 363.407763 194.36654 
L 363.732743 209.795367 
L 364.057722 236.821211 
L 364.382702 244.614047 
L 364.707681 214.794983 
L 365.032661 227.873597 
L 365.35764 231.991335 
L 365.68262 224.45971 
L 366.007599 206.278757 
L 366.332579 208.063674 
L 366.657558 223.059058 
L 366.982538 205.19691 
L 367.632497 184.363943 
L 368.282456 220.014921 
L 368.607436 216.04905 
L 369.257395 236.85001 
L 369.582374 233.433565 
L 369.907354 237.715031 
L 370.232333 223.20771 
L 370.557313 232.588362 
L 370.882292 236.019807 
L 371.207272 221.318863 
L 371.532251 219.306364 
L 371.857231 239.694282 
L 372.18221 228.08708 
L 373.157149 167.269736 
L 374.132087 135.765092 
L 374.457067 176.542649 
L 374.782046 174.586018 
L 375.107026 185.992539 
L 375.432006 191.280447 
L 375.756985 178.898775 
L 376.081965 180.592208 
L 376.406944 212.625721 
L 376.731924 232.445905 
L 377.056903 233.928159 
L 377.381883 229.489845 
L 377.706862 232.097233 
L 378.031842 213.998261 
L 378.356821 211.178785 
L 378.681801 225.588067 
L 379.00678 205.991919 
L 379.33176 197.881915 
L 379.656739 201.202352 
L 379.981719 200.541354 
L 380.306698 216.485714 
L 380.631678 207.948648 
L 381.281637 235.339742 
L 381.606617 217.15078 
L 381.931596 206.565114 
L 382.256576 189.869481 
L 382.581555 166.677633 
L 382.906535 187.010757 
L 383.556494 207.1251 
L 384.206453 200.774809 
L 384.531432 198.637233 
L 384.856412 188.306074 
L 385.181391 173.559532 
L 385.506371 185.71161 
L 385.83135 205.17818 
L 386.15633 195.378832 
L 386.481309 193.166856 
L 386.806289 175.836207 
L 387.131268 173.537177 
L 387.781227 189.505108 
L 388.106207 188.427696 
L 388.431187 176.86377 
L 388.756166 151.71863 
L 389.081146 138.664299 
L 389.406125 152.102616 
L 389.731105 172.132416 
L 390.381064 159.796236 
L 390.706043 137.967666 
L 391.031023 128.274477 
L 391.031023 128.274477 
" clip-path="url(#p9d9d7ea9c8)" style="fill: none; stroke: #1f77b4; stroke-width: 1.5; stroke-linecap: square"/>
   </g>
   <g id="patch_3">
    <path d="M 50.14375 288.430125 
L 50.14375 22.318125 
" style="fill: none; stroke: #000000; stroke-width: 0.8; stroke-linejoin: miter; stroke-linecap: square"/>
   </g>
   <g id="patch_4">
    <path d="M 407.26375 288.430125 
L 407.26375 22.318125 
" style="fill: none; stroke: #000000; stroke-width: 0.8; stroke-linejoin: miter; stroke-linecap: square"/>
   </g>
   <g id="patch_5">
    <path d="M 50.14375 288.430125 
L 407.26375 288.430125 
" style="fill: none; stroke: #000000; stroke-width: 0.8; stroke-linejoin: miter; stroke-linecap: square"/>
   </g>
   <g id="patch_6">
    <path d="M 50.14375 22.318125 
L 407.26375 22.318125 
" style="fill: none; stroke: #000000; stroke-width: 0.8; stroke-linejoin: miter; stroke-linecap: square"/>
   </g>
   <g id="text_19">
    <!-- SLAB - T(t) -->
    <g transform="translate(196.518438 16.318125) scale(0.12 -0.12)">
     <defs>
      <path id="DejaVuSans-53" d="M 3425 4513 
L 3425 3897 
Q 3066 4069 2747 4153 
Q 2428 4238 2131 4238 
Q 1616 4238 1336 4038 
Q 1056 3838 1056 3469 
Q 1056 3159 1242 3001 
Q 1428 2844 1947 2747 
L 2328 2669 
Q 3034 2534 3370 2195 
Q 3706 1856 3706 1288 
Q 3706 609 3251 259 
Q 2797 -91 1919 -91 
Q 1588 -91 1214 -16 
Q 841 59 441 206 
L 441 856 
Q 825 641 1194 531 
Q 1563 422 1919 422 
Q 2459 422 2753 634 
Q 3047 847 3047 1241 
Q 3047 1584 2836 1778 
Q 2625 1972 2144 2069 
L 1759 2144 
Q 1053 2284 737 2584 
Q 422 2884 422 3419 
Q 422 4038 858 4394 
Q 1294 4750 2059 4750 
Q 2388 4750 2728 4690 
Q 3069 4631 3425 4513 
z
" transform="scale(0.015625)"/>
      <path id="DejaVuSans-4c" d="M 628 4666 
L 1259 4666 
L 1259 531 
L 3531 531 
L 3531 0 
L 628 0 
L 628 4666 
z
" transform="scale(0.015625)"/>
      <path id="DejaVuSans-41" d="M 2188 4044 
L 1331 1722 
L 3047 1722 
L 2188 4044 
z
M 1831 4666 
L 2547 4666 
L 4325 0 
L 3669 0 
L 3244 1197 
L 1141 1197 
L 716 0 
L 50 0 
L 1831 4666 
z
" transform="scale(0.015625)"/>
      <path id="DejaVuSans-42" d="M 1259 2228 
L 1259 519 
L 2272 519 
Q 2781 519 3026 730 
Q 3272 941 3272 1375 
Q 3272 1813 3026 2020 
Q 2781 2228 2272 2228 
L 1259 2228 
z
M 1259 4147 
L 1259 2741 
L 2194 2741 
Q 2656 2741 2882 2914 
Q 3109 3088 3109 3444 
Q 3109 3797 2882 3972 
Q 2656 4147 2194 4147 
L 1259 4147 
z
M 628 4666 
L 2241 4666 
Q 2963 4666 3353 4366 
Q 3744 4066 3744 3513 
Q 3744 3084 3544 2831 
Q 3344 2578 2956 2516 
Q 3422 2416 3680 2098 
Q 3938 1781 3938 1306 
Q 3938 681 3513 340 
Q 3088 0 2303 0 
L 628 0 
L 628 4666 
z
" transform="scale(0.015625)"/>
      <path id="DejaVuSans-2d" d="M 313 2009 
L 1997 2009 
L 1997 1497 
L 313 1497 
L 313 2009 
z
" transform="scale(0.015625)"/>
     </defs>
     <use xlink:href="#DejaVuSans-53"/>
     <use xlink:href="#DejaVuSans-4c" transform="translate(63.476562 0)"/>
     <use xlink:href="#DejaVuSans-41" transform="translate(121.439453 0)"/>
     <use xlink:href="#DejaVuSans-42" transform="translate(189.847656 0)"/>
     <use xlink:href="#DejaVuSans-20" transform="translate(258.451172 0)"/>
     <use xlink:href="#DejaVuSans-2d" transform="translate(290.238281 0)"/>
     <use xlink:href="#DejaVuSans-20" transform="translate(326.322266 0)"/>
     <use xlink:href="#DejaVuSans-54" transform="translate(358.109375 0)"/>
     <use xlink:href="#DejaVuSans-28" transform="translate(419.193359 0)"/>
     <use xlink:href="#DejaVuSans-74" transform="translate(458.207031 0)"/>
     <use xlink:href="#DejaVuSans-29" transform="translate(497.416016 0)"/>
    </g>
   </g>
  </g>
 </g>
 <defs>
  <clipPath id="p9d9d7ea9c8">
   <rect x="50.14375" y="22.318125" width="357.12" height="266.112"/>
  </clipPath>
 </defs>
</svg>
